M48
; DRILL file {KiCad (5.99.0-10613-g4d227d2d2b)} date Wed May 26 08:20:40 2021
; FORMAT={-:-/ absolute / inch / decimal}
; #@! TF.CreationDate,2021-05-26T08:20:40+03:00
; #@! TF.GenerationSoftware,Kicad,Pcbnew,(5.99.0-10613-g4d227d2d2b)
; #@! TF.FileFunction,Plated,1,2,PTH
FMAT,2
INCH
; #@! TA.AperFunction,Plated,PTH,ViaDrill
T1C0.0118
; #@! TA.AperFunction,Plated,PTH,ComponentDrill
T2C0.0256
; #@! TA.AperFunction,Plated,PTH,ComponentDrill
T3C0.0354
; #@! TA.AperFunction,Plated,PTH,ComponentDrill
T4C0.0394
%
G90
G05
T1
X1.4016Y-1.9528
X1.4016Y-1.9843
X1.4016Y-2.5827
X1.4016Y-2.6142
X1.4016Y-3.2126
X1.4016Y-3.2441
X1.4016Y-3.8425
X1.4016Y-3.874
X1.4016Y-4.4724
X1.4016Y-4.5039
X1.6378Y-2.1457
X1.6378Y-2.7756
X1.6378Y-3.4055
X1.6378Y-4.0354
X1.6378Y-4.6654
X1.6732Y-1.7756
X1.6732Y-2.0512
X1.6732Y-2.4055
X1.6732Y-2.6811
X1.6732Y-3.0354
X1.6732Y-3.311
X1.6732Y-3.6654
X1.6732Y-3.9409
X1.6732Y-4.2953
X1.6732Y-4.5709
X1.7047Y-1.7756
X1.7047Y-2.4055
X1.7047Y-3.0354
X1.7047Y-3.6654
X1.7047Y-4.2953
X1.752Y-2.1512
X1.752Y-2.7811
X1.752Y-3.411
X1.752Y-4.0409
X1.752Y-4.6709
X1.761Y-1.8799
X1.761Y-2.5098
X1.761Y-3.1398
X1.761Y-3.7697
X1.761Y-4.3996
X1.811Y-1.8622
X1.811Y-2.4921
X1.811Y-3.122
X1.811Y-3.752
X1.811Y-4.3819
X1.937Y-1.9567
X1.937Y-2.5866
X1.937Y-3.2165
X1.937Y-3.8465
X1.937Y-4.4764
X2.0Y-1.874
X2.0Y-1.9852
X2.0Y-2.5039
X2.0Y-2.6152
X2.0Y-3.1339
X2.0Y-3.2451
X2.0Y-3.7638
X2.0Y-3.875
X2.0Y-4.3937
X2.0Y-4.5049
X2.1516Y-1.7874
X2.1516Y-2.4173
X2.1516Y-3.0472
X2.1516Y-3.6772
X2.1516Y-4.3071
X2.1624Y-1.8573
X2.1624Y-2.4872
X2.1624Y-3.1171
X2.1624Y-3.747
X2.1624Y-4.377
X2.2234Y-1.9262
X2.2234Y-2.5561
X2.2234Y-3.186
X2.2234Y-3.8159
X2.2234Y-4.4459
X2.247Y-1.8829
X2.247Y-2.5128
X2.247Y-3.1427
X2.247Y-3.7726
X2.247Y-4.4026
X2.2992Y-1.9852
X2.2992Y-2.6152
X2.2992Y-3.2451
X2.2992Y-3.875
X2.2992Y-4.5049
X2.3622Y-2.1339
X2.3622Y-2.7638
X2.3622Y-3.3937
X2.3622Y-4.0236
X2.3622Y-4.6535
X2.437Y-1.8819
X2.437Y-2.5118
X2.437Y-3.1417
X2.437Y-3.7717
X2.437Y-4.4016
X2.4606Y-2.1496
X2.4606Y-2.7795
X2.4606Y-3.4094
X2.4606Y-4.0394
X2.4606Y-4.6693
X2.8543Y-1.7874
X2.8543Y-2.4173
X2.8543Y-3.0472
X2.8543Y-3.6772
X2.8543Y-4.3071
X2.878Y-2.0551
X2.878Y-2.685
X2.878Y-3.315
X2.878Y-3.9449
X2.878Y-4.5748
X2.9528Y-1.8031
X2.9528Y-2.4331
X2.9528Y-3.063
X2.9528Y-3.6929
X2.9528Y-4.3228
X3.0157Y-1.9518
X3.0157Y-2.5817
X3.0157Y-3.2116
X3.0157Y-3.8415
X3.0157Y-4.4715
X3.0679Y-2.0541
X3.0679Y-2.6841
X3.0679Y-3.314
X3.0679Y-3.9439
X3.0679Y-4.5738
X3.0915Y-2.0108
X3.0915Y-2.6407
X3.0915Y-3.2707
X3.0915Y-3.9006
X3.0915Y-4.5305
X3.1526Y-2.0797
X3.1526Y-2.7096
X3.1526Y-3.3396
X3.1526Y-3.9695
X3.1526Y-4.5994
X3.1634Y-2.1496
X3.1634Y-2.7795
X3.1634Y-3.4094
X3.1634Y-4.0394
X3.1634Y-4.6693
X3.315Y-1.9518
X3.315Y-2.063
X3.315Y-2.5817
X3.315Y-2.6929
X3.315Y-3.2116
X3.315Y-3.3228
X3.315Y-3.8415
X3.315Y-3.9528
X3.315Y-4.4715
X3.315Y-4.5827
X3.378Y-1.9803
X3.378Y-2.6102
X3.378Y-3.2402
X3.378Y-3.8701
X3.378Y-4.5
X3.5039Y-2.0748
X3.5039Y-2.7047
X3.5039Y-3.3346
X3.5039Y-3.9646
X3.5039Y-4.5945
X3.5539Y-2.0571
X3.5539Y-2.687
X3.5539Y-3.3169
X3.5539Y-3.9469
X3.5539Y-4.5768
X3.563Y-1.7858
X3.563Y-2.4157
X3.563Y-3.0457
X3.563Y-3.6756
X3.563Y-4.3055
X3.6102Y-2.1614
X3.6102Y-2.7913
X3.6102Y-3.4213
X3.6102Y-4.0512
X3.6102Y-4.6811
X3.6417Y-1.8858
X3.6417Y-2.1614
X3.6417Y-2.5157
X3.6417Y-2.7913
X3.6417Y-3.1457
X3.6417Y-3.4213
X3.6417Y-3.7756
X3.6417Y-4.0512
X3.6417Y-4.4055
X3.6417Y-4.6811
X3.6772Y-1.7913
X3.6772Y-2.4213
X3.6772Y-3.0512
X3.6772Y-3.6811
X3.6772Y-4.311
X3.9134Y-1.9528
X3.9134Y-1.9843
X3.9134Y-2.5827
X3.9134Y-2.6142
X3.9134Y-3.2126
X3.9134Y-3.2441
X3.9134Y-3.8425
X3.9134Y-3.874
X3.9134Y-4.4724
X3.9134Y-4.5039
T2
X1.8898Y-2.1732
X1.8898Y-2.8031
X1.8898Y-3.4331
X1.8898Y-4.063
X1.8898Y-4.6929
X1.9398Y-2.1732
X1.9398Y-2.8031
X1.9398Y-3.4331
X1.9398Y-4.063
X1.9398Y-4.6929
X1.9898Y-2.1732
X1.9898Y-2.8031
X1.9898Y-3.4331
X1.9898Y-4.063
X1.9898Y-4.6929
X2.0398Y-2.1732
X2.0398Y-2.8031
X2.0398Y-3.4331
X2.0398Y-4.063
X2.0398Y-4.6929
X2.0898Y-2.1732
X2.0898Y-2.8031
X2.0898Y-3.4331
X2.0898Y-4.063
X2.0898Y-4.6929
X3.2252Y-1.7638
X3.2252Y-2.3937
X3.2252Y-3.0236
X3.2252Y-3.6535
X3.2252Y-4.2835
X3.2752Y-1.7638
X3.2752Y-2.3937
X3.2752Y-3.0236
X3.2752Y-3.6535
X3.2752Y-4.2835
X3.3252Y-1.7638
X3.3252Y-2.3937
X3.3252Y-3.0236
X3.3252Y-3.6535
X3.3252Y-4.2835
X3.3752Y-1.7638
X3.3752Y-2.3937
X3.3752Y-3.0236
X3.3752Y-3.6535
X3.3752Y-4.2835
X3.4252Y-1.7638
X3.4252Y-2.3937
X3.4252Y-3.0236
X3.4252Y-3.6535
X3.4252Y-4.2835
T4
X2.5394Y-1.9173
X2.5394Y-2.0173
X2.5394Y-2.5472
X2.5394Y-2.6472
X2.5394Y-3.1772
X2.5394Y-3.2772
X2.5394Y-3.8071
X2.5394Y-3.9071
X2.5394Y-4.437
X2.5394Y-4.537
X2.7756Y-1.9197
X2.7756Y-2.0197
X2.7756Y-2.5496
X2.7756Y-2.6496
X2.7756Y-3.1795
X2.7756Y-3.2795
X2.7756Y-3.8094
X2.7756Y-3.9094
X2.7756Y-4.4394
X2.7756Y-4.5394
T3
G00X1.4606Y-1.7441
M15
G01X1.3976Y-1.7441
M16
G05
G00X1.4606Y-2.1929
M15
G01X1.3976Y-2.1929
M16
G05
G00X1.4606Y-2.374
M15
G01X1.3976Y-2.374
M16
G05
G00X1.4606Y-2.8228
M15
G01X1.3976Y-2.8228
M16
G05
G00X1.4606Y-3.0039
M15
G01X1.3976Y-3.0039
M16
G05
G00X1.4606Y-3.4528
M15
G01X1.3976Y-3.4528
M16
G05
G00X1.4606Y-3.6339
M15
G01X1.3976Y-3.6339
M16
G05
G00X1.4606Y-4.0827
M15
G01X1.3976Y-4.0827
M16
G05
G00X1.4606Y-4.2638
M15
G01X1.3976Y-4.2638
M16
G05
G00X1.4606Y-4.7126
M15
G01X1.3976Y-4.7126
M16
G05
G00X3.8543Y-1.7441
M15
G01X3.9173Y-1.7441
M16
G05
G00X3.8543Y-2.1929
M15
G01X3.9173Y-2.1929
M16
G05
G00X3.8543Y-2.374
M15
G01X3.9173Y-2.374
M16
G05
G00X3.8543Y-2.8228
M15
G01X3.9173Y-2.8228
M16
G05
G00X3.8543Y-3.0039
M15
G01X3.9173Y-3.0039
M16
G05
G00X3.8543Y-3.4528
M15
G01X3.9173Y-3.4528
M16
G05
G00X3.8543Y-3.6339
M15
G01X3.9173Y-3.6339
M16
G05
G00X3.8543Y-4.0827
M15
G01X3.9173Y-4.0827
M16
G05
G00X3.8543Y-4.2638
M15
G01X3.9173Y-4.2638
M16
G05
G00X3.8543Y-4.7126
M15
G01X3.9173Y-4.7126
M16
G05
T0
M30
