G04 #@! TF.GenerationSoftware,KiCad,Pcbnew,(5.1.0-70-g46d257dc6)*
G04 #@! TF.CreationDate,2019-05-03T15:48:20+03:00*
G04 #@! TF.ProjectId,stm32_ds2480_emu,73746d33-325f-4647-9332-3438305f656d,rev?*
G04 #@! TF.SameCoordinates,Original*
G04 #@! TF.FileFunction,Paste,Top*
G04 #@! TF.FilePolarity,Positive*
%FSLAX46Y46*%
G04 Gerber Fmt 4.6, Leading zero omitted, Abs format (unit mm)*
G04 Created by KiCad (PCBNEW (5.1.0-70-g46d257dc6)) date 2019-05-03 15:48:20*
%MOMM*%
%LPD*%
G04 APERTURE LIST*
%ADD10C,0.100000*%
%ADD11C,0.975000*%
%ADD12R,0.800000X0.900000*%
%ADD13C,1.250000*%
%ADD14R,1.900000X1.500000*%
%ADD15R,1.350000X0.400000*%
%ADD16R,0.900000X0.800000*%
%ADD17C,0.875000*%
%ADD18R,1.500000X1.500000*%
%ADD19R,1.060000X0.650000*%
%ADD20R,1.450000X0.450000*%
G04 APERTURE END LIST*
D10*
G36*
X115230142Y-76201174D02*
G01*
X115253803Y-76204684D01*
X115277007Y-76210496D01*
X115299529Y-76218554D01*
X115321153Y-76228782D01*
X115341670Y-76241079D01*
X115360883Y-76255329D01*
X115378607Y-76271393D01*
X115394671Y-76289117D01*
X115408921Y-76308330D01*
X115421218Y-76328847D01*
X115431446Y-76350471D01*
X115439504Y-76372993D01*
X115445316Y-76396197D01*
X115448826Y-76419858D01*
X115450000Y-76443750D01*
X115450000Y-76931250D01*
X115448826Y-76955142D01*
X115445316Y-76978803D01*
X115439504Y-77002007D01*
X115431446Y-77024529D01*
X115421218Y-77046153D01*
X115408921Y-77066670D01*
X115394671Y-77085883D01*
X115378607Y-77103607D01*
X115360883Y-77119671D01*
X115341670Y-77133921D01*
X115321153Y-77146218D01*
X115299529Y-77156446D01*
X115277007Y-77164504D01*
X115253803Y-77170316D01*
X115230142Y-77173826D01*
X115206250Y-77175000D01*
X114293750Y-77175000D01*
X114269858Y-77173826D01*
X114246197Y-77170316D01*
X114222993Y-77164504D01*
X114200471Y-77156446D01*
X114178847Y-77146218D01*
X114158330Y-77133921D01*
X114139117Y-77119671D01*
X114121393Y-77103607D01*
X114105329Y-77085883D01*
X114091079Y-77066670D01*
X114078782Y-77046153D01*
X114068554Y-77024529D01*
X114060496Y-77002007D01*
X114054684Y-76978803D01*
X114051174Y-76955142D01*
X114050000Y-76931250D01*
X114050000Y-76443750D01*
X114051174Y-76419858D01*
X114054684Y-76396197D01*
X114060496Y-76372993D01*
X114068554Y-76350471D01*
X114078782Y-76328847D01*
X114091079Y-76308330D01*
X114105329Y-76289117D01*
X114121393Y-76271393D01*
X114139117Y-76255329D01*
X114158330Y-76241079D01*
X114178847Y-76228782D01*
X114200471Y-76218554D01*
X114222993Y-76210496D01*
X114246197Y-76204684D01*
X114269858Y-76201174D01*
X114293750Y-76200000D01*
X115206250Y-76200000D01*
X115230142Y-76201174D01*
X115230142Y-76201174D01*
G37*
D11*
X114750000Y-76687500D03*
D10*
G36*
X115230142Y-74326174D02*
G01*
X115253803Y-74329684D01*
X115277007Y-74335496D01*
X115299529Y-74343554D01*
X115321153Y-74353782D01*
X115341670Y-74366079D01*
X115360883Y-74380329D01*
X115378607Y-74396393D01*
X115394671Y-74414117D01*
X115408921Y-74433330D01*
X115421218Y-74453847D01*
X115431446Y-74475471D01*
X115439504Y-74497993D01*
X115445316Y-74521197D01*
X115448826Y-74544858D01*
X115450000Y-74568750D01*
X115450000Y-75056250D01*
X115448826Y-75080142D01*
X115445316Y-75103803D01*
X115439504Y-75127007D01*
X115431446Y-75149529D01*
X115421218Y-75171153D01*
X115408921Y-75191670D01*
X115394671Y-75210883D01*
X115378607Y-75228607D01*
X115360883Y-75244671D01*
X115341670Y-75258921D01*
X115321153Y-75271218D01*
X115299529Y-75281446D01*
X115277007Y-75289504D01*
X115253803Y-75295316D01*
X115230142Y-75298826D01*
X115206250Y-75300000D01*
X114293750Y-75300000D01*
X114269858Y-75298826D01*
X114246197Y-75295316D01*
X114222993Y-75289504D01*
X114200471Y-75281446D01*
X114178847Y-75271218D01*
X114158330Y-75258921D01*
X114139117Y-75244671D01*
X114121393Y-75228607D01*
X114105329Y-75210883D01*
X114091079Y-75191670D01*
X114078782Y-75171153D01*
X114068554Y-75149529D01*
X114060496Y-75127007D01*
X114054684Y-75103803D01*
X114051174Y-75080142D01*
X114050000Y-75056250D01*
X114050000Y-74568750D01*
X114051174Y-74544858D01*
X114054684Y-74521197D01*
X114060496Y-74497993D01*
X114068554Y-74475471D01*
X114078782Y-74453847D01*
X114091079Y-74433330D01*
X114105329Y-74414117D01*
X114121393Y-74396393D01*
X114139117Y-74380329D01*
X114158330Y-74366079D01*
X114178847Y-74353782D01*
X114200471Y-74343554D01*
X114222993Y-74335496D01*
X114246197Y-74329684D01*
X114269858Y-74326174D01*
X114293750Y-74325000D01*
X115206250Y-74325000D01*
X115230142Y-74326174D01*
X115230142Y-74326174D01*
G37*
D11*
X114750000Y-74812500D03*
D10*
G36*
X121980142Y-76201174D02*
G01*
X122003803Y-76204684D01*
X122027007Y-76210496D01*
X122049529Y-76218554D01*
X122071153Y-76228782D01*
X122091670Y-76241079D01*
X122110883Y-76255329D01*
X122128607Y-76271393D01*
X122144671Y-76289117D01*
X122158921Y-76308330D01*
X122171218Y-76328847D01*
X122181446Y-76350471D01*
X122189504Y-76372993D01*
X122195316Y-76396197D01*
X122198826Y-76419858D01*
X122200000Y-76443750D01*
X122200000Y-76931250D01*
X122198826Y-76955142D01*
X122195316Y-76978803D01*
X122189504Y-77002007D01*
X122181446Y-77024529D01*
X122171218Y-77046153D01*
X122158921Y-77066670D01*
X122144671Y-77085883D01*
X122128607Y-77103607D01*
X122110883Y-77119671D01*
X122091670Y-77133921D01*
X122071153Y-77146218D01*
X122049529Y-77156446D01*
X122027007Y-77164504D01*
X122003803Y-77170316D01*
X121980142Y-77173826D01*
X121956250Y-77175000D01*
X121043750Y-77175000D01*
X121019858Y-77173826D01*
X120996197Y-77170316D01*
X120972993Y-77164504D01*
X120950471Y-77156446D01*
X120928847Y-77146218D01*
X120908330Y-77133921D01*
X120889117Y-77119671D01*
X120871393Y-77103607D01*
X120855329Y-77085883D01*
X120841079Y-77066670D01*
X120828782Y-77046153D01*
X120818554Y-77024529D01*
X120810496Y-77002007D01*
X120804684Y-76978803D01*
X120801174Y-76955142D01*
X120800000Y-76931250D01*
X120800000Y-76443750D01*
X120801174Y-76419858D01*
X120804684Y-76396197D01*
X120810496Y-76372993D01*
X120818554Y-76350471D01*
X120828782Y-76328847D01*
X120841079Y-76308330D01*
X120855329Y-76289117D01*
X120871393Y-76271393D01*
X120889117Y-76255329D01*
X120908330Y-76241079D01*
X120928847Y-76228782D01*
X120950471Y-76218554D01*
X120972993Y-76210496D01*
X120996197Y-76204684D01*
X121019858Y-76201174D01*
X121043750Y-76200000D01*
X121956250Y-76200000D01*
X121980142Y-76201174D01*
X121980142Y-76201174D01*
G37*
D11*
X121500000Y-76687500D03*
D10*
G36*
X121980142Y-74326174D02*
G01*
X122003803Y-74329684D01*
X122027007Y-74335496D01*
X122049529Y-74343554D01*
X122071153Y-74353782D01*
X122091670Y-74366079D01*
X122110883Y-74380329D01*
X122128607Y-74396393D01*
X122144671Y-74414117D01*
X122158921Y-74433330D01*
X122171218Y-74453847D01*
X122181446Y-74475471D01*
X122189504Y-74497993D01*
X122195316Y-74521197D01*
X122198826Y-74544858D01*
X122200000Y-74568750D01*
X122200000Y-75056250D01*
X122198826Y-75080142D01*
X122195316Y-75103803D01*
X122189504Y-75127007D01*
X122181446Y-75149529D01*
X122171218Y-75171153D01*
X122158921Y-75191670D01*
X122144671Y-75210883D01*
X122128607Y-75228607D01*
X122110883Y-75244671D01*
X122091670Y-75258921D01*
X122071153Y-75271218D01*
X122049529Y-75281446D01*
X122027007Y-75289504D01*
X122003803Y-75295316D01*
X121980142Y-75298826D01*
X121956250Y-75300000D01*
X121043750Y-75300000D01*
X121019858Y-75298826D01*
X120996197Y-75295316D01*
X120972993Y-75289504D01*
X120950471Y-75281446D01*
X120928847Y-75271218D01*
X120908330Y-75258921D01*
X120889117Y-75244671D01*
X120871393Y-75228607D01*
X120855329Y-75210883D01*
X120841079Y-75191670D01*
X120828782Y-75171153D01*
X120818554Y-75149529D01*
X120810496Y-75127007D01*
X120804684Y-75103803D01*
X120801174Y-75080142D01*
X120800000Y-75056250D01*
X120800000Y-74568750D01*
X120801174Y-74544858D01*
X120804684Y-74521197D01*
X120810496Y-74497993D01*
X120818554Y-74475471D01*
X120828782Y-74453847D01*
X120841079Y-74433330D01*
X120855329Y-74414117D01*
X120871393Y-74396393D01*
X120889117Y-74380329D01*
X120908330Y-74366079D01*
X120928847Y-74353782D01*
X120950471Y-74343554D01*
X120972993Y-74335496D01*
X120996197Y-74329684D01*
X121019858Y-74326174D01*
X121043750Y-74325000D01*
X121956250Y-74325000D01*
X121980142Y-74326174D01*
X121980142Y-74326174D01*
G37*
D11*
X121500000Y-74812500D03*
D10*
G36*
X124230142Y-74326174D02*
G01*
X124253803Y-74329684D01*
X124277007Y-74335496D01*
X124299529Y-74343554D01*
X124321153Y-74353782D01*
X124341670Y-74366079D01*
X124360883Y-74380329D01*
X124378607Y-74396393D01*
X124394671Y-74414117D01*
X124408921Y-74433330D01*
X124421218Y-74453847D01*
X124431446Y-74475471D01*
X124439504Y-74497993D01*
X124445316Y-74521197D01*
X124448826Y-74544858D01*
X124450000Y-74568750D01*
X124450000Y-75056250D01*
X124448826Y-75080142D01*
X124445316Y-75103803D01*
X124439504Y-75127007D01*
X124431446Y-75149529D01*
X124421218Y-75171153D01*
X124408921Y-75191670D01*
X124394671Y-75210883D01*
X124378607Y-75228607D01*
X124360883Y-75244671D01*
X124341670Y-75258921D01*
X124321153Y-75271218D01*
X124299529Y-75281446D01*
X124277007Y-75289504D01*
X124253803Y-75295316D01*
X124230142Y-75298826D01*
X124206250Y-75300000D01*
X123293750Y-75300000D01*
X123269858Y-75298826D01*
X123246197Y-75295316D01*
X123222993Y-75289504D01*
X123200471Y-75281446D01*
X123178847Y-75271218D01*
X123158330Y-75258921D01*
X123139117Y-75244671D01*
X123121393Y-75228607D01*
X123105329Y-75210883D01*
X123091079Y-75191670D01*
X123078782Y-75171153D01*
X123068554Y-75149529D01*
X123060496Y-75127007D01*
X123054684Y-75103803D01*
X123051174Y-75080142D01*
X123050000Y-75056250D01*
X123050000Y-74568750D01*
X123051174Y-74544858D01*
X123054684Y-74521197D01*
X123060496Y-74497993D01*
X123068554Y-74475471D01*
X123078782Y-74453847D01*
X123091079Y-74433330D01*
X123105329Y-74414117D01*
X123121393Y-74396393D01*
X123139117Y-74380329D01*
X123158330Y-74366079D01*
X123178847Y-74353782D01*
X123200471Y-74343554D01*
X123222993Y-74335496D01*
X123246197Y-74329684D01*
X123269858Y-74326174D01*
X123293750Y-74325000D01*
X124206250Y-74325000D01*
X124230142Y-74326174D01*
X124230142Y-74326174D01*
G37*
D11*
X123750000Y-74812500D03*
D10*
G36*
X124230142Y-76201174D02*
G01*
X124253803Y-76204684D01*
X124277007Y-76210496D01*
X124299529Y-76218554D01*
X124321153Y-76228782D01*
X124341670Y-76241079D01*
X124360883Y-76255329D01*
X124378607Y-76271393D01*
X124394671Y-76289117D01*
X124408921Y-76308330D01*
X124421218Y-76328847D01*
X124431446Y-76350471D01*
X124439504Y-76372993D01*
X124445316Y-76396197D01*
X124448826Y-76419858D01*
X124450000Y-76443750D01*
X124450000Y-76931250D01*
X124448826Y-76955142D01*
X124445316Y-76978803D01*
X124439504Y-77002007D01*
X124431446Y-77024529D01*
X124421218Y-77046153D01*
X124408921Y-77066670D01*
X124394671Y-77085883D01*
X124378607Y-77103607D01*
X124360883Y-77119671D01*
X124341670Y-77133921D01*
X124321153Y-77146218D01*
X124299529Y-77156446D01*
X124277007Y-77164504D01*
X124253803Y-77170316D01*
X124230142Y-77173826D01*
X124206250Y-77175000D01*
X123293750Y-77175000D01*
X123269858Y-77173826D01*
X123246197Y-77170316D01*
X123222993Y-77164504D01*
X123200471Y-77156446D01*
X123178847Y-77146218D01*
X123158330Y-77133921D01*
X123139117Y-77119671D01*
X123121393Y-77103607D01*
X123105329Y-77085883D01*
X123091079Y-77066670D01*
X123078782Y-77046153D01*
X123068554Y-77024529D01*
X123060496Y-77002007D01*
X123054684Y-76978803D01*
X123051174Y-76955142D01*
X123050000Y-76931250D01*
X123050000Y-76443750D01*
X123051174Y-76419858D01*
X123054684Y-76396197D01*
X123060496Y-76372993D01*
X123068554Y-76350471D01*
X123078782Y-76328847D01*
X123091079Y-76308330D01*
X123105329Y-76289117D01*
X123121393Y-76271393D01*
X123139117Y-76255329D01*
X123158330Y-76241079D01*
X123178847Y-76228782D01*
X123200471Y-76218554D01*
X123222993Y-76210496D01*
X123246197Y-76204684D01*
X123269858Y-76201174D01*
X123293750Y-76200000D01*
X124206250Y-76200000D01*
X124230142Y-76201174D01*
X124230142Y-76201174D01*
G37*
D11*
X123750000Y-76687500D03*
D10*
G36*
X126480142Y-74326174D02*
G01*
X126503803Y-74329684D01*
X126527007Y-74335496D01*
X126549529Y-74343554D01*
X126571153Y-74353782D01*
X126591670Y-74366079D01*
X126610883Y-74380329D01*
X126628607Y-74396393D01*
X126644671Y-74414117D01*
X126658921Y-74433330D01*
X126671218Y-74453847D01*
X126681446Y-74475471D01*
X126689504Y-74497993D01*
X126695316Y-74521197D01*
X126698826Y-74544858D01*
X126700000Y-74568750D01*
X126700000Y-75056250D01*
X126698826Y-75080142D01*
X126695316Y-75103803D01*
X126689504Y-75127007D01*
X126681446Y-75149529D01*
X126671218Y-75171153D01*
X126658921Y-75191670D01*
X126644671Y-75210883D01*
X126628607Y-75228607D01*
X126610883Y-75244671D01*
X126591670Y-75258921D01*
X126571153Y-75271218D01*
X126549529Y-75281446D01*
X126527007Y-75289504D01*
X126503803Y-75295316D01*
X126480142Y-75298826D01*
X126456250Y-75300000D01*
X125543750Y-75300000D01*
X125519858Y-75298826D01*
X125496197Y-75295316D01*
X125472993Y-75289504D01*
X125450471Y-75281446D01*
X125428847Y-75271218D01*
X125408330Y-75258921D01*
X125389117Y-75244671D01*
X125371393Y-75228607D01*
X125355329Y-75210883D01*
X125341079Y-75191670D01*
X125328782Y-75171153D01*
X125318554Y-75149529D01*
X125310496Y-75127007D01*
X125304684Y-75103803D01*
X125301174Y-75080142D01*
X125300000Y-75056250D01*
X125300000Y-74568750D01*
X125301174Y-74544858D01*
X125304684Y-74521197D01*
X125310496Y-74497993D01*
X125318554Y-74475471D01*
X125328782Y-74453847D01*
X125341079Y-74433330D01*
X125355329Y-74414117D01*
X125371393Y-74396393D01*
X125389117Y-74380329D01*
X125408330Y-74366079D01*
X125428847Y-74353782D01*
X125450471Y-74343554D01*
X125472993Y-74335496D01*
X125496197Y-74329684D01*
X125519858Y-74326174D01*
X125543750Y-74325000D01*
X126456250Y-74325000D01*
X126480142Y-74326174D01*
X126480142Y-74326174D01*
G37*
D11*
X126000000Y-74812500D03*
D10*
G36*
X126480142Y-76201174D02*
G01*
X126503803Y-76204684D01*
X126527007Y-76210496D01*
X126549529Y-76218554D01*
X126571153Y-76228782D01*
X126591670Y-76241079D01*
X126610883Y-76255329D01*
X126628607Y-76271393D01*
X126644671Y-76289117D01*
X126658921Y-76308330D01*
X126671218Y-76328847D01*
X126681446Y-76350471D01*
X126689504Y-76372993D01*
X126695316Y-76396197D01*
X126698826Y-76419858D01*
X126700000Y-76443750D01*
X126700000Y-76931250D01*
X126698826Y-76955142D01*
X126695316Y-76978803D01*
X126689504Y-77002007D01*
X126681446Y-77024529D01*
X126671218Y-77046153D01*
X126658921Y-77066670D01*
X126644671Y-77085883D01*
X126628607Y-77103607D01*
X126610883Y-77119671D01*
X126591670Y-77133921D01*
X126571153Y-77146218D01*
X126549529Y-77156446D01*
X126527007Y-77164504D01*
X126503803Y-77170316D01*
X126480142Y-77173826D01*
X126456250Y-77175000D01*
X125543750Y-77175000D01*
X125519858Y-77173826D01*
X125496197Y-77170316D01*
X125472993Y-77164504D01*
X125450471Y-77156446D01*
X125428847Y-77146218D01*
X125408330Y-77133921D01*
X125389117Y-77119671D01*
X125371393Y-77103607D01*
X125355329Y-77085883D01*
X125341079Y-77066670D01*
X125328782Y-77046153D01*
X125318554Y-77024529D01*
X125310496Y-77002007D01*
X125304684Y-76978803D01*
X125301174Y-76955142D01*
X125300000Y-76931250D01*
X125300000Y-76443750D01*
X125301174Y-76419858D01*
X125304684Y-76396197D01*
X125310496Y-76372993D01*
X125318554Y-76350471D01*
X125328782Y-76328847D01*
X125341079Y-76308330D01*
X125355329Y-76289117D01*
X125371393Y-76271393D01*
X125389117Y-76255329D01*
X125408330Y-76241079D01*
X125428847Y-76228782D01*
X125450471Y-76218554D01*
X125472993Y-76210496D01*
X125496197Y-76204684D01*
X125519858Y-76201174D01*
X125543750Y-76200000D01*
X126456250Y-76200000D01*
X126480142Y-76201174D01*
X126480142Y-76201174D01*
G37*
D11*
X126000000Y-76687500D03*
D12*
X134750000Y-84250000D03*
X135700000Y-86250000D03*
X133800000Y-86250000D03*
D10*
G36*
X119499504Y-78126204D02*
G01*
X119523773Y-78129804D01*
X119547571Y-78135765D01*
X119570671Y-78144030D01*
X119592849Y-78154520D01*
X119613893Y-78167133D01*
X119633598Y-78181747D01*
X119651777Y-78198223D01*
X119668253Y-78216402D01*
X119682867Y-78236107D01*
X119695480Y-78257151D01*
X119705970Y-78279329D01*
X119714235Y-78302429D01*
X119720196Y-78326227D01*
X119723796Y-78350496D01*
X119725000Y-78375000D01*
X119725000Y-79625000D01*
X119723796Y-79649504D01*
X119720196Y-79673773D01*
X119714235Y-79697571D01*
X119705970Y-79720671D01*
X119695480Y-79742849D01*
X119682867Y-79763893D01*
X119668253Y-79783598D01*
X119651777Y-79801777D01*
X119633598Y-79818253D01*
X119613893Y-79832867D01*
X119592849Y-79845480D01*
X119570671Y-79855970D01*
X119547571Y-79864235D01*
X119523773Y-79870196D01*
X119499504Y-79873796D01*
X119475000Y-79875000D01*
X118725000Y-79875000D01*
X118700496Y-79873796D01*
X118676227Y-79870196D01*
X118652429Y-79864235D01*
X118629329Y-79855970D01*
X118607151Y-79845480D01*
X118586107Y-79832867D01*
X118566402Y-79818253D01*
X118548223Y-79801777D01*
X118531747Y-79783598D01*
X118517133Y-79763893D01*
X118504520Y-79742849D01*
X118494030Y-79720671D01*
X118485765Y-79697571D01*
X118479804Y-79673773D01*
X118476204Y-79649504D01*
X118475000Y-79625000D01*
X118475000Y-78375000D01*
X118476204Y-78350496D01*
X118479804Y-78326227D01*
X118485765Y-78302429D01*
X118494030Y-78279329D01*
X118504520Y-78257151D01*
X118517133Y-78236107D01*
X118531747Y-78216402D01*
X118548223Y-78198223D01*
X118566402Y-78181747D01*
X118586107Y-78167133D01*
X118607151Y-78154520D01*
X118629329Y-78144030D01*
X118652429Y-78135765D01*
X118676227Y-78129804D01*
X118700496Y-78126204D01*
X118725000Y-78125000D01*
X119475000Y-78125000D01*
X119499504Y-78126204D01*
X119499504Y-78126204D01*
G37*
D13*
X119100000Y-79000000D03*
D10*
G36*
X116699504Y-78126204D02*
G01*
X116723773Y-78129804D01*
X116747571Y-78135765D01*
X116770671Y-78144030D01*
X116792849Y-78154520D01*
X116813893Y-78167133D01*
X116833598Y-78181747D01*
X116851777Y-78198223D01*
X116868253Y-78216402D01*
X116882867Y-78236107D01*
X116895480Y-78257151D01*
X116905970Y-78279329D01*
X116914235Y-78302429D01*
X116920196Y-78326227D01*
X116923796Y-78350496D01*
X116925000Y-78375000D01*
X116925000Y-79625000D01*
X116923796Y-79649504D01*
X116920196Y-79673773D01*
X116914235Y-79697571D01*
X116905970Y-79720671D01*
X116895480Y-79742849D01*
X116882867Y-79763893D01*
X116868253Y-79783598D01*
X116851777Y-79801777D01*
X116833598Y-79818253D01*
X116813893Y-79832867D01*
X116792849Y-79845480D01*
X116770671Y-79855970D01*
X116747571Y-79864235D01*
X116723773Y-79870196D01*
X116699504Y-79873796D01*
X116675000Y-79875000D01*
X115925000Y-79875000D01*
X115900496Y-79873796D01*
X115876227Y-79870196D01*
X115852429Y-79864235D01*
X115829329Y-79855970D01*
X115807151Y-79845480D01*
X115786107Y-79832867D01*
X115766402Y-79818253D01*
X115748223Y-79801777D01*
X115731747Y-79783598D01*
X115717133Y-79763893D01*
X115704520Y-79742849D01*
X115694030Y-79720671D01*
X115685765Y-79697571D01*
X115679804Y-79673773D01*
X115676204Y-79649504D01*
X115675000Y-79625000D01*
X115675000Y-78375000D01*
X115676204Y-78350496D01*
X115679804Y-78326227D01*
X115685765Y-78302429D01*
X115694030Y-78279329D01*
X115704520Y-78257151D01*
X115717133Y-78236107D01*
X115731747Y-78216402D01*
X115748223Y-78198223D01*
X115766402Y-78181747D01*
X115786107Y-78167133D01*
X115807151Y-78154520D01*
X115829329Y-78144030D01*
X115852429Y-78135765D01*
X115876227Y-78129804D01*
X115900496Y-78126204D01*
X115925000Y-78125000D01*
X116675000Y-78125000D01*
X116699504Y-78126204D01*
X116699504Y-78126204D01*
G37*
D13*
X116300000Y-79000000D03*
D14*
X114262500Y-86250000D03*
D15*
X116962500Y-84600000D03*
X116962500Y-83950000D03*
X116962500Y-86550000D03*
X116962500Y-85900000D03*
X116962500Y-85250000D03*
D14*
X114262500Y-84250000D03*
D16*
X132100000Y-80500000D03*
X130100000Y-81450000D03*
X130100000Y-79550000D03*
D10*
G36*
X133027691Y-90276053D02*
G01*
X133048926Y-90279203D01*
X133069750Y-90284419D01*
X133089962Y-90291651D01*
X133109368Y-90300830D01*
X133127781Y-90311866D01*
X133145024Y-90324654D01*
X133160930Y-90339070D01*
X133175346Y-90354976D01*
X133188134Y-90372219D01*
X133199170Y-90390632D01*
X133208349Y-90410038D01*
X133215581Y-90430250D01*
X133220797Y-90451074D01*
X133223947Y-90472309D01*
X133225000Y-90493750D01*
X133225000Y-91006250D01*
X133223947Y-91027691D01*
X133220797Y-91048926D01*
X133215581Y-91069750D01*
X133208349Y-91089962D01*
X133199170Y-91109368D01*
X133188134Y-91127781D01*
X133175346Y-91145024D01*
X133160930Y-91160930D01*
X133145024Y-91175346D01*
X133127781Y-91188134D01*
X133109368Y-91199170D01*
X133089962Y-91208349D01*
X133069750Y-91215581D01*
X133048926Y-91220797D01*
X133027691Y-91223947D01*
X133006250Y-91225000D01*
X132568750Y-91225000D01*
X132547309Y-91223947D01*
X132526074Y-91220797D01*
X132505250Y-91215581D01*
X132485038Y-91208349D01*
X132465632Y-91199170D01*
X132447219Y-91188134D01*
X132429976Y-91175346D01*
X132414070Y-91160930D01*
X132399654Y-91145024D01*
X132386866Y-91127781D01*
X132375830Y-91109368D01*
X132366651Y-91089962D01*
X132359419Y-91069750D01*
X132354203Y-91048926D01*
X132351053Y-91027691D01*
X132350000Y-91006250D01*
X132350000Y-90493750D01*
X132351053Y-90472309D01*
X132354203Y-90451074D01*
X132359419Y-90430250D01*
X132366651Y-90410038D01*
X132375830Y-90390632D01*
X132386866Y-90372219D01*
X132399654Y-90354976D01*
X132414070Y-90339070D01*
X132429976Y-90324654D01*
X132447219Y-90311866D01*
X132465632Y-90300830D01*
X132485038Y-90291651D01*
X132505250Y-90284419D01*
X132526074Y-90279203D01*
X132547309Y-90276053D01*
X132568750Y-90275000D01*
X133006250Y-90275000D01*
X133027691Y-90276053D01*
X133027691Y-90276053D01*
G37*
D17*
X132787500Y-90750000D03*
D10*
G36*
X131452691Y-90276053D02*
G01*
X131473926Y-90279203D01*
X131494750Y-90284419D01*
X131514962Y-90291651D01*
X131534368Y-90300830D01*
X131552781Y-90311866D01*
X131570024Y-90324654D01*
X131585930Y-90339070D01*
X131600346Y-90354976D01*
X131613134Y-90372219D01*
X131624170Y-90390632D01*
X131633349Y-90410038D01*
X131640581Y-90430250D01*
X131645797Y-90451074D01*
X131648947Y-90472309D01*
X131650000Y-90493750D01*
X131650000Y-91006250D01*
X131648947Y-91027691D01*
X131645797Y-91048926D01*
X131640581Y-91069750D01*
X131633349Y-91089962D01*
X131624170Y-91109368D01*
X131613134Y-91127781D01*
X131600346Y-91145024D01*
X131585930Y-91160930D01*
X131570024Y-91175346D01*
X131552781Y-91188134D01*
X131534368Y-91199170D01*
X131514962Y-91208349D01*
X131494750Y-91215581D01*
X131473926Y-91220797D01*
X131452691Y-91223947D01*
X131431250Y-91225000D01*
X130993750Y-91225000D01*
X130972309Y-91223947D01*
X130951074Y-91220797D01*
X130930250Y-91215581D01*
X130910038Y-91208349D01*
X130890632Y-91199170D01*
X130872219Y-91188134D01*
X130854976Y-91175346D01*
X130839070Y-91160930D01*
X130824654Y-91145024D01*
X130811866Y-91127781D01*
X130800830Y-91109368D01*
X130791651Y-91089962D01*
X130784419Y-91069750D01*
X130779203Y-91048926D01*
X130776053Y-91027691D01*
X130775000Y-91006250D01*
X130775000Y-90493750D01*
X130776053Y-90472309D01*
X130779203Y-90451074D01*
X130784419Y-90430250D01*
X130791651Y-90410038D01*
X130800830Y-90390632D01*
X130811866Y-90372219D01*
X130824654Y-90354976D01*
X130839070Y-90339070D01*
X130854976Y-90324654D01*
X130872219Y-90311866D01*
X130890632Y-90300830D01*
X130910038Y-90291651D01*
X130930250Y-90284419D01*
X130951074Y-90279203D01*
X130972309Y-90276053D01*
X130993750Y-90275000D01*
X131431250Y-90275000D01*
X131452691Y-90276053D01*
X131452691Y-90276053D01*
G37*
D17*
X131212500Y-90750000D03*
D10*
G36*
X124027691Y-79601053D02*
G01*
X124048926Y-79604203D01*
X124069750Y-79609419D01*
X124089962Y-79616651D01*
X124109368Y-79625830D01*
X124127781Y-79636866D01*
X124145024Y-79649654D01*
X124160930Y-79664070D01*
X124175346Y-79679976D01*
X124188134Y-79697219D01*
X124199170Y-79715632D01*
X124208349Y-79735038D01*
X124215581Y-79755250D01*
X124220797Y-79776074D01*
X124223947Y-79797309D01*
X124225000Y-79818750D01*
X124225000Y-80256250D01*
X124223947Y-80277691D01*
X124220797Y-80298926D01*
X124215581Y-80319750D01*
X124208349Y-80339962D01*
X124199170Y-80359368D01*
X124188134Y-80377781D01*
X124175346Y-80395024D01*
X124160930Y-80410930D01*
X124145024Y-80425346D01*
X124127781Y-80438134D01*
X124109368Y-80449170D01*
X124089962Y-80458349D01*
X124069750Y-80465581D01*
X124048926Y-80470797D01*
X124027691Y-80473947D01*
X124006250Y-80475000D01*
X123493750Y-80475000D01*
X123472309Y-80473947D01*
X123451074Y-80470797D01*
X123430250Y-80465581D01*
X123410038Y-80458349D01*
X123390632Y-80449170D01*
X123372219Y-80438134D01*
X123354976Y-80425346D01*
X123339070Y-80410930D01*
X123324654Y-80395024D01*
X123311866Y-80377781D01*
X123300830Y-80359368D01*
X123291651Y-80339962D01*
X123284419Y-80319750D01*
X123279203Y-80298926D01*
X123276053Y-80277691D01*
X123275000Y-80256250D01*
X123275000Y-79818750D01*
X123276053Y-79797309D01*
X123279203Y-79776074D01*
X123284419Y-79755250D01*
X123291651Y-79735038D01*
X123300830Y-79715632D01*
X123311866Y-79697219D01*
X123324654Y-79679976D01*
X123339070Y-79664070D01*
X123354976Y-79649654D01*
X123372219Y-79636866D01*
X123390632Y-79625830D01*
X123410038Y-79616651D01*
X123430250Y-79609419D01*
X123451074Y-79604203D01*
X123472309Y-79601053D01*
X123493750Y-79600000D01*
X124006250Y-79600000D01*
X124027691Y-79601053D01*
X124027691Y-79601053D01*
G37*
D17*
X123750000Y-80037500D03*
D10*
G36*
X124027691Y-78026053D02*
G01*
X124048926Y-78029203D01*
X124069750Y-78034419D01*
X124089962Y-78041651D01*
X124109368Y-78050830D01*
X124127781Y-78061866D01*
X124145024Y-78074654D01*
X124160930Y-78089070D01*
X124175346Y-78104976D01*
X124188134Y-78122219D01*
X124199170Y-78140632D01*
X124208349Y-78160038D01*
X124215581Y-78180250D01*
X124220797Y-78201074D01*
X124223947Y-78222309D01*
X124225000Y-78243750D01*
X124225000Y-78681250D01*
X124223947Y-78702691D01*
X124220797Y-78723926D01*
X124215581Y-78744750D01*
X124208349Y-78764962D01*
X124199170Y-78784368D01*
X124188134Y-78802781D01*
X124175346Y-78820024D01*
X124160930Y-78835930D01*
X124145024Y-78850346D01*
X124127781Y-78863134D01*
X124109368Y-78874170D01*
X124089962Y-78883349D01*
X124069750Y-78890581D01*
X124048926Y-78895797D01*
X124027691Y-78898947D01*
X124006250Y-78900000D01*
X123493750Y-78900000D01*
X123472309Y-78898947D01*
X123451074Y-78895797D01*
X123430250Y-78890581D01*
X123410038Y-78883349D01*
X123390632Y-78874170D01*
X123372219Y-78863134D01*
X123354976Y-78850346D01*
X123339070Y-78835930D01*
X123324654Y-78820024D01*
X123311866Y-78802781D01*
X123300830Y-78784368D01*
X123291651Y-78764962D01*
X123284419Y-78744750D01*
X123279203Y-78723926D01*
X123276053Y-78702691D01*
X123275000Y-78681250D01*
X123275000Y-78243750D01*
X123276053Y-78222309D01*
X123279203Y-78201074D01*
X123284419Y-78180250D01*
X123291651Y-78160038D01*
X123300830Y-78140632D01*
X123311866Y-78122219D01*
X123324654Y-78104976D01*
X123339070Y-78089070D01*
X123354976Y-78074654D01*
X123372219Y-78061866D01*
X123390632Y-78050830D01*
X123410038Y-78041651D01*
X123430250Y-78034419D01*
X123451074Y-78029203D01*
X123472309Y-78026053D01*
X123493750Y-78025000D01*
X124006250Y-78025000D01*
X124027691Y-78026053D01*
X124027691Y-78026053D01*
G37*
D17*
X123750000Y-78462500D03*
D10*
G36*
X126277691Y-79601053D02*
G01*
X126298926Y-79604203D01*
X126319750Y-79609419D01*
X126339962Y-79616651D01*
X126359368Y-79625830D01*
X126377781Y-79636866D01*
X126395024Y-79649654D01*
X126410930Y-79664070D01*
X126425346Y-79679976D01*
X126438134Y-79697219D01*
X126449170Y-79715632D01*
X126458349Y-79735038D01*
X126465581Y-79755250D01*
X126470797Y-79776074D01*
X126473947Y-79797309D01*
X126475000Y-79818750D01*
X126475000Y-80256250D01*
X126473947Y-80277691D01*
X126470797Y-80298926D01*
X126465581Y-80319750D01*
X126458349Y-80339962D01*
X126449170Y-80359368D01*
X126438134Y-80377781D01*
X126425346Y-80395024D01*
X126410930Y-80410930D01*
X126395024Y-80425346D01*
X126377781Y-80438134D01*
X126359368Y-80449170D01*
X126339962Y-80458349D01*
X126319750Y-80465581D01*
X126298926Y-80470797D01*
X126277691Y-80473947D01*
X126256250Y-80475000D01*
X125743750Y-80475000D01*
X125722309Y-80473947D01*
X125701074Y-80470797D01*
X125680250Y-80465581D01*
X125660038Y-80458349D01*
X125640632Y-80449170D01*
X125622219Y-80438134D01*
X125604976Y-80425346D01*
X125589070Y-80410930D01*
X125574654Y-80395024D01*
X125561866Y-80377781D01*
X125550830Y-80359368D01*
X125541651Y-80339962D01*
X125534419Y-80319750D01*
X125529203Y-80298926D01*
X125526053Y-80277691D01*
X125525000Y-80256250D01*
X125525000Y-79818750D01*
X125526053Y-79797309D01*
X125529203Y-79776074D01*
X125534419Y-79755250D01*
X125541651Y-79735038D01*
X125550830Y-79715632D01*
X125561866Y-79697219D01*
X125574654Y-79679976D01*
X125589070Y-79664070D01*
X125604976Y-79649654D01*
X125622219Y-79636866D01*
X125640632Y-79625830D01*
X125660038Y-79616651D01*
X125680250Y-79609419D01*
X125701074Y-79604203D01*
X125722309Y-79601053D01*
X125743750Y-79600000D01*
X126256250Y-79600000D01*
X126277691Y-79601053D01*
X126277691Y-79601053D01*
G37*
D17*
X126000000Y-80037500D03*
D10*
G36*
X126277691Y-78026053D02*
G01*
X126298926Y-78029203D01*
X126319750Y-78034419D01*
X126339962Y-78041651D01*
X126359368Y-78050830D01*
X126377781Y-78061866D01*
X126395024Y-78074654D01*
X126410930Y-78089070D01*
X126425346Y-78104976D01*
X126438134Y-78122219D01*
X126449170Y-78140632D01*
X126458349Y-78160038D01*
X126465581Y-78180250D01*
X126470797Y-78201074D01*
X126473947Y-78222309D01*
X126475000Y-78243750D01*
X126475000Y-78681250D01*
X126473947Y-78702691D01*
X126470797Y-78723926D01*
X126465581Y-78744750D01*
X126458349Y-78764962D01*
X126449170Y-78784368D01*
X126438134Y-78802781D01*
X126425346Y-78820024D01*
X126410930Y-78835930D01*
X126395024Y-78850346D01*
X126377781Y-78863134D01*
X126359368Y-78874170D01*
X126339962Y-78883349D01*
X126319750Y-78890581D01*
X126298926Y-78895797D01*
X126277691Y-78898947D01*
X126256250Y-78900000D01*
X125743750Y-78900000D01*
X125722309Y-78898947D01*
X125701074Y-78895797D01*
X125680250Y-78890581D01*
X125660038Y-78883349D01*
X125640632Y-78874170D01*
X125622219Y-78863134D01*
X125604976Y-78850346D01*
X125589070Y-78835930D01*
X125574654Y-78820024D01*
X125561866Y-78802781D01*
X125550830Y-78784368D01*
X125541651Y-78764962D01*
X125534419Y-78744750D01*
X125529203Y-78723926D01*
X125526053Y-78702691D01*
X125525000Y-78681250D01*
X125525000Y-78243750D01*
X125526053Y-78222309D01*
X125529203Y-78201074D01*
X125534419Y-78180250D01*
X125541651Y-78160038D01*
X125550830Y-78140632D01*
X125561866Y-78122219D01*
X125574654Y-78104976D01*
X125589070Y-78089070D01*
X125604976Y-78074654D01*
X125622219Y-78061866D01*
X125640632Y-78050830D01*
X125660038Y-78041651D01*
X125680250Y-78034419D01*
X125701074Y-78029203D01*
X125722309Y-78026053D01*
X125743750Y-78025000D01*
X126256250Y-78025000D01*
X126277691Y-78026053D01*
X126277691Y-78026053D01*
G37*
D17*
X126000000Y-78462500D03*
D10*
G36*
X130377691Y-82676053D02*
G01*
X130398926Y-82679203D01*
X130419750Y-82684419D01*
X130439962Y-82691651D01*
X130459368Y-82700830D01*
X130477781Y-82711866D01*
X130495024Y-82724654D01*
X130510930Y-82739070D01*
X130525346Y-82754976D01*
X130538134Y-82772219D01*
X130549170Y-82790632D01*
X130558349Y-82810038D01*
X130565581Y-82830250D01*
X130570797Y-82851074D01*
X130573947Y-82872309D01*
X130575000Y-82893750D01*
X130575000Y-83331250D01*
X130573947Y-83352691D01*
X130570797Y-83373926D01*
X130565581Y-83394750D01*
X130558349Y-83414962D01*
X130549170Y-83434368D01*
X130538134Y-83452781D01*
X130525346Y-83470024D01*
X130510930Y-83485930D01*
X130495024Y-83500346D01*
X130477781Y-83513134D01*
X130459368Y-83524170D01*
X130439962Y-83533349D01*
X130419750Y-83540581D01*
X130398926Y-83545797D01*
X130377691Y-83548947D01*
X130356250Y-83550000D01*
X129843750Y-83550000D01*
X129822309Y-83548947D01*
X129801074Y-83545797D01*
X129780250Y-83540581D01*
X129760038Y-83533349D01*
X129740632Y-83524170D01*
X129722219Y-83513134D01*
X129704976Y-83500346D01*
X129689070Y-83485930D01*
X129674654Y-83470024D01*
X129661866Y-83452781D01*
X129650830Y-83434368D01*
X129641651Y-83414962D01*
X129634419Y-83394750D01*
X129629203Y-83373926D01*
X129626053Y-83352691D01*
X129625000Y-83331250D01*
X129625000Y-82893750D01*
X129626053Y-82872309D01*
X129629203Y-82851074D01*
X129634419Y-82830250D01*
X129641651Y-82810038D01*
X129650830Y-82790632D01*
X129661866Y-82772219D01*
X129674654Y-82754976D01*
X129689070Y-82739070D01*
X129704976Y-82724654D01*
X129722219Y-82711866D01*
X129740632Y-82700830D01*
X129760038Y-82691651D01*
X129780250Y-82684419D01*
X129801074Y-82679203D01*
X129822309Y-82676053D01*
X129843750Y-82675000D01*
X130356250Y-82675000D01*
X130377691Y-82676053D01*
X130377691Y-82676053D01*
G37*
D17*
X130100000Y-83112500D03*
D10*
G36*
X130377691Y-84251053D02*
G01*
X130398926Y-84254203D01*
X130419750Y-84259419D01*
X130439962Y-84266651D01*
X130459368Y-84275830D01*
X130477781Y-84286866D01*
X130495024Y-84299654D01*
X130510930Y-84314070D01*
X130525346Y-84329976D01*
X130538134Y-84347219D01*
X130549170Y-84365632D01*
X130558349Y-84385038D01*
X130565581Y-84405250D01*
X130570797Y-84426074D01*
X130573947Y-84447309D01*
X130575000Y-84468750D01*
X130575000Y-84906250D01*
X130573947Y-84927691D01*
X130570797Y-84948926D01*
X130565581Y-84969750D01*
X130558349Y-84989962D01*
X130549170Y-85009368D01*
X130538134Y-85027781D01*
X130525346Y-85045024D01*
X130510930Y-85060930D01*
X130495024Y-85075346D01*
X130477781Y-85088134D01*
X130459368Y-85099170D01*
X130439962Y-85108349D01*
X130419750Y-85115581D01*
X130398926Y-85120797D01*
X130377691Y-85123947D01*
X130356250Y-85125000D01*
X129843750Y-85125000D01*
X129822309Y-85123947D01*
X129801074Y-85120797D01*
X129780250Y-85115581D01*
X129760038Y-85108349D01*
X129740632Y-85099170D01*
X129722219Y-85088134D01*
X129704976Y-85075346D01*
X129689070Y-85060930D01*
X129674654Y-85045024D01*
X129661866Y-85027781D01*
X129650830Y-85009368D01*
X129641651Y-84989962D01*
X129634419Y-84969750D01*
X129629203Y-84948926D01*
X129626053Y-84927691D01*
X129625000Y-84906250D01*
X129625000Y-84468750D01*
X129626053Y-84447309D01*
X129629203Y-84426074D01*
X129634419Y-84405250D01*
X129641651Y-84385038D01*
X129650830Y-84365632D01*
X129661866Y-84347219D01*
X129674654Y-84329976D01*
X129689070Y-84314070D01*
X129704976Y-84299654D01*
X129722219Y-84286866D01*
X129740632Y-84275830D01*
X129760038Y-84266651D01*
X129780250Y-84259419D01*
X129801074Y-84254203D01*
X129822309Y-84251053D01*
X129843750Y-84250000D01*
X130356250Y-84250000D01*
X130377691Y-84251053D01*
X130377691Y-84251053D01*
G37*
D17*
X130100000Y-84687500D03*
D18*
X121350000Y-90750000D03*
X129150000Y-90750000D03*
D19*
X119600000Y-74800000D03*
X119600000Y-76700000D03*
X117400000Y-76700000D03*
X117400000Y-75750000D03*
X117400000Y-74800000D03*
D20*
X122300000Y-87425000D03*
X122300000Y-86775000D03*
X122300000Y-86125000D03*
X122300000Y-85475000D03*
X122300000Y-84825000D03*
X122300000Y-84175000D03*
X122300000Y-83525000D03*
X122300000Y-82875000D03*
X122300000Y-82225000D03*
X122300000Y-81575000D03*
X128200000Y-81575000D03*
X128200000Y-82225000D03*
X128200000Y-82875000D03*
X128200000Y-83525000D03*
X128200000Y-84175000D03*
X128200000Y-84825000D03*
X128200000Y-85475000D03*
X128200000Y-86125000D03*
X128200000Y-86775000D03*
X128200000Y-87425000D03*
D10*
G36*
X134080142Y-81801174D02*
G01*
X134103803Y-81804684D01*
X134127007Y-81810496D01*
X134149529Y-81818554D01*
X134171153Y-81828782D01*
X134191670Y-81841079D01*
X134210883Y-81855329D01*
X134228607Y-81871393D01*
X134244671Y-81889117D01*
X134258921Y-81908330D01*
X134271218Y-81928847D01*
X134281446Y-81950471D01*
X134289504Y-81972993D01*
X134295316Y-81996197D01*
X134298826Y-82019858D01*
X134300000Y-82043750D01*
X134300000Y-82956250D01*
X134298826Y-82980142D01*
X134295316Y-83003803D01*
X134289504Y-83027007D01*
X134281446Y-83049529D01*
X134271218Y-83071153D01*
X134258921Y-83091670D01*
X134244671Y-83110883D01*
X134228607Y-83128607D01*
X134210883Y-83144671D01*
X134191670Y-83158921D01*
X134171153Y-83171218D01*
X134149529Y-83181446D01*
X134127007Y-83189504D01*
X134103803Y-83195316D01*
X134080142Y-83198826D01*
X134056250Y-83200000D01*
X133568750Y-83200000D01*
X133544858Y-83198826D01*
X133521197Y-83195316D01*
X133497993Y-83189504D01*
X133475471Y-83181446D01*
X133453847Y-83171218D01*
X133433330Y-83158921D01*
X133414117Y-83144671D01*
X133396393Y-83128607D01*
X133380329Y-83110883D01*
X133366079Y-83091670D01*
X133353782Y-83071153D01*
X133343554Y-83049529D01*
X133335496Y-83027007D01*
X133329684Y-83003803D01*
X133326174Y-82980142D01*
X133325000Y-82956250D01*
X133325000Y-82043750D01*
X133326174Y-82019858D01*
X133329684Y-81996197D01*
X133335496Y-81972993D01*
X133343554Y-81950471D01*
X133353782Y-81928847D01*
X133366079Y-81908330D01*
X133380329Y-81889117D01*
X133396393Y-81871393D01*
X133414117Y-81855329D01*
X133433330Y-81841079D01*
X133453847Y-81828782D01*
X133475471Y-81818554D01*
X133497993Y-81810496D01*
X133521197Y-81804684D01*
X133544858Y-81801174D01*
X133568750Y-81800000D01*
X134056250Y-81800000D01*
X134080142Y-81801174D01*
X134080142Y-81801174D01*
G37*
D11*
X133812500Y-82500000D03*
D10*
G36*
X135955142Y-81801174D02*
G01*
X135978803Y-81804684D01*
X136002007Y-81810496D01*
X136024529Y-81818554D01*
X136046153Y-81828782D01*
X136066670Y-81841079D01*
X136085883Y-81855329D01*
X136103607Y-81871393D01*
X136119671Y-81889117D01*
X136133921Y-81908330D01*
X136146218Y-81928847D01*
X136156446Y-81950471D01*
X136164504Y-81972993D01*
X136170316Y-81996197D01*
X136173826Y-82019858D01*
X136175000Y-82043750D01*
X136175000Y-82956250D01*
X136173826Y-82980142D01*
X136170316Y-83003803D01*
X136164504Y-83027007D01*
X136156446Y-83049529D01*
X136146218Y-83071153D01*
X136133921Y-83091670D01*
X136119671Y-83110883D01*
X136103607Y-83128607D01*
X136085883Y-83144671D01*
X136066670Y-83158921D01*
X136046153Y-83171218D01*
X136024529Y-83181446D01*
X136002007Y-83189504D01*
X135978803Y-83195316D01*
X135955142Y-83198826D01*
X135931250Y-83200000D01*
X135443750Y-83200000D01*
X135419858Y-83198826D01*
X135396197Y-83195316D01*
X135372993Y-83189504D01*
X135350471Y-83181446D01*
X135328847Y-83171218D01*
X135308330Y-83158921D01*
X135289117Y-83144671D01*
X135271393Y-83128607D01*
X135255329Y-83110883D01*
X135241079Y-83091670D01*
X135228782Y-83071153D01*
X135218554Y-83049529D01*
X135210496Y-83027007D01*
X135204684Y-83003803D01*
X135201174Y-82980142D01*
X135200000Y-82956250D01*
X135200000Y-82043750D01*
X135201174Y-82019858D01*
X135204684Y-81996197D01*
X135210496Y-81972993D01*
X135218554Y-81950471D01*
X135228782Y-81928847D01*
X135241079Y-81908330D01*
X135255329Y-81889117D01*
X135271393Y-81871393D01*
X135289117Y-81855329D01*
X135308330Y-81841079D01*
X135328847Y-81828782D01*
X135350471Y-81818554D01*
X135372993Y-81810496D01*
X135396197Y-81804684D01*
X135419858Y-81801174D01*
X135443750Y-81800000D01*
X135931250Y-81800000D01*
X135955142Y-81801174D01*
X135955142Y-81801174D01*
G37*
D11*
X135687500Y-82500000D03*
D10*
G36*
X135955142Y-87301174D02*
G01*
X135978803Y-87304684D01*
X136002007Y-87310496D01*
X136024529Y-87318554D01*
X136046153Y-87328782D01*
X136066670Y-87341079D01*
X136085883Y-87355329D01*
X136103607Y-87371393D01*
X136119671Y-87389117D01*
X136133921Y-87408330D01*
X136146218Y-87428847D01*
X136156446Y-87450471D01*
X136164504Y-87472993D01*
X136170316Y-87496197D01*
X136173826Y-87519858D01*
X136175000Y-87543750D01*
X136175000Y-88456250D01*
X136173826Y-88480142D01*
X136170316Y-88503803D01*
X136164504Y-88527007D01*
X136156446Y-88549529D01*
X136146218Y-88571153D01*
X136133921Y-88591670D01*
X136119671Y-88610883D01*
X136103607Y-88628607D01*
X136085883Y-88644671D01*
X136066670Y-88658921D01*
X136046153Y-88671218D01*
X136024529Y-88681446D01*
X136002007Y-88689504D01*
X135978803Y-88695316D01*
X135955142Y-88698826D01*
X135931250Y-88700000D01*
X135443750Y-88700000D01*
X135419858Y-88698826D01*
X135396197Y-88695316D01*
X135372993Y-88689504D01*
X135350471Y-88681446D01*
X135328847Y-88671218D01*
X135308330Y-88658921D01*
X135289117Y-88644671D01*
X135271393Y-88628607D01*
X135255329Y-88610883D01*
X135241079Y-88591670D01*
X135228782Y-88571153D01*
X135218554Y-88549529D01*
X135210496Y-88527007D01*
X135204684Y-88503803D01*
X135201174Y-88480142D01*
X135200000Y-88456250D01*
X135200000Y-87543750D01*
X135201174Y-87519858D01*
X135204684Y-87496197D01*
X135210496Y-87472993D01*
X135218554Y-87450471D01*
X135228782Y-87428847D01*
X135241079Y-87408330D01*
X135255329Y-87389117D01*
X135271393Y-87371393D01*
X135289117Y-87355329D01*
X135308330Y-87341079D01*
X135328847Y-87328782D01*
X135350471Y-87318554D01*
X135372993Y-87310496D01*
X135396197Y-87304684D01*
X135419858Y-87301174D01*
X135443750Y-87300000D01*
X135931250Y-87300000D01*
X135955142Y-87301174D01*
X135955142Y-87301174D01*
G37*
D11*
X135687500Y-88000000D03*
D10*
G36*
X134080142Y-87301174D02*
G01*
X134103803Y-87304684D01*
X134127007Y-87310496D01*
X134149529Y-87318554D01*
X134171153Y-87328782D01*
X134191670Y-87341079D01*
X134210883Y-87355329D01*
X134228607Y-87371393D01*
X134244671Y-87389117D01*
X134258921Y-87408330D01*
X134271218Y-87428847D01*
X134281446Y-87450471D01*
X134289504Y-87472993D01*
X134295316Y-87496197D01*
X134298826Y-87519858D01*
X134300000Y-87543750D01*
X134300000Y-88456250D01*
X134298826Y-88480142D01*
X134295316Y-88503803D01*
X134289504Y-88527007D01*
X134281446Y-88549529D01*
X134271218Y-88571153D01*
X134258921Y-88591670D01*
X134244671Y-88610883D01*
X134228607Y-88628607D01*
X134210883Y-88644671D01*
X134191670Y-88658921D01*
X134171153Y-88671218D01*
X134149529Y-88681446D01*
X134127007Y-88689504D01*
X134103803Y-88695316D01*
X134080142Y-88698826D01*
X134056250Y-88700000D01*
X133568750Y-88700000D01*
X133544858Y-88698826D01*
X133521197Y-88695316D01*
X133497993Y-88689504D01*
X133475471Y-88681446D01*
X133453847Y-88671218D01*
X133433330Y-88658921D01*
X133414117Y-88644671D01*
X133396393Y-88628607D01*
X133380329Y-88610883D01*
X133366079Y-88591670D01*
X133353782Y-88571153D01*
X133343554Y-88549529D01*
X133335496Y-88527007D01*
X133329684Y-88503803D01*
X133326174Y-88480142D01*
X133325000Y-88456250D01*
X133325000Y-87543750D01*
X133326174Y-87519858D01*
X133329684Y-87496197D01*
X133335496Y-87472993D01*
X133343554Y-87450471D01*
X133353782Y-87428847D01*
X133366079Y-87408330D01*
X133380329Y-87389117D01*
X133396393Y-87371393D01*
X133414117Y-87355329D01*
X133433330Y-87341079D01*
X133453847Y-87328782D01*
X133475471Y-87318554D01*
X133497993Y-87310496D01*
X133521197Y-87304684D01*
X133544858Y-87301174D01*
X133568750Y-87300000D01*
X134056250Y-87300000D01*
X134080142Y-87301174D01*
X134080142Y-87301174D01*
G37*
D11*
X133812500Y-88000000D03*
D10*
G36*
X135955142Y-78401174D02*
G01*
X135978803Y-78404684D01*
X136002007Y-78410496D01*
X136024529Y-78418554D01*
X136046153Y-78428782D01*
X136066670Y-78441079D01*
X136085883Y-78455329D01*
X136103607Y-78471393D01*
X136119671Y-78489117D01*
X136133921Y-78508330D01*
X136146218Y-78528847D01*
X136156446Y-78550471D01*
X136164504Y-78572993D01*
X136170316Y-78596197D01*
X136173826Y-78619858D01*
X136175000Y-78643750D01*
X136175000Y-79556250D01*
X136173826Y-79580142D01*
X136170316Y-79603803D01*
X136164504Y-79627007D01*
X136156446Y-79649529D01*
X136146218Y-79671153D01*
X136133921Y-79691670D01*
X136119671Y-79710883D01*
X136103607Y-79728607D01*
X136085883Y-79744671D01*
X136066670Y-79758921D01*
X136046153Y-79771218D01*
X136024529Y-79781446D01*
X136002007Y-79789504D01*
X135978803Y-79795316D01*
X135955142Y-79798826D01*
X135931250Y-79800000D01*
X135443750Y-79800000D01*
X135419858Y-79798826D01*
X135396197Y-79795316D01*
X135372993Y-79789504D01*
X135350471Y-79781446D01*
X135328847Y-79771218D01*
X135308330Y-79758921D01*
X135289117Y-79744671D01*
X135271393Y-79728607D01*
X135255329Y-79710883D01*
X135241079Y-79691670D01*
X135228782Y-79671153D01*
X135218554Y-79649529D01*
X135210496Y-79627007D01*
X135204684Y-79603803D01*
X135201174Y-79580142D01*
X135200000Y-79556250D01*
X135200000Y-78643750D01*
X135201174Y-78619858D01*
X135204684Y-78596197D01*
X135210496Y-78572993D01*
X135218554Y-78550471D01*
X135228782Y-78528847D01*
X135241079Y-78508330D01*
X135255329Y-78489117D01*
X135271393Y-78471393D01*
X135289117Y-78455329D01*
X135308330Y-78441079D01*
X135328847Y-78428782D01*
X135350471Y-78418554D01*
X135372993Y-78410496D01*
X135396197Y-78404684D01*
X135419858Y-78401174D01*
X135443750Y-78400000D01*
X135931250Y-78400000D01*
X135955142Y-78401174D01*
X135955142Y-78401174D01*
G37*
D11*
X135687500Y-79100000D03*
D10*
G36*
X134080142Y-78401174D02*
G01*
X134103803Y-78404684D01*
X134127007Y-78410496D01*
X134149529Y-78418554D01*
X134171153Y-78428782D01*
X134191670Y-78441079D01*
X134210883Y-78455329D01*
X134228607Y-78471393D01*
X134244671Y-78489117D01*
X134258921Y-78508330D01*
X134271218Y-78528847D01*
X134281446Y-78550471D01*
X134289504Y-78572993D01*
X134295316Y-78596197D01*
X134298826Y-78619858D01*
X134300000Y-78643750D01*
X134300000Y-79556250D01*
X134298826Y-79580142D01*
X134295316Y-79603803D01*
X134289504Y-79627007D01*
X134281446Y-79649529D01*
X134271218Y-79671153D01*
X134258921Y-79691670D01*
X134244671Y-79710883D01*
X134228607Y-79728607D01*
X134210883Y-79744671D01*
X134191670Y-79758921D01*
X134171153Y-79771218D01*
X134149529Y-79781446D01*
X134127007Y-79789504D01*
X134103803Y-79795316D01*
X134080142Y-79798826D01*
X134056250Y-79800000D01*
X133568750Y-79800000D01*
X133544858Y-79798826D01*
X133521197Y-79795316D01*
X133497993Y-79789504D01*
X133475471Y-79781446D01*
X133453847Y-79771218D01*
X133433330Y-79758921D01*
X133414117Y-79744671D01*
X133396393Y-79728607D01*
X133380329Y-79710883D01*
X133366079Y-79691670D01*
X133353782Y-79671153D01*
X133343554Y-79649529D01*
X133335496Y-79627007D01*
X133329684Y-79603803D01*
X133326174Y-79580142D01*
X133325000Y-79556250D01*
X133325000Y-78643750D01*
X133326174Y-78619858D01*
X133329684Y-78596197D01*
X133335496Y-78572993D01*
X133343554Y-78550471D01*
X133353782Y-78528847D01*
X133366079Y-78508330D01*
X133380329Y-78489117D01*
X133396393Y-78471393D01*
X133414117Y-78455329D01*
X133433330Y-78441079D01*
X133453847Y-78428782D01*
X133475471Y-78418554D01*
X133497993Y-78410496D01*
X133521197Y-78404684D01*
X133544858Y-78401174D01*
X133568750Y-78400000D01*
X134056250Y-78400000D01*
X134080142Y-78401174D01*
X134080142Y-78401174D01*
G37*
D11*
X133812500Y-79100000D03*
M02*
