%TF.GenerationSoftware,KiCad,Pcbnew,(5.99.0-10613-g4d227d2d2b)*%
%TF.CreationDate,2021-05-26T08:20:36+03:00*%
%TF.ProjectId,stm32_ds2480_emu_panel,73746d33-325f-4647-9332-3438305f656d,rev?*%
%TF.SameCoordinates,Original*%
%TF.FileFunction,Soldermask,Bot*%
%TF.FilePolarity,Negative*%
%FSLAX46Y46*%
G04 Gerber Fmt 4.6, Leading zero omitted, Abs format (unit mm)*
G04 Created by KiCad (PCBNEW (5.99.0-10613-g4d227d2d2b)) date 2021-05-26 08:20:36*
%MOMM*%
%LPD*%
G01*
G04 APERTURE LIST*
%ADD10R,1.700000X1.700000*%
%ADD11O,1.700000X1.700000*%
%ADD12C,1.100000*%
%ADD13O,3.500000X1.900000*%
%ADD14R,1.000000X1.000000*%
%ADD15O,1.000000X1.000000*%
%ADD16C,1.000000*%
G04 APERTURE END LIST*
D10*
%TO.C,J1*%
X70500009Y-83300017D03*
D11*
X70500009Y-80760017D03*
%TD*%
D12*
%TO.C,J2*%
X98700009Y-52300003D03*
X98700009Y-47700003D03*
D13*
X98700009Y-44300003D03*
X98700009Y-55700003D03*
%TD*%
D10*
%TO.C,J1*%
X64499997Y-112700025D03*
D11*
X64499997Y-115240025D03*
%TD*%
D14*
%TO.C,J3*%
X47999997Y-119200025D03*
D15*
X49269997Y-119200025D03*
X50539997Y-119200025D03*
X51809997Y-119200025D03*
X53079997Y-119200025D03*
%TD*%
D14*
%TO.C,J3*%
X87000009Y-108800031D03*
D15*
X85730009Y-108800031D03*
X84460009Y-108800031D03*
X83190009Y-108800031D03*
X81920009Y-108800031D03*
%TD*%
D14*
%TO.C,J3*%
X47999997Y-87200011D03*
D15*
X49269997Y-87200011D03*
X50539997Y-87200011D03*
X51809997Y-87200011D03*
X53079997Y-87200011D03*
%TD*%
D12*
%TO.C,J2*%
X98700009Y-68300010D03*
X98700009Y-63700010D03*
D13*
X98700009Y-60300010D03*
X98700009Y-71700010D03*
%TD*%
D10*
%TO.C,J1*%
X70500009Y-115300031D03*
D11*
X70500009Y-112760031D03*
%TD*%
D12*
%TO.C,J2*%
X36299997Y-84300011D03*
X36299997Y-79700011D03*
D13*
X36299997Y-87700011D03*
X36299997Y-76300011D03*
%TD*%
D12*
%TO.C,J2*%
X98700009Y-84300017D03*
X98700009Y-79700017D03*
D13*
X98700009Y-87700017D03*
X98700009Y-76300017D03*
%TD*%
D10*
%TO.C,J1*%
X64499997Y-64700004D03*
D11*
X64499997Y-67240004D03*
%TD*%
D14*
%TO.C,J3*%
X87000009Y-44800003D03*
D15*
X85730009Y-44800003D03*
X84460009Y-44800003D03*
X83190009Y-44800003D03*
X81920009Y-44800003D03*
%TD*%
D14*
%TO.C,J3*%
X87000009Y-92800024D03*
D15*
X85730009Y-92800024D03*
X84460009Y-92800024D03*
X83190009Y-92800024D03*
X81920009Y-92800024D03*
%TD*%
D14*
%TO.C,J3*%
X47999997Y-103200018D03*
D15*
X49269997Y-103200018D03*
X50539997Y-103200018D03*
X51809997Y-103200018D03*
X53079997Y-103200018D03*
%TD*%
D14*
%TO.C,J3*%
X87000009Y-60800010D03*
D15*
X85730009Y-60800010D03*
X84460009Y-60800010D03*
X83190009Y-60800010D03*
X81920009Y-60800010D03*
%TD*%
D14*
%TO.C,J3*%
X47999997Y-71200004D03*
D15*
X49269997Y-71200004D03*
X50539997Y-71200004D03*
X51809997Y-71200004D03*
X53079997Y-71200004D03*
%TD*%
D10*
%TO.C,J1*%
X70500009Y-99300024D03*
D11*
X70500009Y-96760024D03*
%TD*%
D10*
%TO.C,J1*%
X64499997Y-80700011D03*
D11*
X64499997Y-83240011D03*
%TD*%
D14*
%TO.C,J3*%
X47999997Y-55199997D03*
D15*
X49269997Y-55199997D03*
X50539997Y-55199997D03*
X51809997Y-55199997D03*
X53079997Y-55199997D03*
%TD*%
D12*
%TO.C,J2*%
X98700009Y-95700024D03*
X98700009Y-100300024D03*
D13*
X98700009Y-92300024D03*
X98700009Y-103700024D03*
%TD*%
D12*
%TO.C,J2*%
X36299997Y-95700018D03*
X36299997Y-100300018D03*
D13*
X36299997Y-92300018D03*
X36299997Y-103700018D03*
%TD*%
D14*
%TO.C,J3*%
X87000009Y-76800017D03*
D15*
X85730009Y-76800017D03*
X84460009Y-76800017D03*
X83190009Y-76800017D03*
X81920009Y-76800017D03*
%TD*%
D10*
%TO.C,J1*%
X70500009Y-67300010D03*
D11*
X70500009Y-64760010D03*
%TD*%
D10*
%TO.C,J1*%
X64499997Y-96700018D03*
D11*
X64499997Y-99240018D03*
%TD*%
D12*
%TO.C,J2*%
X36299997Y-52299997D03*
X36299997Y-47699997D03*
D13*
X36299997Y-44299997D03*
X36299997Y-55699997D03*
%TD*%
D12*
%TO.C,J2*%
X98700009Y-111700031D03*
X98700009Y-116300031D03*
D13*
X98700009Y-108300031D03*
X98700009Y-119700031D03*
%TD*%
D10*
%TO.C,J1*%
X70500009Y-51300003D03*
D11*
X70500009Y-48760003D03*
%TD*%
D10*
%TO.C,J1*%
X64499997Y-48699997D03*
D11*
X64499997Y-51239997D03*
%TD*%
D12*
%TO.C,J2*%
X36299997Y-63700004D03*
X36299997Y-68300004D03*
D13*
X36299997Y-60300004D03*
X36299997Y-71700004D03*
%TD*%
D12*
%TO.C,J2*%
X36299997Y-111700025D03*
X36299997Y-116300025D03*
D13*
X36299997Y-119700025D03*
X36299997Y-108300025D03*
%TD*%
D16*
%TO.C,TP1*%
X81200009Y-100800024D03*
%TD*%
%TO.C,TP1*%
X81200009Y-84800017D03*
%TD*%
%TO.C,TP1*%
X53799997Y-95200018D03*
%TD*%
%TO.C,TP1*%
X53799997Y-63200004D03*
%TD*%
%TO.C,TP1*%
X81200009Y-68800010D03*
%TD*%
%TO.C,TP2*%
X51799997Y-85600011D03*
%TD*%
%TO.C,TP1*%
X53799997Y-111200025D03*
%TD*%
%TO.C,TP2*%
X83200009Y-46400003D03*
%TD*%
%TO.C,TP2*%
X51799997Y-53599997D03*
%TD*%
%TO.C,TP1*%
X81200009Y-116800031D03*
%TD*%
%TO.C,TP1*%
X81200009Y-52800003D03*
%TD*%
%TO.C,REF\u002A\u002A*%
X103499008Y-38480997D03*
%TD*%
%TO.C,TP2*%
X83200009Y-62400010D03*
%TD*%
%TO.C,TP2*%
X51799997Y-69600004D03*
%TD*%
%TO.C,TP2*%
X83200009Y-94400024D03*
%TD*%
%TO.C,REF\u002A\u002A*%
X31500997Y-38480997D03*
%TD*%
%TO.C,TP2*%
X83200009Y-78400017D03*
%TD*%
%TO.C,REF\u002A\u002A*%
X31500997Y-125519030D03*
%TD*%
%TO.C,TP1*%
X53799997Y-79200011D03*
%TD*%
%TO.C,TP1*%
X53799997Y-47199997D03*
%TD*%
%TO.C,TP2*%
X51799997Y-117600025D03*
%TD*%
%TO.C,TP2*%
X51799997Y-101600018D03*
%TD*%
%TO.C,TP2*%
X83200009Y-110400031D03*
%TD*%
M02*
