%TF.GenerationSoftware,KiCad,Pcbnew,(5.99.0-10613-g4d227d2d2b)*%
%TF.CreationDate,2021-05-26T08:20:37+03:00*%
%TF.ProjectId,stm32_ds2480_emu_panel,73746d33-325f-4647-9332-3438305f656d,rev?*%
%TF.SameCoordinates,Original*%
%TF.FileFunction,AssemblyDrawing,Bot*%
%FSLAX46Y46*%
G04 Gerber Fmt 4.6, Leading zero omitted, Abs format (unit mm)*
G04 Created by KiCad (PCBNEW (5.99.0-10613-g4d227d2d2b)) date 2021-05-26 08:20:37*
%MOMM*%
%LPD*%
G01*
G04 APERTURE LIST*
%ADD10C,0.080000*%
G04 APERTURE END LIST*
D10*
%TO.C,TP1*%
X81830961Y-100526214D02*
X81545247Y-100526214D01*
X81688104Y-101026214D02*
X81688104Y-100526214D01*
X81378580Y-101026214D02*
X81378580Y-100526214D01*
X81188104Y-100526214D01*
X81140485Y-100550024D01*
X81116675Y-100573833D01*
X81092866Y-100621452D01*
X81092866Y-100692881D01*
X81116675Y-100740500D01*
X81140485Y-100764309D01*
X81188104Y-100788119D01*
X81378580Y-100788119D01*
X80616675Y-101026214D02*
X80902389Y-101026214D01*
X80759532Y-101026214D02*
X80759532Y-100526214D01*
X80807151Y-100597643D01*
X80854770Y-100645262D01*
X80902389Y-100669071D01*
X81830961Y-84526207D02*
X81545247Y-84526207D01*
X81688104Y-85026207D02*
X81688104Y-84526207D01*
X81378580Y-85026207D02*
X81378580Y-84526207D01*
X81188104Y-84526207D01*
X81140485Y-84550017D01*
X81116675Y-84573826D01*
X81092866Y-84621445D01*
X81092866Y-84692874D01*
X81116675Y-84740493D01*
X81140485Y-84764302D01*
X81188104Y-84788112D01*
X81378580Y-84788112D01*
X80616675Y-85026207D02*
X80902389Y-85026207D01*
X80759532Y-85026207D02*
X80759532Y-84526207D01*
X80807151Y-84597636D01*
X80854770Y-84645255D01*
X80902389Y-84669064D01*
X54430949Y-94926208D02*
X54145235Y-94926208D01*
X54288092Y-95426208D02*
X54288092Y-94926208D01*
X53978568Y-95426208D02*
X53978568Y-94926208D01*
X53788092Y-94926208D01*
X53740473Y-94950018D01*
X53716663Y-94973827D01*
X53692854Y-95021446D01*
X53692854Y-95092875D01*
X53716663Y-95140494D01*
X53740473Y-95164303D01*
X53788092Y-95188113D01*
X53978568Y-95188113D01*
X53216663Y-95426208D02*
X53502377Y-95426208D01*
X53359520Y-95426208D02*
X53359520Y-94926208D01*
X53407139Y-94997637D01*
X53454758Y-95045256D01*
X53502377Y-95069065D01*
X54430949Y-62926194D02*
X54145235Y-62926194D01*
X54288092Y-63426194D02*
X54288092Y-62926194D01*
X53978568Y-63426194D02*
X53978568Y-62926194D01*
X53788092Y-62926194D01*
X53740473Y-62950004D01*
X53716663Y-62973813D01*
X53692854Y-63021432D01*
X53692854Y-63092861D01*
X53716663Y-63140480D01*
X53740473Y-63164289D01*
X53788092Y-63188099D01*
X53978568Y-63188099D01*
X53216663Y-63426194D02*
X53502377Y-63426194D01*
X53359520Y-63426194D02*
X53359520Y-62926194D01*
X53407139Y-62997623D01*
X53454758Y-63045242D01*
X53502377Y-63069051D01*
X81830961Y-68526200D02*
X81545247Y-68526200D01*
X81688104Y-69026200D02*
X81688104Y-68526200D01*
X81378580Y-69026200D02*
X81378580Y-68526200D01*
X81188104Y-68526200D01*
X81140485Y-68550010D01*
X81116675Y-68573819D01*
X81092866Y-68621438D01*
X81092866Y-68692867D01*
X81116675Y-68740486D01*
X81140485Y-68764295D01*
X81188104Y-68788105D01*
X81378580Y-68788105D01*
X80616675Y-69026200D02*
X80902389Y-69026200D01*
X80759532Y-69026200D02*
X80759532Y-68526200D01*
X80807151Y-68597629D01*
X80854770Y-68645248D01*
X80902389Y-68669057D01*
%TO.C,TP2*%
X52430949Y-85326201D02*
X52145235Y-85326201D01*
X52288092Y-85826201D02*
X52288092Y-85326201D01*
X51978568Y-85826201D02*
X51978568Y-85326201D01*
X51788092Y-85326201D01*
X51740473Y-85350011D01*
X51716663Y-85373820D01*
X51692854Y-85421439D01*
X51692854Y-85492868D01*
X51716663Y-85540487D01*
X51740473Y-85564296D01*
X51788092Y-85588106D01*
X51978568Y-85588106D01*
X51502377Y-85373820D02*
X51478568Y-85350011D01*
X51430949Y-85326201D01*
X51311901Y-85326201D01*
X51264282Y-85350011D01*
X51240473Y-85373820D01*
X51216663Y-85421439D01*
X51216663Y-85469058D01*
X51240473Y-85540487D01*
X51526187Y-85826201D01*
X51216663Y-85826201D01*
%TO.C,TP1*%
X54430949Y-110926215D02*
X54145235Y-110926215D01*
X54288092Y-111426215D02*
X54288092Y-110926215D01*
X53978568Y-111426215D02*
X53978568Y-110926215D01*
X53788092Y-110926215D01*
X53740473Y-110950025D01*
X53716663Y-110973834D01*
X53692854Y-111021453D01*
X53692854Y-111092882D01*
X53716663Y-111140501D01*
X53740473Y-111164310D01*
X53788092Y-111188120D01*
X53978568Y-111188120D01*
X53216663Y-111426215D02*
X53502377Y-111426215D01*
X53359520Y-111426215D02*
X53359520Y-110926215D01*
X53407139Y-110997644D01*
X53454758Y-111045263D01*
X53502377Y-111069072D01*
%TO.C,TP2*%
X83830961Y-46126193D02*
X83545247Y-46126193D01*
X83688104Y-46626193D02*
X83688104Y-46126193D01*
X83378580Y-46626193D02*
X83378580Y-46126193D01*
X83188104Y-46126193D01*
X83140485Y-46150003D01*
X83116675Y-46173812D01*
X83092866Y-46221431D01*
X83092866Y-46292860D01*
X83116675Y-46340479D01*
X83140485Y-46364288D01*
X83188104Y-46388098D01*
X83378580Y-46388098D01*
X82902389Y-46173812D02*
X82878580Y-46150003D01*
X82830961Y-46126193D01*
X82711913Y-46126193D01*
X82664294Y-46150003D01*
X82640485Y-46173812D01*
X82616675Y-46221431D01*
X82616675Y-46269050D01*
X82640485Y-46340479D01*
X82926199Y-46626193D01*
X82616675Y-46626193D01*
X52430949Y-53326187D02*
X52145235Y-53326187D01*
X52288092Y-53826187D02*
X52288092Y-53326187D01*
X51978568Y-53826187D02*
X51978568Y-53326187D01*
X51788092Y-53326187D01*
X51740473Y-53349997D01*
X51716663Y-53373806D01*
X51692854Y-53421425D01*
X51692854Y-53492854D01*
X51716663Y-53540473D01*
X51740473Y-53564282D01*
X51788092Y-53588092D01*
X51978568Y-53588092D01*
X51502377Y-53373806D02*
X51478568Y-53349997D01*
X51430949Y-53326187D01*
X51311901Y-53326187D01*
X51264282Y-53349997D01*
X51240473Y-53373806D01*
X51216663Y-53421425D01*
X51216663Y-53469044D01*
X51240473Y-53540473D01*
X51526187Y-53826187D01*
X51216663Y-53826187D01*
%TO.C,TP1*%
X81830961Y-116526221D02*
X81545247Y-116526221D01*
X81688104Y-117026221D02*
X81688104Y-116526221D01*
X81378580Y-117026221D02*
X81378580Y-116526221D01*
X81188104Y-116526221D01*
X81140485Y-116550031D01*
X81116675Y-116573840D01*
X81092866Y-116621459D01*
X81092866Y-116692888D01*
X81116675Y-116740507D01*
X81140485Y-116764316D01*
X81188104Y-116788126D01*
X81378580Y-116788126D01*
X80616675Y-117026221D02*
X80902389Y-117026221D01*
X80759532Y-117026221D02*
X80759532Y-116526221D01*
X80807151Y-116597650D01*
X80854770Y-116645269D01*
X80902389Y-116669078D01*
X81830961Y-52526193D02*
X81545247Y-52526193D01*
X81688104Y-53026193D02*
X81688104Y-52526193D01*
X81378580Y-53026193D02*
X81378580Y-52526193D01*
X81188104Y-52526193D01*
X81140485Y-52550003D01*
X81116675Y-52573812D01*
X81092866Y-52621431D01*
X81092866Y-52692860D01*
X81116675Y-52740479D01*
X81140485Y-52764288D01*
X81188104Y-52788098D01*
X81378580Y-52788098D01*
X80616675Y-53026193D02*
X80902389Y-53026193D01*
X80759532Y-53026193D02*
X80759532Y-52526193D01*
X80807151Y-52597622D01*
X80854770Y-52645241D01*
X80902389Y-52669050D01*
%TO.C,TP2*%
X83830961Y-62126200D02*
X83545247Y-62126200D01*
X83688104Y-62626200D02*
X83688104Y-62126200D01*
X83378580Y-62626200D02*
X83378580Y-62126200D01*
X83188104Y-62126200D01*
X83140485Y-62150010D01*
X83116675Y-62173819D01*
X83092866Y-62221438D01*
X83092866Y-62292867D01*
X83116675Y-62340486D01*
X83140485Y-62364295D01*
X83188104Y-62388105D01*
X83378580Y-62388105D01*
X82902389Y-62173819D02*
X82878580Y-62150010D01*
X82830961Y-62126200D01*
X82711913Y-62126200D01*
X82664294Y-62150010D01*
X82640485Y-62173819D01*
X82616675Y-62221438D01*
X82616675Y-62269057D01*
X82640485Y-62340486D01*
X82926199Y-62626200D01*
X82616675Y-62626200D01*
X52430949Y-69326194D02*
X52145235Y-69326194D01*
X52288092Y-69826194D02*
X52288092Y-69326194D01*
X51978568Y-69826194D02*
X51978568Y-69326194D01*
X51788092Y-69326194D01*
X51740473Y-69350004D01*
X51716663Y-69373813D01*
X51692854Y-69421432D01*
X51692854Y-69492861D01*
X51716663Y-69540480D01*
X51740473Y-69564289D01*
X51788092Y-69588099D01*
X51978568Y-69588099D01*
X51502377Y-69373813D02*
X51478568Y-69350004D01*
X51430949Y-69326194D01*
X51311901Y-69326194D01*
X51264282Y-69350004D01*
X51240473Y-69373813D01*
X51216663Y-69421432D01*
X51216663Y-69469051D01*
X51240473Y-69540480D01*
X51526187Y-69826194D01*
X51216663Y-69826194D01*
X83830961Y-94126214D02*
X83545247Y-94126214D01*
X83688104Y-94626214D02*
X83688104Y-94126214D01*
X83378580Y-94626214D02*
X83378580Y-94126214D01*
X83188104Y-94126214D01*
X83140485Y-94150024D01*
X83116675Y-94173833D01*
X83092866Y-94221452D01*
X83092866Y-94292881D01*
X83116675Y-94340500D01*
X83140485Y-94364309D01*
X83188104Y-94388119D01*
X83378580Y-94388119D01*
X82902389Y-94173833D02*
X82878580Y-94150024D01*
X82830961Y-94126214D01*
X82711913Y-94126214D01*
X82664294Y-94150024D01*
X82640485Y-94173833D01*
X82616675Y-94221452D01*
X82616675Y-94269071D01*
X82640485Y-94340500D01*
X82926199Y-94626214D01*
X82616675Y-94626214D01*
X83830961Y-78126207D02*
X83545247Y-78126207D01*
X83688104Y-78626207D02*
X83688104Y-78126207D01*
X83378580Y-78626207D02*
X83378580Y-78126207D01*
X83188104Y-78126207D01*
X83140485Y-78150017D01*
X83116675Y-78173826D01*
X83092866Y-78221445D01*
X83092866Y-78292874D01*
X83116675Y-78340493D01*
X83140485Y-78364302D01*
X83188104Y-78388112D01*
X83378580Y-78388112D01*
X82902389Y-78173826D02*
X82878580Y-78150017D01*
X82830961Y-78126207D01*
X82711913Y-78126207D01*
X82664294Y-78150017D01*
X82640485Y-78173826D01*
X82616675Y-78221445D01*
X82616675Y-78269064D01*
X82640485Y-78340493D01*
X82926199Y-78626207D01*
X82616675Y-78626207D01*
%TO.C,TP1*%
X54430949Y-78926201D02*
X54145235Y-78926201D01*
X54288092Y-79426201D02*
X54288092Y-78926201D01*
X53978568Y-79426201D02*
X53978568Y-78926201D01*
X53788092Y-78926201D01*
X53740473Y-78950011D01*
X53716663Y-78973820D01*
X53692854Y-79021439D01*
X53692854Y-79092868D01*
X53716663Y-79140487D01*
X53740473Y-79164296D01*
X53788092Y-79188106D01*
X53978568Y-79188106D01*
X53216663Y-79426201D02*
X53502377Y-79426201D01*
X53359520Y-79426201D02*
X53359520Y-78926201D01*
X53407139Y-78997630D01*
X53454758Y-79045249D01*
X53502377Y-79069058D01*
X54430949Y-46926187D02*
X54145235Y-46926187D01*
X54288092Y-47426187D02*
X54288092Y-46926187D01*
X53978568Y-47426187D02*
X53978568Y-46926187D01*
X53788092Y-46926187D01*
X53740473Y-46949997D01*
X53716663Y-46973806D01*
X53692854Y-47021425D01*
X53692854Y-47092854D01*
X53716663Y-47140473D01*
X53740473Y-47164282D01*
X53788092Y-47188092D01*
X53978568Y-47188092D01*
X53216663Y-47426187D02*
X53502377Y-47426187D01*
X53359520Y-47426187D02*
X53359520Y-46926187D01*
X53407139Y-46997616D01*
X53454758Y-47045235D01*
X53502377Y-47069044D01*
%TO.C,TP2*%
X52430949Y-117326215D02*
X52145235Y-117326215D01*
X52288092Y-117826215D02*
X52288092Y-117326215D01*
X51978568Y-117826215D02*
X51978568Y-117326215D01*
X51788092Y-117326215D01*
X51740473Y-117350025D01*
X51716663Y-117373834D01*
X51692854Y-117421453D01*
X51692854Y-117492882D01*
X51716663Y-117540501D01*
X51740473Y-117564310D01*
X51788092Y-117588120D01*
X51978568Y-117588120D01*
X51502377Y-117373834D02*
X51478568Y-117350025D01*
X51430949Y-117326215D01*
X51311901Y-117326215D01*
X51264282Y-117350025D01*
X51240473Y-117373834D01*
X51216663Y-117421453D01*
X51216663Y-117469072D01*
X51240473Y-117540501D01*
X51526187Y-117826215D01*
X51216663Y-117826215D01*
X52430949Y-101326208D02*
X52145235Y-101326208D01*
X52288092Y-101826208D02*
X52288092Y-101326208D01*
X51978568Y-101826208D02*
X51978568Y-101326208D01*
X51788092Y-101326208D01*
X51740473Y-101350018D01*
X51716663Y-101373827D01*
X51692854Y-101421446D01*
X51692854Y-101492875D01*
X51716663Y-101540494D01*
X51740473Y-101564303D01*
X51788092Y-101588113D01*
X51978568Y-101588113D01*
X51502377Y-101373827D02*
X51478568Y-101350018D01*
X51430949Y-101326208D01*
X51311901Y-101326208D01*
X51264282Y-101350018D01*
X51240473Y-101373827D01*
X51216663Y-101421446D01*
X51216663Y-101469065D01*
X51240473Y-101540494D01*
X51526187Y-101826208D01*
X51216663Y-101826208D01*
X83830961Y-110126221D02*
X83545247Y-110126221D01*
X83688104Y-110626221D02*
X83688104Y-110126221D01*
X83378580Y-110626221D02*
X83378580Y-110126221D01*
X83188104Y-110126221D01*
X83140485Y-110150031D01*
X83116675Y-110173840D01*
X83092866Y-110221459D01*
X83092866Y-110292888D01*
X83116675Y-110340507D01*
X83140485Y-110364316D01*
X83188104Y-110388126D01*
X83378580Y-110388126D01*
X82902389Y-110173840D02*
X82878580Y-110150031D01*
X82830961Y-110126221D01*
X82711913Y-110126221D01*
X82664294Y-110150031D01*
X82640485Y-110173840D01*
X82616675Y-110221459D01*
X82616675Y-110269078D01*
X82640485Y-110340507D01*
X82926199Y-110626221D01*
X82616675Y-110626221D01*
%TD*%
M02*
