G04 #@! TF.GenerationSoftware,KiCad,Pcbnew,(5.99.0-812-g5d5363396)*
G04 #@! TF.CreationDate,2020-02-01T10:18:42+03:00*
G04 #@! TF.ProjectId,stm32_ds2480_emu_panel,73746d33-325f-4647-9332-3438305f656d,rev?*
G04 #@! TF.SameCoordinates,PX68e7780PY7ed6b40*
G04 #@! TF.FileFunction,Legend,Top*
G04 #@! TF.FilePolarity,Positive*
%FSLAX46Y46*%
G04 Gerber Fmt 4.6, Leading zero omitted, Abs format (unit mm)*
G04 Created by KiCad (PCBNEW (5.99.0-812-g5d5363396)) date 2020-02-01 10:18:42*
%MOMM*%
%LPD*%
G04 APERTURE LIST*
%ADD10C,0.100000*%
%ADD11C,0.120000*%
%ADD12C,0.150000*%
G04 APERTURE END LIST*
D10*
X39771428Y16871429D02*
X39657142Y16871429D01*
X39600000Y16900000D01*
X39542857Y16957143D01*
X39514285Y17071429D01*
X39514285Y17271429D01*
X39542857Y17385715D01*
X39600000Y17442858D01*
X39657142Y17471429D01*
X39771428Y17471429D01*
X39828571Y17442858D01*
X39885714Y17385715D01*
X39914285Y17271429D01*
X39914285Y17071429D01*
X39885714Y16957143D01*
X39828571Y16900000D01*
X39771428Y16871429D01*
X39314285Y16871429D02*
X39171428Y17471429D01*
X39057142Y17042858D01*
X38942857Y17471429D01*
X38800000Y16871429D01*
X38571428Y17242858D02*
X38114285Y17242858D01*
X39771428Y30871429D02*
X39657142Y30871429D01*
X39600000Y30900000D01*
X39542857Y30957143D01*
X39514285Y31071429D01*
X39514285Y31271429D01*
X39542857Y31385715D01*
X39600000Y31442858D01*
X39657142Y31471429D01*
X39771428Y31471429D01*
X39828571Y31442858D01*
X39885714Y31385715D01*
X39914285Y31271429D01*
X39914285Y31071429D01*
X39885714Y30957143D01*
X39828571Y30900000D01*
X39771428Y30871429D01*
X39314285Y30871429D02*
X39171428Y31471429D01*
X39057142Y31042858D01*
X38942857Y31471429D01*
X38800000Y30871429D01*
X38571428Y31242858D02*
X38114285Y31242858D01*
X39771428Y44871429D02*
X39657142Y44871429D01*
X39600000Y44900000D01*
X39542857Y44957143D01*
X39514285Y45071429D01*
X39514285Y45271429D01*
X39542857Y45385715D01*
X39600000Y45442858D01*
X39657142Y45471429D01*
X39771428Y45471429D01*
X39828571Y45442858D01*
X39885714Y45385715D01*
X39914285Y45271429D01*
X39914285Y45071429D01*
X39885714Y44957143D01*
X39828571Y44900000D01*
X39771428Y44871429D01*
X39314285Y44871429D02*
X39171428Y45471429D01*
X39057142Y45042858D01*
X38942857Y45471429D01*
X38800000Y44871429D01*
X38571428Y45242858D02*
X38114285Y45242858D01*
X39771428Y58871429D02*
X39657142Y58871429D01*
X39600000Y58900000D01*
X39542857Y58957143D01*
X39514285Y59071429D01*
X39514285Y59271429D01*
X39542857Y59385715D01*
X39600000Y59442858D01*
X39657142Y59471429D01*
X39771428Y59471429D01*
X39828571Y59442858D01*
X39885714Y59385715D01*
X39914285Y59271429D01*
X39914285Y59071429D01*
X39885714Y58957143D01*
X39828571Y58900000D01*
X39771428Y58871429D01*
X39314285Y58871429D02*
X39171428Y59471429D01*
X39057142Y59042858D01*
X38942857Y59471429D01*
X38800000Y58871429D01*
X38571428Y59242858D02*
X38114285Y59242858D01*
X61914285Y8259858D02*
X61828571Y8288429D01*
X61685714Y8288429D01*
X61628571Y8259858D01*
X61600000Y8231286D01*
X61571428Y8174143D01*
X61571428Y8117000D01*
X61600000Y8059858D01*
X61628571Y8031286D01*
X61685714Y8002715D01*
X61800000Y7974143D01*
X61857142Y7945572D01*
X61885714Y7917000D01*
X61914285Y7859858D01*
X61914285Y7802715D01*
X61885714Y7745572D01*
X61857142Y7717000D01*
X61800000Y7688429D01*
X61657142Y7688429D01*
X61571428Y7717000D01*
X61400000Y7688429D02*
X61057142Y7688429D01*
X61228571Y8288429D02*
X61228571Y7688429D01*
X60857142Y8288429D02*
X60857142Y7688429D01*
X60657142Y8117000D01*
X60457142Y7688429D01*
X60457142Y8288429D01*
X60228571Y7688429D02*
X59857142Y7688429D01*
X60057142Y7917000D01*
X59971428Y7917000D01*
X59914285Y7945572D01*
X59885714Y7974143D01*
X59857142Y8031286D01*
X59857142Y8174143D01*
X59885714Y8231286D01*
X59914285Y8259858D01*
X59971428Y8288429D01*
X60142857Y8288429D01*
X60200000Y8259858D01*
X60228571Y8231286D01*
X59628571Y7745572D02*
X59600000Y7717000D01*
X59542857Y7688429D01*
X59400000Y7688429D01*
X59342857Y7717000D01*
X59314285Y7745572D01*
X59285714Y7802715D01*
X59285714Y7859858D01*
X59314285Y7945572D01*
X59657142Y8288429D01*
X59285714Y8288429D01*
X62185714Y9254429D02*
X62185714Y8654429D01*
X62042857Y8654429D01*
X61957142Y8683000D01*
X61900000Y8740143D01*
X61871428Y8797286D01*
X61842857Y8911572D01*
X61842857Y8997286D01*
X61871428Y9111572D01*
X61900000Y9168715D01*
X61957142Y9225858D01*
X62042857Y9254429D01*
X62185714Y9254429D01*
X61614285Y9225858D02*
X61528571Y9254429D01*
X61385714Y9254429D01*
X61328571Y9225858D01*
X61300000Y9197286D01*
X61271428Y9140143D01*
X61271428Y9083000D01*
X61300000Y9025858D01*
X61328571Y8997286D01*
X61385714Y8968715D01*
X61500000Y8940143D01*
X61557142Y8911572D01*
X61585714Y8883000D01*
X61614285Y8825858D01*
X61614285Y8768715D01*
X61585714Y8711572D01*
X61557142Y8683000D01*
X61500000Y8654429D01*
X61357142Y8654429D01*
X61271428Y8683000D01*
X61042857Y8711572D02*
X61014285Y8683000D01*
X60957142Y8654429D01*
X60814285Y8654429D01*
X60757142Y8683000D01*
X60728571Y8711572D01*
X60700000Y8768715D01*
X60700000Y8825858D01*
X60728571Y8911572D01*
X61071428Y9254429D01*
X60700000Y9254429D01*
X60185714Y8854429D02*
X60185714Y9254429D01*
X60328571Y8625858D02*
X60471428Y9054429D01*
X60100000Y9054429D01*
X59785714Y8911572D02*
X59842857Y8883000D01*
X59871428Y8854429D01*
X59900000Y8797286D01*
X59900000Y8768715D01*
X59871428Y8711572D01*
X59842857Y8683000D01*
X59785714Y8654429D01*
X59671428Y8654429D01*
X59614285Y8683000D01*
X59585714Y8711572D01*
X59557142Y8768715D01*
X59557142Y8797286D01*
X59585714Y8854429D01*
X59614285Y8883000D01*
X59671428Y8911572D01*
X59785714Y8911572D01*
X59842857Y8940143D01*
X59871428Y8968715D01*
X59900000Y9025858D01*
X59900000Y9140143D01*
X59871428Y9197286D01*
X59842857Y9225858D01*
X59785714Y9254429D01*
X59671428Y9254429D01*
X59614285Y9225858D01*
X59585714Y9197286D01*
X59557142Y9140143D01*
X59557142Y9025858D01*
X59585714Y8968715D01*
X59614285Y8940143D01*
X59671428Y8911572D01*
X59185714Y8654429D02*
X59128571Y8654429D01*
X59071428Y8683000D01*
X59042857Y8711572D01*
X59014285Y8768715D01*
X58985714Y8883000D01*
X58985714Y9025858D01*
X59014285Y9140143D01*
X59042857Y9197286D01*
X59071428Y9225858D01*
X59128571Y9254429D01*
X59185714Y9254429D01*
X59242857Y9225858D01*
X59271428Y9197286D01*
X59300000Y9140143D01*
X59328571Y9025858D01*
X59328571Y8883000D01*
X59300000Y8768715D01*
X59271428Y8711572D01*
X59242857Y8683000D01*
X59185714Y8654429D01*
X61914285Y22259858D02*
X61828571Y22288429D01*
X61685714Y22288429D01*
X61628571Y22259858D01*
X61600000Y22231286D01*
X61571428Y22174143D01*
X61571428Y22117000D01*
X61600000Y22059858D01*
X61628571Y22031286D01*
X61685714Y22002715D01*
X61800000Y21974143D01*
X61857142Y21945572D01*
X61885714Y21917000D01*
X61914285Y21859858D01*
X61914285Y21802715D01*
X61885714Y21745572D01*
X61857142Y21717000D01*
X61800000Y21688429D01*
X61657142Y21688429D01*
X61571428Y21717000D01*
X61400000Y21688429D02*
X61057142Y21688429D01*
X61228571Y22288429D02*
X61228571Y21688429D01*
X60857142Y22288429D02*
X60857142Y21688429D01*
X60657142Y22117000D01*
X60457142Y21688429D01*
X60457142Y22288429D01*
X60228571Y21688429D02*
X59857142Y21688429D01*
X60057142Y21917000D01*
X59971428Y21917000D01*
X59914285Y21945572D01*
X59885714Y21974143D01*
X59857142Y22031286D01*
X59857142Y22174143D01*
X59885714Y22231286D01*
X59914285Y22259858D01*
X59971428Y22288429D01*
X60142857Y22288429D01*
X60200000Y22259858D01*
X60228571Y22231286D01*
X59628571Y21745572D02*
X59600000Y21717000D01*
X59542857Y21688429D01*
X59400000Y21688429D01*
X59342857Y21717000D01*
X59314285Y21745572D01*
X59285714Y21802715D01*
X59285714Y21859858D01*
X59314285Y21945572D01*
X59657142Y22288429D01*
X59285714Y22288429D01*
X62185714Y23254429D02*
X62185714Y22654429D01*
X62042857Y22654429D01*
X61957142Y22683000D01*
X61900000Y22740143D01*
X61871428Y22797286D01*
X61842857Y22911572D01*
X61842857Y22997286D01*
X61871428Y23111572D01*
X61900000Y23168715D01*
X61957142Y23225858D01*
X62042857Y23254429D01*
X62185714Y23254429D01*
X61614285Y23225858D02*
X61528571Y23254429D01*
X61385714Y23254429D01*
X61328571Y23225858D01*
X61300000Y23197286D01*
X61271428Y23140143D01*
X61271428Y23083000D01*
X61300000Y23025858D01*
X61328571Y22997286D01*
X61385714Y22968715D01*
X61500000Y22940143D01*
X61557142Y22911572D01*
X61585714Y22883000D01*
X61614285Y22825858D01*
X61614285Y22768715D01*
X61585714Y22711572D01*
X61557142Y22683000D01*
X61500000Y22654429D01*
X61357142Y22654429D01*
X61271428Y22683000D01*
X61042857Y22711572D02*
X61014285Y22683000D01*
X60957142Y22654429D01*
X60814285Y22654429D01*
X60757142Y22683000D01*
X60728571Y22711572D01*
X60700000Y22768715D01*
X60700000Y22825858D01*
X60728571Y22911572D01*
X61071428Y23254429D01*
X60700000Y23254429D01*
X60185714Y22854429D02*
X60185714Y23254429D01*
X60328571Y22625858D02*
X60471428Y23054429D01*
X60100000Y23054429D01*
X59785714Y22911572D02*
X59842857Y22883000D01*
X59871428Y22854429D01*
X59900000Y22797286D01*
X59900000Y22768715D01*
X59871428Y22711572D01*
X59842857Y22683000D01*
X59785714Y22654429D01*
X59671428Y22654429D01*
X59614285Y22683000D01*
X59585714Y22711572D01*
X59557142Y22768715D01*
X59557142Y22797286D01*
X59585714Y22854429D01*
X59614285Y22883000D01*
X59671428Y22911572D01*
X59785714Y22911572D01*
X59842857Y22940143D01*
X59871428Y22968715D01*
X59900000Y23025858D01*
X59900000Y23140143D01*
X59871428Y23197286D01*
X59842857Y23225858D01*
X59785714Y23254429D01*
X59671428Y23254429D01*
X59614285Y23225858D01*
X59585714Y23197286D01*
X59557142Y23140143D01*
X59557142Y23025858D01*
X59585714Y22968715D01*
X59614285Y22940143D01*
X59671428Y22911572D01*
X59185714Y22654429D02*
X59128571Y22654429D01*
X59071428Y22683000D01*
X59042857Y22711572D01*
X59014285Y22768715D01*
X58985714Y22883000D01*
X58985714Y23025858D01*
X59014285Y23140143D01*
X59042857Y23197286D01*
X59071428Y23225858D01*
X59128571Y23254429D01*
X59185714Y23254429D01*
X59242857Y23225858D01*
X59271428Y23197286D01*
X59300000Y23140143D01*
X59328571Y23025858D01*
X59328571Y22883000D01*
X59300000Y22768715D01*
X59271428Y22711572D01*
X59242857Y22683000D01*
X59185714Y22654429D01*
X61914285Y36259858D02*
X61828571Y36288429D01*
X61685714Y36288429D01*
X61628571Y36259858D01*
X61600000Y36231286D01*
X61571428Y36174143D01*
X61571428Y36117000D01*
X61600000Y36059858D01*
X61628571Y36031286D01*
X61685714Y36002715D01*
X61800000Y35974143D01*
X61857142Y35945572D01*
X61885714Y35917000D01*
X61914285Y35859858D01*
X61914285Y35802715D01*
X61885714Y35745572D01*
X61857142Y35717000D01*
X61800000Y35688429D01*
X61657142Y35688429D01*
X61571428Y35717000D01*
X61400000Y35688429D02*
X61057142Y35688429D01*
X61228571Y36288429D02*
X61228571Y35688429D01*
X60857142Y36288429D02*
X60857142Y35688429D01*
X60657142Y36117000D01*
X60457142Y35688429D01*
X60457142Y36288429D01*
X60228571Y35688429D02*
X59857142Y35688429D01*
X60057142Y35917000D01*
X59971428Y35917000D01*
X59914285Y35945572D01*
X59885714Y35974143D01*
X59857142Y36031286D01*
X59857142Y36174143D01*
X59885714Y36231286D01*
X59914285Y36259858D01*
X59971428Y36288429D01*
X60142857Y36288429D01*
X60200000Y36259858D01*
X60228571Y36231286D01*
X59628571Y35745572D02*
X59600000Y35717000D01*
X59542857Y35688429D01*
X59400000Y35688429D01*
X59342857Y35717000D01*
X59314285Y35745572D01*
X59285714Y35802715D01*
X59285714Y35859858D01*
X59314285Y35945572D01*
X59657142Y36288429D01*
X59285714Y36288429D01*
X62185714Y37254429D02*
X62185714Y36654429D01*
X62042857Y36654429D01*
X61957142Y36683000D01*
X61900000Y36740143D01*
X61871428Y36797286D01*
X61842857Y36911572D01*
X61842857Y36997286D01*
X61871428Y37111572D01*
X61900000Y37168715D01*
X61957142Y37225858D01*
X62042857Y37254429D01*
X62185714Y37254429D01*
X61614285Y37225858D02*
X61528571Y37254429D01*
X61385714Y37254429D01*
X61328571Y37225858D01*
X61300000Y37197286D01*
X61271428Y37140143D01*
X61271428Y37083000D01*
X61300000Y37025858D01*
X61328571Y36997286D01*
X61385714Y36968715D01*
X61500000Y36940143D01*
X61557142Y36911572D01*
X61585714Y36883000D01*
X61614285Y36825858D01*
X61614285Y36768715D01*
X61585714Y36711572D01*
X61557142Y36683000D01*
X61500000Y36654429D01*
X61357142Y36654429D01*
X61271428Y36683000D01*
X61042857Y36711572D02*
X61014285Y36683000D01*
X60957142Y36654429D01*
X60814285Y36654429D01*
X60757142Y36683000D01*
X60728571Y36711572D01*
X60700000Y36768715D01*
X60700000Y36825858D01*
X60728571Y36911572D01*
X61071428Y37254429D01*
X60700000Y37254429D01*
X60185714Y36854429D02*
X60185714Y37254429D01*
X60328571Y36625858D02*
X60471428Y37054429D01*
X60100000Y37054429D01*
X59785714Y36911572D02*
X59842857Y36883000D01*
X59871428Y36854429D01*
X59900000Y36797286D01*
X59900000Y36768715D01*
X59871428Y36711572D01*
X59842857Y36683000D01*
X59785714Y36654429D01*
X59671428Y36654429D01*
X59614285Y36683000D01*
X59585714Y36711572D01*
X59557142Y36768715D01*
X59557142Y36797286D01*
X59585714Y36854429D01*
X59614285Y36883000D01*
X59671428Y36911572D01*
X59785714Y36911572D01*
X59842857Y36940143D01*
X59871428Y36968715D01*
X59900000Y37025858D01*
X59900000Y37140143D01*
X59871428Y37197286D01*
X59842857Y37225858D01*
X59785714Y37254429D01*
X59671428Y37254429D01*
X59614285Y37225858D01*
X59585714Y37197286D01*
X59557142Y37140143D01*
X59557142Y37025858D01*
X59585714Y36968715D01*
X59614285Y36940143D01*
X59671428Y36911572D01*
X59185714Y36654429D02*
X59128571Y36654429D01*
X59071428Y36683000D01*
X59042857Y36711572D01*
X59014285Y36768715D01*
X58985714Y36883000D01*
X58985714Y37025858D01*
X59014285Y37140143D01*
X59042857Y37197286D01*
X59071428Y37225858D01*
X59128571Y37254429D01*
X59185714Y37254429D01*
X59242857Y37225858D01*
X59271428Y37197286D01*
X59300000Y37140143D01*
X59328571Y37025858D01*
X59328571Y36883000D01*
X59300000Y36768715D01*
X59271428Y36711572D01*
X59242857Y36683000D01*
X59185714Y36654429D01*
X61914285Y50259858D02*
X61828571Y50288429D01*
X61685714Y50288429D01*
X61628571Y50259858D01*
X61600000Y50231286D01*
X61571428Y50174143D01*
X61571428Y50117000D01*
X61600000Y50059858D01*
X61628571Y50031286D01*
X61685714Y50002715D01*
X61800000Y49974143D01*
X61857142Y49945572D01*
X61885714Y49917000D01*
X61914285Y49859858D01*
X61914285Y49802715D01*
X61885714Y49745572D01*
X61857142Y49717000D01*
X61800000Y49688429D01*
X61657142Y49688429D01*
X61571428Y49717000D01*
X61400000Y49688429D02*
X61057142Y49688429D01*
X61228571Y50288429D02*
X61228571Y49688429D01*
X60857142Y50288429D02*
X60857142Y49688429D01*
X60657142Y50117000D01*
X60457142Y49688429D01*
X60457142Y50288429D01*
X60228571Y49688429D02*
X59857142Y49688429D01*
X60057142Y49917000D01*
X59971428Y49917000D01*
X59914285Y49945572D01*
X59885714Y49974143D01*
X59857142Y50031286D01*
X59857142Y50174143D01*
X59885714Y50231286D01*
X59914285Y50259858D01*
X59971428Y50288429D01*
X60142857Y50288429D01*
X60200000Y50259858D01*
X60228571Y50231286D01*
X59628571Y49745572D02*
X59600000Y49717000D01*
X59542857Y49688429D01*
X59400000Y49688429D01*
X59342857Y49717000D01*
X59314285Y49745572D01*
X59285714Y49802715D01*
X59285714Y49859858D01*
X59314285Y49945572D01*
X59657142Y50288429D01*
X59285714Y50288429D01*
X62185714Y51254429D02*
X62185714Y50654429D01*
X62042857Y50654429D01*
X61957142Y50683000D01*
X61900000Y50740143D01*
X61871428Y50797286D01*
X61842857Y50911572D01*
X61842857Y50997286D01*
X61871428Y51111572D01*
X61900000Y51168715D01*
X61957142Y51225858D01*
X62042857Y51254429D01*
X62185714Y51254429D01*
X61614285Y51225858D02*
X61528571Y51254429D01*
X61385714Y51254429D01*
X61328571Y51225858D01*
X61300000Y51197286D01*
X61271428Y51140143D01*
X61271428Y51083000D01*
X61300000Y51025858D01*
X61328571Y50997286D01*
X61385714Y50968715D01*
X61500000Y50940143D01*
X61557142Y50911572D01*
X61585714Y50883000D01*
X61614285Y50825858D01*
X61614285Y50768715D01*
X61585714Y50711572D01*
X61557142Y50683000D01*
X61500000Y50654429D01*
X61357142Y50654429D01*
X61271428Y50683000D01*
X61042857Y50711572D02*
X61014285Y50683000D01*
X60957142Y50654429D01*
X60814285Y50654429D01*
X60757142Y50683000D01*
X60728571Y50711572D01*
X60700000Y50768715D01*
X60700000Y50825858D01*
X60728571Y50911572D01*
X61071428Y51254429D01*
X60700000Y51254429D01*
X60185714Y50854429D02*
X60185714Y51254429D01*
X60328571Y50625858D02*
X60471428Y51054429D01*
X60100000Y51054429D01*
X59785714Y50911572D02*
X59842857Y50883000D01*
X59871428Y50854429D01*
X59900000Y50797286D01*
X59900000Y50768715D01*
X59871428Y50711572D01*
X59842857Y50683000D01*
X59785714Y50654429D01*
X59671428Y50654429D01*
X59614285Y50683000D01*
X59585714Y50711572D01*
X59557142Y50768715D01*
X59557142Y50797286D01*
X59585714Y50854429D01*
X59614285Y50883000D01*
X59671428Y50911572D01*
X59785714Y50911572D01*
X59842857Y50940143D01*
X59871428Y50968715D01*
X59900000Y51025858D01*
X59900000Y51140143D01*
X59871428Y51197286D01*
X59842857Y51225858D01*
X59785714Y51254429D01*
X59671428Y51254429D01*
X59614285Y51225858D01*
X59585714Y51197286D01*
X59557142Y51140143D01*
X59557142Y51025858D01*
X59585714Y50968715D01*
X59614285Y50940143D01*
X59671428Y50911572D01*
X59185714Y50654429D02*
X59128571Y50654429D01*
X59071428Y50683000D01*
X59042857Y50711572D01*
X59014285Y50768715D01*
X58985714Y50883000D01*
X58985714Y51025858D01*
X59014285Y51140143D01*
X59042857Y51197286D01*
X59071428Y51225858D01*
X59128571Y51254429D01*
X59185714Y51254429D01*
X59242857Y51225858D01*
X59271428Y51197286D01*
X59300000Y51140143D01*
X59328571Y51025858D01*
X59328571Y50883000D01*
X59300000Y50768715D01*
X59271428Y50711572D01*
X59242857Y50683000D01*
X59185714Y50654429D01*
X30228571Y11128572D02*
X30342857Y11128572D01*
X30400000Y11100000D01*
X30457142Y11042858D01*
X30485714Y10928572D01*
X30485714Y10728572D01*
X30457142Y10614286D01*
X30400000Y10557143D01*
X30342857Y10528572D01*
X30228571Y10528572D01*
X30171428Y10557143D01*
X30114285Y10614286D01*
X30085714Y10728572D01*
X30085714Y10928572D01*
X30114285Y11042858D01*
X30171428Y11100000D01*
X30228571Y11128572D01*
X30685714Y11128572D02*
X30828571Y10528572D01*
X30942857Y10957143D01*
X31057142Y10528572D01*
X31200000Y11128572D01*
X31428571Y10757143D02*
X31885714Y10757143D01*
X30228571Y25128572D02*
X30342857Y25128572D01*
X30400000Y25100000D01*
X30457142Y25042858D01*
X30485714Y24928572D01*
X30485714Y24728572D01*
X30457142Y24614286D01*
X30400000Y24557143D01*
X30342857Y24528572D01*
X30228571Y24528572D01*
X30171428Y24557143D01*
X30114285Y24614286D01*
X30085714Y24728572D01*
X30085714Y24928572D01*
X30114285Y25042858D01*
X30171428Y25100000D01*
X30228571Y25128572D01*
X30685714Y25128572D02*
X30828571Y24528572D01*
X30942857Y24957143D01*
X31057142Y24528572D01*
X31200000Y25128572D01*
X31428571Y24757143D02*
X31885714Y24757143D01*
X30228571Y39128572D02*
X30342857Y39128572D01*
X30400000Y39100000D01*
X30457142Y39042858D01*
X30485714Y38928572D01*
X30485714Y38728572D01*
X30457142Y38614286D01*
X30400000Y38557143D01*
X30342857Y38528572D01*
X30228571Y38528572D01*
X30171428Y38557143D01*
X30114285Y38614286D01*
X30085714Y38728572D01*
X30085714Y38928572D01*
X30114285Y39042858D01*
X30171428Y39100000D01*
X30228571Y39128572D01*
X30685714Y39128572D02*
X30828571Y38528572D01*
X30942857Y38957143D01*
X31057142Y38528572D01*
X31200000Y39128572D01*
X31428571Y38757143D02*
X31885714Y38757143D01*
X30228571Y53128572D02*
X30342857Y53128572D01*
X30400000Y53100000D01*
X30457142Y53042858D01*
X30485714Y52928572D01*
X30485714Y52728572D01*
X30457142Y52614286D01*
X30400000Y52557143D01*
X30342857Y52528572D01*
X30228571Y52528572D01*
X30171428Y52557143D01*
X30114285Y52614286D01*
X30085714Y52728572D01*
X30085714Y52928572D01*
X30114285Y53042858D01*
X30171428Y53100000D01*
X30228571Y53128572D01*
X30685714Y53128572D02*
X30828571Y52528572D01*
X30942857Y52957143D01*
X31057142Y52528572D01*
X31200000Y53128572D01*
X31428571Y52757143D02*
X31885714Y52757143D01*
X8085714Y19740143D02*
X8171428Y19711572D01*
X8314285Y19711572D01*
X8371428Y19740143D01*
X8400000Y19768715D01*
X8428571Y19825858D01*
X8428571Y19883000D01*
X8400000Y19940143D01*
X8371428Y19968715D01*
X8314285Y19997286D01*
X8200000Y20025858D01*
X8142857Y20054429D01*
X8114285Y20083000D01*
X8085714Y20140143D01*
X8085714Y20197286D01*
X8114285Y20254429D01*
X8142857Y20283000D01*
X8200000Y20311572D01*
X8342857Y20311572D01*
X8428571Y20283000D01*
X8600000Y20311572D02*
X8942857Y20311572D01*
X8771428Y19711572D02*
X8771428Y20311572D01*
X9142857Y19711572D02*
X9142857Y20311572D01*
X9342857Y19883000D01*
X9542857Y20311572D01*
X9542857Y19711572D01*
X9771428Y20311572D02*
X10142857Y20311572D01*
X9942857Y20083000D01*
X10028571Y20083000D01*
X10085714Y20054429D01*
X10114285Y20025858D01*
X10142857Y19968715D01*
X10142857Y19825858D01*
X10114285Y19768715D01*
X10085714Y19740143D01*
X10028571Y19711572D01*
X9857142Y19711572D01*
X9800000Y19740143D01*
X9771428Y19768715D01*
X10371428Y20254429D02*
X10400000Y20283000D01*
X10457142Y20311572D01*
X10600000Y20311572D01*
X10657142Y20283000D01*
X10685714Y20254429D01*
X10714285Y20197286D01*
X10714285Y20140143D01*
X10685714Y20054429D01*
X10342857Y19711572D01*
X10714285Y19711572D01*
X7814285Y18745572D02*
X7814285Y19345572D01*
X7957142Y19345572D01*
X8042857Y19317000D01*
X8100000Y19259858D01*
X8128571Y19202715D01*
X8157142Y19088429D01*
X8157142Y19002715D01*
X8128571Y18888429D01*
X8100000Y18831286D01*
X8042857Y18774143D01*
X7957142Y18745572D01*
X7814285Y18745572D01*
X8385714Y18774143D02*
X8471428Y18745572D01*
X8614285Y18745572D01*
X8671428Y18774143D01*
X8700000Y18802715D01*
X8728571Y18859858D01*
X8728571Y18917000D01*
X8700000Y18974143D01*
X8671428Y19002715D01*
X8614285Y19031286D01*
X8500000Y19059858D01*
X8442857Y19088429D01*
X8414285Y19117000D01*
X8385714Y19174143D01*
X8385714Y19231286D01*
X8414285Y19288429D01*
X8442857Y19317000D01*
X8500000Y19345572D01*
X8642857Y19345572D01*
X8728571Y19317000D01*
X8957142Y19288429D02*
X8985714Y19317000D01*
X9042857Y19345572D01*
X9185714Y19345572D01*
X9242857Y19317000D01*
X9271428Y19288429D01*
X9300000Y19231286D01*
X9300000Y19174143D01*
X9271428Y19088429D01*
X8928571Y18745572D01*
X9300000Y18745572D01*
X9814285Y19145572D02*
X9814285Y18745572D01*
X9671428Y19374143D02*
X9528571Y18945572D01*
X9900000Y18945572D01*
X10214285Y19088429D02*
X10157142Y19117000D01*
X10128571Y19145572D01*
X10100000Y19202715D01*
X10100000Y19231286D01*
X10128571Y19288429D01*
X10157142Y19317000D01*
X10214285Y19345572D01*
X10328571Y19345572D01*
X10385714Y19317000D01*
X10414285Y19288429D01*
X10442857Y19231286D01*
X10442857Y19202715D01*
X10414285Y19145572D01*
X10385714Y19117000D01*
X10328571Y19088429D01*
X10214285Y19088429D01*
X10157142Y19059858D01*
X10128571Y19031286D01*
X10100000Y18974143D01*
X10100000Y18859858D01*
X10128571Y18802715D01*
X10157142Y18774143D01*
X10214285Y18745572D01*
X10328571Y18745572D01*
X10385714Y18774143D01*
X10414285Y18802715D01*
X10442857Y18859858D01*
X10442857Y18974143D01*
X10414285Y19031286D01*
X10385714Y19059858D01*
X10328571Y19088429D01*
X10814285Y19345572D02*
X10871428Y19345572D01*
X10928571Y19317000D01*
X10957142Y19288429D01*
X10985714Y19231286D01*
X11014285Y19117000D01*
X11014285Y18974143D01*
X10985714Y18859858D01*
X10957142Y18802715D01*
X10928571Y18774143D01*
X10871428Y18745572D01*
X10814285Y18745572D01*
X10757142Y18774143D01*
X10728571Y18802715D01*
X10700000Y18859858D01*
X10671428Y18974143D01*
X10671428Y19117000D01*
X10700000Y19231286D01*
X10728571Y19288429D01*
X10757142Y19317000D01*
X10814285Y19345572D01*
X8085714Y33740143D02*
X8171428Y33711572D01*
X8314285Y33711572D01*
X8371428Y33740143D01*
X8400000Y33768715D01*
X8428571Y33825858D01*
X8428571Y33883000D01*
X8400000Y33940143D01*
X8371428Y33968715D01*
X8314285Y33997286D01*
X8200000Y34025858D01*
X8142857Y34054429D01*
X8114285Y34083000D01*
X8085714Y34140143D01*
X8085714Y34197286D01*
X8114285Y34254429D01*
X8142857Y34283000D01*
X8200000Y34311572D01*
X8342857Y34311572D01*
X8428571Y34283000D01*
X8600000Y34311572D02*
X8942857Y34311572D01*
X8771428Y33711572D02*
X8771428Y34311572D01*
X9142857Y33711572D02*
X9142857Y34311572D01*
X9342857Y33883000D01*
X9542857Y34311572D01*
X9542857Y33711572D01*
X9771428Y34311572D02*
X10142857Y34311572D01*
X9942857Y34083000D01*
X10028571Y34083000D01*
X10085714Y34054429D01*
X10114285Y34025858D01*
X10142857Y33968715D01*
X10142857Y33825858D01*
X10114285Y33768715D01*
X10085714Y33740143D01*
X10028571Y33711572D01*
X9857142Y33711572D01*
X9800000Y33740143D01*
X9771428Y33768715D01*
X10371428Y34254429D02*
X10400000Y34283000D01*
X10457142Y34311572D01*
X10600000Y34311572D01*
X10657142Y34283000D01*
X10685714Y34254429D01*
X10714285Y34197286D01*
X10714285Y34140143D01*
X10685714Y34054429D01*
X10342857Y33711572D01*
X10714285Y33711572D01*
X7814285Y32745572D02*
X7814285Y33345572D01*
X7957142Y33345572D01*
X8042857Y33317000D01*
X8100000Y33259858D01*
X8128571Y33202715D01*
X8157142Y33088429D01*
X8157142Y33002715D01*
X8128571Y32888429D01*
X8100000Y32831286D01*
X8042857Y32774143D01*
X7957142Y32745572D01*
X7814285Y32745572D01*
X8385714Y32774143D02*
X8471428Y32745572D01*
X8614285Y32745572D01*
X8671428Y32774143D01*
X8700000Y32802715D01*
X8728571Y32859858D01*
X8728571Y32917000D01*
X8700000Y32974143D01*
X8671428Y33002715D01*
X8614285Y33031286D01*
X8500000Y33059858D01*
X8442857Y33088429D01*
X8414285Y33117000D01*
X8385714Y33174143D01*
X8385714Y33231286D01*
X8414285Y33288429D01*
X8442857Y33317000D01*
X8500000Y33345572D01*
X8642857Y33345572D01*
X8728571Y33317000D01*
X8957142Y33288429D02*
X8985714Y33317000D01*
X9042857Y33345572D01*
X9185714Y33345572D01*
X9242857Y33317000D01*
X9271428Y33288429D01*
X9300000Y33231286D01*
X9300000Y33174143D01*
X9271428Y33088429D01*
X8928571Y32745572D01*
X9300000Y32745572D01*
X9814285Y33145572D02*
X9814285Y32745572D01*
X9671428Y33374143D02*
X9528571Y32945572D01*
X9900000Y32945572D01*
X10214285Y33088429D02*
X10157142Y33117000D01*
X10128571Y33145572D01*
X10100000Y33202715D01*
X10100000Y33231286D01*
X10128571Y33288429D01*
X10157142Y33317000D01*
X10214285Y33345572D01*
X10328571Y33345572D01*
X10385714Y33317000D01*
X10414285Y33288429D01*
X10442857Y33231286D01*
X10442857Y33202715D01*
X10414285Y33145572D01*
X10385714Y33117000D01*
X10328571Y33088429D01*
X10214285Y33088429D01*
X10157142Y33059858D01*
X10128571Y33031286D01*
X10100000Y32974143D01*
X10100000Y32859858D01*
X10128571Y32802715D01*
X10157142Y32774143D01*
X10214285Y32745572D01*
X10328571Y32745572D01*
X10385714Y32774143D01*
X10414285Y32802715D01*
X10442857Y32859858D01*
X10442857Y32974143D01*
X10414285Y33031286D01*
X10385714Y33059858D01*
X10328571Y33088429D01*
X10814285Y33345572D02*
X10871428Y33345572D01*
X10928571Y33317000D01*
X10957142Y33288429D01*
X10985714Y33231286D01*
X11014285Y33117000D01*
X11014285Y32974143D01*
X10985714Y32859858D01*
X10957142Y32802715D01*
X10928571Y32774143D01*
X10871428Y32745572D01*
X10814285Y32745572D01*
X10757142Y32774143D01*
X10728571Y32802715D01*
X10700000Y32859858D01*
X10671428Y32974143D01*
X10671428Y33117000D01*
X10700000Y33231286D01*
X10728571Y33288429D01*
X10757142Y33317000D01*
X10814285Y33345572D01*
X8085714Y47740143D02*
X8171428Y47711572D01*
X8314285Y47711572D01*
X8371428Y47740143D01*
X8400000Y47768715D01*
X8428571Y47825858D01*
X8428571Y47883000D01*
X8400000Y47940143D01*
X8371428Y47968715D01*
X8314285Y47997286D01*
X8200000Y48025858D01*
X8142857Y48054429D01*
X8114285Y48083000D01*
X8085714Y48140143D01*
X8085714Y48197286D01*
X8114285Y48254429D01*
X8142857Y48283000D01*
X8200000Y48311572D01*
X8342857Y48311572D01*
X8428571Y48283000D01*
X8600000Y48311572D02*
X8942857Y48311572D01*
X8771428Y47711572D02*
X8771428Y48311572D01*
X9142857Y47711572D02*
X9142857Y48311572D01*
X9342857Y47883000D01*
X9542857Y48311572D01*
X9542857Y47711572D01*
X9771428Y48311572D02*
X10142857Y48311572D01*
X9942857Y48083000D01*
X10028571Y48083000D01*
X10085714Y48054429D01*
X10114285Y48025858D01*
X10142857Y47968715D01*
X10142857Y47825858D01*
X10114285Y47768715D01*
X10085714Y47740143D01*
X10028571Y47711572D01*
X9857142Y47711572D01*
X9800000Y47740143D01*
X9771428Y47768715D01*
X10371428Y48254429D02*
X10400000Y48283000D01*
X10457142Y48311572D01*
X10600000Y48311572D01*
X10657142Y48283000D01*
X10685714Y48254429D01*
X10714285Y48197286D01*
X10714285Y48140143D01*
X10685714Y48054429D01*
X10342857Y47711572D01*
X10714285Y47711572D01*
X7814285Y46745572D02*
X7814285Y47345572D01*
X7957142Y47345572D01*
X8042857Y47317000D01*
X8100000Y47259858D01*
X8128571Y47202715D01*
X8157142Y47088429D01*
X8157142Y47002715D01*
X8128571Y46888429D01*
X8100000Y46831286D01*
X8042857Y46774143D01*
X7957142Y46745572D01*
X7814285Y46745572D01*
X8385714Y46774143D02*
X8471428Y46745572D01*
X8614285Y46745572D01*
X8671428Y46774143D01*
X8700000Y46802715D01*
X8728571Y46859858D01*
X8728571Y46917000D01*
X8700000Y46974143D01*
X8671428Y47002715D01*
X8614285Y47031286D01*
X8500000Y47059858D01*
X8442857Y47088429D01*
X8414285Y47117000D01*
X8385714Y47174143D01*
X8385714Y47231286D01*
X8414285Y47288429D01*
X8442857Y47317000D01*
X8500000Y47345572D01*
X8642857Y47345572D01*
X8728571Y47317000D01*
X8957142Y47288429D02*
X8985714Y47317000D01*
X9042857Y47345572D01*
X9185714Y47345572D01*
X9242857Y47317000D01*
X9271428Y47288429D01*
X9300000Y47231286D01*
X9300000Y47174143D01*
X9271428Y47088429D01*
X8928571Y46745572D01*
X9300000Y46745572D01*
X9814285Y47145572D02*
X9814285Y46745572D01*
X9671428Y47374143D02*
X9528571Y46945572D01*
X9900000Y46945572D01*
X10214285Y47088429D02*
X10157142Y47117000D01*
X10128571Y47145572D01*
X10100000Y47202715D01*
X10100000Y47231286D01*
X10128571Y47288429D01*
X10157142Y47317000D01*
X10214285Y47345572D01*
X10328571Y47345572D01*
X10385714Y47317000D01*
X10414285Y47288429D01*
X10442857Y47231286D01*
X10442857Y47202715D01*
X10414285Y47145572D01*
X10385714Y47117000D01*
X10328571Y47088429D01*
X10214285Y47088429D01*
X10157142Y47059858D01*
X10128571Y47031286D01*
X10100000Y46974143D01*
X10100000Y46859858D01*
X10128571Y46802715D01*
X10157142Y46774143D01*
X10214285Y46745572D01*
X10328571Y46745572D01*
X10385714Y46774143D01*
X10414285Y46802715D01*
X10442857Y46859858D01*
X10442857Y46974143D01*
X10414285Y47031286D01*
X10385714Y47059858D01*
X10328571Y47088429D01*
X10814285Y47345572D02*
X10871428Y47345572D01*
X10928571Y47317000D01*
X10957142Y47288429D01*
X10985714Y47231286D01*
X11014285Y47117000D01*
X11014285Y46974143D01*
X10985714Y46859858D01*
X10957142Y46802715D01*
X10928571Y46774143D01*
X10871428Y46745572D01*
X10814285Y46745572D01*
X10757142Y46774143D01*
X10728571Y46802715D01*
X10700000Y46859858D01*
X10671428Y46974143D01*
X10671428Y47117000D01*
X10700000Y47231286D01*
X10728571Y47288429D01*
X10757142Y47317000D01*
X10814285Y47345572D01*
X8085714Y61740143D02*
X8171428Y61711572D01*
X8314285Y61711572D01*
X8371428Y61740143D01*
X8400000Y61768715D01*
X8428571Y61825858D01*
X8428571Y61883000D01*
X8400000Y61940143D01*
X8371428Y61968715D01*
X8314285Y61997286D01*
X8200000Y62025858D01*
X8142857Y62054429D01*
X8114285Y62083000D01*
X8085714Y62140143D01*
X8085714Y62197286D01*
X8114285Y62254429D01*
X8142857Y62283000D01*
X8200000Y62311572D01*
X8342857Y62311572D01*
X8428571Y62283000D01*
X8600000Y62311572D02*
X8942857Y62311572D01*
X8771428Y61711572D02*
X8771428Y62311572D01*
X9142857Y61711572D02*
X9142857Y62311572D01*
X9342857Y61883000D01*
X9542857Y62311572D01*
X9542857Y61711572D01*
X9771428Y62311572D02*
X10142857Y62311572D01*
X9942857Y62083000D01*
X10028571Y62083000D01*
X10085714Y62054429D01*
X10114285Y62025858D01*
X10142857Y61968715D01*
X10142857Y61825858D01*
X10114285Y61768715D01*
X10085714Y61740143D01*
X10028571Y61711572D01*
X9857142Y61711572D01*
X9800000Y61740143D01*
X9771428Y61768715D01*
X10371428Y62254429D02*
X10400000Y62283000D01*
X10457142Y62311572D01*
X10600000Y62311572D01*
X10657142Y62283000D01*
X10685714Y62254429D01*
X10714285Y62197286D01*
X10714285Y62140143D01*
X10685714Y62054429D01*
X10342857Y61711572D01*
X10714285Y61711572D01*
X7814285Y60745572D02*
X7814285Y61345572D01*
X7957142Y61345572D01*
X8042857Y61317000D01*
X8100000Y61259858D01*
X8128571Y61202715D01*
X8157142Y61088429D01*
X8157142Y61002715D01*
X8128571Y60888429D01*
X8100000Y60831286D01*
X8042857Y60774143D01*
X7957142Y60745572D01*
X7814285Y60745572D01*
X8385714Y60774143D02*
X8471428Y60745572D01*
X8614285Y60745572D01*
X8671428Y60774143D01*
X8700000Y60802715D01*
X8728571Y60859858D01*
X8728571Y60917000D01*
X8700000Y60974143D01*
X8671428Y61002715D01*
X8614285Y61031286D01*
X8500000Y61059858D01*
X8442857Y61088429D01*
X8414285Y61117000D01*
X8385714Y61174143D01*
X8385714Y61231286D01*
X8414285Y61288429D01*
X8442857Y61317000D01*
X8500000Y61345572D01*
X8642857Y61345572D01*
X8728571Y61317000D01*
X8957142Y61288429D02*
X8985714Y61317000D01*
X9042857Y61345572D01*
X9185714Y61345572D01*
X9242857Y61317000D01*
X9271428Y61288429D01*
X9300000Y61231286D01*
X9300000Y61174143D01*
X9271428Y61088429D01*
X8928571Y60745572D01*
X9300000Y60745572D01*
X9814285Y61145572D02*
X9814285Y60745572D01*
X9671428Y61374143D02*
X9528571Y60945572D01*
X9900000Y60945572D01*
X10214285Y61088429D02*
X10157142Y61117000D01*
X10128571Y61145572D01*
X10100000Y61202715D01*
X10100000Y61231286D01*
X10128571Y61288429D01*
X10157142Y61317000D01*
X10214285Y61345572D01*
X10328571Y61345572D01*
X10385714Y61317000D01*
X10414285Y61288429D01*
X10442857Y61231286D01*
X10442857Y61202715D01*
X10414285Y61145572D01*
X10385714Y61117000D01*
X10328571Y61088429D01*
X10214285Y61088429D01*
X10157142Y61059858D01*
X10128571Y61031286D01*
X10100000Y60974143D01*
X10100000Y60859858D01*
X10128571Y60802715D01*
X10157142Y60774143D01*
X10214285Y60745572D01*
X10328571Y60745572D01*
X10385714Y60774143D01*
X10414285Y60802715D01*
X10442857Y60859858D01*
X10442857Y60974143D01*
X10414285Y61031286D01*
X10385714Y61059858D01*
X10328571Y61088429D01*
X10814285Y61345572D02*
X10871428Y61345572D01*
X10928571Y61317000D01*
X10957142Y61288429D01*
X10985714Y61231286D01*
X11014285Y61117000D01*
X11014285Y60974143D01*
X10985714Y60859858D01*
X10957142Y60802715D01*
X10928571Y60774143D01*
X10871428Y60745572D01*
X10814285Y60745572D01*
X10757142Y60774143D01*
X10728571Y60802715D01*
X10700000Y60859858D01*
X10671428Y60974143D01*
X10671428Y61117000D01*
X10700000Y61231286D01*
X10728571Y61288429D01*
X10757142Y61317000D01*
X10814285Y61345572D01*
X30228571Y17528572D02*
X30342857Y17528572D01*
X30400000Y17500000D01*
X30457142Y17442858D01*
X30485714Y17328572D01*
X30485714Y17128572D01*
X30457142Y17014286D01*
X30400000Y16957143D01*
X30342857Y16928572D01*
X30228571Y16928572D01*
X30171428Y16957143D01*
X30114285Y17014286D01*
X30085714Y17128572D01*
X30085714Y17328572D01*
X30114285Y17442858D01*
X30171428Y17500000D01*
X30228571Y17528572D01*
X30685714Y17528572D02*
X30828571Y16928572D01*
X30942857Y17357143D01*
X31057142Y16928572D01*
X31200000Y17528572D01*
X31428571Y17157143D02*
X31885714Y17157143D01*
X31657142Y16928572D02*
X31657142Y17385715D01*
X30228571Y31528572D02*
X30342857Y31528572D01*
X30400000Y31500000D01*
X30457142Y31442858D01*
X30485714Y31328572D01*
X30485714Y31128572D01*
X30457142Y31014286D01*
X30400000Y30957143D01*
X30342857Y30928572D01*
X30228571Y30928572D01*
X30171428Y30957143D01*
X30114285Y31014286D01*
X30085714Y31128572D01*
X30085714Y31328572D01*
X30114285Y31442858D01*
X30171428Y31500000D01*
X30228571Y31528572D01*
X30685714Y31528572D02*
X30828571Y30928572D01*
X30942857Y31357143D01*
X31057142Y30928572D01*
X31200000Y31528572D01*
X31428571Y31157143D02*
X31885714Y31157143D01*
X31657142Y30928572D02*
X31657142Y31385715D01*
X30228571Y45528572D02*
X30342857Y45528572D01*
X30400000Y45500000D01*
X30457142Y45442858D01*
X30485714Y45328572D01*
X30485714Y45128572D01*
X30457142Y45014286D01*
X30400000Y44957143D01*
X30342857Y44928572D01*
X30228571Y44928572D01*
X30171428Y44957143D01*
X30114285Y45014286D01*
X30085714Y45128572D01*
X30085714Y45328572D01*
X30114285Y45442858D01*
X30171428Y45500000D01*
X30228571Y45528572D01*
X30685714Y45528572D02*
X30828571Y44928572D01*
X30942857Y45357143D01*
X31057142Y44928572D01*
X31200000Y45528572D01*
X31428571Y45157143D02*
X31885714Y45157143D01*
X31657142Y44928572D02*
X31657142Y45385715D01*
X30228571Y59528572D02*
X30342857Y59528572D01*
X30400000Y59500000D01*
X30457142Y59442858D01*
X30485714Y59328572D01*
X30485714Y59128572D01*
X30457142Y59014286D01*
X30400000Y58957143D01*
X30342857Y58928572D01*
X30228571Y58928572D01*
X30171428Y58957143D01*
X30114285Y59014286D01*
X30085714Y59128572D01*
X30085714Y59328572D01*
X30114285Y59442858D01*
X30171428Y59500000D01*
X30228571Y59528572D01*
X30685714Y59528572D02*
X30828571Y58928572D01*
X30942857Y59357143D01*
X31057142Y58928572D01*
X31200000Y59528572D01*
X31428571Y59157143D02*
X31885714Y59157143D01*
X31657142Y58928572D02*
X31657142Y59385715D01*
X39771428Y10471429D02*
X39657142Y10471429D01*
X39600000Y10500000D01*
X39542857Y10557143D01*
X39514285Y10671429D01*
X39514285Y10871429D01*
X39542857Y10985715D01*
X39600000Y11042858D01*
X39657142Y11071429D01*
X39771428Y11071429D01*
X39828571Y11042858D01*
X39885714Y10985715D01*
X39914285Y10871429D01*
X39914285Y10671429D01*
X39885714Y10557143D01*
X39828571Y10500000D01*
X39771428Y10471429D01*
X39314285Y10471429D02*
X39171428Y11071429D01*
X39057142Y10642858D01*
X38942857Y11071429D01*
X38800000Y10471429D01*
X38571428Y10842858D02*
X38114285Y10842858D01*
X38342857Y11071429D02*
X38342857Y10614286D01*
X39771428Y24471429D02*
X39657142Y24471429D01*
X39600000Y24500000D01*
X39542857Y24557143D01*
X39514285Y24671429D01*
X39514285Y24871429D01*
X39542857Y24985715D01*
X39600000Y25042858D01*
X39657142Y25071429D01*
X39771428Y25071429D01*
X39828571Y25042858D01*
X39885714Y24985715D01*
X39914285Y24871429D01*
X39914285Y24671429D01*
X39885714Y24557143D01*
X39828571Y24500000D01*
X39771428Y24471429D01*
X39314285Y24471429D02*
X39171428Y25071429D01*
X39057142Y24642858D01*
X38942857Y25071429D01*
X38800000Y24471429D01*
X38571428Y24842858D02*
X38114285Y24842858D01*
X38342857Y25071429D02*
X38342857Y24614286D01*
X39771428Y38471429D02*
X39657142Y38471429D01*
X39600000Y38500000D01*
X39542857Y38557143D01*
X39514285Y38671429D01*
X39514285Y38871429D01*
X39542857Y38985715D01*
X39600000Y39042858D01*
X39657142Y39071429D01*
X39771428Y39071429D01*
X39828571Y39042858D01*
X39885714Y38985715D01*
X39914285Y38871429D01*
X39914285Y38671429D01*
X39885714Y38557143D01*
X39828571Y38500000D01*
X39771428Y38471429D01*
X39314285Y38471429D02*
X39171428Y39071429D01*
X39057142Y38642858D01*
X38942857Y39071429D01*
X38800000Y38471429D01*
X38571428Y38842858D02*
X38114285Y38842858D01*
X38342857Y39071429D02*
X38342857Y38614286D01*
X39771428Y52471429D02*
X39657142Y52471429D01*
X39600000Y52500000D01*
X39542857Y52557143D01*
X39514285Y52671429D01*
X39514285Y52871429D01*
X39542857Y52985715D01*
X39600000Y53042858D01*
X39657142Y53071429D01*
X39771428Y53071429D01*
X39828571Y53042858D01*
X39885714Y52985715D01*
X39914285Y52871429D01*
X39914285Y52671429D01*
X39885714Y52557143D01*
X39828571Y52500000D01*
X39771428Y52471429D01*
X39314285Y52471429D02*
X39171428Y53071429D01*
X39057142Y52642858D01*
X38942857Y53071429D01*
X38800000Y52471429D01*
X38571428Y52842858D02*
X38114285Y52842858D01*
X38342857Y53071429D02*
X38342857Y52614286D01*
X39771428Y72871429D02*
X39657142Y72871429D01*
X39600000Y72900000D01*
X39542857Y72957143D01*
X39514285Y73071429D01*
X39514285Y73271429D01*
X39542857Y73385715D01*
X39600000Y73442858D01*
X39657142Y73471429D01*
X39771428Y73471429D01*
X39828571Y73442858D01*
X39885714Y73385715D01*
X39914285Y73271429D01*
X39914285Y73071429D01*
X39885714Y72957143D01*
X39828571Y72900000D01*
X39771428Y72871429D01*
X39314285Y72871429D02*
X39171428Y73471429D01*
X39057142Y73042858D01*
X38942857Y73471429D01*
X38800000Y72871429D01*
X38571428Y73242858D02*
X38114285Y73242858D01*
X61914285Y64259858D02*
X61828571Y64288429D01*
X61685714Y64288429D01*
X61628571Y64259858D01*
X61600000Y64231286D01*
X61571428Y64174143D01*
X61571428Y64117000D01*
X61600000Y64059858D01*
X61628571Y64031286D01*
X61685714Y64002715D01*
X61800000Y63974143D01*
X61857142Y63945572D01*
X61885714Y63917000D01*
X61914285Y63859858D01*
X61914285Y63802715D01*
X61885714Y63745572D01*
X61857142Y63717000D01*
X61800000Y63688429D01*
X61657142Y63688429D01*
X61571428Y63717000D01*
X61400000Y63688429D02*
X61057142Y63688429D01*
X61228571Y64288429D02*
X61228571Y63688429D01*
X60857142Y64288429D02*
X60857142Y63688429D01*
X60657142Y64117000D01*
X60457142Y63688429D01*
X60457142Y64288429D01*
X60228571Y63688429D02*
X59857142Y63688429D01*
X60057142Y63917000D01*
X59971428Y63917000D01*
X59914285Y63945572D01*
X59885714Y63974143D01*
X59857142Y64031286D01*
X59857142Y64174143D01*
X59885714Y64231286D01*
X59914285Y64259858D01*
X59971428Y64288429D01*
X60142857Y64288429D01*
X60200000Y64259858D01*
X60228571Y64231286D01*
X59628571Y63745572D02*
X59600000Y63717000D01*
X59542857Y63688429D01*
X59400000Y63688429D01*
X59342857Y63717000D01*
X59314285Y63745572D01*
X59285714Y63802715D01*
X59285714Y63859858D01*
X59314285Y63945572D01*
X59657142Y64288429D01*
X59285714Y64288429D01*
X62185714Y65254429D02*
X62185714Y64654429D01*
X62042857Y64654429D01*
X61957142Y64683000D01*
X61900000Y64740143D01*
X61871428Y64797286D01*
X61842857Y64911572D01*
X61842857Y64997286D01*
X61871428Y65111572D01*
X61900000Y65168715D01*
X61957142Y65225858D01*
X62042857Y65254429D01*
X62185714Y65254429D01*
X61614285Y65225858D02*
X61528571Y65254429D01*
X61385714Y65254429D01*
X61328571Y65225858D01*
X61300000Y65197286D01*
X61271428Y65140143D01*
X61271428Y65083000D01*
X61300000Y65025858D01*
X61328571Y64997286D01*
X61385714Y64968715D01*
X61500000Y64940143D01*
X61557142Y64911572D01*
X61585714Y64883000D01*
X61614285Y64825858D01*
X61614285Y64768715D01*
X61585714Y64711572D01*
X61557142Y64683000D01*
X61500000Y64654429D01*
X61357142Y64654429D01*
X61271428Y64683000D01*
X61042857Y64711572D02*
X61014285Y64683000D01*
X60957142Y64654429D01*
X60814285Y64654429D01*
X60757142Y64683000D01*
X60728571Y64711572D01*
X60700000Y64768715D01*
X60700000Y64825858D01*
X60728571Y64911572D01*
X61071428Y65254429D01*
X60700000Y65254429D01*
X60185714Y64854429D02*
X60185714Y65254429D01*
X60328571Y64625858D02*
X60471428Y65054429D01*
X60100000Y65054429D01*
X59785714Y64911572D02*
X59842857Y64883000D01*
X59871428Y64854429D01*
X59900000Y64797286D01*
X59900000Y64768715D01*
X59871428Y64711572D01*
X59842857Y64683000D01*
X59785714Y64654429D01*
X59671428Y64654429D01*
X59614285Y64683000D01*
X59585714Y64711572D01*
X59557142Y64768715D01*
X59557142Y64797286D01*
X59585714Y64854429D01*
X59614285Y64883000D01*
X59671428Y64911572D01*
X59785714Y64911572D01*
X59842857Y64940143D01*
X59871428Y64968715D01*
X59900000Y65025858D01*
X59900000Y65140143D01*
X59871428Y65197286D01*
X59842857Y65225858D01*
X59785714Y65254429D01*
X59671428Y65254429D01*
X59614285Y65225858D01*
X59585714Y65197286D01*
X59557142Y65140143D01*
X59557142Y65025858D01*
X59585714Y64968715D01*
X59614285Y64940143D01*
X59671428Y64911572D01*
X59185714Y64654429D02*
X59128571Y64654429D01*
X59071428Y64683000D01*
X59042857Y64711572D01*
X59014285Y64768715D01*
X58985714Y64883000D01*
X58985714Y65025858D01*
X59014285Y65140143D01*
X59042857Y65197286D01*
X59071428Y65225858D01*
X59128571Y65254429D01*
X59185714Y65254429D01*
X59242857Y65225858D01*
X59271428Y65197286D01*
X59300000Y65140143D01*
X59328571Y65025858D01*
X59328571Y64883000D01*
X59300000Y64768715D01*
X59271428Y64711572D01*
X59242857Y64683000D01*
X59185714Y64654429D01*
X39771428Y66471429D02*
X39657142Y66471429D01*
X39600000Y66500000D01*
X39542857Y66557143D01*
X39514285Y66671429D01*
X39514285Y66871429D01*
X39542857Y66985715D01*
X39600000Y67042858D01*
X39657142Y67071429D01*
X39771428Y67071429D01*
X39828571Y67042858D01*
X39885714Y66985715D01*
X39914285Y66871429D01*
X39914285Y66671429D01*
X39885714Y66557143D01*
X39828571Y66500000D01*
X39771428Y66471429D01*
X39314285Y66471429D02*
X39171428Y67071429D01*
X39057142Y66642858D01*
X38942857Y67071429D01*
X38800000Y66471429D01*
X38571428Y66842858D02*
X38114285Y66842858D01*
X38342857Y67071429D02*
X38342857Y66614286D01*
X30228571Y67128572D02*
X30342857Y67128572D01*
X30400000Y67100000D01*
X30457142Y67042858D01*
X30485714Y66928572D01*
X30485714Y66728572D01*
X30457142Y66614286D01*
X30400000Y66557143D01*
X30342857Y66528572D01*
X30228571Y66528572D01*
X30171428Y66557143D01*
X30114285Y66614286D01*
X30085714Y66728572D01*
X30085714Y66928572D01*
X30114285Y67042858D01*
X30171428Y67100000D01*
X30228571Y67128572D01*
X30685714Y67128572D02*
X30828571Y66528572D01*
X30942857Y66957143D01*
X31057142Y66528572D01*
X31200000Y67128572D01*
X31428571Y66757143D02*
X31885714Y66757143D01*
X30228571Y73528572D02*
X30342857Y73528572D01*
X30400000Y73500000D01*
X30457142Y73442858D01*
X30485714Y73328572D01*
X30485714Y73128572D01*
X30457142Y73014286D01*
X30400000Y72957143D01*
X30342857Y72928572D01*
X30228571Y72928572D01*
X30171428Y72957143D01*
X30114285Y73014286D01*
X30085714Y73128572D01*
X30085714Y73328572D01*
X30114285Y73442858D01*
X30171428Y73500000D01*
X30228571Y73528572D01*
X30685714Y73528572D02*
X30828571Y72928572D01*
X30942857Y73357143D01*
X31057142Y72928572D01*
X31200000Y73528572D01*
X31428571Y73157143D02*
X31885714Y73157143D01*
X31657142Y72928572D02*
X31657142Y73385715D01*
X8085714Y75740143D02*
X8171428Y75711572D01*
X8314285Y75711572D01*
X8371428Y75740143D01*
X8400000Y75768715D01*
X8428571Y75825858D01*
X8428571Y75883000D01*
X8400000Y75940143D01*
X8371428Y75968715D01*
X8314285Y75997286D01*
X8200000Y76025858D01*
X8142857Y76054429D01*
X8114285Y76083000D01*
X8085714Y76140143D01*
X8085714Y76197286D01*
X8114285Y76254429D01*
X8142857Y76283000D01*
X8200000Y76311572D01*
X8342857Y76311572D01*
X8428571Y76283000D01*
X8600000Y76311572D02*
X8942857Y76311572D01*
X8771428Y75711572D02*
X8771428Y76311572D01*
X9142857Y75711572D02*
X9142857Y76311572D01*
X9342857Y75883000D01*
X9542857Y76311572D01*
X9542857Y75711572D01*
X9771428Y76311572D02*
X10142857Y76311572D01*
X9942857Y76083000D01*
X10028571Y76083000D01*
X10085714Y76054429D01*
X10114285Y76025858D01*
X10142857Y75968715D01*
X10142857Y75825858D01*
X10114285Y75768715D01*
X10085714Y75740143D01*
X10028571Y75711572D01*
X9857142Y75711572D01*
X9800000Y75740143D01*
X9771428Y75768715D01*
X10371428Y76254429D02*
X10400000Y76283000D01*
X10457142Y76311572D01*
X10600000Y76311572D01*
X10657142Y76283000D01*
X10685714Y76254429D01*
X10714285Y76197286D01*
X10714285Y76140143D01*
X10685714Y76054429D01*
X10342857Y75711572D01*
X10714285Y75711572D01*
X7814285Y74745572D02*
X7814285Y75345572D01*
X7957142Y75345572D01*
X8042857Y75317000D01*
X8100000Y75259858D01*
X8128571Y75202715D01*
X8157142Y75088429D01*
X8157142Y75002715D01*
X8128571Y74888429D01*
X8100000Y74831286D01*
X8042857Y74774143D01*
X7957142Y74745572D01*
X7814285Y74745572D01*
X8385714Y74774143D02*
X8471428Y74745572D01*
X8614285Y74745572D01*
X8671428Y74774143D01*
X8700000Y74802715D01*
X8728571Y74859858D01*
X8728571Y74917000D01*
X8700000Y74974143D01*
X8671428Y75002715D01*
X8614285Y75031286D01*
X8500000Y75059858D01*
X8442857Y75088429D01*
X8414285Y75117000D01*
X8385714Y75174143D01*
X8385714Y75231286D01*
X8414285Y75288429D01*
X8442857Y75317000D01*
X8500000Y75345572D01*
X8642857Y75345572D01*
X8728571Y75317000D01*
X8957142Y75288429D02*
X8985714Y75317000D01*
X9042857Y75345572D01*
X9185714Y75345572D01*
X9242857Y75317000D01*
X9271428Y75288429D01*
X9300000Y75231286D01*
X9300000Y75174143D01*
X9271428Y75088429D01*
X8928571Y74745572D01*
X9300000Y74745572D01*
X9814285Y75145572D02*
X9814285Y74745572D01*
X9671428Y75374143D02*
X9528571Y74945572D01*
X9900000Y74945572D01*
X10214285Y75088429D02*
X10157142Y75117000D01*
X10128571Y75145572D01*
X10100000Y75202715D01*
X10100000Y75231286D01*
X10128571Y75288429D01*
X10157142Y75317000D01*
X10214285Y75345572D01*
X10328571Y75345572D01*
X10385714Y75317000D01*
X10414285Y75288429D01*
X10442857Y75231286D01*
X10442857Y75202715D01*
X10414285Y75145572D01*
X10385714Y75117000D01*
X10328571Y75088429D01*
X10214285Y75088429D01*
X10157142Y75059858D01*
X10128571Y75031286D01*
X10100000Y74974143D01*
X10100000Y74859858D01*
X10128571Y74802715D01*
X10157142Y74774143D01*
X10214285Y74745572D01*
X10328571Y74745572D01*
X10385714Y74774143D01*
X10414285Y74802715D01*
X10442857Y74859858D01*
X10442857Y74974143D01*
X10414285Y75031286D01*
X10385714Y75059858D01*
X10328571Y75088429D01*
X10814285Y75345572D02*
X10871428Y75345572D01*
X10928571Y75317000D01*
X10957142Y75288429D01*
X10985714Y75231286D01*
X11014285Y75117000D01*
X11014285Y74974143D01*
X10985714Y74859858D01*
X10957142Y74802715D01*
X10928571Y74774143D01*
X10871428Y74745572D01*
X10814285Y74745572D01*
X10757142Y74774143D01*
X10728571Y74802715D01*
X10700000Y74859858D01*
X10671428Y74974143D01*
X10671428Y75117000D01*
X10700000Y75231286D01*
X10728571Y75288429D01*
X10757142Y75317000D01*
X10814285Y75345572D01*
D11*
X3920000Y9600000D02*
X3920000Y18400000D01*
X750000Y7855000D02*
X-300000Y7855000D01*
X750000Y20145000D02*
X-300000Y20145000D01*
X3920000Y23600000D02*
X3920000Y32400000D01*
X750000Y21855000D02*
X-300000Y21855000D01*
X750000Y34145000D02*
X-300000Y34145000D01*
X3920000Y37600000D02*
X3920000Y46400000D01*
X750000Y35855000D02*
X-300000Y35855000D01*
X750000Y48145000D02*
X-300000Y48145000D01*
X3920000Y51600000D02*
X3920000Y60400000D01*
X750000Y49855000D02*
X-300000Y49855000D01*
X750000Y62145000D02*
X-300000Y62145000D01*
X21900000Y7700000D02*
G75*
G02*
X21200000Y8400000I0J700000D01*
G01*
X21200000Y9000000D02*
G75*
G02*
X21900000Y9700000I700000J0D01*
G01*
X23300000Y9700000D02*
G75*
G02*
X24000000Y9000000I0J-700000D01*
G01*
X24000000Y8400000D02*
G75*
G02*
X23300000Y7700000I-700000J0D01*
G01*
X24000000Y9000000D02*
X24000000Y8400000D01*
X21900000Y9700000D02*
X23300000Y9700000D01*
X21200000Y8400000D02*
X21200000Y9000000D01*
X23300000Y7700000D02*
X21900000Y7700000D01*
X21900000Y21700000D02*
G75*
G02*
X21200000Y22400000I0J700000D01*
G01*
X21200000Y23000000D02*
G75*
G02*
X21900000Y23700000I700000J0D01*
G01*
X23300000Y23700000D02*
G75*
G02*
X24000000Y23000000I0J-700000D01*
G01*
X24000000Y22400000D02*
G75*
G02*
X23300000Y21700000I-700000J0D01*
G01*
X24000000Y23000000D02*
X24000000Y22400000D01*
X21900000Y23700000D02*
X23300000Y23700000D01*
X21200000Y22400000D02*
X21200000Y23000000D01*
X23300000Y21700000D02*
X21900000Y21700000D01*
X21900000Y35700000D02*
G75*
G02*
X21200000Y36400000I0J700000D01*
G01*
X21200000Y37000000D02*
G75*
G02*
X21900000Y37700000I700000J0D01*
G01*
X23300000Y37700000D02*
G75*
G02*
X24000000Y37000000I0J-700000D01*
G01*
X24000000Y36400000D02*
G75*
G02*
X23300000Y35700000I-700000J0D01*
G01*
X24000000Y37000000D02*
X24000000Y36400000D01*
X21900000Y37700000D02*
X23300000Y37700000D01*
X21200000Y36400000D02*
X21200000Y37000000D01*
X23300000Y35700000D02*
X21900000Y35700000D01*
X21900000Y49700000D02*
G75*
G02*
X21200000Y50400000I0J700000D01*
G01*
X21200000Y51000000D02*
G75*
G02*
X21900000Y51700000I700000J0D01*
G01*
X23300000Y51700000D02*
G75*
G02*
X24000000Y51000000I0J-700000D01*
G01*
X24000000Y50400000D02*
G75*
G02*
X23300000Y49700000I-700000J0D01*
G01*
X24000000Y51000000D02*
X24000000Y50400000D01*
X21900000Y51700000D02*
X23300000Y51700000D01*
X21200000Y50400000D02*
X21200000Y51000000D01*
X23300000Y49700000D02*
X21900000Y49700000D01*
X29670000Y11430000D02*
X32330000Y11430000D01*
X29670000Y14030000D02*
X29670000Y11430000D01*
X32330000Y14030000D02*
X32330000Y11430000D01*
X29670000Y14030000D02*
X32330000Y14030000D01*
X29670000Y15300000D02*
X29670000Y16630000D01*
X29670000Y16630000D02*
X31000000Y16630000D01*
X29670000Y25430000D02*
X32330000Y25430000D01*
X29670000Y28030000D02*
X29670000Y25430000D01*
X32330000Y28030000D02*
X32330000Y25430000D01*
X29670000Y28030000D02*
X32330000Y28030000D01*
X29670000Y29300000D02*
X29670000Y30630000D01*
X29670000Y30630000D02*
X31000000Y30630000D01*
X29670000Y39430000D02*
X32330000Y39430000D01*
X29670000Y42030000D02*
X29670000Y39430000D01*
X32330000Y42030000D02*
X32330000Y39430000D01*
X29670000Y42030000D02*
X32330000Y42030000D01*
X29670000Y43300000D02*
X29670000Y44630000D01*
X29670000Y44630000D02*
X31000000Y44630000D01*
X29670000Y53430000D02*
X32330000Y53430000D01*
X29670000Y56030000D02*
X29670000Y53430000D01*
X32330000Y56030000D02*
X32330000Y53430000D01*
X29670000Y56030000D02*
X32330000Y56030000D01*
X29670000Y57300000D02*
X29670000Y58630000D01*
X29670000Y58630000D02*
X31000000Y58630000D01*
X23841422Y19310000D02*
X24358578Y19310000D01*
X23841422Y17890000D02*
X24358578Y17890000D01*
X23841422Y33310000D02*
X24358578Y33310000D01*
X23841422Y31890000D02*
X24358578Y31890000D01*
X23841422Y47310000D02*
X24358578Y47310000D01*
X23841422Y45890000D02*
X24358578Y45890000D01*
X23841422Y61310000D02*
X24358578Y61310000D01*
X23841422Y59890000D02*
X24358578Y59890000D01*
X14215000Y20485000D02*
X14215000Y18200000D01*
X15685000Y20485000D02*
X14215000Y20485000D01*
X15685000Y18200000D02*
X15685000Y20485000D01*
X14215000Y34485000D02*
X14215000Y32200000D01*
X15685000Y34485000D02*
X14215000Y34485000D01*
X15685000Y32200000D02*
X15685000Y34485000D01*
X14215000Y48485000D02*
X14215000Y46200000D01*
X15685000Y48485000D02*
X14215000Y48485000D01*
X15685000Y46200000D02*
X15685000Y48485000D01*
X14215000Y62485000D02*
X14215000Y60200000D01*
X15685000Y62485000D02*
X14215000Y62485000D01*
X15685000Y60200000D02*
X15685000Y62485000D01*
X7458578Y7690000D02*
X6941422Y7690000D01*
X7458578Y9110000D02*
X6941422Y9110000D01*
X7458578Y21690000D02*
X6941422Y21690000D01*
X7458578Y23110000D02*
X6941422Y23110000D01*
X7458578Y35690000D02*
X6941422Y35690000D01*
X7458578Y37110000D02*
X6941422Y37110000D01*
X7458578Y49690000D02*
X6941422Y49690000D01*
X7458578Y51110000D02*
X6941422Y51110000D01*
X31258578Y17890000D02*
X30741422Y17890000D01*
X31258578Y19310000D02*
X30741422Y19310000D01*
X31258578Y31890000D02*
X30741422Y31890000D01*
X31258578Y33310000D02*
X30741422Y33310000D01*
X31258578Y45890000D02*
X30741422Y45890000D01*
X31258578Y47310000D02*
X30741422Y47310000D01*
X31258578Y59890000D02*
X30741422Y59890000D01*
X31258578Y61310000D02*
X30741422Y61310000D01*
X69250000Y7855000D02*
X70300000Y7855000D01*
X69250000Y20145000D02*
X70300000Y20145000D01*
X66080000Y18400000D02*
X66080000Y9600000D01*
X69250000Y21855000D02*
X70300000Y21855000D01*
X69250000Y34145000D02*
X70300000Y34145000D01*
X66080000Y32400000D02*
X66080000Y23600000D01*
X69250000Y35855000D02*
X70300000Y35855000D01*
X69250000Y48145000D02*
X70300000Y48145000D01*
X66080000Y46400000D02*
X66080000Y37600000D01*
X69250000Y49855000D02*
X70300000Y49855000D01*
X69250000Y62145000D02*
X70300000Y62145000D01*
X66080000Y60400000D02*
X66080000Y51600000D01*
X46700000Y20300000D02*
X48100000Y20300000D01*
X48800000Y19600000D02*
X48800000Y19000000D01*
X48100000Y18300000D02*
X46700000Y18300000D01*
X46000000Y19000000D02*
X46000000Y19600000D01*
X46000000Y19600000D02*
G75*
G02*
X46700000Y20300000I700000J0D01*
G01*
X46700000Y18300000D02*
G75*
G02*
X46000000Y19000000I0J700000D01*
G01*
X48800000Y19000000D02*
G75*
G02*
X48100000Y18300000I-700000J0D01*
G01*
X48100000Y20300000D02*
G75*
G02*
X48800000Y19600000I0J-700000D01*
G01*
X46700000Y34300000D02*
X48100000Y34300000D01*
X48800000Y33600000D02*
X48800000Y33000000D01*
X48100000Y32300000D02*
X46700000Y32300000D01*
X46000000Y33000000D02*
X46000000Y33600000D01*
X46000000Y33600000D02*
G75*
G02*
X46700000Y34300000I700000J0D01*
G01*
X46700000Y32300000D02*
G75*
G02*
X46000000Y33000000I0J700000D01*
G01*
X48800000Y33000000D02*
G75*
G02*
X48100000Y32300000I-700000J0D01*
G01*
X48100000Y34300000D02*
G75*
G02*
X48800000Y33600000I0J-700000D01*
G01*
X46700000Y48300000D02*
X48100000Y48300000D01*
X48800000Y47600000D02*
X48800000Y47000000D01*
X48100000Y46300000D02*
X46700000Y46300000D01*
X46000000Y47000000D02*
X46000000Y47600000D01*
X46000000Y47600000D02*
G75*
G02*
X46700000Y48300000I700000J0D01*
G01*
X46700000Y46300000D02*
G75*
G02*
X46000000Y47000000I0J700000D01*
G01*
X48800000Y47000000D02*
G75*
G02*
X48100000Y46300000I-700000J0D01*
G01*
X48100000Y48300000D02*
G75*
G02*
X48800000Y47600000I0J-700000D01*
G01*
X46700000Y62300000D02*
X48100000Y62300000D01*
X48800000Y61600000D02*
X48800000Y61000000D01*
X48100000Y60300000D02*
X46700000Y60300000D01*
X46000000Y61000000D02*
X46000000Y61600000D01*
X46000000Y61600000D02*
G75*
G02*
X46700000Y62300000I700000J0D01*
G01*
X46700000Y60300000D02*
G75*
G02*
X46000000Y61000000I0J700000D01*
G01*
X48800000Y61000000D02*
G75*
G02*
X48100000Y60300000I-700000J0D01*
G01*
X48100000Y62300000D02*
G75*
G02*
X48800000Y61600000I0J-700000D01*
G01*
X40330000Y11370000D02*
X39000000Y11370000D01*
X40330000Y12700000D02*
X40330000Y11370000D01*
X40330000Y13970000D02*
X37670000Y13970000D01*
X37670000Y13970000D02*
X37670000Y16570000D01*
X40330000Y13970000D02*
X40330000Y16570000D01*
X40330000Y16570000D02*
X37670000Y16570000D01*
X40330000Y25370000D02*
X39000000Y25370000D01*
X40330000Y26700000D02*
X40330000Y25370000D01*
X40330000Y27970000D02*
X37670000Y27970000D01*
X37670000Y27970000D02*
X37670000Y30570000D01*
X40330000Y27970000D02*
X40330000Y30570000D01*
X40330000Y30570000D02*
X37670000Y30570000D01*
X40330000Y39370000D02*
X39000000Y39370000D01*
X40330000Y40700000D02*
X40330000Y39370000D01*
X40330000Y41970000D02*
X37670000Y41970000D01*
X37670000Y41970000D02*
X37670000Y44570000D01*
X40330000Y41970000D02*
X40330000Y44570000D01*
X40330000Y44570000D02*
X37670000Y44570000D01*
X40330000Y53370000D02*
X39000000Y53370000D01*
X40330000Y54700000D02*
X40330000Y53370000D01*
X40330000Y55970000D02*
X37670000Y55970000D01*
X37670000Y55970000D02*
X37670000Y58570000D01*
X40330000Y55970000D02*
X40330000Y58570000D01*
X40330000Y58570000D02*
X37670000Y58570000D01*
X46158578Y10110000D02*
X45641422Y10110000D01*
X46158578Y8690000D02*
X45641422Y8690000D01*
X46158578Y24110000D02*
X45641422Y24110000D01*
X46158578Y22690000D02*
X45641422Y22690000D01*
X46158578Y38110000D02*
X45641422Y38110000D01*
X46158578Y36690000D02*
X45641422Y36690000D01*
X46158578Y52110000D02*
X45641422Y52110000D01*
X46158578Y50690000D02*
X45641422Y50690000D01*
X54315000Y9800000D02*
X54315000Y7515000D01*
X54315000Y7515000D02*
X55785000Y7515000D01*
X55785000Y7515000D02*
X55785000Y9800000D01*
X54315000Y23800000D02*
X54315000Y21515000D01*
X54315000Y21515000D02*
X55785000Y21515000D01*
X55785000Y21515000D02*
X55785000Y23800000D01*
X54315000Y37800000D02*
X54315000Y35515000D01*
X54315000Y35515000D02*
X55785000Y35515000D01*
X55785000Y35515000D02*
X55785000Y37800000D01*
X54315000Y51800000D02*
X54315000Y49515000D01*
X54315000Y49515000D02*
X55785000Y49515000D01*
X55785000Y49515000D02*
X55785000Y51800000D01*
X62541422Y18890000D02*
X63058578Y18890000D01*
X62541422Y20310000D02*
X63058578Y20310000D01*
X62541422Y32890000D02*
X63058578Y32890000D01*
X62541422Y34310000D02*
X63058578Y34310000D01*
X62541422Y46890000D02*
X63058578Y46890000D01*
X62541422Y48310000D02*
X63058578Y48310000D01*
X62541422Y60890000D02*
X63058578Y60890000D01*
X62541422Y62310000D02*
X63058578Y62310000D01*
X38741422Y8690000D02*
X39258578Y8690000D01*
X38741422Y10110000D02*
X39258578Y10110000D01*
X38741422Y22690000D02*
X39258578Y22690000D01*
X38741422Y24110000D02*
X39258578Y24110000D01*
X38741422Y36690000D02*
X39258578Y36690000D01*
X38741422Y38110000D02*
X39258578Y38110000D01*
X38741422Y50690000D02*
X39258578Y50690000D01*
X38741422Y52110000D02*
X39258578Y52110000D01*
X58990000Y12660000D02*
X58990000Y10860000D01*
X62210000Y10860000D02*
X62210000Y13310000D01*
X58990000Y26660000D02*
X58990000Y24860000D01*
X62210000Y24860000D02*
X62210000Y27310000D01*
X58990000Y40660000D02*
X58990000Y38860000D01*
X62210000Y38860000D02*
X62210000Y41310000D01*
X58990000Y54660000D02*
X58990000Y52860000D01*
X62210000Y52860000D02*
X62210000Y55310000D01*
X52360000Y8837221D02*
X52360000Y9162779D01*
X51340000Y8837221D02*
X51340000Y9162779D01*
X52360000Y22837221D02*
X52360000Y23162779D01*
X51340000Y22837221D02*
X51340000Y23162779D01*
X52360000Y36837221D02*
X52360000Y37162779D01*
X51340000Y36837221D02*
X51340000Y37162779D01*
X52360000Y50837221D02*
X52360000Y51162779D01*
X51340000Y50837221D02*
X51340000Y51162779D01*
D12*
X50475000Y10650000D02*
X54925000Y10650000D01*
X48950000Y17550000D02*
X54925000Y17550000D01*
X50475000Y24650000D02*
X54925000Y24650000D01*
X48950000Y31550000D02*
X54925000Y31550000D01*
X50475000Y38650000D02*
X54925000Y38650000D01*
X48950000Y45550000D02*
X54925000Y45550000D01*
X50475000Y52650000D02*
X54925000Y52650000D01*
X48950000Y59550000D02*
X54925000Y59550000D01*
D11*
X44590000Y12775279D02*
X44590000Y12449721D01*
X45610000Y12775279D02*
X45610000Y12449721D01*
X44590000Y26775279D02*
X44590000Y26449721D01*
X45610000Y26775279D02*
X45610000Y26449721D01*
X44590000Y40775279D02*
X44590000Y40449721D01*
X45610000Y40775279D02*
X45610000Y40449721D01*
X44590000Y54775279D02*
X44590000Y54449721D01*
X45610000Y54775279D02*
X45610000Y54449721D01*
X47362779Y17510000D02*
X47037221Y17510000D01*
X47362779Y16490000D02*
X47037221Y16490000D01*
X47362779Y31510000D02*
X47037221Y31510000D01*
X47362779Y30490000D02*
X47037221Y30490000D01*
X47362779Y45510000D02*
X47037221Y45510000D01*
X47362779Y44490000D02*
X47037221Y44490000D01*
X47362779Y59510000D02*
X47037221Y59510000D01*
X47362779Y58490000D02*
X47037221Y58490000D01*
X58010000Y13162779D02*
X58010000Y12837221D01*
X56990000Y13162779D02*
X56990000Y12837221D01*
X58010000Y27162779D02*
X58010000Y26837221D01*
X56990000Y27162779D02*
X56990000Y26837221D01*
X58010000Y41162779D02*
X58010000Y40837221D01*
X56990000Y41162779D02*
X56990000Y40837221D01*
X58010000Y55162779D02*
X58010000Y54837221D01*
X56990000Y55162779D02*
X56990000Y54837221D01*
X56260000Y20310000D02*
X56260000Y19200000D01*
X55500000Y20310000D02*
X56260000Y20310000D01*
X54740000Y18636529D02*
X54740000Y18090000D01*
X54740000Y20310000D02*
X54740000Y19763471D01*
X54740000Y18090000D02*
X49725000Y18090000D01*
X54740000Y20310000D02*
X49725000Y20310000D01*
X49725000Y18892470D02*
X49725000Y18090000D01*
X49725000Y20310000D02*
X49725000Y19507530D01*
X56260000Y34310000D02*
X56260000Y33200000D01*
X55500000Y34310000D02*
X56260000Y34310000D01*
X54740000Y32636529D02*
X54740000Y32090000D01*
X54740000Y34310000D02*
X54740000Y33763471D01*
X54740000Y32090000D02*
X49725000Y32090000D01*
X54740000Y34310000D02*
X49725000Y34310000D01*
X49725000Y32892470D02*
X49725000Y32090000D01*
X49725000Y34310000D02*
X49725000Y33507530D01*
X56260000Y48310000D02*
X56260000Y47200000D01*
X55500000Y48310000D02*
X56260000Y48310000D01*
X54740000Y46636529D02*
X54740000Y46090000D01*
X54740000Y48310000D02*
X54740000Y47763471D01*
X54740000Y46090000D02*
X49725000Y46090000D01*
X54740000Y48310000D02*
X49725000Y48310000D01*
X49725000Y46892470D02*
X49725000Y46090000D01*
X49725000Y48310000D02*
X49725000Y47507530D01*
X56260000Y62310000D02*
X56260000Y61200000D01*
X55500000Y62310000D02*
X56260000Y62310000D01*
X54740000Y60636529D02*
X54740000Y60090000D01*
X54740000Y62310000D02*
X54740000Y61763471D01*
X54740000Y60090000D02*
X49725000Y60090000D01*
X54740000Y62310000D02*
X49725000Y62310000D01*
X49725000Y60892470D02*
X49725000Y60090000D01*
X49725000Y62310000D02*
X49725000Y61507530D01*
X38741422Y17890000D02*
X39258578Y17890000D01*
X38741422Y19310000D02*
X39258578Y19310000D01*
X38741422Y31890000D02*
X39258578Y31890000D01*
X38741422Y33310000D02*
X39258578Y33310000D01*
X38741422Y45890000D02*
X39258578Y45890000D01*
X38741422Y47310000D02*
X39258578Y47310000D01*
X38741422Y59890000D02*
X39258578Y59890000D01*
X38741422Y61310000D02*
X39258578Y61310000D01*
X47490000Y13875279D02*
X47490000Y13549721D01*
X48510000Y13875279D02*
X48510000Y13549721D01*
X47490000Y27875279D02*
X47490000Y27549721D01*
X48510000Y27875279D02*
X48510000Y27549721D01*
X47490000Y41875279D02*
X47490000Y41549721D01*
X48510000Y41875279D02*
X48510000Y41549721D01*
X47490000Y55875279D02*
X47490000Y55549721D01*
X48510000Y55875279D02*
X48510000Y55549721D01*
X59137221Y16610000D02*
X59462779Y16610000D01*
X59137221Y15590000D02*
X59462779Y15590000D01*
X59137221Y30610000D02*
X59462779Y30610000D01*
X59137221Y29590000D02*
X59462779Y29590000D01*
X59137221Y44610000D02*
X59462779Y44610000D01*
X59137221Y43590000D02*
X59462779Y43590000D01*
X59137221Y58610000D02*
X59462779Y58610000D01*
X59137221Y57590000D02*
X59462779Y57590000D01*
X41800000Y8400000D02*
G75*
G02*
X41100000Y9100000I0J700000D01*
G01*
X41100000Y9700000D02*
G75*
G02*
X41800000Y10400000I700000J0D01*
G01*
X43200000Y10400000D02*
G75*
G02*
X43900000Y9700000I0J-700000D01*
G01*
X43900000Y9100000D02*
G75*
G02*
X43200000Y8400000I-700000J0D01*
G01*
X43900000Y9700000D02*
X43900000Y9100000D01*
X41800000Y10400000D02*
X43200000Y10400000D01*
X41100000Y9100000D02*
X41100000Y9700000D01*
X43200000Y8400000D02*
X41800000Y8400000D01*
X41800000Y22400000D02*
G75*
G02*
X41100000Y23100000I0J700000D01*
G01*
X41100000Y23700000D02*
G75*
G02*
X41800000Y24400000I700000J0D01*
G01*
X43200000Y24400000D02*
G75*
G02*
X43900000Y23700000I0J-700000D01*
G01*
X43900000Y23100000D02*
G75*
G02*
X43200000Y22400000I-700000J0D01*
G01*
X43900000Y23700000D02*
X43900000Y23100000D01*
X41800000Y24400000D02*
X43200000Y24400000D01*
X41100000Y23100000D02*
X41100000Y23700000D01*
X43200000Y22400000D02*
X41800000Y22400000D01*
X41800000Y36400000D02*
G75*
G02*
X41100000Y37100000I0J700000D01*
G01*
X41100000Y37700000D02*
G75*
G02*
X41800000Y38400000I700000J0D01*
G01*
X43200000Y38400000D02*
G75*
G02*
X43900000Y37700000I0J-700000D01*
G01*
X43900000Y37100000D02*
G75*
G02*
X43200000Y36400000I-700000J0D01*
G01*
X43900000Y37700000D02*
X43900000Y37100000D01*
X41800000Y38400000D02*
X43200000Y38400000D01*
X41100000Y37100000D02*
X41100000Y37700000D01*
X43200000Y36400000D02*
X41800000Y36400000D01*
X41800000Y50400000D02*
G75*
G02*
X41100000Y51100000I0J700000D01*
G01*
X41100000Y51700000D02*
G75*
G02*
X41800000Y52400000I700000J0D01*
G01*
X43200000Y52400000D02*
G75*
G02*
X43900000Y51700000I0J-700000D01*
G01*
X43900000Y51100000D02*
G75*
G02*
X43200000Y50400000I-700000J0D01*
G01*
X43900000Y51700000D02*
X43900000Y51100000D01*
X41800000Y52400000D02*
X43200000Y52400000D01*
X41100000Y51100000D02*
X41100000Y51700000D01*
X43200000Y50400000D02*
X41800000Y50400000D01*
X41020000Y15140000D02*
X41950000Y15140000D01*
X44180000Y15140000D02*
X43250000Y15140000D01*
X44180000Y15140000D02*
X44180000Y17300000D01*
X41020000Y15140000D02*
X41020000Y16600000D01*
X41020000Y29140000D02*
X41950000Y29140000D01*
X44180000Y29140000D02*
X43250000Y29140000D01*
X44180000Y29140000D02*
X44180000Y31300000D01*
X41020000Y29140000D02*
X41020000Y30600000D01*
X41020000Y43140000D02*
X41950000Y43140000D01*
X44180000Y43140000D02*
X43250000Y43140000D01*
X44180000Y43140000D02*
X44180000Y45300000D01*
X41020000Y43140000D02*
X41020000Y44600000D01*
X41020000Y57140000D02*
X41950000Y57140000D01*
X44180000Y57140000D02*
X43250000Y57140000D01*
X44180000Y57140000D02*
X44180000Y59300000D01*
X41020000Y57140000D02*
X41020000Y58600000D01*
X58310000Y17030000D02*
X60760000Y17030000D01*
X60110000Y20250000D02*
X58310000Y20250000D01*
X58310000Y31030000D02*
X60760000Y31030000D01*
X60110000Y34250000D02*
X58310000Y34250000D01*
X58310000Y45030000D02*
X60760000Y45030000D01*
X60110000Y48250000D02*
X58310000Y48250000D01*
X58310000Y59030000D02*
X60760000Y59030000D01*
X60110000Y62250000D02*
X58310000Y62250000D01*
X61390000Y17062779D02*
X61390000Y16737221D01*
X62410000Y17062779D02*
X62410000Y16737221D01*
X61390000Y31062779D02*
X61390000Y30737221D01*
X62410000Y31062779D02*
X62410000Y30737221D01*
X61390000Y45062779D02*
X61390000Y44737221D01*
X62410000Y45062779D02*
X62410000Y44737221D01*
X61390000Y59062779D02*
X61390000Y58737221D01*
X62410000Y59062779D02*
X62410000Y58737221D01*
X41020000Y11640000D02*
X41950000Y11640000D01*
X44180000Y11640000D02*
X43250000Y11640000D01*
X44180000Y11640000D02*
X44180000Y13800000D01*
X41020000Y11640000D02*
X41020000Y13100000D01*
X41020000Y25640000D02*
X41950000Y25640000D01*
X44180000Y25640000D02*
X43250000Y25640000D01*
X44180000Y25640000D02*
X44180000Y27800000D01*
X41020000Y25640000D02*
X41020000Y27100000D01*
X41020000Y39640000D02*
X41950000Y39640000D01*
X44180000Y39640000D02*
X43250000Y39640000D01*
X44180000Y39640000D02*
X44180000Y41800000D01*
X41020000Y39640000D02*
X41020000Y41100000D01*
X41020000Y53640000D02*
X41950000Y53640000D01*
X44180000Y53640000D02*
X43250000Y53640000D01*
X44180000Y53640000D02*
X44180000Y55800000D01*
X41020000Y53640000D02*
X41020000Y55100000D01*
X49615000Y9800000D02*
X49615000Y7515000D01*
X49615000Y7515000D02*
X51085000Y7515000D01*
X51085000Y7515000D02*
X51085000Y9800000D01*
X49615000Y23800000D02*
X49615000Y21515000D01*
X49615000Y21515000D02*
X51085000Y21515000D01*
X51085000Y21515000D02*
X51085000Y23800000D01*
X49615000Y37800000D02*
X49615000Y35515000D01*
X49615000Y35515000D02*
X51085000Y35515000D01*
X51085000Y35515000D02*
X51085000Y37800000D01*
X49615000Y51800000D02*
X49615000Y49515000D01*
X49615000Y49515000D02*
X51085000Y49515000D01*
X51085000Y49515000D02*
X51085000Y51800000D01*
X54060000Y8837221D02*
X54060000Y9162779D01*
X53040000Y8837221D02*
X53040000Y9162779D01*
X54060000Y22837221D02*
X54060000Y23162779D01*
X53040000Y22837221D02*
X53040000Y23162779D01*
X54060000Y36837221D02*
X54060000Y37162779D01*
X53040000Y36837221D02*
X53040000Y37162779D01*
X54060000Y50837221D02*
X54060000Y51162779D01*
X53040000Y50837221D02*
X53040000Y51162779D01*
X7790000Y17140000D02*
X7790000Y14690000D01*
X11010000Y15340000D02*
X11010000Y17140000D01*
X7790000Y31140000D02*
X7790000Y28690000D01*
X11010000Y29340000D02*
X11010000Y31140000D01*
X7790000Y45140000D02*
X7790000Y42690000D01*
X11010000Y43340000D02*
X11010000Y45140000D01*
X7790000Y59140000D02*
X7790000Y56690000D01*
X11010000Y57340000D02*
X11010000Y59140000D01*
X18660000Y19162779D02*
X18660000Y18837221D01*
X17640000Y19162779D02*
X17640000Y18837221D01*
X18660000Y33162779D02*
X18660000Y32837221D01*
X17640000Y33162779D02*
X17640000Y32837221D01*
X18660000Y47162779D02*
X18660000Y46837221D01*
X17640000Y47162779D02*
X17640000Y46837221D01*
X18660000Y61162779D02*
X18660000Y60837221D01*
X17640000Y61162779D02*
X17640000Y60837221D01*
D12*
X21050000Y10450000D02*
X15075000Y10450000D01*
X19525000Y17350000D02*
X15075000Y17350000D01*
X21050000Y24450000D02*
X15075000Y24450000D01*
X19525000Y31350000D02*
X15075000Y31350000D01*
X21050000Y38450000D02*
X15075000Y38450000D01*
X19525000Y45350000D02*
X15075000Y45350000D01*
X21050000Y52450000D02*
X15075000Y52450000D01*
X19525000Y59350000D02*
X15075000Y59350000D01*
D11*
X24390000Y15224721D02*
X24390000Y15550279D01*
X25410000Y15224721D02*
X25410000Y15550279D01*
X24390000Y29224721D02*
X24390000Y29550279D01*
X25410000Y29224721D02*
X25410000Y29550279D01*
X24390000Y43224721D02*
X24390000Y43550279D01*
X25410000Y43224721D02*
X25410000Y43550279D01*
X24390000Y57224721D02*
X24390000Y57550279D01*
X25410000Y57224721D02*
X25410000Y57550279D01*
X22637221Y11510000D02*
X22962779Y11510000D01*
X22637221Y10490000D02*
X22962779Y10490000D01*
X22637221Y25510000D02*
X22962779Y25510000D01*
X22637221Y24490000D02*
X22962779Y24490000D01*
X22637221Y39510000D02*
X22962779Y39510000D01*
X22637221Y38490000D02*
X22962779Y38490000D01*
X22637221Y53510000D02*
X22962779Y53510000D01*
X22637221Y52490000D02*
X22962779Y52490000D01*
X13010000Y14837221D02*
X13010000Y15162779D01*
X11990000Y14837221D02*
X11990000Y15162779D01*
X13010000Y28837221D02*
X13010000Y29162779D01*
X11990000Y28837221D02*
X11990000Y29162779D01*
X13010000Y42837221D02*
X13010000Y43162779D01*
X11990000Y42837221D02*
X11990000Y43162779D01*
X13010000Y56837221D02*
X13010000Y57162779D01*
X11990000Y56837221D02*
X11990000Y57162779D01*
X20275000Y7690000D02*
X20275000Y8492470D01*
X20275000Y9107530D02*
X20275000Y9910000D01*
X15260000Y7690000D02*
X20275000Y7690000D01*
X15260000Y9910000D02*
X20275000Y9910000D01*
X15260000Y7690000D02*
X15260000Y8236529D01*
X15260000Y9363471D02*
X15260000Y9910000D01*
X14500000Y7690000D02*
X13740000Y7690000D01*
X13740000Y7690000D02*
X13740000Y8800000D01*
X20275000Y21690000D02*
X20275000Y22492470D01*
X20275000Y23107530D02*
X20275000Y23910000D01*
X15260000Y21690000D02*
X20275000Y21690000D01*
X15260000Y23910000D02*
X20275000Y23910000D01*
X15260000Y21690000D02*
X15260000Y22236529D01*
X15260000Y23363471D02*
X15260000Y23910000D01*
X14500000Y21690000D02*
X13740000Y21690000D01*
X13740000Y21690000D02*
X13740000Y22800000D01*
X20275000Y35690000D02*
X20275000Y36492470D01*
X20275000Y37107530D02*
X20275000Y37910000D01*
X15260000Y35690000D02*
X20275000Y35690000D01*
X15260000Y37910000D02*
X20275000Y37910000D01*
X15260000Y35690000D02*
X15260000Y36236529D01*
X15260000Y37363471D02*
X15260000Y37910000D01*
X14500000Y35690000D02*
X13740000Y35690000D01*
X13740000Y35690000D02*
X13740000Y36800000D01*
X20275000Y49690000D02*
X20275000Y50492470D01*
X20275000Y51107530D02*
X20275000Y51910000D01*
X15260000Y49690000D02*
X20275000Y49690000D01*
X15260000Y51910000D02*
X20275000Y51910000D01*
X15260000Y49690000D02*
X15260000Y50236529D01*
X15260000Y51363471D02*
X15260000Y51910000D01*
X14500000Y49690000D02*
X13740000Y49690000D01*
X13740000Y49690000D02*
X13740000Y50800000D01*
X31258578Y8690000D02*
X30741422Y8690000D01*
X31258578Y10110000D02*
X30741422Y10110000D01*
X31258578Y22690000D02*
X30741422Y22690000D01*
X31258578Y24110000D02*
X30741422Y24110000D01*
X31258578Y36690000D02*
X30741422Y36690000D01*
X31258578Y38110000D02*
X30741422Y38110000D01*
X31258578Y50690000D02*
X30741422Y50690000D01*
X31258578Y52110000D02*
X30741422Y52110000D01*
X21490000Y14124721D02*
X21490000Y14450279D01*
X22510000Y14124721D02*
X22510000Y14450279D01*
X21490000Y28124721D02*
X21490000Y28450279D01*
X22510000Y28124721D02*
X22510000Y28450279D01*
X21490000Y42124721D02*
X21490000Y42450279D01*
X22510000Y42124721D02*
X22510000Y42450279D01*
X21490000Y56124721D02*
X21490000Y56450279D01*
X22510000Y56124721D02*
X22510000Y56450279D01*
X10862779Y12410000D02*
X10537221Y12410000D01*
X10862779Y11390000D02*
X10537221Y11390000D01*
X10862779Y26410000D02*
X10537221Y26410000D01*
X10862779Y25390000D02*
X10537221Y25390000D01*
X10862779Y40410000D02*
X10537221Y40410000D01*
X10862779Y39390000D02*
X10537221Y39390000D01*
X10862779Y54410000D02*
X10537221Y54410000D01*
X10862779Y53390000D02*
X10537221Y53390000D01*
X26800000Y19600000D02*
X28200000Y19600000D01*
X28900000Y18900000D02*
X28900000Y18300000D01*
X28200000Y17600000D02*
X26800000Y17600000D01*
X26100000Y18300000D02*
X26100000Y18900000D01*
X26100000Y18900000D02*
G75*
G02*
X26800000Y19600000I700000J0D01*
G01*
X26800000Y17600000D02*
G75*
G02*
X26100000Y18300000I0J700000D01*
G01*
X28900000Y18300000D02*
G75*
G02*
X28200000Y17600000I-700000J0D01*
G01*
X28200000Y19600000D02*
G75*
G02*
X28900000Y18900000I0J-700000D01*
G01*
X26800000Y33600000D02*
X28200000Y33600000D01*
X28900000Y32900000D02*
X28900000Y32300000D01*
X28200000Y31600000D02*
X26800000Y31600000D01*
X26100000Y32300000D02*
X26100000Y32900000D01*
X26100000Y32900000D02*
G75*
G02*
X26800000Y33600000I700000J0D01*
G01*
X26800000Y31600000D02*
G75*
G02*
X26100000Y32300000I0J700000D01*
G01*
X28900000Y32300000D02*
G75*
G02*
X28200000Y31600000I-700000J0D01*
G01*
X28200000Y33600000D02*
G75*
G02*
X28900000Y32900000I0J-700000D01*
G01*
X26800000Y47600000D02*
X28200000Y47600000D01*
X28900000Y46900000D02*
X28900000Y46300000D01*
X28200000Y45600000D02*
X26800000Y45600000D01*
X26100000Y46300000D02*
X26100000Y46900000D01*
X26100000Y46900000D02*
G75*
G02*
X26800000Y47600000I700000J0D01*
G01*
X26800000Y45600000D02*
G75*
G02*
X26100000Y46300000I0J700000D01*
G01*
X28900000Y46300000D02*
G75*
G02*
X28200000Y45600000I-700000J0D01*
G01*
X28200000Y47600000D02*
G75*
G02*
X28900000Y46900000I0J-700000D01*
G01*
X26800000Y61600000D02*
X28200000Y61600000D01*
X28900000Y60900000D02*
X28900000Y60300000D01*
X28200000Y59600000D02*
X26800000Y59600000D01*
X26100000Y60300000D02*
X26100000Y60900000D01*
X26100000Y60900000D02*
G75*
G02*
X26800000Y61600000I700000J0D01*
G01*
X26800000Y59600000D02*
G75*
G02*
X26100000Y60300000I0J700000D01*
G01*
X28900000Y60300000D02*
G75*
G02*
X28200000Y59600000I-700000J0D01*
G01*
X28200000Y61600000D02*
G75*
G02*
X28900000Y60900000I0J-700000D01*
G01*
X28980000Y12860000D02*
X28980000Y11400000D01*
X25820000Y12860000D02*
X25820000Y10700000D01*
X25820000Y12860000D02*
X26750000Y12860000D01*
X28980000Y12860000D02*
X28050000Y12860000D01*
X28980000Y26860000D02*
X28980000Y25400000D01*
X25820000Y26860000D02*
X25820000Y24700000D01*
X25820000Y26860000D02*
X26750000Y26860000D01*
X28980000Y26860000D02*
X28050000Y26860000D01*
X28980000Y40860000D02*
X28980000Y39400000D01*
X25820000Y40860000D02*
X25820000Y38700000D01*
X25820000Y40860000D02*
X26750000Y40860000D01*
X28980000Y40860000D02*
X28050000Y40860000D01*
X28980000Y54860000D02*
X28980000Y53400000D01*
X25820000Y54860000D02*
X25820000Y52700000D01*
X25820000Y54860000D02*
X26750000Y54860000D01*
X28980000Y54860000D02*
X28050000Y54860000D01*
X9890000Y7750000D02*
X11690000Y7750000D01*
X11690000Y10970000D02*
X9240000Y10970000D01*
X9890000Y21750000D02*
X11690000Y21750000D01*
X11690000Y24970000D02*
X9240000Y24970000D01*
X9890000Y35750000D02*
X11690000Y35750000D01*
X11690000Y38970000D02*
X9240000Y38970000D01*
X9890000Y49750000D02*
X11690000Y49750000D01*
X11690000Y52970000D02*
X9240000Y52970000D01*
X7590000Y10937221D02*
X7590000Y11262779D01*
X8610000Y10937221D02*
X8610000Y11262779D01*
X7590000Y24937221D02*
X7590000Y25262779D01*
X8610000Y24937221D02*
X8610000Y25262779D01*
X7590000Y38937221D02*
X7590000Y39262779D01*
X8610000Y38937221D02*
X8610000Y39262779D01*
X7590000Y52937221D02*
X7590000Y53262779D01*
X8610000Y52937221D02*
X8610000Y53262779D01*
X28980000Y16360000D02*
X28980000Y14900000D01*
X25820000Y16360000D02*
X25820000Y14200000D01*
X25820000Y16360000D02*
X26750000Y16360000D01*
X28980000Y16360000D02*
X28050000Y16360000D01*
X28980000Y30360000D02*
X28980000Y28900000D01*
X25820000Y30360000D02*
X25820000Y28200000D01*
X25820000Y30360000D02*
X26750000Y30360000D01*
X28980000Y30360000D02*
X28050000Y30360000D01*
X28980000Y44360000D02*
X28980000Y42900000D01*
X25820000Y44360000D02*
X25820000Y42200000D01*
X25820000Y44360000D02*
X26750000Y44360000D01*
X28980000Y44360000D02*
X28050000Y44360000D01*
X28980000Y58360000D02*
X28980000Y56900000D01*
X25820000Y58360000D02*
X25820000Y56200000D01*
X25820000Y58360000D02*
X26750000Y58360000D01*
X28980000Y58360000D02*
X28050000Y58360000D01*
X18915000Y20485000D02*
X18915000Y18200000D01*
X20385000Y20485000D02*
X18915000Y20485000D01*
X20385000Y18200000D02*
X20385000Y20485000D01*
X18915000Y34485000D02*
X18915000Y32200000D01*
X20385000Y34485000D02*
X18915000Y34485000D01*
X20385000Y32200000D02*
X20385000Y34485000D01*
X18915000Y48485000D02*
X18915000Y46200000D01*
X20385000Y48485000D02*
X18915000Y48485000D01*
X20385000Y46200000D02*
X20385000Y48485000D01*
X18915000Y62485000D02*
X18915000Y60200000D01*
X20385000Y62485000D02*
X18915000Y62485000D01*
X20385000Y60200000D02*
X20385000Y62485000D01*
X16960000Y19162779D02*
X16960000Y18837221D01*
X15940000Y19162779D02*
X15940000Y18837221D01*
X16960000Y33162779D02*
X16960000Y32837221D01*
X15940000Y33162779D02*
X15940000Y32837221D01*
X16960000Y47162779D02*
X16960000Y46837221D01*
X15940000Y47162779D02*
X15940000Y46837221D01*
X16960000Y61162779D02*
X16960000Y60837221D01*
X15940000Y61162779D02*
X15940000Y60837221D01*
X66080000Y74400000D02*
X66080000Y65600000D01*
X69250000Y76145000D02*
X70300000Y76145000D01*
X69250000Y63855000D02*
X70300000Y63855000D01*
X48100000Y76300000D02*
G75*
G02*
X48800000Y75600000I0J-700000D01*
G01*
X48800000Y75000000D02*
G75*
G02*
X48100000Y74300000I-700000J0D01*
G01*
X46700000Y74300000D02*
G75*
G02*
X46000000Y75000000I0J700000D01*
G01*
X46000000Y75600000D02*
G75*
G02*
X46700000Y76300000I700000J0D01*
G01*
X46000000Y75000000D02*
X46000000Y75600000D01*
X48100000Y74300000D02*
X46700000Y74300000D01*
X48800000Y75600000D02*
X48800000Y75000000D01*
X46700000Y76300000D02*
X48100000Y76300000D01*
X40330000Y72570000D02*
X37670000Y72570000D01*
X40330000Y69970000D02*
X40330000Y72570000D01*
X37670000Y69970000D02*
X37670000Y72570000D01*
X40330000Y69970000D02*
X37670000Y69970000D01*
X40330000Y68700000D02*
X40330000Y67370000D01*
X40330000Y67370000D02*
X39000000Y67370000D01*
X46158578Y64690000D02*
X45641422Y64690000D01*
X46158578Y66110000D02*
X45641422Y66110000D01*
X55785000Y63515000D02*
X55785000Y65800000D01*
X54315000Y63515000D02*
X55785000Y63515000D01*
X54315000Y65800000D02*
X54315000Y63515000D01*
X62541422Y76310000D02*
X63058578Y76310000D01*
X62541422Y74890000D02*
X63058578Y74890000D01*
X38741422Y66110000D02*
X39258578Y66110000D01*
X38741422Y64690000D02*
X39258578Y64690000D01*
X62210000Y66860000D02*
X62210000Y69310000D01*
X58990000Y68660000D02*
X58990000Y66860000D01*
X51340000Y64837221D02*
X51340000Y65162779D01*
X52360000Y64837221D02*
X52360000Y65162779D01*
D12*
X48950000Y73550000D02*
X54925000Y73550000D01*
X50475000Y66650000D02*
X54925000Y66650000D01*
D11*
X45610000Y68775279D02*
X45610000Y68449721D01*
X44590000Y68775279D02*
X44590000Y68449721D01*
X47362779Y72490000D02*
X47037221Y72490000D01*
X47362779Y73510000D02*
X47037221Y73510000D01*
X56990000Y69162779D02*
X56990000Y68837221D01*
X58010000Y69162779D02*
X58010000Y68837221D01*
X49725000Y76310000D02*
X49725000Y75507530D01*
X49725000Y74892470D02*
X49725000Y74090000D01*
X54740000Y76310000D02*
X49725000Y76310000D01*
X54740000Y74090000D02*
X49725000Y74090000D01*
X54740000Y76310000D02*
X54740000Y75763471D01*
X54740000Y74636529D02*
X54740000Y74090000D01*
X55500000Y76310000D02*
X56260000Y76310000D01*
X56260000Y76310000D02*
X56260000Y75200000D01*
X38741422Y75310000D02*
X39258578Y75310000D01*
X38741422Y73890000D02*
X39258578Y73890000D01*
X48510000Y69875279D02*
X48510000Y69549721D01*
X47490000Y69875279D02*
X47490000Y69549721D01*
X59137221Y71590000D02*
X59462779Y71590000D01*
X59137221Y72610000D02*
X59462779Y72610000D01*
X43200000Y64400000D02*
X41800000Y64400000D01*
X41100000Y65100000D02*
X41100000Y65700000D01*
X41800000Y66400000D02*
X43200000Y66400000D01*
X43900000Y65700000D02*
X43900000Y65100000D01*
X43900000Y65100000D02*
G75*
G02*
X43200000Y64400000I-700000J0D01*
G01*
X43200000Y66400000D02*
G75*
G02*
X43900000Y65700000I0J-700000D01*
G01*
X41100000Y65700000D02*
G75*
G02*
X41800000Y66400000I700000J0D01*
G01*
X41800000Y64400000D02*
G75*
G02*
X41100000Y65100000I0J700000D01*
G01*
X41020000Y71140000D02*
X41020000Y72600000D01*
X44180000Y71140000D02*
X44180000Y73300000D01*
X44180000Y71140000D02*
X43250000Y71140000D01*
X41020000Y71140000D02*
X41950000Y71140000D01*
X60110000Y76250000D02*
X58310000Y76250000D01*
X58310000Y73030000D02*
X60760000Y73030000D01*
X62410000Y73062779D02*
X62410000Y72737221D01*
X61390000Y73062779D02*
X61390000Y72737221D01*
X41020000Y67640000D02*
X41020000Y69100000D01*
X44180000Y67640000D02*
X44180000Y69800000D01*
X44180000Y67640000D02*
X43250000Y67640000D01*
X41020000Y67640000D02*
X41950000Y67640000D01*
X51085000Y63515000D02*
X51085000Y65800000D01*
X49615000Y63515000D02*
X51085000Y63515000D01*
X49615000Y65800000D02*
X49615000Y63515000D01*
X53040000Y64837221D02*
X53040000Y65162779D01*
X54060000Y64837221D02*
X54060000Y65162779D01*
X11010000Y71340000D02*
X11010000Y73140000D01*
X7790000Y73140000D02*
X7790000Y70690000D01*
X20385000Y74200000D02*
X20385000Y76485000D01*
X20385000Y76485000D02*
X18915000Y76485000D01*
X18915000Y76485000D02*
X18915000Y74200000D01*
X15685000Y74200000D02*
X15685000Y76485000D01*
X15685000Y76485000D02*
X14215000Y76485000D01*
X14215000Y76485000D02*
X14215000Y74200000D01*
X7458578Y65110000D02*
X6941422Y65110000D01*
X7458578Y63690000D02*
X6941422Y63690000D01*
X10862779Y67390000D02*
X10537221Y67390000D01*
X10862779Y68410000D02*
X10537221Y68410000D01*
X8610000Y66937221D02*
X8610000Y67262779D01*
X7590000Y66937221D02*
X7590000Y67262779D01*
X29670000Y72630000D02*
X31000000Y72630000D01*
X29670000Y71300000D02*
X29670000Y72630000D01*
X29670000Y70030000D02*
X32330000Y70030000D01*
X32330000Y70030000D02*
X32330000Y67430000D01*
X29670000Y70030000D02*
X29670000Y67430000D01*
X29670000Y67430000D02*
X32330000Y67430000D01*
X750000Y76145000D02*
X-300000Y76145000D01*
X750000Y63855000D02*
X-300000Y63855000D01*
X3920000Y65600000D02*
X3920000Y74400000D01*
X28200000Y75600000D02*
G75*
G02*
X28900000Y74900000I0J-700000D01*
G01*
X28900000Y74300000D02*
G75*
G02*
X28200000Y73600000I-700000J0D01*
G01*
X26800000Y73600000D02*
G75*
G02*
X26100000Y74300000I0J700000D01*
G01*
X26100000Y74900000D02*
G75*
G02*
X26800000Y75600000I700000J0D01*
G01*
X26100000Y74300000D02*
X26100000Y74900000D01*
X28200000Y73600000D02*
X26800000Y73600000D01*
X28900000Y74900000D02*
X28900000Y74300000D01*
X26800000Y75600000D02*
X28200000Y75600000D01*
X23300000Y63700000D02*
X21900000Y63700000D01*
X21200000Y64400000D02*
X21200000Y65000000D01*
X21900000Y65700000D02*
X23300000Y65700000D01*
X24000000Y65000000D02*
X24000000Y64400000D01*
X24000000Y64400000D02*
G75*
G02*
X23300000Y63700000I-700000J0D01*
G01*
X23300000Y65700000D02*
G75*
G02*
X24000000Y65000000I0J-700000D01*
G01*
X21200000Y65000000D02*
G75*
G02*
X21900000Y65700000I700000J0D01*
G01*
X21900000Y63700000D02*
G75*
G02*
X21200000Y64400000I0J700000D01*
G01*
X13740000Y63690000D02*
X13740000Y64800000D01*
X14500000Y63690000D02*
X13740000Y63690000D01*
X15260000Y65363471D02*
X15260000Y65910000D01*
X15260000Y63690000D02*
X15260000Y64236529D01*
X15260000Y65910000D02*
X20275000Y65910000D01*
X15260000Y63690000D02*
X20275000Y63690000D01*
X20275000Y65107530D02*
X20275000Y65910000D01*
X20275000Y63690000D02*
X20275000Y64492470D01*
X11990000Y70837221D02*
X11990000Y71162779D01*
X13010000Y70837221D02*
X13010000Y71162779D01*
X22510000Y70124721D02*
X22510000Y70450279D01*
X21490000Y70124721D02*
X21490000Y70450279D01*
X28980000Y68860000D02*
X28050000Y68860000D01*
X25820000Y68860000D02*
X26750000Y68860000D01*
X25820000Y68860000D02*
X25820000Y66700000D01*
X28980000Y68860000D02*
X28980000Y67400000D01*
X28980000Y72360000D02*
X28050000Y72360000D01*
X25820000Y72360000D02*
X26750000Y72360000D01*
X25820000Y72360000D02*
X25820000Y70200000D01*
X28980000Y72360000D02*
X28980000Y70900000D01*
X22637221Y66490000D02*
X22962779Y66490000D01*
X22637221Y67510000D02*
X22962779Y67510000D01*
X15940000Y75162779D02*
X15940000Y74837221D01*
X16960000Y75162779D02*
X16960000Y74837221D01*
X17640000Y75162779D02*
X17640000Y74837221D01*
X18660000Y75162779D02*
X18660000Y74837221D01*
X25410000Y71224721D02*
X25410000Y71550279D01*
X24390000Y71224721D02*
X24390000Y71550279D01*
X11690000Y66970000D02*
X9240000Y66970000D01*
X9890000Y63750000D02*
X11690000Y63750000D01*
D12*
X19525000Y73350000D02*
X15075000Y73350000D01*
X21050000Y66450000D02*
X15075000Y66450000D01*
D11*
X31258578Y75310000D02*
X30741422Y75310000D01*
X31258578Y73890000D02*
X30741422Y73890000D01*
X31258578Y66110000D02*
X30741422Y66110000D01*
X31258578Y64690000D02*
X30741422Y64690000D01*
X23841422Y73890000D02*
X24358578Y73890000D01*
X23841422Y75310000D02*
X24358578Y75310000D01*
D10*
X24921428Y7971429D02*
X24321428Y7971429D01*
X24321428Y8114286D01*
X24350000Y8200000D01*
X24407142Y8257143D01*
X24464285Y8285715D01*
X24578571Y8314286D01*
X24664285Y8314286D01*
X24778571Y8285715D01*
X24835714Y8257143D01*
X24892857Y8200000D01*
X24921428Y8114286D01*
X24921428Y7971429D01*
X24607142Y8771429D02*
X24607142Y8571429D01*
X24921428Y8571429D02*
X24321428Y8571429D01*
X24321428Y8857143D01*
X24321428Y9085715D02*
X24807142Y9085715D01*
X24864285Y9114286D01*
X24892857Y9142858D01*
X24921428Y9200000D01*
X24921428Y9314286D01*
X24892857Y9371429D01*
X24864285Y9400000D01*
X24807142Y9428572D01*
X24321428Y9428572D01*
X24921428Y21971429D02*
X24321428Y21971429D01*
X24321428Y22114286D01*
X24350000Y22200000D01*
X24407142Y22257143D01*
X24464285Y22285715D01*
X24578571Y22314286D01*
X24664285Y22314286D01*
X24778571Y22285715D01*
X24835714Y22257143D01*
X24892857Y22200000D01*
X24921428Y22114286D01*
X24921428Y21971429D01*
X24607142Y22771429D02*
X24607142Y22571429D01*
X24921428Y22571429D02*
X24321428Y22571429D01*
X24321428Y22857143D01*
X24321428Y23085715D02*
X24807142Y23085715D01*
X24864285Y23114286D01*
X24892857Y23142858D01*
X24921428Y23200000D01*
X24921428Y23314286D01*
X24892857Y23371429D01*
X24864285Y23400000D01*
X24807142Y23428572D01*
X24321428Y23428572D01*
X24921428Y35971429D02*
X24321428Y35971429D01*
X24321428Y36114286D01*
X24350000Y36200000D01*
X24407142Y36257143D01*
X24464285Y36285715D01*
X24578571Y36314286D01*
X24664285Y36314286D01*
X24778571Y36285715D01*
X24835714Y36257143D01*
X24892857Y36200000D01*
X24921428Y36114286D01*
X24921428Y35971429D01*
X24607142Y36771429D02*
X24607142Y36571429D01*
X24921428Y36571429D02*
X24321428Y36571429D01*
X24321428Y36857143D01*
X24321428Y37085715D02*
X24807142Y37085715D01*
X24864285Y37114286D01*
X24892857Y37142858D01*
X24921428Y37200000D01*
X24921428Y37314286D01*
X24892857Y37371429D01*
X24864285Y37400000D01*
X24807142Y37428572D01*
X24321428Y37428572D01*
X24921428Y49971429D02*
X24321428Y49971429D01*
X24321428Y50114286D01*
X24350000Y50200000D01*
X24407142Y50257143D01*
X24464285Y50285715D01*
X24578571Y50314286D01*
X24664285Y50314286D01*
X24778571Y50285715D01*
X24835714Y50257143D01*
X24892857Y50200000D01*
X24921428Y50114286D01*
X24921428Y49971429D01*
X24607142Y50771429D02*
X24607142Y50571429D01*
X24921428Y50571429D02*
X24321428Y50571429D01*
X24321428Y50857143D01*
X24321428Y51085715D02*
X24807142Y51085715D01*
X24864285Y51114286D01*
X24892857Y51142858D01*
X24921428Y51200000D01*
X24921428Y51314286D01*
X24892857Y51371429D01*
X24864285Y51400000D01*
X24807142Y51428572D01*
X24321428Y51428572D01*
X13791428Y18328572D02*
X13791428Y18042858D01*
X13191428Y18042858D01*
X13477142Y18528572D02*
X13477142Y18728572D01*
X13791428Y18814286D02*
X13791428Y18528572D01*
X13191428Y18528572D01*
X13191428Y18814286D01*
X13791428Y19071429D02*
X13191428Y19071429D01*
X13191428Y19214286D01*
X13220000Y19300000D01*
X13277142Y19357143D01*
X13334285Y19385715D01*
X13448571Y19414286D01*
X13534285Y19414286D01*
X13648571Y19385715D01*
X13705714Y19357143D01*
X13762857Y19300000D01*
X13791428Y19214286D01*
X13791428Y19071429D01*
X13791428Y19985715D02*
X13791428Y19642858D01*
X13791428Y19814286D02*
X13191428Y19814286D01*
X13277142Y19757143D01*
X13334285Y19700000D01*
X13362857Y19642858D01*
X13791428Y32328572D02*
X13791428Y32042858D01*
X13191428Y32042858D01*
X13477142Y32528572D02*
X13477142Y32728572D01*
X13791428Y32814286D02*
X13791428Y32528572D01*
X13191428Y32528572D01*
X13191428Y32814286D01*
X13791428Y33071429D02*
X13191428Y33071429D01*
X13191428Y33214286D01*
X13220000Y33300000D01*
X13277142Y33357143D01*
X13334285Y33385715D01*
X13448571Y33414286D01*
X13534285Y33414286D01*
X13648571Y33385715D01*
X13705714Y33357143D01*
X13762857Y33300000D01*
X13791428Y33214286D01*
X13791428Y33071429D01*
X13791428Y33985715D02*
X13791428Y33642858D01*
X13791428Y33814286D02*
X13191428Y33814286D01*
X13277142Y33757143D01*
X13334285Y33700000D01*
X13362857Y33642858D01*
X13791428Y46328572D02*
X13791428Y46042858D01*
X13191428Y46042858D01*
X13477142Y46528572D02*
X13477142Y46728572D01*
X13791428Y46814286D02*
X13791428Y46528572D01*
X13191428Y46528572D01*
X13191428Y46814286D01*
X13791428Y47071429D02*
X13191428Y47071429D01*
X13191428Y47214286D01*
X13220000Y47300000D01*
X13277142Y47357143D01*
X13334285Y47385715D01*
X13448571Y47414286D01*
X13534285Y47414286D01*
X13648571Y47385715D01*
X13705714Y47357143D01*
X13762857Y47300000D01*
X13791428Y47214286D01*
X13791428Y47071429D01*
X13791428Y47985715D02*
X13791428Y47642858D01*
X13791428Y47814286D02*
X13191428Y47814286D01*
X13277142Y47757143D01*
X13334285Y47700000D01*
X13362857Y47642858D01*
X13791428Y60328572D02*
X13791428Y60042858D01*
X13191428Y60042858D01*
X13477142Y60528572D02*
X13477142Y60728572D01*
X13791428Y60814286D02*
X13791428Y60528572D01*
X13191428Y60528572D01*
X13191428Y60814286D01*
X13791428Y61071429D02*
X13191428Y61071429D01*
X13191428Y61214286D01*
X13220000Y61300000D01*
X13277142Y61357143D01*
X13334285Y61385715D01*
X13448571Y61414286D01*
X13534285Y61414286D01*
X13648571Y61385715D01*
X13705714Y61357143D01*
X13762857Y61300000D01*
X13791428Y61214286D01*
X13791428Y61071429D01*
X13791428Y61985715D02*
X13791428Y61642858D01*
X13791428Y61814286D02*
X13191428Y61814286D01*
X13277142Y61757143D01*
X13334285Y61700000D01*
X13362857Y61642858D01*
X45621428Y18571429D02*
X45021428Y18571429D01*
X45021428Y18714286D01*
X45050000Y18800000D01*
X45107142Y18857143D01*
X45164285Y18885715D01*
X45278571Y18914286D01*
X45364285Y18914286D01*
X45478571Y18885715D01*
X45535714Y18857143D01*
X45592857Y18800000D01*
X45621428Y18714286D01*
X45621428Y18571429D01*
X45307142Y19371429D02*
X45307142Y19171429D01*
X45621428Y19171429D02*
X45021428Y19171429D01*
X45021428Y19457143D01*
X45021428Y19685715D02*
X45507142Y19685715D01*
X45564285Y19714286D01*
X45592857Y19742858D01*
X45621428Y19800000D01*
X45621428Y19914286D01*
X45592857Y19971429D01*
X45564285Y20000000D01*
X45507142Y20028572D01*
X45021428Y20028572D01*
X45621428Y32571429D02*
X45021428Y32571429D01*
X45021428Y32714286D01*
X45050000Y32800000D01*
X45107142Y32857143D01*
X45164285Y32885715D01*
X45278571Y32914286D01*
X45364285Y32914286D01*
X45478571Y32885715D01*
X45535714Y32857143D01*
X45592857Y32800000D01*
X45621428Y32714286D01*
X45621428Y32571429D01*
X45307142Y33371429D02*
X45307142Y33171429D01*
X45621428Y33171429D02*
X45021428Y33171429D01*
X45021428Y33457143D01*
X45021428Y33685715D02*
X45507142Y33685715D01*
X45564285Y33714286D01*
X45592857Y33742858D01*
X45621428Y33800000D01*
X45621428Y33914286D01*
X45592857Y33971429D01*
X45564285Y34000000D01*
X45507142Y34028572D01*
X45021428Y34028572D01*
X45621428Y46571429D02*
X45021428Y46571429D01*
X45021428Y46714286D01*
X45050000Y46800000D01*
X45107142Y46857143D01*
X45164285Y46885715D01*
X45278571Y46914286D01*
X45364285Y46914286D01*
X45478571Y46885715D01*
X45535714Y46857143D01*
X45592857Y46800000D01*
X45621428Y46714286D01*
X45621428Y46571429D01*
X45307142Y47371429D02*
X45307142Y47171429D01*
X45621428Y47171429D02*
X45021428Y47171429D01*
X45021428Y47457143D01*
X45021428Y47685715D02*
X45507142Y47685715D01*
X45564285Y47714286D01*
X45592857Y47742858D01*
X45621428Y47800000D01*
X45621428Y47914286D01*
X45592857Y47971429D01*
X45564285Y48000000D01*
X45507142Y48028572D01*
X45021428Y48028572D01*
X45621428Y60571429D02*
X45021428Y60571429D01*
X45021428Y60714286D01*
X45050000Y60800000D01*
X45107142Y60857143D01*
X45164285Y60885715D01*
X45278571Y60914286D01*
X45364285Y60914286D01*
X45478571Y60885715D01*
X45535714Y60857143D01*
X45592857Y60800000D01*
X45621428Y60714286D01*
X45621428Y60571429D01*
X45307142Y61371429D02*
X45307142Y61171429D01*
X45621428Y61171429D02*
X45021428Y61171429D01*
X45021428Y61457143D01*
X45021428Y61685715D02*
X45507142Y61685715D01*
X45564285Y61714286D01*
X45592857Y61742858D01*
X45621428Y61800000D01*
X45621428Y61914286D01*
X45592857Y61971429D01*
X45564285Y62000000D01*
X45507142Y62028572D01*
X45021428Y62028572D01*
X56751428Y8328572D02*
X56751428Y8042858D01*
X56151428Y8042858D01*
X56437142Y8528572D02*
X56437142Y8728572D01*
X56751428Y8814286D02*
X56751428Y8528572D01*
X56151428Y8528572D01*
X56151428Y8814286D01*
X56751428Y9071429D02*
X56151428Y9071429D01*
X56151428Y9214286D01*
X56180000Y9300000D01*
X56237142Y9357143D01*
X56294285Y9385715D01*
X56408571Y9414286D01*
X56494285Y9414286D01*
X56608571Y9385715D01*
X56665714Y9357143D01*
X56722857Y9300000D01*
X56751428Y9214286D01*
X56751428Y9071429D01*
X56751428Y9985715D02*
X56751428Y9642858D01*
X56751428Y9814286D02*
X56151428Y9814286D01*
X56237142Y9757143D01*
X56294285Y9700000D01*
X56322857Y9642858D01*
X56751428Y22328572D02*
X56751428Y22042858D01*
X56151428Y22042858D01*
X56437142Y22528572D02*
X56437142Y22728572D01*
X56751428Y22814286D02*
X56751428Y22528572D01*
X56151428Y22528572D01*
X56151428Y22814286D01*
X56751428Y23071429D02*
X56151428Y23071429D01*
X56151428Y23214286D01*
X56180000Y23300000D01*
X56237142Y23357143D01*
X56294285Y23385715D01*
X56408571Y23414286D01*
X56494285Y23414286D01*
X56608571Y23385715D01*
X56665714Y23357143D01*
X56722857Y23300000D01*
X56751428Y23214286D01*
X56751428Y23071429D01*
X56751428Y23985715D02*
X56751428Y23642858D01*
X56751428Y23814286D02*
X56151428Y23814286D01*
X56237142Y23757143D01*
X56294285Y23700000D01*
X56322857Y23642858D01*
X56751428Y36328572D02*
X56751428Y36042858D01*
X56151428Y36042858D01*
X56437142Y36528572D02*
X56437142Y36728572D01*
X56751428Y36814286D02*
X56751428Y36528572D01*
X56151428Y36528572D01*
X56151428Y36814286D01*
X56751428Y37071429D02*
X56151428Y37071429D01*
X56151428Y37214286D01*
X56180000Y37300000D01*
X56237142Y37357143D01*
X56294285Y37385715D01*
X56408571Y37414286D01*
X56494285Y37414286D01*
X56608571Y37385715D01*
X56665714Y37357143D01*
X56722857Y37300000D01*
X56751428Y37214286D01*
X56751428Y37071429D01*
X56751428Y37985715D02*
X56751428Y37642858D01*
X56751428Y37814286D02*
X56151428Y37814286D01*
X56237142Y37757143D01*
X56294285Y37700000D01*
X56322857Y37642858D01*
X56751428Y50328572D02*
X56751428Y50042858D01*
X56151428Y50042858D01*
X56437142Y50528572D02*
X56437142Y50728572D01*
X56751428Y50814286D02*
X56751428Y50528572D01*
X56151428Y50528572D01*
X56151428Y50814286D01*
X56751428Y51071429D02*
X56151428Y51071429D01*
X56151428Y51214286D01*
X56180000Y51300000D01*
X56237142Y51357143D01*
X56294285Y51385715D01*
X56408571Y51414286D01*
X56494285Y51414286D01*
X56608571Y51385715D01*
X56665714Y51357143D01*
X56722857Y51300000D01*
X56751428Y51214286D01*
X56751428Y51071429D01*
X56751428Y51985715D02*
X56751428Y51642858D01*
X56751428Y51814286D02*
X56151428Y51814286D01*
X56237142Y51757143D01*
X56294285Y51700000D01*
X56322857Y51642858D01*
X56607142Y20014286D02*
X56578571Y19928572D01*
X56578571Y19785715D01*
X56607142Y19728572D01*
X56635714Y19700000D01*
X56692857Y19671429D01*
X56750000Y19671429D01*
X56807142Y19700000D01*
X56835714Y19728572D01*
X56864285Y19785715D01*
X56892857Y19900000D01*
X56921428Y19957143D01*
X56950000Y19985715D01*
X57007142Y20014286D01*
X57064285Y20014286D01*
X57121428Y19985715D01*
X57150000Y19957143D01*
X57178571Y19900000D01*
X57178571Y19757143D01*
X57150000Y19671429D01*
X57178571Y19471429D02*
X56578571Y19328572D01*
X57007142Y19214286D01*
X56578571Y19100000D01*
X57178571Y18957143D01*
X56578571Y18728572D02*
X57178571Y18728572D01*
X57178571Y18585715D01*
X57150000Y18500000D01*
X57092857Y18442858D01*
X57035714Y18414286D01*
X56921428Y18385715D01*
X56835714Y18385715D01*
X56721428Y18414286D01*
X56664285Y18442858D01*
X56607142Y18500000D01*
X56578571Y18585715D01*
X56578571Y18728572D01*
X56607142Y34014286D02*
X56578571Y33928572D01*
X56578571Y33785715D01*
X56607142Y33728572D01*
X56635714Y33700000D01*
X56692857Y33671429D01*
X56750000Y33671429D01*
X56807142Y33700000D01*
X56835714Y33728572D01*
X56864285Y33785715D01*
X56892857Y33900000D01*
X56921428Y33957143D01*
X56950000Y33985715D01*
X57007142Y34014286D01*
X57064285Y34014286D01*
X57121428Y33985715D01*
X57150000Y33957143D01*
X57178571Y33900000D01*
X57178571Y33757143D01*
X57150000Y33671429D01*
X57178571Y33471429D02*
X56578571Y33328572D01*
X57007142Y33214286D01*
X56578571Y33100000D01*
X57178571Y32957143D01*
X56578571Y32728572D02*
X57178571Y32728572D01*
X57178571Y32585715D01*
X57150000Y32500000D01*
X57092857Y32442858D01*
X57035714Y32414286D01*
X56921428Y32385715D01*
X56835714Y32385715D01*
X56721428Y32414286D01*
X56664285Y32442858D01*
X56607142Y32500000D01*
X56578571Y32585715D01*
X56578571Y32728572D01*
X56607142Y48014286D02*
X56578571Y47928572D01*
X56578571Y47785715D01*
X56607142Y47728572D01*
X56635714Y47700000D01*
X56692857Y47671429D01*
X56750000Y47671429D01*
X56807142Y47700000D01*
X56835714Y47728572D01*
X56864285Y47785715D01*
X56892857Y47900000D01*
X56921428Y47957143D01*
X56950000Y47985715D01*
X57007142Y48014286D01*
X57064285Y48014286D01*
X57121428Y47985715D01*
X57150000Y47957143D01*
X57178571Y47900000D01*
X57178571Y47757143D01*
X57150000Y47671429D01*
X57178571Y47471429D02*
X56578571Y47328572D01*
X57007142Y47214286D01*
X56578571Y47100000D01*
X57178571Y46957143D01*
X56578571Y46728572D02*
X57178571Y46728572D01*
X57178571Y46585715D01*
X57150000Y46500000D01*
X57092857Y46442858D01*
X57035714Y46414286D01*
X56921428Y46385715D01*
X56835714Y46385715D01*
X56721428Y46414286D01*
X56664285Y46442858D01*
X56607142Y46500000D01*
X56578571Y46585715D01*
X56578571Y46728572D01*
X56607142Y62014286D02*
X56578571Y61928572D01*
X56578571Y61785715D01*
X56607142Y61728572D01*
X56635714Y61700000D01*
X56692857Y61671429D01*
X56750000Y61671429D01*
X56807142Y61700000D01*
X56835714Y61728572D01*
X56864285Y61785715D01*
X56892857Y61900000D01*
X56921428Y61957143D01*
X56950000Y61985715D01*
X57007142Y62014286D01*
X57064285Y62014286D01*
X57121428Y61985715D01*
X57150000Y61957143D01*
X57178571Y61900000D01*
X57178571Y61757143D01*
X57150000Y61671429D01*
X57178571Y61471429D02*
X56578571Y61328572D01*
X57007142Y61214286D01*
X56578571Y61100000D01*
X57178571Y60957143D01*
X56578571Y60728572D02*
X57178571Y60728572D01*
X57178571Y60585715D01*
X57150000Y60500000D01*
X57092857Y60442858D01*
X57035714Y60414286D01*
X56921428Y60385715D01*
X56835714Y60385715D01*
X56721428Y60414286D01*
X56664285Y60442858D01*
X56607142Y60500000D01*
X56578571Y60585715D01*
X56578571Y60728572D01*
X41728571Y7528572D02*
X41728571Y8128572D01*
X41957142Y8128572D01*
X42014285Y8100000D01*
X42042857Y8071429D01*
X42071428Y8014286D01*
X42071428Y7928572D01*
X42042857Y7871429D01*
X42014285Y7842858D01*
X41957142Y7814286D01*
X41728571Y7814286D01*
X42328571Y8128572D02*
X42328571Y7642858D01*
X42357142Y7585715D01*
X42385714Y7557143D01*
X42442857Y7528572D01*
X42557142Y7528572D01*
X42614285Y7557143D01*
X42642857Y7585715D01*
X42671428Y7642858D01*
X42671428Y8128572D01*
X42957142Y7528572D02*
X42957142Y8128572D01*
X43185714Y8128572D01*
X43242857Y8100000D01*
X43271428Y8071429D01*
X43300000Y8014286D01*
X43300000Y7928572D01*
X43271428Y7871429D01*
X43242857Y7842858D01*
X43185714Y7814286D01*
X42957142Y7814286D01*
X41728571Y21528572D02*
X41728571Y22128572D01*
X41957142Y22128572D01*
X42014285Y22100000D01*
X42042857Y22071429D01*
X42071428Y22014286D01*
X42071428Y21928572D01*
X42042857Y21871429D01*
X42014285Y21842858D01*
X41957142Y21814286D01*
X41728571Y21814286D01*
X42328571Y22128572D02*
X42328571Y21642858D01*
X42357142Y21585715D01*
X42385714Y21557143D01*
X42442857Y21528572D01*
X42557142Y21528572D01*
X42614285Y21557143D01*
X42642857Y21585715D01*
X42671428Y21642858D01*
X42671428Y22128572D01*
X42957142Y21528572D02*
X42957142Y22128572D01*
X43185714Y22128572D01*
X43242857Y22100000D01*
X43271428Y22071429D01*
X43300000Y22014286D01*
X43300000Y21928572D01*
X43271428Y21871429D01*
X43242857Y21842858D01*
X43185714Y21814286D01*
X42957142Y21814286D01*
X41728571Y35528572D02*
X41728571Y36128572D01*
X41957142Y36128572D01*
X42014285Y36100000D01*
X42042857Y36071429D01*
X42071428Y36014286D01*
X42071428Y35928572D01*
X42042857Y35871429D01*
X42014285Y35842858D01*
X41957142Y35814286D01*
X41728571Y35814286D01*
X42328571Y36128572D02*
X42328571Y35642858D01*
X42357142Y35585715D01*
X42385714Y35557143D01*
X42442857Y35528572D01*
X42557142Y35528572D01*
X42614285Y35557143D01*
X42642857Y35585715D01*
X42671428Y35642858D01*
X42671428Y36128572D01*
X42957142Y35528572D02*
X42957142Y36128572D01*
X43185714Y36128572D01*
X43242857Y36100000D01*
X43271428Y36071429D01*
X43300000Y36014286D01*
X43300000Y35928572D01*
X43271428Y35871429D01*
X43242857Y35842858D01*
X43185714Y35814286D01*
X42957142Y35814286D01*
X41728571Y49528572D02*
X41728571Y50128572D01*
X41957142Y50128572D01*
X42014285Y50100000D01*
X42042857Y50071429D01*
X42071428Y50014286D01*
X42071428Y49928572D01*
X42042857Y49871429D01*
X42014285Y49842858D01*
X41957142Y49814286D01*
X41728571Y49814286D01*
X42328571Y50128572D02*
X42328571Y49642858D01*
X42357142Y49585715D01*
X42385714Y49557143D01*
X42442857Y49528572D01*
X42557142Y49528572D01*
X42614285Y49557143D01*
X42642857Y49585715D01*
X42671428Y49642858D01*
X42671428Y50128572D01*
X42957142Y49528572D02*
X42957142Y50128572D01*
X43185714Y50128572D01*
X43242857Y50100000D01*
X43271428Y50071429D01*
X43300000Y50014286D01*
X43300000Y49928572D01*
X43271428Y49871429D01*
X43242857Y49842858D01*
X43185714Y49814286D01*
X42957142Y49814286D01*
X49171428Y8328572D02*
X49171428Y8042858D01*
X48571428Y8042858D01*
X48857142Y8528572D02*
X48857142Y8728572D01*
X49171428Y8814286D02*
X49171428Y8528572D01*
X48571428Y8528572D01*
X48571428Y8814286D01*
X49171428Y9071429D02*
X48571428Y9071429D01*
X48571428Y9214286D01*
X48600000Y9300000D01*
X48657142Y9357143D01*
X48714285Y9385715D01*
X48828571Y9414286D01*
X48914285Y9414286D01*
X49028571Y9385715D01*
X49085714Y9357143D01*
X49142857Y9300000D01*
X49171428Y9214286D01*
X49171428Y9071429D01*
X48628571Y9642858D02*
X48600000Y9671429D01*
X48571428Y9728572D01*
X48571428Y9871429D01*
X48600000Y9928572D01*
X48628571Y9957143D01*
X48685714Y9985715D01*
X48742857Y9985715D01*
X48828571Y9957143D01*
X49171428Y9614286D01*
X49171428Y9985715D01*
X49171428Y22328572D02*
X49171428Y22042858D01*
X48571428Y22042858D01*
X48857142Y22528572D02*
X48857142Y22728572D01*
X49171428Y22814286D02*
X49171428Y22528572D01*
X48571428Y22528572D01*
X48571428Y22814286D01*
X49171428Y23071429D02*
X48571428Y23071429D01*
X48571428Y23214286D01*
X48600000Y23300000D01*
X48657142Y23357143D01*
X48714285Y23385715D01*
X48828571Y23414286D01*
X48914285Y23414286D01*
X49028571Y23385715D01*
X49085714Y23357143D01*
X49142857Y23300000D01*
X49171428Y23214286D01*
X49171428Y23071429D01*
X48628571Y23642858D02*
X48600000Y23671429D01*
X48571428Y23728572D01*
X48571428Y23871429D01*
X48600000Y23928572D01*
X48628571Y23957143D01*
X48685714Y23985715D01*
X48742857Y23985715D01*
X48828571Y23957143D01*
X49171428Y23614286D01*
X49171428Y23985715D01*
X49171428Y36328572D02*
X49171428Y36042858D01*
X48571428Y36042858D01*
X48857142Y36528572D02*
X48857142Y36728572D01*
X49171428Y36814286D02*
X49171428Y36528572D01*
X48571428Y36528572D01*
X48571428Y36814286D01*
X49171428Y37071429D02*
X48571428Y37071429D01*
X48571428Y37214286D01*
X48600000Y37300000D01*
X48657142Y37357143D01*
X48714285Y37385715D01*
X48828571Y37414286D01*
X48914285Y37414286D01*
X49028571Y37385715D01*
X49085714Y37357143D01*
X49142857Y37300000D01*
X49171428Y37214286D01*
X49171428Y37071429D01*
X48628571Y37642858D02*
X48600000Y37671429D01*
X48571428Y37728572D01*
X48571428Y37871429D01*
X48600000Y37928572D01*
X48628571Y37957143D01*
X48685714Y37985715D01*
X48742857Y37985715D01*
X48828571Y37957143D01*
X49171428Y37614286D01*
X49171428Y37985715D01*
X49171428Y50328572D02*
X49171428Y50042858D01*
X48571428Y50042858D01*
X48857142Y50528572D02*
X48857142Y50728572D01*
X49171428Y50814286D02*
X49171428Y50528572D01*
X48571428Y50528572D01*
X48571428Y50814286D01*
X49171428Y51071429D02*
X48571428Y51071429D01*
X48571428Y51214286D01*
X48600000Y51300000D01*
X48657142Y51357143D01*
X48714285Y51385715D01*
X48828571Y51414286D01*
X48914285Y51414286D01*
X49028571Y51385715D01*
X49085714Y51357143D01*
X49142857Y51300000D01*
X49171428Y51214286D01*
X49171428Y51071429D01*
X48628571Y51642858D02*
X48600000Y51671429D01*
X48571428Y51728572D01*
X48571428Y51871429D01*
X48600000Y51928572D01*
X48628571Y51957143D01*
X48685714Y51985715D01*
X48742857Y51985715D01*
X48828571Y51957143D01*
X49171428Y51614286D01*
X49171428Y51985715D01*
X13392857Y7985715D02*
X13421428Y8071429D01*
X13421428Y8214286D01*
X13392857Y8271429D01*
X13364285Y8300000D01*
X13307142Y8328572D01*
X13250000Y8328572D01*
X13192857Y8300000D01*
X13164285Y8271429D01*
X13135714Y8214286D01*
X13107142Y8100000D01*
X13078571Y8042858D01*
X13050000Y8014286D01*
X12992857Y7985715D01*
X12935714Y7985715D01*
X12878571Y8014286D01*
X12850000Y8042858D01*
X12821428Y8100000D01*
X12821428Y8242858D01*
X12850000Y8328572D01*
X12821428Y8528572D02*
X13421428Y8671429D01*
X12992857Y8785715D01*
X13421428Y8900000D01*
X12821428Y9042858D01*
X13421428Y9271429D02*
X12821428Y9271429D01*
X12821428Y9414286D01*
X12850000Y9500000D01*
X12907142Y9557143D01*
X12964285Y9585715D01*
X13078571Y9614286D01*
X13164285Y9614286D01*
X13278571Y9585715D01*
X13335714Y9557143D01*
X13392857Y9500000D01*
X13421428Y9414286D01*
X13421428Y9271429D01*
X13392857Y21985715D02*
X13421428Y22071429D01*
X13421428Y22214286D01*
X13392857Y22271429D01*
X13364285Y22300000D01*
X13307142Y22328572D01*
X13250000Y22328572D01*
X13192857Y22300000D01*
X13164285Y22271429D01*
X13135714Y22214286D01*
X13107142Y22100000D01*
X13078571Y22042858D01*
X13050000Y22014286D01*
X12992857Y21985715D01*
X12935714Y21985715D01*
X12878571Y22014286D01*
X12850000Y22042858D01*
X12821428Y22100000D01*
X12821428Y22242858D01*
X12850000Y22328572D01*
X12821428Y22528572D02*
X13421428Y22671429D01*
X12992857Y22785715D01*
X13421428Y22900000D01*
X12821428Y23042858D01*
X13421428Y23271429D02*
X12821428Y23271429D01*
X12821428Y23414286D01*
X12850000Y23500000D01*
X12907142Y23557143D01*
X12964285Y23585715D01*
X13078571Y23614286D01*
X13164285Y23614286D01*
X13278571Y23585715D01*
X13335714Y23557143D01*
X13392857Y23500000D01*
X13421428Y23414286D01*
X13421428Y23271429D01*
X13392857Y35985715D02*
X13421428Y36071429D01*
X13421428Y36214286D01*
X13392857Y36271429D01*
X13364285Y36300000D01*
X13307142Y36328572D01*
X13250000Y36328572D01*
X13192857Y36300000D01*
X13164285Y36271429D01*
X13135714Y36214286D01*
X13107142Y36100000D01*
X13078571Y36042858D01*
X13050000Y36014286D01*
X12992857Y35985715D01*
X12935714Y35985715D01*
X12878571Y36014286D01*
X12850000Y36042858D01*
X12821428Y36100000D01*
X12821428Y36242858D01*
X12850000Y36328572D01*
X12821428Y36528572D02*
X13421428Y36671429D01*
X12992857Y36785715D01*
X13421428Y36900000D01*
X12821428Y37042858D01*
X13421428Y37271429D02*
X12821428Y37271429D01*
X12821428Y37414286D01*
X12850000Y37500000D01*
X12907142Y37557143D01*
X12964285Y37585715D01*
X13078571Y37614286D01*
X13164285Y37614286D01*
X13278571Y37585715D01*
X13335714Y37557143D01*
X13392857Y37500000D01*
X13421428Y37414286D01*
X13421428Y37271429D01*
X13392857Y49985715D02*
X13421428Y50071429D01*
X13421428Y50214286D01*
X13392857Y50271429D01*
X13364285Y50300000D01*
X13307142Y50328572D01*
X13250000Y50328572D01*
X13192857Y50300000D01*
X13164285Y50271429D01*
X13135714Y50214286D01*
X13107142Y50100000D01*
X13078571Y50042858D01*
X13050000Y50014286D01*
X12992857Y49985715D01*
X12935714Y49985715D01*
X12878571Y50014286D01*
X12850000Y50042858D01*
X12821428Y50100000D01*
X12821428Y50242858D01*
X12850000Y50328572D01*
X12821428Y50528572D02*
X13421428Y50671429D01*
X12992857Y50785715D01*
X13421428Y50900000D01*
X12821428Y51042858D01*
X13421428Y51271429D02*
X12821428Y51271429D01*
X12821428Y51414286D01*
X12850000Y51500000D01*
X12907142Y51557143D01*
X12964285Y51585715D01*
X13078571Y51614286D01*
X13164285Y51614286D01*
X13278571Y51585715D01*
X13335714Y51557143D01*
X13392857Y51500000D01*
X13421428Y51414286D01*
X13421428Y51271429D01*
X26728571Y19928572D02*
X26728571Y20528572D01*
X26957142Y20528572D01*
X27014285Y20500000D01*
X27042857Y20471429D01*
X27071428Y20414286D01*
X27071428Y20328572D01*
X27042857Y20271429D01*
X27014285Y20242858D01*
X26957142Y20214286D01*
X26728571Y20214286D01*
X27328571Y20528572D02*
X27328571Y20042858D01*
X27357142Y19985715D01*
X27385714Y19957143D01*
X27442857Y19928572D01*
X27557142Y19928572D01*
X27614285Y19957143D01*
X27642857Y19985715D01*
X27671428Y20042858D01*
X27671428Y20528572D01*
X27957142Y19928572D02*
X27957142Y20528572D01*
X28185714Y20528572D01*
X28242857Y20500000D01*
X28271428Y20471429D01*
X28300000Y20414286D01*
X28300000Y20328572D01*
X28271428Y20271429D01*
X28242857Y20242858D01*
X28185714Y20214286D01*
X27957142Y20214286D01*
X26728571Y33928572D02*
X26728571Y34528572D01*
X26957142Y34528572D01*
X27014285Y34500000D01*
X27042857Y34471429D01*
X27071428Y34414286D01*
X27071428Y34328572D01*
X27042857Y34271429D01*
X27014285Y34242858D01*
X26957142Y34214286D01*
X26728571Y34214286D01*
X27328571Y34528572D02*
X27328571Y34042858D01*
X27357142Y33985715D01*
X27385714Y33957143D01*
X27442857Y33928572D01*
X27557142Y33928572D01*
X27614285Y33957143D01*
X27642857Y33985715D01*
X27671428Y34042858D01*
X27671428Y34528572D01*
X27957142Y33928572D02*
X27957142Y34528572D01*
X28185714Y34528572D01*
X28242857Y34500000D01*
X28271428Y34471429D01*
X28300000Y34414286D01*
X28300000Y34328572D01*
X28271428Y34271429D01*
X28242857Y34242858D01*
X28185714Y34214286D01*
X27957142Y34214286D01*
X26728571Y47928572D02*
X26728571Y48528572D01*
X26957142Y48528572D01*
X27014285Y48500000D01*
X27042857Y48471429D01*
X27071428Y48414286D01*
X27071428Y48328572D01*
X27042857Y48271429D01*
X27014285Y48242858D01*
X26957142Y48214286D01*
X26728571Y48214286D01*
X27328571Y48528572D02*
X27328571Y48042858D01*
X27357142Y47985715D01*
X27385714Y47957143D01*
X27442857Y47928572D01*
X27557142Y47928572D01*
X27614285Y47957143D01*
X27642857Y47985715D01*
X27671428Y48042858D01*
X27671428Y48528572D01*
X27957142Y47928572D02*
X27957142Y48528572D01*
X28185714Y48528572D01*
X28242857Y48500000D01*
X28271428Y48471429D01*
X28300000Y48414286D01*
X28300000Y48328572D01*
X28271428Y48271429D01*
X28242857Y48242858D01*
X28185714Y48214286D01*
X27957142Y48214286D01*
X26728571Y61928572D02*
X26728571Y62528572D01*
X26957142Y62528572D01*
X27014285Y62500000D01*
X27042857Y62471429D01*
X27071428Y62414286D01*
X27071428Y62328572D01*
X27042857Y62271429D01*
X27014285Y62242858D01*
X26957142Y62214286D01*
X26728571Y62214286D01*
X27328571Y62528572D02*
X27328571Y62042858D01*
X27357142Y61985715D01*
X27385714Y61957143D01*
X27442857Y61928572D01*
X27557142Y61928572D01*
X27614285Y61957143D01*
X27642857Y61985715D01*
X27671428Y62042858D01*
X27671428Y62528572D01*
X27957142Y61928572D02*
X27957142Y62528572D01*
X28185714Y62528572D01*
X28242857Y62500000D01*
X28271428Y62471429D01*
X28300000Y62414286D01*
X28300000Y62328572D01*
X28271428Y62271429D01*
X28242857Y62242858D01*
X28185714Y62214286D01*
X27957142Y62214286D01*
X21371428Y18328572D02*
X21371428Y18042858D01*
X20771428Y18042858D01*
X21057142Y18528572D02*
X21057142Y18728572D01*
X21371428Y18814286D02*
X21371428Y18528572D01*
X20771428Y18528572D01*
X20771428Y18814286D01*
X21371428Y19071429D02*
X20771428Y19071429D01*
X20771428Y19214286D01*
X20800000Y19300000D01*
X20857142Y19357143D01*
X20914285Y19385715D01*
X21028571Y19414286D01*
X21114285Y19414286D01*
X21228571Y19385715D01*
X21285714Y19357143D01*
X21342857Y19300000D01*
X21371428Y19214286D01*
X21371428Y19071429D01*
X20828571Y19642858D02*
X20800000Y19671429D01*
X20771428Y19728572D01*
X20771428Y19871429D01*
X20800000Y19928572D01*
X20828571Y19957143D01*
X20885714Y19985715D01*
X20942857Y19985715D01*
X21028571Y19957143D01*
X21371428Y19614286D01*
X21371428Y19985715D01*
X21371428Y32328572D02*
X21371428Y32042858D01*
X20771428Y32042858D01*
X21057142Y32528572D02*
X21057142Y32728572D01*
X21371428Y32814286D02*
X21371428Y32528572D01*
X20771428Y32528572D01*
X20771428Y32814286D01*
X21371428Y33071429D02*
X20771428Y33071429D01*
X20771428Y33214286D01*
X20800000Y33300000D01*
X20857142Y33357143D01*
X20914285Y33385715D01*
X21028571Y33414286D01*
X21114285Y33414286D01*
X21228571Y33385715D01*
X21285714Y33357143D01*
X21342857Y33300000D01*
X21371428Y33214286D01*
X21371428Y33071429D01*
X20828571Y33642858D02*
X20800000Y33671429D01*
X20771428Y33728572D01*
X20771428Y33871429D01*
X20800000Y33928572D01*
X20828571Y33957143D01*
X20885714Y33985715D01*
X20942857Y33985715D01*
X21028571Y33957143D01*
X21371428Y33614286D01*
X21371428Y33985715D01*
X21371428Y46328572D02*
X21371428Y46042858D01*
X20771428Y46042858D01*
X21057142Y46528572D02*
X21057142Y46728572D01*
X21371428Y46814286D02*
X21371428Y46528572D01*
X20771428Y46528572D01*
X20771428Y46814286D01*
X21371428Y47071429D02*
X20771428Y47071429D01*
X20771428Y47214286D01*
X20800000Y47300000D01*
X20857142Y47357143D01*
X20914285Y47385715D01*
X21028571Y47414286D01*
X21114285Y47414286D01*
X21228571Y47385715D01*
X21285714Y47357143D01*
X21342857Y47300000D01*
X21371428Y47214286D01*
X21371428Y47071429D01*
X20828571Y47642858D02*
X20800000Y47671429D01*
X20771428Y47728572D01*
X20771428Y47871429D01*
X20800000Y47928572D01*
X20828571Y47957143D01*
X20885714Y47985715D01*
X20942857Y47985715D01*
X21028571Y47957143D01*
X21371428Y47614286D01*
X21371428Y47985715D01*
X21371428Y60328572D02*
X21371428Y60042858D01*
X20771428Y60042858D01*
X21057142Y60528572D02*
X21057142Y60728572D01*
X21371428Y60814286D02*
X21371428Y60528572D01*
X20771428Y60528572D01*
X20771428Y60814286D01*
X21371428Y61071429D02*
X20771428Y61071429D01*
X20771428Y61214286D01*
X20800000Y61300000D01*
X20857142Y61357143D01*
X20914285Y61385715D01*
X21028571Y61414286D01*
X21114285Y61414286D01*
X21228571Y61385715D01*
X21285714Y61357143D01*
X21342857Y61300000D01*
X21371428Y61214286D01*
X21371428Y61071429D01*
X20828571Y61642858D02*
X20800000Y61671429D01*
X20771428Y61728572D01*
X20771428Y61871429D01*
X20800000Y61928572D01*
X20828571Y61957143D01*
X20885714Y61985715D01*
X20942857Y61985715D01*
X21028571Y61957143D01*
X21371428Y61614286D01*
X21371428Y61985715D01*
X45621428Y74571429D02*
X45021428Y74571429D01*
X45021428Y74714286D01*
X45050000Y74800000D01*
X45107142Y74857143D01*
X45164285Y74885715D01*
X45278571Y74914286D01*
X45364285Y74914286D01*
X45478571Y74885715D01*
X45535714Y74857143D01*
X45592857Y74800000D01*
X45621428Y74714286D01*
X45621428Y74571429D01*
X45307142Y75371429D02*
X45307142Y75171429D01*
X45621428Y75171429D02*
X45021428Y75171429D01*
X45021428Y75457143D01*
X45021428Y75685715D02*
X45507142Y75685715D01*
X45564285Y75714286D01*
X45592857Y75742858D01*
X45621428Y75800000D01*
X45621428Y75914286D01*
X45592857Y75971429D01*
X45564285Y76000000D01*
X45507142Y76028572D01*
X45021428Y76028572D01*
X56751428Y64328572D02*
X56751428Y64042858D01*
X56151428Y64042858D01*
X56437142Y64528572D02*
X56437142Y64728572D01*
X56751428Y64814286D02*
X56751428Y64528572D01*
X56151428Y64528572D01*
X56151428Y64814286D01*
X56751428Y65071429D02*
X56151428Y65071429D01*
X56151428Y65214286D01*
X56180000Y65300000D01*
X56237142Y65357143D01*
X56294285Y65385715D01*
X56408571Y65414286D01*
X56494285Y65414286D01*
X56608571Y65385715D01*
X56665714Y65357143D01*
X56722857Y65300000D01*
X56751428Y65214286D01*
X56751428Y65071429D01*
X56751428Y65985715D02*
X56751428Y65642858D01*
X56751428Y65814286D02*
X56151428Y65814286D01*
X56237142Y65757143D01*
X56294285Y65700000D01*
X56322857Y65642858D01*
X56607142Y76014286D02*
X56578571Y75928572D01*
X56578571Y75785715D01*
X56607142Y75728572D01*
X56635714Y75700000D01*
X56692857Y75671429D01*
X56750000Y75671429D01*
X56807142Y75700000D01*
X56835714Y75728572D01*
X56864285Y75785715D01*
X56892857Y75900000D01*
X56921428Y75957143D01*
X56950000Y75985715D01*
X57007142Y76014286D01*
X57064285Y76014286D01*
X57121428Y75985715D01*
X57150000Y75957143D01*
X57178571Y75900000D01*
X57178571Y75757143D01*
X57150000Y75671429D01*
X57178571Y75471429D02*
X56578571Y75328572D01*
X57007142Y75214286D01*
X56578571Y75100000D01*
X57178571Y74957143D01*
X56578571Y74728572D02*
X57178571Y74728572D01*
X57178571Y74585715D01*
X57150000Y74500000D01*
X57092857Y74442858D01*
X57035714Y74414286D01*
X56921428Y74385715D01*
X56835714Y74385715D01*
X56721428Y74414286D01*
X56664285Y74442858D01*
X56607142Y74500000D01*
X56578571Y74585715D01*
X56578571Y74728572D01*
X41728571Y63528572D02*
X41728571Y64128572D01*
X41957142Y64128572D01*
X42014285Y64100000D01*
X42042857Y64071429D01*
X42071428Y64014286D01*
X42071428Y63928572D01*
X42042857Y63871429D01*
X42014285Y63842858D01*
X41957142Y63814286D01*
X41728571Y63814286D01*
X42328571Y64128572D02*
X42328571Y63642858D01*
X42357142Y63585715D01*
X42385714Y63557143D01*
X42442857Y63528572D01*
X42557142Y63528572D01*
X42614285Y63557143D01*
X42642857Y63585715D01*
X42671428Y63642858D01*
X42671428Y64128572D01*
X42957142Y63528572D02*
X42957142Y64128572D01*
X43185714Y64128572D01*
X43242857Y64100000D01*
X43271428Y64071429D01*
X43300000Y64014286D01*
X43300000Y63928572D01*
X43271428Y63871429D01*
X43242857Y63842858D01*
X43185714Y63814286D01*
X42957142Y63814286D01*
X49171428Y64328572D02*
X49171428Y64042858D01*
X48571428Y64042858D01*
X48857142Y64528572D02*
X48857142Y64728572D01*
X49171428Y64814286D02*
X49171428Y64528572D01*
X48571428Y64528572D01*
X48571428Y64814286D01*
X49171428Y65071429D02*
X48571428Y65071429D01*
X48571428Y65214286D01*
X48600000Y65300000D01*
X48657142Y65357143D01*
X48714285Y65385715D01*
X48828571Y65414286D01*
X48914285Y65414286D01*
X49028571Y65385715D01*
X49085714Y65357143D01*
X49142857Y65300000D01*
X49171428Y65214286D01*
X49171428Y65071429D01*
X48628571Y65642858D02*
X48600000Y65671429D01*
X48571428Y65728572D01*
X48571428Y65871429D01*
X48600000Y65928572D01*
X48628571Y65957143D01*
X48685714Y65985715D01*
X48742857Y65985715D01*
X48828571Y65957143D01*
X49171428Y65614286D01*
X49171428Y65985715D01*
X21371428Y74328572D02*
X21371428Y74042858D01*
X20771428Y74042858D01*
X21057142Y74528572D02*
X21057142Y74728572D01*
X21371428Y74814286D02*
X21371428Y74528572D01*
X20771428Y74528572D01*
X20771428Y74814286D01*
X21371428Y75071429D02*
X20771428Y75071429D01*
X20771428Y75214286D01*
X20800000Y75300000D01*
X20857142Y75357143D01*
X20914285Y75385715D01*
X21028571Y75414286D01*
X21114285Y75414286D01*
X21228571Y75385715D01*
X21285714Y75357143D01*
X21342857Y75300000D01*
X21371428Y75214286D01*
X21371428Y75071429D01*
X20828571Y75642858D02*
X20800000Y75671429D01*
X20771428Y75728572D01*
X20771428Y75871429D01*
X20800000Y75928572D01*
X20828571Y75957143D01*
X20885714Y75985715D01*
X20942857Y75985715D01*
X21028571Y75957143D01*
X21371428Y75614286D01*
X21371428Y75985715D01*
X13791428Y74328572D02*
X13791428Y74042858D01*
X13191428Y74042858D01*
X13477142Y74528572D02*
X13477142Y74728572D01*
X13791428Y74814286D02*
X13791428Y74528572D01*
X13191428Y74528572D01*
X13191428Y74814286D01*
X13791428Y75071429D02*
X13191428Y75071429D01*
X13191428Y75214286D01*
X13220000Y75300000D01*
X13277142Y75357143D01*
X13334285Y75385715D01*
X13448571Y75414286D01*
X13534285Y75414286D01*
X13648571Y75385715D01*
X13705714Y75357143D01*
X13762857Y75300000D01*
X13791428Y75214286D01*
X13791428Y75071429D01*
X13791428Y75985715D02*
X13791428Y75642858D01*
X13791428Y75814286D02*
X13191428Y75814286D01*
X13277142Y75757143D01*
X13334285Y75700000D01*
X13362857Y75642858D01*
X26728571Y75928572D02*
X26728571Y76528572D01*
X26957142Y76528572D01*
X27014285Y76500000D01*
X27042857Y76471429D01*
X27071428Y76414286D01*
X27071428Y76328572D01*
X27042857Y76271429D01*
X27014285Y76242858D01*
X26957142Y76214286D01*
X26728571Y76214286D01*
X27328571Y76528572D02*
X27328571Y76042858D01*
X27357142Y75985715D01*
X27385714Y75957143D01*
X27442857Y75928572D01*
X27557142Y75928572D01*
X27614285Y75957143D01*
X27642857Y75985715D01*
X27671428Y76042858D01*
X27671428Y76528572D01*
X27957142Y75928572D02*
X27957142Y76528572D01*
X28185714Y76528572D01*
X28242857Y76500000D01*
X28271428Y76471429D01*
X28300000Y76414286D01*
X28300000Y76328572D01*
X28271428Y76271429D01*
X28242857Y76242858D01*
X28185714Y76214286D01*
X27957142Y76214286D01*
X24921428Y63971429D02*
X24321428Y63971429D01*
X24321428Y64114286D01*
X24350000Y64200000D01*
X24407142Y64257143D01*
X24464285Y64285715D01*
X24578571Y64314286D01*
X24664285Y64314286D01*
X24778571Y64285715D01*
X24835714Y64257143D01*
X24892857Y64200000D01*
X24921428Y64114286D01*
X24921428Y63971429D01*
X24607142Y64771429D02*
X24607142Y64571429D01*
X24921428Y64571429D02*
X24321428Y64571429D01*
X24321428Y64857143D01*
X24321428Y65085715D02*
X24807142Y65085715D01*
X24864285Y65114286D01*
X24892857Y65142858D01*
X24921428Y65200000D01*
X24921428Y65314286D01*
X24892857Y65371429D01*
X24864285Y65400000D01*
X24807142Y65428572D01*
X24321428Y65428572D01*
X13392857Y63985715D02*
X13421428Y64071429D01*
X13421428Y64214286D01*
X13392857Y64271429D01*
X13364285Y64300000D01*
X13307142Y64328572D01*
X13250000Y64328572D01*
X13192857Y64300000D01*
X13164285Y64271429D01*
X13135714Y64214286D01*
X13107142Y64100000D01*
X13078571Y64042858D01*
X13050000Y64014286D01*
X12992857Y63985715D01*
X12935714Y63985715D01*
X12878571Y64014286D01*
X12850000Y64042858D01*
X12821428Y64100000D01*
X12821428Y64242858D01*
X12850000Y64328572D01*
X12821428Y64528572D02*
X13421428Y64671429D01*
X12992857Y64785715D01*
X13421428Y64900000D01*
X12821428Y65042858D01*
X13421428Y65271429D02*
X12821428Y65271429D01*
X12821428Y65414286D01*
X12850000Y65500000D01*
X12907142Y65557143D01*
X12964285Y65585715D01*
X13078571Y65614286D01*
X13164285Y65614286D01*
X13278571Y65585715D01*
X13335714Y65557143D01*
X13392857Y65500000D01*
X13421428Y65414286D01*
X13421428Y65271429D01*
M02*
