G04 #@! TF.GenerationSoftware,KiCad,Pcbnew,(5.99.0-812-g5d5363396)*
G04 #@! TF.CreationDate,2020-02-01T10:18:43+03:00*
G04 #@! TF.ProjectId,stm32_ds2480_emu_panel,73746d33-325f-4647-9332-3438305f656d,rev?*
G04 #@! TF.SameCoordinates,PX68e7780PY7ed6b40*
G04 #@! TF.FileFunction,Profile,NP*
%FSLAX46Y46*%
G04 Gerber Fmt 4.6, Leading zero omitted, Abs format (unit mm)*
G04 Created by KiCad (PCBNEW (5.99.0-812-g5d5363396)) date 2020-02-01 10:18:43*
%MOMM*%
%LPD*%
G04 APERTURE LIST*
%ADD10C,0.200000*%
G04 APERTURE END LIST*
D10*
X33000000Y7800000D02*
X33000000Y20200000D01*
X33000000Y21800000D02*
X33000000Y34200000D01*
X33000000Y35800000D02*
X33000000Y48200000D01*
X33000000Y49800000D02*
X33000000Y62200000D01*
X800000Y7000000D02*
X32200000Y7000000D01*
X800000Y21000000D02*
X32200000Y21000000D01*
X800000Y35000000D02*
X32200000Y35000000D01*
X800000Y49000000D02*
X32200000Y49000000D01*
X37000000Y20200000D02*
X37000000Y7800000D01*
X37000000Y34200000D02*
X37000000Y21800000D01*
X37000000Y48200000D02*
X37000000Y35800000D01*
X37000000Y62200000D02*
X37000000Y49800000D01*
X37800000Y7000000D02*
X69200000Y7000000D01*
X37800000Y21000000D02*
X69200000Y21000000D01*
X37800000Y35000000D02*
X69200000Y35000000D01*
X37800000Y49000000D02*
X69200000Y49000000D01*
X70000000Y7800000D02*
X70000000Y20200000D01*
X70000000Y21800000D02*
X70000000Y34200000D01*
X70000000Y35800000D02*
X70000000Y48200000D01*
X70000000Y49800000D02*
X70000000Y62200000D01*
X70000000Y7800000D02*
G75*
G02*
X69200000Y7000000I-800000J0D01*
G01*
X70000000Y21800000D02*
G75*
G02*
X69200000Y21000000I-800000J0D01*
G01*
X70000000Y35800000D02*
G75*
G02*
X69200000Y35000000I-800000J0D01*
G01*
X70000000Y49800000D02*
G75*
G02*
X69200000Y49000000I-800000J0D01*
G01*
X37800000Y7000000D02*
G75*
G02*
X37000000Y7800000I0J800000D01*
G01*
X37800000Y21000000D02*
G75*
G02*
X37000000Y21800000I0J800000D01*
G01*
X37800000Y35000000D02*
G75*
G02*
X37000000Y35800000I0J800000D01*
G01*
X37800000Y49000000D02*
G75*
G02*
X37000000Y49800000I0J800000D01*
G01*
X37000000Y20200000D02*
G75*
G02*
X37800000Y21000000I800000J0D01*
G01*
X37000000Y34200000D02*
G75*
G02*
X37800000Y35000000I800000J0D01*
G01*
X37000000Y48200000D02*
G75*
G02*
X37800000Y49000000I800000J0D01*
G01*
X37000000Y62200000D02*
G75*
G02*
X37800000Y63000000I800000J0D01*
G01*
X69200000Y21000000D02*
X37800000Y21000000D01*
X69200000Y35000000D02*
X37800000Y35000000D01*
X69200000Y49000000D02*
X37800000Y49000000D01*
X69200000Y63000000D02*
X37800000Y63000000D01*
X0Y20200000D02*
X0Y7800000D01*
X0Y34200000D02*
X0Y21800000D01*
X0Y48200000D02*
X0Y35800000D01*
X0Y62200000D02*
X0Y49800000D01*
X32200000Y21000000D02*
G75*
G02*
X33000000Y20200000I0J-800000D01*
G01*
X32200000Y35000000D02*
G75*
G02*
X33000000Y34200000I0J-800000D01*
G01*
X32200000Y49000000D02*
G75*
G02*
X33000000Y48200000I0J-800000D01*
G01*
X32200000Y63000000D02*
G75*
G02*
X33000000Y62200000I0J-800000D01*
G01*
X33000000Y7800000D02*
G75*
G02*
X32200000Y7000000I-800000J0D01*
G01*
X33000000Y21800000D02*
G75*
G02*
X32200000Y21000000I-800000J0D01*
G01*
X33000000Y35800000D02*
G75*
G02*
X32200000Y35000000I-800000J0D01*
G01*
X33000000Y49800000D02*
G75*
G02*
X32200000Y49000000I-800000J0D01*
G01*
X69200000Y21000000D02*
G75*
G02*
X70000000Y20200000I0J-800000D01*
G01*
X69200000Y35000000D02*
G75*
G02*
X70000000Y34200000I0J-800000D01*
G01*
X69200000Y49000000D02*
G75*
G02*
X70000000Y48200000I0J-800000D01*
G01*
X69200000Y63000000D02*
G75*
G02*
X70000000Y62200000I0J-800000D01*
G01*
X800000Y7000000D02*
G75*
G02*
X0Y7800000I0J800000D01*
G01*
X800000Y21000000D02*
G75*
G02*
X0Y21800000I0J800000D01*
G01*
X800000Y35000000D02*
G75*
G02*
X0Y35800000I0J800000D01*
G01*
X800000Y49000000D02*
G75*
G02*
X0Y49800000I0J800000D01*
G01*
X0Y20200000D02*
G75*
G02*
X800000Y21000000I800000J0D01*
G01*
X0Y34200000D02*
G75*
G02*
X800000Y35000000I800000J0D01*
G01*
X0Y48200000D02*
G75*
G02*
X800000Y49000000I800000J0D01*
G01*
X0Y62200000D02*
G75*
G02*
X800000Y63000000I800000J0D01*
G01*
X32200000Y21000000D02*
X800000Y21000000D01*
X32200000Y35000000D02*
X800000Y35000000D01*
X32200000Y49000000D02*
X800000Y49000000D01*
X32200000Y63000000D02*
X800000Y63000000D01*
X37000000Y76200000D02*
X37000000Y63800000D01*
X69200000Y77000000D02*
X37800000Y77000000D01*
X70000000Y63800000D02*
X70000000Y76200000D01*
X37800000Y63000000D02*
G75*
G02*
X37000000Y63800000I0J800000D01*
G01*
X37000000Y76200000D02*
G75*
G02*
X37800000Y77000000I800000J0D01*
G01*
X69200000Y77000000D02*
G75*
G02*
X70000000Y76200000I0J-800000D01*
G01*
X70000000Y63800000D02*
G75*
G02*
X69200000Y63000000I-800000J0D01*
G01*
X37800000Y63000000D02*
X69200000Y63000000D01*
X37800000Y79000000D02*
X37800000Y77000000D01*
X32200000Y79000000D02*
X32200000Y77000000D01*
X37800000Y79000000D02*
X32200000Y79000000D01*
X32200000Y5000000D02*
X37800000Y5000000D01*
X37800000Y5000000D02*
X37800000Y7000000D01*
X32200000Y5000000D02*
X32200000Y7000000D01*
X800000Y5000000D02*
X800000Y7000000D01*
X69200000Y5000000D02*
X69200000Y7000000D01*
X0Y4200000D02*
G75*
G02*
X800000Y5000000I800000J0D01*
G01*
X69200000Y5000000D02*
G75*
G02*
X70000000Y4200000I0J-800000D01*
G01*
X70000000Y0D02*
X0Y0D01*
X70000000Y0D02*
X70000000Y4200000D01*
X0Y0D02*
X0Y4200000D01*
X69200000Y79000000D02*
X69200000Y77000000D01*
X800000Y79000000D02*
X800000Y77000000D01*
X800000Y79000000D02*
G75*
G02*
X0Y79800000I0J800000D01*
G01*
X70000000Y79800000D02*
G75*
G02*
X69200000Y79000000I-800000J0D01*
G01*
X70000000Y84000000D02*
X70000000Y79800000D01*
X0Y84000000D02*
X0Y79800000D01*
X0Y84000000D02*
X70000000Y84000000D01*
X33000000Y63800000D02*
G75*
G02*
X32200000Y63000000I-800000J0D01*
G01*
X32200000Y77000000D02*
G75*
G02*
X33000000Y76200000I0J-800000D01*
G01*
X800000Y63000000D02*
G75*
G02*
X0Y63800000I0J800000D01*
G01*
X0Y76200000D02*
G75*
G02*
X800000Y77000000I800000J0D01*
G01*
X32200000Y77000000D02*
X800000Y77000000D01*
X33000000Y63800000D02*
X33000000Y76200000D01*
X800000Y63000000D02*
X32200000Y63000000D01*
X0Y76200000D02*
X0Y63800000D01*
M02*
