G04 #@! TF.GenerationSoftware,KiCad,Pcbnew,(5.1.0-70-g46d257dc6)*
G04 #@! TF.CreationDate,2019-04-22T18:26:59+03:00*
G04 #@! TF.ProjectId,stm32_ds2480_emu,73746d33-325f-4647-9332-3438305f656d,rev?*
G04 #@! TF.SameCoordinates,Original*
G04 #@! TF.FileFunction,Soldermask,Top*
G04 #@! TF.FilePolarity,Negative*
%FSLAX46Y46*%
G04 Gerber Fmt 4.6, Leading zero omitted, Abs format (unit mm)*
G04 Created by KiCad (PCBNEW (5.1.0-70-g46d257dc6)) date 2019-04-22 18:26:59*
%MOMM*%
%LPD*%
G04 APERTURE LIST*
%ADD10C,0.100000*%
G04 APERTURE END LIST*
D10*
G36*
X124070442Y-94355518D02*
G01*
X124136627Y-94362037D01*
X124306466Y-94413557D01*
X124462991Y-94497222D01*
X124498729Y-94526552D01*
X124600186Y-94609814D01*
X124683448Y-94711271D01*
X124712778Y-94747009D01*
X124796443Y-94903534D01*
X124847963Y-95073373D01*
X124865359Y-95250000D01*
X124847963Y-95426627D01*
X124796443Y-95596466D01*
X124712778Y-95752991D01*
X124683448Y-95788729D01*
X124600186Y-95890186D01*
X124498729Y-95973448D01*
X124462991Y-96002778D01*
X124306466Y-96086443D01*
X124136627Y-96137963D01*
X124070443Y-96144481D01*
X124004260Y-96151000D01*
X123915740Y-96151000D01*
X123849558Y-96144482D01*
X123783373Y-96137963D01*
X123613534Y-96086443D01*
X123457009Y-96002778D01*
X123421271Y-95973448D01*
X123319814Y-95890186D01*
X123236552Y-95788729D01*
X123207222Y-95752991D01*
X123123557Y-95596466D01*
X123072037Y-95426627D01*
X123054641Y-95250000D01*
X123072037Y-95073373D01*
X123123557Y-94903534D01*
X123207222Y-94747009D01*
X123236552Y-94711271D01*
X123319814Y-94609814D01*
X123421271Y-94526552D01*
X123457009Y-94497222D01*
X123613534Y-94413557D01*
X123783373Y-94362037D01*
X123849557Y-94355519D01*
X123915740Y-94349000D01*
X124004260Y-94349000D01*
X124070442Y-94355518D01*
X124070442Y-94355518D01*
G37*
G36*
X126610442Y-94355518D02*
G01*
X126676627Y-94362037D01*
X126846466Y-94413557D01*
X127002991Y-94497222D01*
X127038729Y-94526552D01*
X127140186Y-94609814D01*
X127223448Y-94711271D01*
X127252778Y-94747009D01*
X127336443Y-94903534D01*
X127387963Y-95073373D01*
X127405359Y-95250000D01*
X127387963Y-95426627D01*
X127336443Y-95596466D01*
X127252778Y-95752991D01*
X127223448Y-95788729D01*
X127140186Y-95890186D01*
X127038729Y-95973448D01*
X127002991Y-96002778D01*
X126846466Y-96086443D01*
X126676627Y-96137963D01*
X126610443Y-96144481D01*
X126544260Y-96151000D01*
X126455740Y-96151000D01*
X126389558Y-96144482D01*
X126323373Y-96137963D01*
X126153534Y-96086443D01*
X125997009Y-96002778D01*
X125961271Y-95973448D01*
X125859814Y-95890186D01*
X125776552Y-95788729D01*
X125747222Y-95752991D01*
X125663557Y-95596466D01*
X125612037Y-95426627D01*
X125594641Y-95250000D01*
X125612037Y-95073373D01*
X125663557Y-94903534D01*
X125747222Y-94747009D01*
X125776552Y-94711271D01*
X125859814Y-94609814D01*
X125961271Y-94526552D01*
X125997009Y-94497222D01*
X126153534Y-94413557D01*
X126323373Y-94362037D01*
X126389557Y-94355519D01*
X126455740Y-94349000D01*
X126544260Y-94349000D01*
X126610442Y-94355518D01*
X126610442Y-94355518D01*
G37*
G36*
X129150442Y-94355518D02*
G01*
X129216627Y-94362037D01*
X129386466Y-94413557D01*
X129542991Y-94497222D01*
X129578729Y-94526552D01*
X129680186Y-94609814D01*
X129763448Y-94711271D01*
X129792778Y-94747009D01*
X129876443Y-94903534D01*
X129927963Y-95073373D01*
X129945359Y-95250000D01*
X129927963Y-95426627D01*
X129876443Y-95596466D01*
X129792778Y-95752991D01*
X129763448Y-95788729D01*
X129680186Y-95890186D01*
X129578729Y-95973448D01*
X129542991Y-96002778D01*
X129386466Y-96086443D01*
X129216627Y-96137963D01*
X129150443Y-96144481D01*
X129084260Y-96151000D01*
X128995740Y-96151000D01*
X128929558Y-96144482D01*
X128863373Y-96137963D01*
X128693534Y-96086443D01*
X128537009Y-96002778D01*
X128501271Y-95973448D01*
X128399814Y-95890186D01*
X128316552Y-95788729D01*
X128287222Y-95752991D01*
X128203557Y-95596466D01*
X128152037Y-95426627D01*
X128134641Y-95250000D01*
X128152037Y-95073373D01*
X128203557Y-94903534D01*
X128287222Y-94747009D01*
X128316552Y-94711271D01*
X128399814Y-94609814D01*
X128501271Y-94526552D01*
X128537009Y-94497222D01*
X128693534Y-94413557D01*
X128863373Y-94362037D01*
X128929557Y-94355519D01*
X128995740Y-94349000D01*
X129084260Y-94349000D01*
X129150442Y-94355518D01*
X129150442Y-94355518D01*
G37*
G36*
X122321000Y-96151000D02*
G01*
X120519000Y-96151000D01*
X120519000Y-94349000D01*
X122321000Y-94349000D01*
X122321000Y-96151000D01*
X122321000Y-96151000D01*
G37*
G36*
X122151000Y-91551000D02*
G01*
X120549000Y-91551000D01*
X120549000Y-89949000D01*
X122151000Y-89949000D01*
X122151000Y-91551000D01*
X122151000Y-91551000D01*
G37*
G36*
X129951000Y-91551000D02*
G01*
X128349000Y-91551000D01*
X128349000Y-89949000D01*
X129951000Y-89949000D01*
X129951000Y-91551000D01*
X129951000Y-91551000D01*
G37*
G36*
X133129591Y-90228085D02*
G01*
X133163569Y-90238393D01*
X133194890Y-90255134D01*
X133222339Y-90277661D01*
X133244866Y-90305110D01*
X133261607Y-90336431D01*
X133271915Y-90370409D01*
X133276000Y-90411890D01*
X133276000Y-91088110D01*
X133271915Y-91129591D01*
X133261607Y-91163569D01*
X133244866Y-91194890D01*
X133222339Y-91222339D01*
X133194890Y-91244866D01*
X133163569Y-91261607D01*
X133129591Y-91271915D01*
X133088110Y-91276000D01*
X132486890Y-91276000D01*
X132445409Y-91271915D01*
X132411431Y-91261607D01*
X132380110Y-91244866D01*
X132352661Y-91222339D01*
X132330134Y-91194890D01*
X132313393Y-91163569D01*
X132303085Y-91129591D01*
X132299000Y-91088110D01*
X132299000Y-90411890D01*
X132303085Y-90370409D01*
X132313393Y-90336431D01*
X132330134Y-90305110D01*
X132352661Y-90277661D01*
X132380110Y-90255134D01*
X132411431Y-90238393D01*
X132445409Y-90228085D01*
X132486890Y-90224000D01*
X133088110Y-90224000D01*
X133129591Y-90228085D01*
X133129591Y-90228085D01*
G37*
G36*
X131554591Y-90228085D02*
G01*
X131588569Y-90238393D01*
X131619890Y-90255134D01*
X131647339Y-90277661D01*
X131669866Y-90305110D01*
X131686607Y-90336431D01*
X131696915Y-90370409D01*
X131701000Y-90411890D01*
X131701000Y-91088110D01*
X131696915Y-91129591D01*
X131686607Y-91163569D01*
X131669866Y-91194890D01*
X131647339Y-91222339D01*
X131619890Y-91244866D01*
X131588569Y-91261607D01*
X131554591Y-91271915D01*
X131513110Y-91276000D01*
X130911890Y-91276000D01*
X130870409Y-91271915D01*
X130836431Y-91261607D01*
X130805110Y-91244866D01*
X130777661Y-91222339D01*
X130755134Y-91194890D01*
X130738393Y-91163569D01*
X130728085Y-91129591D01*
X130724000Y-91088110D01*
X130724000Y-90411890D01*
X130728085Y-90370409D01*
X130738393Y-90336431D01*
X130755134Y-90305110D01*
X130777661Y-90277661D01*
X130805110Y-90255134D01*
X130836431Y-90238393D01*
X130870409Y-90228085D01*
X130911890Y-90224000D01*
X131513110Y-90224000D01*
X131554591Y-90228085D01*
X131554591Y-90228085D01*
G37*
G36*
X115263500Y-88711886D02*
G01*
X115264102Y-88724138D01*
X115266649Y-88750000D01*
X115264102Y-88775862D01*
X115263500Y-88788114D01*
X115263500Y-88861406D01*
X115254543Y-88878164D01*
X115250415Y-88889701D01*
X115224632Y-88974693D01*
X115216854Y-89000336D01*
X115156406Y-89113425D01*
X115075054Y-89212554D01*
X114975925Y-89293906D01*
X114862836Y-89354354D01*
X114830904Y-89364040D01*
X114740118Y-89391580D01*
X114676355Y-89397860D01*
X114644474Y-89401000D01*
X113880526Y-89401000D01*
X113848645Y-89397860D01*
X113784882Y-89391580D01*
X113694096Y-89364040D01*
X113662164Y-89354354D01*
X113549075Y-89293906D01*
X113449946Y-89212554D01*
X113368594Y-89113425D01*
X113308146Y-89000336D01*
X113300368Y-88974693D01*
X113274587Y-88889708D01*
X113265213Y-88867075D01*
X113261500Y-88861518D01*
X113261500Y-88788114D01*
X113260898Y-88775862D01*
X113258351Y-88750000D01*
X113260898Y-88724138D01*
X113261500Y-88711886D01*
X113261500Y-87499000D01*
X115263500Y-87499000D01*
X115263500Y-88711886D01*
X115263500Y-88711886D01*
G37*
G36*
X134184468Y-87253565D02*
G01*
X134223138Y-87265296D01*
X134258777Y-87284346D01*
X134290017Y-87309983D01*
X134315654Y-87341223D01*
X134334704Y-87376862D01*
X134346435Y-87415532D01*
X134351000Y-87461888D01*
X134351000Y-88538112D01*
X134346435Y-88584468D01*
X134334704Y-88623138D01*
X134315654Y-88658777D01*
X134290017Y-88690017D01*
X134258777Y-88715654D01*
X134223138Y-88734704D01*
X134184468Y-88746435D01*
X134138112Y-88751000D01*
X133486888Y-88751000D01*
X133440532Y-88746435D01*
X133401862Y-88734704D01*
X133366223Y-88715654D01*
X133334983Y-88690017D01*
X133309346Y-88658777D01*
X133290296Y-88623138D01*
X133278565Y-88584468D01*
X133274000Y-88538112D01*
X133274000Y-87461888D01*
X133278565Y-87415532D01*
X133290296Y-87376862D01*
X133309346Y-87341223D01*
X133334983Y-87309983D01*
X133366223Y-87284346D01*
X133401862Y-87265296D01*
X133440532Y-87253565D01*
X133486888Y-87249000D01*
X134138112Y-87249000D01*
X134184468Y-87253565D01*
X134184468Y-87253565D01*
G37*
G36*
X136059468Y-87253565D02*
G01*
X136098138Y-87265296D01*
X136133777Y-87284346D01*
X136165017Y-87309983D01*
X136190654Y-87341223D01*
X136209704Y-87376862D01*
X136221435Y-87415532D01*
X136226000Y-87461888D01*
X136226000Y-88538112D01*
X136221435Y-88584468D01*
X136209704Y-88623138D01*
X136190654Y-88658777D01*
X136165017Y-88690017D01*
X136133777Y-88715654D01*
X136098138Y-88734704D01*
X136059468Y-88746435D01*
X136013112Y-88751000D01*
X135361888Y-88751000D01*
X135315532Y-88746435D01*
X135276862Y-88734704D01*
X135241223Y-88715654D01*
X135209983Y-88690017D01*
X135184346Y-88658777D01*
X135165296Y-88623138D01*
X135153565Y-88584468D01*
X135149000Y-88538112D01*
X135149000Y-87461888D01*
X135153565Y-87415532D01*
X135165296Y-87376862D01*
X135184346Y-87341223D01*
X135209983Y-87309983D01*
X135241223Y-87284346D01*
X135276862Y-87265296D01*
X135315532Y-87253565D01*
X135361888Y-87249000D01*
X136013112Y-87249000D01*
X136059468Y-87253565D01*
X136059468Y-87253565D01*
G37*
G36*
X117188848Y-82003820D02*
G01*
X117188850Y-82003821D01*
X117188851Y-82003821D01*
X117330074Y-82062317D01*
X117330077Y-82062319D01*
X117457169Y-82147239D01*
X117565261Y-82255331D01*
X117650181Y-82382423D01*
X117650183Y-82382426D01*
X117708679Y-82523649D01*
X117708680Y-82523652D01*
X117738500Y-82673569D01*
X117738500Y-82826431D01*
X117730182Y-82868250D01*
X117708679Y-82976351D01*
X117650183Y-83117574D01*
X117650181Y-83117577D01*
X117565261Y-83244669D01*
X117457169Y-83352761D01*
X117379884Y-83404401D01*
X117330074Y-83437683D01*
X117279772Y-83458519D01*
X117258164Y-83470068D01*
X117239222Y-83485614D01*
X117223677Y-83504556D01*
X117212126Y-83526166D01*
X117205013Y-83549615D01*
X117202611Y-83574001D01*
X117205013Y-83598387D01*
X117212126Y-83621836D01*
X117223677Y-83643447D01*
X117239223Y-83662389D01*
X117258165Y-83677934D01*
X117279775Y-83689485D01*
X117303224Y-83696598D01*
X117327610Y-83699000D01*
X117688500Y-83699000D01*
X117688500Y-86801000D01*
X117327610Y-86801000D01*
X117303224Y-86803402D01*
X117279775Y-86810515D01*
X117258164Y-86822066D01*
X117239222Y-86837611D01*
X117223677Y-86856553D01*
X117212126Y-86878164D01*
X117205013Y-86901613D01*
X117202611Y-86925999D01*
X117205013Y-86950385D01*
X117212126Y-86973834D01*
X117223677Y-86995445D01*
X117239222Y-87014387D01*
X117258164Y-87029932D01*
X117279772Y-87041481D01*
X117330074Y-87062317D01*
X117330075Y-87062318D01*
X117457169Y-87147239D01*
X117565261Y-87255331D01*
X117646465Y-87376862D01*
X117650183Y-87382426D01*
X117707258Y-87520218D01*
X117708680Y-87523652D01*
X117738500Y-87673569D01*
X117738500Y-87826429D01*
X117708679Y-87976351D01*
X117650183Y-88117574D01*
X117650181Y-88117577D01*
X117565261Y-88244669D01*
X117457169Y-88352761D01*
X117406564Y-88386574D01*
X117330074Y-88437683D01*
X117188851Y-88496179D01*
X117188850Y-88496179D01*
X117188848Y-88496180D01*
X117038931Y-88526000D01*
X116886069Y-88526000D01*
X116736152Y-88496180D01*
X116736150Y-88496179D01*
X116736149Y-88496179D01*
X116594926Y-88437683D01*
X116518436Y-88386574D01*
X116467831Y-88352761D01*
X116359739Y-88244669D01*
X116274819Y-88117577D01*
X116274817Y-88117574D01*
X116216321Y-87976351D01*
X116186500Y-87826429D01*
X116186500Y-87673569D01*
X116216320Y-87523652D01*
X116217742Y-87520218D01*
X116274817Y-87382426D01*
X116278535Y-87376862D01*
X116359739Y-87255331D01*
X116467831Y-87147239D01*
X116594925Y-87062318D01*
X116594926Y-87062317D01*
X116645228Y-87041481D01*
X116666836Y-87029932D01*
X116685778Y-87014386D01*
X116701323Y-86995444D01*
X116712874Y-86973834D01*
X116719987Y-86950385D01*
X116722389Y-86925999D01*
X116719987Y-86901613D01*
X116712874Y-86878164D01*
X116701323Y-86856553D01*
X116685777Y-86837611D01*
X116666835Y-86822066D01*
X116645225Y-86810515D01*
X116621776Y-86803402D01*
X116597390Y-86801000D01*
X116236500Y-86801000D01*
X116236500Y-83699000D01*
X116597390Y-83699000D01*
X116621776Y-83696598D01*
X116645225Y-83689485D01*
X116666836Y-83677934D01*
X116685778Y-83662389D01*
X116701323Y-83643447D01*
X116712874Y-83621836D01*
X116719987Y-83598387D01*
X116722389Y-83574001D01*
X116719987Y-83549615D01*
X116712874Y-83526166D01*
X116701323Y-83504555D01*
X116685778Y-83485613D01*
X116666836Y-83470068D01*
X116645228Y-83458519D01*
X116594926Y-83437683D01*
X116545116Y-83404401D01*
X116467831Y-83352761D01*
X116359739Y-83244669D01*
X116274819Y-83117577D01*
X116274817Y-83117574D01*
X116216321Y-82976351D01*
X116194819Y-82868250D01*
X116186500Y-82826431D01*
X116186500Y-82673569D01*
X116216320Y-82523652D01*
X116216321Y-82523649D01*
X116274817Y-82382426D01*
X116274819Y-82382423D01*
X116359739Y-82255331D01*
X116467831Y-82147239D01*
X116594923Y-82062319D01*
X116594926Y-82062317D01*
X116736149Y-82003821D01*
X116736150Y-82003821D01*
X116736152Y-82003820D01*
X116886069Y-81974000D01*
X117038931Y-81974000D01*
X117188848Y-82003820D01*
X117188848Y-82003820D01*
G37*
G36*
X123076000Y-87701000D02*
G01*
X121524000Y-87701000D01*
X121524000Y-81299000D01*
X123076000Y-81299000D01*
X123076000Y-87701000D01*
X123076000Y-87701000D01*
G37*
G36*
X128976000Y-87701000D02*
G01*
X127424000Y-87701000D01*
X127424000Y-81299000D01*
X128976000Y-81299000D01*
X128976000Y-87701000D01*
X128976000Y-87701000D01*
G37*
G36*
X130733642Y-85979781D02*
G01*
X130879414Y-86040162D01*
X130879416Y-86040163D01*
X131010608Y-86127822D01*
X131122178Y-86239392D01*
X131178293Y-86323375D01*
X131209838Y-86370586D01*
X131270219Y-86516358D01*
X131301000Y-86671107D01*
X131301000Y-86828893D01*
X131270219Y-86983642D01*
X131237630Y-87062318D01*
X131209837Y-87129416D01*
X131122178Y-87260608D01*
X131010608Y-87372178D01*
X130879416Y-87459837D01*
X130879415Y-87459838D01*
X130879414Y-87459838D01*
X130733642Y-87520219D01*
X130578893Y-87551000D01*
X130421107Y-87551000D01*
X130266358Y-87520219D01*
X130120586Y-87459838D01*
X130120585Y-87459838D01*
X130120584Y-87459837D01*
X129989392Y-87372178D01*
X129877822Y-87260608D01*
X129790163Y-87129416D01*
X129762370Y-87062318D01*
X129729781Y-86983642D01*
X129699000Y-86828893D01*
X129699000Y-86671107D01*
X129729781Y-86516358D01*
X129790162Y-86370586D01*
X129821707Y-86323375D01*
X129877822Y-86239392D01*
X129989392Y-86127822D01*
X130120584Y-86040163D01*
X130120586Y-86040162D01*
X130266358Y-85979781D01*
X130421107Y-85949000D01*
X130578893Y-85949000D01*
X130733642Y-85979781D01*
X130733642Y-85979781D01*
G37*
G36*
X140760443Y-85605519D02*
G01*
X140826627Y-85612037D01*
X140996466Y-85663557D01*
X141152991Y-85747222D01*
X141155157Y-85749000D01*
X141290186Y-85859814D01*
X141363378Y-85949000D01*
X141402778Y-85997009D01*
X141486443Y-86153534D01*
X141537963Y-86323373D01*
X141555359Y-86500000D01*
X141537963Y-86676627D01*
X141486443Y-86846466D01*
X141402778Y-87002991D01*
X141393426Y-87014386D01*
X141290186Y-87140186D01*
X141188729Y-87223448D01*
X141152991Y-87252778D01*
X140996466Y-87336443D01*
X140826627Y-87387963D01*
X140760442Y-87394482D01*
X140694260Y-87401000D01*
X140305740Y-87401000D01*
X140239558Y-87394482D01*
X140173373Y-87387963D01*
X140003534Y-87336443D01*
X139847009Y-87252778D01*
X139811271Y-87223448D01*
X139709814Y-87140186D01*
X139606574Y-87014386D01*
X139597222Y-87002991D01*
X139513557Y-86846466D01*
X139462037Y-86676627D01*
X139444641Y-86500000D01*
X139462037Y-86323373D01*
X139513557Y-86153534D01*
X139597222Y-85997009D01*
X139636622Y-85949000D01*
X139709814Y-85859814D01*
X139844843Y-85749000D01*
X139847009Y-85747222D01*
X140003534Y-85663557D01*
X140173373Y-85612037D01*
X140239557Y-85605519D01*
X140305740Y-85599000D01*
X140694260Y-85599000D01*
X140760443Y-85605519D01*
X140760443Y-85605519D01*
G37*
G36*
X115263500Y-87051000D02*
G01*
X113261500Y-87051000D01*
X113261500Y-85449000D01*
X115263500Y-85449000D01*
X115263500Y-87051000D01*
X115263500Y-87051000D01*
G37*
G36*
X136151000Y-86751000D02*
G01*
X135249000Y-86751000D01*
X135249000Y-85749000D01*
X136151000Y-85749000D01*
X136151000Y-86751000D01*
X136151000Y-86751000D01*
G37*
G36*
X134251000Y-86751000D02*
G01*
X133349000Y-86751000D01*
X133349000Y-85749000D01*
X134251000Y-85749000D01*
X134251000Y-86751000D01*
X134251000Y-86751000D01*
G37*
G36*
X130479591Y-84203085D02*
G01*
X130513569Y-84213393D01*
X130544890Y-84230134D01*
X130572339Y-84252661D01*
X130594866Y-84280110D01*
X130611607Y-84311431D01*
X130621915Y-84345409D01*
X130626000Y-84386890D01*
X130626000Y-84988110D01*
X130621915Y-85029591D01*
X130611607Y-85063569D01*
X130594866Y-85094890D01*
X130572339Y-85122339D01*
X130544890Y-85144866D01*
X130513569Y-85161607D01*
X130479591Y-85171915D01*
X130438110Y-85176000D01*
X129761890Y-85176000D01*
X129720409Y-85171915D01*
X129686431Y-85161607D01*
X129655110Y-85144866D01*
X129627661Y-85122339D01*
X129605134Y-85094890D01*
X129588393Y-85063569D01*
X129578085Y-85029591D01*
X129574000Y-84988110D01*
X129574000Y-84386890D01*
X129578085Y-84345409D01*
X129588393Y-84311431D01*
X129605134Y-84280110D01*
X129627661Y-84252661D01*
X129655110Y-84230134D01*
X129686431Y-84213393D01*
X129720409Y-84203085D01*
X129761890Y-84199000D01*
X130438110Y-84199000D01*
X130479591Y-84203085D01*
X130479591Y-84203085D01*
G37*
G36*
X115263500Y-85051000D02*
G01*
X113261500Y-85051000D01*
X113261500Y-83449000D01*
X115263500Y-83449000D01*
X115263500Y-85051000D01*
X115263500Y-85051000D01*
G37*
G36*
X141408600Y-83102989D02*
G01*
X141441652Y-83113015D01*
X141472103Y-83129292D01*
X141498799Y-83151201D01*
X141520708Y-83177897D01*
X141536985Y-83208348D01*
X141547011Y-83241400D01*
X141551000Y-83281903D01*
X141551000Y-84718097D01*
X141547011Y-84758600D01*
X141536985Y-84791652D01*
X141520708Y-84822103D01*
X141498799Y-84848799D01*
X141472103Y-84870708D01*
X141441652Y-84886985D01*
X141408600Y-84897011D01*
X141368097Y-84901000D01*
X139631903Y-84901000D01*
X139591400Y-84897011D01*
X139558348Y-84886985D01*
X139527897Y-84870708D01*
X139501201Y-84848799D01*
X139479292Y-84822103D01*
X139463015Y-84791652D01*
X139452989Y-84758600D01*
X139449000Y-84718097D01*
X139449000Y-83281903D01*
X139452989Y-83241400D01*
X139463015Y-83208348D01*
X139479292Y-83177897D01*
X139501201Y-83151201D01*
X139527897Y-83129292D01*
X139558348Y-83113015D01*
X139591400Y-83102989D01*
X139631903Y-83099000D01*
X141368097Y-83099000D01*
X141408600Y-83102989D01*
X141408600Y-83102989D01*
G37*
G36*
X135201000Y-84751000D02*
G01*
X134299000Y-84751000D01*
X134299000Y-83749000D01*
X135201000Y-83749000D01*
X135201000Y-84751000D01*
X135201000Y-84751000D01*
G37*
G36*
X130479591Y-82628085D02*
G01*
X130513569Y-82638393D01*
X130544890Y-82655134D01*
X130572339Y-82677661D01*
X130594866Y-82705110D01*
X130611607Y-82736431D01*
X130621915Y-82770409D01*
X130626000Y-82811890D01*
X130626000Y-83413110D01*
X130621915Y-83454591D01*
X130611607Y-83488569D01*
X130594866Y-83519890D01*
X130572339Y-83547339D01*
X130544890Y-83569866D01*
X130513569Y-83586607D01*
X130479591Y-83596915D01*
X130438110Y-83601000D01*
X129761890Y-83601000D01*
X129720409Y-83596915D01*
X129686431Y-83586607D01*
X129655110Y-83569866D01*
X129627661Y-83547339D01*
X129605134Y-83519890D01*
X129588393Y-83488569D01*
X129578085Y-83454591D01*
X129574000Y-83413110D01*
X129574000Y-82811890D01*
X129578085Y-82770409D01*
X129588393Y-82736431D01*
X129605134Y-82705110D01*
X129627661Y-82677661D01*
X129655110Y-82655134D01*
X129686431Y-82638393D01*
X129720409Y-82628085D01*
X129761890Y-82624000D01*
X130438110Y-82624000D01*
X130479591Y-82628085D01*
X130479591Y-82628085D01*
G37*
G36*
X134184468Y-81753565D02*
G01*
X134223138Y-81765296D01*
X134258777Y-81784346D01*
X134290017Y-81809983D01*
X134315654Y-81841223D01*
X134334704Y-81876862D01*
X134346435Y-81915532D01*
X134351000Y-81961888D01*
X134351000Y-83038112D01*
X134346435Y-83084468D01*
X134334704Y-83123138D01*
X134315654Y-83158777D01*
X134290017Y-83190017D01*
X134258777Y-83215654D01*
X134223138Y-83234704D01*
X134184468Y-83246435D01*
X134138112Y-83251000D01*
X133486888Y-83251000D01*
X133440532Y-83246435D01*
X133401862Y-83234704D01*
X133366223Y-83215654D01*
X133334983Y-83190017D01*
X133309346Y-83158777D01*
X133290296Y-83123138D01*
X133278565Y-83084468D01*
X133274000Y-83038112D01*
X133274000Y-81961888D01*
X133278565Y-81915532D01*
X133290296Y-81876862D01*
X133309346Y-81841223D01*
X133334983Y-81809983D01*
X133366223Y-81784346D01*
X133401862Y-81765296D01*
X133440532Y-81753565D01*
X133486888Y-81749000D01*
X134138112Y-81749000D01*
X134184468Y-81753565D01*
X134184468Y-81753565D01*
G37*
G36*
X136059468Y-81753565D02*
G01*
X136098138Y-81765296D01*
X136133777Y-81784346D01*
X136165017Y-81809983D01*
X136190654Y-81841223D01*
X136209704Y-81876862D01*
X136221435Y-81915532D01*
X136226000Y-81961888D01*
X136226000Y-83038112D01*
X136221435Y-83084468D01*
X136209704Y-83123138D01*
X136190654Y-83158777D01*
X136165017Y-83190017D01*
X136133777Y-83215654D01*
X136098138Y-83234704D01*
X136059468Y-83246435D01*
X136013112Y-83251000D01*
X135361888Y-83251000D01*
X135315532Y-83246435D01*
X135276862Y-83234704D01*
X135241223Y-83215654D01*
X135209983Y-83190017D01*
X135184346Y-83158777D01*
X135165296Y-83123138D01*
X135153565Y-83084468D01*
X135149000Y-83038112D01*
X135149000Y-81961888D01*
X135153565Y-81915532D01*
X135165296Y-81876862D01*
X135184346Y-81841223D01*
X135209983Y-81809983D01*
X135241223Y-81784346D01*
X135276862Y-81765296D01*
X135315532Y-81753565D01*
X135361888Y-81749000D01*
X136013112Y-81749000D01*
X136059468Y-81753565D01*
X136059468Y-81753565D01*
G37*
G36*
X114676355Y-81102140D02*
G01*
X114740118Y-81108420D01*
X114830904Y-81135960D01*
X114862836Y-81145646D01*
X114975925Y-81206094D01*
X115075054Y-81287446D01*
X115156406Y-81386575D01*
X115216854Y-81499664D01*
X115216855Y-81499668D01*
X115250413Y-81610292D01*
X115259787Y-81632925D01*
X115263500Y-81638482D01*
X115263500Y-81711886D01*
X115264102Y-81724138D01*
X115266649Y-81750000D01*
X115264102Y-81775862D01*
X115263500Y-81788114D01*
X115263500Y-83001000D01*
X113261500Y-83001000D01*
X113261500Y-81788114D01*
X113260898Y-81775862D01*
X113258351Y-81750000D01*
X113260898Y-81724138D01*
X113261500Y-81711886D01*
X113261500Y-81638594D01*
X113270457Y-81621836D01*
X113274585Y-81610299D01*
X113308145Y-81499668D01*
X113308146Y-81499664D01*
X113368594Y-81386575D01*
X113449946Y-81287446D01*
X113549075Y-81206094D01*
X113662164Y-81145646D01*
X113694096Y-81135960D01*
X113784882Y-81108420D01*
X113848645Y-81102140D01*
X113880526Y-81099000D01*
X114644474Y-81099000D01*
X114676355Y-81102140D01*
X114676355Y-81102140D01*
G37*
G36*
X130601000Y-81901000D02*
G01*
X129599000Y-81901000D01*
X129599000Y-80999000D01*
X130601000Y-80999000D01*
X130601000Y-81901000D01*
X130601000Y-81901000D01*
G37*
G36*
X132601000Y-80951000D02*
G01*
X131599000Y-80951000D01*
X131599000Y-80049000D01*
X132601000Y-80049000D01*
X132601000Y-80951000D01*
X132601000Y-80951000D01*
G37*
G36*
X126379591Y-79553085D02*
G01*
X126413569Y-79563393D01*
X126444890Y-79580134D01*
X126472339Y-79602661D01*
X126494866Y-79630110D01*
X126511607Y-79661431D01*
X126521915Y-79695409D01*
X126526000Y-79736890D01*
X126526000Y-80338110D01*
X126521915Y-80379591D01*
X126511607Y-80413569D01*
X126494866Y-80444890D01*
X126472339Y-80472339D01*
X126444890Y-80494866D01*
X126413569Y-80511607D01*
X126379591Y-80521915D01*
X126338110Y-80526000D01*
X125661890Y-80526000D01*
X125620409Y-80521915D01*
X125586431Y-80511607D01*
X125555110Y-80494866D01*
X125527661Y-80472339D01*
X125505134Y-80444890D01*
X125488393Y-80413569D01*
X125478085Y-80379591D01*
X125474000Y-80338110D01*
X125474000Y-79736890D01*
X125478085Y-79695409D01*
X125488393Y-79661431D01*
X125505134Y-79630110D01*
X125527661Y-79602661D01*
X125555110Y-79580134D01*
X125586431Y-79563393D01*
X125620409Y-79553085D01*
X125661890Y-79549000D01*
X126338110Y-79549000D01*
X126379591Y-79553085D01*
X126379591Y-79553085D01*
G37*
G36*
X124129591Y-79553085D02*
G01*
X124163569Y-79563393D01*
X124194890Y-79580134D01*
X124222339Y-79602661D01*
X124244866Y-79630110D01*
X124261607Y-79661431D01*
X124271915Y-79695409D01*
X124276000Y-79736890D01*
X124276000Y-80338110D01*
X124271915Y-80379591D01*
X124261607Y-80413569D01*
X124244866Y-80444890D01*
X124222339Y-80472339D01*
X124194890Y-80494866D01*
X124163569Y-80511607D01*
X124129591Y-80521915D01*
X124088110Y-80526000D01*
X123411890Y-80526000D01*
X123370409Y-80521915D01*
X123336431Y-80511607D01*
X123305110Y-80494866D01*
X123277661Y-80472339D01*
X123255134Y-80444890D01*
X123238393Y-80413569D01*
X123228085Y-80379591D01*
X123224000Y-80338110D01*
X123224000Y-79736890D01*
X123228085Y-79695409D01*
X123238393Y-79661431D01*
X123255134Y-79630110D01*
X123277661Y-79602661D01*
X123305110Y-79580134D01*
X123336431Y-79563393D01*
X123370409Y-79553085D01*
X123411890Y-79549000D01*
X124088110Y-79549000D01*
X124129591Y-79553085D01*
X124129591Y-79553085D01*
G37*
G36*
X128233642Y-78729781D02*
G01*
X128379414Y-78790162D01*
X128379416Y-78790163D01*
X128510608Y-78877822D01*
X128622178Y-78989392D01*
X128695415Y-79099000D01*
X128709838Y-79120586D01*
X128770219Y-79266358D01*
X128801000Y-79421107D01*
X128801000Y-79578893D01*
X128770219Y-79733642D01*
X128709838Y-79879414D01*
X128709837Y-79879416D01*
X128622178Y-80010608D01*
X128510608Y-80122178D01*
X128379416Y-80209837D01*
X128379415Y-80209838D01*
X128379414Y-80209838D01*
X128233642Y-80270219D01*
X128078893Y-80301000D01*
X127921107Y-80301000D01*
X127766358Y-80270219D01*
X127620586Y-80209838D01*
X127620585Y-80209838D01*
X127620584Y-80209837D01*
X127489392Y-80122178D01*
X127377822Y-80010608D01*
X127290163Y-79879416D01*
X127290162Y-79879414D01*
X127229781Y-79733642D01*
X127199000Y-79578893D01*
X127199000Y-79421107D01*
X127229781Y-79266358D01*
X127290162Y-79120586D01*
X127304585Y-79099000D01*
X127377822Y-78989392D01*
X127489392Y-78877822D01*
X127620584Y-78790163D01*
X127620586Y-78790162D01*
X127766358Y-78729781D01*
X127921107Y-78699000D01*
X128078893Y-78699000D01*
X128233642Y-78729781D01*
X128233642Y-78729781D01*
G37*
G36*
X130601000Y-80001000D02*
G01*
X129599000Y-80001000D01*
X129599000Y-79099000D01*
X130601000Y-79099000D01*
X130601000Y-80001000D01*
X130601000Y-80001000D01*
G37*
G36*
X116818604Y-78078347D02*
G01*
X116855144Y-78089432D01*
X116888821Y-78107433D01*
X116918341Y-78131659D01*
X116942567Y-78161179D01*
X116960568Y-78194856D01*
X116971653Y-78231396D01*
X116976000Y-78275538D01*
X116976000Y-79724462D01*
X116971653Y-79768604D01*
X116960568Y-79805144D01*
X116942567Y-79838821D01*
X116918341Y-79868341D01*
X116888821Y-79892567D01*
X116855144Y-79910568D01*
X116818604Y-79921653D01*
X116774462Y-79926000D01*
X115825538Y-79926000D01*
X115781396Y-79921653D01*
X115744856Y-79910568D01*
X115711179Y-79892567D01*
X115681659Y-79868341D01*
X115657433Y-79838821D01*
X115639432Y-79805144D01*
X115628347Y-79768604D01*
X115624000Y-79724462D01*
X115624000Y-78275538D01*
X115628347Y-78231396D01*
X115639432Y-78194856D01*
X115657433Y-78161179D01*
X115681659Y-78131659D01*
X115711179Y-78107433D01*
X115744856Y-78089432D01*
X115781396Y-78078347D01*
X115825538Y-78074000D01*
X116774462Y-78074000D01*
X116818604Y-78078347D01*
X116818604Y-78078347D01*
G37*
G36*
X119618604Y-78078347D02*
G01*
X119655144Y-78089432D01*
X119688821Y-78107433D01*
X119718341Y-78131659D01*
X119742567Y-78161179D01*
X119760568Y-78194856D01*
X119771653Y-78231396D01*
X119776000Y-78275538D01*
X119776000Y-79724462D01*
X119771653Y-79768604D01*
X119760568Y-79805144D01*
X119742567Y-79838821D01*
X119718341Y-79868341D01*
X119688821Y-79892567D01*
X119655144Y-79910568D01*
X119618604Y-79921653D01*
X119574462Y-79926000D01*
X118625538Y-79926000D01*
X118581396Y-79921653D01*
X118544856Y-79910568D01*
X118511179Y-79892567D01*
X118481659Y-79868341D01*
X118457433Y-79838821D01*
X118439432Y-79805144D01*
X118428347Y-79768604D01*
X118424000Y-79724462D01*
X118424000Y-78275538D01*
X118428347Y-78231396D01*
X118439432Y-78194856D01*
X118457433Y-78161179D01*
X118481659Y-78131659D01*
X118511179Y-78107433D01*
X118544856Y-78089432D01*
X118581396Y-78078347D01*
X118625538Y-78074000D01*
X119574462Y-78074000D01*
X119618604Y-78078347D01*
X119618604Y-78078347D01*
G37*
G36*
X134184468Y-78353565D02*
G01*
X134223138Y-78365296D01*
X134258777Y-78384346D01*
X134290017Y-78409983D01*
X134315654Y-78441223D01*
X134334704Y-78476862D01*
X134346435Y-78515532D01*
X134351000Y-78561888D01*
X134351000Y-79638112D01*
X134346435Y-79684468D01*
X134334704Y-79723138D01*
X134315654Y-79758777D01*
X134290017Y-79790017D01*
X134258777Y-79815654D01*
X134223138Y-79834704D01*
X134184468Y-79846435D01*
X134138112Y-79851000D01*
X133486888Y-79851000D01*
X133440532Y-79846435D01*
X133401862Y-79834704D01*
X133366223Y-79815654D01*
X133334983Y-79790017D01*
X133309346Y-79758777D01*
X133290296Y-79723138D01*
X133278565Y-79684468D01*
X133274000Y-79638112D01*
X133274000Y-78561888D01*
X133278565Y-78515532D01*
X133290296Y-78476862D01*
X133309346Y-78441223D01*
X133334983Y-78409983D01*
X133366223Y-78384346D01*
X133401862Y-78365296D01*
X133440532Y-78353565D01*
X133486888Y-78349000D01*
X134138112Y-78349000D01*
X134184468Y-78353565D01*
X134184468Y-78353565D01*
G37*
G36*
X136059468Y-78353565D02*
G01*
X136098138Y-78365296D01*
X136133777Y-78384346D01*
X136165017Y-78409983D01*
X136190654Y-78441223D01*
X136209704Y-78476862D01*
X136221435Y-78515532D01*
X136226000Y-78561888D01*
X136226000Y-79638112D01*
X136221435Y-79684468D01*
X136209704Y-79723138D01*
X136190654Y-79758777D01*
X136165017Y-79790017D01*
X136133777Y-79815654D01*
X136098138Y-79834704D01*
X136059468Y-79846435D01*
X136013112Y-79851000D01*
X135361888Y-79851000D01*
X135315532Y-79846435D01*
X135276862Y-79834704D01*
X135241223Y-79815654D01*
X135209983Y-79790017D01*
X135184346Y-79758777D01*
X135165296Y-79723138D01*
X135153565Y-79684468D01*
X135149000Y-79638112D01*
X135149000Y-78561888D01*
X135153565Y-78515532D01*
X135165296Y-78476862D01*
X135184346Y-78441223D01*
X135209983Y-78409983D01*
X135241223Y-78384346D01*
X135276862Y-78365296D01*
X135315532Y-78353565D01*
X135361888Y-78349000D01*
X136013112Y-78349000D01*
X136059468Y-78353565D01*
X136059468Y-78353565D01*
G37*
G36*
X126379591Y-77978085D02*
G01*
X126413569Y-77988393D01*
X126444890Y-78005134D01*
X126472339Y-78027661D01*
X126494866Y-78055110D01*
X126511607Y-78086431D01*
X126521915Y-78120409D01*
X126526000Y-78161890D01*
X126526000Y-78763110D01*
X126521915Y-78804591D01*
X126511607Y-78838569D01*
X126494866Y-78869890D01*
X126472339Y-78897339D01*
X126444890Y-78919866D01*
X126413569Y-78936607D01*
X126379591Y-78946915D01*
X126338110Y-78951000D01*
X125661890Y-78951000D01*
X125620409Y-78946915D01*
X125586431Y-78936607D01*
X125555110Y-78919866D01*
X125527661Y-78897339D01*
X125505134Y-78869890D01*
X125488393Y-78838569D01*
X125478085Y-78804591D01*
X125474000Y-78763110D01*
X125474000Y-78161890D01*
X125478085Y-78120409D01*
X125488393Y-78086431D01*
X125505134Y-78055110D01*
X125527661Y-78027661D01*
X125555110Y-78005134D01*
X125586431Y-77988393D01*
X125620409Y-77978085D01*
X125661890Y-77974000D01*
X126338110Y-77974000D01*
X126379591Y-77978085D01*
X126379591Y-77978085D01*
G37*
G36*
X124129591Y-77978085D02*
G01*
X124163569Y-77988393D01*
X124194890Y-78005134D01*
X124222339Y-78027661D01*
X124244866Y-78055110D01*
X124261607Y-78086431D01*
X124271915Y-78120409D01*
X124276000Y-78161890D01*
X124276000Y-78763110D01*
X124271915Y-78804591D01*
X124261607Y-78838569D01*
X124244866Y-78869890D01*
X124222339Y-78897339D01*
X124194890Y-78919866D01*
X124163569Y-78936607D01*
X124129591Y-78946915D01*
X124088110Y-78951000D01*
X123411890Y-78951000D01*
X123370409Y-78946915D01*
X123336431Y-78936607D01*
X123305110Y-78919866D01*
X123277661Y-78897339D01*
X123255134Y-78869890D01*
X123238393Y-78838569D01*
X123228085Y-78804591D01*
X123224000Y-78763110D01*
X123224000Y-78161890D01*
X123228085Y-78120409D01*
X123238393Y-78086431D01*
X123255134Y-78055110D01*
X123277661Y-78027661D01*
X123305110Y-78005134D01*
X123336431Y-77988393D01*
X123370409Y-77978085D01*
X123411890Y-77974000D01*
X124088110Y-77974000D01*
X124129591Y-77978085D01*
X124129591Y-77978085D01*
G37*
G36*
X124334468Y-76153565D02*
G01*
X124373138Y-76165296D01*
X124408777Y-76184346D01*
X124440017Y-76209983D01*
X124465654Y-76241223D01*
X124484704Y-76276862D01*
X124496435Y-76315532D01*
X124501000Y-76361888D01*
X124501000Y-77013112D01*
X124496435Y-77059468D01*
X124484704Y-77098138D01*
X124465654Y-77133777D01*
X124440017Y-77165017D01*
X124408777Y-77190654D01*
X124373138Y-77209704D01*
X124334468Y-77221435D01*
X124288112Y-77226000D01*
X123211888Y-77226000D01*
X123165532Y-77221435D01*
X123126862Y-77209704D01*
X123091223Y-77190654D01*
X123059983Y-77165017D01*
X123034346Y-77133777D01*
X123015296Y-77098138D01*
X123003565Y-77059468D01*
X122999000Y-77013112D01*
X122999000Y-76361888D01*
X123003565Y-76315532D01*
X123015296Y-76276862D01*
X123034346Y-76241223D01*
X123059983Y-76209983D01*
X123091223Y-76184346D01*
X123126862Y-76165296D01*
X123165532Y-76153565D01*
X123211888Y-76149000D01*
X124288112Y-76149000D01*
X124334468Y-76153565D01*
X124334468Y-76153565D01*
G37*
G36*
X115334468Y-76153565D02*
G01*
X115373138Y-76165296D01*
X115408777Y-76184346D01*
X115440017Y-76209983D01*
X115465654Y-76241223D01*
X115484704Y-76276862D01*
X115496435Y-76315532D01*
X115501000Y-76361888D01*
X115501000Y-77013112D01*
X115496435Y-77059468D01*
X115484704Y-77098138D01*
X115465654Y-77133777D01*
X115440017Y-77165017D01*
X115408777Y-77190654D01*
X115373138Y-77209704D01*
X115334468Y-77221435D01*
X115288112Y-77226000D01*
X114211888Y-77226000D01*
X114165532Y-77221435D01*
X114126862Y-77209704D01*
X114091223Y-77190654D01*
X114059983Y-77165017D01*
X114034346Y-77133777D01*
X114015296Y-77098138D01*
X114003565Y-77059468D01*
X113999000Y-77013112D01*
X113999000Y-76361888D01*
X114003565Y-76315532D01*
X114015296Y-76276862D01*
X114034346Y-76241223D01*
X114059983Y-76209983D01*
X114091223Y-76184346D01*
X114126862Y-76165296D01*
X114165532Y-76153565D01*
X114211888Y-76149000D01*
X115288112Y-76149000D01*
X115334468Y-76153565D01*
X115334468Y-76153565D01*
G37*
G36*
X126584468Y-76153565D02*
G01*
X126623138Y-76165296D01*
X126658777Y-76184346D01*
X126690017Y-76209983D01*
X126715654Y-76241223D01*
X126734704Y-76276862D01*
X126746435Y-76315532D01*
X126751000Y-76361888D01*
X126751000Y-77013112D01*
X126746435Y-77059468D01*
X126734704Y-77098138D01*
X126715654Y-77133777D01*
X126690017Y-77165017D01*
X126658777Y-77190654D01*
X126623138Y-77209704D01*
X126584468Y-77221435D01*
X126538112Y-77226000D01*
X125461888Y-77226000D01*
X125415532Y-77221435D01*
X125376862Y-77209704D01*
X125341223Y-77190654D01*
X125309983Y-77165017D01*
X125284346Y-77133777D01*
X125265296Y-77098138D01*
X125253565Y-77059468D01*
X125249000Y-77013112D01*
X125249000Y-76361888D01*
X125253565Y-76315532D01*
X125265296Y-76276862D01*
X125284346Y-76241223D01*
X125309983Y-76209983D01*
X125341223Y-76184346D01*
X125376862Y-76165296D01*
X125415532Y-76153565D01*
X125461888Y-76149000D01*
X126538112Y-76149000D01*
X126584468Y-76153565D01*
X126584468Y-76153565D01*
G37*
G36*
X122084468Y-76153565D02*
G01*
X122123138Y-76165296D01*
X122158777Y-76184346D01*
X122190017Y-76209983D01*
X122215654Y-76241223D01*
X122234704Y-76276862D01*
X122246435Y-76315532D01*
X122251000Y-76361888D01*
X122251000Y-77013112D01*
X122246435Y-77059468D01*
X122234704Y-77098138D01*
X122215654Y-77133777D01*
X122190017Y-77165017D01*
X122158777Y-77190654D01*
X122123138Y-77209704D01*
X122084468Y-77221435D01*
X122038112Y-77226000D01*
X120961888Y-77226000D01*
X120915532Y-77221435D01*
X120876862Y-77209704D01*
X120841223Y-77190654D01*
X120809983Y-77165017D01*
X120784346Y-77133777D01*
X120765296Y-77098138D01*
X120753565Y-77059468D01*
X120749000Y-77013112D01*
X120749000Y-76361888D01*
X120753565Y-76315532D01*
X120765296Y-76276862D01*
X120784346Y-76241223D01*
X120809983Y-76209983D01*
X120841223Y-76184346D01*
X120876862Y-76165296D01*
X120915532Y-76153565D01*
X120961888Y-76149000D01*
X122038112Y-76149000D01*
X122084468Y-76153565D01*
X122084468Y-76153565D01*
G37*
G36*
X120181000Y-77076000D02*
G01*
X119019000Y-77076000D01*
X119019000Y-76324000D01*
X120181000Y-76324000D01*
X120181000Y-77076000D01*
X120181000Y-77076000D01*
G37*
G36*
X117981000Y-77076000D02*
G01*
X116819000Y-77076000D01*
X116819000Y-74424000D01*
X117981000Y-74424000D01*
X117981000Y-77076000D01*
X117981000Y-77076000D01*
G37*
G36*
X135750442Y-75105518D02*
G01*
X135816627Y-75112037D01*
X135986466Y-75163557D01*
X136142991Y-75247222D01*
X136173352Y-75272139D01*
X136280186Y-75359814D01*
X136363448Y-75461271D01*
X136392778Y-75497009D01*
X136476443Y-75653534D01*
X136527963Y-75823373D01*
X136545359Y-76000000D01*
X136527963Y-76176627D01*
X136476443Y-76346466D01*
X136392778Y-76502991D01*
X136363448Y-76538729D01*
X136280186Y-76640186D01*
X136178729Y-76723448D01*
X136142991Y-76752778D01*
X135986466Y-76836443D01*
X135816627Y-76887963D01*
X135750442Y-76894482D01*
X135684260Y-76901000D01*
X135595740Y-76901000D01*
X135529558Y-76894482D01*
X135463373Y-76887963D01*
X135293534Y-76836443D01*
X135137009Y-76752778D01*
X135101271Y-76723448D01*
X134999814Y-76640186D01*
X134916552Y-76538729D01*
X134887222Y-76502991D01*
X134803557Y-76346466D01*
X134752037Y-76176627D01*
X134734641Y-76000000D01*
X134752037Y-75823373D01*
X134803557Y-75653534D01*
X134887222Y-75497009D01*
X134916552Y-75461271D01*
X134999814Y-75359814D01*
X135106648Y-75272139D01*
X135137009Y-75247222D01*
X135293534Y-75163557D01*
X135463373Y-75112037D01*
X135529558Y-75105518D01*
X135595740Y-75099000D01*
X135684260Y-75099000D01*
X135750442Y-75105518D01*
X135750442Y-75105518D01*
G37*
G36*
X134001000Y-76901000D02*
G01*
X132199000Y-76901000D01*
X132199000Y-75099000D01*
X134001000Y-75099000D01*
X134001000Y-76901000D01*
X134001000Y-76901000D01*
G37*
G36*
X126584468Y-74278565D02*
G01*
X126623138Y-74290296D01*
X126658777Y-74309346D01*
X126690017Y-74334983D01*
X126715654Y-74366223D01*
X126734704Y-74401862D01*
X126746435Y-74440532D01*
X126751000Y-74486888D01*
X126751000Y-75138112D01*
X126746435Y-75184468D01*
X126734704Y-75223138D01*
X126715654Y-75258777D01*
X126690017Y-75290017D01*
X126658777Y-75315654D01*
X126623138Y-75334704D01*
X126584468Y-75346435D01*
X126538112Y-75351000D01*
X125461888Y-75351000D01*
X125415532Y-75346435D01*
X125376862Y-75334704D01*
X125341223Y-75315654D01*
X125309983Y-75290017D01*
X125284346Y-75258777D01*
X125265296Y-75223138D01*
X125253565Y-75184468D01*
X125249000Y-75138112D01*
X125249000Y-74486888D01*
X125253565Y-74440532D01*
X125265296Y-74401862D01*
X125284346Y-74366223D01*
X125309983Y-74334983D01*
X125341223Y-74309346D01*
X125376862Y-74290296D01*
X125415532Y-74278565D01*
X125461888Y-74274000D01*
X126538112Y-74274000D01*
X126584468Y-74278565D01*
X126584468Y-74278565D01*
G37*
G36*
X124334468Y-74278565D02*
G01*
X124373138Y-74290296D01*
X124408777Y-74309346D01*
X124440017Y-74334983D01*
X124465654Y-74366223D01*
X124484704Y-74401862D01*
X124496435Y-74440532D01*
X124501000Y-74486888D01*
X124501000Y-75138112D01*
X124496435Y-75184468D01*
X124484704Y-75223138D01*
X124465654Y-75258777D01*
X124440017Y-75290017D01*
X124408777Y-75315654D01*
X124373138Y-75334704D01*
X124334468Y-75346435D01*
X124288112Y-75351000D01*
X123211888Y-75351000D01*
X123165532Y-75346435D01*
X123126862Y-75334704D01*
X123091223Y-75315654D01*
X123059983Y-75290017D01*
X123034346Y-75258777D01*
X123015296Y-75223138D01*
X123003565Y-75184468D01*
X122999000Y-75138112D01*
X122999000Y-74486888D01*
X123003565Y-74440532D01*
X123015296Y-74401862D01*
X123034346Y-74366223D01*
X123059983Y-74334983D01*
X123091223Y-74309346D01*
X123126862Y-74290296D01*
X123165532Y-74278565D01*
X123211888Y-74274000D01*
X124288112Y-74274000D01*
X124334468Y-74278565D01*
X124334468Y-74278565D01*
G37*
G36*
X122084468Y-74278565D02*
G01*
X122123138Y-74290296D01*
X122158777Y-74309346D01*
X122190017Y-74334983D01*
X122215654Y-74366223D01*
X122234704Y-74401862D01*
X122246435Y-74440532D01*
X122251000Y-74486888D01*
X122251000Y-75138112D01*
X122246435Y-75184468D01*
X122234704Y-75223138D01*
X122215654Y-75258777D01*
X122190017Y-75290017D01*
X122158777Y-75315654D01*
X122123138Y-75334704D01*
X122084468Y-75346435D01*
X122038112Y-75351000D01*
X120961888Y-75351000D01*
X120915532Y-75346435D01*
X120876862Y-75334704D01*
X120841223Y-75315654D01*
X120809983Y-75290017D01*
X120784346Y-75258777D01*
X120765296Y-75223138D01*
X120753565Y-75184468D01*
X120749000Y-75138112D01*
X120749000Y-74486888D01*
X120753565Y-74440532D01*
X120765296Y-74401862D01*
X120784346Y-74366223D01*
X120809983Y-74334983D01*
X120841223Y-74309346D01*
X120876862Y-74290296D01*
X120915532Y-74278565D01*
X120961888Y-74274000D01*
X122038112Y-74274000D01*
X122084468Y-74278565D01*
X122084468Y-74278565D01*
G37*
G36*
X115334468Y-74278565D02*
G01*
X115373138Y-74290296D01*
X115408777Y-74309346D01*
X115440017Y-74334983D01*
X115465654Y-74366223D01*
X115484704Y-74401862D01*
X115496435Y-74440532D01*
X115501000Y-74486888D01*
X115501000Y-75138112D01*
X115496435Y-75184468D01*
X115484704Y-75223138D01*
X115465654Y-75258777D01*
X115440017Y-75290017D01*
X115408777Y-75315654D01*
X115373138Y-75334704D01*
X115334468Y-75346435D01*
X115288112Y-75351000D01*
X114211888Y-75351000D01*
X114165532Y-75346435D01*
X114126862Y-75334704D01*
X114091223Y-75315654D01*
X114059983Y-75290017D01*
X114034346Y-75258777D01*
X114015296Y-75223138D01*
X114003565Y-75184468D01*
X113999000Y-75138112D01*
X113999000Y-74486888D01*
X114003565Y-74440532D01*
X114015296Y-74401862D01*
X114034346Y-74366223D01*
X114059983Y-74334983D01*
X114091223Y-74309346D01*
X114126862Y-74290296D01*
X114165532Y-74278565D01*
X114211888Y-74274000D01*
X115288112Y-74274000D01*
X115334468Y-74278565D01*
X115334468Y-74278565D01*
G37*
G36*
X120181000Y-75176000D02*
G01*
X119019000Y-75176000D01*
X119019000Y-74424000D01*
X120181000Y-74424000D01*
X120181000Y-75176000D01*
X120181000Y-75176000D01*
G37*
M02*
