%TF.GenerationSoftware,KiCad,Pcbnew,(5.99.0-10613-g4d227d2d2b)*%
%TF.CreationDate,2021-05-26T08:20:35+03:00*%
%TF.ProjectId,stm32_ds2480_emu_panel,73746d33-325f-4647-9332-3438305f656d,rev?*%
%TF.SameCoordinates,Original*%
%TF.FileFunction,Legend,Top*%
%TF.FilePolarity,Positive*%
%FSLAX46Y46*%
G04 Gerber Fmt 4.6, Leading zero omitted, Abs format (unit mm)*
G04 Created by KiCad (PCBNEW (5.99.0-10613-g4d227d2d2b)) date 2021-05-26 08:20:35*
%MOMM*%
%LPD*%
G01*
G04 APERTURE LIST*
%ADD10C,0.100000*%
%ADD11C,0.120000*%
G04 APERTURE END LIST*
D10*
X63728568Y-52871425D02*
X63842854Y-52871425D01*
X63899997Y-52899997D01*
X63957139Y-52957139D01*
X63985711Y-53071425D01*
X63985711Y-53271425D01*
X63957139Y-53385711D01*
X63899997Y-53442854D01*
X63842854Y-53471425D01*
X63728568Y-53471425D01*
X63671425Y-53442854D01*
X63614282Y-53385711D01*
X63585711Y-53271425D01*
X63585711Y-53071425D01*
X63614282Y-52957139D01*
X63671425Y-52899997D01*
X63728568Y-52871425D01*
X64185711Y-52871425D02*
X64328568Y-53471425D01*
X64442854Y-53042854D01*
X64557139Y-53471425D01*
X64699997Y-52871425D01*
X64928568Y-53242854D02*
X65385711Y-53242854D01*
X71271437Y-47128574D02*
X71157151Y-47128574D01*
X71100009Y-47100003D01*
X71042866Y-47042860D01*
X71014294Y-46928574D01*
X71014294Y-46728574D01*
X71042866Y-46614288D01*
X71100009Y-46557145D01*
X71157151Y-46528574D01*
X71271437Y-46528574D01*
X71328580Y-46557145D01*
X71385723Y-46614288D01*
X71414294Y-46728574D01*
X71414294Y-46928574D01*
X71385723Y-47042860D01*
X71328580Y-47100003D01*
X71271437Y-47128574D01*
X70814294Y-47128574D02*
X70671437Y-46528574D01*
X70557151Y-46957145D01*
X70442866Y-46528574D01*
X70300009Y-47128574D01*
X70071437Y-46757145D02*
X69614294Y-46757145D01*
X63728568Y-68871432D02*
X63842854Y-68871432D01*
X63899997Y-68900004D01*
X63957139Y-68957146D01*
X63985711Y-69071432D01*
X63985711Y-69271432D01*
X63957139Y-69385718D01*
X63899997Y-69442861D01*
X63842854Y-69471432D01*
X63728568Y-69471432D01*
X63671425Y-69442861D01*
X63614282Y-69385718D01*
X63585711Y-69271432D01*
X63585711Y-69071432D01*
X63614282Y-68957146D01*
X63671425Y-68900004D01*
X63728568Y-68871432D01*
X64185711Y-68871432D02*
X64328568Y-69471432D01*
X64442854Y-69042861D01*
X64557139Y-69471432D01*
X64699997Y-68871432D01*
X64928568Y-69242861D02*
X65385711Y-69242861D01*
X71271437Y-63128581D02*
X71157151Y-63128581D01*
X71100009Y-63100010D01*
X71042866Y-63042867D01*
X71014294Y-62928581D01*
X71014294Y-62728581D01*
X71042866Y-62614295D01*
X71100009Y-62557152D01*
X71157151Y-62528581D01*
X71271437Y-62528581D01*
X71328580Y-62557152D01*
X71385723Y-62614295D01*
X71414294Y-62728581D01*
X71414294Y-62928581D01*
X71385723Y-63042867D01*
X71328580Y-63100010D01*
X71271437Y-63128581D01*
X70814294Y-63128581D02*
X70671437Y-62528581D01*
X70557151Y-62957152D01*
X70442866Y-62528581D01*
X70300009Y-63128581D01*
X70071437Y-62757152D02*
X69614294Y-62757152D01*
X63728568Y-84871439D02*
X63842854Y-84871439D01*
X63899997Y-84900011D01*
X63957139Y-84957153D01*
X63985711Y-85071439D01*
X63985711Y-85271439D01*
X63957139Y-85385725D01*
X63899997Y-85442868D01*
X63842854Y-85471439D01*
X63728568Y-85471439D01*
X63671425Y-85442868D01*
X63614282Y-85385725D01*
X63585711Y-85271439D01*
X63585711Y-85071439D01*
X63614282Y-84957153D01*
X63671425Y-84900011D01*
X63728568Y-84871439D01*
X64185711Y-84871439D02*
X64328568Y-85471439D01*
X64442854Y-85042868D01*
X64557139Y-85471439D01*
X64699997Y-84871439D01*
X64928568Y-85242868D02*
X65385711Y-85242868D01*
X71271437Y-79128588D02*
X71157151Y-79128588D01*
X71100009Y-79100017D01*
X71042866Y-79042874D01*
X71014294Y-78928588D01*
X71014294Y-78728588D01*
X71042866Y-78614302D01*
X71100009Y-78557159D01*
X71157151Y-78528588D01*
X71271437Y-78528588D01*
X71328580Y-78557159D01*
X71385723Y-78614302D01*
X71414294Y-78728588D01*
X71414294Y-78928588D01*
X71385723Y-79042874D01*
X71328580Y-79100017D01*
X71271437Y-79128588D01*
X70814294Y-79128588D02*
X70671437Y-78528588D01*
X70557151Y-78957159D01*
X70442866Y-78528588D01*
X70300009Y-79128588D01*
X70071437Y-78757159D02*
X69614294Y-78757159D01*
X63728568Y-100871446D02*
X63842854Y-100871446D01*
X63899997Y-100900018D01*
X63957139Y-100957160D01*
X63985711Y-101071446D01*
X63985711Y-101271446D01*
X63957139Y-101385732D01*
X63899997Y-101442875D01*
X63842854Y-101471446D01*
X63728568Y-101471446D01*
X63671425Y-101442875D01*
X63614282Y-101385732D01*
X63585711Y-101271446D01*
X63585711Y-101071446D01*
X63614282Y-100957160D01*
X63671425Y-100900018D01*
X63728568Y-100871446D01*
X64185711Y-100871446D02*
X64328568Y-101471446D01*
X64442854Y-101042875D01*
X64557139Y-101471446D01*
X64699997Y-100871446D01*
X64928568Y-101242875D02*
X65385711Y-101242875D01*
X71271437Y-95128595D02*
X71157151Y-95128595D01*
X71100009Y-95100024D01*
X71042866Y-95042881D01*
X71014294Y-94928595D01*
X71014294Y-94728595D01*
X71042866Y-94614309D01*
X71100009Y-94557166D01*
X71157151Y-94528595D01*
X71271437Y-94528595D01*
X71328580Y-94557166D01*
X71385723Y-94614309D01*
X71414294Y-94728595D01*
X71414294Y-94928595D01*
X71385723Y-95042881D01*
X71328580Y-95100024D01*
X71271437Y-95128595D01*
X70814294Y-95128595D02*
X70671437Y-94528595D01*
X70557151Y-94957166D01*
X70442866Y-94528595D01*
X70300009Y-95128595D01*
X70071437Y-94757166D02*
X69614294Y-94757166D01*
X63728568Y-116871453D02*
X63842854Y-116871453D01*
X63899997Y-116900025D01*
X63957139Y-116957167D01*
X63985711Y-117071453D01*
X63985711Y-117271453D01*
X63957139Y-117385739D01*
X63899997Y-117442882D01*
X63842854Y-117471453D01*
X63728568Y-117471453D01*
X63671425Y-117442882D01*
X63614282Y-117385739D01*
X63585711Y-117271453D01*
X63585711Y-117071453D01*
X63614282Y-116957167D01*
X63671425Y-116900025D01*
X63728568Y-116871453D01*
X64185711Y-116871453D02*
X64328568Y-117471453D01*
X64442854Y-117042882D01*
X64557139Y-117471453D01*
X64699997Y-116871453D01*
X64928568Y-117242882D02*
X65385711Y-117242882D01*
X71271437Y-111128602D02*
X71157151Y-111128602D01*
X71100009Y-111100031D01*
X71042866Y-111042888D01*
X71014294Y-110928602D01*
X71014294Y-110728602D01*
X71042866Y-110614316D01*
X71100009Y-110557173D01*
X71157151Y-110528602D01*
X71271437Y-110528602D01*
X71328580Y-110557173D01*
X71385723Y-110614316D01*
X71414294Y-110728602D01*
X71414294Y-110928602D01*
X71385723Y-111042888D01*
X71328580Y-111100031D01*
X71271437Y-111128602D01*
X70814294Y-111128602D02*
X70671437Y-110528602D01*
X70557151Y-110957173D01*
X70442866Y-110528602D01*
X70300009Y-111128602D01*
X70071437Y-110757173D02*
X69614294Y-110757173D01*
X63728568Y-46471425D02*
X63842854Y-46471425D01*
X63899997Y-46499997D01*
X63957139Y-46557139D01*
X63985711Y-46671425D01*
X63985711Y-46871425D01*
X63957139Y-46985711D01*
X63899997Y-47042854D01*
X63842854Y-47071425D01*
X63728568Y-47071425D01*
X63671425Y-47042854D01*
X63614282Y-46985711D01*
X63585711Y-46871425D01*
X63585711Y-46671425D01*
X63614282Y-46557139D01*
X63671425Y-46499997D01*
X63728568Y-46471425D01*
X64185711Y-46471425D02*
X64328568Y-47071425D01*
X64442854Y-46642854D01*
X64557139Y-47071425D01*
X64699997Y-46471425D01*
X64928568Y-46842854D02*
X65385711Y-46842854D01*
X65157139Y-47071425D02*
X65157139Y-46614282D01*
X71271437Y-53528574D02*
X71157151Y-53528574D01*
X71100009Y-53500003D01*
X71042866Y-53442860D01*
X71014294Y-53328574D01*
X71014294Y-53128574D01*
X71042866Y-53014288D01*
X71100009Y-52957145D01*
X71157151Y-52928574D01*
X71271437Y-52928574D01*
X71328580Y-52957145D01*
X71385723Y-53014288D01*
X71414294Y-53128574D01*
X71414294Y-53328574D01*
X71385723Y-53442860D01*
X71328580Y-53500003D01*
X71271437Y-53528574D01*
X70814294Y-53528574D02*
X70671437Y-52928574D01*
X70557151Y-53357145D01*
X70442866Y-52928574D01*
X70300009Y-53528574D01*
X70071437Y-53157145D02*
X69614294Y-53157145D01*
X69842866Y-52928574D02*
X69842866Y-53385717D01*
X63728568Y-62471432D02*
X63842854Y-62471432D01*
X63899997Y-62500004D01*
X63957139Y-62557146D01*
X63985711Y-62671432D01*
X63985711Y-62871432D01*
X63957139Y-62985718D01*
X63899997Y-63042861D01*
X63842854Y-63071432D01*
X63728568Y-63071432D01*
X63671425Y-63042861D01*
X63614282Y-62985718D01*
X63585711Y-62871432D01*
X63585711Y-62671432D01*
X63614282Y-62557146D01*
X63671425Y-62500004D01*
X63728568Y-62471432D01*
X64185711Y-62471432D02*
X64328568Y-63071432D01*
X64442854Y-62642861D01*
X64557139Y-63071432D01*
X64699997Y-62471432D01*
X64928568Y-62842861D02*
X65385711Y-62842861D01*
X65157139Y-63071432D02*
X65157139Y-62614289D01*
X71271437Y-69528581D02*
X71157151Y-69528581D01*
X71100009Y-69500010D01*
X71042866Y-69442867D01*
X71014294Y-69328581D01*
X71014294Y-69128581D01*
X71042866Y-69014295D01*
X71100009Y-68957152D01*
X71157151Y-68928581D01*
X71271437Y-68928581D01*
X71328580Y-68957152D01*
X71385723Y-69014295D01*
X71414294Y-69128581D01*
X71414294Y-69328581D01*
X71385723Y-69442867D01*
X71328580Y-69500010D01*
X71271437Y-69528581D01*
X70814294Y-69528581D02*
X70671437Y-68928581D01*
X70557151Y-69357152D01*
X70442866Y-68928581D01*
X70300009Y-69528581D01*
X70071437Y-69157152D02*
X69614294Y-69157152D01*
X69842866Y-68928581D02*
X69842866Y-69385724D01*
X63728568Y-78471439D02*
X63842854Y-78471439D01*
X63899997Y-78500011D01*
X63957139Y-78557153D01*
X63985711Y-78671439D01*
X63985711Y-78871439D01*
X63957139Y-78985725D01*
X63899997Y-79042868D01*
X63842854Y-79071439D01*
X63728568Y-79071439D01*
X63671425Y-79042868D01*
X63614282Y-78985725D01*
X63585711Y-78871439D01*
X63585711Y-78671439D01*
X63614282Y-78557153D01*
X63671425Y-78500011D01*
X63728568Y-78471439D01*
X64185711Y-78471439D02*
X64328568Y-79071439D01*
X64442854Y-78642868D01*
X64557139Y-79071439D01*
X64699997Y-78471439D01*
X64928568Y-78842868D02*
X65385711Y-78842868D01*
X65157139Y-79071439D02*
X65157139Y-78614296D01*
X71271437Y-85528588D02*
X71157151Y-85528588D01*
X71100009Y-85500017D01*
X71042866Y-85442874D01*
X71014294Y-85328588D01*
X71014294Y-85128588D01*
X71042866Y-85014302D01*
X71100009Y-84957159D01*
X71157151Y-84928588D01*
X71271437Y-84928588D01*
X71328580Y-84957159D01*
X71385723Y-85014302D01*
X71414294Y-85128588D01*
X71414294Y-85328588D01*
X71385723Y-85442874D01*
X71328580Y-85500017D01*
X71271437Y-85528588D01*
X70814294Y-85528588D02*
X70671437Y-84928588D01*
X70557151Y-85357159D01*
X70442866Y-84928588D01*
X70300009Y-85528588D01*
X70071437Y-85157159D02*
X69614294Y-85157159D01*
X69842866Y-84928588D02*
X69842866Y-85385731D01*
X63728568Y-94471446D02*
X63842854Y-94471446D01*
X63899997Y-94500018D01*
X63957139Y-94557160D01*
X63985711Y-94671446D01*
X63985711Y-94871446D01*
X63957139Y-94985732D01*
X63899997Y-95042875D01*
X63842854Y-95071446D01*
X63728568Y-95071446D01*
X63671425Y-95042875D01*
X63614282Y-94985732D01*
X63585711Y-94871446D01*
X63585711Y-94671446D01*
X63614282Y-94557160D01*
X63671425Y-94500018D01*
X63728568Y-94471446D01*
X64185711Y-94471446D02*
X64328568Y-95071446D01*
X64442854Y-94642875D01*
X64557139Y-95071446D01*
X64699997Y-94471446D01*
X64928568Y-94842875D02*
X65385711Y-94842875D01*
X65157139Y-95071446D02*
X65157139Y-94614303D01*
X71271437Y-101528595D02*
X71157151Y-101528595D01*
X71100009Y-101500024D01*
X71042866Y-101442881D01*
X71014294Y-101328595D01*
X71014294Y-101128595D01*
X71042866Y-101014309D01*
X71100009Y-100957166D01*
X71157151Y-100928595D01*
X71271437Y-100928595D01*
X71328580Y-100957166D01*
X71385723Y-101014309D01*
X71414294Y-101128595D01*
X71414294Y-101328595D01*
X71385723Y-101442881D01*
X71328580Y-101500024D01*
X71271437Y-101528595D01*
X70814294Y-101528595D02*
X70671437Y-100928595D01*
X70557151Y-101357166D01*
X70442866Y-100928595D01*
X70300009Y-101528595D01*
X70071437Y-101157166D02*
X69614294Y-101157166D01*
X69842866Y-100928595D02*
X69842866Y-101385738D01*
X63728568Y-110471453D02*
X63842854Y-110471453D01*
X63899997Y-110500025D01*
X63957139Y-110557167D01*
X63985711Y-110671453D01*
X63985711Y-110871453D01*
X63957139Y-110985739D01*
X63899997Y-111042882D01*
X63842854Y-111071453D01*
X63728568Y-111071453D01*
X63671425Y-111042882D01*
X63614282Y-110985739D01*
X63585711Y-110871453D01*
X63585711Y-110671453D01*
X63614282Y-110557167D01*
X63671425Y-110500025D01*
X63728568Y-110471453D01*
X64185711Y-110471453D02*
X64328568Y-111071453D01*
X64442854Y-110642882D01*
X64557139Y-111071453D01*
X64699997Y-110471453D01*
X64928568Y-110842882D02*
X65385711Y-110842882D01*
X65157139Y-111071453D02*
X65157139Y-110614310D01*
X71271437Y-117528602D02*
X71157151Y-117528602D01*
X71100009Y-117500031D01*
X71042866Y-117442888D01*
X71014294Y-117328602D01*
X71014294Y-117128602D01*
X71042866Y-117014316D01*
X71100009Y-116957173D01*
X71157151Y-116928602D01*
X71271437Y-116928602D01*
X71328580Y-116957173D01*
X71385723Y-117014316D01*
X71414294Y-117128602D01*
X71414294Y-117328602D01*
X71385723Y-117442888D01*
X71328580Y-117500031D01*
X71271437Y-117528602D01*
X70814294Y-117528602D02*
X70671437Y-116928602D01*
X70557151Y-117357173D01*
X70442866Y-116928602D01*
X70300009Y-117528602D01*
X70071437Y-117157173D02*
X69614294Y-117157173D01*
X69842866Y-116928602D02*
X69842866Y-117385745D01*
X41585711Y-44259854D02*
X41671425Y-44288425D01*
X41814282Y-44288425D01*
X41871425Y-44259854D01*
X41899997Y-44231282D01*
X41928568Y-44174139D01*
X41928568Y-44116997D01*
X41899997Y-44059854D01*
X41871425Y-44031282D01*
X41814282Y-44002711D01*
X41699997Y-43974139D01*
X41642854Y-43945568D01*
X41614282Y-43916997D01*
X41585711Y-43859854D01*
X41585711Y-43802711D01*
X41614282Y-43745568D01*
X41642854Y-43716997D01*
X41699997Y-43688425D01*
X41842854Y-43688425D01*
X41928568Y-43716997D01*
X42099997Y-43688425D02*
X42442854Y-43688425D01*
X42271425Y-44288425D02*
X42271425Y-43688425D01*
X42642854Y-44288425D02*
X42642854Y-43688425D01*
X42842854Y-44116997D01*
X43042854Y-43688425D01*
X43042854Y-44288425D01*
X43271425Y-43688425D02*
X43642854Y-43688425D01*
X43442854Y-43916997D01*
X43528568Y-43916997D01*
X43585711Y-43945568D01*
X43614282Y-43974139D01*
X43642854Y-44031282D01*
X43642854Y-44174139D01*
X43614282Y-44231282D01*
X43585711Y-44259854D01*
X43528568Y-44288425D01*
X43357139Y-44288425D01*
X43299997Y-44259854D01*
X43271425Y-44231282D01*
X43871425Y-43745568D02*
X43899997Y-43716997D01*
X43957139Y-43688425D01*
X44099997Y-43688425D01*
X44157139Y-43716997D01*
X44185711Y-43745568D01*
X44214282Y-43802711D01*
X44214282Y-43859854D01*
X44185711Y-43945568D01*
X43842854Y-44288425D01*
X44214282Y-44288425D01*
X41314282Y-45254425D02*
X41314282Y-44654425D01*
X41457139Y-44654425D01*
X41542854Y-44682997D01*
X41599997Y-44740139D01*
X41628568Y-44797282D01*
X41657139Y-44911568D01*
X41657139Y-44997282D01*
X41628568Y-45111568D01*
X41599997Y-45168711D01*
X41542854Y-45225854D01*
X41457139Y-45254425D01*
X41314282Y-45254425D01*
X41885711Y-45225854D02*
X41971425Y-45254425D01*
X42114282Y-45254425D01*
X42171425Y-45225854D01*
X42199997Y-45197282D01*
X42228568Y-45140139D01*
X42228568Y-45082997D01*
X42199997Y-45025854D01*
X42171425Y-44997282D01*
X42114282Y-44968711D01*
X41999997Y-44940139D01*
X41942854Y-44911568D01*
X41914282Y-44882997D01*
X41885711Y-44825854D01*
X41885711Y-44768711D01*
X41914282Y-44711568D01*
X41942854Y-44682997D01*
X41999997Y-44654425D01*
X42142854Y-44654425D01*
X42228568Y-44682997D01*
X42457139Y-44711568D02*
X42485711Y-44682997D01*
X42542854Y-44654425D01*
X42685711Y-44654425D01*
X42742854Y-44682997D01*
X42771425Y-44711568D01*
X42799997Y-44768711D01*
X42799997Y-44825854D01*
X42771425Y-44911568D01*
X42428568Y-45254425D01*
X42799997Y-45254425D01*
X43314282Y-44854425D02*
X43314282Y-45254425D01*
X43171425Y-44625854D02*
X43028568Y-45054425D01*
X43399997Y-45054425D01*
X43714282Y-44911568D02*
X43657139Y-44882997D01*
X43628568Y-44854425D01*
X43599997Y-44797282D01*
X43599997Y-44768711D01*
X43628568Y-44711568D01*
X43657139Y-44682997D01*
X43714282Y-44654425D01*
X43828568Y-44654425D01*
X43885711Y-44682997D01*
X43914282Y-44711568D01*
X43942854Y-44768711D01*
X43942854Y-44797282D01*
X43914282Y-44854425D01*
X43885711Y-44882997D01*
X43828568Y-44911568D01*
X43714282Y-44911568D01*
X43657139Y-44940139D01*
X43628568Y-44968711D01*
X43599997Y-45025854D01*
X43599997Y-45140139D01*
X43628568Y-45197282D01*
X43657139Y-45225854D01*
X43714282Y-45254425D01*
X43828568Y-45254425D01*
X43885711Y-45225854D01*
X43914282Y-45197282D01*
X43942854Y-45140139D01*
X43942854Y-45025854D01*
X43914282Y-44968711D01*
X43885711Y-44940139D01*
X43828568Y-44911568D01*
X44314282Y-44654425D02*
X44371425Y-44654425D01*
X44428568Y-44682997D01*
X44457139Y-44711568D01*
X44485711Y-44768711D01*
X44514282Y-44882997D01*
X44514282Y-45025854D01*
X44485711Y-45140139D01*
X44457139Y-45197282D01*
X44428568Y-45225854D01*
X44371425Y-45254425D01*
X44314282Y-45254425D01*
X44257139Y-45225854D01*
X44228568Y-45197282D01*
X44199997Y-45140139D01*
X44171425Y-45025854D01*
X44171425Y-44882997D01*
X44199997Y-44768711D01*
X44228568Y-44711568D01*
X44257139Y-44682997D01*
X44314282Y-44654425D01*
X93414294Y-55740145D02*
X93328580Y-55711574D01*
X93185723Y-55711574D01*
X93128580Y-55740145D01*
X93100009Y-55768717D01*
X93071437Y-55825860D01*
X93071437Y-55883003D01*
X93100009Y-55940145D01*
X93128580Y-55968717D01*
X93185723Y-55997288D01*
X93300009Y-56025860D01*
X93357151Y-56054431D01*
X93385723Y-56083003D01*
X93414294Y-56140145D01*
X93414294Y-56197288D01*
X93385723Y-56254431D01*
X93357151Y-56283003D01*
X93300009Y-56311574D01*
X93157151Y-56311574D01*
X93071437Y-56283003D01*
X92900009Y-56311574D02*
X92557151Y-56311574D01*
X92728580Y-55711574D02*
X92728580Y-56311574D01*
X92357151Y-55711574D02*
X92357151Y-56311574D01*
X92157151Y-55883003D01*
X91957151Y-56311574D01*
X91957151Y-55711574D01*
X91728580Y-56311574D02*
X91357151Y-56311574D01*
X91557151Y-56083003D01*
X91471437Y-56083003D01*
X91414294Y-56054431D01*
X91385723Y-56025860D01*
X91357151Y-55968717D01*
X91357151Y-55825860D01*
X91385723Y-55768717D01*
X91414294Y-55740145D01*
X91471437Y-55711574D01*
X91642866Y-55711574D01*
X91700009Y-55740145D01*
X91728580Y-55768717D01*
X91128580Y-56254431D02*
X91100009Y-56283003D01*
X91042866Y-56311574D01*
X90900009Y-56311574D01*
X90842866Y-56283003D01*
X90814294Y-56254431D01*
X90785723Y-56197288D01*
X90785723Y-56140145D01*
X90814294Y-56054431D01*
X91157151Y-55711574D01*
X90785723Y-55711574D01*
X93685723Y-54745574D02*
X93685723Y-55345574D01*
X93542866Y-55345574D01*
X93457151Y-55317003D01*
X93400009Y-55259860D01*
X93371437Y-55202717D01*
X93342866Y-55088431D01*
X93342866Y-55002717D01*
X93371437Y-54888431D01*
X93400009Y-54831288D01*
X93457151Y-54774145D01*
X93542866Y-54745574D01*
X93685723Y-54745574D01*
X93114294Y-54774145D02*
X93028580Y-54745574D01*
X92885723Y-54745574D01*
X92828580Y-54774145D01*
X92800009Y-54802717D01*
X92771437Y-54859860D01*
X92771437Y-54917003D01*
X92800009Y-54974145D01*
X92828580Y-55002717D01*
X92885723Y-55031288D01*
X93000009Y-55059860D01*
X93057151Y-55088431D01*
X93085723Y-55117003D01*
X93114294Y-55174145D01*
X93114294Y-55231288D01*
X93085723Y-55288431D01*
X93057151Y-55317003D01*
X93000009Y-55345574D01*
X92857151Y-55345574D01*
X92771437Y-55317003D01*
X92542866Y-55288431D02*
X92514294Y-55317003D01*
X92457151Y-55345574D01*
X92314294Y-55345574D01*
X92257151Y-55317003D01*
X92228580Y-55288431D01*
X92200009Y-55231288D01*
X92200009Y-55174145D01*
X92228580Y-55088431D01*
X92571437Y-54745574D01*
X92200009Y-54745574D01*
X91685723Y-55145574D02*
X91685723Y-54745574D01*
X91828580Y-55374145D02*
X91971437Y-54945574D01*
X91600009Y-54945574D01*
X91285723Y-55088431D02*
X91342866Y-55117003D01*
X91371437Y-55145574D01*
X91400009Y-55202717D01*
X91400009Y-55231288D01*
X91371437Y-55288431D01*
X91342866Y-55317003D01*
X91285723Y-55345574D01*
X91171437Y-55345574D01*
X91114294Y-55317003D01*
X91085723Y-55288431D01*
X91057151Y-55231288D01*
X91057151Y-55202717D01*
X91085723Y-55145574D01*
X91114294Y-55117003D01*
X91171437Y-55088431D01*
X91285723Y-55088431D01*
X91342866Y-55059860D01*
X91371437Y-55031288D01*
X91400009Y-54974145D01*
X91400009Y-54859860D01*
X91371437Y-54802717D01*
X91342866Y-54774145D01*
X91285723Y-54745574D01*
X91171437Y-54745574D01*
X91114294Y-54774145D01*
X91085723Y-54802717D01*
X91057151Y-54859860D01*
X91057151Y-54974145D01*
X91085723Y-55031288D01*
X91114294Y-55059860D01*
X91171437Y-55088431D01*
X90685723Y-55345574D02*
X90628580Y-55345574D01*
X90571437Y-55317003D01*
X90542866Y-55288431D01*
X90514294Y-55231288D01*
X90485723Y-55117003D01*
X90485723Y-54974145D01*
X90514294Y-54859860D01*
X90542866Y-54802717D01*
X90571437Y-54774145D01*
X90628580Y-54745574D01*
X90685723Y-54745574D01*
X90742866Y-54774145D01*
X90771437Y-54802717D01*
X90800009Y-54859860D01*
X90828580Y-54974145D01*
X90828580Y-55117003D01*
X90800009Y-55231288D01*
X90771437Y-55288431D01*
X90742866Y-55317003D01*
X90685723Y-55345574D01*
X41585711Y-60259861D02*
X41671425Y-60288432D01*
X41814282Y-60288432D01*
X41871425Y-60259861D01*
X41899997Y-60231289D01*
X41928568Y-60174146D01*
X41928568Y-60117004D01*
X41899997Y-60059861D01*
X41871425Y-60031289D01*
X41814282Y-60002718D01*
X41699997Y-59974146D01*
X41642854Y-59945575D01*
X41614282Y-59917004D01*
X41585711Y-59859861D01*
X41585711Y-59802718D01*
X41614282Y-59745575D01*
X41642854Y-59717004D01*
X41699997Y-59688432D01*
X41842854Y-59688432D01*
X41928568Y-59717004D01*
X42099997Y-59688432D02*
X42442854Y-59688432D01*
X42271425Y-60288432D02*
X42271425Y-59688432D01*
X42642854Y-60288432D02*
X42642854Y-59688432D01*
X42842854Y-60117004D01*
X43042854Y-59688432D01*
X43042854Y-60288432D01*
X43271425Y-59688432D02*
X43642854Y-59688432D01*
X43442854Y-59917004D01*
X43528568Y-59917004D01*
X43585711Y-59945575D01*
X43614282Y-59974146D01*
X43642854Y-60031289D01*
X43642854Y-60174146D01*
X43614282Y-60231289D01*
X43585711Y-60259861D01*
X43528568Y-60288432D01*
X43357139Y-60288432D01*
X43299997Y-60259861D01*
X43271425Y-60231289D01*
X43871425Y-59745575D02*
X43899997Y-59717004D01*
X43957139Y-59688432D01*
X44099997Y-59688432D01*
X44157139Y-59717004D01*
X44185711Y-59745575D01*
X44214282Y-59802718D01*
X44214282Y-59859861D01*
X44185711Y-59945575D01*
X43842854Y-60288432D01*
X44214282Y-60288432D01*
X41314282Y-61254432D02*
X41314282Y-60654432D01*
X41457139Y-60654432D01*
X41542854Y-60683004D01*
X41599997Y-60740146D01*
X41628568Y-60797289D01*
X41657139Y-60911575D01*
X41657139Y-60997289D01*
X41628568Y-61111575D01*
X41599997Y-61168718D01*
X41542854Y-61225861D01*
X41457139Y-61254432D01*
X41314282Y-61254432D01*
X41885711Y-61225861D02*
X41971425Y-61254432D01*
X42114282Y-61254432D01*
X42171425Y-61225861D01*
X42199997Y-61197289D01*
X42228568Y-61140146D01*
X42228568Y-61083004D01*
X42199997Y-61025861D01*
X42171425Y-60997289D01*
X42114282Y-60968718D01*
X41999997Y-60940146D01*
X41942854Y-60911575D01*
X41914282Y-60883004D01*
X41885711Y-60825861D01*
X41885711Y-60768718D01*
X41914282Y-60711575D01*
X41942854Y-60683004D01*
X41999997Y-60654432D01*
X42142854Y-60654432D01*
X42228568Y-60683004D01*
X42457139Y-60711575D02*
X42485711Y-60683004D01*
X42542854Y-60654432D01*
X42685711Y-60654432D01*
X42742854Y-60683004D01*
X42771425Y-60711575D01*
X42799997Y-60768718D01*
X42799997Y-60825861D01*
X42771425Y-60911575D01*
X42428568Y-61254432D01*
X42799997Y-61254432D01*
X43314282Y-60854432D02*
X43314282Y-61254432D01*
X43171425Y-60625861D02*
X43028568Y-61054432D01*
X43399997Y-61054432D01*
X43714282Y-60911575D02*
X43657139Y-60883004D01*
X43628568Y-60854432D01*
X43599997Y-60797289D01*
X43599997Y-60768718D01*
X43628568Y-60711575D01*
X43657139Y-60683004D01*
X43714282Y-60654432D01*
X43828568Y-60654432D01*
X43885711Y-60683004D01*
X43914282Y-60711575D01*
X43942854Y-60768718D01*
X43942854Y-60797289D01*
X43914282Y-60854432D01*
X43885711Y-60883004D01*
X43828568Y-60911575D01*
X43714282Y-60911575D01*
X43657139Y-60940146D01*
X43628568Y-60968718D01*
X43599997Y-61025861D01*
X43599997Y-61140146D01*
X43628568Y-61197289D01*
X43657139Y-61225861D01*
X43714282Y-61254432D01*
X43828568Y-61254432D01*
X43885711Y-61225861D01*
X43914282Y-61197289D01*
X43942854Y-61140146D01*
X43942854Y-61025861D01*
X43914282Y-60968718D01*
X43885711Y-60940146D01*
X43828568Y-60911575D01*
X44314282Y-60654432D02*
X44371425Y-60654432D01*
X44428568Y-60683004D01*
X44457139Y-60711575D01*
X44485711Y-60768718D01*
X44514282Y-60883004D01*
X44514282Y-61025861D01*
X44485711Y-61140146D01*
X44457139Y-61197289D01*
X44428568Y-61225861D01*
X44371425Y-61254432D01*
X44314282Y-61254432D01*
X44257139Y-61225861D01*
X44228568Y-61197289D01*
X44199997Y-61140146D01*
X44171425Y-61025861D01*
X44171425Y-60883004D01*
X44199997Y-60768718D01*
X44228568Y-60711575D01*
X44257139Y-60683004D01*
X44314282Y-60654432D01*
X93414294Y-71740152D02*
X93328580Y-71711581D01*
X93185723Y-71711581D01*
X93128580Y-71740152D01*
X93100009Y-71768724D01*
X93071437Y-71825867D01*
X93071437Y-71883010D01*
X93100009Y-71940152D01*
X93128580Y-71968724D01*
X93185723Y-71997295D01*
X93300009Y-72025867D01*
X93357151Y-72054438D01*
X93385723Y-72083010D01*
X93414294Y-72140152D01*
X93414294Y-72197295D01*
X93385723Y-72254438D01*
X93357151Y-72283010D01*
X93300009Y-72311581D01*
X93157151Y-72311581D01*
X93071437Y-72283010D01*
X92900009Y-72311581D02*
X92557151Y-72311581D01*
X92728580Y-71711581D02*
X92728580Y-72311581D01*
X92357151Y-71711581D02*
X92357151Y-72311581D01*
X92157151Y-71883010D01*
X91957151Y-72311581D01*
X91957151Y-71711581D01*
X91728580Y-72311581D02*
X91357151Y-72311581D01*
X91557151Y-72083010D01*
X91471437Y-72083010D01*
X91414294Y-72054438D01*
X91385723Y-72025867D01*
X91357151Y-71968724D01*
X91357151Y-71825867D01*
X91385723Y-71768724D01*
X91414294Y-71740152D01*
X91471437Y-71711581D01*
X91642866Y-71711581D01*
X91700009Y-71740152D01*
X91728580Y-71768724D01*
X91128580Y-72254438D02*
X91100009Y-72283010D01*
X91042866Y-72311581D01*
X90900009Y-72311581D01*
X90842866Y-72283010D01*
X90814294Y-72254438D01*
X90785723Y-72197295D01*
X90785723Y-72140152D01*
X90814294Y-72054438D01*
X91157151Y-71711581D01*
X90785723Y-71711581D01*
X93685723Y-70745581D02*
X93685723Y-71345581D01*
X93542866Y-71345581D01*
X93457151Y-71317010D01*
X93400009Y-71259867D01*
X93371437Y-71202724D01*
X93342866Y-71088438D01*
X93342866Y-71002724D01*
X93371437Y-70888438D01*
X93400009Y-70831295D01*
X93457151Y-70774152D01*
X93542866Y-70745581D01*
X93685723Y-70745581D01*
X93114294Y-70774152D02*
X93028580Y-70745581D01*
X92885723Y-70745581D01*
X92828580Y-70774152D01*
X92800009Y-70802724D01*
X92771437Y-70859867D01*
X92771437Y-70917010D01*
X92800009Y-70974152D01*
X92828580Y-71002724D01*
X92885723Y-71031295D01*
X93000009Y-71059867D01*
X93057151Y-71088438D01*
X93085723Y-71117010D01*
X93114294Y-71174152D01*
X93114294Y-71231295D01*
X93085723Y-71288438D01*
X93057151Y-71317010D01*
X93000009Y-71345581D01*
X92857151Y-71345581D01*
X92771437Y-71317010D01*
X92542866Y-71288438D02*
X92514294Y-71317010D01*
X92457151Y-71345581D01*
X92314294Y-71345581D01*
X92257151Y-71317010D01*
X92228580Y-71288438D01*
X92200009Y-71231295D01*
X92200009Y-71174152D01*
X92228580Y-71088438D01*
X92571437Y-70745581D01*
X92200009Y-70745581D01*
X91685723Y-71145581D02*
X91685723Y-70745581D01*
X91828580Y-71374152D02*
X91971437Y-70945581D01*
X91600009Y-70945581D01*
X91285723Y-71088438D02*
X91342866Y-71117010D01*
X91371437Y-71145581D01*
X91400009Y-71202724D01*
X91400009Y-71231295D01*
X91371437Y-71288438D01*
X91342866Y-71317010D01*
X91285723Y-71345581D01*
X91171437Y-71345581D01*
X91114294Y-71317010D01*
X91085723Y-71288438D01*
X91057151Y-71231295D01*
X91057151Y-71202724D01*
X91085723Y-71145581D01*
X91114294Y-71117010D01*
X91171437Y-71088438D01*
X91285723Y-71088438D01*
X91342866Y-71059867D01*
X91371437Y-71031295D01*
X91400009Y-70974152D01*
X91400009Y-70859867D01*
X91371437Y-70802724D01*
X91342866Y-70774152D01*
X91285723Y-70745581D01*
X91171437Y-70745581D01*
X91114294Y-70774152D01*
X91085723Y-70802724D01*
X91057151Y-70859867D01*
X91057151Y-70974152D01*
X91085723Y-71031295D01*
X91114294Y-71059867D01*
X91171437Y-71088438D01*
X90685723Y-71345581D02*
X90628580Y-71345581D01*
X90571437Y-71317010D01*
X90542866Y-71288438D01*
X90514294Y-71231295D01*
X90485723Y-71117010D01*
X90485723Y-70974152D01*
X90514294Y-70859867D01*
X90542866Y-70802724D01*
X90571437Y-70774152D01*
X90628580Y-70745581D01*
X90685723Y-70745581D01*
X90742866Y-70774152D01*
X90771437Y-70802724D01*
X90800009Y-70859867D01*
X90828580Y-70974152D01*
X90828580Y-71117010D01*
X90800009Y-71231295D01*
X90771437Y-71288438D01*
X90742866Y-71317010D01*
X90685723Y-71345581D01*
X41585711Y-76259868D02*
X41671425Y-76288439D01*
X41814282Y-76288439D01*
X41871425Y-76259868D01*
X41899997Y-76231296D01*
X41928568Y-76174153D01*
X41928568Y-76117011D01*
X41899997Y-76059868D01*
X41871425Y-76031296D01*
X41814282Y-76002725D01*
X41699997Y-75974153D01*
X41642854Y-75945582D01*
X41614282Y-75917011D01*
X41585711Y-75859868D01*
X41585711Y-75802725D01*
X41614282Y-75745582D01*
X41642854Y-75717011D01*
X41699997Y-75688439D01*
X41842854Y-75688439D01*
X41928568Y-75717011D01*
X42099997Y-75688439D02*
X42442854Y-75688439D01*
X42271425Y-76288439D02*
X42271425Y-75688439D01*
X42642854Y-76288439D02*
X42642854Y-75688439D01*
X42842854Y-76117011D01*
X43042854Y-75688439D01*
X43042854Y-76288439D01*
X43271425Y-75688439D02*
X43642854Y-75688439D01*
X43442854Y-75917011D01*
X43528568Y-75917011D01*
X43585711Y-75945582D01*
X43614282Y-75974153D01*
X43642854Y-76031296D01*
X43642854Y-76174153D01*
X43614282Y-76231296D01*
X43585711Y-76259868D01*
X43528568Y-76288439D01*
X43357139Y-76288439D01*
X43299997Y-76259868D01*
X43271425Y-76231296D01*
X43871425Y-75745582D02*
X43899997Y-75717011D01*
X43957139Y-75688439D01*
X44099997Y-75688439D01*
X44157139Y-75717011D01*
X44185711Y-75745582D01*
X44214282Y-75802725D01*
X44214282Y-75859868D01*
X44185711Y-75945582D01*
X43842854Y-76288439D01*
X44214282Y-76288439D01*
X41314282Y-77254439D02*
X41314282Y-76654439D01*
X41457139Y-76654439D01*
X41542854Y-76683011D01*
X41599997Y-76740153D01*
X41628568Y-76797296D01*
X41657139Y-76911582D01*
X41657139Y-76997296D01*
X41628568Y-77111582D01*
X41599997Y-77168725D01*
X41542854Y-77225868D01*
X41457139Y-77254439D01*
X41314282Y-77254439D01*
X41885711Y-77225868D02*
X41971425Y-77254439D01*
X42114282Y-77254439D01*
X42171425Y-77225868D01*
X42199997Y-77197296D01*
X42228568Y-77140153D01*
X42228568Y-77083011D01*
X42199997Y-77025868D01*
X42171425Y-76997296D01*
X42114282Y-76968725D01*
X41999997Y-76940153D01*
X41942854Y-76911582D01*
X41914282Y-76883011D01*
X41885711Y-76825868D01*
X41885711Y-76768725D01*
X41914282Y-76711582D01*
X41942854Y-76683011D01*
X41999997Y-76654439D01*
X42142854Y-76654439D01*
X42228568Y-76683011D01*
X42457139Y-76711582D02*
X42485711Y-76683011D01*
X42542854Y-76654439D01*
X42685711Y-76654439D01*
X42742854Y-76683011D01*
X42771425Y-76711582D01*
X42799997Y-76768725D01*
X42799997Y-76825868D01*
X42771425Y-76911582D01*
X42428568Y-77254439D01*
X42799997Y-77254439D01*
X43314282Y-76854439D02*
X43314282Y-77254439D01*
X43171425Y-76625868D02*
X43028568Y-77054439D01*
X43399997Y-77054439D01*
X43714282Y-76911582D02*
X43657139Y-76883011D01*
X43628568Y-76854439D01*
X43599997Y-76797296D01*
X43599997Y-76768725D01*
X43628568Y-76711582D01*
X43657139Y-76683011D01*
X43714282Y-76654439D01*
X43828568Y-76654439D01*
X43885711Y-76683011D01*
X43914282Y-76711582D01*
X43942854Y-76768725D01*
X43942854Y-76797296D01*
X43914282Y-76854439D01*
X43885711Y-76883011D01*
X43828568Y-76911582D01*
X43714282Y-76911582D01*
X43657139Y-76940153D01*
X43628568Y-76968725D01*
X43599997Y-77025868D01*
X43599997Y-77140153D01*
X43628568Y-77197296D01*
X43657139Y-77225868D01*
X43714282Y-77254439D01*
X43828568Y-77254439D01*
X43885711Y-77225868D01*
X43914282Y-77197296D01*
X43942854Y-77140153D01*
X43942854Y-77025868D01*
X43914282Y-76968725D01*
X43885711Y-76940153D01*
X43828568Y-76911582D01*
X44314282Y-76654439D02*
X44371425Y-76654439D01*
X44428568Y-76683011D01*
X44457139Y-76711582D01*
X44485711Y-76768725D01*
X44514282Y-76883011D01*
X44514282Y-77025868D01*
X44485711Y-77140153D01*
X44457139Y-77197296D01*
X44428568Y-77225868D01*
X44371425Y-77254439D01*
X44314282Y-77254439D01*
X44257139Y-77225868D01*
X44228568Y-77197296D01*
X44199997Y-77140153D01*
X44171425Y-77025868D01*
X44171425Y-76883011D01*
X44199997Y-76768725D01*
X44228568Y-76711582D01*
X44257139Y-76683011D01*
X44314282Y-76654439D01*
X93414294Y-87740159D02*
X93328580Y-87711588D01*
X93185723Y-87711588D01*
X93128580Y-87740159D01*
X93100009Y-87768731D01*
X93071437Y-87825874D01*
X93071437Y-87883017D01*
X93100009Y-87940159D01*
X93128580Y-87968731D01*
X93185723Y-87997302D01*
X93300009Y-88025874D01*
X93357151Y-88054445D01*
X93385723Y-88083017D01*
X93414294Y-88140159D01*
X93414294Y-88197302D01*
X93385723Y-88254445D01*
X93357151Y-88283017D01*
X93300009Y-88311588D01*
X93157151Y-88311588D01*
X93071437Y-88283017D01*
X92900009Y-88311588D02*
X92557151Y-88311588D01*
X92728580Y-87711588D02*
X92728580Y-88311588D01*
X92357151Y-87711588D02*
X92357151Y-88311588D01*
X92157151Y-87883017D01*
X91957151Y-88311588D01*
X91957151Y-87711588D01*
X91728580Y-88311588D02*
X91357151Y-88311588D01*
X91557151Y-88083017D01*
X91471437Y-88083017D01*
X91414294Y-88054445D01*
X91385723Y-88025874D01*
X91357151Y-87968731D01*
X91357151Y-87825874D01*
X91385723Y-87768731D01*
X91414294Y-87740159D01*
X91471437Y-87711588D01*
X91642866Y-87711588D01*
X91700009Y-87740159D01*
X91728580Y-87768731D01*
X91128580Y-88254445D02*
X91100009Y-88283017D01*
X91042866Y-88311588D01*
X90900009Y-88311588D01*
X90842866Y-88283017D01*
X90814294Y-88254445D01*
X90785723Y-88197302D01*
X90785723Y-88140159D01*
X90814294Y-88054445D01*
X91157151Y-87711588D01*
X90785723Y-87711588D01*
X93685723Y-86745588D02*
X93685723Y-87345588D01*
X93542866Y-87345588D01*
X93457151Y-87317017D01*
X93400009Y-87259874D01*
X93371437Y-87202731D01*
X93342866Y-87088445D01*
X93342866Y-87002731D01*
X93371437Y-86888445D01*
X93400009Y-86831302D01*
X93457151Y-86774159D01*
X93542866Y-86745588D01*
X93685723Y-86745588D01*
X93114294Y-86774159D02*
X93028580Y-86745588D01*
X92885723Y-86745588D01*
X92828580Y-86774159D01*
X92800009Y-86802731D01*
X92771437Y-86859874D01*
X92771437Y-86917017D01*
X92800009Y-86974159D01*
X92828580Y-87002731D01*
X92885723Y-87031302D01*
X93000009Y-87059874D01*
X93057151Y-87088445D01*
X93085723Y-87117017D01*
X93114294Y-87174159D01*
X93114294Y-87231302D01*
X93085723Y-87288445D01*
X93057151Y-87317017D01*
X93000009Y-87345588D01*
X92857151Y-87345588D01*
X92771437Y-87317017D01*
X92542866Y-87288445D02*
X92514294Y-87317017D01*
X92457151Y-87345588D01*
X92314294Y-87345588D01*
X92257151Y-87317017D01*
X92228580Y-87288445D01*
X92200009Y-87231302D01*
X92200009Y-87174159D01*
X92228580Y-87088445D01*
X92571437Y-86745588D01*
X92200009Y-86745588D01*
X91685723Y-87145588D02*
X91685723Y-86745588D01*
X91828580Y-87374159D02*
X91971437Y-86945588D01*
X91600009Y-86945588D01*
X91285723Y-87088445D02*
X91342866Y-87117017D01*
X91371437Y-87145588D01*
X91400009Y-87202731D01*
X91400009Y-87231302D01*
X91371437Y-87288445D01*
X91342866Y-87317017D01*
X91285723Y-87345588D01*
X91171437Y-87345588D01*
X91114294Y-87317017D01*
X91085723Y-87288445D01*
X91057151Y-87231302D01*
X91057151Y-87202731D01*
X91085723Y-87145588D01*
X91114294Y-87117017D01*
X91171437Y-87088445D01*
X91285723Y-87088445D01*
X91342866Y-87059874D01*
X91371437Y-87031302D01*
X91400009Y-86974159D01*
X91400009Y-86859874D01*
X91371437Y-86802731D01*
X91342866Y-86774159D01*
X91285723Y-86745588D01*
X91171437Y-86745588D01*
X91114294Y-86774159D01*
X91085723Y-86802731D01*
X91057151Y-86859874D01*
X91057151Y-86974159D01*
X91085723Y-87031302D01*
X91114294Y-87059874D01*
X91171437Y-87088445D01*
X90685723Y-87345588D02*
X90628580Y-87345588D01*
X90571437Y-87317017D01*
X90542866Y-87288445D01*
X90514294Y-87231302D01*
X90485723Y-87117017D01*
X90485723Y-86974159D01*
X90514294Y-86859874D01*
X90542866Y-86802731D01*
X90571437Y-86774159D01*
X90628580Y-86745588D01*
X90685723Y-86745588D01*
X90742866Y-86774159D01*
X90771437Y-86802731D01*
X90800009Y-86859874D01*
X90828580Y-86974159D01*
X90828580Y-87117017D01*
X90800009Y-87231302D01*
X90771437Y-87288445D01*
X90742866Y-87317017D01*
X90685723Y-87345588D01*
X41585711Y-92259875D02*
X41671425Y-92288446D01*
X41814282Y-92288446D01*
X41871425Y-92259875D01*
X41899997Y-92231303D01*
X41928568Y-92174160D01*
X41928568Y-92117018D01*
X41899997Y-92059875D01*
X41871425Y-92031303D01*
X41814282Y-92002732D01*
X41699997Y-91974160D01*
X41642854Y-91945589D01*
X41614282Y-91917018D01*
X41585711Y-91859875D01*
X41585711Y-91802732D01*
X41614282Y-91745589D01*
X41642854Y-91717018D01*
X41699997Y-91688446D01*
X41842854Y-91688446D01*
X41928568Y-91717018D01*
X42099997Y-91688446D02*
X42442854Y-91688446D01*
X42271425Y-92288446D02*
X42271425Y-91688446D01*
X42642854Y-92288446D02*
X42642854Y-91688446D01*
X42842854Y-92117018D01*
X43042854Y-91688446D01*
X43042854Y-92288446D01*
X43271425Y-91688446D02*
X43642854Y-91688446D01*
X43442854Y-91917018D01*
X43528568Y-91917018D01*
X43585711Y-91945589D01*
X43614282Y-91974160D01*
X43642854Y-92031303D01*
X43642854Y-92174160D01*
X43614282Y-92231303D01*
X43585711Y-92259875D01*
X43528568Y-92288446D01*
X43357139Y-92288446D01*
X43299997Y-92259875D01*
X43271425Y-92231303D01*
X43871425Y-91745589D02*
X43899997Y-91717018D01*
X43957139Y-91688446D01*
X44099997Y-91688446D01*
X44157139Y-91717018D01*
X44185711Y-91745589D01*
X44214282Y-91802732D01*
X44214282Y-91859875D01*
X44185711Y-91945589D01*
X43842854Y-92288446D01*
X44214282Y-92288446D01*
X41314282Y-93254446D02*
X41314282Y-92654446D01*
X41457139Y-92654446D01*
X41542854Y-92683018D01*
X41599997Y-92740160D01*
X41628568Y-92797303D01*
X41657139Y-92911589D01*
X41657139Y-92997303D01*
X41628568Y-93111589D01*
X41599997Y-93168732D01*
X41542854Y-93225875D01*
X41457139Y-93254446D01*
X41314282Y-93254446D01*
X41885711Y-93225875D02*
X41971425Y-93254446D01*
X42114282Y-93254446D01*
X42171425Y-93225875D01*
X42199997Y-93197303D01*
X42228568Y-93140160D01*
X42228568Y-93083018D01*
X42199997Y-93025875D01*
X42171425Y-92997303D01*
X42114282Y-92968732D01*
X41999997Y-92940160D01*
X41942854Y-92911589D01*
X41914282Y-92883018D01*
X41885711Y-92825875D01*
X41885711Y-92768732D01*
X41914282Y-92711589D01*
X41942854Y-92683018D01*
X41999997Y-92654446D01*
X42142854Y-92654446D01*
X42228568Y-92683018D01*
X42457139Y-92711589D02*
X42485711Y-92683018D01*
X42542854Y-92654446D01*
X42685711Y-92654446D01*
X42742854Y-92683018D01*
X42771425Y-92711589D01*
X42799997Y-92768732D01*
X42799997Y-92825875D01*
X42771425Y-92911589D01*
X42428568Y-93254446D01*
X42799997Y-93254446D01*
X43314282Y-92854446D02*
X43314282Y-93254446D01*
X43171425Y-92625875D02*
X43028568Y-93054446D01*
X43399997Y-93054446D01*
X43714282Y-92911589D02*
X43657139Y-92883018D01*
X43628568Y-92854446D01*
X43599997Y-92797303D01*
X43599997Y-92768732D01*
X43628568Y-92711589D01*
X43657139Y-92683018D01*
X43714282Y-92654446D01*
X43828568Y-92654446D01*
X43885711Y-92683018D01*
X43914282Y-92711589D01*
X43942854Y-92768732D01*
X43942854Y-92797303D01*
X43914282Y-92854446D01*
X43885711Y-92883018D01*
X43828568Y-92911589D01*
X43714282Y-92911589D01*
X43657139Y-92940160D01*
X43628568Y-92968732D01*
X43599997Y-93025875D01*
X43599997Y-93140160D01*
X43628568Y-93197303D01*
X43657139Y-93225875D01*
X43714282Y-93254446D01*
X43828568Y-93254446D01*
X43885711Y-93225875D01*
X43914282Y-93197303D01*
X43942854Y-93140160D01*
X43942854Y-93025875D01*
X43914282Y-92968732D01*
X43885711Y-92940160D01*
X43828568Y-92911589D01*
X44314282Y-92654446D02*
X44371425Y-92654446D01*
X44428568Y-92683018D01*
X44457139Y-92711589D01*
X44485711Y-92768732D01*
X44514282Y-92883018D01*
X44514282Y-93025875D01*
X44485711Y-93140160D01*
X44457139Y-93197303D01*
X44428568Y-93225875D01*
X44371425Y-93254446D01*
X44314282Y-93254446D01*
X44257139Y-93225875D01*
X44228568Y-93197303D01*
X44199997Y-93140160D01*
X44171425Y-93025875D01*
X44171425Y-92883018D01*
X44199997Y-92768732D01*
X44228568Y-92711589D01*
X44257139Y-92683018D01*
X44314282Y-92654446D01*
X93414294Y-103740166D02*
X93328580Y-103711595D01*
X93185723Y-103711595D01*
X93128580Y-103740166D01*
X93100009Y-103768738D01*
X93071437Y-103825881D01*
X93071437Y-103883024D01*
X93100009Y-103940166D01*
X93128580Y-103968738D01*
X93185723Y-103997309D01*
X93300009Y-104025881D01*
X93357151Y-104054452D01*
X93385723Y-104083024D01*
X93414294Y-104140166D01*
X93414294Y-104197309D01*
X93385723Y-104254452D01*
X93357151Y-104283024D01*
X93300009Y-104311595D01*
X93157151Y-104311595D01*
X93071437Y-104283024D01*
X92900009Y-104311595D02*
X92557151Y-104311595D01*
X92728580Y-103711595D02*
X92728580Y-104311595D01*
X92357151Y-103711595D02*
X92357151Y-104311595D01*
X92157151Y-103883024D01*
X91957151Y-104311595D01*
X91957151Y-103711595D01*
X91728580Y-104311595D02*
X91357151Y-104311595D01*
X91557151Y-104083024D01*
X91471437Y-104083024D01*
X91414294Y-104054452D01*
X91385723Y-104025881D01*
X91357151Y-103968738D01*
X91357151Y-103825881D01*
X91385723Y-103768738D01*
X91414294Y-103740166D01*
X91471437Y-103711595D01*
X91642866Y-103711595D01*
X91700009Y-103740166D01*
X91728580Y-103768738D01*
X91128580Y-104254452D02*
X91100009Y-104283024D01*
X91042866Y-104311595D01*
X90900009Y-104311595D01*
X90842866Y-104283024D01*
X90814294Y-104254452D01*
X90785723Y-104197309D01*
X90785723Y-104140166D01*
X90814294Y-104054452D01*
X91157151Y-103711595D01*
X90785723Y-103711595D01*
X93685723Y-102745595D02*
X93685723Y-103345595D01*
X93542866Y-103345595D01*
X93457151Y-103317024D01*
X93400009Y-103259881D01*
X93371437Y-103202738D01*
X93342866Y-103088452D01*
X93342866Y-103002738D01*
X93371437Y-102888452D01*
X93400009Y-102831309D01*
X93457151Y-102774166D01*
X93542866Y-102745595D01*
X93685723Y-102745595D01*
X93114294Y-102774166D02*
X93028580Y-102745595D01*
X92885723Y-102745595D01*
X92828580Y-102774166D01*
X92800009Y-102802738D01*
X92771437Y-102859881D01*
X92771437Y-102917024D01*
X92800009Y-102974166D01*
X92828580Y-103002738D01*
X92885723Y-103031309D01*
X93000009Y-103059881D01*
X93057151Y-103088452D01*
X93085723Y-103117024D01*
X93114294Y-103174166D01*
X93114294Y-103231309D01*
X93085723Y-103288452D01*
X93057151Y-103317024D01*
X93000009Y-103345595D01*
X92857151Y-103345595D01*
X92771437Y-103317024D01*
X92542866Y-103288452D02*
X92514294Y-103317024D01*
X92457151Y-103345595D01*
X92314294Y-103345595D01*
X92257151Y-103317024D01*
X92228580Y-103288452D01*
X92200009Y-103231309D01*
X92200009Y-103174166D01*
X92228580Y-103088452D01*
X92571437Y-102745595D01*
X92200009Y-102745595D01*
X91685723Y-103145595D02*
X91685723Y-102745595D01*
X91828580Y-103374166D02*
X91971437Y-102945595D01*
X91600009Y-102945595D01*
X91285723Y-103088452D02*
X91342866Y-103117024D01*
X91371437Y-103145595D01*
X91400009Y-103202738D01*
X91400009Y-103231309D01*
X91371437Y-103288452D01*
X91342866Y-103317024D01*
X91285723Y-103345595D01*
X91171437Y-103345595D01*
X91114294Y-103317024D01*
X91085723Y-103288452D01*
X91057151Y-103231309D01*
X91057151Y-103202738D01*
X91085723Y-103145595D01*
X91114294Y-103117024D01*
X91171437Y-103088452D01*
X91285723Y-103088452D01*
X91342866Y-103059881D01*
X91371437Y-103031309D01*
X91400009Y-102974166D01*
X91400009Y-102859881D01*
X91371437Y-102802738D01*
X91342866Y-102774166D01*
X91285723Y-102745595D01*
X91171437Y-102745595D01*
X91114294Y-102774166D01*
X91085723Y-102802738D01*
X91057151Y-102859881D01*
X91057151Y-102974166D01*
X91085723Y-103031309D01*
X91114294Y-103059881D01*
X91171437Y-103088452D01*
X90685723Y-103345595D02*
X90628580Y-103345595D01*
X90571437Y-103317024D01*
X90542866Y-103288452D01*
X90514294Y-103231309D01*
X90485723Y-103117024D01*
X90485723Y-102974166D01*
X90514294Y-102859881D01*
X90542866Y-102802738D01*
X90571437Y-102774166D01*
X90628580Y-102745595D01*
X90685723Y-102745595D01*
X90742866Y-102774166D01*
X90771437Y-102802738D01*
X90800009Y-102859881D01*
X90828580Y-102974166D01*
X90828580Y-103117024D01*
X90800009Y-103231309D01*
X90771437Y-103288452D01*
X90742866Y-103317024D01*
X90685723Y-103345595D01*
X41585711Y-108259882D02*
X41671425Y-108288453D01*
X41814282Y-108288453D01*
X41871425Y-108259882D01*
X41899997Y-108231310D01*
X41928568Y-108174167D01*
X41928568Y-108117025D01*
X41899997Y-108059882D01*
X41871425Y-108031310D01*
X41814282Y-108002739D01*
X41699997Y-107974167D01*
X41642854Y-107945596D01*
X41614282Y-107917025D01*
X41585711Y-107859882D01*
X41585711Y-107802739D01*
X41614282Y-107745596D01*
X41642854Y-107717025D01*
X41699997Y-107688453D01*
X41842854Y-107688453D01*
X41928568Y-107717025D01*
X42099997Y-107688453D02*
X42442854Y-107688453D01*
X42271425Y-108288453D02*
X42271425Y-107688453D01*
X42642854Y-108288453D02*
X42642854Y-107688453D01*
X42842854Y-108117025D01*
X43042854Y-107688453D01*
X43042854Y-108288453D01*
X43271425Y-107688453D02*
X43642854Y-107688453D01*
X43442854Y-107917025D01*
X43528568Y-107917025D01*
X43585711Y-107945596D01*
X43614282Y-107974167D01*
X43642854Y-108031310D01*
X43642854Y-108174167D01*
X43614282Y-108231310D01*
X43585711Y-108259882D01*
X43528568Y-108288453D01*
X43357139Y-108288453D01*
X43299997Y-108259882D01*
X43271425Y-108231310D01*
X43871425Y-107745596D02*
X43899997Y-107717025D01*
X43957139Y-107688453D01*
X44099997Y-107688453D01*
X44157139Y-107717025D01*
X44185711Y-107745596D01*
X44214282Y-107802739D01*
X44214282Y-107859882D01*
X44185711Y-107945596D01*
X43842854Y-108288453D01*
X44214282Y-108288453D01*
X41314282Y-109254453D02*
X41314282Y-108654453D01*
X41457139Y-108654453D01*
X41542854Y-108683025D01*
X41599997Y-108740167D01*
X41628568Y-108797310D01*
X41657139Y-108911596D01*
X41657139Y-108997310D01*
X41628568Y-109111596D01*
X41599997Y-109168739D01*
X41542854Y-109225882D01*
X41457139Y-109254453D01*
X41314282Y-109254453D01*
X41885711Y-109225882D02*
X41971425Y-109254453D01*
X42114282Y-109254453D01*
X42171425Y-109225882D01*
X42199997Y-109197310D01*
X42228568Y-109140167D01*
X42228568Y-109083025D01*
X42199997Y-109025882D01*
X42171425Y-108997310D01*
X42114282Y-108968739D01*
X41999997Y-108940167D01*
X41942854Y-108911596D01*
X41914282Y-108883025D01*
X41885711Y-108825882D01*
X41885711Y-108768739D01*
X41914282Y-108711596D01*
X41942854Y-108683025D01*
X41999997Y-108654453D01*
X42142854Y-108654453D01*
X42228568Y-108683025D01*
X42457139Y-108711596D02*
X42485711Y-108683025D01*
X42542854Y-108654453D01*
X42685711Y-108654453D01*
X42742854Y-108683025D01*
X42771425Y-108711596D01*
X42799997Y-108768739D01*
X42799997Y-108825882D01*
X42771425Y-108911596D01*
X42428568Y-109254453D01*
X42799997Y-109254453D01*
X43314282Y-108854453D02*
X43314282Y-109254453D01*
X43171425Y-108625882D02*
X43028568Y-109054453D01*
X43399997Y-109054453D01*
X43714282Y-108911596D02*
X43657139Y-108883025D01*
X43628568Y-108854453D01*
X43599997Y-108797310D01*
X43599997Y-108768739D01*
X43628568Y-108711596D01*
X43657139Y-108683025D01*
X43714282Y-108654453D01*
X43828568Y-108654453D01*
X43885711Y-108683025D01*
X43914282Y-108711596D01*
X43942854Y-108768739D01*
X43942854Y-108797310D01*
X43914282Y-108854453D01*
X43885711Y-108883025D01*
X43828568Y-108911596D01*
X43714282Y-108911596D01*
X43657139Y-108940167D01*
X43628568Y-108968739D01*
X43599997Y-109025882D01*
X43599997Y-109140167D01*
X43628568Y-109197310D01*
X43657139Y-109225882D01*
X43714282Y-109254453D01*
X43828568Y-109254453D01*
X43885711Y-109225882D01*
X43914282Y-109197310D01*
X43942854Y-109140167D01*
X43942854Y-109025882D01*
X43914282Y-108968739D01*
X43885711Y-108940167D01*
X43828568Y-108911596D01*
X44314282Y-108654453D02*
X44371425Y-108654453D01*
X44428568Y-108683025D01*
X44457139Y-108711596D01*
X44485711Y-108768739D01*
X44514282Y-108883025D01*
X44514282Y-109025882D01*
X44485711Y-109140167D01*
X44457139Y-109197310D01*
X44428568Y-109225882D01*
X44371425Y-109254453D01*
X44314282Y-109254453D01*
X44257139Y-109225882D01*
X44228568Y-109197310D01*
X44199997Y-109140167D01*
X44171425Y-109025882D01*
X44171425Y-108883025D01*
X44199997Y-108768739D01*
X44228568Y-108711596D01*
X44257139Y-108683025D01*
X44314282Y-108654453D01*
X93414294Y-119740173D02*
X93328580Y-119711602D01*
X93185723Y-119711602D01*
X93128580Y-119740173D01*
X93100009Y-119768745D01*
X93071437Y-119825888D01*
X93071437Y-119883031D01*
X93100009Y-119940173D01*
X93128580Y-119968745D01*
X93185723Y-119997316D01*
X93300009Y-120025888D01*
X93357151Y-120054459D01*
X93385723Y-120083031D01*
X93414294Y-120140173D01*
X93414294Y-120197316D01*
X93385723Y-120254459D01*
X93357151Y-120283031D01*
X93300009Y-120311602D01*
X93157151Y-120311602D01*
X93071437Y-120283031D01*
X92900009Y-120311602D02*
X92557151Y-120311602D01*
X92728580Y-119711602D02*
X92728580Y-120311602D01*
X92357151Y-119711602D02*
X92357151Y-120311602D01*
X92157151Y-119883031D01*
X91957151Y-120311602D01*
X91957151Y-119711602D01*
X91728580Y-120311602D02*
X91357151Y-120311602D01*
X91557151Y-120083031D01*
X91471437Y-120083031D01*
X91414294Y-120054459D01*
X91385723Y-120025888D01*
X91357151Y-119968745D01*
X91357151Y-119825888D01*
X91385723Y-119768745D01*
X91414294Y-119740173D01*
X91471437Y-119711602D01*
X91642866Y-119711602D01*
X91700009Y-119740173D01*
X91728580Y-119768745D01*
X91128580Y-120254459D02*
X91100009Y-120283031D01*
X91042866Y-120311602D01*
X90900009Y-120311602D01*
X90842866Y-120283031D01*
X90814294Y-120254459D01*
X90785723Y-120197316D01*
X90785723Y-120140173D01*
X90814294Y-120054459D01*
X91157151Y-119711602D01*
X90785723Y-119711602D01*
X93685723Y-118745602D02*
X93685723Y-119345602D01*
X93542866Y-119345602D01*
X93457151Y-119317031D01*
X93400009Y-119259888D01*
X93371437Y-119202745D01*
X93342866Y-119088459D01*
X93342866Y-119002745D01*
X93371437Y-118888459D01*
X93400009Y-118831316D01*
X93457151Y-118774173D01*
X93542866Y-118745602D01*
X93685723Y-118745602D01*
X93114294Y-118774173D02*
X93028580Y-118745602D01*
X92885723Y-118745602D01*
X92828580Y-118774173D01*
X92800009Y-118802745D01*
X92771437Y-118859888D01*
X92771437Y-118917031D01*
X92800009Y-118974173D01*
X92828580Y-119002745D01*
X92885723Y-119031316D01*
X93000009Y-119059888D01*
X93057151Y-119088459D01*
X93085723Y-119117031D01*
X93114294Y-119174173D01*
X93114294Y-119231316D01*
X93085723Y-119288459D01*
X93057151Y-119317031D01*
X93000009Y-119345602D01*
X92857151Y-119345602D01*
X92771437Y-119317031D01*
X92542866Y-119288459D02*
X92514294Y-119317031D01*
X92457151Y-119345602D01*
X92314294Y-119345602D01*
X92257151Y-119317031D01*
X92228580Y-119288459D01*
X92200009Y-119231316D01*
X92200009Y-119174173D01*
X92228580Y-119088459D01*
X92571437Y-118745602D01*
X92200009Y-118745602D01*
X91685723Y-119145602D02*
X91685723Y-118745602D01*
X91828580Y-119374173D02*
X91971437Y-118945602D01*
X91600009Y-118945602D01*
X91285723Y-119088459D02*
X91342866Y-119117031D01*
X91371437Y-119145602D01*
X91400009Y-119202745D01*
X91400009Y-119231316D01*
X91371437Y-119288459D01*
X91342866Y-119317031D01*
X91285723Y-119345602D01*
X91171437Y-119345602D01*
X91114294Y-119317031D01*
X91085723Y-119288459D01*
X91057151Y-119231316D01*
X91057151Y-119202745D01*
X91085723Y-119145602D01*
X91114294Y-119117031D01*
X91171437Y-119088459D01*
X91285723Y-119088459D01*
X91342866Y-119059888D01*
X91371437Y-119031316D01*
X91400009Y-118974173D01*
X91400009Y-118859888D01*
X91371437Y-118802745D01*
X91342866Y-118774173D01*
X91285723Y-118745602D01*
X91171437Y-118745602D01*
X91114294Y-118774173D01*
X91085723Y-118802745D01*
X91057151Y-118859888D01*
X91057151Y-118974173D01*
X91085723Y-119031316D01*
X91114294Y-119059888D01*
X91171437Y-119088459D01*
X90685723Y-119345602D02*
X90628580Y-119345602D01*
X90571437Y-119317031D01*
X90542866Y-119288459D01*
X90514294Y-119231316D01*
X90485723Y-119117031D01*
X90485723Y-118974173D01*
X90514294Y-118859888D01*
X90542866Y-118802745D01*
X90571437Y-118774173D01*
X90628580Y-118745602D01*
X90685723Y-118745602D01*
X90742866Y-118774173D01*
X90771437Y-118802745D01*
X90800009Y-118859888D01*
X90828580Y-118974173D01*
X90828580Y-119117031D01*
X90800009Y-119231316D01*
X90771437Y-119288459D01*
X90742866Y-119317031D01*
X90685723Y-119345602D01*
%TO.C,JP2*%
X58471425Y-72028575D02*
X57871425Y-72028575D01*
X57871425Y-71885718D01*
X57899997Y-71800004D01*
X57957139Y-71742861D01*
X58014282Y-71714289D01*
X58128568Y-71685718D01*
X58214282Y-71685718D01*
X58328568Y-71714289D01*
X58385711Y-71742861D01*
X58442854Y-71800004D01*
X58471425Y-71885718D01*
X58471425Y-72028575D01*
X58157139Y-71228575D02*
X58157139Y-71428575D01*
X58471425Y-71428575D02*
X57871425Y-71428575D01*
X57871425Y-71142861D01*
X57871425Y-70914289D02*
X58357139Y-70914289D01*
X58414282Y-70885718D01*
X58442854Y-70857146D01*
X58471425Y-70800004D01*
X58471425Y-70685718D01*
X58442854Y-70628575D01*
X58414282Y-70600004D01*
X58357139Y-70571432D01*
X57871425Y-70571432D01*
%TO.C,D2*%
X80128580Y-102328595D02*
X80128580Y-102042881D01*
X80728580Y-102042881D01*
X80442866Y-102528595D02*
X80442866Y-102728595D01*
X80128580Y-102814309D02*
X80128580Y-102528595D01*
X80728580Y-102528595D01*
X80728580Y-102814309D01*
X80128580Y-103071452D02*
X80728580Y-103071452D01*
X80728580Y-103214309D01*
X80700009Y-103300024D01*
X80642866Y-103357166D01*
X80585723Y-103385738D01*
X80471437Y-103414309D01*
X80385723Y-103414309D01*
X80271437Y-103385738D01*
X80214294Y-103357166D01*
X80157151Y-103300024D01*
X80128580Y-103214309D01*
X80128580Y-103071452D01*
X80671437Y-103642881D02*
X80700009Y-103671452D01*
X80728580Y-103728595D01*
X80728580Y-103871452D01*
X80700009Y-103928595D01*
X80671437Y-103957166D01*
X80614294Y-103985738D01*
X80557151Y-103985738D01*
X80471437Y-103957166D01*
X80128580Y-103614309D01*
X80128580Y-103985738D01*
X54871425Y-61671432D02*
X54871425Y-61957146D01*
X54271425Y-61957146D01*
X54557139Y-61471432D02*
X54557139Y-61271432D01*
X54871425Y-61185718D02*
X54871425Y-61471432D01*
X54271425Y-61471432D01*
X54271425Y-61185718D01*
X54871425Y-60928575D02*
X54271425Y-60928575D01*
X54271425Y-60785718D01*
X54299997Y-60700004D01*
X54357139Y-60642861D01*
X54414282Y-60614289D01*
X54528568Y-60585718D01*
X54614282Y-60585718D01*
X54728568Y-60614289D01*
X54785711Y-60642861D01*
X54842854Y-60700004D01*
X54871425Y-60785718D01*
X54871425Y-60928575D01*
X54328568Y-60357146D02*
X54299997Y-60328575D01*
X54271425Y-60271432D01*
X54271425Y-60128575D01*
X54299997Y-60071432D01*
X54328568Y-60042861D01*
X54385711Y-60014289D01*
X54442854Y-60014289D01*
X54528568Y-60042861D01*
X54871425Y-60385718D01*
X54871425Y-60014289D01*
%TO.C,JP1*%
X59528568Y-60071432D02*
X59528568Y-59471432D01*
X59757139Y-59471432D01*
X59814282Y-59500004D01*
X59842854Y-59528575D01*
X59871425Y-59585718D01*
X59871425Y-59671432D01*
X59842854Y-59728575D01*
X59814282Y-59757146D01*
X59757139Y-59785718D01*
X59528568Y-59785718D01*
X60128568Y-59471432D02*
X60128568Y-59957146D01*
X60157139Y-60014289D01*
X60185711Y-60042861D01*
X60242854Y-60071432D01*
X60357139Y-60071432D01*
X60414282Y-60042861D01*
X60442854Y-60014289D01*
X60471425Y-59957146D01*
X60471425Y-59471432D01*
X60757139Y-60071432D02*
X60757139Y-59471432D01*
X60985711Y-59471432D01*
X61042854Y-59500004D01*
X61071425Y-59528575D01*
X61099997Y-59585718D01*
X61099997Y-59671432D01*
X61071425Y-59728575D01*
X61042854Y-59757146D01*
X60985711Y-59785718D01*
X60757139Y-59785718D01*
%TO.C,J3*%
X54492854Y-120014310D02*
X54521425Y-119928596D01*
X54521425Y-119785739D01*
X54492854Y-119728596D01*
X54464282Y-119700025D01*
X54407139Y-119671453D01*
X54349997Y-119671453D01*
X54292854Y-119700025D01*
X54264282Y-119728596D01*
X54235711Y-119785739D01*
X54207139Y-119900025D01*
X54178568Y-119957167D01*
X54149997Y-119985739D01*
X54092854Y-120014310D01*
X54035711Y-120014310D01*
X53978568Y-119985739D01*
X53949997Y-119957167D01*
X53921425Y-119900025D01*
X53921425Y-119757167D01*
X53949997Y-119671453D01*
X53921425Y-119471453D02*
X54521425Y-119328596D01*
X54092854Y-119214310D01*
X54521425Y-119100025D01*
X53921425Y-118957167D01*
X54521425Y-118728596D02*
X53921425Y-118728596D01*
X53921425Y-118585739D01*
X53949997Y-118500025D01*
X54007139Y-118442882D01*
X54064282Y-118414310D01*
X54178568Y-118385739D01*
X54264282Y-118385739D01*
X54378568Y-118414310D01*
X54435711Y-118442882D01*
X54492854Y-118500025D01*
X54521425Y-118585739D01*
X54521425Y-118728596D01*
%TO.C,JP2*%
X76528580Y-59971438D02*
X77128580Y-59971438D01*
X77128580Y-60114295D01*
X77100009Y-60200010D01*
X77042866Y-60257152D01*
X76985723Y-60285724D01*
X76871437Y-60314295D01*
X76785723Y-60314295D01*
X76671437Y-60285724D01*
X76614294Y-60257152D01*
X76557151Y-60200010D01*
X76528580Y-60114295D01*
X76528580Y-59971438D01*
X76842866Y-60771438D02*
X76842866Y-60571438D01*
X76528580Y-60571438D02*
X77128580Y-60571438D01*
X77128580Y-60857152D01*
X77128580Y-61085724D02*
X76642866Y-61085724D01*
X76585723Y-61114295D01*
X76557151Y-61142867D01*
X76528580Y-61200010D01*
X76528580Y-61314295D01*
X76557151Y-61371438D01*
X76585723Y-61400010D01*
X76642866Y-61428581D01*
X77128580Y-61428581D01*
%TO.C,JP1*%
X59528568Y-76071439D02*
X59528568Y-75471439D01*
X59757139Y-75471439D01*
X59814282Y-75500011D01*
X59842854Y-75528582D01*
X59871425Y-75585725D01*
X59871425Y-75671439D01*
X59842854Y-75728582D01*
X59814282Y-75757153D01*
X59757139Y-75785725D01*
X59528568Y-75785725D01*
X60128568Y-75471439D02*
X60128568Y-75957153D01*
X60157139Y-76014296D01*
X60185711Y-76042868D01*
X60242854Y-76071439D01*
X60357139Y-76071439D01*
X60414282Y-76042868D01*
X60442854Y-76014296D01*
X60471425Y-75957153D01*
X60471425Y-75471439D01*
X60757139Y-76071439D02*
X60757139Y-75471439D01*
X60985711Y-75471439D01*
X61042854Y-75500011D01*
X61071425Y-75528582D01*
X61099997Y-75585725D01*
X61099997Y-75671439D01*
X61071425Y-75728582D01*
X61042854Y-75757153D01*
X60985711Y-75785725D01*
X60757139Y-75785725D01*
%TO.C,D1*%
X87708580Y-118328602D02*
X87708580Y-118042888D01*
X88308580Y-118042888D01*
X88022866Y-118528602D02*
X88022866Y-118728602D01*
X87708580Y-118814316D02*
X87708580Y-118528602D01*
X88308580Y-118528602D01*
X88308580Y-118814316D01*
X87708580Y-119071459D02*
X88308580Y-119071459D01*
X88308580Y-119214316D01*
X88280009Y-119300031D01*
X88222866Y-119357173D01*
X88165723Y-119385745D01*
X88051437Y-119414316D01*
X87965723Y-119414316D01*
X87851437Y-119385745D01*
X87794294Y-119357173D01*
X87737151Y-119300031D01*
X87708580Y-119214316D01*
X87708580Y-119071459D01*
X87708580Y-119985745D02*
X87708580Y-119642888D01*
X87708580Y-119814316D02*
X88308580Y-119814316D01*
X88222866Y-119757173D01*
X88165723Y-119700031D01*
X88137151Y-119642888D01*
%TO.C,JP1*%
X75471437Y-103928595D02*
X75471437Y-104528595D01*
X75242866Y-104528595D01*
X75185723Y-104500024D01*
X75157151Y-104471452D01*
X75128580Y-104414309D01*
X75128580Y-104328595D01*
X75157151Y-104271452D01*
X75185723Y-104242881D01*
X75242866Y-104214309D01*
X75471437Y-104214309D01*
X74871437Y-104528595D02*
X74871437Y-104042881D01*
X74842866Y-103985738D01*
X74814294Y-103957166D01*
X74757151Y-103928595D01*
X74642866Y-103928595D01*
X74585723Y-103957166D01*
X74557151Y-103985738D01*
X74528580Y-104042881D01*
X74528580Y-104528595D01*
X74242866Y-103928595D02*
X74242866Y-104528595D01*
X74014294Y-104528595D01*
X73957151Y-104500024D01*
X73928580Y-104471452D01*
X73900009Y-104414309D01*
X73900009Y-104328595D01*
X73928580Y-104271452D01*
X73957151Y-104242881D01*
X74014294Y-104214309D01*
X74242866Y-104214309D01*
%TO.C,D1*%
X87708580Y-70328581D02*
X87708580Y-70042867D01*
X88308580Y-70042867D01*
X88022866Y-70528581D02*
X88022866Y-70728581D01*
X87708580Y-70814295D02*
X87708580Y-70528581D01*
X88308580Y-70528581D01*
X88308580Y-70814295D01*
X87708580Y-71071438D02*
X88308580Y-71071438D01*
X88308580Y-71214295D01*
X88280009Y-71300010D01*
X88222866Y-71357152D01*
X88165723Y-71385724D01*
X88051437Y-71414295D01*
X87965723Y-71414295D01*
X87851437Y-71385724D01*
X87794294Y-71357152D01*
X87737151Y-71300010D01*
X87708580Y-71214295D01*
X87708580Y-71071438D01*
X87708580Y-71985724D02*
X87708580Y-71642867D01*
X87708580Y-71814295D02*
X88308580Y-71814295D01*
X88222866Y-71757152D01*
X88165723Y-71700010D01*
X88137151Y-71642867D01*
X47291425Y-77671439D02*
X47291425Y-77957153D01*
X46691425Y-77957153D01*
X46977139Y-77471439D02*
X46977139Y-77271439D01*
X47291425Y-77185725D02*
X47291425Y-77471439D01*
X46691425Y-77471439D01*
X46691425Y-77185725D01*
X47291425Y-76928582D02*
X46691425Y-76928582D01*
X46691425Y-76785725D01*
X46719997Y-76700011D01*
X46777139Y-76642868D01*
X46834282Y-76614296D01*
X46948568Y-76585725D01*
X47034282Y-76585725D01*
X47148568Y-76614296D01*
X47205711Y-76642868D01*
X47262854Y-76700011D01*
X47291425Y-76785725D01*
X47291425Y-76928582D01*
X47291425Y-76014296D02*
X47291425Y-76357153D01*
X47291425Y-76185725D02*
X46691425Y-76185725D01*
X46777139Y-76242868D01*
X46834282Y-76300011D01*
X46862854Y-76357153D01*
%TO.C,JP2*%
X76528580Y-43971431D02*
X77128580Y-43971431D01*
X77128580Y-44114288D01*
X77100009Y-44200003D01*
X77042866Y-44257145D01*
X76985723Y-44285717D01*
X76871437Y-44314288D01*
X76785723Y-44314288D01*
X76671437Y-44285717D01*
X76614294Y-44257145D01*
X76557151Y-44200003D01*
X76528580Y-44114288D01*
X76528580Y-43971431D01*
X76842866Y-44771431D02*
X76842866Y-44571431D01*
X76528580Y-44571431D02*
X77128580Y-44571431D01*
X77128580Y-44857145D01*
X77128580Y-45085717D02*
X76642866Y-45085717D01*
X76585723Y-45114288D01*
X76557151Y-45142860D01*
X76528580Y-45200003D01*
X76528580Y-45314288D01*
X76557151Y-45371431D01*
X76585723Y-45400003D01*
X76642866Y-45428574D01*
X77128580Y-45428574D01*
%TO.C,JP1*%
X59528568Y-44071425D02*
X59528568Y-43471425D01*
X59757139Y-43471425D01*
X59814282Y-43499997D01*
X59842854Y-43528568D01*
X59871425Y-43585711D01*
X59871425Y-43671425D01*
X59842854Y-43728568D01*
X59814282Y-43757139D01*
X59757139Y-43785711D01*
X59528568Y-43785711D01*
X60128568Y-43471425D02*
X60128568Y-43957139D01*
X60157139Y-44014282D01*
X60185711Y-44042854D01*
X60242854Y-44071425D01*
X60357139Y-44071425D01*
X60414282Y-44042854D01*
X60442854Y-44014282D01*
X60471425Y-43957139D01*
X60471425Y-43471425D01*
X60757139Y-44071425D02*
X60757139Y-43471425D01*
X60985711Y-43471425D01*
X61042854Y-43499997D01*
X61071425Y-43528568D01*
X61099997Y-43585711D01*
X61099997Y-43671425D01*
X61071425Y-43728568D01*
X61042854Y-43757139D01*
X60985711Y-43785711D01*
X60757139Y-43785711D01*
%TO.C,J3*%
X80507151Y-107985745D02*
X80478580Y-108071459D01*
X80478580Y-108214316D01*
X80507151Y-108271459D01*
X80535723Y-108300031D01*
X80592866Y-108328602D01*
X80650009Y-108328602D01*
X80707151Y-108300031D01*
X80735723Y-108271459D01*
X80764294Y-108214316D01*
X80792866Y-108100031D01*
X80821437Y-108042888D01*
X80850009Y-108014316D01*
X80907151Y-107985745D01*
X80964294Y-107985745D01*
X81021437Y-108014316D01*
X81050009Y-108042888D01*
X81078580Y-108100031D01*
X81078580Y-108242888D01*
X81050009Y-108328602D01*
X81078580Y-108528602D02*
X80478580Y-108671459D01*
X80907151Y-108785745D01*
X80478580Y-108900031D01*
X81078580Y-109042888D01*
X80478580Y-109271459D02*
X81078580Y-109271459D01*
X81078580Y-109414316D01*
X81050009Y-109500031D01*
X80992866Y-109557173D01*
X80935723Y-109585745D01*
X80821437Y-109614316D01*
X80735723Y-109614316D01*
X80621437Y-109585745D01*
X80564294Y-109557173D01*
X80507151Y-109500031D01*
X80478580Y-109414316D01*
X80478580Y-109271459D01*
%TO.C,JP2*%
X58471425Y-56028568D02*
X57871425Y-56028568D01*
X57871425Y-55885711D01*
X57899997Y-55799997D01*
X57957139Y-55742854D01*
X58014282Y-55714282D01*
X58128568Y-55685711D01*
X58214282Y-55685711D01*
X58328568Y-55714282D01*
X58385711Y-55742854D01*
X58442854Y-55799997D01*
X58471425Y-55885711D01*
X58471425Y-56028568D01*
X58157139Y-55228568D02*
X58157139Y-55428568D01*
X58471425Y-55428568D02*
X57871425Y-55428568D01*
X57871425Y-55142854D01*
X57871425Y-54914282D02*
X58357139Y-54914282D01*
X58414282Y-54885711D01*
X58442854Y-54857139D01*
X58471425Y-54799997D01*
X58471425Y-54685711D01*
X58442854Y-54628568D01*
X58414282Y-54599997D01*
X58357139Y-54571425D01*
X57871425Y-54571425D01*
%TO.C,D2*%
X80128580Y-118328602D02*
X80128580Y-118042888D01*
X80728580Y-118042888D01*
X80442866Y-118528602D02*
X80442866Y-118728602D01*
X80128580Y-118814316D02*
X80128580Y-118528602D01*
X80728580Y-118528602D01*
X80728580Y-118814316D01*
X80128580Y-119071459D02*
X80728580Y-119071459D01*
X80728580Y-119214316D01*
X80700009Y-119300031D01*
X80642866Y-119357173D01*
X80585723Y-119385745D01*
X80471437Y-119414316D01*
X80385723Y-119414316D01*
X80271437Y-119385745D01*
X80214294Y-119357173D01*
X80157151Y-119300031D01*
X80128580Y-119214316D01*
X80128580Y-119071459D01*
X80671437Y-119642888D02*
X80700009Y-119671459D01*
X80728580Y-119728602D01*
X80728580Y-119871459D01*
X80700009Y-119928602D01*
X80671437Y-119957173D01*
X80614294Y-119985745D01*
X80557151Y-119985745D01*
X80471437Y-119957173D01*
X80128580Y-119614316D01*
X80128580Y-119985745D01*
%TO.C,J3*%
X54492854Y-88014296D02*
X54521425Y-87928582D01*
X54521425Y-87785725D01*
X54492854Y-87728582D01*
X54464282Y-87700011D01*
X54407139Y-87671439D01*
X54349997Y-87671439D01*
X54292854Y-87700011D01*
X54264282Y-87728582D01*
X54235711Y-87785725D01*
X54207139Y-87900011D01*
X54178568Y-87957153D01*
X54149997Y-87985725D01*
X54092854Y-88014296D01*
X54035711Y-88014296D01*
X53978568Y-87985725D01*
X53949997Y-87957153D01*
X53921425Y-87900011D01*
X53921425Y-87757153D01*
X53949997Y-87671439D01*
X53921425Y-87471439D02*
X54521425Y-87328582D01*
X54092854Y-87214296D01*
X54521425Y-87100011D01*
X53921425Y-86957153D01*
X54521425Y-86728582D02*
X53921425Y-86728582D01*
X53921425Y-86585725D01*
X53949997Y-86500011D01*
X54007139Y-86442868D01*
X54064282Y-86414296D01*
X54178568Y-86385725D01*
X54264282Y-86385725D01*
X54378568Y-86414296D01*
X54435711Y-86442868D01*
X54492854Y-86500011D01*
X54521425Y-86585725D01*
X54521425Y-86728582D01*
%TO.C,JP2*%
X76528580Y-75971445D02*
X77128580Y-75971445D01*
X77128580Y-76114302D01*
X77100009Y-76200017D01*
X77042866Y-76257159D01*
X76985723Y-76285731D01*
X76871437Y-76314302D01*
X76785723Y-76314302D01*
X76671437Y-76285731D01*
X76614294Y-76257159D01*
X76557151Y-76200017D01*
X76528580Y-76114302D01*
X76528580Y-75971445D01*
X76842866Y-76771445D02*
X76842866Y-76571445D01*
X76528580Y-76571445D02*
X77128580Y-76571445D01*
X77128580Y-76857159D01*
X77128580Y-77085731D02*
X76642866Y-77085731D01*
X76585723Y-77114302D01*
X76557151Y-77142874D01*
X76528580Y-77200017D01*
X76528580Y-77314302D01*
X76557151Y-77371445D01*
X76585723Y-77400017D01*
X76642866Y-77428588D01*
X77128580Y-77428588D01*
%TO.C,JP1*%
X75471437Y-55928574D02*
X75471437Y-56528574D01*
X75242866Y-56528574D01*
X75185723Y-56500003D01*
X75157151Y-56471431D01*
X75128580Y-56414288D01*
X75128580Y-56328574D01*
X75157151Y-56271431D01*
X75185723Y-56242860D01*
X75242866Y-56214288D01*
X75471437Y-56214288D01*
X74871437Y-56528574D02*
X74871437Y-56042860D01*
X74842866Y-55985717D01*
X74814294Y-55957145D01*
X74757151Y-55928574D01*
X74642866Y-55928574D01*
X74585723Y-55957145D01*
X74557151Y-55985717D01*
X74528580Y-56042860D01*
X74528580Y-56528574D01*
X74242866Y-55928574D02*
X74242866Y-56528574D01*
X74014294Y-56528574D01*
X73957151Y-56500003D01*
X73928580Y-56471431D01*
X73900009Y-56414288D01*
X73900009Y-56328574D01*
X73928580Y-56271431D01*
X73957151Y-56242860D01*
X74014294Y-56214288D01*
X74242866Y-56214288D01*
%TO.C,D2*%
X54871425Y-77671439D02*
X54871425Y-77957153D01*
X54271425Y-77957153D01*
X54557139Y-77471439D02*
X54557139Y-77271439D01*
X54871425Y-77185725D02*
X54871425Y-77471439D01*
X54271425Y-77471439D01*
X54271425Y-77185725D01*
X54871425Y-76928582D02*
X54271425Y-76928582D01*
X54271425Y-76785725D01*
X54299997Y-76700011D01*
X54357139Y-76642868D01*
X54414282Y-76614296D01*
X54528568Y-76585725D01*
X54614282Y-76585725D01*
X54728568Y-76614296D01*
X54785711Y-76642868D01*
X54842854Y-76700011D01*
X54871425Y-76785725D01*
X54871425Y-76928582D01*
X54328568Y-76357153D02*
X54299997Y-76328582D01*
X54271425Y-76271439D01*
X54271425Y-76128582D01*
X54299997Y-76071439D01*
X54328568Y-76042868D01*
X54385711Y-76014296D01*
X54442854Y-76014296D01*
X54528568Y-76042868D01*
X54871425Y-76385725D01*
X54871425Y-76014296D01*
%TO.C,JP2*%
X58471425Y-104028589D02*
X57871425Y-104028589D01*
X57871425Y-103885732D01*
X57899997Y-103800018D01*
X57957139Y-103742875D01*
X58014282Y-103714303D01*
X58128568Y-103685732D01*
X58214282Y-103685732D01*
X58328568Y-103714303D01*
X58385711Y-103742875D01*
X58442854Y-103800018D01*
X58471425Y-103885732D01*
X58471425Y-104028589D01*
X58157139Y-103228589D02*
X58157139Y-103428589D01*
X58471425Y-103428589D02*
X57871425Y-103428589D01*
X57871425Y-103142875D01*
X57871425Y-102914303D02*
X58357139Y-102914303D01*
X58414282Y-102885732D01*
X58442854Y-102857160D01*
X58471425Y-102800018D01*
X58471425Y-102685732D01*
X58442854Y-102628589D01*
X58414282Y-102600018D01*
X58357139Y-102571446D01*
X57871425Y-102571446D01*
%TO.C,J3*%
X80507151Y-43985717D02*
X80478580Y-44071431D01*
X80478580Y-44214288D01*
X80507151Y-44271431D01*
X80535723Y-44300003D01*
X80592866Y-44328574D01*
X80650009Y-44328574D01*
X80707151Y-44300003D01*
X80735723Y-44271431D01*
X80764294Y-44214288D01*
X80792866Y-44100003D01*
X80821437Y-44042860D01*
X80850009Y-44014288D01*
X80907151Y-43985717D01*
X80964294Y-43985717D01*
X81021437Y-44014288D01*
X81050009Y-44042860D01*
X81078580Y-44100003D01*
X81078580Y-44242860D01*
X81050009Y-44328574D01*
X81078580Y-44528574D02*
X80478580Y-44671431D01*
X80907151Y-44785717D01*
X80478580Y-44900003D01*
X81078580Y-45042860D01*
X80478580Y-45271431D02*
X81078580Y-45271431D01*
X81078580Y-45414288D01*
X81050009Y-45500003D01*
X80992866Y-45557145D01*
X80935723Y-45585717D01*
X80821437Y-45614288D01*
X80735723Y-45614288D01*
X80621437Y-45585717D01*
X80564294Y-45557145D01*
X80507151Y-45500003D01*
X80478580Y-45414288D01*
X80478580Y-45271431D01*
%TO.C,JP2*%
X76528580Y-91971452D02*
X77128580Y-91971452D01*
X77128580Y-92114309D01*
X77100009Y-92200024D01*
X77042866Y-92257166D01*
X76985723Y-92285738D01*
X76871437Y-92314309D01*
X76785723Y-92314309D01*
X76671437Y-92285738D01*
X76614294Y-92257166D01*
X76557151Y-92200024D01*
X76528580Y-92114309D01*
X76528580Y-91971452D01*
X76842866Y-92771452D02*
X76842866Y-92571452D01*
X76528580Y-92571452D02*
X77128580Y-92571452D01*
X77128580Y-92857166D01*
X77128580Y-93085738D02*
X76642866Y-93085738D01*
X76585723Y-93114309D01*
X76557151Y-93142881D01*
X76528580Y-93200024D01*
X76528580Y-93314309D01*
X76557151Y-93371452D01*
X76585723Y-93400024D01*
X76642866Y-93428595D01*
X77128580Y-93428595D01*
%TO.C,J3*%
X80507151Y-91985738D02*
X80478580Y-92071452D01*
X80478580Y-92214309D01*
X80507151Y-92271452D01*
X80535723Y-92300024D01*
X80592866Y-92328595D01*
X80650009Y-92328595D01*
X80707151Y-92300024D01*
X80735723Y-92271452D01*
X80764294Y-92214309D01*
X80792866Y-92100024D01*
X80821437Y-92042881D01*
X80850009Y-92014309D01*
X80907151Y-91985738D01*
X80964294Y-91985738D01*
X81021437Y-92014309D01*
X81050009Y-92042881D01*
X81078580Y-92100024D01*
X81078580Y-92242881D01*
X81050009Y-92328595D01*
X81078580Y-92528595D02*
X80478580Y-92671452D01*
X80907151Y-92785738D01*
X80478580Y-92900024D01*
X81078580Y-93042881D01*
X80478580Y-93271452D02*
X81078580Y-93271452D01*
X81078580Y-93414309D01*
X81050009Y-93500024D01*
X80992866Y-93557166D01*
X80935723Y-93585738D01*
X80821437Y-93614309D01*
X80735723Y-93614309D01*
X80621437Y-93585738D01*
X80564294Y-93557166D01*
X80507151Y-93500024D01*
X80478580Y-93414309D01*
X80478580Y-93271452D01*
X54492854Y-104014303D02*
X54521425Y-103928589D01*
X54521425Y-103785732D01*
X54492854Y-103728589D01*
X54464282Y-103700018D01*
X54407139Y-103671446D01*
X54349997Y-103671446D01*
X54292854Y-103700018D01*
X54264282Y-103728589D01*
X54235711Y-103785732D01*
X54207139Y-103900018D01*
X54178568Y-103957160D01*
X54149997Y-103985732D01*
X54092854Y-104014303D01*
X54035711Y-104014303D01*
X53978568Y-103985732D01*
X53949997Y-103957160D01*
X53921425Y-103900018D01*
X53921425Y-103757160D01*
X53949997Y-103671446D01*
X53921425Y-103471446D02*
X54521425Y-103328589D01*
X54092854Y-103214303D01*
X54521425Y-103100018D01*
X53921425Y-102957160D01*
X54521425Y-102728589D02*
X53921425Y-102728589D01*
X53921425Y-102585732D01*
X53949997Y-102500018D01*
X54007139Y-102442875D01*
X54064282Y-102414303D01*
X54178568Y-102385732D01*
X54264282Y-102385732D01*
X54378568Y-102414303D01*
X54435711Y-102442875D01*
X54492854Y-102500018D01*
X54521425Y-102585732D01*
X54521425Y-102728589D01*
%TO.C,JP2*%
X58471425Y-88028582D02*
X57871425Y-88028582D01*
X57871425Y-87885725D01*
X57899997Y-87800011D01*
X57957139Y-87742868D01*
X58014282Y-87714296D01*
X58128568Y-87685725D01*
X58214282Y-87685725D01*
X58328568Y-87714296D01*
X58385711Y-87742868D01*
X58442854Y-87800011D01*
X58471425Y-87885725D01*
X58471425Y-88028582D01*
X58157139Y-87228582D02*
X58157139Y-87428582D01*
X58471425Y-87428582D02*
X57871425Y-87428582D01*
X57871425Y-87142868D01*
X57871425Y-86914296D02*
X58357139Y-86914296D01*
X58414282Y-86885725D01*
X58442854Y-86857153D01*
X58471425Y-86800011D01*
X58471425Y-86685725D01*
X58442854Y-86628582D01*
X58414282Y-86600011D01*
X58357139Y-86571439D01*
X57871425Y-86571439D01*
%TO.C,D2*%
X80128580Y-54328574D02*
X80128580Y-54042860D01*
X80728580Y-54042860D01*
X80442866Y-54528574D02*
X80442866Y-54728574D01*
X80128580Y-54814288D02*
X80128580Y-54528574D01*
X80728580Y-54528574D01*
X80728580Y-54814288D01*
X80128580Y-55071431D02*
X80728580Y-55071431D01*
X80728580Y-55214288D01*
X80700009Y-55300003D01*
X80642866Y-55357145D01*
X80585723Y-55385717D01*
X80471437Y-55414288D01*
X80385723Y-55414288D01*
X80271437Y-55385717D01*
X80214294Y-55357145D01*
X80157151Y-55300003D01*
X80128580Y-55214288D01*
X80128580Y-55071431D01*
X80671437Y-55642860D02*
X80700009Y-55671431D01*
X80728580Y-55728574D01*
X80728580Y-55871431D01*
X80700009Y-55928574D01*
X80671437Y-55957145D01*
X80614294Y-55985717D01*
X80557151Y-55985717D01*
X80471437Y-55957145D01*
X80128580Y-55614288D01*
X80128580Y-55985717D01*
%TO.C,J3*%
X80507151Y-59985724D02*
X80478580Y-60071438D01*
X80478580Y-60214295D01*
X80507151Y-60271438D01*
X80535723Y-60300010D01*
X80592866Y-60328581D01*
X80650009Y-60328581D01*
X80707151Y-60300010D01*
X80735723Y-60271438D01*
X80764294Y-60214295D01*
X80792866Y-60100010D01*
X80821437Y-60042867D01*
X80850009Y-60014295D01*
X80907151Y-59985724D01*
X80964294Y-59985724D01*
X81021437Y-60014295D01*
X81050009Y-60042867D01*
X81078580Y-60100010D01*
X81078580Y-60242867D01*
X81050009Y-60328581D01*
X81078580Y-60528581D02*
X80478580Y-60671438D01*
X80907151Y-60785724D01*
X80478580Y-60900010D01*
X81078580Y-61042867D01*
X80478580Y-61271438D02*
X81078580Y-61271438D01*
X81078580Y-61414295D01*
X81050009Y-61500010D01*
X80992866Y-61557152D01*
X80935723Y-61585724D01*
X80821437Y-61614295D01*
X80735723Y-61614295D01*
X80621437Y-61585724D01*
X80564294Y-61557152D01*
X80507151Y-61500010D01*
X80478580Y-61414295D01*
X80478580Y-61271438D01*
%TO.C,D2*%
X54871425Y-109671453D02*
X54871425Y-109957167D01*
X54271425Y-109957167D01*
X54557139Y-109471453D02*
X54557139Y-109271453D01*
X54871425Y-109185739D02*
X54871425Y-109471453D01*
X54271425Y-109471453D01*
X54271425Y-109185739D01*
X54871425Y-108928596D02*
X54271425Y-108928596D01*
X54271425Y-108785739D01*
X54299997Y-108700025D01*
X54357139Y-108642882D01*
X54414282Y-108614310D01*
X54528568Y-108585739D01*
X54614282Y-108585739D01*
X54728568Y-108614310D01*
X54785711Y-108642882D01*
X54842854Y-108700025D01*
X54871425Y-108785739D01*
X54871425Y-108928596D01*
X54328568Y-108357167D02*
X54299997Y-108328596D01*
X54271425Y-108271453D01*
X54271425Y-108128596D01*
X54299997Y-108071453D01*
X54328568Y-108042882D01*
X54385711Y-108014310D01*
X54442854Y-108014310D01*
X54528568Y-108042882D01*
X54871425Y-108385739D01*
X54871425Y-108014310D01*
%TO.C,JP1*%
X75471437Y-87928588D02*
X75471437Y-88528588D01*
X75242866Y-88528588D01*
X75185723Y-88500017D01*
X75157151Y-88471445D01*
X75128580Y-88414302D01*
X75128580Y-88328588D01*
X75157151Y-88271445D01*
X75185723Y-88242874D01*
X75242866Y-88214302D01*
X75471437Y-88214302D01*
X74871437Y-88528588D02*
X74871437Y-88042874D01*
X74842866Y-87985731D01*
X74814294Y-87957159D01*
X74757151Y-87928588D01*
X74642866Y-87928588D01*
X74585723Y-87957159D01*
X74557151Y-87985731D01*
X74528580Y-88042874D01*
X74528580Y-88528588D01*
X74242866Y-87928588D02*
X74242866Y-88528588D01*
X74014294Y-88528588D01*
X73957151Y-88500017D01*
X73928580Y-88471445D01*
X73900009Y-88414302D01*
X73900009Y-88328588D01*
X73928580Y-88271445D01*
X73957151Y-88242874D01*
X74014294Y-88214302D01*
X74242866Y-88214302D01*
%TO.C,J3*%
X54492854Y-72014289D02*
X54521425Y-71928575D01*
X54521425Y-71785718D01*
X54492854Y-71728575D01*
X54464282Y-71700004D01*
X54407139Y-71671432D01*
X54349997Y-71671432D01*
X54292854Y-71700004D01*
X54264282Y-71728575D01*
X54235711Y-71785718D01*
X54207139Y-71900004D01*
X54178568Y-71957146D01*
X54149997Y-71985718D01*
X54092854Y-72014289D01*
X54035711Y-72014289D01*
X53978568Y-71985718D01*
X53949997Y-71957146D01*
X53921425Y-71900004D01*
X53921425Y-71757146D01*
X53949997Y-71671432D01*
X53921425Y-71471432D02*
X54521425Y-71328575D01*
X54092854Y-71214289D01*
X54521425Y-71100004D01*
X53921425Y-70957146D01*
X54521425Y-70728575D02*
X53921425Y-70728575D01*
X53921425Y-70585718D01*
X53949997Y-70500004D01*
X54007139Y-70442861D01*
X54064282Y-70414289D01*
X54178568Y-70385718D01*
X54264282Y-70385718D01*
X54378568Y-70414289D01*
X54435711Y-70442861D01*
X54492854Y-70500004D01*
X54521425Y-70585718D01*
X54521425Y-70728575D01*
%TO.C,D1*%
X87708580Y-86328588D02*
X87708580Y-86042874D01*
X88308580Y-86042874D01*
X88022866Y-86528588D02*
X88022866Y-86728588D01*
X87708580Y-86814302D02*
X87708580Y-86528588D01*
X88308580Y-86528588D01*
X88308580Y-86814302D01*
X87708580Y-87071445D02*
X88308580Y-87071445D01*
X88308580Y-87214302D01*
X88280009Y-87300017D01*
X88222866Y-87357159D01*
X88165723Y-87385731D01*
X88051437Y-87414302D01*
X87965723Y-87414302D01*
X87851437Y-87385731D01*
X87794294Y-87357159D01*
X87737151Y-87300017D01*
X87708580Y-87214302D01*
X87708580Y-87071445D01*
X87708580Y-87985731D02*
X87708580Y-87642874D01*
X87708580Y-87814302D02*
X88308580Y-87814302D01*
X88222866Y-87757159D01*
X88165723Y-87700017D01*
X88137151Y-87642874D01*
%TO.C,JP1*%
X59528568Y-108071453D02*
X59528568Y-107471453D01*
X59757139Y-107471453D01*
X59814282Y-107500025D01*
X59842854Y-107528596D01*
X59871425Y-107585739D01*
X59871425Y-107671453D01*
X59842854Y-107728596D01*
X59814282Y-107757167D01*
X59757139Y-107785739D01*
X59528568Y-107785739D01*
X60128568Y-107471453D02*
X60128568Y-107957167D01*
X60157139Y-108014310D01*
X60185711Y-108042882D01*
X60242854Y-108071453D01*
X60357139Y-108071453D01*
X60414282Y-108042882D01*
X60442854Y-108014310D01*
X60471425Y-107957167D01*
X60471425Y-107471453D01*
X60757139Y-108071453D02*
X60757139Y-107471453D01*
X60985711Y-107471453D01*
X61042854Y-107500025D01*
X61071425Y-107528596D01*
X61099997Y-107585739D01*
X61099997Y-107671453D01*
X61071425Y-107728596D01*
X61042854Y-107757167D01*
X60985711Y-107785739D01*
X60757139Y-107785739D01*
%TO.C,J3*%
X54492854Y-56014282D02*
X54521425Y-55928568D01*
X54521425Y-55785711D01*
X54492854Y-55728568D01*
X54464282Y-55699997D01*
X54407139Y-55671425D01*
X54349997Y-55671425D01*
X54292854Y-55699997D01*
X54264282Y-55728568D01*
X54235711Y-55785711D01*
X54207139Y-55899997D01*
X54178568Y-55957139D01*
X54149997Y-55985711D01*
X54092854Y-56014282D01*
X54035711Y-56014282D01*
X53978568Y-55985711D01*
X53949997Y-55957139D01*
X53921425Y-55899997D01*
X53921425Y-55757139D01*
X53949997Y-55671425D01*
X53921425Y-55471425D02*
X54521425Y-55328568D01*
X54092854Y-55214282D01*
X54521425Y-55099997D01*
X53921425Y-54957139D01*
X54521425Y-54728568D02*
X53921425Y-54728568D01*
X53921425Y-54585711D01*
X53949997Y-54499997D01*
X54007139Y-54442854D01*
X54064282Y-54414282D01*
X54178568Y-54385711D01*
X54264282Y-54385711D01*
X54378568Y-54414282D01*
X54435711Y-54442854D01*
X54492854Y-54499997D01*
X54521425Y-54585711D01*
X54521425Y-54728568D01*
%TO.C,JP2*%
X76528580Y-107971459D02*
X77128580Y-107971459D01*
X77128580Y-108114316D01*
X77100009Y-108200031D01*
X77042866Y-108257173D01*
X76985723Y-108285745D01*
X76871437Y-108314316D01*
X76785723Y-108314316D01*
X76671437Y-108285745D01*
X76614294Y-108257173D01*
X76557151Y-108200031D01*
X76528580Y-108114316D01*
X76528580Y-107971459D01*
X76842866Y-108771459D02*
X76842866Y-108571459D01*
X76528580Y-108571459D02*
X77128580Y-108571459D01*
X77128580Y-108857173D01*
X77128580Y-109085745D02*
X76642866Y-109085745D01*
X76585723Y-109114316D01*
X76557151Y-109142888D01*
X76528580Y-109200031D01*
X76528580Y-109314316D01*
X76557151Y-109371459D01*
X76585723Y-109400031D01*
X76642866Y-109428602D01*
X77128580Y-109428602D01*
%TO.C,D1*%
X47291425Y-45671425D02*
X47291425Y-45957139D01*
X46691425Y-45957139D01*
X46977139Y-45471425D02*
X46977139Y-45271425D01*
X47291425Y-45185711D02*
X47291425Y-45471425D01*
X46691425Y-45471425D01*
X46691425Y-45185711D01*
X47291425Y-44928568D02*
X46691425Y-44928568D01*
X46691425Y-44785711D01*
X46719997Y-44699997D01*
X46777139Y-44642854D01*
X46834282Y-44614282D01*
X46948568Y-44585711D01*
X47034282Y-44585711D01*
X47148568Y-44614282D01*
X47205711Y-44642854D01*
X47262854Y-44699997D01*
X47291425Y-44785711D01*
X47291425Y-44928568D01*
X47291425Y-44014282D02*
X47291425Y-44357139D01*
X47291425Y-44185711D02*
X46691425Y-44185711D01*
X46777139Y-44242854D01*
X46834282Y-44299997D01*
X46862854Y-44357139D01*
X47291425Y-61671432D02*
X47291425Y-61957146D01*
X46691425Y-61957146D01*
X46977139Y-61471432D02*
X46977139Y-61271432D01*
X47291425Y-61185718D02*
X47291425Y-61471432D01*
X46691425Y-61471432D01*
X46691425Y-61185718D01*
X47291425Y-60928575D02*
X46691425Y-60928575D01*
X46691425Y-60785718D01*
X46719997Y-60700004D01*
X46777139Y-60642861D01*
X46834282Y-60614289D01*
X46948568Y-60585718D01*
X47034282Y-60585718D01*
X47148568Y-60614289D01*
X47205711Y-60642861D01*
X47262854Y-60700004D01*
X47291425Y-60785718D01*
X47291425Y-60928575D01*
X47291425Y-60014289D02*
X47291425Y-60357146D01*
X47291425Y-60185718D02*
X46691425Y-60185718D01*
X46777139Y-60242861D01*
X46834282Y-60300004D01*
X46862854Y-60357146D01*
X87708580Y-102328595D02*
X87708580Y-102042881D01*
X88308580Y-102042881D01*
X88022866Y-102528595D02*
X88022866Y-102728595D01*
X87708580Y-102814309D02*
X87708580Y-102528595D01*
X88308580Y-102528595D01*
X88308580Y-102814309D01*
X87708580Y-103071452D02*
X88308580Y-103071452D01*
X88308580Y-103214309D01*
X88280009Y-103300024D01*
X88222866Y-103357166D01*
X88165723Y-103385738D01*
X88051437Y-103414309D01*
X87965723Y-103414309D01*
X87851437Y-103385738D01*
X87794294Y-103357166D01*
X87737151Y-103300024D01*
X87708580Y-103214309D01*
X87708580Y-103071452D01*
X87708580Y-103985738D02*
X87708580Y-103642881D01*
X87708580Y-103814309D02*
X88308580Y-103814309D01*
X88222866Y-103757166D01*
X88165723Y-103700024D01*
X88137151Y-103642881D01*
%TO.C,J3*%
X80507151Y-75985731D02*
X80478580Y-76071445D01*
X80478580Y-76214302D01*
X80507151Y-76271445D01*
X80535723Y-76300017D01*
X80592866Y-76328588D01*
X80650009Y-76328588D01*
X80707151Y-76300017D01*
X80735723Y-76271445D01*
X80764294Y-76214302D01*
X80792866Y-76100017D01*
X80821437Y-76042874D01*
X80850009Y-76014302D01*
X80907151Y-75985731D01*
X80964294Y-75985731D01*
X81021437Y-76014302D01*
X81050009Y-76042874D01*
X81078580Y-76100017D01*
X81078580Y-76242874D01*
X81050009Y-76328588D01*
X81078580Y-76528588D02*
X80478580Y-76671445D01*
X80907151Y-76785731D01*
X80478580Y-76900017D01*
X81078580Y-77042874D01*
X80478580Y-77271445D02*
X81078580Y-77271445D01*
X81078580Y-77414302D01*
X81050009Y-77500017D01*
X80992866Y-77557159D01*
X80935723Y-77585731D01*
X80821437Y-77614302D01*
X80735723Y-77614302D01*
X80621437Y-77585731D01*
X80564294Y-77557159D01*
X80507151Y-77500017D01*
X80478580Y-77414302D01*
X80478580Y-77271445D01*
%TO.C,D1*%
X47291425Y-109671453D02*
X47291425Y-109957167D01*
X46691425Y-109957167D01*
X46977139Y-109471453D02*
X46977139Y-109271453D01*
X47291425Y-109185739D02*
X47291425Y-109471453D01*
X46691425Y-109471453D01*
X46691425Y-109185739D01*
X47291425Y-108928596D02*
X46691425Y-108928596D01*
X46691425Y-108785739D01*
X46719997Y-108700025D01*
X46777139Y-108642882D01*
X46834282Y-108614310D01*
X46948568Y-108585739D01*
X47034282Y-108585739D01*
X47148568Y-108614310D01*
X47205711Y-108642882D01*
X47262854Y-108700025D01*
X47291425Y-108785739D01*
X47291425Y-108928596D01*
X47291425Y-108014310D02*
X47291425Y-108357167D01*
X47291425Y-108185739D02*
X46691425Y-108185739D01*
X46777139Y-108242882D01*
X46834282Y-108300025D01*
X46862854Y-108357167D01*
%TO.C,JP1*%
X59528568Y-92071446D02*
X59528568Y-91471446D01*
X59757139Y-91471446D01*
X59814282Y-91500018D01*
X59842854Y-91528589D01*
X59871425Y-91585732D01*
X59871425Y-91671446D01*
X59842854Y-91728589D01*
X59814282Y-91757160D01*
X59757139Y-91785732D01*
X59528568Y-91785732D01*
X60128568Y-91471446D02*
X60128568Y-91957160D01*
X60157139Y-92014303D01*
X60185711Y-92042875D01*
X60242854Y-92071446D01*
X60357139Y-92071446D01*
X60414282Y-92042875D01*
X60442854Y-92014303D01*
X60471425Y-91957160D01*
X60471425Y-91471446D01*
X60757139Y-92071446D02*
X60757139Y-91471446D01*
X60985711Y-91471446D01*
X61042854Y-91500018D01*
X61071425Y-91528589D01*
X61099997Y-91585732D01*
X61099997Y-91671446D01*
X61071425Y-91728589D01*
X61042854Y-91757160D01*
X60985711Y-91785732D01*
X60757139Y-91785732D01*
%TO.C,D2*%
X54871425Y-93671446D02*
X54871425Y-93957160D01*
X54271425Y-93957160D01*
X54557139Y-93471446D02*
X54557139Y-93271446D01*
X54871425Y-93185732D02*
X54871425Y-93471446D01*
X54271425Y-93471446D01*
X54271425Y-93185732D01*
X54871425Y-92928589D02*
X54271425Y-92928589D01*
X54271425Y-92785732D01*
X54299997Y-92700018D01*
X54357139Y-92642875D01*
X54414282Y-92614303D01*
X54528568Y-92585732D01*
X54614282Y-92585732D01*
X54728568Y-92614303D01*
X54785711Y-92642875D01*
X54842854Y-92700018D01*
X54871425Y-92785732D01*
X54871425Y-92928589D01*
X54328568Y-92357160D02*
X54299997Y-92328589D01*
X54271425Y-92271446D01*
X54271425Y-92128589D01*
X54299997Y-92071446D01*
X54328568Y-92042875D01*
X54385711Y-92014303D01*
X54442854Y-92014303D01*
X54528568Y-92042875D01*
X54871425Y-92385732D01*
X54871425Y-92014303D01*
%TO.C,D1*%
X87708580Y-54328574D02*
X87708580Y-54042860D01*
X88308580Y-54042860D01*
X88022866Y-54528574D02*
X88022866Y-54728574D01*
X87708580Y-54814288D02*
X87708580Y-54528574D01*
X88308580Y-54528574D01*
X88308580Y-54814288D01*
X87708580Y-55071431D02*
X88308580Y-55071431D01*
X88308580Y-55214288D01*
X88280009Y-55300003D01*
X88222866Y-55357145D01*
X88165723Y-55385717D01*
X88051437Y-55414288D01*
X87965723Y-55414288D01*
X87851437Y-55385717D01*
X87794294Y-55357145D01*
X87737151Y-55300003D01*
X87708580Y-55214288D01*
X87708580Y-55071431D01*
X87708580Y-55985717D02*
X87708580Y-55642860D01*
X87708580Y-55814288D02*
X88308580Y-55814288D01*
X88222866Y-55757145D01*
X88165723Y-55700003D01*
X88137151Y-55642860D01*
X47291425Y-93671446D02*
X47291425Y-93957160D01*
X46691425Y-93957160D01*
X46977139Y-93471446D02*
X46977139Y-93271446D01*
X47291425Y-93185732D02*
X47291425Y-93471446D01*
X46691425Y-93471446D01*
X46691425Y-93185732D01*
X47291425Y-92928589D02*
X46691425Y-92928589D01*
X46691425Y-92785732D01*
X46719997Y-92700018D01*
X46777139Y-92642875D01*
X46834282Y-92614303D01*
X46948568Y-92585732D01*
X47034282Y-92585732D01*
X47148568Y-92614303D01*
X47205711Y-92642875D01*
X47262854Y-92700018D01*
X47291425Y-92785732D01*
X47291425Y-92928589D01*
X47291425Y-92014303D02*
X47291425Y-92357160D01*
X47291425Y-92185732D02*
X46691425Y-92185732D01*
X46777139Y-92242875D01*
X46834282Y-92300018D01*
X46862854Y-92357160D01*
%TO.C,JP1*%
X75471437Y-71928581D02*
X75471437Y-72528581D01*
X75242866Y-72528581D01*
X75185723Y-72500010D01*
X75157151Y-72471438D01*
X75128580Y-72414295D01*
X75128580Y-72328581D01*
X75157151Y-72271438D01*
X75185723Y-72242867D01*
X75242866Y-72214295D01*
X75471437Y-72214295D01*
X74871437Y-72528581D02*
X74871437Y-72042867D01*
X74842866Y-71985724D01*
X74814294Y-71957152D01*
X74757151Y-71928581D01*
X74642866Y-71928581D01*
X74585723Y-71957152D01*
X74557151Y-71985724D01*
X74528580Y-72042867D01*
X74528580Y-72528581D01*
X74242866Y-71928581D02*
X74242866Y-72528581D01*
X74014294Y-72528581D01*
X73957151Y-72500010D01*
X73928580Y-72471438D01*
X73900009Y-72414295D01*
X73900009Y-72328581D01*
X73928580Y-72271438D01*
X73957151Y-72242867D01*
X74014294Y-72214295D01*
X74242866Y-72214295D01*
%TO.C,D2*%
X54871425Y-45671425D02*
X54871425Y-45957139D01*
X54271425Y-45957139D01*
X54557139Y-45471425D02*
X54557139Y-45271425D01*
X54871425Y-45185711D02*
X54871425Y-45471425D01*
X54271425Y-45471425D01*
X54271425Y-45185711D01*
X54871425Y-44928568D02*
X54271425Y-44928568D01*
X54271425Y-44785711D01*
X54299997Y-44699997D01*
X54357139Y-44642854D01*
X54414282Y-44614282D01*
X54528568Y-44585711D01*
X54614282Y-44585711D01*
X54728568Y-44614282D01*
X54785711Y-44642854D01*
X54842854Y-44699997D01*
X54871425Y-44785711D01*
X54871425Y-44928568D01*
X54328568Y-44357139D02*
X54299997Y-44328568D01*
X54271425Y-44271425D01*
X54271425Y-44128568D01*
X54299997Y-44071425D01*
X54328568Y-44042854D01*
X54385711Y-44014282D01*
X54442854Y-44014282D01*
X54528568Y-44042854D01*
X54871425Y-44385711D01*
X54871425Y-44014282D01*
X80128580Y-70328581D02*
X80128580Y-70042867D01*
X80728580Y-70042867D01*
X80442866Y-70528581D02*
X80442866Y-70728581D01*
X80128580Y-70814295D02*
X80128580Y-70528581D01*
X80728580Y-70528581D01*
X80728580Y-70814295D01*
X80128580Y-71071438D02*
X80728580Y-71071438D01*
X80728580Y-71214295D01*
X80700009Y-71300010D01*
X80642866Y-71357152D01*
X80585723Y-71385724D01*
X80471437Y-71414295D01*
X80385723Y-71414295D01*
X80271437Y-71385724D01*
X80214294Y-71357152D01*
X80157151Y-71300010D01*
X80128580Y-71214295D01*
X80128580Y-71071438D01*
X80671437Y-71642867D02*
X80700009Y-71671438D01*
X80728580Y-71728581D01*
X80728580Y-71871438D01*
X80700009Y-71928581D01*
X80671437Y-71957152D01*
X80614294Y-71985724D01*
X80557151Y-71985724D01*
X80471437Y-71957152D01*
X80128580Y-71614295D01*
X80128580Y-71985724D01*
%TO.C,JP2*%
X58471425Y-120028596D02*
X57871425Y-120028596D01*
X57871425Y-119885739D01*
X57899997Y-119800025D01*
X57957139Y-119742882D01*
X58014282Y-119714310D01*
X58128568Y-119685739D01*
X58214282Y-119685739D01*
X58328568Y-119714310D01*
X58385711Y-119742882D01*
X58442854Y-119800025D01*
X58471425Y-119885739D01*
X58471425Y-120028596D01*
X58157139Y-119228596D02*
X58157139Y-119428596D01*
X58471425Y-119428596D02*
X57871425Y-119428596D01*
X57871425Y-119142882D01*
X57871425Y-118914310D02*
X58357139Y-118914310D01*
X58414282Y-118885739D01*
X58442854Y-118857167D01*
X58471425Y-118800025D01*
X58471425Y-118685739D01*
X58442854Y-118628596D01*
X58414282Y-118600025D01*
X58357139Y-118571453D01*
X57871425Y-118571453D01*
%TO.C,JP1*%
X75471437Y-119928602D02*
X75471437Y-120528602D01*
X75242866Y-120528602D01*
X75185723Y-120500031D01*
X75157151Y-120471459D01*
X75128580Y-120414316D01*
X75128580Y-120328602D01*
X75157151Y-120271459D01*
X75185723Y-120242888D01*
X75242866Y-120214316D01*
X75471437Y-120214316D01*
X74871437Y-120528602D02*
X74871437Y-120042888D01*
X74842866Y-119985745D01*
X74814294Y-119957173D01*
X74757151Y-119928602D01*
X74642866Y-119928602D01*
X74585723Y-119957173D01*
X74557151Y-119985745D01*
X74528580Y-120042888D01*
X74528580Y-120528602D01*
X74242866Y-119928602D02*
X74242866Y-120528602D01*
X74014294Y-120528602D01*
X73957151Y-120500031D01*
X73928580Y-120471459D01*
X73900009Y-120414316D01*
X73900009Y-120328602D01*
X73928580Y-120271459D01*
X73957151Y-120242888D01*
X74014294Y-120214316D01*
X74242866Y-120214316D01*
%TO.C,D2*%
X80128580Y-86328588D02*
X80128580Y-86042874D01*
X80728580Y-86042874D01*
X80442866Y-86528588D02*
X80442866Y-86728588D01*
X80128580Y-86814302D02*
X80128580Y-86528588D01*
X80728580Y-86528588D01*
X80728580Y-86814302D01*
X80128580Y-87071445D02*
X80728580Y-87071445D01*
X80728580Y-87214302D01*
X80700009Y-87300017D01*
X80642866Y-87357159D01*
X80585723Y-87385731D01*
X80471437Y-87414302D01*
X80385723Y-87414302D01*
X80271437Y-87385731D01*
X80214294Y-87357159D01*
X80157151Y-87300017D01*
X80128580Y-87214302D01*
X80128580Y-87071445D01*
X80671437Y-87642874D02*
X80700009Y-87671445D01*
X80728580Y-87728588D01*
X80728580Y-87871445D01*
X80700009Y-87928588D01*
X80671437Y-87957159D01*
X80614294Y-87985731D01*
X80557151Y-87985731D01*
X80471437Y-87957159D01*
X80128580Y-87614302D01*
X80128580Y-87985731D01*
D11*
%TO.C,R5*%
X77122509Y-51062745D02*
X77122509Y-51537261D01*
X76077509Y-51062745D02*
X76077509Y-51537261D01*
%TO.C,C2*%
X54989997Y-81853091D02*
X54989997Y-81571931D01*
X56009997Y-81853091D02*
X56009997Y-81571931D01*
X54989997Y-65853084D02*
X54989997Y-65571924D01*
X56009997Y-65853084D02*
X56009997Y-65571924D01*
%TO.C,JP2*%
X54749997Y-71600004D02*
X54749997Y-71000004D01*
X56849997Y-72300004D02*
X55449997Y-72300004D01*
X57549997Y-71000004D02*
X57549997Y-71600004D01*
X55449997Y-70300004D02*
X56849997Y-70300004D01*
X57549997Y-71600004D02*
G75*
G02*
X56849997Y-72300004I-700000J0D01*
G01*
X54749997Y-71000004D02*
G75*
G02*
X55449997Y-70300004I700000J0D01*
G01*
X56849997Y-70300004D02*
G75*
G02*
X57549997Y-71000004I0J-700000D01*
G01*
X55449997Y-72300004D02*
G75*
G02*
X54749997Y-71600004I0J700000D01*
G01*
%TO.C,R1*%
X50472497Y-92762760D02*
X50472497Y-93237276D01*
X49427497Y-92762760D02*
X49427497Y-93237276D01*
%TO.C,R4*%
X71122945Y-53865003D02*
X71577073Y-53865003D01*
X71122945Y-55335003D02*
X71577073Y-55335003D01*
%TO.C,Q1*%
X62509997Y-80600011D02*
X62509997Y-79950011D01*
X62509997Y-80600011D02*
X62509997Y-81250011D01*
X59389997Y-80600011D02*
X59389997Y-79950011D01*
X59389997Y-80600011D02*
X59389997Y-82275011D01*
%TO.C,U3*%
X90500009Y-43800003D02*
X89700009Y-43800003D01*
X90500009Y-46920003D02*
X89700009Y-46920003D01*
X90500009Y-46920003D02*
X92300009Y-46920003D01*
X90500009Y-43800003D02*
X91300009Y-43800003D01*
%TO.C,D2*%
X82585009Y-104485024D02*
X82585009Y-102200024D01*
X81115009Y-102200024D02*
X81115009Y-104485024D01*
X81115009Y-104485024D02*
X82585009Y-104485024D01*
%TO.C,J1*%
X71830009Y-79430017D02*
X69170009Y-79430017D01*
X69170009Y-82030017D02*
X69170009Y-79430017D01*
X71830009Y-82030017D02*
X71830009Y-79430017D01*
X71830009Y-84630017D02*
X70500009Y-84630017D01*
X71830009Y-83300017D02*
X71830009Y-84630017D01*
X71830009Y-82030017D02*
X69170009Y-82030017D01*
%TO.C,U1*%
X93660009Y-84240017D02*
X93660009Y-85040017D01*
X90540009Y-84240017D02*
X90540009Y-85040017D01*
X93660009Y-84240017D02*
X93660009Y-82440017D01*
X90540009Y-84240017D02*
X90540009Y-83440017D01*
%TO.C,R6*%
X78937267Y-95472524D02*
X78462751Y-95472524D01*
X78937267Y-94427524D02*
X78462751Y-94427524D01*
%TO.C,R7*%
X64727061Y-55334997D02*
X64272933Y-55334997D01*
X64727061Y-53864997D02*
X64272933Y-53864997D01*
%TO.C,U2*%
X84200009Y-101285024D02*
X82000009Y-101285024D01*
X84200009Y-94515024D02*
X80600009Y-94515024D01*
X84200009Y-94515024D02*
X86400009Y-94515024D01*
X84200009Y-101285024D02*
X86400009Y-101285024D01*
%TO.C,R3*%
X56722933Y-76665011D02*
X57177061Y-76665011D01*
X56722933Y-78135011D02*
X57177061Y-78135011D01*
%TO.C,D2*%
X53884997Y-61800004D02*
X53884997Y-59515004D01*
X53884997Y-59515004D02*
X52414997Y-59515004D01*
X52414997Y-59515004D02*
X52414997Y-61800004D01*
%TO.C,D3*%
X59369997Y-83490011D02*
X59369997Y-85650011D01*
X62529997Y-83490011D02*
X62529997Y-84950011D01*
X62529997Y-83490011D02*
X61599997Y-83490011D01*
X59369997Y-83490011D02*
X60299997Y-83490011D01*
%TO.C,R6*%
X78937267Y-46427503D02*
X78462751Y-46427503D01*
X78937267Y-47472503D02*
X78462751Y-47472503D01*
%TO.C,C1*%
X89510009Y-98859444D02*
X89510009Y-99140604D01*
X88490009Y-98859444D02*
X88490009Y-99140604D01*
%TO.C,C4*%
X42109997Y-117040605D02*
X42109997Y-116759445D01*
X41089997Y-117040605D02*
X41089997Y-116759445D01*
%TO.C,U3*%
X44499997Y-56199997D02*
X43699997Y-56199997D01*
X44499997Y-53079997D02*
X45299997Y-53079997D01*
X44499997Y-56199997D02*
X45299997Y-56199997D01*
X44499997Y-53079997D02*
X42699997Y-53079997D01*
%TO.C,R3*%
X78277073Y-117865031D02*
X77822945Y-117865031D01*
X78277073Y-119335031D02*
X77822945Y-119335031D01*
X56722933Y-108665025D02*
X57177061Y-108665025D01*
X56722933Y-110135025D02*
X57177061Y-110135025D01*
%TO.C,C1*%
X89510009Y-66859430D02*
X89510009Y-67140590D01*
X88490009Y-66859430D02*
X88490009Y-67140590D01*
%TO.C,R4*%
X63877061Y-110135025D02*
X63422933Y-110135025D01*
X63877061Y-108665025D02*
X63422933Y-108665025D01*
%TO.C,F1*%
X94041431Y-61110010D02*
X94558587Y-61110010D01*
X94041431Y-59690010D02*
X94558587Y-59690010D01*
%TO.C,R1*%
X84527509Y-71237268D02*
X84527509Y-70762752D01*
X85572509Y-71237268D02*
X85572509Y-70762752D01*
%TO.C,C1*%
X45489997Y-97140598D02*
X45489997Y-96859438D01*
X46509997Y-97140598D02*
X46509997Y-96859438D01*
%TO.C,J2*%
X100750009Y-43855003D02*
X101800009Y-43855003D01*
X97580009Y-45600003D02*
X96825009Y-45600003D01*
X100750009Y-56145003D02*
X101800009Y-56145003D01*
X97580009Y-45600003D02*
X97580009Y-54400003D01*
%TO.C,JP1*%
X61699997Y-61100004D02*
X61699997Y-61700004D01*
X58899997Y-61700004D02*
X58899997Y-61100004D01*
X60999997Y-62400004D02*
X59599997Y-62400004D01*
X59599997Y-60400004D02*
X60999997Y-60400004D01*
X58899997Y-61100004D02*
G75*
G02*
X59599997Y-60400004I700000J0D01*
G01*
X61699997Y-61700004D02*
G75*
G02*
X60999997Y-62400004I-700000J0D01*
G01*
X60999997Y-60400004D02*
G75*
G02*
X61699997Y-61100004I0J-700000D01*
G01*
X59599997Y-62400004D02*
G75*
G02*
X58899997Y-61700004I0J700000D01*
G01*
%TO.C,J1*%
X63169997Y-113970025D02*
X63169997Y-116570025D01*
X65829997Y-113970025D02*
X65829997Y-116570025D01*
X63169997Y-112700025D02*
X63169997Y-111370025D01*
X63169997Y-116570025D02*
X65829997Y-116570025D01*
X63169997Y-111370025D02*
X64499997Y-111370025D01*
X63169997Y-113970025D02*
X65829997Y-113970025D01*
%TO.C,C1*%
X46509997Y-81140591D02*
X46509997Y-80859431D01*
X45489997Y-81140591D02*
X45489997Y-80859431D01*
%TO.C,J3*%
X53774997Y-118892495D02*
X53774997Y-118090025D01*
X48759997Y-118090025D02*
X53774997Y-118090025D01*
X53774997Y-120310025D02*
X53774997Y-119507555D01*
X48759997Y-120310025D02*
X53774997Y-120310025D01*
X47999997Y-120310025D02*
X47239997Y-120310025D01*
X47239997Y-120310025D02*
X47239997Y-119200025D01*
X48759997Y-120310025D02*
X48759997Y-119763496D01*
X48759997Y-118636554D02*
X48759997Y-118090025D01*
%TO.C,U1*%
X93660009Y-116240031D02*
X93660009Y-114440031D01*
X90540009Y-116240031D02*
X90540009Y-115440031D01*
X90540009Y-116240031D02*
X90540009Y-117040031D01*
X93660009Y-116240031D02*
X93660009Y-117040031D01*
%TO.C,R7*%
X70272945Y-92665024D02*
X70727073Y-92665024D01*
X70272945Y-94135024D02*
X70727073Y-94135024D01*
%TO.C,R2*%
X52172497Y-44762739D02*
X52172497Y-45237255D01*
X51127497Y-44762739D02*
X51127497Y-45237255D01*
X52172497Y-108762767D02*
X52172497Y-109237283D01*
X51127497Y-108762767D02*
X51127497Y-109237283D01*
%TO.C,R6*%
X56062739Y-116527525D02*
X56537255Y-116527525D01*
X56062739Y-117572525D02*
X56537255Y-117572525D01*
%TO.C,JP2*%
X79550009Y-61700010D02*
X78150009Y-61700010D01*
X80250009Y-60400010D02*
X80250009Y-61000010D01*
X77450009Y-61000010D02*
X77450009Y-60400010D01*
X78150009Y-59700010D02*
X79550009Y-59700010D01*
X80250009Y-61000010D02*
G75*
G02*
X79550009Y-61700010I-700000J0D01*
G01*
X78150009Y-61700010D02*
G75*
G02*
X77450009Y-61000010I0J700000D01*
G01*
X77450009Y-60400010D02*
G75*
G02*
X78150009Y-59700010I700000J0D01*
G01*
X79550009Y-59700010D02*
G75*
G02*
X80250009Y-60400010I0J-700000D01*
G01*
%TO.C,R7*%
X64727061Y-85865011D02*
X64272933Y-85865011D01*
X64727061Y-87335011D02*
X64272933Y-87335011D01*
%TO.C,JP1*%
X58899997Y-77700011D02*
X58899997Y-77100011D01*
X59599997Y-76400011D02*
X60999997Y-76400011D01*
X61699997Y-77100011D02*
X61699997Y-77700011D01*
X60999997Y-78400011D02*
X59599997Y-78400011D01*
X58899997Y-77100011D02*
G75*
G02*
X59599997Y-76400011I700000J0D01*
G01*
X60999997Y-76400011D02*
G75*
G02*
X61699997Y-77100011I0J-700000D01*
G01*
X59599997Y-78400011D02*
G75*
G02*
X58899997Y-77700011I0J700000D01*
G01*
X61699997Y-77700011D02*
G75*
G02*
X60999997Y-78400011I-700000J0D01*
G01*
%TO.C,C4*%
X93910009Y-94959444D02*
X93910009Y-95240604D01*
X92890009Y-94959444D02*
X92890009Y-95240604D01*
%TO.C,U3*%
X44499997Y-88200011D02*
X45299997Y-88200011D01*
X44499997Y-85080011D02*
X42699997Y-85080011D01*
X44499997Y-88200011D02*
X43699997Y-88200011D01*
X44499997Y-85080011D02*
X45299997Y-85080011D01*
%TO.C,U2*%
X50799997Y-78715011D02*
X52999997Y-78715011D01*
X50799997Y-78715011D02*
X48599997Y-78715011D01*
X50799997Y-85485011D02*
X54399997Y-85485011D01*
X50799997Y-85485011D02*
X48599997Y-85485011D01*
%TO.C,R6*%
X56062739Y-85572511D02*
X56537255Y-85572511D01*
X56062739Y-84527511D02*
X56537255Y-84527511D01*
%TO.C,R3*%
X56722933Y-46134997D02*
X57177061Y-46134997D01*
X56722933Y-44664997D02*
X57177061Y-44664997D01*
%TO.C,Q1*%
X75610009Y-67400010D02*
X75610009Y-68050010D01*
X72490009Y-67400010D02*
X72490009Y-68050010D01*
X75610009Y-67400010D02*
X75610009Y-65725010D01*
X72490009Y-67400010D02*
X72490009Y-66750010D01*
%TO.C,D1*%
X87285009Y-120485031D02*
X87285009Y-118200031D01*
X85815009Y-118200031D02*
X85815009Y-120485031D01*
X85815009Y-120485031D02*
X87285009Y-120485031D01*
%TO.C,F1*%
X94041431Y-91690024D02*
X94558587Y-91690024D01*
X94041431Y-93110024D02*
X94558587Y-93110024D01*
%TO.C,R2*%
X82827509Y-71237268D02*
X82827509Y-70762752D01*
X83872509Y-71237268D02*
X83872509Y-70762752D01*
%TO.C,JP1*%
X73300009Y-102900024D02*
X73300009Y-102300024D01*
X75400009Y-103600024D02*
X74000009Y-103600024D01*
X76100009Y-102300024D02*
X76100009Y-102900024D01*
X74000009Y-101600024D02*
X75400009Y-101600024D01*
X73300009Y-102300024D02*
G75*
G02*
X74000009Y-101600024I700000J0D01*
G01*
X75400009Y-101600024D02*
G75*
G02*
X76100009Y-102300024I0J-700000D01*
G01*
X74000009Y-103600024D02*
G75*
G02*
X73300009Y-102900024I0J700000D01*
G01*
X76100009Y-102900024D02*
G75*
G02*
X75400009Y-103600024I-700000J0D01*
G01*
%TO.C,C1*%
X89510009Y-50859423D02*
X89510009Y-51140583D01*
X88490009Y-50859423D02*
X88490009Y-51140583D01*
%TO.C,D1*%
X87285009Y-72485010D02*
X87285009Y-70200010D01*
X85815009Y-70200010D02*
X85815009Y-72485010D01*
X85815009Y-72485010D02*
X87285009Y-72485010D01*
%TO.C,C4*%
X92890009Y-62959430D02*
X92890009Y-63240590D01*
X93910009Y-62959430D02*
X93910009Y-63240590D01*
%TO.C,C3*%
X90459429Y-79340017D02*
X90740589Y-79340017D01*
X90459429Y-80360017D02*
X90740589Y-80360017D01*
%TO.C,R4*%
X71122945Y-71335010D02*
X71577073Y-71335010D01*
X71122945Y-69865010D02*
X71577073Y-69865010D01*
%TO.C,C2*%
X78990009Y-114146951D02*
X78990009Y-114428111D01*
X80010009Y-114146951D02*
X80010009Y-114428111D01*
%TO.C,R1*%
X50472497Y-44762739D02*
X50472497Y-45237255D01*
X49427497Y-44762739D02*
X49427497Y-45237255D01*
%TO.C,D1*%
X49184997Y-77800011D02*
X49184997Y-75515011D01*
X49184997Y-75515011D02*
X47714997Y-75515011D01*
X47714997Y-75515011D02*
X47714997Y-77800011D01*
%TO.C,C2*%
X80010009Y-98146944D02*
X80010009Y-98428104D01*
X78990009Y-98146944D02*
X78990009Y-98428104D01*
%TO.C,C3*%
X44540577Y-115640025D02*
X44259417Y-115640025D01*
X44540577Y-116660025D02*
X44259417Y-116660025D01*
%TO.C,D3*%
X72470009Y-64510010D02*
X72470009Y-63050010D01*
X72470009Y-64510010D02*
X73400009Y-64510010D01*
X75630009Y-64510010D02*
X75630009Y-62350010D01*
X75630009Y-64510010D02*
X74700009Y-64510010D01*
%TO.C,R2*%
X52172497Y-60762746D02*
X52172497Y-61237262D01*
X51127497Y-60762746D02*
X51127497Y-61237262D01*
%TO.C,U2*%
X84200009Y-53285003D02*
X86400009Y-53285003D01*
X84200009Y-46515003D02*
X80600009Y-46515003D01*
X84200009Y-53285003D02*
X82000009Y-53285003D01*
X84200009Y-46515003D02*
X86400009Y-46515003D01*
%TO.C,R1*%
X50472497Y-60762746D02*
X50472497Y-61237262D01*
X49427497Y-60762746D02*
X49427497Y-61237262D01*
%TO.C,C1*%
X45489997Y-49140577D02*
X45489997Y-48859417D01*
X46509997Y-49140577D02*
X46509997Y-48859417D01*
%TO.C,JP2*%
X77450009Y-45000003D02*
X77450009Y-44400003D01*
X79550009Y-45700003D02*
X78150009Y-45700003D01*
X78150009Y-43700003D02*
X79550009Y-43700003D01*
X80250009Y-44400003D02*
X80250009Y-45000003D01*
X78150009Y-45700003D02*
G75*
G02*
X77450009Y-45000003I0J700000D01*
G01*
X80250009Y-45000003D02*
G75*
G02*
X79550009Y-45700003I-700000J0D01*
G01*
X79550009Y-43700003D02*
G75*
G02*
X80250009Y-44400003I0J-700000D01*
G01*
X77450009Y-44400003D02*
G75*
G02*
X78150009Y-43700003I700000J0D01*
G01*
%TO.C,F1*%
X40958575Y-88310011D02*
X40441419Y-88310011D01*
X40958575Y-86890011D02*
X40441419Y-86890011D01*
%TO.C,R5*%
X57877497Y-48937255D02*
X57877497Y-48462739D01*
X58922497Y-48937255D02*
X58922497Y-48462739D01*
X77122509Y-67062752D02*
X77122509Y-67537268D01*
X76077509Y-67062752D02*
X76077509Y-67537268D01*
%TO.C,JP1*%
X61699997Y-45099997D02*
X61699997Y-45699997D01*
X59599997Y-44399997D02*
X60999997Y-44399997D01*
X58899997Y-45699997D02*
X58899997Y-45099997D01*
X60999997Y-46399997D02*
X59599997Y-46399997D01*
X59599997Y-46399997D02*
G75*
G02*
X58899997Y-45699997I0J700000D01*
G01*
X60999997Y-44399997D02*
G75*
G02*
X61699997Y-45099997I0J-700000D01*
G01*
X61699997Y-45699997D02*
G75*
G02*
X60999997Y-46399997I-700000J0D01*
G01*
X58899997Y-45099997D02*
G75*
G02*
X59599997Y-44399997I700000J0D01*
G01*
%TO.C,D3*%
X59369997Y-67490004D02*
X60299997Y-67490004D01*
X59369997Y-67490004D02*
X59369997Y-69650004D01*
X62529997Y-67490004D02*
X61599997Y-67490004D01*
X62529997Y-67490004D02*
X62529997Y-68950004D01*
%TO.C,R7*%
X64727061Y-101865018D02*
X64272933Y-101865018D01*
X64727061Y-103335018D02*
X64272933Y-103335018D01*
%TO.C,U1*%
X44459997Y-63760004D02*
X44459997Y-64560004D01*
X44459997Y-63760004D02*
X44459997Y-62960004D01*
X41339997Y-63760004D02*
X41339997Y-65560004D01*
X41339997Y-63760004D02*
X41339997Y-62960004D01*
%TO.C,U3*%
X44499997Y-72200004D02*
X45299997Y-72200004D01*
X44499997Y-69080004D02*
X42699997Y-69080004D01*
X44499997Y-69080004D02*
X45299997Y-69080004D01*
X44499997Y-72200004D02*
X43699997Y-72200004D01*
%TO.C,J3*%
X86240009Y-109910031D02*
X81225009Y-109910031D01*
X86240009Y-107690031D02*
X86240009Y-108236560D01*
X81225009Y-109107561D02*
X81225009Y-109910031D01*
X87760009Y-107690031D02*
X87760009Y-108800031D01*
X87000009Y-107690031D02*
X87760009Y-107690031D01*
X86240009Y-109363502D02*
X86240009Y-109910031D01*
X86240009Y-107690031D02*
X81225009Y-107690031D01*
X81225009Y-107690031D02*
X81225009Y-108492501D01*
%TO.C,D3*%
X75630009Y-80510017D02*
X75630009Y-78350017D01*
X72470009Y-80510017D02*
X73400009Y-80510017D01*
X72470009Y-80510017D02*
X72470009Y-79050017D01*
X75630009Y-80510017D02*
X74700009Y-80510017D01*
%TO.C,U2*%
X50799997Y-101485018D02*
X54399997Y-101485018D01*
X50799997Y-94715018D02*
X48599997Y-94715018D01*
X50799997Y-94715018D02*
X52999997Y-94715018D01*
X50799997Y-101485018D02*
X48599997Y-101485018D01*
%TO.C,C2*%
X80010009Y-82146937D02*
X80010009Y-82428097D01*
X78990009Y-82146937D02*
X78990009Y-82428097D01*
%TO.C,JP2*%
X55449997Y-54299997D02*
X56849997Y-54299997D01*
X57549997Y-54999997D02*
X57549997Y-55599997D01*
X54749997Y-55599997D02*
X54749997Y-54999997D01*
X56849997Y-56299997D02*
X55449997Y-56299997D01*
X57549997Y-55599997D02*
G75*
G02*
X56849997Y-56299997I-700000J0D01*
G01*
X56849997Y-54299997D02*
G75*
G02*
X57549997Y-54999997I0J-700000D01*
G01*
X54749997Y-54999997D02*
G75*
G02*
X55449997Y-54299997I700000J0D01*
G01*
X55449997Y-56299997D02*
G75*
G02*
X54749997Y-55599997I0J700000D01*
G01*
%TO.C,Q1*%
X59389997Y-64600004D02*
X59389997Y-66275004D01*
X62509997Y-64600004D02*
X62509997Y-63950004D01*
X62509997Y-64600004D02*
X62509997Y-65250004D01*
X59389997Y-64600004D02*
X59389997Y-63950004D01*
%TO.C,R6*%
X78937267Y-63472510D02*
X78462751Y-63472510D01*
X78937267Y-62427510D02*
X78462751Y-62427510D01*
%TO.C,R2*%
X83872509Y-87237275D02*
X83872509Y-86762759D01*
X82827509Y-87237275D02*
X82827509Y-86762759D01*
%TO.C,C1*%
X46509997Y-113140605D02*
X46509997Y-112859445D01*
X45489997Y-113140605D02*
X45489997Y-112859445D01*
%TO.C,D2*%
X81115009Y-120485031D02*
X82585009Y-120485031D01*
X82585009Y-120485031D02*
X82585009Y-118200031D01*
X81115009Y-118200031D02*
X81115009Y-120485031D01*
%TO.C,D3*%
X75630009Y-48510003D02*
X75630009Y-46350003D01*
X72470009Y-48510003D02*
X73400009Y-48510003D01*
X72470009Y-48510003D02*
X72470009Y-47050003D01*
X75630009Y-48510003D02*
X74700009Y-48510003D01*
%TO.C,C3*%
X44540577Y-68660004D02*
X44259417Y-68660004D01*
X44540577Y-67640004D02*
X44259417Y-67640004D01*
%TO.C,R7*%
X70272945Y-76665017D02*
X70727073Y-76665017D01*
X70272945Y-78135017D02*
X70727073Y-78135017D01*
%TO.C,U1*%
X44459997Y-95760018D02*
X44459997Y-96560018D01*
X41339997Y-95760018D02*
X41339997Y-94960018D01*
X44459997Y-95760018D02*
X44459997Y-94960018D01*
X41339997Y-95760018D02*
X41339997Y-97560018D01*
%TO.C,C1*%
X89510009Y-82859437D02*
X89510009Y-83140597D01*
X88490009Y-82859437D02*
X88490009Y-83140597D01*
%TO.C,J3*%
X53774997Y-88310011D02*
X53774997Y-87507541D01*
X47239997Y-88310011D02*
X47239997Y-87200011D01*
X47999997Y-88310011D02*
X47239997Y-88310011D01*
X48759997Y-86636540D02*
X48759997Y-86090011D01*
X48759997Y-86090011D02*
X53774997Y-86090011D01*
X53774997Y-86892481D02*
X53774997Y-86090011D01*
X48759997Y-88310011D02*
X53774997Y-88310011D01*
X48759997Y-88310011D02*
X48759997Y-87763482D01*
%TO.C,U2*%
X84200009Y-62515010D02*
X86400009Y-62515010D01*
X84200009Y-69285010D02*
X86400009Y-69285010D01*
X84200009Y-69285010D02*
X82000009Y-69285010D01*
X84200009Y-62515010D02*
X80600009Y-62515010D01*
%TO.C,R6*%
X56062739Y-53572497D02*
X56537255Y-53572497D01*
X56062739Y-52527497D02*
X56537255Y-52527497D01*
%TO.C,U1*%
X41339997Y-79760011D02*
X41339997Y-78960011D01*
X41339997Y-79760011D02*
X41339997Y-81560011D01*
X44459997Y-79760011D02*
X44459997Y-78960011D01*
X44459997Y-79760011D02*
X44459997Y-80560011D01*
%TO.C,Q1*%
X59389997Y-112600025D02*
X59389997Y-114275025D01*
X62509997Y-112600025D02*
X62509997Y-113250025D01*
X59389997Y-112600025D02*
X59389997Y-111950025D01*
X62509997Y-112600025D02*
X62509997Y-111950025D01*
%TO.C,R2*%
X83872509Y-119237289D02*
X83872509Y-118762773D01*
X82827509Y-119237289D02*
X82827509Y-118762773D01*
%TO.C,JP2*%
X77450009Y-77000017D02*
X77450009Y-76400017D01*
X79550009Y-77700017D02*
X78150009Y-77700017D01*
X78150009Y-75700017D02*
X79550009Y-75700017D01*
X80250009Y-76400017D02*
X80250009Y-77000017D01*
X78150009Y-77700017D02*
G75*
G02*
X77450009Y-77000017I0J700000D01*
G01*
X80250009Y-77000017D02*
G75*
G02*
X79550009Y-77700017I-700000J0D01*
G01*
X79550009Y-75700017D02*
G75*
G02*
X80250009Y-76400017I0J-700000D01*
G01*
X77450009Y-76400017D02*
G75*
G02*
X78150009Y-75700017I700000J0D01*
G01*
%TO.C,Q1*%
X62509997Y-96600018D02*
X62509997Y-97250018D01*
X59389997Y-96600018D02*
X59389997Y-95950018D01*
X62509997Y-96600018D02*
X62509997Y-95950018D01*
X59389997Y-96600018D02*
X59389997Y-98275018D01*
%TO.C,U1*%
X44459997Y-47759997D02*
X44459997Y-46959997D01*
X44459997Y-47759997D02*
X44459997Y-48559997D01*
X41339997Y-47759997D02*
X41339997Y-49559997D01*
X41339997Y-47759997D02*
X41339997Y-46959997D01*
%TO.C,R5*%
X57877497Y-64937262D02*
X57877497Y-64462746D01*
X58922497Y-64937262D02*
X58922497Y-64462746D01*
%TO.C,F1*%
X40958575Y-102890018D02*
X40441419Y-102890018D01*
X40958575Y-104310018D02*
X40441419Y-104310018D01*
%TO.C,J2*%
X97580009Y-61600010D02*
X97580009Y-70400010D01*
X100750009Y-72145010D02*
X101800009Y-72145010D01*
X97580009Y-61600010D02*
X96825009Y-61600010D01*
X100750009Y-59855010D02*
X101800009Y-59855010D01*
%TO.C,J1*%
X71830009Y-114030031D02*
X71830009Y-111430031D01*
X71830009Y-116630031D02*
X70500009Y-116630031D01*
X69170009Y-114030031D02*
X69170009Y-111430031D01*
X71830009Y-114030031D02*
X69170009Y-114030031D01*
X71830009Y-111430031D02*
X69170009Y-111430031D01*
X71830009Y-115300031D02*
X71830009Y-116630031D01*
%TO.C,J2*%
X37419997Y-86400011D02*
X38174997Y-86400011D01*
X34249997Y-88145011D02*
X33199997Y-88145011D01*
X37419997Y-86400011D02*
X37419997Y-77600011D01*
X34249997Y-75855011D02*
X33199997Y-75855011D01*
%TO.C,R3*%
X56722933Y-60665004D02*
X57177061Y-60665004D01*
X56722933Y-62135004D02*
X57177061Y-62135004D01*
%TO.C,C2*%
X54989997Y-97853098D02*
X54989997Y-97571938D01*
X56009997Y-97853098D02*
X56009997Y-97571938D01*
X78990009Y-50146923D02*
X78990009Y-50428083D01*
X80010009Y-50146923D02*
X80010009Y-50428083D01*
%TO.C,C1*%
X88490009Y-114859451D02*
X88490009Y-115140611D01*
X89510009Y-114859451D02*
X89510009Y-115140611D01*
%TO.C,R7*%
X64727061Y-71335004D02*
X64272933Y-71335004D01*
X64727061Y-69865004D02*
X64272933Y-69865004D01*
%TO.C,JP1*%
X74000009Y-53600003D02*
X75400009Y-53600003D01*
X76100009Y-54300003D02*
X76100009Y-54900003D01*
X75400009Y-55600003D02*
X74000009Y-55600003D01*
X73300009Y-54900003D02*
X73300009Y-54300003D01*
X75400009Y-53600003D02*
G75*
G02*
X76100009Y-54300003I0J-700000D01*
G01*
X74000009Y-55600003D02*
G75*
G02*
X73300009Y-54900003I0J700000D01*
G01*
X73300009Y-54300003D02*
G75*
G02*
X74000009Y-53600003I700000J0D01*
G01*
X76100009Y-54900003D02*
G75*
G02*
X75400009Y-55600003I-700000J0D01*
G01*
%TO.C,U3*%
X90500009Y-78920017D02*
X89700009Y-78920017D01*
X90500009Y-75800017D02*
X91300009Y-75800017D01*
X90500009Y-78920017D02*
X92300009Y-78920017D01*
X90500009Y-75800017D02*
X89700009Y-75800017D01*
%TO.C,D3*%
X59369997Y-51489997D02*
X60299997Y-51489997D01*
X62529997Y-51489997D02*
X62529997Y-52949997D01*
X59369997Y-51489997D02*
X59369997Y-53649997D01*
X62529997Y-51489997D02*
X61599997Y-51489997D01*
%TO.C,R4*%
X63877061Y-78135011D02*
X63422933Y-78135011D01*
X63877061Y-76665011D02*
X63422933Y-76665011D01*
%TO.C,C3*%
X90459429Y-63340010D02*
X90740589Y-63340010D01*
X90459429Y-64360010D02*
X90740589Y-64360010D01*
%TO.C,R4*%
X63877061Y-94135018D02*
X63422933Y-94135018D01*
X63877061Y-92665018D02*
X63422933Y-92665018D01*
%TO.C,C1*%
X46509997Y-65140584D02*
X46509997Y-64859424D01*
X45489997Y-65140584D02*
X45489997Y-64859424D01*
%TO.C,U1*%
X90540009Y-52240003D02*
X90540009Y-51440003D01*
X93660009Y-52240003D02*
X93660009Y-53040003D01*
X90540009Y-52240003D02*
X90540009Y-53040003D01*
X93660009Y-52240003D02*
X93660009Y-50440003D01*
%TO.C,C2*%
X80010009Y-66146930D02*
X80010009Y-66428090D01*
X78990009Y-66146930D02*
X78990009Y-66428090D01*
%TO.C,D2*%
X52414997Y-75515011D02*
X52414997Y-77800011D01*
X53884997Y-75515011D02*
X52414997Y-75515011D01*
X53884997Y-77800011D02*
X53884997Y-75515011D01*
%TO.C,D3*%
X72470009Y-112510031D02*
X72470009Y-111050031D01*
X72470009Y-112510031D02*
X73400009Y-112510031D01*
X75630009Y-112510031D02*
X75630009Y-110350031D01*
X75630009Y-112510031D02*
X74700009Y-112510031D01*
%TO.C,U2*%
X50799997Y-53484997D02*
X54399997Y-53484997D01*
X50799997Y-46714997D02*
X52999997Y-46714997D01*
X50799997Y-53484997D02*
X48599997Y-53484997D01*
X50799997Y-46714997D02*
X48599997Y-46714997D01*
%TO.C,C3*%
X90459429Y-48360003D02*
X90740589Y-48360003D01*
X90459429Y-47340003D02*
X90740589Y-47340003D01*
%TO.C,JP2*%
X57549997Y-103000018D02*
X57549997Y-103600018D01*
X56849997Y-104300018D02*
X55449997Y-104300018D01*
X55449997Y-102300018D02*
X56849997Y-102300018D01*
X54749997Y-103600018D02*
X54749997Y-103000018D01*
X57549997Y-103600018D02*
G75*
G02*
X56849997Y-104300018I-700000J0D01*
G01*
X54749997Y-103000018D02*
G75*
G02*
X55449997Y-102300018I700000J0D01*
G01*
X56849997Y-102300018D02*
G75*
G02*
X57549997Y-103000018I0J-700000D01*
G01*
X55449997Y-104300018D02*
G75*
G02*
X54749997Y-103600018I0J700000D01*
G01*
%TO.C,R5*%
X77122509Y-115062773D02*
X77122509Y-115537289D01*
X76077509Y-115062773D02*
X76077509Y-115537289D01*
%TO.C,J2*%
X100750009Y-88145017D02*
X101800009Y-88145017D01*
X100750009Y-75855017D02*
X101800009Y-75855017D01*
X97580009Y-77600017D02*
X96825009Y-77600017D01*
X97580009Y-77600017D02*
X97580009Y-86400017D01*
%TO.C,Q1*%
X72490009Y-99400024D02*
X72490009Y-98750024D01*
X75610009Y-99400024D02*
X75610009Y-100050024D01*
X72490009Y-99400024D02*
X72490009Y-100050024D01*
X75610009Y-99400024D02*
X75610009Y-97725024D01*
%TO.C,J1*%
X63169997Y-63370004D02*
X64499997Y-63370004D01*
X63169997Y-65970004D02*
X65829997Y-65970004D01*
X63169997Y-68570004D02*
X65829997Y-68570004D01*
X63169997Y-65970004D02*
X63169997Y-68570004D01*
X63169997Y-64700004D02*
X63169997Y-63370004D01*
X65829997Y-65970004D02*
X65829997Y-68570004D01*
%TO.C,R1*%
X85572509Y-55237261D02*
X85572509Y-54762745D01*
X84527509Y-55237261D02*
X84527509Y-54762745D01*
%TO.C,R4*%
X63877061Y-44664997D02*
X63422933Y-44664997D01*
X63877061Y-46134997D02*
X63422933Y-46134997D01*
%TO.C,U3*%
X90500009Y-107800031D02*
X91300009Y-107800031D01*
X90500009Y-107800031D02*
X89700009Y-107800031D01*
X90500009Y-110920031D02*
X89700009Y-110920031D01*
X90500009Y-110920031D02*
X92300009Y-110920031D01*
%TO.C,C3*%
X44540577Y-100660018D02*
X44259417Y-100660018D01*
X44540577Y-99640018D02*
X44259417Y-99640018D01*
%TO.C,J3*%
X86240009Y-43690003D02*
X81225009Y-43690003D01*
X81225009Y-43690003D02*
X81225009Y-44492473D01*
X87000009Y-43690003D02*
X87760009Y-43690003D01*
X86240009Y-45910003D02*
X81225009Y-45910003D01*
X81225009Y-45107533D02*
X81225009Y-45910003D01*
X87760009Y-43690003D02*
X87760009Y-44800003D01*
X86240009Y-43690003D02*
X86240009Y-44236532D01*
X86240009Y-45363474D02*
X86240009Y-45910003D01*
%TO.C,C3*%
X90459429Y-95340024D02*
X90740589Y-95340024D01*
X90459429Y-96360024D02*
X90740589Y-96360024D01*
%TO.C,R3*%
X78277073Y-85865017D02*
X77822945Y-85865017D01*
X78277073Y-87335017D02*
X77822945Y-87335017D01*
%TO.C,JP2*%
X77450009Y-93000024D02*
X77450009Y-92400024D01*
X80250009Y-92400024D02*
X80250009Y-93000024D01*
X79550009Y-93700024D02*
X78150009Y-93700024D01*
X78150009Y-91700024D02*
X79550009Y-91700024D01*
X80250009Y-93000024D02*
G75*
G02*
X79550009Y-93700024I-700000J0D01*
G01*
X78150009Y-93700024D02*
G75*
G02*
X77450009Y-93000024I0J700000D01*
G01*
X77450009Y-92400024D02*
G75*
G02*
X78150009Y-91700024I700000J0D01*
G01*
X79550009Y-91700024D02*
G75*
G02*
X80250009Y-92400024I0J-700000D01*
G01*
%TO.C,R1*%
X49427497Y-108762767D02*
X49427497Y-109237283D01*
X50472497Y-108762767D02*
X50472497Y-109237283D01*
%TO.C,J3*%
X86240009Y-91690024D02*
X86240009Y-92236553D01*
X86240009Y-93363495D02*
X86240009Y-93910024D01*
X87000009Y-91690024D02*
X87760009Y-91690024D01*
X86240009Y-91690024D02*
X81225009Y-91690024D01*
X81225009Y-93107554D02*
X81225009Y-93910024D01*
X86240009Y-93910024D02*
X81225009Y-93910024D01*
X87760009Y-91690024D02*
X87760009Y-92800024D01*
X81225009Y-91690024D02*
X81225009Y-92492494D01*
X48759997Y-102636547D02*
X48759997Y-102090018D01*
X48759997Y-102090018D02*
X53774997Y-102090018D01*
X47239997Y-104310018D02*
X47239997Y-103200018D01*
X53774997Y-102892488D02*
X53774997Y-102090018D01*
X53774997Y-104310018D02*
X53774997Y-103507548D01*
X48759997Y-104310018D02*
X53774997Y-104310018D01*
X48759997Y-104310018D02*
X48759997Y-103763489D01*
X47999997Y-104310018D02*
X47239997Y-104310018D01*
%TO.C,JP2*%
X57549997Y-87000011D02*
X57549997Y-87600011D01*
X55449997Y-86300011D02*
X56849997Y-86300011D01*
X54749997Y-87600011D02*
X54749997Y-87000011D01*
X56849997Y-88300011D02*
X55449997Y-88300011D01*
X54749997Y-87000011D02*
G75*
G02*
X55449997Y-86300011I700000J0D01*
G01*
X55449997Y-88300011D02*
G75*
G02*
X54749997Y-87600011I0J700000D01*
G01*
X56849997Y-86300011D02*
G75*
G02*
X57549997Y-87000011I0J-700000D01*
G01*
X57549997Y-87600011D02*
G75*
G02*
X56849997Y-88300011I-700000J0D01*
G01*
%TO.C,R2*%
X82827509Y-55237261D02*
X82827509Y-54762745D01*
X83872509Y-55237261D02*
X83872509Y-54762745D01*
X51127497Y-76762753D02*
X51127497Y-77237269D01*
X52172497Y-76762753D02*
X52172497Y-77237269D01*
%TO.C,D2*%
X81115009Y-54200003D02*
X81115009Y-56485003D01*
X82585009Y-56485003D02*
X82585009Y-54200003D01*
X81115009Y-56485003D02*
X82585009Y-56485003D01*
%TO.C,R1*%
X85572509Y-103237282D02*
X85572509Y-102762766D01*
X84527509Y-103237282D02*
X84527509Y-102762766D01*
%TO.C,J3*%
X87760009Y-59690010D02*
X87760009Y-60800010D01*
X81225009Y-61107540D02*
X81225009Y-61910010D01*
X86240009Y-59690010D02*
X81225009Y-59690010D01*
X81225009Y-59690010D02*
X81225009Y-60492480D01*
X86240009Y-61363481D02*
X86240009Y-61910010D01*
X86240009Y-61910010D02*
X81225009Y-61910010D01*
X87000009Y-59690010D02*
X87760009Y-59690010D01*
X86240009Y-59690010D02*
X86240009Y-60236539D01*
%TO.C,U1*%
X93660009Y-68240010D02*
X93660009Y-69040010D01*
X93660009Y-68240010D02*
X93660009Y-66440010D01*
X90540009Y-68240010D02*
X90540009Y-69040010D01*
X90540009Y-68240010D02*
X90540009Y-67440010D01*
%TO.C,R1*%
X84527509Y-119237289D02*
X84527509Y-118762773D01*
X85572509Y-119237289D02*
X85572509Y-118762773D01*
%TO.C,D2*%
X53884997Y-107515025D02*
X52414997Y-107515025D01*
X53884997Y-109800025D02*
X53884997Y-107515025D01*
X52414997Y-107515025D02*
X52414997Y-109800025D01*
%TO.C,R3*%
X78277073Y-103335024D02*
X77822945Y-103335024D01*
X78277073Y-101865024D02*
X77822945Y-101865024D01*
%TO.C,R6*%
X78937267Y-79472517D02*
X78462751Y-79472517D01*
X78937267Y-78427517D02*
X78462751Y-78427517D01*
%TO.C,C4*%
X93910009Y-46959423D02*
X93910009Y-47240583D01*
X92890009Y-46959423D02*
X92890009Y-47240583D01*
%TO.C,R6*%
X78937267Y-111472531D02*
X78462751Y-111472531D01*
X78937267Y-110427531D02*
X78462751Y-110427531D01*
%TO.C,Q1*%
X72490009Y-115400031D02*
X72490009Y-114750031D01*
X72490009Y-115400031D02*
X72490009Y-116050031D01*
X75610009Y-115400031D02*
X75610009Y-116050031D01*
X75610009Y-115400031D02*
X75610009Y-113725031D01*
%TO.C,D3*%
X62529997Y-99490018D02*
X62529997Y-100950018D01*
X59369997Y-99490018D02*
X60299997Y-99490018D01*
X59369997Y-99490018D02*
X59369997Y-101650018D01*
X62529997Y-99490018D02*
X61599997Y-99490018D01*
%TO.C,JP1*%
X73300009Y-86900017D02*
X73300009Y-86300017D01*
X76100009Y-86300017D02*
X76100009Y-86900017D01*
X75400009Y-87600017D02*
X74000009Y-87600017D01*
X74000009Y-85600017D02*
X75400009Y-85600017D01*
X73300009Y-86300017D02*
G75*
G02*
X74000009Y-85600017I700000J0D01*
G01*
X76100009Y-86900017D02*
G75*
G02*
X75400009Y-87600017I-700000J0D01*
G01*
X74000009Y-87600017D02*
G75*
G02*
X73300009Y-86900017I0J700000D01*
G01*
X75400009Y-85600017D02*
G75*
G02*
X76100009Y-86300017I0J-700000D01*
G01*
%TO.C,R3*%
X56722933Y-92665018D02*
X57177061Y-92665018D01*
X56722933Y-94135018D02*
X57177061Y-94135018D01*
%TO.C,J3*%
X53774997Y-70892474D02*
X53774997Y-70090004D01*
X48759997Y-72310004D02*
X48759997Y-71763475D01*
X53774997Y-72310004D02*
X53774997Y-71507534D01*
X48759997Y-70636533D02*
X48759997Y-70090004D01*
X48759997Y-70090004D02*
X53774997Y-70090004D01*
X48759997Y-72310004D02*
X53774997Y-72310004D01*
X47239997Y-72310004D02*
X47239997Y-71200004D01*
X47999997Y-72310004D02*
X47239997Y-72310004D01*
%TO.C,C4*%
X42109997Y-101040598D02*
X42109997Y-100759438D01*
X41089997Y-101040598D02*
X41089997Y-100759438D01*
%TO.C,J1*%
X71830009Y-99300024D02*
X71830009Y-100630024D01*
X71830009Y-100630024D02*
X70500009Y-100630024D01*
X69170009Y-98030024D02*
X69170009Y-95430024D01*
X71830009Y-98030024D02*
X69170009Y-98030024D01*
X71830009Y-95430024D02*
X69170009Y-95430024D01*
X71830009Y-98030024D02*
X71830009Y-95430024D01*
%TO.C,D1*%
X87285009Y-88485017D02*
X87285009Y-86200017D01*
X85815009Y-86200017D02*
X85815009Y-88485017D01*
X85815009Y-88485017D02*
X87285009Y-88485017D01*
%TO.C,JP1*%
X60999997Y-110400025D02*
X59599997Y-110400025D01*
X61699997Y-109100025D02*
X61699997Y-109700025D01*
X58899997Y-109700025D02*
X58899997Y-109100025D01*
X59599997Y-108400025D02*
X60999997Y-108400025D01*
X60999997Y-108400025D02*
G75*
G02*
X61699997Y-109100025I0J-700000D01*
G01*
X59599997Y-110400025D02*
G75*
G02*
X58899997Y-109700025I0J700000D01*
G01*
X61699997Y-109700025D02*
G75*
G02*
X60999997Y-110400025I-700000J0D01*
G01*
X58899997Y-109100025D02*
G75*
G02*
X59599997Y-108400025I700000J0D01*
G01*
%TO.C,J1*%
X63169997Y-81970011D02*
X65829997Y-81970011D01*
X63169997Y-80700011D02*
X63169997Y-79370011D01*
X63169997Y-84570011D02*
X65829997Y-84570011D01*
X63169997Y-79370011D02*
X64499997Y-79370011D01*
X63169997Y-81970011D02*
X63169997Y-84570011D01*
X65829997Y-81970011D02*
X65829997Y-84570011D01*
%TO.C,J3*%
X47239997Y-56309997D02*
X47239997Y-55199997D01*
X48759997Y-54089997D02*
X53774997Y-54089997D01*
X53774997Y-56309997D02*
X53774997Y-55507527D01*
X53774997Y-54892467D02*
X53774997Y-54089997D01*
X48759997Y-56309997D02*
X48759997Y-55763468D01*
X47999997Y-56309997D02*
X47239997Y-56309997D01*
X48759997Y-56309997D02*
X53774997Y-56309997D01*
X48759997Y-54636526D02*
X48759997Y-54089997D01*
%TO.C,JP2*%
X78150009Y-107700031D02*
X79550009Y-107700031D01*
X80250009Y-108400031D02*
X80250009Y-109000031D01*
X79550009Y-109700031D02*
X78150009Y-109700031D01*
X77450009Y-109000031D02*
X77450009Y-108400031D01*
X78150009Y-109700031D02*
G75*
G02*
X77450009Y-109000031I0J700000D01*
G01*
X77450009Y-108400031D02*
G75*
G02*
X78150009Y-107700031I700000J0D01*
G01*
X80250009Y-109000031D02*
G75*
G02*
X79550009Y-109700031I-700000J0D01*
G01*
X79550009Y-107700031D02*
G75*
G02*
X80250009Y-108400031I0J-700000D01*
G01*
%TO.C,D1*%
X49184997Y-43514997D02*
X47714997Y-43514997D01*
X47714997Y-43514997D02*
X47714997Y-45799997D01*
X49184997Y-45799997D02*
X49184997Y-43514997D01*
%TO.C,F1*%
X94041431Y-107690031D02*
X94558587Y-107690031D01*
X94041431Y-109110031D02*
X94558587Y-109110031D01*
%TO.C,C2*%
X56009997Y-49853077D02*
X56009997Y-49571917D01*
X54989997Y-49853077D02*
X54989997Y-49571917D01*
%TO.C,Q1*%
X72490009Y-51400003D02*
X72490009Y-50750003D01*
X75610009Y-51400003D02*
X75610009Y-52050003D01*
X72490009Y-51400003D02*
X72490009Y-52050003D01*
X75610009Y-51400003D02*
X75610009Y-49725003D01*
%TO.C,J2*%
X97580009Y-93600024D02*
X97580009Y-102400024D01*
X100750009Y-104145024D02*
X101800009Y-104145024D01*
X97580009Y-93600024D02*
X96825009Y-93600024D01*
X100750009Y-91855024D02*
X101800009Y-91855024D01*
X37419997Y-102400018D02*
X38174997Y-102400018D01*
X34249997Y-104145018D02*
X33199997Y-104145018D01*
X34249997Y-91855018D02*
X33199997Y-91855018D01*
X37419997Y-102400018D02*
X37419997Y-93600018D01*
%TO.C,U2*%
X84200009Y-85285017D02*
X82000009Y-85285017D01*
X84200009Y-78515017D02*
X86400009Y-78515017D01*
X84200009Y-78515017D02*
X80600009Y-78515017D01*
X84200009Y-85285017D02*
X86400009Y-85285017D01*
%TO.C,R6*%
X56062739Y-101572518D02*
X56537255Y-101572518D01*
X56062739Y-100527518D02*
X56537255Y-100527518D01*
%TO.C,R3*%
X78277073Y-71335010D02*
X77822945Y-71335010D01*
X78277073Y-69865010D02*
X77822945Y-69865010D01*
%TO.C,C4*%
X41089997Y-69040584D02*
X41089997Y-68759424D01*
X42109997Y-69040584D02*
X42109997Y-68759424D01*
%TO.C,U2*%
X84200009Y-110515031D02*
X86400009Y-110515031D01*
X84200009Y-117285031D02*
X82000009Y-117285031D01*
X84200009Y-117285031D02*
X86400009Y-117285031D01*
X84200009Y-110515031D02*
X80600009Y-110515031D01*
%TO.C,D1*%
X47714997Y-59515004D02*
X47714997Y-61800004D01*
X49184997Y-59515004D02*
X47714997Y-59515004D01*
X49184997Y-61800004D02*
X49184997Y-59515004D01*
%TO.C,R5*%
X76077509Y-83062759D02*
X76077509Y-83537275D01*
X77122509Y-83062759D02*
X77122509Y-83537275D01*
%TO.C,D3*%
X59369997Y-115490025D02*
X59369997Y-117650025D01*
X62529997Y-115490025D02*
X62529997Y-116950025D01*
X59369997Y-115490025D02*
X60299997Y-115490025D01*
X62529997Y-115490025D02*
X61599997Y-115490025D01*
%TO.C,F1*%
X94041431Y-45110003D02*
X94558587Y-45110003D01*
X94041431Y-43690003D02*
X94558587Y-43690003D01*
%TO.C,Q1*%
X72490009Y-83400017D02*
X72490009Y-84050017D01*
X75610009Y-83400017D02*
X75610009Y-84050017D01*
X72490009Y-83400017D02*
X72490009Y-82750017D01*
X75610009Y-83400017D02*
X75610009Y-81725017D01*
%TO.C,C4*%
X42109997Y-85040591D02*
X42109997Y-84759431D01*
X41089997Y-85040591D02*
X41089997Y-84759431D01*
%TO.C,D1*%
X87285009Y-104485024D02*
X87285009Y-102200024D01*
X85815009Y-104485024D02*
X87285009Y-104485024D01*
X85815009Y-102200024D02*
X85815009Y-104485024D01*
%TO.C,R1*%
X49427497Y-76762753D02*
X49427497Y-77237269D01*
X50472497Y-76762753D02*
X50472497Y-77237269D01*
%TO.C,C4*%
X92890009Y-110959451D02*
X92890009Y-111240611D01*
X93910009Y-110959451D02*
X93910009Y-111240611D01*
%TO.C,R4*%
X71122945Y-117865031D02*
X71577073Y-117865031D01*
X71122945Y-119335031D02*
X71577073Y-119335031D01*
X71122945Y-101865024D02*
X71577073Y-101865024D01*
X71122945Y-103335024D02*
X71577073Y-103335024D01*
%TO.C,J3*%
X81225009Y-77107547D02*
X81225009Y-77910017D01*
X86240009Y-75690017D02*
X81225009Y-75690017D01*
X87000009Y-75690017D02*
X87760009Y-75690017D01*
X81225009Y-75690017D02*
X81225009Y-76492487D01*
X87760009Y-75690017D02*
X87760009Y-76800017D01*
X86240009Y-77910017D02*
X81225009Y-77910017D01*
X86240009Y-75690017D02*
X86240009Y-76236546D01*
X86240009Y-77363488D02*
X86240009Y-77910017D01*
%TO.C,R5*%
X58922497Y-112937283D02*
X58922497Y-112462767D01*
X57877497Y-112937283D02*
X57877497Y-112462767D01*
%TO.C,R6*%
X56062739Y-69572504D02*
X56537255Y-69572504D01*
X56062739Y-68527504D02*
X56537255Y-68527504D01*
%TO.C,U1*%
X93660009Y-100240024D02*
X93660009Y-101040024D01*
X90540009Y-100240024D02*
X90540009Y-101040024D01*
X93660009Y-100240024D02*
X93660009Y-98440024D01*
X90540009Y-100240024D02*
X90540009Y-99440024D01*
%TO.C,D1*%
X49184997Y-109800025D02*
X49184997Y-107515025D01*
X49184997Y-107515025D02*
X47714997Y-107515025D01*
X47714997Y-107515025D02*
X47714997Y-109800025D01*
%TO.C,J1*%
X69170009Y-66030010D02*
X69170009Y-63430010D01*
X71830009Y-67300010D02*
X71830009Y-68630010D01*
X71830009Y-66030010D02*
X69170009Y-66030010D01*
X71830009Y-68630010D02*
X70500009Y-68630010D01*
X71830009Y-66030010D02*
X71830009Y-63430010D01*
X71830009Y-63430010D02*
X69170009Y-63430010D01*
X65829997Y-97970018D02*
X65829997Y-100570018D01*
X63169997Y-97970018D02*
X65829997Y-97970018D01*
X63169997Y-100570018D02*
X65829997Y-100570018D01*
X63169997Y-95370018D02*
X64499997Y-95370018D01*
X63169997Y-97970018D02*
X63169997Y-100570018D01*
X63169997Y-96700018D02*
X63169997Y-95370018D01*
%TO.C,JP1*%
X60999997Y-94400018D02*
X59599997Y-94400018D01*
X59599997Y-92400018D02*
X60999997Y-92400018D01*
X61699997Y-93100018D02*
X61699997Y-93700018D01*
X58899997Y-93700018D02*
X58899997Y-93100018D01*
X60999997Y-92400018D02*
G75*
G02*
X61699997Y-93100018I0J-700000D01*
G01*
X61699997Y-93700018D02*
G75*
G02*
X60999997Y-94400018I-700000J0D01*
G01*
X58899997Y-93100018D02*
G75*
G02*
X59599997Y-92400018I700000J0D01*
G01*
X59599997Y-94400018D02*
G75*
G02*
X58899997Y-93700018I0J700000D01*
G01*
%TO.C,D2*%
X53884997Y-93800018D02*
X53884997Y-91515018D01*
X53884997Y-91515018D02*
X52414997Y-91515018D01*
X52414997Y-91515018D02*
X52414997Y-93800018D01*
%TO.C,C4*%
X93910009Y-78959437D02*
X93910009Y-79240597D01*
X92890009Y-78959437D02*
X92890009Y-79240597D01*
%TO.C,R4*%
X63877061Y-60665004D02*
X63422933Y-60665004D01*
X63877061Y-62135004D02*
X63422933Y-62135004D01*
%TO.C,C3*%
X44540577Y-83640011D02*
X44259417Y-83640011D01*
X44540577Y-84660011D02*
X44259417Y-84660011D01*
%TO.C,U2*%
X50799997Y-69485004D02*
X48599997Y-69485004D01*
X50799997Y-69485004D02*
X54399997Y-69485004D01*
X50799997Y-62715004D02*
X52999997Y-62715004D01*
X50799997Y-62715004D02*
X48599997Y-62715004D01*
X50799997Y-110715025D02*
X48599997Y-110715025D01*
X50799997Y-110715025D02*
X52999997Y-110715025D01*
X50799997Y-117485025D02*
X54399997Y-117485025D01*
X50799997Y-117485025D02*
X48599997Y-117485025D01*
%TO.C,R4*%
X71122945Y-85865017D02*
X71577073Y-85865017D01*
X71122945Y-87335017D02*
X71577073Y-87335017D01*
%TO.C,R2*%
X51127497Y-92762760D02*
X51127497Y-93237276D01*
X52172497Y-92762760D02*
X52172497Y-93237276D01*
%TO.C,R1*%
X85572509Y-87237275D02*
X85572509Y-86762759D01*
X84527509Y-87237275D02*
X84527509Y-86762759D01*
%TO.C,F1*%
X94041431Y-75690017D02*
X94558587Y-75690017D01*
X94041431Y-77110017D02*
X94558587Y-77110017D01*
%TO.C,R7*%
X70272945Y-44665003D02*
X70727073Y-44665003D01*
X70272945Y-46135003D02*
X70727073Y-46135003D01*
X70272945Y-108665031D02*
X70727073Y-108665031D01*
X70272945Y-110135031D02*
X70727073Y-110135031D01*
%TO.C,U3*%
X44499997Y-117080025D02*
X42699997Y-117080025D01*
X44499997Y-120200025D02*
X43699997Y-120200025D01*
X44499997Y-120200025D02*
X45299997Y-120200025D01*
X44499997Y-117080025D02*
X45299997Y-117080025D01*
%TO.C,J2*%
X34249997Y-56144997D02*
X33199997Y-56144997D01*
X37419997Y-54399997D02*
X37419997Y-45599997D01*
X34249997Y-43854997D02*
X33199997Y-43854997D01*
X37419997Y-54399997D02*
X38174997Y-54399997D01*
%TO.C,C3*%
X90459429Y-111340031D02*
X90740589Y-111340031D01*
X90459429Y-112360031D02*
X90740589Y-112360031D01*
%TO.C,U3*%
X44499997Y-104200018D02*
X45299997Y-104200018D01*
X44499997Y-101080018D02*
X45299997Y-101080018D01*
X44499997Y-104200018D02*
X43699997Y-104200018D01*
X44499997Y-101080018D02*
X42699997Y-101080018D01*
%TO.C,R5*%
X57877497Y-80937269D02*
X57877497Y-80462753D01*
X58922497Y-80937269D02*
X58922497Y-80462753D01*
%TO.C,U3*%
X90500009Y-59800010D02*
X91300009Y-59800010D01*
X90500009Y-62920010D02*
X92300009Y-62920010D01*
X90500009Y-62920010D02*
X89700009Y-62920010D01*
X90500009Y-59800010D02*
X89700009Y-59800010D01*
%TO.C,R5*%
X76077509Y-99062766D02*
X76077509Y-99537282D01*
X77122509Y-99062766D02*
X77122509Y-99537282D01*
%TO.C,U3*%
X90500009Y-91800024D02*
X89700009Y-91800024D01*
X90500009Y-91800024D02*
X91300009Y-91800024D01*
X90500009Y-94920024D02*
X92300009Y-94920024D01*
X90500009Y-94920024D02*
X89700009Y-94920024D01*
%TO.C,U1*%
X41339997Y-111760025D02*
X41339997Y-113560025D01*
X41339997Y-111760025D02*
X41339997Y-110960025D01*
X44459997Y-111760025D02*
X44459997Y-112560025D01*
X44459997Y-111760025D02*
X44459997Y-110960025D01*
%TO.C,C2*%
X54989997Y-113853105D02*
X54989997Y-113571945D01*
X56009997Y-113853105D02*
X56009997Y-113571945D01*
%TO.C,D1*%
X87285009Y-56485003D02*
X87285009Y-54200003D01*
X85815009Y-54200003D02*
X85815009Y-56485003D01*
X85815009Y-56485003D02*
X87285009Y-56485003D01*
X47714997Y-91515018D02*
X47714997Y-93800018D01*
X49184997Y-93800018D02*
X49184997Y-91515018D01*
X49184997Y-91515018D02*
X47714997Y-91515018D01*
%TO.C,R3*%
X78277073Y-55335003D02*
X77822945Y-55335003D01*
X78277073Y-53865003D02*
X77822945Y-53865003D01*
%TO.C,JP1*%
X74000009Y-69600010D02*
X75400009Y-69600010D01*
X73300009Y-70900010D02*
X73300009Y-70300010D01*
X76100009Y-70300010D02*
X76100009Y-70900010D01*
X75400009Y-71600010D02*
X74000009Y-71600010D01*
X73300009Y-70300010D02*
G75*
G02*
X74000009Y-69600010I700000J0D01*
G01*
X75400009Y-69600010D02*
G75*
G02*
X76100009Y-70300010I0J-700000D01*
G01*
X74000009Y-71600010D02*
G75*
G02*
X73300009Y-70900010I0J700000D01*
G01*
X76100009Y-70900010D02*
G75*
G02*
X75400009Y-71600010I-700000J0D01*
G01*
%TO.C,J2*%
X97580009Y-109600031D02*
X96825009Y-109600031D01*
X97580009Y-109600031D02*
X97580009Y-118400031D01*
X100750009Y-120145031D02*
X101800009Y-120145031D01*
X100750009Y-107855031D02*
X101800009Y-107855031D01*
%TO.C,F1*%
X40958575Y-118890025D02*
X40441419Y-118890025D01*
X40958575Y-120310025D02*
X40441419Y-120310025D01*
%TO.C,R2*%
X83872509Y-103237282D02*
X83872509Y-102762766D01*
X82827509Y-103237282D02*
X82827509Y-102762766D01*
%TO.C,D2*%
X53884997Y-45799997D02*
X53884997Y-43514997D01*
X53884997Y-43514997D02*
X52414997Y-43514997D01*
X52414997Y-43514997D02*
X52414997Y-45799997D01*
%TO.C,Q1*%
X62509997Y-48599997D02*
X62509997Y-47949997D01*
X59389997Y-48599997D02*
X59389997Y-50274997D01*
X62509997Y-48599997D02*
X62509997Y-49249997D01*
X59389997Y-48599997D02*
X59389997Y-47949997D01*
%TO.C,R7*%
X70272945Y-62135010D02*
X70727073Y-62135010D01*
X70272945Y-60665010D02*
X70727073Y-60665010D01*
%TO.C,D2*%
X82585009Y-72485010D02*
X82585009Y-70200010D01*
X81115009Y-72485010D02*
X82585009Y-72485010D01*
X81115009Y-70200010D02*
X81115009Y-72485010D01*
%TO.C,F1*%
X40958575Y-72310004D02*
X40441419Y-72310004D01*
X40958575Y-70890004D02*
X40441419Y-70890004D01*
%TO.C,D3*%
X72470009Y-96510024D02*
X72470009Y-95050024D01*
X72470009Y-96510024D02*
X73400009Y-96510024D01*
X75630009Y-96510024D02*
X75630009Y-94350024D01*
X75630009Y-96510024D02*
X74700009Y-96510024D01*
%TO.C,F1*%
X40958575Y-54889997D02*
X40441419Y-54889997D01*
X40958575Y-56309997D02*
X40441419Y-56309997D01*
%TO.C,J1*%
X71830009Y-52630003D02*
X70500009Y-52630003D01*
X69170009Y-50030003D02*
X69170009Y-47430003D01*
X71830009Y-50030003D02*
X71830009Y-47430003D01*
X71830009Y-51300003D02*
X71830009Y-52630003D01*
X71830009Y-50030003D02*
X69170009Y-50030003D01*
X71830009Y-47430003D02*
X69170009Y-47430003D01*
%TO.C,R7*%
X64727061Y-117865025D02*
X64272933Y-117865025D01*
X64727061Y-119335025D02*
X64272933Y-119335025D01*
%TO.C,C3*%
X44540577Y-52659997D02*
X44259417Y-52659997D01*
X44540577Y-51639997D02*
X44259417Y-51639997D01*
%TO.C,JP2*%
X54749997Y-119600025D02*
X54749997Y-119000025D01*
X55449997Y-118300025D02*
X56849997Y-118300025D01*
X57549997Y-119000025D02*
X57549997Y-119600025D01*
X56849997Y-120300025D02*
X55449997Y-120300025D01*
X56849997Y-118300025D02*
G75*
G02*
X57549997Y-119000025I0J-700000D01*
G01*
X57549997Y-119600025D02*
G75*
G02*
X56849997Y-120300025I-700000J0D01*
G01*
X55449997Y-120300025D02*
G75*
G02*
X54749997Y-119600025I0J700000D01*
G01*
X54749997Y-119000025D02*
G75*
G02*
X55449997Y-118300025I700000J0D01*
G01*
%TO.C,J1*%
X63169997Y-48699997D02*
X63169997Y-47369997D01*
X63169997Y-52569997D02*
X65829997Y-52569997D01*
X63169997Y-49969997D02*
X65829997Y-49969997D01*
X63169997Y-49969997D02*
X63169997Y-52569997D01*
X63169997Y-47369997D02*
X64499997Y-47369997D01*
X65829997Y-49969997D02*
X65829997Y-52569997D01*
%TO.C,J2*%
X37419997Y-70400004D02*
X37419997Y-61600004D01*
X37419997Y-70400004D02*
X38174997Y-70400004D01*
X34249997Y-59855004D02*
X33199997Y-59855004D01*
X34249997Y-72145004D02*
X33199997Y-72145004D01*
X37419997Y-118400025D02*
X37419997Y-109600025D01*
X34249997Y-120145025D02*
X33199997Y-120145025D01*
X34249997Y-107855025D02*
X33199997Y-107855025D01*
X37419997Y-118400025D02*
X38174997Y-118400025D01*
%TO.C,R5*%
X57877497Y-96937276D02*
X57877497Y-96462760D01*
X58922497Y-96937276D02*
X58922497Y-96462760D01*
%TO.C,JP1*%
X75400009Y-119600031D02*
X74000009Y-119600031D01*
X73300009Y-118900031D02*
X73300009Y-118300031D01*
X74000009Y-117600031D02*
X75400009Y-117600031D01*
X76100009Y-118300031D02*
X76100009Y-118900031D01*
X75400009Y-117600031D02*
G75*
G02*
X76100009Y-118300031I0J-700000D01*
G01*
X74000009Y-119600031D02*
G75*
G02*
X73300009Y-118900031I0J700000D01*
G01*
X76100009Y-118900031D02*
G75*
G02*
X75400009Y-119600031I-700000J0D01*
G01*
X73300009Y-118300031D02*
G75*
G02*
X74000009Y-117600031I700000J0D01*
G01*
%TO.C,D2*%
X82585009Y-88485017D02*
X82585009Y-86200017D01*
X81115009Y-88485017D02*
X82585009Y-88485017D01*
X81115009Y-86200017D02*
X81115009Y-88485017D01*
%TO.C,C4*%
X42109997Y-53040577D02*
X42109997Y-52759417D01*
X41089997Y-53040577D02*
X41089997Y-52759417D01*
%TD*%
M02*
