G04 #@! TF.GenerationSoftware,KiCad,Pcbnew,(5.1.0-70-g46d257dc6)*
G04 #@! TF.CreationDate,2019-05-03T15:48:20+03:00*
G04 #@! TF.ProjectId,stm32_ds2480_emu,73746d33-325f-4647-9332-3438305f656d,rev?*
G04 #@! TF.SameCoordinates,Original*
G04 #@! TF.FileFunction,Other,Fab,Bot*
%FSLAX46Y46*%
G04 Gerber Fmt 4.6, Leading zero omitted, Abs format (unit mm)*
G04 Created by KiCad (PCBNEW (5.1.0-70-g46d257dc6)) date 2019-05-03 15:48:20*
%MOMM*%
%LPD*%
G04 APERTURE LIST*
%ADD10C,0.100000*%
%ADD11C,0.060000*%
%ADD12C,0.075000*%
G04 APERTURE END LIST*
D10*
X124650000Y-87600000D02*
X124650000Y-86000000D01*
X123850000Y-87600000D02*
X124650000Y-87600000D01*
X123850000Y-86000000D02*
X123850000Y-87600000D01*
X124650000Y-86000000D02*
X123850000Y-86000000D01*
X126900000Y-87600000D02*
X126900000Y-86000000D01*
X126100000Y-87600000D02*
X126900000Y-87600000D01*
X126100000Y-86000000D02*
X126100000Y-87600000D01*
X126900000Y-86000000D02*
X126100000Y-86000000D01*
X123200000Y-83700000D02*
X120200000Y-83700000D01*
X120200000Y-83700000D02*
X120200000Y-86100000D01*
X120200000Y-86100000D02*
X122700000Y-86100000D01*
X123200000Y-85600000D02*
X123200000Y-83700000D01*
X122700000Y-86100000D02*
X123200000Y-85600000D01*
D11*
X124392857Y-86733333D02*
X124411904Y-86714285D01*
X124430952Y-86657142D01*
X124430952Y-86619047D01*
X124411904Y-86561904D01*
X124373809Y-86523809D01*
X124335714Y-86504761D01*
X124259523Y-86485714D01*
X124202380Y-86485714D01*
X124126190Y-86504761D01*
X124088095Y-86523809D01*
X124050000Y-86561904D01*
X124030952Y-86619047D01*
X124030952Y-86657142D01*
X124050000Y-86714285D01*
X124069047Y-86733333D01*
X124030952Y-86866666D02*
X124030952Y-87114285D01*
X124183333Y-86980952D01*
X124183333Y-87038095D01*
X124202380Y-87076190D01*
X124221428Y-87095238D01*
X124259523Y-87114285D01*
X124354761Y-87114285D01*
X124392857Y-87095238D01*
X124411904Y-87076190D01*
X124430952Y-87038095D01*
X124430952Y-86923809D01*
X124411904Y-86885714D01*
X124392857Y-86866666D01*
X126642857Y-86733333D02*
X126661904Y-86714285D01*
X126680952Y-86657142D01*
X126680952Y-86619047D01*
X126661904Y-86561904D01*
X126623809Y-86523809D01*
X126585714Y-86504761D01*
X126509523Y-86485714D01*
X126452380Y-86485714D01*
X126376190Y-86504761D01*
X126338095Y-86523809D01*
X126300000Y-86561904D01*
X126280952Y-86619047D01*
X126280952Y-86657142D01*
X126300000Y-86714285D01*
X126319047Y-86733333D01*
X126414285Y-87076190D02*
X126680952Y-87076190D01*
X126261904Y-86980952D02*
X126547619Y-86885714D01*
X126547619Y-87133333D01*
D12*
X122069047Y-85126190D02*
X122069047Y-84626190D01*
X121950000Y-84626190D01*
X121878571Y-84650000D01*
X121830952Y-84697619D01*
X121807142Y-84745238D01*
X121783333Y-84840476D01*
X121783333Y-84911904D01*
X121807142Y-85007142D01*
X121830952Y-85054761D01*
X121878571Y-85102380D01*
X121950000Y-85126190D01*
X122069047Y-85126190D01*
X121307142Y-85126190D02*
X121592857Y-85126190D01*
X121450000Y-85126190D02*
X121450000Y-84626190D01*
X121497619Y-84697619D01*
X121545238Y-84745238D01*
X121592857Y-84769047D01*
M02*
