%TF.GenerationSoftware,KiCad,Pcbnew,(5.99.0-10613-g4d227d2d2b)*%
%TF.CreationDate,2021-05-26T08:20:36+03:00*%
%TF.ProjectId,stm32_ds2480_emu_panel,73746d33-325f-4647-9332-3438305f656d,rev?*%
%TF.SameCoordinates,Original*%
%TF.FileFunction,Soldermask,Top*%
%TF.FilePolarity,Negative*%
%FSLAX46Y46*%
G04 Gerber Fmt 4.6, Leading zero omitted, Abs format (unit mm)*
G04 Created by KiCad (PCBNEW (5.99.0-10613-g4d227d2d2b)) date 2021-05-26 08:20:36*
%MOMM*%
%LPD*%
G01*
G04 APERTURE LIST*
G04 Aperture macros list*
%AMRoundRect*
0 Rectangle with rounded corners*
0 $1 Rounding radius*
0 $2 $3 $4 $5 $6 $7 $8 $9 X,Y pos of 4 corners*
0 Add a 4 corners polygon primitive as box body*
4,1,4,$2,$3,$4,$5,$6,$7,$8,$9,$2,$3,0*
0 Add four circle primitives for the rounded corners*
1,1,$1+$1,$2,$3*
1,1,$1+$1,$4,$5*
1,1,$1+$1,$6,$7*
1,1,$1+$1,$8,$9*
0 Add four rect primitives between the rounded corners*
20,1,$1+$1,$2,$3,$4,$5,0*
20,1,$1+$1,$4,$5,$6,$7,0*
20,1,$1+$1,$6,$7,$8,$9,0*
20,1,$1+$1,$8,$9,$2,$3,0*%
%AMFreePoly0*
4,1,22,0.500000,-0.750000,0.000000,-0.750000,0.000000,-0.745033,-0.079941,-0.743568,-0.215256,-0.701293,-0.333266,-0.622738,-0.424486,-0.514219,-0.481581,-0.384460,-0.499164,-0.250000,-0.500000,-0.250000,-0.500000,0.250000,-0.499164,0.250000,-0.499963,0.256109,-0.478152,0.396186,-0.417904,0.524511,-0.324060,0.630769,-0.204165,0.706417,-0.067858,0.745374,0.000000,0.744959,0.000000,0.750000,
0.500000,0.750000,0.500000,-0.750000,0.500000,-0.750000,$1*%
%AMFreePoly1*
4,1,20,0.000000,0.744959,0.073905,0.744508,0.209726,0.703889,0.328688,0.626782,0.421226,0.519385,0.479903,0.390333,0.500000,0.250000,0.500000,-0.250000,0.499851,-0.262216,0.476331,-0.402017,0.414519,-0.529596,0.319384,-0.634700,0.198574,-0.708877,0.061801,-0.746166,0.000000,-0.745033,0.000000,-0.750000,-0.500000,-0.750000,-0.500000,0.750000,0.000000,0.750000,0.000000,0.744959,
0.000000,0.744959,$1*%
G04 Aperture macros list end*
%ADD10RoundRect,0.200000X-0.275000X0.200000X-0.275000X-0.200000X0.275000X-0.200000X0.275000X0.200000X0*%
%ADD11RoundRect,0.225000X0.250000X-0.225000X0.250000X0.225000X-0.250000X0.225000X-0.250000X-0.225000X0*%
%ADD12FreePoly0,180.000000*%
%ADD13FreePoly1,180.000000*%
%ADD14C,1.500000*%
%ADD15RoundRect,0.250000X-0.262500X-0.450000X0.262500X-0.450000X0.262500X0.450000X-0.262500X0.450000X0*%
%ADD16RoundRect,0.150000X0.150000X-0.587500X0.150000X0.587500X-0.150000X0.587500X-0.150000X-0.587500X0*%
%ADD17RoundRect,0.150000X0.512500X0.150000X-0.512500X0.150000X-0.512500X-0.150000X0.512500X-0.150000X0*%
%ADD18RoundRect,0.218750X0.256250X-0.218750X0.256250X0.218750X-0.256250X0.218750X-0.256250X-0.218750X0*%
%ADD19R,1.700000X1.700000*%
%ADD20O,1.700000X1.700000*%
%ADD21RoundRect,0.150000X-0.150000X0.512500X-0.150000X-0.512500X0.150000X-0.512500X0.150000X0.512500X0*%
%ADD22RoundRect,0.200000X0.200000X0.275000X-0.200000X0.275000X-0.200000X-0.275000X0.200000X-0.275000X0*%
%ADD23RoundRect,0.250000X0.262500X0.450000X-0.262500X0.450000X-0.262500X-0.450000X0.262500X-0.450000X0*%
%ADD24RoundRect,0.100000X-0.637500X-0.100000X0.637500X-0.100000X0.637500X0.100000X-0.637500X0.100000X0*%
%ADD25RoundRect,0.218750X-0.256250X0.218750X-0.256250X-0.218750X0.256250X-0.218750X0.256250X0.218750X0*%
%ADD26R,0.800000X0.900000*%
%ADD27RoundRect,0.225000X-0.250000X0.225000X-0.250000X-0.225000X0.250000X-0.225000X0.250000X0.225000X0*%
%ADD28RoundRect,0.150000X-0.512500X-0.150000X0.512500X-0.150000X0.512500X0.150000X-0.512500X0.150000X0*%
%ADD29RoundRect,0.243750X-0.243750X-0.456250X0.243750X-0.456250X0.243750X0.456250X-0.243750X0.456250X0*%
%ADD30RoundRect,0.200000X0.275000X-0.200000X0.275000X0.200000X-0.275000X0.200000X-0.275000X-0.200000X0*%
%ADD31C,1.100000*%
%ADD32R,2.500000X1.100000*%
%ADD33O,3.500000X1.900000*%
%ADD34FreePoly0,0.000000*%
%ADD35FreePoly1,0.000000*%
%ADD36R,1.000000X1.000000*%
%ADD37O,1.000000X1.000000*%
%ADD38RoundRect,0.200000X-0.200000X-0.275000X0.200000X-0.275000X0.200000X0.275000X-0.200000X0.275000X0*%
%ADD39RoundRect,0.100000X0.637500X0.100000X-0.637500X0.100000X-0.637500X-0.100000X0.637500X-0.100000X0*%
%ADD40RoundRect,0.150000X-0.150000X0.587500X-0.150000X-0.587500X0.150000X-0.587500X0.150000X0.587500X0*%
%ADD41RoundRect,0.225000X-0.225000X-0.250000X0.225000X-0.250000X0.225000X0.250000X-0.225000X0.250000X0*%
%ADD42C,1.000000*%
%ADD43RoundRect,0.225000X0.225000X0.250000X-0.225000X0.250000X-0.225000X-0.250000X0.225000X-0.250000X0*%
%ADD44RoundRect,0.243750X0.243750X0.456250X-0.243750X0.456250X-0.243750X-0.456250X0.243750X-0.456250X0*%
%ADD45RoundRect,0.150000X0.150000X-0.512500X0.150000X0.512500X-0.150000X0.512500X-0.150000X-0.512500X0*%
G04 APERTURE END LIST*
D10*
%TO.C,R5*%
X76600009Y-50475003D03*
X76600009Y-52125003D03*
%TD*%
D11*
%TO.C,C2*%
X55499997Y-82487511D03*
X55499997Y-80937511D03*
%TD*%
%TO.C,C2*%
X55499997Y-66487504D03*
X55499997Y-64937504D03*
%TD*%
D12*
%TO.C,JP2*%
X56799997Y-71300004D03*
D13*
X55499997Y-71300004D03*
%TD*%
D10*
%TO.C,R1*%
X49949997Y-92175018D03*
X49949997Y-93825018D03*
%TD*%
D14*
%TO.C,FID2*%
X73200009Y-44400003D03*
%TD*%
D15*
%TO.C,R4*%
X70437509Y-54600003D03*
X72262509Y-54600003D03*
%TD*%
D16*
%TO.C,Q1*%
X59999997Y-81537511D03*
X61899997Y-81537511D03*
X60949997Y-79662511D03*
%TD*%
D17*
%TO.C,U3*%
X91637509Y-46310003D03*
X91637509Y-45360003D03*
X91637509Y-44410003D03*
X89362509Y-44410003D03*
X89362509Y-46310003D03*
%TD*%
D14*
%TO.C,FID1*%
X39599997Y-108400025D03*
%TD*%
%TO.C,FID1*%
X95400009Y-103600024D03*
%TD*%
%TO.C,FID2*%
X73200009Y-92400024D03*
%TD*%
D18*
%TO.C,D2*%
X81850009Y-103787524D03*
X81850009Y-102212524D03*
%TD*%
D19*
%TO.C,J1*%
X70500009Y-83300017D03*
D20*
X70500009Y-80760017D03*
%TD*%
D21*
%TO.C,U1*%
X93050009Y-83102517D03*
X92100009Y-83102517D03*
X91150009Y-83102517D03*
X91150009Y-85377517D03*
X92100009Y-85377517D03*
X93050009Y-85377517D03*
%TD*%
D22*
%TO.C,R6*%
X79525009Y-94950024D03*
X77875009Y-94950024D03*
%TD*%
D23*
%TO.C,R7*%
X65412497Y-54599997D03*
X63587497Y-54599997D03*
%TD*%
D24*
%TO.C,U2*%
X81337509Y-94975024D03*
X81337509Y-95625024D03*
X81337509Y-96275024D03*
X81337509Y-96925024D03*
X81337509Y-97575024D03*
X81337509Y-98225024D03*
X81337509Y-98875024D03*
X81337509Y-99525024D03*
X81337509Y-100175024D03*
X81337509Y-100825024D03*
X87062509Y-100825024D03*
X87062509Y-100175024D03*
X87062509Y-99525024D03*
X87062509Y-98875024D03*
X87062509Y-98225024D03*
X87062509Y-97575024D03*
X87062509Y-96925024D03*
X87062509Y-96275024D03*
X87062509Y-95625024D03*
X87062509Y-94975024D03*
%TD*%
D15*
%TO.C,R3*%
X56037497Y-77400011D03*
X57862497Y-77400011D03*
%TD*%
D25*
%TO.C,D2*%
X53149997Y-60212504D03*
X53149997Y-61787504D03*
%TD*%
D26*
%TO.C,D3*%
X61899997Y-85250011D03*
X60949997Y-83250011D03*
X59999997Y-85250011D03*
%TD*%
D22*
%TO.C,R6*%
X79525009Y-46950003D03*
X77875009Y-46950003D03*
%TD*%
D27*
%TO.C,C1*%
X89000009Y-98225024D03*
X89000009Y-99775024D03*
%TD*%
D11*
%TO.C,C4*%
X41599997Y-117675025D03*
X41599997Y-116125025D03*
%TD*%
D28*
%TO.C,U3*%
X43362497Y-53689997D03*
X43362497Y-54639997D03*
X43362497Y-55589997D03*
X45637497Y-55589997D03*
X45637497Y-53689997D03*
%TD*%
D23*
%TO.C,R3*%
X78962509Y-118600031D03*
X77137509Y-118600031D03*
%TD*%
D15*
%TO.C,R3*%
X56037497Y-109400025D03*
X57862497Y-109400025D03*
%TD*%
D27*
%TO.C,C1*%
X89000009Y-66225010D03*
X89000009Y-67775010D03*
%TD*%
D23*
%TO.C,R4*%
X64562497Y-109400025D03*
X62737497Y-109400025D03*
%TD*%
D29*
%TO.C,F1*%
X93362509Y-60400010D03*
X95237509Y-60400010D03*
%TD*%
D30*
%TO.C,R1*%
X85050009Y-71825010D03*
X85050009Y-70175010D03*
%TD*%
D11*
%TO.C,C1*%
X45999997Y-97775018D03*
X45999997Y-96225018D03*
%TD*%
D31*
%TO.C,J2*%
X98700009Y-52300003D03*
X98700009Y-47700003D03*
D32*
X95950009Y-46500003D03*
X95950009Y-49000003D03*
X95950009Y-51000003D03*
X95950009Y-53500003D03*
D33*
X98700009Y-44300003D03*
X98700009Y-55700003D03*
%TD*%
D34*
%TO.C,JP1*%
X59649997Y-61400004D03*
D35*
X60949997Y-61400004D03*
%TD*%
D19*
%TO.C,J1*%
X64499997Y-112700025D03*
D20*
X64499997Y-115240025D03*
%TD*%
D11*
%TO.C,C1*%
X45999997Y-81775011D03*
X45999997Y-80225011D03*
%TD*%
D36*
%TO.C,J3*%
X47999997Y-119200025D03*
D37*
X49269997Y-119200025D03*
X50539997Y-119200025D03*
X51809997Y-119200025D03*
X53079997Y-119200025D03*
%TD*%
D21*
%TO.C,U1*%
X93050009Y-115102531D03*
X92100009Y-115102531D03*
X91150009Y-115102531D03*
X91150009Y-117377531D03*
X92100009Y-117377531D03*
X93050009Y-117377531D03*
%TD*%
D15*
%TO.C,R7*%
X69587509Y-93400024D03*
X71412509Y-93400024D03*
%TD*%
D10*
%TO.C,R2*%
X51649997Y-44174997D03*
X51649997Y-45824997D03*
%TD*%
%TO.C,R2*%
X51649997Y-108175025D03*
X51649997Y-109825025D03*
%TD*%
D38*
%TO.C,R6*%
X55474997Y-117050025D03*
X57124997Y-117050025D03*
%TD*%
D34*
%TO.C,JP2*%
X78200009Y-60700010D03*
D35*
X79500009Y-60700010D03*
%TD*%
D23*
%TO.C,R7*%
X65412497Y-86600011D03*
X63587497Y-86600011D03*
%TD*%
D34*
%TO.C,JP1*%
X59649997Y-77400011D03*
D35*
X60949997Y-77400011D03*
%TD*%
D27*
%TO.C,C4*%
X93400009Y-94325024D03*
X93400009Y-95875024D03*
%TD*%
D28*
%TO.C,U3*%
X43362497Y-85690011D03*
X43362497Y-86640011D03*
X43362497Y-87590011D03*
X45637497Y-87590011D03*
X45637497Y-85690011D03*
%TD*%
D39*
%TO.C,U2*%
X53662497Y-85025011D03*
X53662497Y-84375011D03*
X53662497Y-83725011D03*
X53662497Y-83075011D03*
X53662497Y-82425011D03*
X53662497Y-81775011D03*
X53662497Y-81125011D03*
X53662497Y-80475011D03*
X53662497Y-79825011D03*
X53662497Y-79175011D03*
X47937497Y-79175011D03*
X47937497Y-79825011D03*
X47937497Y-80475011D03*
X47937497Y-81125011D03*
X47937497Y-81775011D03*
X47937497Y-82425011D03*
X47937497Y-83075011D03*
X47937497Y-83725011D03*
X47937497Y-84375011D03*
X47937497Y-85025011D03*
%TD*%
D38*
%TO.C,R6*%
X55474997Y-85050011D03*
X57124997Y-85050011D03*
%TD*%
D15*
%TO.C,R3*%
X56037497Y-45399997D03*
X57862497Y-45399997D03*
%TD*%
D40*
%TO.C,Q1*%
X75000009Y-66462510D03*
X73100009Y-66462510D03*
X74050009Y-68337510D03*
%TD*%
D18*
%TO.C,D1*%
X86550009Y-119787531D03*
X86550009Y-118212531D03*
%TD*%
D14*
%TO.C,FID1*%
X39599997Y-92400018D03*
%TD*%
D29*
%TO.C,F1*%
X93362509Y-92400024D03*
X95237509Y-92400024D03*
%TD*%
D30*
%TO.C,R2*%
X83350009Y-71825010D03*
X83350009Y-70175010D03*
%TD*%
D12*
%TO.C,JP1*%
X75350009Y-102600024D03*
D13*
X74050009Y-102600024D03*
%TD*%
D27*
%TO.C,C1*%
X89000009Y-50225003D03*
X89000009Y-51775003D03*
%TD*%
D18*
%TO.C,D1*%
X86550009Y-71787510D03*
X86550009Y-70212510D03*
%TD*%
D27*
%TO.C,C4*%
X93400009Y-62325010D03*
X93400009Y-63875010D03*
%TD*%
D41*
%TO.C,C3*%
X89825009Y-79850017D03*
X91375009Y-79850017D03*
%TD*%
D14*
%TO.C,FID2*%
X61799997Y-55599997D03*
%TD*%
D15*
%TO.C,R4*%
X70437509Y-70600010D03*
X72262509Y-70600010D03*
%TD*%
D27*
%TO.C,C2*%
X79500009Y-113512531D03*
X79500009Y-115062531D03*
%TD*%
D42*
%TO.C,REF\u002A\u002A*%
X31500997Y-38480997D03*
%TD*%
D10*
%TO.C,R1*%
X49949997Y-44174997D03*
X49949997Y-45824997D03*
%TD*%
D25*
%TO.C,D1*%
X48449997Y-76212511D03*
X48449997Y-77787511D03*
%TD*%
D14*
%TO.C,FID2*%
X61799997Y-103600018D03*
%TD*%
D27*
%TO.C,C2*%
X79500009Y-97512524D03*
X79500009Y-99062524D03*
%TD*%
D43*
%TO.C,C3*%
X45174997Y-116150025D03*
X43624997Y-116150025D03*
%TD*%
D26*
%TO.C,D3*%
X73100009Y-62750010D03*
X74050009Y-64750010D03*
X75000009Y-62750010D03*
%TD*%
D10*
%TO.C,R2*%
X51649997Y-60175004D03*
X51649997Y-61825004D03*
%TD*%
D24*
%TO.C,U2*%
X81337509Y-46975003D03*
X81337509Y-47625003D03*
X81337509Y-48275003D03*
X81337509Y-48925003D03*
X81337509Y-49575003D03*
X81337509Y-50225003D03*
X81337509Y-50875003D03*
X81337509Y-51525003D03*
X81337509Y-52175003D03*
X81337509Y-52825003D03*
X87062509Y-52825003D03*
X87062509Y-52175003D03*
X87062509Y-51525003D03*
X87062509Y-50875003D03*
X87062509Y-50225003D03*
X87062509Y-49575003D03*
X87062509Y-48925003D03*
X87062509Y-48275003D03*
X87062509Y-47625003D03*
X87062509Y-46975003D03*
%TD*%
D10*
%TO.C,R1*%
X49949997Y-60175004D03*
X49949997Y-61825004D03*
%TD*%
D11*
%TO.C,C1*%
X45999997Y-49774997D03*
X45999997Y-48224997D03*
%TD*%
D34*
%TO.C,JP2*%
X78200009Y-44700003D03*
D35*
X79500009Y-44700003D03*
%TD*%
D44*
%TO.C,F1*%
X41637497Y-87600011D03*
X39762497Y-87600011D03*
%TD*%
D30*
%TO.C,R5*%
X58399997Y-49524997D03*
X58399997Y-47874997D03*
%TD*%
D10*
%TO.C,R5*%
X76600009Y-66475010D03*
X76600009Y-68125010D03*
%TD*%
D34*
%TO.C,JP1*%
X59649997Y-45399997D03*
D35*
X60949997Y-45399997D03*
%TD*%
D26*
%TO.C,D3*%
X61899997Y-69250004D03*
X60949997Y-67250004D03*
X59999997Y-69250004D03*
%TD*%
D23*
%TO.C,R7*%
X65412497Y-102600018D03*
X63587497Y-102600018D03*
%TD*%
D45*
%TO.C,U1*%
X41949997Y-64897504D03*
X42899997Y-64897504D03*
X43849997Y-64897504D03*
X43849997Y-62622504D03*
X42899997Y-62622504D03*
X41949997Y-62622504D03*
%TD*%
D28*
%TO.C,U3*%
X43362497Y-69690004D03*
X43362497Y-70640004D03*
X43362497Y-71590004D03*
X45637497Y-71590004D03*
X45637497Y-69690004D03*
%TD*%
D14*
%TO.C,FID2*%
X61799997Y-87600011D03*
%TD*%
%TO.C,FID2*%
X61799997Y-119600025D03*
%TD*%
D36*
%TO.C,J3*%
X87000009Y-108800031D03*
D37*
X85730009Y-108800031D03*
X84460009Y-108800031D03*
X83190009Y-108800031D03*
X81920009Y-108800031D03*
%TD*%
D26*
%TO.C,D3*%
X73100009Y-78750017D03*
X74050009Y-80750017D03*
X75000009Y-78750017D03*
%TD*%
D39*
%TO.C,U2*%
X53662497Y-101025018D03*
X53662497Y-100375018D03*
X53662497Y-99725018D03*
X53662497Y-99075018D03*
X53662497Y-98425018D03*
X53662497Y-97775018D03*
X53662497Y-97125018D03*
X53662497Y-96475018D03*
X53662497Y-95825018D03*
X53662497Y-95175018D03*
X47937497Y-95175018D03*
X47937497Y-95825018D03*
X47937497Y-96475018D03*
X47937497Y-97125018D03*
X47937497Y-97775018D03*
X47937497Y-98425018D03*
X47937497Y-99075018D03*
X47937497Y-99725018D03*
X47937497Y-100375018D03*
X47937497Y-101025018D03*
%TD*%
D27*
%TO.C,C2*%
X79500009Y-81512517D03*
X79500009Y-83062517D03*
%TD*%
D12*
%TO.C,JP2*%
X56799997Y-55299997D03*
D13*
X55499997Y-55299997D03*
%TD*%
D16*
%TO.C,Q1*%
X59999997Y-65537504D03*
X61899997Y-65537504D03*
X60949997Y-63662504D03*
%TD*%
D22*
%TO.C,R6*%
X79525009Y-62950010D03*
X77875009Y-62950010D03*
%TD*%
D30*
%TO.C,R2*%
X83350009Y-87825017D03*
X83350009Y-86175017D03*
%TD*%
D11*
%TO.C,C1*%
X45999997Y-113775025D03*
X45999997Y-112225025D03*
%TD*%
D18*
%TO.C,D2*%
X81850009Y-119787531D03*
X81850009Y-118212531D03*
%TD*%
D26*
%TO.C,D3*%
X73100009Y-46750003D03*
X74050009Y-48750003D03*
X75000009Y-46750003D03*
%TD*%
D43*
%TO.C,C3*%
X45174997Y-68150004D03*
X43624997Y-68150004D03*
%TD*%
D15*
%TO.C,R7*%
X69587509Y-77400017D03*
X71412509Y-77400017D03*
%TD*%
D45*
%TO.C,U1*%
X41949997Y-96897518D03*
X42899997Y-96897518D03*
X43849997Y-96897518D03*
X43849997Y-94622518D03*
X42899997Y-94622518D03*
X41949997Y-94622518D03*
%TD*%
D27*
%TO.C,C1*%
X89000009Y-82225017D03*
X89000009Y-83775017D03*
%TD*%
D36*
%TO.C,J3*%
X47999997Y-87200011D03*
D37*
X49269997Y-87200011D03*
X50539997Y-87200011D03*
X51809997Y-87200011D03*
X53079997Y-87200011D03*
%TD*%
D24*
%TO.C,U2*%
X81337509Y-62975010D03*
X81337509Y-63625010D03*
X81337509Y-64275010D03*
X81337509Y-64925010D03*
X81337509Y-65575010D03*
X81337509Y-66225010D03*
X81337509Y-66875010D03*
X81337509Y-67525010D03*
X81337509Y-68175010D03*
X81337509Y-68825010D03*
X87062509Y-68825010D03*
X87062509Y-68175010D03*
X87062509Y-67525010D03*
X87062509Y-66875010D03*
X87062509Y-66225010D03*
X87062509Y-65575010D03*
X87062509Y-64925010D03*
X87062509Y-64275010D03*
X87062509Y-63625010D03*
X87062509Y-62975010D03*
%TD*%
D38*
%TO.C,R6*%
X55474997Y-53049997D03*
X57124997Y-53049997D03*
%TD*%
D45*
%TO.C,U1*%
X41949997Y-80897511D03*
X42899997Y-80897511D03*
X43849997Y-80897511D03*
X43849997Y-78622511D03*
X42899997Y-78622511D03*
X41949997Y-78622511D03*
%TD*%
D16*
%TO.C,Q1*%
X59999997Y-113537525D03*
X61899997Y-113537525D03*
X60949997Y-111662525D03*
%TD*%
D30*
%TO.C,R2*%
X83350009Y-119825031D03*
X83350009Y-118175031D03*
%TD*%
D34*
%TO.C,JP2*%
X78200009Y-76700017D03*
D35*
X79500009Y-76700017D03*
%TD*%
D16*
%TO.C,Q1*%
X59999997Y-97537518D03*
X61899997Y-97537518D03*
X60949997Y-95662518D03*
%TD*%
D45*
%TO.C,U1*%
X41949997Y-48897497D03*
X42899997Y-48897497D03*
X43849997Y-48897497D03*
X43849997Y-46622497D03*
X42899997Y-46622497D03*
X41949997Y-46622497D03*
%TD*%
D30*
%TO.C,R5*%
X58399997Y-65525004D03*
X58399997Y-63875004D03*
%TD*%
D44*
%TO.C,F1*%
X41637497Y-103600018D03*
X39762497Y-103600018D03*
%TD*%
D31*
%TO.C,J2*%
X98700009Y-68300010D03*
X98700009Y-63700010D03*
D32*
X95950009Y-62500010D03*
X95950009Y-65000010D03*
X95950009Y-67000010D03*
X95950009Y-69500010D03*
D33*
X98700009Y-60300010D03*
X98700009Y-71700010D03*
%TD*%
D19*
%TO.C,J1*%
X70500009Y-115300031D03*
D20*
X70500009Y-112760031D03*
%TD*%
D31*
%TO.C,J2*%
X36299997Y-84300011D03*
X36299997Y-79700011D03*
D32*
X39049997Y-85500011D03*
X39049997Y-83000011D03*
X39049997Y-81000011D03*
X39049997Y-78500011D03*
D33*
X36299997Y-87700011D03*
X36299997Y-76300011D03*
%TD*%
D15*
%TO.C,R3*%
X56037497Y-61400004D03*
X57862497Y-61400004D03*
%TD*%
D11*
%TO.C,C2*%
X55499997Y-98487518D03*
X55499997Y-96937518D03*
%TD*%
D27*
%TO.C,C2*%
X79500009Y-49512503D03*
X79500009Y-51062503D03*
%TD*%
%TO.C,C1*%
X89000009Y-114225031D03*
X89000009Y-115775031D03*
%TD*%
D23*
%TO.C,R7*%
X65412497Y-70600004D03*
X63587497Y-70600004D03*
%TD*%
D12*
%TO.C,JP1*%
X75350009Y-54600003D03*
D13*
X74050009Y-54600003D03*
%TD*%
D17*
%TO.C,U3*%
X91637509Y-78310017D03*
X91637509Y-77360017D03*
X91637509Y-76410017D03*
X89362509Y-76410017D03*
X89362509Y-78310017D03*
%TD*%
D26*
%TO.C,D3*%
X61899997Y-53249997D03*
X60949997Y-51249997D03*
X59999997Y-53249997D03*
%TD*%
D23*
%TO.C,R4*%
X64562497Y-77400011D03*
X62737497Y-77400011D03*
%TD*%
D41*
%TO.C,C3*%
X89825009Y-63850010D03*
X91375009Y-63850010D03*
%TD*%
D23*
%TO.C,R4*%
X64562497Y-93400018D03*
X62737497Y-93400018D03*
%TD*%
D11*
%TO.C,C1*%
X45999997Y-65775004D03*
X45999997Y-64225004D03*
%TD*%
D21*
%TO.C,U1*%
X93050009Y-51102503D03*
X92100009Y-51102503D03*
X91150009Y-51102503D03*
X91150009Y-53377503D03*
X92100009Y-53377503D03*
X93050009Y-53377503D03*
%TD*%
D27*
%TO.C,C2*%
X79500009Y-65512510D03*
X79500009Y-67062510D03*
%TD*%
D25*
%TO.C,D2*%
X53149997Y-76212511D03*
X53149997Y-77787511D03*
%TD*%
D26*
%TO.C,D3*%
X73100009Y-110750031D03*
X74050009Y-112750031D03*
X75000009Y-110750031D03*
%TD*%
D39*
%TO.C,U2*%
X53662497Y-53024997D03*
X53662497Y-52374997D03*
X53662497Y-51724997D03*
X53662497Y-51074997D03*
X53662497Y-50424997D03*
X53662497Y-49774997D03*
X53662497Y-49124997D03*
X53662497Y-48474997D03*
X53662497Y-47824997D03*
X53662497Y-47174997D03*
X47937497Y-47174997D03*
X47937497Y-47824997D03*
X47937497Y-48474997D03*
X47937497Y-49124997D03*
X47937497Y-49774997D03*
X47937497Y-50424997D03*
X47937497Y-51074997D03*
X47937497Y-51724997D03*
X47937497Y-52374997D03*
X47937497Y-53024997D03*
%TD*%
D41*
%TO.C,C3*%
X89825009Y-47850003D03*
X91375009Y-47850003D03*
%TD*%
D12*
%TO.C,JP2*%
X56799997Y-103300018D03*
D13*
X55499997Y-103300018D03*
%TD*%
D10*
%TO.C,R5*%
X76600009Y-114475031D03*
X76600009Y-116125031D03*
%TD*%
D31*
%TO.C,J2*%
X98700009Y-84300017D03*
X98700009Y-79700017D03*
D32*
X95950009Y-78500017D03*
X95950009Y-81000017D03*
X95950009Y-83000017D03*
X95950009Y-85500017D03*
D33*
X98700009Y-87700017D03*
X98700009Y-76300017D03*
%TD*%
D40*
%TO.C,Q1*%
X75000009Y-98462524D03*
X73100009Y-98462524D03*
X74050009Y-100337524D03*
%TD*%
D19*
%TO.C,J1*%
X64499997Y-64700004D03*
D20*
X64499997Y-67240004D03*
%TD*%
D30*
%TO.C,R1*%
X85050009Y-55825003D03*
X85050009Y-54175003D03*
%TD*%
D14*
%TO.C,FID2*%
X73200009Y-108400031D03*
%TD*%
D23*
%TO.C,R4*%
X64562497Y-45399997D03*
X62737497Y-45399997D03*
%TD*%
D17*
%TO.C,U3*%
X91637509Y-110310031D03*
X91637509Y-109360031D03*
X91637509Y-108410031D03*
X89362509Y-108410031D03*
X89362509Y-110310031D03*
%TD*%
D43*
%TO.C,C3*%
X45174997Y-100150018D03*
X43624997Y-100150018D03*
%TD*%
D36*
%TO.C,J3*%
X87000009Y-44800003D03*
D37*
X85730009Y-44800003D03*
X84460009Y-44800003D03*
X83190009Y-44800003D03*
X81920009Y-44800003D03*
%TD*%
D41*
%TO.C,C3*%
X89825009Y-95850024D03*
X91375009Y-95850024D03*
%TD*%
D23*
%TO.C,R3*%
X78962509Y-86600017D03*
X77137509Y-86600017D03*
%TD*%
D34*
%TO.C,JP2*%
X78200009Y-92700024D03*
D35*
X79500009Y-92700024D03*
%TD*%
D10*
%TO.C,R1*%
X49949997Y-108175025D03*
X49949997Y-109825025D03*
%TD*%
D36*
%TO.C,J3*%
X87000009Y-92800024D03*
D37*
X85730009Y-92800024D03*
X84460009Y-92800024D03*
X83190009Y-92800024D03*
X81920009Y-92800024D03*
%TD*%
D36*
%TO.C,J3*%
X47999997Y-103200018D03*
D37*
X49269997Y-103200018D03*
X50539997Y-103200018D03*
X51809997Y-103200018D03*
X53079997Y-103200018D03*
%TD*%
D12*
%TO.C,JP2*%
X56799997Y-87300011D03*
D13*
X55499997Y-87300011D03*
%TD*%
D30*
%TO.C,R2*%
X83350009Y-55825003D03*
X83350009Y-54175003D03*
%TD*%
D10*
%TO.C,R2*%
X51649997Y-76175011D03*
X51649997Y-77825011D03*
%TD*%
D18*
%TO.C,D2*%
X81850009Y-55787503D03*
X81850009Y-54212503D03*
%TD*%
D30*
%TO.C,R1*%
X85050009Y-103825024D03*
X85050009Y-102175024D03*
%TD*%
D36*
%TO.C,J3*%
X87000009Y-60800010D03*
D37*
X85730009Y-60800010D03*
X84460009Y-60800010D03*
X83190009Y-60800010D03*
X81920009Y-60800010D03*
%TD*%
D21*
%TO.C,U1*%
X93050009Y-67102510D03*
X92100009Y-67102510D03*
X91150009Y-67102510D03*
X91150009Y-69377510D03*
X92100009Y-69377510D03*
X93050009Y-69377510D03*
%TD*%
D30*
%TO.C,R1*%
X85050009Y-119825031D03*
X85050009Y-118175031D03*
%TD*%
D25*
%TO.C,D2*%
X53149997Y-108212525D03*
X53149997Y-109787525D03*
%TD*%
D23*
%TO.C,R3*%
X78962509Y-102600024D03*
X77137509Y-102600024D03*
%TD*%
D14*
%TO.C,FID1*%
X39599997Y-44399997D03*
%TD*%
D22*
%TO.C,R6*%
X79525009Y-78950017D03*
X77875009Y-78950017D03*
%TD*%
D27*
%TO.C,C4*%
X93400009Y-46325003D03*
X93400009Y-47875003D03*
%TD*%
D22*
%TO.C,R6*%
X79525009Y-110950031D03*
X77875009Y-110950031D03*
%TD*%
D14*
%TO.C,FID2*%
X73200009Y-76400017D03*
%TD*%
D40*
%TO.C,Q1*%
X75000009Y-114462531D03*
X73100009Y-114462531D03*
X74050009Y-116337531D03*
%TD*%
D26*
%TO.C,D3*%
X61899997Y-101250018D03*
X60949997Y-99250018D03*
X59999997Y-101250018D03*
%TD*%
D12*
%TO.C,JP1*%
X75350009Y-86600017D03*
D13*
X74050009Y-86600017D03*
%TD*%
D15*
%TO.C,R3*%
X56037497Y-93400018D03*
X57862497Y-93400018D03*
%TD*%
D36*
%TO.C,J3*%
X47999997Y-71200004D03*
D37*
X49269997Y-71200004D03*
X50539997Y-71200004D03*
X51809997Y-71200004D03*
X53079997Y-71200004D03*
%TD*%
D11*
%TO.C,C4*%
X41599997Y-101675018D03*
X41599997Y-100125018D03*
%TD*%
D19*
%TO.C,J1*%
X70500009Y-99300024D03*
D20*
X70500009Y-96760024D03*
%TD*%
D18*
%TO.C,D1*%
X86550009Y-87787517D03*
X86550009Y-86212517D03*
%TD*%
D34*
%TO.C,JP1*%
X59649997Y-109400025D03*
D35*
X60949997Y-109400025D03*
%TD*%
D19*
%TO.C,J1*%
X64499997Y-80700011D03*
D20*
X64499997Y-83240011D03*
%TD*%
D36*
%TO.C,J3*%
X47999997Y-55199997D03*
D37*
X49269997Y-55199997D03*
X50539997Y-55199997D03*
X51809997Y-55199997D03*
X53079997Y-55199997D03*
%TD*%
D34*
%TO.C,JP2*%
X78200009Y-108700031D03*
D35*
X79500009Y-108700031D03*
%TD*%
D25*
%TO.C,D1*%
X48449997Y-44212497D03*
X48449997Y-45787497D03*
%TD*%
D29*
%TO.C,F1*%
X93362509Y-108400031D03*
X95237509Y-108400031D03*
%TD*%
D14*
%TO.C,FID1*%
X39599997Y-76400011D03*
%TD*%
D11*
%TO.C,C2*%
X55499997Y-50487497D03*
X55499997Y-48937497D03*
%TD*%
D14*
%TO.C,FID2*%
X61799997Y-71600004D03*
%TD*%
%TO.C,FID1*%
X95400009Y-71600010D03*
%TD*%
D40*
%TO.C,Q1*%
X75000009Y-50462503D03*
X73100009Y-50462503D03*
X74050009Y-52337503D03*
%TD*%
D31*
%TO.C,J2*%
X98700009Y-95700024D03*
X98700009Y-100300024D03*
D32*
X95950009Y-94500024D03*
X95950009Y-97000024D03*
X95950009Y-99000024D03*
X95950009Y-101500024D03*
D33*
X98700009Y-92300024D03*
X98700009Y-103700024D03*
%TD*%
D31*
%TO.C,J2*%
X36299997Y-95700018D03*
X36299997Y-100300018D03*
D32*
X39049997Y-101500018D03*
X39049997Y-99000018D03*
X39049997Y-97000018D03*
X39049997Y-94500018D03*
D33*
X36299997Y-92300018D03*
X36299997Y-103700018D03*
%TD*%
D24*
%TO.C,U2*%
X81337509Y-78975017D03*
X81337509Y-79625017D03*
X81337509Y-80275017D03*
X81337509Y-80925017D03*
X81337509Y-81575017D03*
X81337509Y-82225017D03*
X81337509Y-82875017D03*
X81337509Y-83525017D03*
X81337509Y-84175017D03*
X81337509Y-84825017D03*
X87062509Y-84825017D03*
X87062509Y-84175017D03*
X87062509Y-83525017D03*
X87062509Y-82875017D03*
X87062509Y-82225017D03*
X87062509Y-81575017D03*
X87062509Y-80925017D03*
X87062509Y-80275017D03*
X87062509Y-79625017D03*
X87062509Y-78975017D03*
%TD*%
D38*
%TO.C,R6*%
X55474997Y-101050018D03*
X57124997Y-101050018D03*
%TD*%
D23*
%TO.C,R3*%
X78962509Y-70600010D03*
X77137509Y-70600010D03*
%TD*%
D11*
%TO.C,C4*%
X41599997Y-69675004D03*
X41599997Y-68125004D03*
%TD*%
D24*
%TO.C,U2*%
X81337509Y-110975031D03*
X81337509Y-111625031D03*
X81337509Y-112275031D03*
X81337509Y-112925031D03*
X81337509Y-113575031D03*
X81337509Y-114225031D03*
X81337509Y-114875031D03*
X81337509Y-115525031D03*
X81337509Y-116175031D03*
X81337509Y-116825031D03*
X87062509Y-116825031D03*
X87062509Y-116175031D03*
X87062509Y-115525031D03*
X87062509Y-114875031D03*
X87062509Y-114225031D03*
X87062509Y-113575031D03*
X87062509Y-112925031D03*
X87062509Y-112275031D03*
X87062509Y-111625031D03*
X87062509Y-110975031D03*
%TD*%
D25*
%TO.C,D1*%
X48449997Y-60212504D03*
X48449997Y-61787504D03*
%TD*%
D14*
%TO.C,FID1*%
X95400009Y-55600003D03*
%TD*%
D10*
%TO.C,R5*%
X76600009Y-82475017D03*
X76600009Y-84125017D03*
%TD*%
D26*
%TO.C,D3*%
X61899997Y-117250025D03*
X60949997Y-115250025D03*
X59999997Y-117250025D03*
%TD*%
D29*
%TO.C,F1*%
X93362509Y-44400003D03*
X95237509Y-44400003D03*
%TD*%
D40*
%TO.C,Q1*%
X75000009Y-82462517D03*
X73100009Y-82462517D03*
X74050009Y-84337517D03*
%TD*%
D11*
%TO.C,C4*%
X41599997Y-85675011D03*
X41599997Y-84125011D03*
%TD*%
D18*
%TO.C,D1*%
X86550009Y-103787524D03*
X86550009Y-102212524D03*
%TD*%
D10*
%TO.C,R1*%
X49949997Y-76175011D03*
X49949997Y-77825011D03*
%TD*%
D27*
%TO.C,C4*%
X93400009Y-110325031D03*
X93400009Y-111875031D03*
%TD*%
D15*
%TO.C,R4*%
X70437509Y-118600031D03*
X72262509Y-118600031D03*
%TD*%
D14*
%TO.C,FID2*%
X73200009Y-60400010D03*
%TD*%
D15*
%TO.C,R4*%
X70437509Y-102600024D03*
X72262509Y-102600024D03*
%TD*%
D36*
%TO.C,J3*%
X87000009Y-76800017D03*
D37*
X85730009Y-76800017D03*
X84460009Y-76800017D03*
X83190009Y-76800017D03*
X81920009Y-76800017D03*
%TD*%
D30*
%TO.C,R5*%
X58399997Y-113525025D03*
X58399997Y-111875025D03*
%TD*%
D38*
%TO.C,R6*%
X55474997Y-69050004D03*
X57124997Y-69050004D03*
%TD*%
D21*
%TO.C,U1*%
X93050009Y-99102524D03*
X92100009Y-99102524D03*
X91150009Y-99102524D03*
X91150009Y-101377524D03*
X92100009Y-101377524D03*
X93050009Y-101377524D03*
%TD*%
D25*
%TO.C,D1*%
X48449997Y-108212525D03*
X48449997Y-109787525D03*
%TD*%
D19*
%TO.C,J1*%
X70500009Y-67300010D03*
D20*
X70500009Y-64760010D03*
%TD*%
D19*
%TO.C,J1*%
X64499997Y-96700018D03*
D20*
X64499997Y-99240018D03*
%TD*%
D34*
%TO.C,JP1*%
X59649997Y-93400018D03*
D35*
X60949997Y-93400018D03*
%TD*%
D25*
%TO.C,D2*%
X53149997Y-92212518D03*
X53149997Y-93787518D03*
%TD*%
D27*
%TO.C,C4*%
X93400009Y-78325017D03*
X93400009Y-79875017D03*
%TD*%
D23*
%TO.C,R4*%
X64562497Y-61400004D03*
X62737497Y-61400004D03*
%TD*%
D43*
%TO.C,C3*%
X45174997Y-84150011D03*
X43624997Y-84150011D03*
%TD*%
D39*
%TO.C,U2*%
X53662497Y-69025004D03*
X53662497Y-68375004D03*
X53662497Y-67725004D03*
X53662497Y-67075004D03*
X53662497Y-66425004D03*
X53662497Y-65775004D03*
X53662497Y-65125004D03*
X53662497Y-64475004D03*
X53662497Y-63825004D03*
X53662497Y-63175004D03*
X47937497Y-63175004D03*
X47937497Y-63825004D03*
X47937497Y-64475004D03*
X47937497Y-65125004D03*
X47937497Y-65775004D03*
X47937497Y-66425004D03*
X47937497Y-67075004D03*
X47937497Y-67725004D03*
X47937497Y-68375004D03*
X47937497Y-69025004D03*
%TD*%
%TO.C,U2*%
X53662497Y-117025025D03*
X53662497Y-116375025D03*
X53662497Y-115725025D03*
X53662497Y-115075025D03*
X53662497Y-114425025D03*
X53662497Y-113775025D03*
X53662497Y-113125025D03*
X53662497Y-112475025D03*
X53662497Y-111825025D03*
X53662497Y-111175025D03*
X47937497Y-111175025D03*
X47937497Y-111825025D03*
X47937497Y-112475025D03*
X47937497Y-113125025D03*
X47937497Y-113775025D03*
X47937497Y-114425025D03*
X47937497Y-115075025D03*
X47937497Y-115725025D03*
X47937497Y-116375025D03*
X47937497Y-117025025D03*
%TD*%
D15*
%TO.C,R4*%
X70437509Y-86600017D03*
X72262509Y-86600017D03*
%TD*%
D10*
%TO.C,R2*%
X51649997Y-92175018D03*
X51649997Y-93825018D03*
%TD*%
D30*
%TO.C,R1*%
X85050009Y-87825017D03*
X85050009Y-86175017D03*
%TD*%
D29*
%TO.C,F1*%
X93362509Y-76400017D03*
X95237509Y-76400017D03*
%TD*%
D15*
%TO.C,R7*%
X69587509Y-45400003D03*
X71412509Y-45400003D03*
%TD*%
%TO.C,R7*%
X69587509Y-109400031D03*
X71412509Y-109400031D03*
%TD*%
D28*
%TO.C,U3*%
X43362497Y-117690025D03*
X43362497Y-118640025D03*
X43362497Y-119590025D03*
X45637497Y-119590025D03*
X45637497Y-117690025D03*
%TD*%
D14*
%TO.C,FID1*%
X95400009Y-87600017D03*
%TD*%
D31*
%TO.C,J2*%
X36299997Y-52299997D03*
X36299997Y-47699997D03*
D32*
X39049997Y-53499997D03*
X39049997Y-50999997D03*
X39049997Y-48999997D03*
X39049997Y-46499997D03*
D33*
X36299997Y-44299997D03*
X36299997Y-55699997D03*
%TD*%
D41*
%TO.C,C3*%
X89825009Y-111850031D03*
X91375009Y-111850031D03*
%TD*%
D28*
%TO.C,U3*%
X43362497Y-101690018D03*
X43362497Y-102640018D03*
X43362497Y-103590018D03*
X45637497Y-103590018D03*
X45637497Y-101690018D03*
%TD*%
D30*
%TO.C,R5*%
X58399997Y-81525011D03*
X58399997Y-79875011D03*
%TD*%
D17*
%TO.C,U3*%
X91637509Y-62310010D03*
X91637509Y-61360010D03*
X91637509Y-60410010D03*
X89362509Y-60410010D03*
X89362509Y-62310010D03*
%TD*%
D14*
%TO.C,FID1*%
X95400009Y-119600031D03*
%TD*%
D42*
%TO.C,REF\u002A\u002A*%
X31500997Y-125519030D03*
%TD*%
D10*
%TO.C,R5*%
X76600009Y-98475024D03*
X76600009Y-100125024D03*
%TD*%
D42*
%TO.C,REF\u002A\u002A*%
X103499008Y-38480997D03*
%TD*%
D17*
%TO.C,U3*%
X91637509Y-94310024D03*
X91637509Y-93360024D03*
X91637509Y-92410024D03*
X89362509Y-92410024D03*
X89362509Y-94310024D03*
%TD*%
D45*
%TO.C,U1*%
X41949997Y-112897525D03*
X42899997Y-112897525D03*
X43849997Y-112897525D03*
X43849997Y-110622525D03*
X42899997Y-110622525D03*
X41949997Y-110622525D03*
%TD*%
D11*
%TO.C,C2*%
X55499997Y-114487525D03*
X55499997Y-112937525D03*
%TD*%
D18*
%TO.C,D1*%
X86550009Y-55787503D03*
X86550009Y-54212503D03*
%TD*%
D25*
%TO.C,D1*%
X48449997Y-92212518D03*
X48449997Y-93787518D03*
%TD*%
D23*
%TO.C,R3*%
X78962509Y-54600003D03*
X77137509Y-54600003D03*
%TD*%
D12*
%TO.C,JP1*%
X75350009Y-70600010D03*
D13*
X74050009Y-70600010D03*
%TD*%
D31*
%TO.C,J2*%
X98700009Y-111700031D03*
X98700009Y-116300031D03*
D32*
X95950009Y-110500031D03*
X95950009Y-113000031D03*
X95950009Y-115000031D03*
X95950009Y-117500031D03*
D33*
X98700009Y-108300031D03*
X98700009Y-119700031D03*
%TD*%
D44*
%TO.C,F1*%
X41637497Y-119600025D03*
X39762497Y-119600025D03*
%TD*%
D30*
%TO.C,R2*%
X83350009Y-103825024D03*
X83350009Y-102175024D03*
%TD*%
D14*
%TO.C,FID1*%
X39599997Y-60400004D03*
%TD*%
D25*
%TO.C,D2*%
X53149997Y-44212497D03*
X53149997Y-45787497D03*
%TD*%
D16*
%TO.C,Q1*%
X59999997Y-49537497D03*
X61899997Y-49537497D03*
X60949997Y-47662497D03*
%TD*%
D15*
%TO.C,R7*%
X69587509Y-61400010D03*
X71412509Y-61400010D03*
%TD*%
D18*
%TO.C,D2*%
X81850009Y-71787510D03*
X81850009Y-70212510D03*
%TD*%
D44*
%TO.C,F1*%
X41637497Y-71600004D03*
X39762497Y-71600004D03*
%TD*%
D26*
%TO.C,D3*%
X73100009Y-94750024D03*
X74050009Y-96750024D03*
X75000009Y-94750024D03*
%TD*%
D44*
%TO.C,F1*%
X41637497Y-55599997D03*
X39762497Y-55599997D03*
%TD*%
D19*
%TO.C,J1*%
X70500009Y-51300003D03*
D20*
X70500009Y-48760003D03*
%TD*%
D23*
%TO.C,R7*%
X65412497Y-118600025D03*
X63587497Y-118600025D03*
%TD*%
D43*
%TO.C,C3*%
X45174997Y-52149997D03*
X43624997Y-52149997D03*
%TD*%
D12*
%TO.C,JP2*%
X56799997Y-119300025D03*
D13*
X55499997Y-119300025D03*
%TD*%
D19*
%TO.C,J1*%
X64499997Y-48699997D03*
D20*
X64499997Y-51239997D03*
%TD*%
D31*
%TO.C,J2*%
X36299997Y-63700004D03*
X36299997Y-68300004D03*
D32*
X39049997Y-69500004D03*
X39049997Y-67000004D03*
X39049997Y-65000004D03*
X39049997Y-62500004D03*
D33*
X36299997Y-60300004D03*
X36299997Y-71700004D03*
%TD*%
D31*
%TO.C,J2*%
X36299997Y-111700025D03*
X36299997Y-116300025D03*
D32*
X39049997Y-117500025D03*
X39049997Y-115000025D03*
X39049997Y-113000025D03*
X39049997Y-110500025D03*
D33*
X36299997Y-119700025D03*
X36299997Y-108300025D03*
%TD*%
D30*
%TO.C,R5*%
X58399997Y-97525018D03*
X58399997Y-95875018D03*
%TD*%
D12*
%TO.C,JP1*%
X75350009Y-118600031D03*
D13*
X74050009Y-118600031D03*
%TD*%
D18*
%TO.C,D2*%
X81850009Y-87787517D03*
X81850009Y-86212517D03*
%TD*%
D11*
%TO.C,C4*%
X41599997Y-53674997D03*
X41599997Y-52124997D03*
%TD*%
M02*
