%TF.GenerationSoftware,KiCad,Pcbnew,(5.99.0-10613-g4d227d2d2b)*%
%TF.CreationDate,2021-05-26T08:20:36+03:00*%
%TF.ProjectId,stm32_ds2480_emu_panel,73746d33-325f-4647-9332-3438305f656d,rev?*%
%TF.SameCoordinates,Original*%
%TF.FileFunction,Legend,Bot*%
%TF.FilePolarity,Positive*%
%FSLAX46Y46*%
G04 Gerber Fmt 4.6, Leading zero omitted, Abs format (unit mm)*
G04 Created by KiCad (PCBNEW (5.99.0-10613-g4d227d2d2b)) date 2021-05-26 08:20:36*
%MOMM*%
%LPD*%
G01*
G04 APERTURE LIST*
%ADD10C,0.100000*%
%ADD11C,0.120000*%
G04 APERTURE END LIST*
D10*
%TO.C,TP1*%
X80157151Y-101857166D02*
X80242866Y-101828595D01*
X80385723Y-101828595D01*
X80442866Y-101857166D01*
X80471437Y-101885738D01*
X80500009Y-101942881D01*
X80500009Y-102000024D01*
X80471437Y-102057166D01*
X80442866Y-102085738D01*
X80385723Y-102114309D01*
X80271437Y-102142881D01*
X80214294Y-102171452D01*
X80185723Y-102200024D01*
X80157151Y-102257166D01*
X80157151Y-102314309D01*
X80185723Y-102371452D01*
X80214294Y-102400024D01*
X80271437Y-102428595D01*
X80414294Y-102428595D01*
X80500009Y-102400024D01*
X80871437Y-102114309D02*
X80871437Y-101828595D01*
X80671437Y-102428595D02*
X80871437Y-102114309D01*
X81071437Y-102428595D01*
X81271437Y-101828595D02*
X81271437Y-102428595D01*
X81614294Y-101828595D01*
X81614294Y-102428595D01*
X82242866Y-101885738D02*
X82214294Y-101857166D01*
X82128580Y-101828595D01*
X82071437Y-101828595D01*
X81985723Y-101857166D01*
X81928580Y-101914309D01*
X81900009Y-101971452D01*
X81871437Y-102085738D01*
X81871437Y-102171452D01*
X81900009Y-102285738D01*
X81928580Y-102342881D01*
X81985723Y-102400024D01*
X82071437Y-102428595D01*
X82128580Y-102428595D01*
X82214294Y-102400024D01*
X82242866Y-102371452D01*
X80157151Y-85857159D02*
X80242866Y-85828588D01*
X80385723Y-85828588D01*
X80442866Y-85857159D01*
X80471437Y-85885731D01*
X80500009Y-85942874D01*
X80500009Y-86000017D01*
X80471437Y-86057159D01*
X80442866Y-86085731D01*
X80385723Y-86114302D01*
X80271437Y-86142874D01*
X80214294Y-86171445D01*
X80185723Y-86200017D01*
X80157151Y-86257159D01*
X80157151Y-86314302D01*
X80185723Y-86371445D01*
X80214294Y-86400017D01*
X80271437Y-86428588D01*
X80414294Y-86428588D01*
X80500009Y-86400017D01*
X80871437Y-86114302D02*
X80871437Y-85828588D01*
X80671437Y-86428588D02*
X80871437Y-86114302D01*
X81071437Y-86428588D01*
X81271437Y-85828588D02*
X81271437Y-86428588D01*
X81614294Y-85828588D01*
X81614294Y-86428588D01*
X82242866Y-85885731D02*
X82214294Y-85857159D01*
X82128580Y-85828588D01*
X82071437Y-85828588D01*
X81985723Y-85857159D01*
X81928580Y-85914302D01*
X81900009Y-85971445D01*
X81871437Y-86085731D01*
X81871437Y-86171445D01*
X81900009Y-86285731D01*
X81928580Y-86342874D01*
X81985723Y-86400017D01*
X82071437Y-86428588D01*
X82128580Y-86428588D01*
X82214294Y-86400017D01*
X82242866Y-86371445D01*
X54842854Y-94142875D02*
X54757139Y-94171446D01*
X54614282Y-94171446D01*
X54557139Y-94142875D01*
X54528568Y-94114303D01*
X54499997Y-94057160D01*
X54499997Y-94000018D01*
X54528568Y-93942875D01*
X54557139Y-93914303D01*
X54614282Y-93885732D01*
X54728568Y-93857160D01*
X54785711Y-93828589D01*
X54814282Y-93800018D01*
X54842854Y-93742875D01*
X54842854Y-93685732D01*
X54814282Y-93628589D01*
X54785711Y-93600018D01*
X54728568Y-93571446D01*
X54585711Y-93571446D01*
X54499997Y-93600018D01*
X54128568Y-93885732D02*
X54128568Y-94171446D01*
X54328568Y-93571446D02*
X54128568Y-93885732D01*
X53928568Y-93571446D01*
X53728568Y-94171446D02*
X53728568Y-93571446D01*
X53385711Y-94171446D01*
X53385711Y-93571446D01*
X52757139Y-94114303D02*
X52785711Y-94142875D01*
X52871425Y-94171446D01*
X52928568Y-94171446D01*
X53014282Y-94142875D01*
X53071425Y-94085732D01*
X53099997Y-94028589D01*
X53128568Y-93914303D01*
X53128568Y-93828589D01*
X53099997Y-93714303D01*
X53071425Y-93657160D01*
X53014282Y-93600018D01*
X52928568Y-93571446D01*
X52871425Y-93571446D01*
X52785711Y-93600018D01*
X52757139Y-93628589D01*
X54842854Y-62142861D02*
X54757139Y-62171432D01*
X54614282Y-62171432D01*
X54557139Y-62142861D01*
X54528568Y-62114289D01*
X54499997Y-62057146D01*
X54499997Y-62000004D01*
X54528568Y-61942861D01*
X54557139Y-61914289D01*
X54614282Y-61885718D01*
X54728568Y-61857146D01*
X54785711Y-61828575D01*
X54814282Y-61800004D01*
X54842854Y-61742861D01*
X54842854Y-61685718D01*
X54814282Y-61628575D01*
X54785711Y-61600004D01*
X54728568Y-61571432D01*
X54585711Y-61571432D01*
X54499997Y-61600004D01*
X54128568Y-61885718D02*
X54128568Y-62171432D01*
X54328568Y-61571432D02*
X54128568Y-61885718D01*
X53928568Y-61571432D01*
X53728568Y-62171432D02*
X53728568Y-61571432D01*
X53385711Y-62171432D01*
X53385711Y-61571432D01*
X52757139Y-62114289D02*
X52785711Y-62142861D01*
X52871425Y-62171432D01*
X52928568Y-62171432D01*
X53014282Y-62142861D01*
X53071425Y-62085718D01*
X53099997Y-62028575D01*
X53128568Y-61914289D01*
X53128568Y-61828575D01*
X53099997Y-61714289D01*
X53071425Y-61657146D01*
X53014282Y-61600004D01*
X52928568Y-61571432D01*
X52871425Y-61571432D01*
X52785711Y-61600004D01*
X52757139Y-61628575D01*
X80157151Y-69857152D02*
X80242866Y-69828581D01*
X80385723Y-69828581D01*
X80442866Y-69857152D01*
X80471437Y-69885724D01*
X80500009Y-69942867D01*
X80500009Y-70000010D01*
X80471437Y-70057152D01*
X80442866Y-70085724D01*
X80385723Y-70114295D01*
X80271437Y-70142867D01*
X80214294Y-70171438D01*
X80185723Y-70200010D01*
X80157151Y-70257152D01*
X80157151Y-70314295D01*
X80185723Y-70371438D01*
X80214294Y-70400010D01*
X80271437Y-70428581D01*
X80414294Y-70428581D01*
X80500009Y-70400010D01*
X80871437Y-70114295D02*
X80871437Y-69828581D01*
X80671437Y-70428581D02*
X80871437Y-70114295D01*
X81071437Y-70428581D01*
X81271437Y-69828581D02*
X81271437Y-70428581D01*
X81614294Y-69828581D01*
X81614294Y-70428581D01*
X82242866Y-69885724D02*
X82214294Y-69857152D01*
X82128580Y-69828581D01*
X82071437Y-69828581D01*
X81985723Y-69857152D01*
X81928580Y-69914295D01*
X81900009Y-69971438D01*
X81871437Y-70085724D01*
X81871437Y-70171438D01*
X81900009Y-70285724D01*
X81928580Y-70342867D01*
X81985723Y-70400010D01*
X82071437Y-70428581D01*
X82128580Y-70428581D01*
X82214294Y-70400010D01*
X82242866Y-70371438D01*
%TO.C,TP2*%
X52785711Y-84571439D02*
X52785711Y-83971439D01*
X52442854Y-84571439D01*
X52442854Y-83971439D01*
X51814282Y-84571439D02*
X52014282Y-84285725D01*
X52157139Y-84571439D02*
X52157139Y-83971439D01*
X51928568Y-83971439D01*
X51871425Y-84000011D01*
X51842854Y-84028582D01*
X51814282Y-84085725D01*
X51814282Y-84171439D01*
X51842854Y-84228582D01*
X51871425Y-84257153D01*
X51928568Y-84285725D01*
X52157139Y-84285725D01*
X51585711Y-84542868D02*
X51499997Y-84571439D01*
X51357139Y-84571439D01*
X51299997Y-84542868D01*
X51271425Y-84514296D01*
X51242854Y-84457153D01*
X51242854Y-84400011D01*
X51271425Y-84342868D01*
X51299997Y-84314296D01*
X51357139Y-84285725D01*
X51471425Y-84257153D01*
X51528568Y-84228582D01*
X51557139Y-84200011D01*
X51585711Y-84142868D01*
X51585711Y-84085725D01*
X51557139Y-84028582D01*
X51528568Y-84000011D01*
X51471425Y-83971439D01*
X51328568Y-83971439D01*
X51242854Y-84000011D01*
X51071425Y-83971439D02*
X50728568Y-83971439D01*
X50899997Y-84571439D02*
X50899997Y-83971439D01*
%TO.C,TP1*%
X54842854Y-110142882D02*
X54757139Y-110171453D01*
X54614282Y-110171453D01*
X54557139Y-110142882D01*
X54528568Y-110114310D01*
X54499997Y-110057167D01*
X54499997Y-110000025D01*
X54528568Y-109942882D01*
X54557139Y-109914310D01*
X54614282Y-109885739D01*
X54728568Y-109857167D01*
X54785711Y-109828596D01*
X54814282Y-109800025D01*
X54842854Y-109742882D01*
X54842854Y-109685739D01*
X54814282Y-109628596D01*
X54785711Y-109600025D01*
X54728568Y-109571453D01*
X54585711Y-109571453D01*
X54499997Y-109600025D01*
X54128568Y-109885739D02*
X54128568Y-110171453D01*
X54328568Y-109571453D02*
X54128568Y-109885739D01*
X53928568Y-109571453D01*
X53728568Y-110171453D02*
X53728568Y-109571453D01*
X53385711Y-110171453D01*
X53385711Y-109571453D01*
X52757139Y-110114310D02*
X52785711Y-110142882D01*
X52871425Y-110171453D01*
X52928568Y-110171453D01*
X53014282Y-110142882D01*
X53071425Y-110085739D01*
X53099997Y-110028596D01*
X53128568Y-109914310D01*
X53128568Y-109828596D01*
X53099997Y-109714310D01*
X53071425Y-109657167D01*
X53014282Y-109600025D01*
X52928568Y-109571453D01*
X52871425Y-109571453D01*
X52785711Y-109600025D01*
X52757139Y-109628596D01*
%TO.C,TP2*%
X82214294Y-47428574D02*
X82214294Y-48028574D01*
X82557151Y-47428574D01*
X82557151Y-48028574D01*
X83185723Y-47428574D02*
X82985723Y-47714288D01*
X82842866Y-47428574D02*
X82842866Y-48028574D01*
X83071437Y-48028574D01*
X83128580Y-48000003D01*
X83157151Y-47971431D01*
X83185723Y-47914288D01*
X83185723Y-47828574D01*
X83157151Y-47771431D01*
X83128580Y-47742860D01*
X83071437Y-47714288D01*
X82842866Y-47714288D01*
X83414294Y-47457145D02*
X83500009Y-47428574D01*
X83642866Y-47428574D01*
X83700009Y-47457145D01*
X83728580Y-47485717D01*
X83757151Y-47542860D01*
X83757151Y-47600003D01*
X83728580Y-47657145D01*
X83700009Y-47685717D01*
X83642866Y-47714288D01*
X83528580Y-47742860D01*
X83471437Y-47771431D01*
X83442866Y-47800003D01*
X83414294Y-47857145D01*
X83414294Y-47914288D01*
X83442866Y-47971431D01*
X83471437Y-48000003D01*
X83528580Y-48028574D01*
X83671437Y-48028574D01*
X83757151Y-48000003D01*
X83928580Y-48028574D02*
X84271437Y-48028574D01*
X84100009Y-47428574D02*
X84100009Y-48028574D01*
X52785711Y-52571425D02*
X52785711Y-51971425D01*
X52442854Y-52571425D01*
X52442854Y-51971425D01*
X51814282Y-52571425D02*
X52014282Y-52285711D01*
X52157139Y-52571425D02*
X52157139Y-51971425D01*
X51928568Y-51971425D01*
X51871425Y-51999997D01*
X51842854Y-52028568D01*
X51814282Y-52085711D01*
X51814282Y-52171425D01*
X51842854Y-52228568D01*
X51871425Y-52257139D01*
X51928568Y-52285711D01*
X52157139Y-52285711D01*
X51585711Y-52542854D02*
X51499997Y-52571425D01*
X51357139Y-52571425D01*
X51299997Y-52542854D01*
X51271425Y-52514282D01*
X51242854Y-52457139D01*
X51242854Y-52399997D01*
X51271425Y-52342854D01*
X51299997Y-52314282D01*
X51357139Y-52285711D01*
X51471425Y-52257139D01*
X51528568Y-52228568D01*
X51557139Y-52199997D01*
X51585711Y-52142854D01*
X51585711Y-52085711D01*
X51557139Y-52028568D01*
X51528568Y-51999997D01*
X51471425Y-51971425D01*
X51328568Y-51971425D01*
X51242854Y-51999997D01*
X51071425Y-51971425D02*
X50728568Y-51971425D01*
X50899997Y-52571425D02*
X50899997Y-51971425D01*
%TO.C,TP1*%
X80157151Y-117857173D02*
X80242866Y-117828602D01*
X80385723Y-117828602D01*
X80442866Y-117857173D01*
X80471437Y-117885745D01*
X80500009Y-117942888D01*
X80500009Y-118000031D01*
X80471437Y-118057173D01*
X80442866Y-118085745D01*
X80385723Y-118114316D01*
X80271437Y-118142888D01*
X80214294Y-118171459D01*
X80185723Y-118200031D01*
X80157151Y-118257173D01*
X80157151Y-118314316D01*
X80185723Y-118371459D01*
X80214294Y-118400031D01*
X80271437Y-118428602D01*
X80414294Y-118428602D01*
X80500009Y-118400031D01*
X80871437Y-118114316D02*
X80871437Y-117828602D01*
X80671437Y-118428602D02*
X80871437Y-118114316D01*
X81071437Y-118428602D01*
X81271437Y-117828602D02*
X81271437Y-118428602D01*
X81614294Y-117828602D01*
X81614294Y-118428602D01*
X82242866Y-117885745D02*
X82214294Y-117857173D01*
X82128580Y-117828602D01*
X82071437Y-117828602D01*
X81985723Y-117857173D01*
X81928580Y-117914316D01*
X81900009Y-117971459D01*
X81871437Y-118085745D01*
X81871437Y-118171459D01*
X81900009Y-118285745D01*
X81928580Y-118342888D01*
X81985723Y-118400031D01*
X82071437Y-118428602D01*
X82128580Y-118428602D01*
X82214294Y-118400031D01*
X82242866Y-118371459D01*
X80157151Y-53857145D02*
X80242866Y-53828574D01*
X80385723Y-53828574D01*
X80442866Y-53857145D01*
X80471437Y-53885717D01*
X80500009Y-53942860D01*
X80500009Y-54000003D01*
X80471437Y-54057145D01*
X80442866Y-54085717D01*
X80385723Y-54114288D01*
X80271437Y-54142860D01*
X80214294Y-54171431D01*
X80185723Y-54200003D01*
X80157151Y-54257145D01*
X80157151Y-54314288D01*
X80185723Y-54371431D01*
X80214294Y-54400003D01*
X80271437Y-54428574D01*
X80414294Y-54428574D01*
X80500009Y-54400003D01*
X80871437Y-54114288D02*
X80871437Y-53828574D01*
X80671437Y-54428574D02*
X80871437Y-54114288D01*
X81071437Y-54428574D01*
X81271437Y-53828574D02*
X81271437Y-54428574D01*
X81614294Y-53828574D01*
X81614294Y-54428574D01*
X82242866Y-53885717D02*
X82214294Y-53857145D01*
X82128580Y-53828574D01*
X82071437Y-53828574D01*
X81985723Y-53857145D01*
X81928580Y-53914288D01*
X81900009Y-53971431D01*
X81871437Y-54085717D01*
X81871437Y-54171431D01*
X81900009Y-54285717D01*
X81928580Y-54342860D01*
X81985723Y-54400003D01*
X82071437Y-54428574D01*
X82128580Y-54428574D01*
X82214294Y-54400003D01*
X82242866Y-54371431D01*
%TO.C,TP2*%
X82214294Y-63428581D02*
X82214294Y-64028581D01*
X82557151Y-63428581D01*
X82557151Y-64028581D01*
X83185723Y-63428581D02*
X82985723Y-63714295D01*
X82842866Y-63428581D02*
X82842866Y-64028581D01*
X83071437Y-64028581D01*
X83128580Y-64000010D01*
X83157151Y-63971438D01*
X83185723Y-63914295D01*
X83185723Y-63828581D01*
X83157151Y-63771438D01*
X83128580Y-63742867D01*
X83071437Y-63714295D01*
X82842866Y-63714295D01*
X83414294Y-63457152D02*
X83500009Y-63428581D01*
X83642866Y-63428581D01*
X83700009Y-63457152D01*
X83728580Y-63485724D01*
X83757151Y-63542867D01*
X83757151Y-63600010D01*
X83728580Y-63657152D01*
X83700009Y-63685724D01*
X83642866Y-63714295D01*
X83528580Y-63742867D01*
X83471437Y-63771438D01*
X83442866Y-63800010D01*
X83414294Y-63857152D01*
X83414294Y-63914295D01*
X83442866Y-63971438D01*
X83471437Y-64000010D01*
X83528580Y-64028581D01*
X83671437Y-64028581D01*
X83757151Y-64000010D01*
X83928580Y-64028581D02*
X84271437Y-64028581D01*
X84100009Y-63428581D02*
X84100009Y-64028581D01*
X52785711Y-68571432D02*
X52785711Y-67971432D01*
X52442854Y-68571432D01*
X52442854Y-67971432D01*
X51814282Y-68571432D02*
X52014282Y-68285718D01*
X52157139Y-68571432D02*
X52157139Y-67971432D01*
X51928568Y-67971432D01*
X51871425Y-68000004D01*
X51842854Y-68028575D01*
X51814282Y-68085718D01*
X51814282Y-68171432D01*
X51842854Y-68228575D01*
X51871425Y-68257146D01*
X51928568Y-68285718D01*
X52157139Y-68285718D01*
X51585711Y-68542861D02*
X51499997Y-68571432D01*
X51357139Y-68571432D01*
X51299997Y-68542861D01*
X51271425Y-68514289D01*
X51242854Y-68457146D01*
X51242854Y-68400004D01*
X51271425Y-68342861D01*
X51299997Y-68314289D01*
X51357139Y-68285718D01*
X51471425Y-68257146D01*
X51528568Y-68228575D01*
X51557139Y-68200004D01*
X51585711Y-68142861D01*
X51585711Y-68085718D01*
X51557139Y-68028575D01*
X51528568Y-68000004D01*
X51471425Y-67971432D01*
X51328568Y-67971432D01*
X51242854Y-68000004D01*
X51071425Y-67971432D02*
X50728568Y-67971432D01*
X50899997Y-68571432D02*
X50899997Y-67971432D01*
X82214294Y-95428595D02*
X82214294Y-96028595D01*
X82557151Y-95428595D01*
X82557151Y-96028595D01*
X83185723Y-95428595D02*
X82985723Y-95714309D01*
X82842866Y-95428595D02*
X82842866Y-96028595D01*
X83071437Y-96028595D01*
X83128580Y-96000024D01*
X83157151Y-95971452D01*
X83185723Y-95914309D01*
X83185723Y-95828595D01*
X83157151Y-95771452D01*
X83128580Y-95742881D01*
X83071437Y-95714309D01*
X82842866Y-95714309D01*
X83414294Y-95457166D02*
X83500009Y-95428595D01*
X83642866Y-95428595D01*
X83700009Y-95457166D01*
X83728580Y-95485738D01*
X83757151Y-95542881D01*
X83757151Y-95600024D01*
X83728580Y-95657166D01*
X83700009Y-95685738D01*
X83642866Y-95714309D01*
X83528580Y-95742881D01*
X83471437Y-95771452D01*
X83442866Y-95800024D01*
X83414294Y-95857166D01*
X83414294Y-95914309D01*
X83442866Y-95971452D01*
X83471437Y-96000024D01*
X83528580Y-96028595D01*
X83671437Y-96028595D01*
X83757151Y-96000024D01*
X83928580Y-96028595D02*
X84271437Y-96028595D01*
X84100009Y-95428595D02*
X84100009Y-96028595D01*
X82214294Y-79428588D02*
X82214294Y-80028588D01*
X82557151Y-79428588D01*
X82557151Y-80028588D01*
X83185723Y-79428588D02*
X82985723Y-79714302D01*
X82842866Y-79428588D02*
X82842866Y-80028588D01*
X83071437Y-80028588D01*
X83128580Y-80000017D01*
X83157151Y-79971445D01*
X83185723Y-79914302D01*
X83185723Y-79828588D01*
X83157151Y-79771445D01*
X83128580Y-79742874D01*
X83071437Y-79714302D01*
X82842866Y-79714302D01*
X83414294Y-79457159D02*
X83500009Y-79428588D01*
X83642866Y-79428588D01*
X83700009Y-79457159D01*
X83728580Y-79485731D01*
X83757151Y-79542874D01*
X83757151Y-79600017D01*
X83728580Y-79657159D01*
X83700009Y-79685731D01*
X83642866Y-79714302D01*
X83528580Y-79742874D01*
X83471437Y-79771445D01*
X83442866Y-79800017D01*
X83414294Y-79857159D01*
X83414294Y-79914302D01*
X83442866Y-79971445D01*
X83471437Y-80000017D01*
X83528580Y-80028588D01*
X83671437Y-80028588D01*
X83757151Y-80000017D01*
X83928580Y-80028588D02*
X84271437Y-80028588D01*
X84100009Y-79428588D02*
X84100009Y-80028588D01*
%TO.C,TP1*%
X54842854Y-78142868D02*
X54757139Y-78171439D01*
X54614282Y-78171439D01*
X54557139Y-78142868D01*
X54528568Y-78114296D01*
X54499997Y-78057153D01*
X54499997Y-78000011D01*
X54528568Y-77942868D01*
X54557139Y-77914296D01*
X54614282Y-77885725D01*
X54728568Y-77857153D01*
X54785711Y-77828582D01*
X54814282Y-77800011D01*
X54842854Y-77742868D01*
X54842854Y-77685725D01*
X54814282Y-77628582D01*
X54785711Y-77600011D01*
X54728568Y-77571439D01*
X54585711Y-77571439D01*
X54499997Y-77600011D01*
X54128568Y-77885725D02*
X54128568Y-78171439D01*
X54328568Y-77571439D02*
X54128568Y-77885725D01*
X53928568Y-77571439D01*
X53728568Y-78171439D02*
X53728568Y-77571439D01*
X53385711Y-78171439D01*
X53385711Y-77571439D01*
X52757139Y-78114296D02*
X52785711Y-78142868D01*
X52871425Y-78171439D01*
X52928568Y-78171439D01*
X53014282Y-78142868D01*
X53071425Y-78085725D01*
X53099997Y-78028582D01*
X53128568Y-77914296D01*
X53128568Y-77828582D01*
X53099997Y-77714296D01*
X53071425Y-77657153D01*
X53014282Y-77600011D01*
X52928568Y-77571439D01*
X52871425Y-77571439D01*
X52785711Y-77600011D01*
X52757139Y-77628582D01*
X54842854Y-46142854D02*
X54757139Y-46171425D01*
X54614282Y-46171425D01*
X54557139Y-46142854D01*
X54528568Y-46114282D01*
X54499997Y-46057139D01*
X54499997Y-45999997D01*
X54528568Y-45942854D01*
X54557139Y-45914282D01*
X54614282Y-45885711D01*
X54728568Y-45857139D01*
X54785711Y-45828568D01*
X54814282Y-45799997D01*
X54842854Y-45742854D01*
X54842854Y-45685711D01*
X54814282Y-45628568D01*
X54785711Y-45599997D01*
X54728568Y-45571425D01*
X54585711Y-45571425D01*
X54499997Y-45599997D01*
X54128568Y-45885711D02*
X54128568Y-46171425D01*
X54328568Y-45571425D02*
X54128568Y-45885711D01*
X53928568Y-45571425D01*
X53728568Y-46171425D02*
X53728568Y-45571425D01*
X53385711Y-46171425D01*
X53385711Y-45571425D01*
X52757139Y-46114282D02*
X52785711Y-46142854D01*
X52871425Y-46171425D01*
X52928568Y-46171425D01*
X53014282Y-46142854D01*
X53071425Y-46085711D01*
X53099997Y-46028568D01*
X53128568Y-45914282D01*
X53128568Y-45828568D01*
X53099997Y-45714282D01*
X53071425Y-45657139D01*
X53014282Y-45599997D01*
X52928568Y-45571425D01*
X52871425Y-45571425D01*
X52785711Y-45599997D01*
X52757139Y-45628568D01*
%TO.C,TP2*%
X52785711Y-116571453D02*
X52785711Y-115971453D01*
X52442854Y-116571453D01*
X52442854Y-115971453D01*
X51814282Y-116571453D02*
X52014282Y-116285739D01*
X52157139Y-116571453D02*
X52157139Y-115971453D01*
X51928568Y-115971453D01*
X51871425Y-116000025D01*
X51842854Y-116028596D01*
X51814282Y-116085739D01*
X51814282Y-116171453D01*
X51842854Y-116228596D01*
X51871425Y-116257167D01*
X51928568Y-116285739D01*
X52157139Y-116285739D01*
X51585711Y-116542882D02*
X51499997Y-116571453D01*
X51357139Y-116571453D01*
X51299997Y-116542882D01*
X51271425Y-116514310D01*
X51242854Y-116457167D01*
X51242854Y-116400025D01*
X51271425Y-116342882D01*
X51299997Y-116314310D01*
X51357139Y-116285739D01*
X51471425Y-116257167D01*
X51528568Y-116228596D01*
X51557139Y-116200025D01*
X51585711Y-116142882D01*
X51585711Y-116085739D01*
X51557139Y-116028596D01*
X51528568Y-116000025D01*
X51471425Y-115971453D01*
X51328568Y-115971453D01*
X51242854Y-116000025D01*
X51071425Y-115971453D02*
X50728568Y-115971453D01*
X50899997Y-116571453D02*
X50899997Y-115971453D01*
X52785711Y-100571446D02*
X52785711Y-99971446D01*
X52442854Y-100571446D01*
X52442854Y-99971446D01*
X51814282Y-100571446D02*
X52014282Y-100285732D01*
X52157139Y-100571446D02*
X52157139Y-99971446D01*
X51928568Y-99971446D01*
X51871425Y-100000018D01*
X51842854Y-100028589D01*
X51814282Y-100085732D01*
X51814282Y-100171446D01*
X51842854Y-100228589D01*
X51871425Y-100257160D01*
X51928568Y-100285732D01*
X52157139Y-100285732D01*
X51585711Y-100542875D02*
X51499997Y-100571446D01*
X51357139Y-100571446D01*
X51299997Y-100542875D01*
X51271425Y-100514303D01*
X51242854Y-100457160D01*
X51242854Y-100400018D01*
X51271425Y-100342875D01*
X51299997Y-100314303D01*
X51357139Y-100285732D01*
X51471425Y-100257160D01*
X51528568Y-100228589D01*
X51557139Y-100200018D01*
X51585711Y-100142875D01*
X51585711Y-100085732D01*
X51557139Y-100028589D01*
X51528568Y-100000018D01*
X51471425Y-99971446D01*
X51328568Y-99971446D01*
X51242854Y-100000018D01*
X51071425Y-99971446D02*
X50728568Y-99971446D01*
X50899997Y-100571446D02*
X50899997Y-99971446D01*
X82214294Y-111428602D02*
X82214294Y-112028602D01*
X82557151Y-111428602D01*
X82557151Y-112028602D01*
X83185723Y-111428602D02*
X82985723Y-111714316D01*
X82842866Y-111428602D02*
X82842866Y-112028602D01*
X83071437Y-112028602D01*
X83128580Y-112000031D01*
X83157151Y-111971459D01*
X83185723Y-111914316D01*
X83185723Y-111828602D01*
X83157151Y-111771459D01*
X83128580Y-111742888D01*
X83071437Y-111714316D01*
X82842866Y-111714316D01*
X83414294Y-111457173D02*
X83500009Y-111428602D01*
X83642866Y-111428602D01*
X83700009Y-111457173D01*
X83728580Y-111485745D01*
X83757151Y-111542888D01*
X83757151Y-111600031D01*
X83728580Y-111657173D01*
X83700009Y-111685745D01*
X83642866Y-111714316D01*
X83528580Y-111742888D01*
X83471437Y-111771459D01*
X83442866Y-111800031D01*
X83414294Y-111857173D01*
X83414294Y-111914316D01*
X83442866Y-111971459D01*
X83471437Y-112000031D01*
X83528580Y-112028602D01*
X83671437Y-112028602D01*
X83757151Y-112000031D01*
X83928580Y-112028602D02*
X84271437Y-112028602D01*
X84100009Y-111428602D02*
X84100009Y-112028602D01*
D11*
%TO.C,TP1*%
X81900009Y-100800024D02*
G75*
G03*
X81900009Y-100800024I-700000J0D01*
G01*
X81900009Y-84800017D02*
G75*
G03*
X81900009Y-84800017I-700000J0D01*
G01*
X54499997Y-95200018D02*
G75*
G03*
X54499997Y-95200018I-700000J0D01*
G01*
X54499997Y-63200004D02*
G75*
G03*
X54499997Y-63200004I-700000J0D01*
G01*
X81900009Y-68800010D02*
G75*
G03*
X81900009Y-68800010I-700000J0D01*
G01*
%TO.C,TP2*%
X52499997Y-85600011D02*
G75*
G03*
X52499997Y-85600011I-700000J0D01*
G01*
%TO.C,TP1*%
X54499997Y-111200025D02*
G75*
G03*
X54499997Y-111200025I-700000J0D01*
G01*
%TO.C,TP2*%
X83900009Y-46400003D02*
G75*
G03*
X83900009Y-46400003I-700000J0D01*
G01*
X52499997Y-53599997D02*
G75*
G03*
X52499997Y-53599997I-700000J0D01*
G01*
%TO.C,TP1*%
X81900009Y-116800031D02*
G75*
G03*
X81900009Y-116800031I-700000J0D01*
G01*
X81900009Y-52800003D02*
G75*
G03*
X81900009Y-52800003I-700000J0D01*
G01*
%TO.C,TP2*%
X83900009Y-62400010D02*
G75*
G03*
X83900009Y-62400010I-700000J0D01*
G01*
X52499997Y-69600004D02*
G75*
G03*
X52499997Y-69600004I-700000J0D01*
G01*
X83900009Y-94400024D02*
G75*
G03*
X83900009Y-94400024I-700000J0D01*
G01*
X83900009Y-78400017D02*
G75*
G03*
X83900009Y-78400017I-700000J0D01*
G01*
%TO.C,TP1*%
X54499997Y-79200011D02*
G75*
G03*
X54499997Y-79200011I-700000J0D01*
G01*
X54499997Y-47199997D02*
G75*
G03*
X54499997Y-47199997I-700000J0D01*
G01*
%TO.C,TP2*%
X52499997Y-117600025D02*
G75*
G03*
X52499997Y-117600025I-700000J0D01*
G01*
X52499997Y-101600018D02*
G75*
G03*
X52499997Y-101600018I-700000J0D01*
G01*
X83900009Y-110400031D02*
G75*
G03*
X83900009Y-110400031I-700000J0D01*
G01*
%TD*%
M02*
