G04 #@! TF.GenerationSoftware,KiCad,Pcbnew,(5.1.4-7-g8dd734fbd)*
G04 #@! TF.CreationDate,2019-08-30T10:47:23+03:00*
G04 #@! TF.ProjectId,stm32_ds2480_emu,73746d33-325f-4647-9332-3438305f656d,rev?*
G04 #@! TF.SameCoordinates,Original*
G04 #@! TF.FileFunction,Other,Fab,Top*
%FSLAX46Y46*%
G04 Gerber Fmt 4.6, Leading zero omitted, Abs format (unit mm)*
G04 Created by KiCad (PCBNEW (5.1.4-7-g8dd734fbd)) date 2019-08-30 10:47:23*
%MOMM*%
%LPD*%
G04 APERTURE LIST*
%ADD10C,0.100000*%
%ADD11C,0.150000*%
%ADD12C,0.120000*%
%ADD13C,0.080000*%
%ADD14C,0.060000*%
%ADD15C,0.075000*%
G04 APERTURE END LIST*
D10*
X122840000Y-96250000D02*
X122315000Y-95725000D01*
X128665000Y-96250000D02*
X122840000Y-96250000D01*
X128665000Y-94150000D02*
X128665000Y-96250000D01*
X122315000Y-94150000D02*
X128665000Y-94150000D01*
X122315000Y-95725000D02*
X122315000Y-94150000D01*
X114150000Y-76750000D02*
X114150000Y-74750000D01*
X115350000Y-76750000D02*
X114150000Y-76750000D01*
X115350000Y-74750000D02*
X115350000Y-76750000D01*
X114150000Y-74750000D02*
X115350000Y-74750000D01*
X120900000Y-76750000D02*
X120900000Y-74750000D01*
X122100000Y-76750000D02*
X120900000Y-76750000D01*
X122100000Y-74750000D02*
X122100000Y-76750000D01*
X120900000Y-74750000D02*
X122100000Y-74750000D01*
X120800000Y-83100000D02*
X120800000Y-84700000D01*
X120000000Y-83100000D02*
X120800000Y-83100000D01*
X120000000Y-84700000D02*
X120000000Y-83100000D01*
X120800000Y-84700000D02*
X120000000Y-84700000D01*
X129700000Y-86400000D02*
X129700000Y-84800000D01*
X130500000Y-86400000D02*
X129700000Y-86400000D01*
X130500000Y-84800000D02*
X130500000Y-86400000D01*
X129700000Y-84800000D02*
X130500000Y-84800000D01*
X114300000Y-92400000D02*
X117300000Y-92400000D01*
X117300000Y-92400000D02*
X117300000Y-94800000D01*
X117300000Y-94800000D02*
X114800000Y-94800000D01*
X114300000Y-94300000D02*
X114300000Y-92400000D01*
X114800000Y-94800000D02*
X114300000Y-94300000D01*
X124350000Y-74750000D02*
X123150000Y-74750000D01*
X124350000Y-76750000D02*
X124350000Y-74750000D01*
X123450000Y-76750000D02*
X124350000Y-76750000D01*
X123150000Y-76450000D02*
X123450000Y-76750000D01*
X123150000Y-74750000D02*
X123150000Y-76450000D01*
X126600000Y-74750000D02*
X125400000Y-74750000D01*
X126600000Y-76750000D02*
X126600000Y-74750000D01*
X125700000Y-76750000D02*
X126600000Y-76750000D01*
X125400000Y-76450000D02*
X125700000Y-76750000D01*
X125400000Y-74750000D02*
X125400000Y-76450000D01*
X133230000Y-85950000D02*
X136270000Y-85950000D01*
X133230000Y-85950000D02*
X133230000Y-84550000D01*
X136270000Y-85950000D02*
X136270000Y-84550000D01*
X133230000Y-84550000D02*
X136270000Y-84550000D01*
X134100000Y-85100000D02*
X134500000Y-85100000D01*
X134300000Y-85100000D02*
X134300000Y-84850000D01*
X134300000Y-85100000D02*
X134100000Y-85400000D01*
X134100000Y-85400000D02*
X134500000Y-85400000D01*
X134500000Y-85400000D02*
X134300000Y-85100000D01*
X134300000Y-85400000D02*
X134300000Y-85650000D01*
X119300000Y-79800000D02*
X116100000Y-79800000D01*
X119300000Y-78200000D02*
X119300000Y-79800000D01*
X116100000Y-78200000D02*
X119300000Y-78200000D01*
X116100000Y-79800000D02*
X116100000Y-78200000D01*
X112112500Y-89000000D02*
X117112500Y-89000000D01*
X112810796Y-82250000D02*
X112810796Y-88250000D01*
X112110796Y-81500000D02*
X112110796Y-89000000D01*
X117112500Y-81500000D02*
X117112500Y-89000000D01*
X112112500Y-81500000D02*
X117112500Y-81500000D01*
X117212500Y-83950000D02*
X117412500Y-83750000D01*
X117412500Y-84150000D02*
X117212500Y-83950000D01*
X117622500Y-83750000D02*
X117622500Y-84150000D01*
X117622500Y-83750000D02*
X117412500Y-83750000D01*
X117622500Y-84150000D02*
X117412500Y-84150000D01*
X132465000Y-77270000D02*
X131830000Y-76635000D01*
X136910000Y-77270000D02*
X132465000Y-77270000D01*
X136910000Y-74730000D02*
X136910000Y-77270000D01*
X131830000Y-74730000D02*
X136910000Y-74730000D01*
X131830000Y-76635000D02*
X131830000Y-74730000D01*
X130400000Y-82020000D02*
X131800000Y-82020000D01*
X131800000Y-78980000D02*
X131800000Y-82020000D01*
X130400000Y-79550000D02*
X130950000Y-78980000D01*
X130950000Y-78980000D02*
X131800000Y-78980000D01*
X130400000Y-79550000D02*
X130400000Y-82000000D01*
X132800000Y-91150000D02*
X131200000Y-91150000D01*
X132800000Y-90350000D02*
X132800000Y-91150000D01*
X131200000Y-90350000D02*
X132800000Y-90350000D01*
X131200000Y-91150000D02*
X131200000Y-90350000D01*
X123350000Y-80050000D02*
X123350000Y-78450000D01*
X124150000Y-80050000D02*
X123350000Y-80050000D01*
X124150000Y-78450000D02*
X124150000Y-80050000D01*
X123350000Y-78450000D02*
X124150000Y-78450000D01*
X125600000Y-80050000D02*
X125600000Y-78450000D01*
X126400000Y-80050000D02*
X125600000Y-80050000D01*
X126400000Y-78450000D02*
X126400000Y-80050000D01*
X125600000Y-78450000D02*
X126400000Y-78450000D01*
X130100000Y-82800000D02*
X131700000Y-82800000D01*
X130100000Y-83600000D02*
X130100000Y-82800000D01*
X131700000Y-83600000D02*
X130100000Y-83600000D01*
X131700000Y-82800000D02*
X131700000Y-83600000D01*
X122250000Y-92550000D02*
X122250000Y-88950000D01*
X128250000Y-92550000D02*
X128250000Y-88950000D01*
X128250000Y-92550000D02*
X122250000Y-92550000D01*
X128250000Y-88950000D02*
X122250000Y-88950000D01*
X126750000Y-91550000D02*
X126750000Y-89950000D01*
X123750000Y-91550000D02*
X123750000Y-89950000D01*
X126750000Y-91550000D02*
X123750000Y-91550000D01*
X126750000Y-89950000D02*
X123750000Y-89950000D01*
X127000000Y-89750000D02*
X127000000Y-91750000D01*
X123500000Y-89750000D02*
X127000000Y-89750000D01*
X123500000Y-91750000D02*
X123500000Y-89750000D01*
X127000000Y-91750000D02*
X123500000Y-91750000D01*
X119400000Y-74200000D02*
X119400000Y-77300000D01*
X119400000Y-77300000D02*
X117600000Y-77300000D01*
X117600000Y-74850000D02*
X117600000Y-77300000D01*
X119400000Y-74200000D02*
X118250000Y-74200000D01*
X117600000Y-74850000D02*
X118250000Y-74200000D01*
D11*
X127450000Y-86750000D02*
X126450000Y-87750000D01*
X127450000Y-81250000D02*
X127450000Y-86750000D01*
X123050000Y-81250000D02*
X127450000Y-81250000D01*
X123050000Y-87750000D02*
X123050000Y-81250000D01*
X126450000Y-87750000D02*
X123050000Y-87750000D01*
D10*
X141850000Y-84000000D02*
X142850000Y-84625000D01*
X142850000Y-83375000D02*
X141850000Y-84000000D01*
X142850000Y-88950000D02*
X142850000Y-81550000D01*
X137100000Y-88950000D02*
X142850000Y-88950000D01*
X137100000Y-81550000D02*
X137100000Y-88950000D01*
X142850000Y-81550000D02*
X137100000Y-81550000D01*
X133750000Y-81900000D02*
X135750000Y-81900000D01*
X133750000Y-83100000D02*
X133750000Y-81900000D01*
X135750000Y-83100000D02*
X133750000Y-83100000D01*
X135750000Y-81900000D02*
X135750000Y-83100000D01*
X135750000Y-87400000D02*
X135750000Y-88600000D01*
X135750000Y-88600000D02*
X133750000Y-88600000D01*
X133750000Y-88600000D02*
X133750000Y-87400000D01*
X133750000Y-87400000D02*
X135750000Y-87400000D01*
X135750000Y-78500000D02*
X135750000Y-79700000D01*
X135750000Y-79700000D02*
X133750000Y-79700000D01*
X133750000Y-79700000D02*
X133750000Y-78500000D01*
X133750000Y-78500000D02*
X135750000Y-78500000D01*
D11*
X125156666Y-94652380D02*
X125156666Y-95366666D01*
X125109047Y-95509523D01*
X125013809Y-95604761D01*
X124870952Y-95652380D01*
X124775714Y-95652380D01*
X126061428Y-94985714D02*
X126061428Y-95652380D01*
X125823333Y-94604761D02*
X125585238Y-95319047D01*
X126204285Y-95319047D01*
D12*
X127242857Y-79171428D02*
X127585714Y-79171428D01*
X127414285Y-79771428D02*
X127414285Y-79171428D01*
X127785714Y-79771428D02*
X127785714Y-79171428D01*
X128014285Y-79171428D01*
X128071428Y-79200000D01*
X128100000Y-79228571D01*
X128128571Y-79285714D01*
X128128571Y-79371428D01*
X128100000Y-79428571D01*
X128071428Y-79457142D01*
X128014285Y-79485714D01*
X127785714Y-79485714D01*
X128700000Y-79771428D02*
X128357142Y-79771428D01*
X128528571Y-79771428D02*
X128528571Y-79171428D01*
X128471428Y-79257142D01*
X128414285Y-79314285D01*
X128357142Y-79342857D01*
X130442857Y-94871428D02*
X130785714Y-94871428D01*
X130614285Y-95471428D02*
X130614285Y-94871428D01*
X130985714Y-95471428D02*
X130985714Y-94871428D01*
X131214285Y-94871428D01*
X131271428Y-94900000D01*
X131300000Y-94928571D01*
X131328571Y-94985714D01*
X131328571Y-95071428D01*
X131300000Y-95128571D01*
X131271428Y-95157142D01*
X131214285Y-95185714D01*
X130985714Y-95185714D01*
X131557142Y-94928571D02*
X131585714Y-94900000D01*
X131642857Y-94871428D01*
X131785714Y-94871428D01*
X131842857Y-94900000D01*
X131871428Y-94928571D01*
X131900000Y-94985714D01*
X131900000Y-95042857D01*
X131871428Y-95128571D01*
X131528571Y-95471428D01*
X131900000Y-95471428D01*
D13*
X114928571Y-75833333D02*
X114952380Y-75857142D01*
X114976190Y-75928571D01*
X114976190Y-75976190D01*
X114952380Y-76047619D01*
X114904761Y-76095238D01*
X114857142Y-76119047D01*
X114761904Y-76142857D01*
X114690476Y-76142857D01*
X114595238Y-76119047D01*
X114547619Y-76095238D01*
X114500000Y-76047619D01*
X114476190Y-75976190D01*
X114476190Y-75928571D01*
X114500000Y-75857142D01*
X114523809Y-75833333D01*
X114976190Y-75357142D02*
X114976190Y-75642857D01*
X114976190Y-75500000D02*
X114476190Y-75500000D01*
X114547619Y-75547619D01*
X114595238Y-75595238D01*
X114619047Y-75642857D01*
X121678571Y-75833333D02*
X121702380Y-75857142D01*
X121726190Y-75928571D01*
X121726190Y-75976190D01*
X121702380Y-76047619D01*
X121654761Y-76095238D01*
X121607142Y-76119047D01*
X121511904Y-76142857D01*
X121440476Y-76142857D01*
X121345238Y-76119047D01*
X121297619Y-76095238D01*
X121250000Y-76047619D01*
X121226190Y-75976190D01*
X121226190Y-75928571D01*
X121250000Y-75857142D01*
X121273809Y-75833333D01*
X121273809Y-75642857D02*
X121250000Y-75619047D01*
X121226190Y-75571428D01*
X121226190Y-75452380D01*
X121250000Y-75404761D01*
X121273809Y-75380952D01*
X121321428Y-75357142D01*
X121369047Y-75357142D01*
X121440476Y-75380952D01*
X121726190Y-75666666D01*
X121726190Y-75357142D01*
D14*
X120542857Y-83966666D02*
X120561904Y-83985714D01*
X120580952Y-84042857D01*
X120580952Y-84080952D01*
X120561904Y-84138095D01*
X120523809Y-84176190D01*
X120485714Y-84195238D01*
X120409523Y-84214285D01*
X120352380Y-84214285D01*
X120276190Y-84195238D01*
X120238095Y-84176190D01*
X120200000Y-84138095D01*
X120180952Y-84080952D01*
X120180952Y-84042857D01*
X120200000Y-83985714D01*
X120219047Y-83966666D01*
X120180952Y-83833333D02*
X120180952Y-83585714D01*
X120333333Y-83719047D01*
X120333333Y-83661904D01*
X120352380Y-83623809D01*
X120371428Y-83604761D01*
X120409523Y-83585714D01*
X120504761Y-83585714D01*
X120542857Y-83604761D01*
X120561904Y-83623809D01*
X120580952Y-83661904D01*
X120580952Y-83776190D01*
X120561904Y-83814285D01*
X120542857Y-83833333D01*
X130242857Y-85666666D02*
X130261904Y-85685714D01*
X130280952Y-85742857D01*
X130280952Y-85780952D01*
X130261904Y-85838095D01*
X130223809Y-85876190D01*
X130185714Y-85895238D01*
X130109523Y-85914285D01*
X130052380Y-85914285D01*
X129976190Y-85895238D01*
X129938095Y-85876190D01*
X129900000Y-85838095D01*
X129880952Y-85780952D01*
X129880952Y-85742857D01*
X129900000Y-85685714D01*
X129919047Y-85666666D01*
X130014285Y-85323809D02*
X130280952Y-85323809D01*
X129861904Y-85419047D02*
X130147619Y-85514285D01*
X130147619Y-85266666D01*
D15*
X115430952Y-93826190D02*
X115430952Y-93326190D01*
X115550000Y-93326190D01*
X115621428Y-93350000D01*
X115669047Y-93397619D01*
X115692857Y-93445238D01*
X115716666Y-93540476D01*
X115716666Y-93611904D01*
X115692857Y-93707142D01*
X115669047Y-93754761D01*
X115621428Y-93802380D01*
X115550000Y-93826190D01*
X115430952Y-93826190D01*
X116145238Y-93492857D02*
X116145238Y-93826190D01*
X116026190Y-93302380D02*
X115907142Y-93659523D01*
X116216666Y-93659523D01*
D13*
X123976190Y-76119047D02*
X123476190Y-76119047D01*
X123476190Y-76000000D01*
X123500000Y-75928571D01*
X123547619Y-75880952D01*
X123595238Y-75857142D01*
X123690476Y-75833333D01*
X123761904Y-75833333D01*
X123857142Y-75857142D01*
X123904761Y-75880952D01*
X123952380Y-75928571D01*
X123976190Y-76000000D01*
X123976190Y-76119047D01*
X123976190Y-75357142D02*
X123976190Y-75642857D01*
X123976190Y-75500000D02*
X123476190Y-75500000D01*
X123547619Y-75547619D01*
X123595238Y-75595238D01*
X123619047Y-75642857D01*
X126226190Y-76119047D02*
X125726190Y-76119047D01*
X125726190Y-76000000D01*
X125750000Y-75928571D01*
X125797619Y-75880952D01*
X125845238Y-75857142D01*
X125940476Y-75833333D01*
X126011904Y-75833333D01*
X126107142Y-75857142D01*
X126154761Y-75880952D01*
X126202380Y-75928571D01*
X126226190Y-76000000D01*
X126226190Y-76119047D01*
X125773809Y-75642857D02*
X125750000Y-75619047D01*
X125726190Y-75571428D01*
X125726190Y-75452380D01*
X125750000Y-75404761D01*
X125773809Y-75380952D01*
X125821428Y-75357142D01*
X125869047Y-75357142D01*
X125940476Y-75380952D01*
X126226190Y-75666666D01*
X126226190Y-75357142D01*
D12*
X135082141Y-85496429D02*
X135082141Y-84896429D01*
X135224999Y-84896429D01*
X135310713Y-84925001D01*
X135367856Y-84982143D01*
X135396427Y-85039286D01*
X135424999Y-85153572D01*
X135424999Y-85239286D01*
X135396427Y-85353572D01*
X135367856Y-85410715D01*
X135310713Y-85467858D01*
X135224999Y-85496429D01*
X135082141Y-85496429D01*
X135624999Y-84896429D02*
X135996427Y-84896429D01*
X135796427Y-85125001D01*
X135882141Y-85125001D01*
X135939284Y-85153572D01*
X135967856Y-85182143D01*
X135996427Y-85239286D01*
X135996427Y-85382143D01*
X135967856Y-85439286D01*
X135939284Y-85467858D01*
X135882141Y-85496429D01*
X135710713Y-85496429D01*
X135653570Y-85467858D01*
X135624999Y-85439286D01*
X117433333Y-78942857D02*
X117166666Y-78942857D01*
X117166666Y-79361904D02*
X117166666Y-78561904D01*
X117547619Y-78561904D01*
X118271428Y-79361904D02*
X117814285Y-79361904D01*
X118042857Y-79361904D02*
X118042857Y-78561904D01*
X117966666Y-78676190D01*
X117890476Y-78752380D01*
X117814285Y-78790476D01*
D11*
X114064880Y-85583333D02*
X114779166Y-85583333D01*
X114922023Y-85630952D01*
X115017261Y-85726190D01*
X115064880Y-85869047D01*
X115064880Y-85964285D01*
X114064880Y-85202380D02*
X114064880Y-84583333D01*
X114445833Y-84916666D01*
X114445833Y-84773809D01*
X114493452Y-84678571D01*
X114541071Y-84630952D01*
X114636309Y-84583333D01*
X114874404Y-84583333D01*
X114969642Y-84630952D01*
X115017261Y-84678571D01*
X115064880Y-84773809D01*
X115064880Y-85059523D01*
X115017261Y-85154761D01*
X114969642Y-85202380D01*
X134036666Y-75452380D02*
X134036666Y-76166666D01*
X133989047Y-76309523D01*
X133893809Y-76404761D01*
X133750952Y-76452380D01*
X133655714Y-76452380D01*
X135036666Y-76452380D02*
X134465238Y-76452380D01*
X134750952Y-76452380D02*
X134750952Y-75452380D01*
X134655714Y-75595238D01*
X134560476Y-75690476D01*
X134465238Y-75738095D01*
D15*
X131373809Y-80547619D02*
X131350000Y-80595238D01*
X131302380Y-80642857D01*
X131230952Y-80714285D01*
X131207142Y-80761904D01*
X131207142Y-80809523D01*
X131326190Y-80785714D02*
X131302380Y-80833333D01*
X131254761Y-80880952D01*
X131159523Y-80904761D01*
X130992857Y-80904761D01*
X130897619Y-80880952D01*
X130850000Y-80833333D01*
X130826190Y-80785714D01*
X130826190Y-80690476D01*
X130850000Y-80642857D01*
X130897619Y-80595238D01*
X130992857Y-80571428D01*
X131159523Y-80571428D01*
X131254761Y-80595238D01*
X131302380Y-80642857D01*
X131326190Y-80690476D01*
X131326190Y-80785714D01*
X131326190Y-80095238D02*
X131326190Y-80380952D01*
X131326190Y-80238095D02*
X130826190Y-80238095D01*
X130897619Y-80285714D01*
X130945238Y-80333333D01*
X130969047Y-80380952D01*
D14*
X131933333Y-90930952D02*
X131800000Y-90740476D01*
X131704761Y-90930952D02*
X131704761Y-90530952D01*
X131857142Y-90530952D01*
X131895238Y-90550000D01*
X131914285Y-90569047D01*
X131933333Y-90607142D01*
X131933333Y-90664285D01*
X131914285Y-90702380D01*
X131895238Y-90721428D01*
X131857142Y-90740476D01*
X131704761Y-90740476D01*
X132066666Y-90530952D02*
X132333333Y-90530952D01*
X132161904Y-90930952D01*
X123930952Y-79316666D02*
X123740476Y-79450000D01*
X123930952Y-79545238D02*
X123530952Y-79545238D01*
X123530952Y-79392857D01*
X123550000Y-79354761D01*
X123569047Y-79335714D01*
X123607142Y-79316666D01*
X123664285Y-79316666D01*
X123702380Y-79335714D01*
X123721428Y-79354761D01*
X123740476Y-79392857D01*
X123740476Y-79545238D01*
X123569047Y-79164285D02*
X123550000Y-79145238D01*
X123530952Y-79107142D01*
X123530952Y-79011904D01*
X123550000Y-78973809D01*
X123569047Y-78954761D01*
X123607142Y-78935714D01*
X123645238Y-78935714D01*
X123702380Y-78954761D01*
X123930952Y-79183333D01*
X123930952Y-78935714D01*
X126180952Y-79316666D02*
X125990476Y-79450000D01*
X126180952Y-79545238D02*
X125780952Y-79545238D01*
X125780952Y-79392857D01*
X125800000Y-79354761D01*
X125819047Y-79335714D01*
X125857142Y-79316666D01*
X125914285Y-79316666D01*
X125952380Y-79335714D01*
X125971428Y-79354761D01*
X125990476Y-79392857D01*
X125990476Y-79545238D01*
X125780952Y-79183333D02*
X125780952Y-78935714D01*
X125933333Y-79069047D01*
X125933333Y-79011904D01*
X125952380Y-78973809D01*
X125971428Y-78954761D01*
X126009523Y-78935714D01*
X126104761Y-78935714D01*
X126142857Y-78954761D01*
X126161904Y-78973809D01*
X126180952Y-79011904D01*
X126180952Y-79126190D01*
X126161904Y-79164285D01*
X126142857Y-79183333D01*
X130833333Y-83380952D02*
X130700000Y-83190476D01*
X130604761Y-83380952D02*
X130604761Y-82980952D01*
X130757142Y-82980952D01*
X130795238Y-83000000D01*
X130814285Y-83019047D01*
X130833333Y-83057142D01*
X130833333Y-83114285D01*
X130814285Y-83152380D01*
X130795238Y-83171428D01*
X130757142Y-83190476D01*
X130604761Y-83190476D01*
X131195238Y-82980952D02*
X131004761Y-82980952D01*
X130985714Y-83171428D01*
X131004761Y-83152380D01*
X131042857Y-83133333D01*
X131138095Y-83133333D01*
X131176190Y-83152380D01*
X131195238Y-83171428D01*
X131214285Y-83209523D01*
X131214285Y-83304761D01*
X131195238Y-83342857D01*
X131176190Y-83361904D01*
X131138095Y-83380952D01*
X131042857Y-83380952D01*
X131004761Y-83361904D01*
X130985714Y-83342857D01*
D13*
X124583333Y-90952380D02*
X124654761Y-90976190D01*
X124773809Y-90976190D01*
X124821428Y-90952380D01*
X124845238Y-90928571D01*
X124869047Y-90880952D01*
X124869047Y-90833333D01*
X124845238Y-90785714D01*
X124821428Y-90761904D01*
X124773809Y-90738095D01*
X124678571Y-90714285D01*
X124630952Y-90690476D01*
X124607142Y-90666666D01*
X124583333Y-90619047D01*
X124583333Y-90571428D01*
X124607142Y-90523809D01*
X124630952Y-90500000D01*
X124678571Y-90476190D01*
X124797619Y-90476190D01*
X124869047Y-90500000D01*
X125035714Y-90476190D02*
X125154761Y-90976190D01*
X125250000Y-90619047D01*
X125345238Y-90976190D01*
X125464285Y-90476190D01*
X125916666Y-90976190D02*
X125630952Y-90976190D01*
X125773809Y-90976190D02*
X125773809Y-90476190D01*
X125726190Y-90547619D01*
X125678571Y-90595238D01*
X125630952Y-90619047D01*
D15*
X118226190Y-76130952D02*
X118630952Y-76130952D01*
X118678571Y-76107142D01*
X118702380Y-76083333D01*
X118726190Y-76035714D01*
X118726190Y-75940476D01*
X118702380Y-75892857D01*
X118678571Y-75869047D01*
X118630952Y-75845238D01*
X118226190Y-75845238D01*
X118726190Y-75345238D02*
X118726190Y-75630952D01*
X118726190Y-75488095D02*
X118226190Y-75488095D01*
X118297619Y-75535714D01*
X118345238Y-75583333D01*
X118369047Y-75630952D01*
D11*
X124640476Y-84061904D02*
X124640476Y-84709523D01*
X124678571Y-84785714D01*
X124716666Y-84823809D01*
X124792857Y-84861904D01*
X124945238Y-84861904D01*
X125021428Y-84823809D01*
X125059523Y-84785714D01*
X125097619Y-84709523D01*
X125097619Y-84061904D01*
X125440476Y-84138095D02*
X125478571Y-84100000D01*
X125554761Y-84061904D01*
X125745238Y-84061904D01*
X125821428Y-84100000D01*
X125859523Y-84138095D01*
X125897619Y-84214285D01*
X125897619Y-84290476D01*
X125859523Y-84404761D01*
X125402380Y-84861904D01*
X125897619Y-84861904D01*
X139952380Y-85583333D02*
X140666666Y-85583333D01*
X140809523Y-85630952D01*
X140904761Y-85726190D01*
X140952380Y-85869047D01*
X140952380Y-85964285D01*
X140047619Y-85154761D02*
X140000000Y-85107142D01*
X139952380Y-85011904D01*
X139952380Y-84773809D01*
X140000000Y-84678571D01*
X140047619Y-84630952D01*
X140142857Y-84583333D01*
X140238095Y-84583333D01*
X140380952Y-84630952D01*
X140952380Y-85202380D01*
X140952380Y-84583333D01*
D13*
X134666666Y-82726190D02*
X134500000Y-82488095D01*
X134380952Y-82726190D02*
X134380952Y-82226190D01*
X134571428Y-82226190D01*
X134619047Y-82250000D01*
X134642857Y-82273809D01*
X134666666Y-82321428D01*
X134666666Y-82392857D01*
X134642857Y-82440476D01*
X134619047Y-82464285D01*
X134571428Y-82488095D01*
X134380952Y-82488095D01*
X135095238Y-82392857D02*
X135095238Y-82726190D01*
X134976190Y-82202380D02*
X134857142Y-82559523D01*
X135166666Y-82559523D01*
X134666666Y-88226190D02*
X134500000Y-87988095D01*
X134380952Y-88226190D02*
X134380952Y-87726190D01*
X134571428Y-87726190D01*
X134619047Y-87750000D01*
X134642857Y-87773809D01*
X134666666Y-87821428D01*
X134666666Y-87892857D01*
X134642857Y-87940476D01*
X134619047Y-87964285D01*
X134571428Y-87988095D01*
X134380952Y-87988095D01*
X135095238Y-87726190D02*
X135000000Y-87726190D01*
X134952380Y-87750000D01*
X134928571Y-87773809D01*
X134880952Y-87845238D01*
X134857142Y-87940476D01*
X134857142Y-88130952D01*
X134880952Y-88178571D01*
X134904761Y-88202380D01*
X134952380Y-88226190D01*
X135047619Y-88226190D01*
X135095238Y-88202380D01*
X135119047Y-88178571D01*
X135142857Y-88130952D01*
X135142857Y-88011904D01*
X135119047Y-87964285D01*
X135095238Y-87940476D01*
X135047619Y-87916666D01*
X134952380Y-87916666D01*
X134904761Y-87940476D01*
X134880952Y-87964285D01*
X134857142Y-88011904D01*
X134666666Y-79326190D02*
X134500000Y-79088095D01*
X134380952Y-79326190D02*
X134380952Y-78826190D01*
X134571428Y-78826190D01*
X134619047Y-78850000D01*
X134642857Y-78873809D01*
X134666666Y-78921428D01*
X134666666Y-78992857D01*
X134642857Y-79040476D01*
X134619047Y-79064285D01*
X134571428Y-79088095D01*
X134380952Y-79088095D01*
X135142857Y-79326190D02*
X134857142Y-79326190D01*
X135000000Y-79326190D02*
X135000000Y-78826190D01*
X134952380Y-78897619D01*
X134904761Y-78945238D01*
X134857142Y-78969047D01*
M02*
