%TF.GenerationSoftware,KiCad,Pcbnew,(5.99.0-10613-g4d227d2d2b)*%
%TF.CreationDate,2021-05-26T08:20:36+03:00*%
%TF.ProjectId,stm32_ds2480_emu_panel,73746d33-325f-4647-9332-3438305f656d,rev?*%
%TF.SameCoordinates,Original*%
%TF.FileFunction,Profile,NP*%
%FSLAX46Y46*%
G04 Gerber Fmt 4.6, Leading zero omitted, Abs format (unit mm)*
G04 Created by KiCad (PCBNEW (5.99.0-10613-g4d227d2d2b)) date 2021-05-26 08:20:36*
%MOMM*%
%LPD*%
G01*
G04 APERTURE LIST*
%TA.AperFunction,Profile*%
%ADD10C,0.100000*%
%TD*%
G04 APERTURE END LIST*
D10*
X47510000Y-89000000D02*
X47610000Y-89010000D01*
X68460000Y-47800000D02*
X68420000Y-47890000D01*
X51520000Y-73800000D02*
X51540000Y-73700000D01*
X33600000Y-104590000D02*
X33640000Y-104650000D01*
X66790000Y-112210000D02*
X66730000Y-112140000D01*
X68330000Y-51940000D02*
X68380000Y-52020000D01*
X66520000Y-111700000D02*
X66510000Y-111610000D01*
X48500000Y-106110000D02*
X48480000Y-106200000D01*
X86620000Y-73520000D02*
X86670000Y-73440000D01*
X68720000Y-43240000D02*
X68690000Y-43280000D01*
X66450000Y-88480000D02*
X66460000Y-88440000D01*
X86860000Y-105230000D02*
X86940000Y-105170000D01*
X31870000Y-64280000D02*
X31800000Y-64210000D01*
X101440000Y-91490000D02*
X101420000Y-91450000D01*
X68500000Y-120240000D02*
X68500000Y-120280000D01*
X69300000Y-75000000D02*
X69260000Y-75000000D01*
X66790000Y-48210000D02*
X66730000Y-48140000D01*
X68620000Y-91370000D02*
X68600000Y-91410000D01*
X67110000Y-64420000D02*
X67020000Y-64380000D01*
X87490000Y-107000000D02*
X87390000Y-106990000D01*
X68060000Y-96330000D02*
X67980000Y-96380000D01*
X66940000Y-51670000D02*
X67020000Y-51620000D01*
X68480000Y-84300000D02*
X68490000Y-84390000D01*
X48420000Y-73610000D02*
X48460000Y-73700000D01*
X86940000Y-58830000D02*
X86860000Y-58770000D01*
X34220000Y-107000000D02*
X34180000Y-107010000D01*
X102880000Y-112420000D02*
X102790000Y-112460000D01*
X34020000Y-91050000D02*
X33980000Y-91060000D01*
X101480000Y-88390000D02*
X101490000Y-88330000D01*
X69100000Y-104980000D02*
X69140000Y-104980000D01*
X52490000Y-43000000D02*
X52390000Y-42990000D01*
X69100000Y-43020000D02*
X69060000Y-43040000D01*
X33500000Y-104290000D02*
X33510000Y-104350000D01*
X101490000Y-107650000D02*
X101480000Y-107600000D01*
X33210000Y-112210000D02*
X33140000Y-112280000D01*
X86500000Y-57990000D02*
X86500000Y-57890000D01*
X66860000Y-112280000D02*
X66790000Y-112210000D01*
X65700000Y-43000000D02*
X52490000Y-43000000D01*
X66670000Y-51940000D02*
X66730000Y-51860000D01*
X31550000Y-52200000D02*
X31590000Y-52110000D01*
X32800000Y-99540000D02*
X32890000Y-99580000D01*
X48140000Y-90770000D02*
X48060000Y-90830000D01*
X82610000Y-73010000D02*
X82700000Y-73020000D01*
X86860000Y-73230000D02*
X86940000Y-73170000D01*
X31630000Y-116020000D02*
X31680000Y-115940000D01*
X101580000Y-68110000D02*
X101620000Y-68020000D01*
X103370000Y-84020000D02*
X103410000Y-84110000D01*
X33920000Y-56900000D02*
X33980000Y-56930000D01*
X48380000Y-122490000D02*
X48330000Y-122570000D01*
X102200000Y-48460000D02*
X102110000Y-48420000D01*
X101860000Y-67720000D02*
X101940000Y-67670000D01*
X33770000Y-43200000D02*
X33720000Y-43240000D01*
X33140000Y-115720000D02*
X33210000Y-115790000D01*
X87300000Y-89020000D02*
X87390000Y-89010000D01*
X83210000Y-73290000D02*
X83280000Y-73360000D01*
X68740000Y-72780000D02*
X68780000Y-72810000D01*
X48060000Y-58830000D02*
X47980000Y-58880000D01*
X34020000Y-72950000D02*
X34060000Y-72960000D01*
X103260000Y-48140000D02*
X103200000Y-48210000D01*
X34300000Y-89000000D02*
X47510000Y-89000000D01*
X87110000Y-74920000D02*
X87020000Y-74880000D01*
X102200000Y-96460000D02*
X102110000Y-96420000D01*
X102390000Y-51500000D02*
X102500000Y-51500000D01*
X33660000Y-43310000D02*
X33620000Y-43370000D01*
X31800000Y-41280000D02*
X31870000Y-41220000D01*
X48480000Y-41790000D02*
X48500000Y-41880000D01*
X68600000Y-120590000D02*
X68620000Y-120630000D01*
X102600000Y-48500000D02*
X102490000Y-48500000D01*
X66510000Y-63610000D02*
X66500000Y-63510000D01*
X66450000Y-104480000D02*
X66460000Y-104440000D01*
X101860000Y-48280000D02*
X101790000Y-48210000D01*
X32890000Y-48420000D02*
X32800000Y-48460000D01*
X101420000Y-91450000D02*
X101400000Y-91410000D01*
X83330000Y-90560000D02*
X83280000Y-90640000D01*
X83060000Y-89170000D02*
X83140000Y-89230000D01*
X32210000Y-51540000D02*
X32310000Y-51520000D01*
X33500000Y-75720000D02*
X33500000Y-75760000D01*
X101510000Y-79610000D02*
X101500000Y-79510000D01*
X33770000Y-107200000D02*
X33720000Y-107240000D01*
X32890000Y-80420000D02*
X32800000Y-80460000D01*
X31520000Y-47610000D02*
X31510000Y-47510000D01*
X86620000Y-122490000D02*
X86580000Y-122400000D01*
X33140000Y-67720000D02*
X33210000Y-67790000D01*
X68330000Y-115940000D02*
X68380000Y-116020000D01*
X101670000Y-112060000D02*
X101620000Y-111980000D01*
X87110000Y-73080000D02*
X87200000Y-73040000D01*
X102690000Y-99520000D02*
X102790000Y-99540000D01*
X68600000Y-59410000D02*
X68580000Y-59450000D01*
X51940000Y-73170000D02*
X52020000Y-73120000D01*
X67300000Y-99520000D02*
X67390000Y-99500000D01*
X82890000Y-90920000D02*
X82800000Y-90960000D01*
X101160000Y-43140000D02*
X101120000Y-43120000D01*
X101580000Y-116110000D02*
X101620000Y-116020000D01*
X66010000Y-88940000D02*
X66050000Y-88920000D01*
X67390000Y-51500000D02*
X67510000Y-51500000D01*
X47510000Y-105000000D02*
X47610000Y-105010000D01*
X68540000Y-107560000D02*
X68520000Y-107610000D01*
X100940000Y-56960000D02*
X100980000Y-56950000D01*
X101490000Y-75650000D02*
X101480000Y-75600000D01*
X102970000Y-48380000D02*
X102880000Y-48420000D01*
X101510000Y-68390000D02*
X101520000Y-68300000D01*
X66940000Y-96330000D02*
X66860000Y-96280000D01*
X32800000Y-115540000D02*
X32890000Y-115580000D01*
X66500000Y-75800000D02*
X66500000Y-75750000D01*
X48140000Y-58770000D02*
X48060000Y-58830000D01*
X48280000Y-89360000D02*
X48330000Y-89440000D01*
X31510000Y-41980000D02*
X31520000Y-41880000D01*
X31550000Y-47800000D02*
X31530000Y-47700000D01*
X103320000Y-96060000D02*
X103260000Y-96140000D01*
X47610000Y-123000000D02*
X47510000Y-123010000D01*
X47890000Y-42920000D02*
X47800000Y-42960000D01*
X65740000Y-73000000D02*
X65780000Y-73000000D01*
X52020000Y-90880000D02*
X51940000Y-90830000D01*
X66460000Y-107550000D02*
X66440000Y-107490000D01*
X65820000Y-59010000D02*
X65780000Y-59000000D01*
X51790000Y-106710000D02*
X51720000Y-106640000D01*
X32030000Y-80380000D02*
X31950000Y-80330000D01*
X83480000Y-105800000D02*
X83500000Y-105890000D01*
X47510000Y-43000000D02*
X34300000Y-43000000D01*
X51860000Y-73230000D02*
X51940000Y-73170000D01*
X100700000Y-75000000D02*
X87490000Y-75000000D01*
X101940000Y-115670000D02*
X102020000Y-115620000D01*
X68490000Y-63610000D02*
X68480000Y-63700000D01*
X82510000Y-105000000D02*
X82610000Y-105010000D01*
X103200000Y-115790000D02*
X103260000Y-115860000D01*
X100860000Y-120980000D02*
X100900000Y-120980000D01*
X101310000Y-88720000D02*
X101340000Y-88690000D01*
X102600000Y-67500000D02*
X102690000Y-67520000D01*
X101450000Y-72480000D02*
X101460000Y-72440000D01*
X86790000Y-57290000D02*
X86860000Y-57230000D01*
X26500000Y-127990000D02*
X26500000Y-128010000D01*
X68670000Y-75310000D02*
X68640000Y-75350000D01*
X66150000Y-88860000D02*
X66190000Y-88830000D01*
X65700000Y-121000000D02*
X65740000Y-121000000D01*
X69170000Y-56990000D02*
X69230000Y-57000000D01*
X69230000Y-73000000D02*
X69300000Y-73000000D01*
X47510000Y-121000000D02*
X47610000Y-121010000D01*
X101490000Y-43690000D02*
X101480000Y-43640000D01*
X67200000Y-83540000D02*
X67300000Y-83520000D01*
X32500000Y-83500000D02*
X32610000Y-83500000D01*
X33500000Y-52490000D02*
X33500000Y-56200000D01*
X52390000Y-90990000D02*
X52300000Y-90980000D01*
X103130000Y-67720000D02*
X103200000Y-67790000D01*
X33210000Y-67790000D02*
X33270000Y-67860000D01*
X48460000Y-41690000D02*
X48480000Y-41790000D01*
X68950000Y-43080000D02*
X68910000Y-43100000D01*
X66730000Y-115860000D02*
X66790000Y-115790000D01*
X33140000Y-83720000D02*
X33210000Y-83790000D01*
X69060000Y-43040000D02*
X68990000Y-43060000D01*
X66500000Y-104280000D02*
X66500000Y-104240000D01*
X101330000Y-107310000D02*
X101300000Y-107270000D01*
X101420000Y-107450000D02*
X101400000Y-107410000D01*
X33460000Y-52200000D02*
X33480000Y-52300000D01*
X102300000Y-80480000D02*
X102200000Y-80460000D01*
X32120000Y-41070000D02*
X32210000Y-41030000D01*
X48060000Y-74830000D02*
X47980000Y-74880000D01*
X68520000Y-88390000D02*
X68540000Y-88440000D01*
X68700000Y-72730000D02*
X68740000Y-72780000D01*
X103470000Y-79700000D02*
X103450000Y-79800000D01*
X83060000Y-105170000D02*
X83140000Y-105230000D01*
X86670000Y-42560000D02*
X86620000Y-42480000D01*
X101790000Y-83790000D02*
X101860000Y-83720000D01*
X83280000Y-74640000D02*
X83210000Y-74710000D01*
X66220000Y-120810000D02*
X66250000Y-120780000D01*
X47700000Y-122990000D02*
X47610000Y-123000000D01*
X67610000Y-99500000D02*
X67700000Y-99520000D01*
X101940000Y-112330000D02*
X101860000Y-112280000D01*
X33580000Y-88550000D02*
X33600000Y-88590000D01*
X33690000Y-59280000D02*
X33660000Y-59310000D01*
X86500000Y-58110000D02*
X86500000Y-57990000D01*
X33640000Y-56650000D02*
X33670000Y-56690000D01*
X102500000Y-64500000D02*
X102390000Y-64500000D01*
X103490000Y-122020000D02*
X103480000Y-122120000D01*
X51540000Y-74300000D02*
X51520000Y-74200000D01*
X33840000Y-56850000D02*
X33880000Y-56880000D01*
X102110000Y-99580000D02*
X102200000Y-99540000D01*
X83500000Y-105990000D02*
X83500000Y-106110000D01*
X66500000Y-107800000D02*
X66500000Y-107760000D01*
X33460000Y-63800000D02*
X33420000Y-63890000D01*
X33640000Y-88650000D02*
X33670000Y-88690000D01*
X87110000Y-58920000D02*
X87020000Y-58880000D01*
X102200000Y-112460000D02*
X102110000Y-112420000D01*
X87110000Y-57080000D02*
X87200000Y-57040000D01*
X66460000Y-56450000D02*
X66480000Y-56400000D01*
X51720000Y-121360000D02*
X51790000Y-121290000D01*
X101580000Y-79890000D02*
X101540000Y-79800000D01*
X103130000Y-48280000D02*
X103050000Y-48330000D01*
X33540000Y-75560000D02*
X33520000Y-75610000D01*
X102690000Y-115520000D02*
X102790000Y-115540000D01*
X66430000Y-59480000D02*
X66400000Y-59420000D01*
X66090000Y-43100000D02*
X66050000Y-43080000D01*
X66440000Y-107490000D02*
X66420000Y-107450000D01*
X48380000Y-57520000D02*
X48420000Y-57610000D01*
X69220000Y-121000000D02*
X69260000Y-121000000D01*
X31950000Y-80330000D02*
X31870000Y-80280000D01*
X32400000Y-80500000D02*
X32310000Y-80480000D01*
X68380000Y-79980000D02*
X68330000Y-80060000D01*
X82610000Y-42990000D02*
X82510000Y-43000000D01*
X47510000Y-40990000D02*
X47610000Y-41000000D01*
X100740000Y-121000000D02*
X100780000Y-121000000D01*
X67700000Y-115520000D02*
X67800000Y-115540000D01*
X101540000Y-47800000D02*
X101520000Y-47700000D01*
X65900000Y-88980000D02*
X65940000Y-88960000D01*
X83460000Y-41690000D02*
X83480000Y-41790000D01*
X67490000Y-67500000D02*
X67610000Y-67500000D01*
X34170000Y-56990000D02*
X34230000Y-57000000D01*
X100780000Y-89000000D02*
X100820000Y-88990000D01*
X102110000Y-112420000D02*
X102020000Y-112380000D01*
X68620000Y-104630000D02*
X68660000Y-104690000D01*
X102790000Y-83540000D02*
X102880000Y-83580000D01*
X101580000Y-52110000D02*
X101620000Y-52020000D01*
X66580000Y-47890000D02*
X66540000Y-47800000D01*
X66620000Y-111980000D02*
X66580000Y-111890000D01*
X52110000Y-74920000D02*
X52020000Y-74880000D01*
X31680000Y-64060000D02*
X31630000Y-63980000D01*
X68550000Y-59520000D02*
X68540000Y-59560000D01*
X102200000Y-80460000D02*
X102110000Y-80420000D01*
X66400000Y-56590000D02*
X66420000Y-56550000D01*
X32500000Y-67500000D02*
X32610000Y-67500000D01*
X31800000Y-96210000D02*
X31740000Y-96140000D01*
X82700000Y-90980000D02*
X82610000Y-90990000D01*
X68500000Y-95510000D02*
X68490000Y-95610000D01*
X66510000Y-84390000D02*
X66520000Y-84300000D01*
X82890000Y-41070000D02*
X82980000Y-41110000D01*
X101120000Y-104880000D02*
X101160000Y-104860000D01*
X48460000Y-42300000D02*
X48420000Y-42390000D01*
X68270000Y-67860000D02*
X68330000Y-67940000D01*
X68620000Y-43370000D02*
X68600000Y-43410000D01*
X33500000Y-104240000D02*
X33500000Y-104290000D01*
X65940000Y-91040000D02*
X65900000Y-91020000D01*
X68510000Y-59670000D02*
X68500000Y-59720000D01*
X33660000Y-75310000D02*
X33620000Y-75370000D01*
X101190000Y-56830000D02*
X101230000Y-56800000D01*
X103050000Y-64330000D02*
X102970000Y-64380000D01*
X31510000Y-47510000D02*
X31510000Y-41980000D01*
X69300000Y-105000000D02*
X82510000Y-105000000D01*
X66190000Y-104840000D02*
X66220000Y-104810000D01*
X32510000Y-115500000D02*
X32610000Y-115500000D01*
X69220000Y-91000000D02*
X69180000Y-91010000D01*
X51860000Y-121230000D02*
X51940000Y-121170000D01*
X82610000Y-105010000D02*
X82700000Y-105020000D01*
X101360000Y-59350000D02*
X101330000Y-59310000D01*
X86500000Y-90110000D02*
X86500000Y-89990000D01*
X66500000Y-104200000D02*
X66500000Y-100490000D01*
X33940000Y-107080000D02*
X33880000Y-107120000D01*
X33500000Y-107720000D02*
X33500000Y-107760000D01*
X102790000Y-67540000D02*
X102880000Y-67580000D01*
X86860000Y-89230000D02*
X86940000Y-89170000D01*
X34060000Y-43040000D02*
X33990000Y-43060000D01*
X101400000Y-59410000D02*
X101360000Y-59350000D01*
X33510000Y-88350000D02*
X33520000Y-88400000D01*
X83140000Y-57230000D02*
X83210000Y-57290000D01*
X101450000Y-120480000D02*
X101460000Y-120440000D01*
X69220000Y-89000000D02*
X69260000Y-89000000D01*
X52200000Y-121040000D02*
X52300000Y-121020000D01*
X51580000Y-42390000D02*
X51540000Y-42300000D01*
X31950000Y-83670000D02*
X32030000Y-83620000D01*
X33500000Y-104200000D02*
X33500000Y-104240000D01*
X69100000Y-59020000D02*
X69060000Y-59040000D01*
X52110000Y-58920000D02*
X52020000Y-58880000D01*
X68330000Y-64060000D02*
X68270000Y-64140000D01*
X101160000Y-72860000D02*
X101190000Y-72830000D01*
X31800000Y-80210000D02*
X31740000Y-80140000D01*
X66480000Y-56400000D02*
X66490000Y-56350000D01*
X31550000Y-79800000D02*
X31530000Y-79700000D01*
X33980000Y-88930000D02*
X34020000Y-88950000D01*
X67700000Y-96480000D02*
X67610000Y-96500000D01*
X69100000Y-88980000D02*
X69140000Y-88980000D01*
X82980000Y-41110000D02*
X83060000Y-41160000D01*
X102020000Y-48380000D02*
X101940000Y-48330000D01*
X101480000Y-72390000D02*
X101490000Y-72330000D01*
X82800000Y-90960000D02*
X82700000Y-90980000D01*
X33490000Y-52390000D02*
X33500000Y-52490000D01*
X32310000Y-67520000D02*
X32400000Y-67500000D01*
X83480000Y-74200000D02*
X83460000Y-74300000D01*
X67890000Y-96420000D02*
X67800000Y-96460000D01*
X33480000Y-111700000D02*
X33460000Y-111800000D01*
X66730000Y-83860000D02*
X66790000Y-83790000D01*
X83420000Y-122400000D02*
X83380000Y-122490000D01*
X68550000Y-120480000D02*
X68580000Y-120550000D01*
X32700000Y-67520000D02*
X32800000Y-67540000D01*
X101420000Y-88550000D02*
X101450000Y-88480000D01*
X87020000Y-105120000D02*
X87110000Y-105080000D01*
X48060000Y-42830000D02*
X47980000Y-42880000D01*
X68380000Y-111980000D02*
X68330000Y-112060000D01*
X67020000Y-67620000D02*
X67110000Y-67580000D01*
X51500000Y-73990000D02*
X51500000Y-73890000D01*
X68420000Y-52110000D02*
X68460000Y-52200000D01*
X86670000Y-106560000D02*
X86620000Y-106480000D01*
X83210000Y-42710000D02*
X83140000Y-42770000D01*
X86940000Y-121170000D02*
X87020000Y-121120000D01*
X66480000Y-104390000D02*
X66490000Y-104330000D01*
X66790000Y-96210000D02*
X66730000Y-96140000D01*
X51620000Y-89520000D02*
X51670000Y-89440000D01*
X48280000Y-42640000D02*
X48210000Y-42710000D01*
X66540000Y-84200000D02*
X66580000Y-84110000D01*
X100900000Y-88980000D02*
X100940000Y-88960000D01*
X34100000Y-72980000D02*
X34170000Y-72990000D01*
X34180000Y-59010000D02*
X34140000Y-59020000D01*
X83330000Y-42560000D02*
X83280000Y-42640000D01*
X102020000Y-96380000D02*
X101940000Y-96330000D01*
X32980000Y-83620000D02*
X33060000Y-83670000D01*
X83140000Y-89230000D02*
X83210000Y-89290000D01*
X67200000Y-96460000D02*
X67110000Y-96420000D01*
X31950000Y-96330000D02*
X31870000Y-96280000D01*
X101450000Y-104480000D02*
X101460000Y-104440000D01*
X66450000Y-59520000D02*
X66430000Y-59480000D01*
X100770000Y-43000000D02*
X100700000Y-43000000D01*
X32700000Y-112480000D02*
X32610000Y-112500000D01*
X66200000Y-59170000D02*
X66160000Y-59140000D01*
X103050000Y-99670000D02*
X103130000Y-99720000D01*
X87300000Y-58980000D02*
X87200000Y-58960000D01*
X68500000Y-91800000D02*
X68500000Y-95510000D01*
X102690000Y-80480000D02*
X102600000Y-80500000D01*
X33140000Y-99720000D02*
X33210000Y-99790000D01*
X33500000Y-56290000D02*
X33510000Y-56350000D01*
X33600000Y-88590000D02*
X33640000Y-88650000D01*
X86500000Y-42010000D02*
X86500000Y-41980000D01*
X101310000Y-43280000D02*
X101280000Y-43250000D01*
X33210000Y-80210000D02*
X33140000Y-80280000D01*
X31630000Y-41510000D02*
X31680000Y-41430000D01*
X102690000Y-48480000D02*
X102600000Y-48500000D01*
X67200000Y-64460000D02*
X67110000Y-64420000D01*
X68060000Y-64330000D02*
X67980000Y-64380000D01*
X33550000Y-91520000D02*
X33540000Y-91560000D01*
X33520000Y-104400000D02*
X33540000Y-104450000D01*
X83380000Y-41510000D02*
X83420000Y-41600000D01*
X33060000Y-64330000D02*
X32980000Y-64380000D01*
X33540000Y-107560000D02*
X33520000Y-107610000D01*
X51500000Y-73890000D02*
X51520000Y-73800000D01*
X82700000Y-41010000D02*
X82800000Y-41030000D01*
X48420000Y-58390000D02*
X48380000Y-58480000D01*
X101730000Y-48140000D02*
X101670000Y-48060000D01*
X32980000Y-48380000D02*
X32890000Y-48420000D01*
X47510000Y-59000000D02*
X34300000Y-59000000D01*
X31740000Y-112140000D02*
X31680000Y-112060000D01*
X33810000Y-91170000D02*
X33770000Y-91200000D01*
X68500000Y-107720000D02*
X68500000Y-107760000D01*
X100740000Y-105000000D02*
X100780000Y-105000000D01*
X67020000Y-51620000D02*
X67110000Y-51580000D01*
X66400000Y-72590000D02*
X66420000Y-72550000D01*
X33460000Y-111800000D02*
X33420000Y-111890000D01*
X101420000Y-59450000D02*
X101400000Y-59410000D01*
X83460000Y-105700000D02*
X83480000Y-105800000D01*
X32890000Y-115580000D02*
X32980000Y-115620000D01*
X66730000Y-64140000D02*
X66670000Y-64060000D01*
X68500000Y-72200000D02*
X68500000Y-72240000D01*
X83420000Y-74390000D02*
X83380000Y-74480000D01*
X31740000Y-80140000D02*
X31680000Y-80060000D01*
X26500000Y-128010000D02*
X26500000Y-128020000D01*
X32890000Y-112420000D02*
X32800000Y-112460000D01*
X101790000Y-80210000D02*
X101730000Y-80140000D01*
X68670000Y-72690000D02*
X68700000Y-72730000D01*
X68600000Y-43410000D02*
X68580000Y-43450000D01*
X68270000Y-99860000D02*
X68330000Y-99940000D01*
X33750000Y-104780000D02*
X33780000Y-104810000D01*
X33690000Y-120720000D02*
X33720000Y-120750000D01*
X86580000Y-42390000D02*
X86540000Y-42300000D01*
X33580000Y-104550000D02*
X33600000Y-104590000D01*
X101540000Y-116200000D02*
X101580000Y-116110000D01*
X100700000Y-43000000D02*
X87490000Y-43000000D01*
X66500000Y-91720000D02*
X66490000Y-91670000D01*
X68500000Y-56290000D02*
X68510000Y-56350000D01*
X102690000Y-41010000D02*
X102790000Y-41030000D01*
X103410000Y-47890000D02*
X103370000Y-47980000D01*
X87020000Y-41110000D02*
X87110000Y-41070000D01*
X33520000Y-107610000D02*
X33510000Y-107670000D01*
X32500000Y-64500000D02*
X32400000Y-64500000D01*
X102600000Y-41000000D02*
X102690000Y-41010000D01*
X33270000Y-99860000D02*
X33330000Y-99940000D01*
X67700000Y-83520000D02*
X67800000Y-83540000D01*
X68420000Y-84110000D02*
X68460000Y-84200000D01*
X102790000Y-80460000D02*
X102690000Y-80480000D01*
X31680000Y-41430000D02*
X31740000Y-41350000D01*
X31590000Y-79890000D02*
X31550000Y-79800000D01*
X102020000Y-112380000D02*
X101940000Y-112330000D01*
X103200000Y-41280000D02*
X103260000Y-41350000D01*
X48060000Y-57170000D02*
X48140000Y-57230000D01*
X47700000Y-74980000D02*
X47610000Y-74990000D01*
X103450000Y-41690000D02*
X103470000Y-41790000D01*
X26500000Y-36010000D02*
X26500000Y-127990000D01*
X66500000Y-116490000D02*
X66510000Y-116390000D01*
X65820000Y-88990000D02*
X65860000Y-88980000D01*
X69300000Y-91000000D02*
X69260000Y-91000000D01*
X68480000Y-79700000D02*
X68460000Y-79800000D01*
X83330000Y-58560000D02*
X83280000Y-58640000D01*
X102500000Y-83500000D02*
X102600000Y-83500000D01*
X86720000Y-42640000D02*
X86670000Y-42560000D01*
X68910000Y-43100000D02*
X68850000Y-43140000D01*
X83500000Y-42110000D02*
X83480000Y-42200000D01*
X83460000Y-121700000D02*
X83480000Y-121800000D01*
X34220000Y-75000000D02*
X34180000Y-75010000D01*
X103130000Y-112280000D02*
X103050000Y-112330000D01*
X66940000Y-80330000D02*
X66860000Y-80280000D01*
X101510000Y-95610000D02*
X101500000Y-95510000D01*
X48480000Y-105800000D02*
X48500000Y-105890000D01*
X33490000Y-63610000D02*
X33480000Y-63700000D01*
X101860000Y-80280000D02*
X101790000Y-80210000D01*
X101540000Y-52200000D02*
X101580000Y-52110000D01*
X32610000Y-83500000D02*
X32700000Y-83520000D01*
X101250000Y-91220000D02*
X101220000Y-91190000D01*
X52300000Y-74980000D02*
X52200000Y-74960000D01*
X66490000Y-72350000D02*
X66500000Y-72290000D01*
X34060000Y-107040000D02*
X34020000Y-107050000D01*
X68520000Y-104390000D02*
X68540000Y-104440000D01*
X102970000Y-96380000D02*
X102880000Y-96420000D01*
X101510000Y-47610000D02*
X101500000Y-47510000D01*
X66500000Y-59720000D02*
X66490000Y-59670000D01*
X65890000Y-104980000D02*
X65940000Y-104960000D01*
X26510000Y-128020000D02*
X26530000Y-128020000D01*
X103450000Y-47800000D02*
X103410000Y-47890000D01*
X51670000Y-41430000D02*
X51720000Y-41350000D01*
X102500000Y-40990000D02*
X102600000Y-41000000D01*
X83330000Y-74560000D02*
X83280000Y-74640000D01*
X33060000Y-99670000D02*
X33140000Y-99720000D01*
X65940000Y-56960000D02*
X65980000Y-56950000D01*
X48500000Y-121890000D02*
X48500000Y-121990000D01*
X47980000Y-41110000D02*
X48060000Y-41160000D01*
X66080000Y-56900000D02*
X66120000Y-56880000D01*
X66280000Y-75250000D02*
X66250000Y-75220000D01*
X48500000Y-41980000D02*
X48500000Y-42010000D01*
X87390000Y-89010000D02*
X87490000Y-89000000D01*
X69300000Y-43000000D02*
X69260000Y-43000000D01*
X103200000Y-64210000D02*
X103130000Y-64280000D01*
X66420000Y-43450000D02*
X66400000Y-43410000D01*
X33950000Y-43080000D02*
X33910000Y-43100000D01*
X32500000Y-99500000D02*
X32610000Y-99500000D01*
X67800000Y-80460000D02*
X67700000Y-80480000D01*
X33500000Y-47510000D02*
X33490000Y-47610000D01*
X67800000Y-67540000D02*
X67890000Y-67580000D01*
X101510000Y-116390000D02*
X101520000Y-116300000D01*
X48460000Y-58300000D02*
X48420000Y-58390000D01*
X86860000Y-74770000D02*
X86790000Y-74710000D01*
X103320000Y-48060000D02*
X103260000Y-48140000D01*
X83280000Y-41350000D02*
X83330000Y-41430000D01*
X51670000Y-122570000D02*
X51620000Y-122490000D01*
X82700000Y-42980000D02*
X82610000Y-42990000D01*
X32980000Y-80380000D02*
X32890000Y-80420000D01*
X33810000Y-75170000D02*
X33770000Y-75200000D01*
X34220000Y-59000000D02*
X34180000Y-59010000D01*
X51500000Y-58010000D02*
X51500000Y-57890000D01*
X66580000Y-100110000D02*
X66620000Y-100020000D01*
X65850000Y-72990000D02*
X65910000Y-72970000D01*
X31530000Y-47700000D02*
X31520000Y-47610000D01*
X101460000Y-56440000D02*
X101480000Y-56390000D01*
X86720000Y-89360000D02*
X86790000Y-89290000D01*
X83330000Y-121440000D02*
X83380000Y-121520000D01*
X33940000Y-75080000D02*
X33880000Y-75120000D01*
X67980000Y-83620000D02*
X68060000Y-83670000D01*
X32890000Y-99580000D02*
X32980000Y-99620000D01*
X103370000Y-122490000D02*
X103320000Y-122570000D01*
X86500000Y-42110000D02*
X86500000Y-42010000D01*
X102390000Y-99500000D02*
X102500000Y-99500000D01*
X101300000Y-59270000D02*
X101250000Y-59220000D01*
X47510000Y-57000000D02*
X47610000Y-57010000D01*
X51500000Y-105990000D02*
X51500000Y-105890000D01*
X68910000Y-120900000D02*
X68950000Y-120920000D01*
X33140000Y-51720000D02*
X33210000Y-51790000D01*
X101160000Y-59150000D02*
X101120000Y-59120000D01*
X67980000Y-67620000D02*
X68060000Y-67670000D01*
X31530000Y-79700000D02*
X31520000Y-79610000D01*
X83500000Y-90110000D02*
X83480000Y-90200000D01*
X82890000Y-73080000D02*
X82980000Y-73120000D01*
X86790000Y-58710000D02*
X86720000Y-58640000D01*
X101360000Y-107350000D02*
X101330000Y-107310000D01*
X101160000Y-104860000D02*
X101190000Y-104830000D01*
X101500000Y-104280000D02*
X101500000Y-104240000D01*
X103130000Y-64280000D02*
X103050000Y-64330000D01*
X33600000Y-91410000D02*
X33580000Y-91450000D01*
X68700000Y-75270000D02*
X68670000Y-75310000D01*
X103050000Y-41160000D02*
X103130000Y-41220000D01*
X86790000Y-106710000D02*
X86720000Y-106640000D01*
X100700000Y-91000000D02*
X87490000Y-91000000D01*
X67390000Y-64500000D02*
X67300000Y-64480000D01*
X51500000Y-57890000D02*
X51520000Y-57800000D01*
X67980000Y-51620000D02*
X68060000Y-51670000D01*
X33330000Y-80060000D02*
X33270000Y-80140000D01*
X66620000Y-52020000D02*
X66670000Y-51940000D01*
X33500000Y-43800000D02*
X33500000Y-47510000D01*
X101540000Y-95800000D02*
X101520000Y-95700000D01*
X101440000Y-59490000D02*
X101420000Y-59450000D01*
X51500000Y-89990000D02*
X51500000Y-89890000D01*
X101500000Y-104200000D02*
X101500000Y-100490000D01*
X101580000Y-63890000D02*
X101540000Y-63800000D01*
X47700000Y-89020000D02*
X47800000Y-89040000D01*
X66380000Y-120620000D02*
X66400000Y-120580000D01*
X68990000Y-120940000D02*
X69060000Y-120960000D01*
X68330000Y-99940000D02*
X68380000Y-100020000D01*
X67510000Y-51500000D02*
X67610000Y-51500000D01*
X101400000Y-56590000D02*
X101420000Y-56550000D01*
X32310000Y-83520000D02*
X32400000Y-83500000D01*
X51620000Y-58480000D02*
X51580000Y-58390000D01*
X83210000Y-105290000D02*
X83280000Y-105360000D01*
X83420000Y-105610000D02*
X83460000Y-105700000D01*
X101220000Y-91190000D02*
X101160000Y-91150000D01*
X48210000Y-90710000D02*
X48140000Y-90770000D01*
X101620000Y-100020000D02*
X101670000Y-99940000D01*
X66420000Y-91450000D02*
X66400000Y-91410000D01*
X34260000Y-107000000D02*
X34220000Y-107000000D01*
X65780000Y-91000000D02*
X65740000Y-91000000D01*
X101080000Y-59100000D02*
X101020000Y-59070000D01*
X33060000Y-115670000D02*
X33140000Y-115720000D01*
X68060000Y-99670000D02*
X68140000Y-99720000D01*
X33540000Y-91560000D02*
X33520000Y-91610000D01*
X51720000Y-106640000D02*
X51670000Y-106560000D01*
X65980000Y-56950000D02*
X66020000Y-56930000D01*
X31800000Y-83790000D02*
X31870000Y-83720000D01*
X67110000Y-80420000D02*
X67020000Y-80380000D01*
X83500000Y-90010000D02*
X83500000Y-90110000D01*
X68950000Y-88920000D02*
X68990000Y-88940000D01*
X66470000Y-75590000D02*
X66450000Y-75530000D01*
X31680000Y-115940000D02*
X31740000Y-115860000D01*
X48140000Y-121230000D02*
X48210000Y-121290000D01*
X67510000Y-112500000D02*
X67390000Y-112500000D01*
X66520000Y-63700000D02*
X66510000Y-63610000D01*
X82890000Y-74920000D02*
X82800000Y-74960000D01*
X31520000Y-95610000D02*
X31510000Y-95510000D01*
X52110000Y-106920000D02*
X52020000Y-106880000D01*
X33500000Y-116490000D02*
X33500000Y-120200000D01*
X32030000Y-83620000D02*
X32120000Y-83580000D01*
X51790000Y-73290000D02*
X51860000Y-73230000D01*
X87020000Y-121120000D02*
X87110000Y-121080000D01*
X32500000Y-112500000D02*
X32400000Y-112500000D01*
X66330000Y-104700000D02*
X66360000Y-104660000D01*
X101500000Y-56280000D02*
X101500000Y-56240000D01*
X65940000Y-59040000D02*
X65900000Y-59020000D01*
X87020000Y-73120000D02*
X87110000Y-73080000D01*
X33500000Y-120250000D02*
X33510000Y-120320000D01*
X67890000Y-64420000D02*
X67800000Y-64460000D01*
X66300000Y-72730000D02*
X66330000Y-72690000D01*
X32310000Y-112480000D02*
X32210000Y-112460000D01*
X67020000Y-99620000D02*
X67110000Y-99580000D01*
X47700000Y-73020000D02*
X47800000Y-73040000D01*
X33330000Y-48060000D02*
X33270000Y-48140000D01*
X66510000Y-116390000D02*
X66520000Y-116300000D01*
X103490000Y-100490000D02*
X103490000Y-111510000D01*
X47800000Y-74960000D02*
X47700000Y-74980000D01*
X48420000Y-105610000D02*
X48460000Y-105700000D01*
X33640000Y-72650000D02*
X33670000Y-72690000D01*
X66510000Y-111610000D02*
X66500000Y-111510000D01*
X33880000Y-120880000D02*
X33940000Y-120920000D01*
X68690000Y-88720000D02*
X68720000Y-88760000D01*
X101670000Y-80060000D02*
X101620000Y-79980000D01*
X33540000Y-59560000D02*
X33520000Y-59610000D01*
X68490000Y-95610000D02*
X68480000Y-95700000D01*
X31870000Y-41220000D02*
X31950000Y-41160000D01*
X86620000Y-105520000D02*
X86670000Y-105440000D01*
X66330000Y-107310000D02*
X66300000Y-107270000D01*
X86580000Y-74390000D02*
X86540000Y-74300000D01*
X66120000Y-75120000D02*
X66060000Y-75080000D01*
X66250000Y-104780000D02*
X66280000Y-104750000D01*
X86500000Y-121890000D02*
X86520000Y-121800000D01*
X66090000Y-120900000D02*
X66130000Y-120880000D01*
X102790000Y-51540000D02*
X102880000Y-51580000D01*
X101500000Y-75710000D02*
X101490000Y-75650000D01*
X52490000Y-107000000D02*
X52390000Y-106990000D01*
X67980000Y-64380000D02*
X67890000Y-64420000D01*
X101120000Y-56880000D02*
X101160000Y-56860000D01*
X83280000Y-58640000D02*
X83210000Y-58710000D01*
X33660000Y-107310000D02*
X33620000Y-107370000D01*
X66300000Y-107270000D02*
X66250000Y-107220000D01*
X32800000Y-67540000D02*
X32890000Y-67580000D01*
X33920000Y-72900000D02*
X33980000Y-72930000D01*
X69300000Y-59000000D02*
X69260000Y-59000000D01*
X83480000Y-122210000D02*
X83460000Y-122310000D01*
X68540000Y-88440000D02*
X68550000Y-88480000D01*
X32210000Y-112460000D02*
X32120000Y-112420000D01*
X68770000Y-59200000D02*
X68720000Y-59240000D01*
X68460000Y-95800000D02*
X68420000Y-95890000D01*
X48380000Y-58480000D02*
X48330000Y-58560000D01*
X51860000Y-106770000D02*
X51790000Y-106710000D01*
X101450000Y-88480000D02*
X101460000Y-88440000D01*
X86620000Y-58480000D02*
X86580000Y-58390000D01*
X68700000Y-56730000D02*
X68740000Y-56780000D01*
X33380000Y-63980000D02*
X33330000Y-64060000D01*
X32210000Y-96460000D02*
X32120000Y-96420000D01*
X68500000Y-59720000D02*
X68500000Y-59760000D01*
X67800000Y-99540000D02*
X67890000Y-99580000D01*
X31550000Y-68200000D02*
X31590000Y-68110000D01*
X68950000Y-120920000D02*
X68990000Y-120940000D01*
X101490000Y-120350000D02*
X101500000Y-120290000D01*
X82800000Y-73040000D02*
X82890000Y-73080000D01*
X48280000Y-58640000D02*
X48210000Y-58710000D01*
X51670000Y-106560000D02*
X51620000Y-106480000D01*
X68540000Y-43560000D02*
X68520000Y-43610000D01*
X67890000Y-112420000D02*
X67800000Y-112460000D01*
X51940000Y-90830000D02*
X51860000Y-90770000D01*
X101190000Y-88830000D02*
X101230000Y-88800000D01*
X101480000Y-43640000D02*
X101470000Y-43590000D01*
X66380000Y-75380000D02*
X66350000Y-75340000D01*
X33510000Y-43670000D02*
X33500000Y-43720000D01*
X33980000Y-59060000D02*
X33940000Y-59080000D01*
X48460000Y-105700000D02*
X48480000Y-105800000D01*
X66520000Y-47700000D02*
X66510000Y-47610000D01*
X103050000Y-83670000D02*
X103130000Y-83720000D01*
X103260000Y-115860000D02*
X103320000Y-115940000D01*
X68510000Y-107670000D02*
X68500000Y-107720000D01*
X101380000Y-56630000D02*
X101400000Y-56590000D01*
X32610000Y-67500000D02*
X32700000Y-67520000D01*
X33640000Y-104650000D02*
X33670000Y-104690000D01*
X66540000Y-79800000D02*
X66520000Y-79700000D01*
X101790000Y-67790000D02*
X101860000Y-67720000D01*
X103470000Y-116300000D02*
X103480000Y-116390000D01*
X101460000Y-72440000D02*
X101480000Y-72390000D01*
X47890000Y-121080000D02*
X47980000Y-121120000D01*
X33520000Y-56400000D02*
X33540000Y-56450000D01*
X66050000Y-91080000D02*
X66010000Y-91060000D01*
X87200000Y-73040000D02*
X87300000Y-73020000D01*
X86940000Y-122840000D02*
X86860000Y-122780000D01*
X82890000Y-89080000D02*
X82980000Y-89120000D01*
X65830000Y-107010000D02*
X65770000Y-107000000D01*
X82980000Y-74880000D02*
X82890000Y-74920000D01*
X101500000Y-120290000D02*
X101500000Y-120240000D01*
X83280000Y-90640000D02*
X83210000Y-90710000D01*
X66480000Y-88390000D02*
X66490000Y-88330000D01*
X68940000Y-59080000D02*
X68880000Y-59120000D01*
X68140000Y-115720000D02*
X68210000Y-115790000D01*
X52390000Y-121010000D02*
X52490000Y-121000000D01*
X82980000Y-42880000D02*
X82890000Y-42920000D01*
X83380000Y-90480000D02*
X83330000Y-90560000D01*
X65970000Y-75050000D02*
X65900000Y-75020000D01*
X68270000Y-51860000D02*
X68330000Y-51940000D01*
X101080000Y-75100000D02*
X101020000Y-75070000D01*
X26530000Y-128020000D02*
X108470000Y-128020000D01*
X34230000Y-57000000D02*
X34300000Y-57000000D01*
X67110000Y-115580000D02*
X67200000Y-115540000D01*
X33720000Y-107240000D02*
X33690000Y-107280000D01*
X67890000Y-48420000D02*
X67800000Y-48460000D01*
X32500000Y-96500000D02*
X32400000Y-96500000D01*
X68810000Y-104830000D02*
X68850000Y-104860000D01*
X67700000Y-80480000D02*
X67610000Y-80500000D01*
X32210000Y-41030000D02*
X32310000Y-41010000D01*
X103480000Y-68390000D02*
X103490000Y-68490000D01*
X68500000Y-43760000D02*
X68500000Y-43800000D01*
X83380000Y-42480000D02*
X83330000Y-42560000D01*
X31530000Y-52300000D02*
X31550000Y-52200000D01*
X68550000Y-43520000D02*
X68540000Y-43560000D01*
X65890000Y-120980000D02*
X65940000Y-120960000D01*
X47510000Y-73000000D02*
X47610000Y-73010000D01*
X83500000Y-74110000D02*
X83480000Y-74200000D01*
X65940000Y-120960000D02*
X65980000Y-120950000D01*
X31800000Y-51790000D02*
X31870000Y-51720000D01*
X51790000Y-74710000D02*
X51720000Y-74640000D01*
X82800000Y-106960000D02*
X82700000Y-106980000D01*
X103470000Y-84300000D02*
X103480000Y-84390000D01*
X31800000Y-64210000D02*
X31740000Y-64140000D01*
X68950000Y-56920000D02*
X69020000Y-56950000D01*
X66400000Y-120580000D02*
X66430000Y-120520000D01*
X103410000Y-111890000D02*
X103370000Y-111980000D01*
X32030000Y-64380000D02*
X31950000Y-64330000D01*
X103410000Y-84110000D02*
X103450000Y-84200000D01*
X66020000Y-56930000D02*
X66080000Y-56900000D01*
X48210000Y-105290000D02*
X48280000Y-105360000D01*
X87300000Y-73020000D02*
X87390000Y-73010000D01*
X31510000Y-68490000D02*
X31520000Y-68390000D01*
X52200000Y-89040000D02*
X52300000Y-89020000D01*
X66310000Y-88720000D02*
X66340000Y-88690000D01*
X66580000Y-95890000D02*
X66540000Y-95800000D01*
X68990000Y-91060000D02*
X68950000Y-91080000D01*
X65770000Y-107000000D02*
X65700000Y-107000000D01*
X103050000Y-80330000D02*
X102970000Y-80380000D01*
X51620000Y-90480000D02*
X51580000Y-90390000D01*
X83280000Y-73360000D02*
X83330000Y-73440000D01*
X68600000Y-88590000D02*
X68620000Y-88630000D01*
X68480000Y-68300000D02*
X68490000Y-68390000D01*
X87300000Y-90980000D02*
X87200000Y-90960000D01*
X103260000Y-41350000D02*
X103320000Y-41430000D01*
X101420000Y-72550000D02*
X101450000Y-72480000D01*
X48380000Y-121520000D02*
X48420000Y-121610000D01*
X68500000Y-43800000D02*
X68500000Y-47510000D01*
X66080000Y-107100000D02*
X66020000Y-107070000D01*
X33720000Y-59240000D02*
X33690000Y-59280000D01*
X48500000Y-57890000D02*
X48500000Y-58010000D01*
X101730000Y-99860000D02*
X101790000Y-99790000D01*
X47800000Y-89040000D02*
X47890000Y-89080000D01*
X47890000Y-105080000D02*
X47980000Y-105120000D01*
X66340000Y-91310000D02*
X66310000Y-91280000D01*
X101300000Y-75270000D02*
X101250000Y-75220000D01*
X67980000Y-112380000D02*
X67890000Y-112420000D01*
X68880000Y-59120000D02*
X68840000Y-59140000D01*
X65790000Y-121000000D02*
X65850000Y-120990000D01*
X68910000Y-88900000D02*
X68950000Y-88920000D01*
X52020000Y-122890000D02*
X51940000Y-122840000D01*
X33670000Y-72690000D02*
X33700000Y-72730000D01*
X100770000Y-107000000D02*
X100700000Y-107000000D01*
X68550000Y-104480000D02*
X68580000Y-104550000D01*
X34230000Y-121000000D02*
X34300000Y-121000000D01*
X66130000Y-104880000D02*
X66190000Y-104840000D01*
X33500000Y-63510000D02*
X33490000Y-63610000D01*
X67490000Y-48500000D02*
X67390000Y-48500000D01*
X33500000Y-91800000D02*
X33500000Y-95510000D01*
X66130000Y-72880000D02*
X66190000Y-72840000D01*
X31950000Y-115670000D02*
X32030000Y-115620000D01*
X52300000Y-90980000D02*
X52200000Y-90960000D01*
X33980000Y-72930000D02*
X34020000Y-72950000D01*
X66150000Y-43140000D02*
X66090000Y-43100000D01*
X68810000Y-120830000D02*
X68850000Y-120860000D01*
X48140000Y-57230000D02*
X48210000Y-57290000D01*
X52020000Y-57120000D02*
X52110000Y-57080000D01*
X86520000Y-74200000D02*
X86500000Y-74110000D01*
X67020000Y-48380000D02*
X66940000Y-48330000D01*
X47510000Y-75000000D02*
X34300000Y-75000000D01*
X83280000Y-42640000D02*
X83210000Y-42710000D01*
X69140000Y-59020000D02*
X69100000Y-59020000D01*
X102300000Y-51520000D02*
X102390000Y-51500000D01*
X82610000Y-106990000D02*
X82510000Y-107000000D01*
X33480000Y-116300000D02*
X33490000Y-116390000D01*
X103320000Y-112060000D02*
X103260000Y-112140000D01*
X102880000Y-48420000D02*
X102790000Y-48460000D01*
X32700000Y-51520000D02*
X32800000Y-51540000D01*
X68810000Y-59170000D02*
X68770000Y-59200000D01*
X86720000Y-57360000D02*
X86790000Y-57290000D01*
X33510000Y-72350000D02*
X33520000Y-72400000D01*
X67390000Y-112500000D02*
X67300000Y-112480000D01*
X67890000Y-51580000D02*
X67980000Y-51620000D01*
X48060000Y-73170000D02*
X48140000Y-73230000D01*
X66790000Y-64210000D02*
X66730000Y-64140000D01*
X51790000Y-41280000D02*
X51860000Y-41220000D01*
X32890000Y-96420000D02*
X32800000Y-96460000D01*
X34140000Y-107020000D02*
X34100000Y-107020000D01*
X83380000Y-58480000D02*
X83330000Y-58560000D01*
X51500000Y-74110000D02*
X51500000Y-73990000D01*
X101060000Y-72920000D02*
X101120000Y-72880000D01*
X69220000Y-105000000D02*
X69260000Y-105000000D01*
X31590000Y-63890000D02*
X31550000Y-63800000D01*
X101670000Y-51940000D02*
X101730000Y-51860000D01*
X83280000Y-89360000D02*
X83330000Y-89440000D01*
X48210000Y-57290000D02*
X48280000Y-57360000D01*
X66940000Y-67670000D02*
X67020000Y-67620000D01*
X101440000Y-75490000D02*
X101420000Y-75450000D01*
X67800000Y-112460000D02*
X67700000Y-112480000D01*
X66790000Y-67790000D02*
X66860000Y-67720000D01*
X48480000Y-106200000D02*
X48460000Y-106300000D01*
X66730000Y-48140000D02*
X66670000Y-48060000D01*
X101790000Y-64210000D02*
X101730000Y-64140000D01*
X68380000Y-116020000D02*
X68420000Y-116110000D01*
X101500000Y-47510000D02*
X101500000Y-43800000D01*
X68510000Y-104330000D02*
X68520000Y-104390000D01*
X31590000Y-122400000D02*
X31550000Y-122310000D01*
X100820000Y-72990000D02*
X100860000Y-72980000D01*
X86790000Y-73290000D02*
X86860000Y-73230000D01*
X83210000Y-41280000D02*
X83280000Y-41350000D01*
X103450000Y-100200000D02*
X103470000Y-100300000D01*
X67800000Y-48460000D02*
X67700000Y-48480000D01*
X87020000Y-57120000D02*
X87110000Y-57080000D01*
X68380000Y-63980000D02*
X68330000Y-64060000D01*
X66450000Y-43520000D02*
X66420000Y-43450000D01*
X68330000Y-83940000D02*
X68380000Y-84020000D01*
X51500000Y-90110000D02*
X51500000Y-89990000D01*
X66670000Y-64060000D02*
X66620000Y-63980000D01*
X33500000Y-75760000D02*
X33500000Y-75800000D01*
X83500000Y-41980000D02*
X83500000Y-42010000D01*
X68480000Y-111700000D02*
X68460000Y-111800000D01*
X31550000Y-84200000D02*
X31590000Y-84110000D01*
X66540000Y-116200000D02*
X66580000Y-116110000D01*
X101500000Y-79510000D02*
X101500000Y-75800000D01*
X69180000Y-59010000D02*
X69140000Y-59020000D01*
X101440000Y-107490000D02*
X101420000Y-107450000D01*
X101460000Y-107550000D02*
X101440000Y-107490000D01*
X103480000Y-52390000D02*
X103490000Y-52490000D01*
X101060000Y-104920000D02*
X101120000Y-104880000D01*
X101380000Y-104630000D02*
X101400000Y-104590000D01*
X31630000Y-84020000D02*
X31680000Y-83940000D01*
X68140000Y-96280000D02*
X68060000Y-96330000D01*
X100940000Y-120960000D02*
X100980000Y-120950000D01*
X32310000Y-48480000D02*
X32210000Y-48460000D01*
X103490000Y-52490000D02*
X103490000Y-63510000D01*
X68460000Y-111800000D02*
X68420000Y-111890000D01*
X103470000Y-63700000D02*
X103450000Y-63800000D01*
X101490000Y-72330000D02*
X101500000Y-72280000D01*
X83060000Y-73170000D02*
X83140000Y-73230000D01*
X102970000Y-112380000D02*
X102880000Y-112420000D01*
X51670000Y-42560000D02*
X51620000Y-42480000D01*
X108500000Y-127990000D02*
X108500000Y-36010000D01*
X86720000Y-105360000D02*
X86790000Y-105290000D01*
X65940000Y-88960000D02*
X66010000Y-88940000D01*
X48210000Y-89290000D02*
X48280000Y-89360000D01*
X68910000Y-72900000D02*
X68950000Y-72920000D01*
X87020000Y-90880000D02*
X86940000Y-90830000D01*
X31680000Y-112060000D02*
X31630000Y-111980000D01*
X51580000Y-122400000D02*
X51540000Y-122310000D01*
X69060000Y-104960000D02*
X69100000Y-104980000D01*
X32890000Y-83580000D02*
X32980000Y-83620000D01*
X87110000Y-89080000D02*
X87200000Y-89040000D01*
X67610000Y-112500000D02*
X67510000Y-112500000D01*
X51940000Y-57170000D02*
X52020000Y-57120000D01*
X101620000Y-68020000D02*
X101670000Y-67940000D01*
X51670000Y-57440000D02*
X51720000Y-57360000D01*
X68850000Y-91140000D02*
X68810000Y-91170000D01*
X33500000Y-59760000D02*
X33500000Y-59800000D01*
X67390000Y-67500000D02*
X67490000Y-67500000D01*
X83280000Y-121360000D02*
X83330000Y-121440000D01*
X103470000Y-122210000D02*
X103450000Y-122310000D01*
X102390000Y-80500000D02*
X102300000Y-80480000D01*
X31510000Y-111510000D02*
X31510000Y-100490000D01*
X86620000Y-90480000D02*
X86580000Y-90390000D01*
X100900000Y-56980000D02*
X100940000Y-56960000D01*
X101190000Y-104830000D02*
X101230000Y-104800000D01*
X67110000Y-67580000D02*
X67200000Y-67540000D01*
X86620000Y-41510000D02*
X86670000Y-41430000D01*
X66460000Y-120440000D02*
X66480000Y-120390000D01*
X87390000Y-74990000D02*
X87300000Y-74980000D01*
X33580000Y-59450000D02*
X33550000Y-59520000D01*
X101580000Y-111890000D02*
X101540000Y-111800000D01*
X101450000Y-56480000D02*
X101460000Y-56440000D01*
X66500000Y-88280000D02*
X66500000Y-88240000D01*
X31740000Y-64140000D02*
X31680000Y-64060000D01*
X103370000Y-116020000D02*
X103410000Y-116110000D01*
X66670000Y-83940000D02*
X66730000Y-83860000D01*
X48060000Y-121170000D02*
X48140000Y-121230000D01*
X102600000Y-96500000D02*
X102500000Y-96500000D01*
X67200000Y-51540000D02*
X67300000Y-51520000D01*
X67610000Y-83500000D02*
X67700000Y-83520000D01*
X32400000Y-99500000D02*
X32500000Y-99500000D01*
X32120000Y-51580000D02*
X32210000Y-51540000D01*
X31870000Y-122780000D02*
X31800000Y-122720000D01*
X87300000Y-122990000D02*
X87200000Y-122970000D01*
X101500000Y-107800000D02*
X101500000Y-107760000D01*
X67300000Y-83520000D02*
X67390000Y-83500000D01*
X69060000Y-88960000D02*
X69100000Y-88980000D01*
X33880000Y-104880000D02*
X33920000Y-104900000D01*
X52200000Y-73040000D02*
X52300000Y-73020000D01*
X51520000Y-42200000D02*
X51500000Y-42110000D01*
X68580000Y-72550000D02*
X68600000Y-72590000D01*
X33550000Y-107520000D02*
X33540000Y-107560000D01*
X101250000Y-107220000D02*
X101220000Y-107190000D01*
X101280000Y-120760000D02*
X101310000Y-120720000D01*
X33330000Y-115940000D02*
X33380000Y-116020000D01*
X83140000Y-122780000D02*
X83060000Y-122840000D01*
X52390000Y-73010000D02*
X52490000Y-73000000D01*
X65900000Y-91020000D02*
X65860000Y-91020000D01*
X68380000Y-100020000D02*
X68420000Y-100110000D01*
X82800000Y-58960000D02*
X82700000Y-58980000D01*
X48500000Y-90010000D02*
X48500000Y-90110000D01*
X33140000Y-80280000D02*
X33060000Y-80330000D01*
X102110000Y-83580000D02*
X102200000Y-83540000D01*
X101310000Y-56720000D02*
X101340000Y-56690000D01*
X101790000Y-48210000D02*
X101730000Y-48140000D01*
X68520000Y-75600000D02*
X68510000Y-75650000D01*
X103130000Y-83720000D02*
X103200000Y-83790000D01*
X32700000Y-99520000D02*
X32800000Y-99540000D01*
X65980000Y-107050000D02*
X65940000Y-107040000D01*
X87110000Y-106920000D02*
X87020000Y-106880000D01*
X103450000Y-116200000D02*
X103470000Y-116300000D01*
X33380000Y-52020000D02*
X33420000Y-52110000D01*
X68210000Y-51790000D02*
X68270000Y-51860000D01*
X47700000Y-42980000D02*
X47610000Y-42990000D01*
X31590000Y-111890000D02*
X31550000Y-111800000D01*
X33670000Y-88690000D02*
X33700000Y-88730000D01*
X102600000Y-99500000D02*
X102690000Y-99520000D01*
X103320000Y-67940000D02*
X103370000Y-68020000D01*
X47610000Y-41000000D02*
X47700000Y-41010000D01*
X33600000Y-120580000D02*
X33620000Y-120620000D01*
X66620000Y-47980000D02*
X66580000Y-47890000D01*
X66860000Y-64280000D02*
X66790000Y-64210000D01*
X103480000Y-116390000D02*
X103490000Y-116490000D01*
X68460000Y-84200000D02*
X68480000Y-84300000D01*
X86500000Y-73890000D02*
X86520000Y-73800000D01*
X100820000Y-56990000D02*
X100860000Y-56980000D01*
X101020000Y-88940000D02*
X101060000Y-88920000D01*
X33650000Y-120660000D02*
X33690000Y-120720000D01*
X83500000Y-106110000D02*
X83480000Y-106200000D01*
X103470000Y-95700000D02*
X103450000Y-95800000D01*
X51940000Y-89170000D02*
X52020000Y-89120000D01*
X66280000Y-120750000D02*
X66330000Y-120700000D01*
X100980000Y-91050000D02*
X100940000Y-91040000D01*
X68690000Y-107280000D02*
X68660000Y-107310000D01*
X69020000Y-56950000D02*
X69060000Y-56960000D01*
X66790000Y-115790000D02*
X66860000Y-115720000D01*
X68600000Y-91410000D02*
X68580000Y-91450000D01*
X51670000Y-74560000D02*
X51620000Y-74480000D01*
X101500000Y-104240000D02*
X101500000Y-104200000D01*
X103470000Y-68300000D02*
X103480000Y-68390000D01*
X101480000Y-75600000D02*
X101460000Y-75550000D01*
X31800000Y-48210000D02*
X31740000Y-48140000D01*
X100900000Y-91020000D02*
X100830000Y-91010000D01*
X33500000Y-88240000D02*
X33500000Y-88290000D01*
X100940000Y-75040000D02*
X100900000Y-75020000D01*
X33530000Y-120410000D02*
X33550000Y-120470000D01*
X66520000Y-52300000D02*
X66540000Y-52200000D01*
X86580000Y-89610000D02*
X86620000Y-89520000D01*
X69140000Y-120980000D02*
X69180000Y-120990000D01*
X100820000Y-88990000D02*
X100860000Y-88980000D01*
X102020000Y-99620000D02*
X102110000Y-99580000D01*
X31870000Y-115720000D02*
X31950000Y-115670000D01*
X65900000Y-43020000D02*
X65860000Y-43020000D01*
X33600000Y-59410000D02*
X33580000Y-59450000D01*
X33500000Y-59720000D02*
X33500000Y-59760000D01*
X86500000Y-89890000D02*
X86520000Y-89800000D01*
X32800000Y-51540000D02*
X32890000Y-51580000D01*
X103320000Y-80060000D02*
X103260000Y-80140000D01*
X68140000Y-112280000D02*
X68060000Y-112330000D01*
X68270000Y-115860000D02*
X68330000Y-115940000D01*
X102110000Y-115580000D02*
X102200000Y-115540000D01*
X82980000Y-121120000D02*
X83060000Y-121170000D01*
X48500000Y-42010000D02*
X48500000Y-42110000D01*
X103450000Y-79800000D02*
X103410000Y-79890000D01*
X33460000Y-116200000D02*
X33480000Y-116300000D01*
X100940000Y-72960000D02*
X100980000Y-72950000D01*
X101080000Y-91100000D02*
X101020000Y-91070000D01*
X83460000Y-42300000D02*
X83420000Y-42390000D01*
X66060000Y-75080000D02*
X66020000Y-75060000D01*
X103490000Y-68490000D02*
X103490000Y-79510000D01*
X100980000Y-56950000D02*
X101020000Y-56940000D01*
X31530000Y-116300000D02*
X31550000Y-116200000D01*
X69260000Y-107000000D02*
X69220000Y-107000000D01*
X32800000Y-112460000D02*
X32700000Y-112480000D01*
X33210000Y-99790000D02*
X33270000Y-99860000D01*
X33210000Y-96210000D02*
X33140000Y-96280000D01*
X86720000Y-121360000D02*
X86790000Y-121290000D01*
X68620000Y-120630000D02*
X68660000Y-120690000D01*
X32120000Y-67580000D02*
X32210000Y-67540000D01*
X86720000Y-41350000D02*
X86790000Y-41280000D01*
X32890000Y-51580000D02*
X32980000Y-51620000D01*
X48460000Y-57700000D02*
X48480000Y-57800000D01*
X31530000Y-41790000D02*
X31550000Y-41690000D01*
X67110000Y-51580000D02*
X67200000Y-51540000D01*
X68580000Y-56550000D02*
X68600000Y-56590000D01*
X101500000Y-52490000D02*
X101510000Y-52390000D01*
X67700000Y-51520000D02*
X67800000Y-51540000D01*
X83500000Y-89890000D02*
X83500000Y-90010000D01*
X65740000Y-59000000D02*
X65700000Y-59000000D01*
X34100000Y-88980000D02*
X34170000Y-88990000D01*
X86790000Y-41280000D02*
X86860000Y-41220000D01*
X65770000Y-57000000D02*
X65830000Y-56990000D01*
X68480000Y-116300000D02*
X68490000Y-116390000D01*
X66510000Y-100390000D02*
X66520000Y-100300000D01*
X68770000Y-104800000D02*
X68810000Y-104830000D01*
X67510000Y-83500000D02*
X67610000Y-83500000D01*
X103470000Y-100300000D02*
X103480000Y-100390000D01*
X68770000Y-43200000D02*
X68720000Y-43240000D01*
X87110000Y-122930000D02*
X87020000Y-122890000D01*
X33840000Y-59140000D02*
X33810000Y-59170000D01*
X83380000Y-57520000D02*
X83420000Y-57610000D01*
X32700000Y-115520000D02*
X32800000Y-115540000D01*
X68490000Y-47610000D02*
X68480000Y-47700000D01*
X68840000Y-59140000D02*
X68810000Y-59170000D01*
X33560000Y-88510000D02*
X33580000Y-88550000D01*
X83420000Y-73610000D02*
X83460000Y-73700000D01*
X101520000Y-116300000D02*
X101540000Y-116200000D01*
X83480000Y-106200000D02*
X83460000Y-106300000D01*
X34020000Y-107050000D02*
X33980000Y-107060000D01*
X100780000Y-105000000D02*
X100820000Y-104990000D01*
X67980000Y-99620000D02*
X68060000Y-99670000D01*
X69260000Y-59000000D02*
X69220000Y-59000000D01*
X32610000Y-96500000D02*
X32500000Y-96500000D01*
X52300000Y-57020000D02*
X52390000Y-57010000D01*
X33720000Y-43240000D02*
X33690000Y-43280000D01*
X67890000Y-80420000D02*
X67800000Y-80460000D01*
X51670000Y-58560000D02*
X51620000Y-58480000D01*
X34020000Y-56950000D02*
X34060000Y-56960000D01*
X51540000Y-122310000D02*
X51520000Y-122210000D01*
X51520000Y-58200000D02*
X51500000Y-58110000D01*
X67110000Y-83580000D02*
X67200000Y-83540000D01*
X103050000Y-96330000D02*
X102970000Y-96380000D01*
X31520000Y-84390000D02*
X31530000Y-84300000D01*
X82890000Y-105080000D02*
X82980000Y-105120000D01*
X52490000Y-105000000D02*
X65700000Y-105000000D01*
X83500000Y-121990000D02*
X83500000Y-122020000D01*
X51620000Y-73520000D02*
X51670000Y-73440000D01*
X82700000Y-58980000D02*
X82610000Y-58990000D01*
X86500000Y-121990000D02*
X86500000Y-121890000D01*
X66360000Y-56650000D02*
X66400000Y-56590000D01*
X101460000Y-88440000D02*
X101480000Y-88390000D01*
X103130000Y-122780000D02*
X103050000Y-122840000D01*
X83280000Y-106640000D02*
X83210000Y-106710000D01*
X32030000Y-115620000D02*
X32120000Y-115580000D01*
X26500000Y-35990000D02*
X26500000Y-36010000D01*
X48480000Y-73800000D02*
X48500000Y-73890000D01*
X69180000Y-104990000D02*
X69220000Y-105000000D01*
X101380000Y-88630000D02*
X101400000Y-88590000D01*
X47890000Y-41070000D02*
X47980000Y-41110000D01*
X66670000Y-115940000D02*
X66730000Y-115860000D01*
X82610000Y-90990000D02*
X82510000Y-91000000D01*
X32610000Y-112500000D02*
X32500000Y-112500000D01*
X100700000Y-59000000D02*
X87490000Y-59000000D01*
X67980000Y-96380000D02*
X67890000Y-96420000D01*
X65770000Y-75000000D02*
X65700000Y-75000000D01*
X31680000Y-67940000D02*
X31740000Y-67860000D01*
X66790000Y-80210000D02*
X66730000Y-80140000D01*
X101790000Y-96210000D02*
X101730000Y-96140000D01*
X87300000Y-121020000D02*
X87390000Y-121010000D01*
X52110000Y-90920000D02*
X52020000Y-90880000D01*
X103260000Y-99860000D02*
X103320000Y-99940000D01*
X82610000Y-74990000D02*
X82510000Y-75000000D01*
X51670000Y-90560000D02*
X51620000Y-90480000D01*
X51720000Y-73360000D02*
X51790000Y-73290000D01*
X31590000Y-68110000D02*
X31630000Y-68020000D01*
X68520000Y-72400000D02*
X68540000Y-72450000D01*
X82800000Y-41030000D02*
X82890000Y-41070000D01*
X83210000Y-89290000D02*
X83280000Y-89360000D01*
X68060000Y-51670000D02*
X68140000Y-51720000D01*
X69220000Y-75000000D02*
X69150000Y-75010000D01*
X87490000Y-40990000D02*
X102500000Y-40990000D01*
X51580000Y-106390000D02*
X51540000Y-106300000D01*
X101860000Y-51720000D02*
X101940000Y-51670000D01*
X48380000Y-90480000D02*
X48330000Y-90560000D01*
X68600000Y-75410000D02*
X68580000Y-75450000D01*
X101520000Y-111700000D02*
X101510000Y-111610000D01*
X68330000Y-80060000D02*
X68270000Y-80140000D01*
X83060000Y-74830000D02*
X82980000Y-74880000D01*
X33060000Y-51670000D02*
X33140000Y-51720000D01*
X103480000Y-41880000D02*
X103490000Y-41980000D01*
X68640000Y-56650000D02*
X68670000Y-56690000D01*
X86860000Y-58770000D02*
X86790000Y-58710000D01*
X66400000Y-91410000D02*
X66380000Y-91370000D01*
X102110000Y-67580000D02*
X102200000Y-67540000D01*
X66400000Y-75420000D02*
X66380000Y-75380000D01*
X52300000Y-121020000D02*
X52390000Y-121010000D01*
X86540000Y-89700000D02*
X86580000Y-89610000D01*
X100980000Y-72950000D02*
X101020000Y-72940000D01*
X31950000Y-51670000D02*
X32030000Y-51620000D01*
X51720000Y-57360000D02*
X51790000Y-57290000D01*
X68810000Y-43170000D02*
X68770000Y-43200000D01*
X52390000Y-89010000D02*
X52490000Y-89000000D01*
X33490000Y-111610000D02*
X33480000Y-111700000D01*
X69100000Y-91020000D02*
X69060000Y-91040000D01*
X86860000Y-121230000D02*
X86940000Y-121170000D01*
X51500000Y-105890000D02*
X51520000Y-105800000D01*
X52390000Y-41000000D02*
X52490000Y-40990000D01*
X101540000Y-68200000D02*
X101580000Y-68110000D01*
X86580000Y-58390000D02*
X86540000Y-58300000D01*
X47610000Y-121010000D02*
X47700000Y-121020000D01*
X47890000Y-58920000D02*
X47800000Y-58960000D01*
X66860000Y-96280000D02*
X66790000Y-96210000D01*
X87300000Y-57020000D02*
X87390000Y-57010000D01*
X68500000Y-84490000D02*
X68500000Y-88200000D01*
X68510000Y-88330000D02*
X68520000Y-88390000D01*
X103260000Y-64140000D02*
X103200000Y-64210000D01*
X101500000Y-100490000D02*
X101510000Y-100390000D01*
X52020000Y-106880000D02*
X51940000Y-106830000D01*
X69070000Y-75030000D02*
X69020000Y-75050000D01*
X101500000Y-56240000D02*
X101500000Y-56200000D01*
X82510000Y-59000000D02*
X69300000Y-59000000D01*
X33580000Y-91450000D02*
X33550000Y-91520000D01*
X102690000Y-96480000D02*
X102600000Y-96500000D01*
X100980000Y-104950000D02*
X101020000Y-104940000D01*
X33510000Y-56350000D02*
X33520000Y-56400000D01*
X86720000Y-90640000D02*
X86670000Y-90560000D01*
X68380000Y-95980000D02*
X68330000Y-96060000D01*
X34060000Y-104960000D02*
X34100000Y-104980000D01*
X101500000Y-59760000D02*
X101500000Y-59710000D01*
X66860000Y-67720000D02*
X66940000Y-67670000D01*
X66450000Y-120480000D02*
X66460000Y-120440000D01*
X52020000Y-89120000D02*
X52110000Y-89080000D01*
X83330000Y-105440000D02*
X83380000Y-105520000D01*
X32310000Y-51520000D02*
X32400000Y-51500000D01*
X68580000Y-43450000D02*
X68550000Y-43520000D01*
X68490000Y-52390000D02*
X68500000Y-52490000D01*
X86620000Y-42480000D02*
X86580000Y-42390000D01*
X100700000Y-121000000D02*
X100740000Y-121000000D01*
X87300000Y-74980000D02*
X87200000Y-74960000D01*
X52200000Y-41030000D02*
X52300000Y-41010000D01*
X33570000Y-120520000D02*
X33600000Y-120580000D01*
X48330000Y-74560000D02*
X48280000Y-74640000D01*
X51670000Y-89440000D02*
X51720000Y-89360000D01*
X33920000Y-88900000D02*
X33980000Y-88930000D01*
X66160000Y-56850000D02*
X66220000Y-56810000D01*
X101790000Y-112210000D02*
X101730000Y-112140000D01*
X66730000Y-80140000D02*
X66670000Y-80060000D01*
X83060000Y-42830000D02*
X82980000Y-42880000D01*
X32120000Y-80420000D02*
X32030000Y-80380000D01*
X47800000Y-105040000D02*
X47890000Y-105080000D01*
X82510000Y-107000000D02*
X69300000Y-107000000D01*
X82980000Y-89120000D02*
X83060000Y-89170000D01*
X34230000Y-105000000D02*
X34300000Y-105000000D01*
X101420000Y-56550000D02*
X101450000Y-56480000D01*
X51500000Y-106110000D02*
X51500000Y-105990000D01*
X32030000Y-99620000D02*
X32120000Y-99580000D01*
X33980000Y-104930000D02*
X34020000Y-104950000D01*
X87020000Y-122890000D02*
X86940000Y-122840000D01*
X66520000Y-95700000D02*
X66510000Y-95610000D01*
X101500000Y-75760000D02*
X101500000Y-75710000D01*
X82980000Y-90880000D02*
X82890000Y-90920000D01*
X66460000Y-43560000D02*
X66450000Y-43520000D01*
X103320000Y-64060000D02*
X103260000Y-64140000D01*
X32120000Y-122930000D02*
X32030000Y-122890000D01*
X66380000Y-88630000D02*
X66400000Y-88590000D01*
X33980000Y-91060000D02*
X33940000Y-91080000D01*
X66510000Y-95610000D02*
X66500000Y-95510000D01*
X48460000Y-121700000D02*
X48480000Y-121800000D01*
X69060000Y-72960000D02*
X69100000Y-72980000D01*
X86790000Y-42710000D02*
X86720000Y-42640000D01*
X86520000Y-89800000D02*
X86540000Y-89700000D01*
X47980000Y-121120000D02*
X48060000Y-121170000D01*
X69260000Y-105000000D02*
X69300000Y-105000000D01*
X68490000Y-68390000D02*
X68500000Y-68490000D01*
X100980000Y-59050000D02*
X100940000Y-59040000D01*
X65940000Y-72960000D02*
X65980000Y-72950000D01*
X101230000Y-120800000D02*
X101280000Y-120760000D01*
X68500000Y-75760000D02*
X68500000Y-75800000D01*
X100940000Y-88960000D02*
X100980000Y-88950000D01*
X86540000Y-57700000D02*
X86580000Y-57610000D01*
X66250000Y-56780000D02*
X66280000Y-56750000D01*
X66150000Y-91140000D02*
X66090000Y-91100000D01*
X33490000Y-116390000D02*
X33500000Y-116490000D01*
X33330000Y-99940000D02*
X33380000Y-100020000D01*
X32310000Y-122990000D02*
X32210000Y-122970000D01*
X32400000Y-67500000D02*
X32500000Y-67500000D01*
X101500000Y-88200000D02*
X101500000Y-84490000D01*
X86940000Y-90830000D02*
X86860000Y-90770000D01*
X66490000Y-107650000D02*
X66480000Y-107600000D01*
X48500000Y-41880000D02*
X48500000Y-41980000D01*
X86500000Y-105990000D02*
X86500000Y-105890000D01*
X66860000Y-48280000D02*
X66790000Y-48210000D01*
X52020000Y-58880000D02*
X51940000Y-58830000D01*
X82610000Y-123000000D02*
X82510000Y-123010000D01*
X52390000Y-123000000D02*
X52300000Y-122990000D01*
X83280000Y-105360000D02*
X83330000Y-105440000D01*
X102020000Y-51620000D02*
X102110000Y-51580000D01*
X101340000Y-88690000D02*
X101380000Y-88630000D01*
X33460000Y-68200000D02*
X33480000Y-68300000D01*
X66480000Y-59610000D02*
X66460000Y-59560000D01*
X31590000Y-52110000D02*
X31630000Y-52020000D01*
X69150000Y-75010000D02*
X69100000Y-75020000D01*
X83480000Y-42200000D02*
X83460000Y-42300000D01*
X47890000Y-57080000D02*
X47980000Y-57120000D01*
X68380000Y-68020000D02*
X68420000Y-68110000D01*
X47610000Y-57010000D02*
X47700000Y-57020000D01*
X108500000Y-35980000D02*
X108490000Y-35980000D01*
X68560000Y-72510000D02*
X68580000Y-72550000D01*
X33270000Y-115860000D02*
X33330000Y-115940000D01*
X101730000Y-64140000D02*
X101670000Y-64060000D01*
X68780000Y-72810000D02*
X68810000Y-72840000D01*
X33380000Y-111980000D02*
X33330000Y-112060000D01*
X103370000Y-95980000D02*
X103320000Y-96060000D01*
X66050000Y-88920000D02*
X66090000Y-88900000D01*
X66940000Y-99670000D02*
X67020000Y-99620000D01*
X69260000Y-121000000D02*
X69300000Y-121000000D01*
X33510000Y-120320000D02*
X33520000Y-120360000D01*
X101430000Y-43480000D02*
X101400000Y-43420000D01*
X31740000Y-99860000D02*
X31800000Y-99790000D01*
X33510000Y-91670000D02*
X33500000Y-91720000D01*
X66400000Y-104580000D02*
X66430000Y-104520000D01*
X68770000Y-88800000D02*
X68810000Y-88830000D01*
X83460000Y-106300000D02*
X83420000Y-106390000D01*
X68550000Y-107520000D02*
X68540000Y-107560000D01*
X66730000Y-67860000D02*
X66790000Y-67790000D01*
X103200000Y-67790000D02*
X103260000Y-67860000D01*
X52020000Y-42880000D02*
X51940000Y-42830000D01*
X83140000Y-42770000D02*
X83060000Y-42830000D01*
X68500000Y-68490000D02*
X68500000Y-72200000D01*
X51520000Y-121800000D02*
X51540000Y-121700000D01*
X101790000Y-51790000D02*
X101860000Y-51720000D01*
X66500000Y-63510000D02*
X66500000Y-59800000D01*
X33380000Y-68020000D02*
X33420000Y-68110000D01*
X66940000Y-115670000D02*
X67020000Y-115620000D01*
X33140000Y-48280000D02*
X33060000Y-48330000D01*
X34170000Y-88990000D02*
X34230000Y-89000000D01*
X101620000Y-111980000D02*
X101580000Y-111890000D01*
X83280000Y-122650000D02*
X83210000Y-122720000D01*
X52490000Y-57000000D02*
X65700000Y-57000000D01*
X34020000Y-59050000D02*
X33980000Y-59060000D01*
X32500000Y-51500000D02*
X32610000Y-51500000D01*
X83460000Y-89700000D02*
X83480000Y-89800000D01*
X68270000Y-96140000D02*
X68210000Y-96210000D01*
X102790000Y-112460000D02*
X102690000Y-112480000D01*
X68210000Y-112210000D02*
X68140000Y-112280000D01*
X86790000Y-122720000D02*
X86720000Y-122650000D01*
X68420000Y-95890000D02*
X68380000Y-95980000D01*
X67610000Y-51500000D02*
X67700000Y-51520000D01*
X51580000Y-58390000D02*
X51540000Y-58300000D01*
X66280000Y-88760000D02*
X66310000Y-88720000D01*
X68460000Y-68200000D02*
X68480000Y-68300000D01*
X101520000Y-63700000D02*
X101510000Y-63610000D01*
X51540000Y-89700000D02*
X51580000Y-89610000D01*
X67890000Y-83580000D02*
X67980000Y-83620000D01*
X51540000Y-42300000D02*
X51520000Y-42200000D01*
X102880000Y-51580000D02*
X102970000Y-51620000D01*
X68060000Y-115670000D02*
X68140000Y-115720000D01*
X66230000Y-88800000D02*
X66280000Y-88760000D01*
X101120000Y-88880000D02*
X101160000Y-88860000D01*
X103200000Y-112210000D02*
X103130000Y-112280000D01*
X102110000Y-64420000D02*
X102020000Y-64380000D01*
X102600000Y-80500000D02*
X102500000Y-80500000D01*
X33880000Y-72880000D02*
X33920000Y-72900000D01*
X51580000Y-73610000D02*
X51620000Y-73520000D01*
X83480000Y-58200000D02*
X83460000Y-58300000D01*
X47700000Y-41010000D02*
X47800000Y-41030000D01*
X101620000Y-47980000D02*
X101580000Y-47890000D01*
X87300000Y-42980000D02*
X87200000Y-42960000D01*
X33380000Y-47980000D02*
X33330000Y-48060000D01*
X69060000Y-107040000D02*
X68990000Y-107060000D01*
X83210000Y-121290000D02*
X83280000Y-121360000D01*
X33060000Y-67670000D02*
X33140000Y-67720000D01*
X51720000Y-89360000D02*
X51790000Y-89290000D01*
X32800000Y-48460000D02*
X32700000Y-48480000D01*
X68510000Y-75650000D02*
X68500000Y-75710000D01*
X52390000Y-58990000D02*
X52300000Y-58980000D01*
X87490000Y-59000000D02*
X87390000Y-58990000D01*
X108490000Y-128020000D02*
X108500000Y-128020000D01*
X102500000Y-96500000D02*
X102390000Y-96500000D01*
X86940000Y-105170000D02*
X87020000Y-105120000D01*
X69020000Y-75050000D02*
X68950000Y-75080000D01*
X31550000Y-63800000D02*
X31530000Y-63700000D01*
X31680000Y-99940000D02*
X31740000Y-99860000D01*
X51790000Y-42710000D02*
X51720000Y-42640000D01*
X51940000Y-121170000D02*
X52020000Y-121120000D01*
X48280000Y-106640000D02*
X48210000Y-106710000D01*
X33330000Y-51940000D02*
X33380000Y-52020000D01*
X68950000Y-72920000D02*
X69020000Y-72950000D01*
X68140000Y-80280000D02*
X68060000Y-80330000D01*
X83420000Y-121610000D02*
X83460000Y-121700000D01*
X33560000Y-104510000D02*
X33580000Y-104550000D01*
X31870000Y-99720000D02*
X31950000Y-99670000D01*
X82980000Y-122890000D02*
X82890000Y-122930000D01*
X33540000Y-104450000D02*
X33560000Y-104510000D01*
X48380000Y-42480000D02*
X48330000Y-42560000D01*
X33720000Y-91240000D02*
X33690000Y-91280000D01*
X68420000Y-79890000D02*
X68380000Y-79980000D01*
X83480000Y-73800000D02*
X83500000Y-73890000D01*
X47700000Y-57020000D02*
X47800000Y-57040000D01*
X34020000Y-75050000D02*
X33980000Y-75060000D01*
X86520000Y-122210000D02*
X86500000Y-122120000D01*
X100900000Y-120980000D02*
X100940000Y-120960000D01*
X33500000Y-100490000D02*
X33500000Y-104200000D01*
X32890000Y-67580000D02*
X32980000Y-67620000D01*
X100770000Y-75000000D02*
X100700000Y-75000000D01*
X100900000Y-75020000D02*
X100830000Y-75010000D01*
X48330000Y-105440000D02*
X48380000Y-105520000D01*
X33500000Y-88290000D02*
X33510000Y-88350000D01*
X68420000Y-47890000D02*
X68380000Y-47980000D01*
X65830000Y-75010000D02*
X65770000Y-75000000D01*
X102300000Y-67520000D02*
X102390000Y-67500000D01*
X103410000Y-95890000D02*
X103370000Y-95980000D01*
X66670000Y-112060000D02*
X66620000Y-111980000D01*
X86940000Y-73170000D02*
X87020000Y-73120000D01*
X32310000Y-96480000D02*
X32210000Y-96460000D01*
X68210000Y-80210000D02*
X68140000Y-80280000D01*
X31740000Y-67860000D02*
X31800000Y-67790000D01*
X86540000Y-42300000D02*
X86520000Y-42200000D01*
X87200000Y-41030000D02*
X87300000Y-41010000D01*
X102690000Y-51520000D02*
X102790000Y-51540000D01*
X51540000Y-57700000D02*
X51580000Y-57610000D01*
X48500000Y-89890000D02*
X48500000Y-90010000D01*
X31630000Y-122490000D02*
X31590000Y-122400000D01*
X33980000Y-107060000D02*
X33940000Y-107080000D01*
X65780000Y-43000000D02*
X65740000Y-43000000D01*
X101500000Y-91710000D02*
X101490000Y-91650000D01*
X67800000Y-51540000D02*
X67890000Y-51580000D01*
X32310000Y-80480000D02*
X32210000Y-80460000D01*
X33550000Y-120470000D02*
X33570000Y-120520000D01*
X103370000Y-41510000D02*
X103410000Y-41600000D01*
X68330000Y-67940000D02*
X68380000Y-68020000D01*
X87200000Y-90960000D02*
X87110000Y-90920000D01*
X51720000Y-41350000D02*
X51790000Y-41280000D01*
X103050000Y-112330000D02*
X102970000Y-112380000D01*
X69260000Y-43000000D02*
X69220000Y-43000000D01*
X47610000Y-58990000D02*
X47510000Y-59000000D01*
X33420000Y-95890000D02*
X33380000Y-95980000D01*
X31550000Y-122310000D02*
X31530000Y-122210000D01*
X102790000Y-41030000D02*
X102880000Y-41070000D01*
X83480000Y-90200000D02*
X83460000Y-90300000D01*
X31550000Y-116200000D02*
X31590000Y-116110000D01*
X101500000Y-95510000D02*
X101500000Y-91800000D01*
X48380000Y-41510000D02*
X48420000Y-41600000D01*
X101500000Y-120240000D02*
X101500000Y-120200000D01*
X103480000Y-47610000D02*
X103470000Y-47700000D01*
X82890000Y-42920000D02*
X82800000Y-42960000D01*
X48500000Y-58010000D02*
X48500000Y-58110000D01*
X68500000Y-88280000D02*
X68510000Y-88330000D01*
X31550000Y-41690000D02*
X31590000Y-41600000D01*
X34060000Y-59040000D02*
X34020000Y-59050000D01*
X82510000Y-75000000D02*
X69300000Y-75000000D01*
X82800000Y-42960000D02*
X82700000Y-42980000D01*
X68720000Y-120760000D02*
X68770000Y-120800000D01*
X103130000Y-99720000D02*
X103200000Y-99790000D01*
X68660000Y-59310000D02*
X68620000Y-59370000D01*
X68580000Y-75450000D02*
X68560000Y-75490000D01*
X102300000Y-115520000D02*
X102390000Y-115500000D01*
X82890000Y-122930000D02*
X82800000Y-122970000D01*
X100820000Y-104990000D02*
X100860000Y-104980000D01*
X33490000Y-100390000D02*
X33500000Y-100490000D01*
X103490000Y-79510000D02*
X103480000Y-79610000D01*
X66860000Y-80280000D02*
X66790000Y-80210000D01*
X87390000Y-105010000D02*
X87490000Y-105000000D01*
X68740000Y-56780000D02*
X68780000Y-56810000D01*
X66860000Y-83720000D02*
X66940000Y-83670000D01*
X67700000Y-64480000D02*
X67610000Y-64500000D01*
X100980000Y-75050000D02*
X100940000Y-75040000D01*
X67110000Y-96420000D02*
X67020000Y-96380000D01*
X33560000Y-56510000D02*
X33580000Y-56550000D01*
X101500000Y-88280000D02*
X101500000Y-88240000D01*
X33060000Y-112330000D02*
X32980000Y-112380000D01*
X100700000Y-57000000D02*
X100740000Y-57000000D01*
X48420000Y-41600000D02*
X48460000Y-41690000D01*
X68600000Y-107410000D02*
X68580000Y-107450000D01*
X66500000Y-72290000D02*
X66500000Y-72240000D01*
X82800000Y-105040000D02*
X82890000Y-105080000D01*
X52300000Y-42980000D02*
X52200000Y-42960000D01*
X68500000Y-59760000D02*
X68500000Y-59800000D01*
X69220000Y-59000000D02*
X69180000Y-59010000D01*
X103370000Y-111980000D02*
X103320000Y-112060000D01*
X47890000Y-74920000D02*
X47800000Y-74960000D01*
X66790000Y-99790000D02*
X66860000Y-99720000D01*
X33770000Y-91200000D02*
X33720000Y-91240000D01*
X68380000Y-52020000D02*
X68420000Y-52110000D01*
X51540000Y-90300000D02*
X51520000Y-90200000D01*
X67390000Y-96500000D02*
X67300000Y-96480000D01*
X101520000Y-95700000D02*
X101510000Y-95610000D01*
X32800000Y-83540000D02*
X32890000Y-83580000D01*
X51790000Y-89290000D02*
X51860000Y-89230000D01*
X83420000Y-42390000D02*
X83380000Y-42480000D01*
X86620000Y-57520000D02*
X86670000Y-57440000D01*
X33520000Y-120360000D02*
X33530000Y-120410000D01*
X52490000Y-89000000D02*
X65700000Y-89000000D01*
X48140000Y-41220000D02*
X48210000Y-41280000D01*
X101160000Y-120860000D02*
X101190000Y-120830000D01*
X101400000Y-120590000D02*
X101420000Y-120550000D01*
X67300000Y-64480000D02*
X67200000Y-64460000D01*
X66330000Y-120700000D02*
X66360000Y-120660000D01*
X101520000Y-84300000D02*
X101540000Y-84200000D01*
X86940000Y-57170000D02*
X87020000Y-57120000D01*
X69260000Y-75000000D02*
X69220000Y-75000000D01*
X67610000Y-115500000D02*
X67700000Y-115520000D01*
X103410000Y-63890000D02*
X103370000Y-63980000D01*
X65700000Y-107000000D02*
X52490000Y-107000000D01*
X86670000Y-105440000D02*
X86720000Y-105360000D01*
X66480000Y-43610000D02*
X66460000Y-43560000D01*
X51580000Y-57610000D02*
X51620000Y-57520000D01*
X51940000Y-74830000D02*
X51860000Y-74770000D01*
X68770000Y-120800000D02*
X68810000Y-120830000D01*
X83420000Y-89610000D02*
X83460000Y-89700000D01*
X68990000Y-88940000D02*
X69060000Y-88960000D01*
X103200000Y-51790000D02*
X103260000Y-51860000D01*
X48500000Y-106010000D02*
X48500000Y-106110000D01*
X66380000Y-91370000D02*
X66340000Y-91310000D01*
X47980000Y-89120000D02*
X48060000Y-89170000D01*
X101280000Y-88760000D02*
X101310000Y-88720000D01*
X34180000Y-43010000D02*
X34140000Y-43020000D01*
X101020000Y-120940000D02*
X101060000Y-120920000D01*
X83330000Y-122570000D02*
X83280000Y-122650000D01*
X101480000Y-91600000D02*
X101460000Y-91550000D01*
X47610000Y-89010000D02*
X47700000Y-89020000D01*
X68910000Y-107100000D02*
X68850000Y-107140000D01*
X52110000Y-57080000D02*
X52200000Y-57040000D01*
X102300000Y-112480000D02*
X102200000Y-112460000D01*
X101160000Y-75150000D02*
X101120000Y-75120000D01*
X103470000Y-47700000D02*
X103450000Y-47800000D01*
X33500000Y-107760000D02*
X33500000Y-107800000D01*
X34300000Y-57000000D02*
X47510000Y-57000000D01*
X102970000Y-41110000D02*
X103050000Y-41160000D01*
X47800000Y-121040000D02*
X47890000Y-121080000D01*
X32310000Y-64480000D02*
X32210000Y-64460000D01*
X34030000Y-120950000D02*
X34100000Y-120980000D01*
X68270000Y-112140000D02*
X68210000Y-112210000D01*
X67020000Y-64380000D02*
X66940000Y-64330000D01*
X52200000Y-42960000D02*
X52110000Y-42920000D01*
X103410000Y-52110000D02*
X103450000Y-52200000D01*
X101250000Y-75220000D02*
X101220000Y-75190000D01*
X83330000Y-73440000D02*
X83380000Y-73520000D01*
X51620000Y-122490000D02*
X51580000Y-122400000D01*
X68580000Y-88550000D02*
X68600000Y-88590000D01*
X103370000Y-52020000D02*
X103410000Y-52110000D01*
X69100000Y-75020000D02*
X69070000Y-75030000D01*
X33480000Y-63700000D02*
X33460000Y-63800000D01*
X69020000Y-59050000D02*
X68980000Y-59060000D01*
X31520000Y-100390000D02*
X31530000Y-100300000D01*
X65700000Y-73000000D02*
X65740000Y-73000000D01*
X103480000Y-63610000D02*
X103470000Y-63700000D01*
X32210000Y-83540000D02*
X32310000Y-83520000D01*
X101730000Y-83860000D02*
X101790000Y-83790000D01*
X86540000Y-90300000D02*
X86520000Y-90200000D01*
X34100000Y-43020000D02*
X34060000Y-43040000D01*
X51540000Y-58300000D02*
X51520000Y-58200000D01*
X102390000Y-112500000D02*
X102300000Y-112480000D01*
X66380000Y-59380000D02*
X66350000Y-59340000D01*
X86670000Y-90560000D02*
X86620000Y-90480000D01*
X68620000Y-107370000D02*
X68600000Y-107410000D01*
X68500000Y-59800000D02*
X68500000Y-63510000D01*
X66090000Y-91100000D02*
X66050000Y-91080000D01*
X68620000Y-88630000D02*
X68660000Y-88690000D01*
X68270000Y-83860000D02*
X68330000Y-83940000D01*
X101510000Y-111610000D02*
X101500000Y-111510000D01*
X101580000Y-95890000D02*
X101540000Y-95800000D01*
X34230000Y-73000000D02*
X34300000Y-73000000D01*
X33270000Y-64140000D02*
X33210000Y-64210000D01*
X47890000Y-89080000D02*
X47980000Y-89120000D01*
X66420000Y-56550000D02*
X66440000Y-56510000D01*
X83460000Y-58300000D02*
X83420000Y-58390000D01*
X101490000Y-56330000D02*
X101500000Y-56280000D01*
X33420000Y-68110000D02*
X33460000Y-68200000D01*
X48140000Y-42770000D02*
X48060000Y-42830000D01*
X33140000Y-96280000D02*
X33060000Y-96330000D01*
X34300000Y-73000000D02*
X47510000Y-73000000D01*
X101620000Y-63980000D02*
X101580000Y-63890000D01*
X66500000Y-59800000D02*
X66500000Y-59760000D01*
X66310000Y-59280000D02*
X66280000Y-59250000D01*
X51540000Y-41690000D02*
X51580000Y-41600000D01*
X68210000Y-96210000D02*
X68140000Y-96280000D01*
X68990000Y-43060000D02*
X68950000Y-43080000D01*
X48210000Y-74710000D02*
X48140000Y-74770000D01*
X68420000Y-116110000D02*
X68460000Y-116200000D01*
X102970000Y-80380000D02*
X102880000Y-80420000D01*
X68720000Y-59240000D02*
X68690000Y-59280000D01*
X33330000Y-67940000D02*
X33380000Y-68020000D01*
X33420000Y-116110000D02*
X33460000Y-116200000D01*
X86520000Y-57800000D02*
X86540000Y-57700000D01*
X33540000Y-43560000D02*
X33520000Y-43610000D01*
X48460000Y-106300000D02*
X48420000Y-106390000D01*
X33840000Y-120860000D02*
X33880000Y-120880000D01*
X48500000Y-122120000D02*
X48480000Y-122210000D01*
X68270000Y-64140000D02*
X68210000Y-64210000D01*
X103130000Y-41220000D02*
X103200000Y-41280000D01*
X101340000Y-56690000D02*
X101380000Y-56630000D01*
X33420000Y-47890000D02*
X33380000Y-47980000D01*
X34300000Y-105000000D02*
X47510000Y-105000000D01*
X87200000Y-57040000D02*
X87300000Y-57020000D01*
X51500000Y-89890000D02*
X51520000Y-89800000D01*
X48210000Y-122720000D02*
X48140000Y-122780000D01*
X31590000Y-47890000D02*
X31550000Y-47800000D01*
X68580000Y-59450000D02*
X68550000Y-59520000D01*
X101060000Y-43080000D02*
X101020000Y-43060000D01*
X33330000Y-112060000D02*
X33270000Y-112140000D01*
X68500000Y-72290000D02*
X68510000Y-72350000D01*
X51620000Y-121520000D02*
X51670000Y-121440000D01*
X66860000Y-51720000D02*
X66940000Y-51670000D01*
X108500000Y-36010000D02*
X108500000Y-35990000D01*
X83060000Y-41160000D02*
X83140000Y-41220000D01*
X66500000Y-56200000D02*
X66500000Y-52490000D01*
X33670000Y-104690000D02*
X33700000Y-104730000D01*
X102020000Y-83620000D02*
X102110000Y-83580000D01*
X103260000Y-67860000D02*
X103320000Y-67940000D01*
X65980000Y-72950000D02*
X66050000Y-72920000D01*
X102490000Y-48500000D02*
X102390000Y-48500000D01*
X33270000Y-48140000D02*
X33210000Y-48210000D01*
X66380000Y-104620000D02*
X66400000Y-104580000D01*
X68770000Y-107200000D02*
X68720000Y-107240000D01*
X86540000Y-58300000D02*
X86520000Y-58200000D01*
X31520000Y-63610000D02*
X31510000Y-63510000D01*
X48500000Y-42110000D02*
X48480000Y-42200000D01*
X67390000Y-48500000D02*
X67300000Y-48480000D01*
X31550000Y-100200000D02*
X31590000Y-100110000D01*
X33380000Y-95980000D02*
X33330000Y-96060000D01*
X101360000Y-75350000D02*
X101330000Y-75310000D01*
X82510000Y-43000000D02*
X69300000Y-43000000D01*
X33060000Y-96330000D02*
X32980000Y-96380000D01*
X100830000Y-59010000D02*
X100770000Y-59000000D01*
X101020000Y-56940000D02*
X101060000Y-56920000D01*
X68520000Y-56400000D02*
X68540000Y-56450000D01*
X33780000Y-104810000D02*
X33840000Y-104850000D01*
X103410000Y-116110000D02*
X103450000Y-116200000D01*
X51860000Y-42770000D02*
X51790000Y-42710000D01*
X66670000Y-80060000D02*
X66620000Y-79980000D01*
X66190000Y-72840000D02*
X66220000Y-72810000D01*
X86580000Y-121610000D02*
X86620000Y-121520000D01*
X101670000Y-67940000D02*
X101730000Y-67860000D01*
X65850000Y-104990000D02*
X65890000Y-104980000D01*
X52300000Y-41010000D02*
X52390000Y-41000000D01*
X67700000Y-99520000D02*
X67800000Y-99540000D01*
X101860000Y-115720000D02*
X101940000Y-115670000D01*
X31740000Y-41350000D02*
X31800000Y-41280000D01*
X66220000Y-56810000D02*
X66250000Y-56780000D01*
X68560000Y-75490000D02*
X68540000Y-75550000D01*
X102110000Y-80420000D02*
X102020000Y-80380000D01*
X86500000Y-106110000D02*
X86500000Y-105990000D01*
X68060000Y-48330000D02*
X67980000Y-48380000D01*
X83210000Y-122720000D02*
X83140000Y-122780000D01*
X68500000Y-104280000D02*
X68510000Y-104330000D01*
X67390000Y-80500000D02*
X67300000Y-80480000D01*
X82510000Y-89000000D02*
X82610000Y-89010000D01*
X82890000Y-57080000D02*
X82980000Y-57120000D01*
X67890000Y-115580000D02*
X67980000Y-115620000D01*
X48380000Y-105520000D02*
X48420000Y-105610000D01*
X69180000Y-88990000D02*
X69220000Y-89000000D01*
X52490000Y-123010000D02*
X52390000Y-123000000D01*
X103450000Y-122310000D02*
X103410000Y-122400000D01*
X66500000Y-43760000D02*
X66500000Y-43720000D01*
X47610000Y-90990000D02*
X47510000Y-91000000D01*
X34170000Y-120990000D02*
X34230000Y-121000000D01*
X66060000Y-59080000D02*
X66020000Y-59060000D01*
X66310000Y-91280000D02*
X66280000Y-91240000D01*
X68910000Y-104900000D02*
X68950000Y-104920000D01*
X102390000Y-96500000D02*
X102300000Y-96480000D01*
X87020000Y-42880000D02*
X86940000Y-42830000D01*
X101500000Y-63510000D02*
X101500000Y-59800000D01*
X102390000Y-67500000D02*
X102500000Y-67500000D01*
X66350000Y-75340000D02*
X66310000Y-75280000D01*
X33270000Y-96140000D02*
X33210000Y-96210000D01*
X101120000Y-59120000D02*
X101080000Y-59100000D01*
X48330000Y-73440000D02*
X48380000Y-73520000D01*
X82980000Y-105120000D02*
X83060000Y-105170000D01*
X33500000Y-107800000D02*
X33500000Y-111510000D01*
X67610000Y-48500000D02*
X67490000Y-48500000D01*
X66490000Y-88330000D02*
X66500000Y-88280000D01*
X102300000Y-99520000D02*
X102390000Y-99500000D01*
X83330000Y-57440000D02*
X83380000Y-57520000D01*
X68720000Y-88760000D02*
X68770000Y-88800000D01*
X31680000Y-48060000D02*
X31630000Y-47980000D01*
X66310000Y-75280000D02*
X66280000Y-75250000D01*
X87020000Y-74880000D02*
X86940000Y-74830000D01*
X68520000Y-43610000D02*
X68510000Y-43670000D01*
X31950000Y-99670000D02*
X32030000Y-99620000D01*
X32120000Y-83580000D02*
X32210000Y-83540000D01*
X83140000Y-90770000D02*
X83060000Y-90830000D01*
X66500000Y-120240000D02*
X66500000Y-120200000D01*
X67610000Y-80500000D02*
X67510000Y-80500000D01*
X68500000Y-56240000D02*
X68500000Y-56290000D01*
X101490000Y-59650000D02*
X101480000Y-59600000D01*
X66050000Y-104920000D02*
X66090000Y-104900000D01*
X100940000Y-107040000D02*
X100900000Y-107020000D01*
X47610000Y-105010000D02*
X47700000Y-105020000D01*
X33490000Y-84390000D02*
X33500000Y-84490000D01*
X51860000Y-41220000D02*
X51940000Y-41160000D01*
X65700000Y-57000000D02*
X65770000Y-57000000D01*
X48480000Y-90200000D02*
X48460000Y-90300000D01*
X48420000Y-90390000D02*
X48380000Y-90480000D01*
X33380000Y-79980000D02*
X33330000Y-80060000D01*
X101860000Y-83720000D02*
X101940000Y-83670000D01*
X32030000Y-48380000D02*
X31950000Y-48330000D01*
X87390000Y-106990000D02*
X87300000Y-106980000D01*
X66500000Y-88200000D02*
X66500000Y-84490000D01*
X66460000Y-59560000D02*
X66450000Y-59520000D01*
X83420000Y-106390000D02*
X83380000Y-106480000D01*
X67300000Y-115520000D02*
X67390000Y-115500000D01*
X51670000Y-73440000D02*
X51720000Y-73360000D01*
X66520000Y-79700000D02*
X66510000Y-79610000D01*
X68690000Y-120720000D02*
X68720000Y-120760000D01*
X67110000Y-112420000D02*
X67020000Y-112380000D01*
X83060000Y-57170000D02*
X83140000Y-57230000D01*
X33520000Y-59610000D02*
X33510000Y-59670000D01*
X68660000Y-91310000D02*
X68620000Y-91370000D01*
X65980000Y-104950000D02*
X66020000Y-104940000D01*
X33990000Y-43060000D02*
X33950000Y-43080000D01*
X102790000Y-48460000D02*
X102690000Y-48480000D01*
X87200000Y-89040000D02*
X87300000Y-89020000D01*
X52490000Y-40990000D02*
X82510000Y-40990000D01*
X33750000Y-56780000D02*
X33780000Y-56810000D01*
X34230000Y-89000000D02*
X34300000Y-89000000D01*
X67800000Y-115540000D02*
X67890000Y-115580000D01*
X51940000Y-41160000D02*
X52020000Y-41110000D01*
X87390000Y-73010000D02*
X87490000Y-73000000D01*
X66250000Y-75220000D02*
X66200000Y-75170000D01*
X67980000Y-115620000D02*
X68060000Y-115670000D01*
X66430000Y-75480000D02*
X66400000Y-75420000D01*
X34060000Y-88960000D02*
X34100000Y-88980000D01*
X108500000Y-128020000D02*
X108500000Y-128010000D01*
X66190000Y-120840000D02*
X66220000Y-120810000D01*
X33580000Y-72550000D02*
X33600000Y-72590000D01*
X82610000Y-41000000D02*
X82700000Y-41010000D01*
X68540000Y-120440000D02*
X68550000Y-120480000D01*
X69140000Y-107020000D02*
X69100000Y-107020000D01*
X103050000Y-67670000D02*
X103130000Y-67720000D01*
X66480000Y-75640000D02*
X66470000Y-75590000D01*
X51940000Y-58830000D02*
X51860000Y-58770000D01*
X31950000Y-67670000D02*
X32030000Y-67620000D01*
X66490000Y-43670000D02*
X66480000Y-43610000D01*
X86720000Y-58640000D02*
X86670000Y-58560000D01*
X48500000Y-58110000D02*
X48480000Y-58200000D01*
X52300000Y-105020000D02*
X52390000Y-105010000D01*
X66790000Y-51790000D02*
X66860000Y-51720000D01*
X87490000Y-121000000D02*
X100700000Y-121000000D01*
X48280000Y-73360000D02*
X48330000Y-73440000D01*
X69230000Y-57000000D02*
X69300000Y-57000000D01*
X32700000Y-80480000D02*
X32610000Y-80500000D01*
X48460000Y-90300000D02*
X48420000Y-90390000D01*
X102390000Y-115500000D02*
X102500000Y-115500000D01*
X69020000Y-72950000D02*
X69060000Y-72960000D01*
X82510000Y-123010000D02*
X52490000Y-123010000D01*
X48330000Y-41430000D02*
X48380000Y-41510000D01*
X102880000Y-83580000D02*
X102970000Y-83620000D01*
X31590000Y-116110000D02*
X31630000Y-116020000D01*
X68500000Y-47510000D02*
X68490000Y-47610000D01*
X100780000Y-121000000D02*
X100820000Y-120990000D01*
X102390000Y-83500000D02*
X102500000Y-83500000D01*
X47510000Y-91000000D02*
X34300000Y-91000000D01*
X83140000Y-121230000D02*
X83210000Y-121290000D01*
X67300000Y-51520000D02*
X67390000Y-51500000D01*
X103450000Y-111800000D02*
X103410000Y-111890000D01*
X101500000Y-68490000D02*
X101510000Y-68390000D01*
X68660000Y-104690000D02*
X68690000Y-104720000D01*
X68600000Y-104590000D02*
X68620000Y-104630000D01*
X83060000Y-121170000D02*
X83140000Y-121230000D01*
X83500000Y-74010000D02*
X83500000Y-74110000D01*
X65780000Y-89000000D02*
X65820000Y-88990000D01*
X52110000Y-122930000D02*
X52020000Y-122890000D01*
X67980000Y-80380000D02*
X67890000Y-80420000D01*
X69100000Y-56980000D02*
X69170000Y-56990000D01*
X32700000Y-48480000D02*
X32610000Y-48500000D01*
X67610000Y-64500000D02*
X67490000Y-64500000D01*
X51580000Y-121610000D02*
X51620000Y-121520000D01*
X26510000Y-35980000D02*
X26500000Y-35980000D01*
X68640000Y-72650000D02*
X68670000Y-72690000D01*
X66540000Y-100200000D02*
X66580000Y-100110000D01*
X48280000Y-57360000D02*
X48330000Y-57440000D01*
X101520000Y-47700000D02*
X101510000Y-47610000D01*
X31520000Y-116390000D02*
X31530000Y-116300000D01*
X48480000Y-58200000D02*
X48460000Y-58300000D01*
X101510000Y-84390000D02*
X101520000Y-84300000D01*
X102690000Y-122990000D02*
X102600000Y-123000000D01*
X101670000Y-48060000D02*
X101620000Y-47980000D01*
X101250000Y-43220000D02*
X101200000Y-43170000D01*
X68520000Y-59610000D02*
X68510000Y-59670000D01*
X48140000Y-106770000D02*
X48060000Y-106830000D01*
X101580000Y-47890000D02*
X101540000Y-47800000D01*
X34020000Y-88950000D02*
X34060000Y-88960000D01*
X48140000Y-89230000D02*
X48210000Y-89290000D01*
X47980000Y-74880000D02*
X47890000Y-74920000D01*
X68580000Y-104550000D02*
X68600000Y-104590000D01*
X87200000Y-42960000D02*
X87110000Y-42920000D01*
X87020000Y-58880000D02*
X86940000Y-58830000D01*
X33460000Y-47800000D02*
X33420000Y-47890000D01*
X32980000Y-67620000D02*
X33060000Y-67670000D01*
X68520000Y-91610000D02*
X68510000Y-91670000D01*
X101400000Y-104590000D02*
X101420000Y-104550000D01*
X68510000Y-120330000D02*
X68520000Y-120390000D01*
X86670000Y-122570000D02*
X86620000Y-122490000D01*
X102110000Y-51580000D02*
X102200000Y-51540000D01*
X52200000Y-105040000D02*
X52300000Y-105020000D01*
X102790000Y-96460000D02*
X102690000Y-96480000D01*
X86620000Y-74480000D02*
X86580000Y-74390000D01*
X67490000Y-115500000D02*
X67610000Y-115500000D01*
X33700000Y-72730000D02*
X33750000Y-72780000D01*
X68660000Y-43310000D02*
X68620000Y-43370000D01*
X67020000Y-83620000D02*
X67110000Y-83580000D01*
X51860000Y-105230000D02*
X51940000Y-105170000D01*
X51620000Y-57520000D02*
X51670000Y-57440000D01*
X33140000Y-64280000D02*
X33060000Y-64330000D01*
X34060000Y-56960000D02*
X34100000Y-56980000D01*
X101280000Y-56760000D02*
X101310000Y-56720000D01*
X100700000Y-89000000D02*
X100740000Y-89000000D01*
X31950000Y-122840000D02*
X31870000Y-122780000D01*
X82510000Y-91000000D02*
X69300000Y-91000000D01*
X48480000Y-42200000D02*
X48460000Y-42300000D01*
X51580000Y-41600000D02*
X51620000Y-41510000D01*
X101020000Y-107070000D02*
X100980000Y-107050000D01*
X66500000Y-84490000D02*
X66510000Y-84390000D01*
X66490000Y-75690000D02*
X66480000Y-75640000D01*
X65820000Y-91010000D02*
X65780000Y-91000000D01*
X102970000Y-67620000D02*
X103050000Y-67670000D01*
X33140000Y-112280000D02*
X33060000Y-112330000D01*
X108490000Y-35980000D02*
X108470000Y-35980000D01*
X101730000Y-96140000D02*
X101670000Y-96060000D01*
X101020000Y-91070000D02*
X100980000Y-91050000D01*
X32400000Y-112500000D02*
X32310000Y-112480000D01*
X48500000Y-122020000D02*
X48500000Y-122120000D01*
X33600000Y-43410000D02*
X33580000Y-43450000D01*
X48210000Y-73290000D02*
X48280000Y-73360000D01*
X33480000Y-100300000D02*
X33490000Y-100390000D01*
X103470000Y-41790000D02*
X103480000Y-41880000D01*
X69180000Y-120990000D02*
X69220000Y-121000000D01*
X31520000Y-41880000D02*
X31530000Y-41790000D01*
X68810000Y-72840000D02*
X68870000Y-72880000D01*
X103410000Y-100110000D02*
X103450000Y-100200000D01*
X48420000Y-74390000D02*
X48380000Y-74480000D01*
X101120000Y-120880000D02*
X101160000Y-120860000D01*
X103050000Y-122840000D02*
X102970000Y-122890000D01*
X68980000Y-59060000D02*
X68940000Y-59080000D01*
X48280000Y-122650000D02*
X48210000Y-122720000D01*
X68520000Y-107610000D02*
X68510000Y-107670000D01*
X34300000Y-59000000D02*
X34260000Y-59000000D01*
X86860000Y-57230000D02*
X86940000Y-57170000D01*
X103260000Y-96140000D02*
X103200000Y-96210000D01*
X66620000Y-63980000D02*
X66580000Y-63890000D01*
X86670000Y-74560000D02*
X86620000Y-74480000D01*
X52200000Y-106960000D02*
X52110000Y-106920000D01*
X51620000Y-74480000D02*
X51580000Y-74390000D01*
X101520000Y-52300000D02*
X101540000Y-52200000D01*
X65790000Y-105000000D02*
X65850000Y-104990000D01*
X31680000Y-122570000D02*
X31630000Y-122490000D01*
X83380000Y-73520000D02*
X83420000Y-73610000D01*
X51500000Y-58110000D02*
X51500000Y-58010000D01*
X33480000Y-47700000D02*
X33460000Y-47800000D01*
X33500000Y-91720000D02*
X33500000Y-91760000D01*
X87390000Y-57010000D02*
X87490000Y-57000000D01*
X67700000Y-112480000D02*
X67610000Y-112500000D01*
X48140000Y-122780000D02*
X48060000Y-122840000D01*
X33940000Y-59080000D02*
X33880000Y-59120000D01*
X86860000Y-122780000D02*
X86790000Y-122720000D01*
X33510000Y-59670000D02*
X33500000Y-59720000D01*
X47890000Y-90920000D02*
X47800000Y-90960000D01*
X33700000Y-104730000D02*
X33750000Y-104780000D01*
X66460000Y-104440000D02*
X66480000Y-104390000D01*
X87200000Y-74960000D02*
X87110000Y-74920000D01*
X51940000Y-122840000D02*
X51860000Y-122780000D01*
X66020000Y-107070000D02*
X65980000Y-107050000D01*
X66360000Y-120660000D02*
X66380000Y-120620000D01*
X31870000Y-83720000D02*
X31950000Y-83670000D01*
X34100000Y-91020000D02*
X34060000Y-91040000D01*
X103450000Y-95800000D02*
X103410000Y-95890000D01*
X86580000Y-106390000D02*
X86540000Y-106300000D01*
X33880000Y-75120000D02*
X33840000Y-75140000D01*
X66460000Y-91560000D02*
X66450000Y-91520000D01*
X103260000Y-112140000D02*
X103200000Y-112210000D01*
X32030000Y-122890000D02*
X31950000Y-122840000D01*
X65940000Y-107040000D02*
X65900000Y-107020000D01*
X66340000Y-43310000D02*
X66310000Y-43280000D01*
X47980000Y-58880000D02*
X47890000Y-58920000D01*
X48330000Y-58560000D02*
X48280000Y-58640000D01*
X48420000Y-57610000D02*
X48460000Y-57700000D01*
X48420000Y-106390000D02*
X48380000Y-106480000D01*
X32120000Y-96420000D02*
X32030000Y-96380000D01*
X101500000Y-72240000D02*
X101500000Y-72200000D01*
X68510000Y-72350000D02*
X68520000Y-72400000D01*
X32030000Y-67620000D02*
X32120000Y-67580000D01*
X66020000Y-120940000D02*
X66050000Y-120920000D01*
X82890000Y-106920000D02*
X82800000Y-106960000D01*
X51790000Y-122720000D02*
X51720000Y-122650000D01*
X86500000Y-41880000D02*
X86520000Y-41790000D01*
X68850000Y-43140000D02*
X68810000Y-43170000D01*
X101300000Y-91270000D02*
X101250000Y-91220000D01*
X87200000Y-106960000D02*
X87110000Y-106920000D01*
X86720000Y-106640000D02*
X86670000Y-106560000D01*
X33880000Y-59120000D02*
X33840000Y-59140000D01*
X101730000Y-80140000D02*
X101670000Y-80060000D01*
X68210000Y-67790000D02*
X68270000Y-67860000D01*
X33560000Y-72510000D02*
X33580000Y-72550000D01*
X33810000Y-59170000D02*
X33770000Y-59200000D01*
X31510000Y-100490000D02*
X31520000Y-100390000D01*
X31630000Y-47980000D02*
X31590000Y-47890000D01*
X66580000Y-84110000D02*
X66620000Y-84020000D01*
X83460000Y-74300000D02*
X83420000Y-74390000D01*
X66360000Y-104660000D02*
X66380000Y-104620000D01*
X101940000Y-96330000D02*
X101860000Y-96280000D01*
X83330000Y-106560000D02*
X83280000Y-106640000D01*
X86500000Y-74110000D02*
X86500000Y-73990000D01*
X108500000Y-128010000D02*
X108500000Y-127990000D01*
X83210000Y-58710000D02*
X83140000Y-58770000D01*
X101500000Y-59800000D02*
X101500000Y-59760000D01*
X86940000Y-42830000D02*
X86860000Y-42770000D01*
X69100000Y-72980000D02*
X69170000Y-72990000D01*
X101730000Y-67860000D02*
X101790000Y-67790000D01*
X101480000Y-59600000D02*
X101460000Y-59550000D01*
X52390000Y-105010000D02*
X52490000Y-105000000D01*
X33500000Y-88200000D02*
X33500000Y-88240000D01*
X51790000Y-105290000D02*
X51860000Y-105230000D01*
X66500000Y-72200000D02*
X66500000Y-68490000D01*
X100700000Y-105000000D02*
X100740000Y-105000000D01*
X32400000Y-51500000D02*
X32500000Y-51500000D01*
X83420000Y-57610000D02*
X83460000Y-57700000D01*
X101360000Y-91350000D02*
X101330000Y-91310000D01*
X32310000Y-115520000D02*
X32400000Y-115500000D01*
X32120000Y-115580000D02*
X32210000Y-115540000D01*
X102500000Y-80500000D02*
X102390000Y-80500000D01*
X101340000Y-72690000D02*
X101380000Y-72630000D01*
X103050000Y-51670000D02*
X103130000Y-51720000D01*
X69180000Y-91010000D02*
X69140000Y-91020000D01*
X31510000Y-79510000D02*
X31510000Y-68490000D01*
X48210000Y-58710000D02*
X48140000Y-58770000D01*
X101730000Y-51860000D02*
X101790000Y-51790000D01*
X33520000Y-88400000D02*
X33540000Y-88450000D01*
X86670000Y-121440000D02*
X86720000Y-121360000D01*
X101490000Y-104330000D02*
X101500000Y-104280000D01*
X66440000Y-56510000D02*
X66460000Y-56450000D01*
X47980000Y-105120000D02*
X48060000Y-105170000D01*
X66250000Y-59220000D02*
X66200000Y-59170000D01*
X102200000Y-67540000D02*
X102300000Y-67520000D01*
X86520000Y-90200000D02*
X86500000Y-90110000D01*
X66540000Y-52200000D02*
X66580000Y-52110000D01*
X102200000Y-115540000D02*
X102300000Y-115520000D01*
X48330000Y-106560000D02*
X48280000Y-106640000D01*
X51790000Y-58710000D02*
X51720000Y-58640000D01*
X52390000Y-42990000D02*
X52300000Y-42980000D01*
X102300000Y-83520000D02*
X102390000Y-83500000D01*
X82800000Y-74960000D02*
X82700000Y-74980000D01*
X68460000Y-63800000D02*
X68420000Y-63890000D01*
X83210000Y-57290000D02*
X83280000Y-57360000D01*
X31630000Y-63980000D02*
X31590000Y-63890000D01*
X100770000Y-59000000D02*
X100700000Y-59000000D01*
X33580000Y-56550000D02*
X33600000Y-56590000D01*
X31630000Y-95980000D02*
X31590000Y-95890000D01*
X103320000Y-83940000D02*
X103370000Y-84020000D01*
X48280000Y-105360000D02*
X48330000Y-105440000D01*
X34140000Y-91020000D02*
X34100000Y-91020000D01*
X102300000Y-96480000D02*
X102200000Y-96460000D01*
X68500000Y-63510000D02*
X68490000Y-63610000D01*
X103490000Y-116490000D02*
X103490000Y-122020000D01*
X65780000Y-73000000D02*
X65850000Y-72990000D01*
X51500000Y-41880000D02*
X51520000Y-41790000D01*
X31530000Y-95700000D02*
X31520000Y-95610000D01*
X65830000Y-56990000D02*
X65900000Y-56980000D01*
X47610000Y-73010000D02*
X47700000Y-73020000D01*
X34140000Y-75020000D02*
X34100000Y-75020000D01*
X32120000Y-64420000D02*
X32030000Y-64380000D01*
X103260000Y-80140000D02*
X103200000Y-80210000D01*
X66520000Y-68300000D02*
X66540000Y-68200000D01*
X34140000Y-43020000D02*
X34100000Y-43020000D01*
X103200000Y-48210000D02*
X103130000Y-48280000D01*
X65740000Y-121000000D02*
X65790000Y-121000000D01*
X83210000Y-106710000D02*
X83140000Y-106770000D01*
X69060000Y-56960000D02*
X69100000Y-56980000D01*
X51620000Y-106480000D02*
X51580000Y-106390000D01*
X66480000Y-107600000D02*
X66460000Y-107550000D01*
X48330000Y-89440000D02*
X48380000Y-89520000D01*
X32500000Y-80500000D02*
X32400000Y-80500000D01*
X67200000Y-99540000D02*
X67300000Y-99520000D01*
X83380000Y-74480000D02*
X83330000Y-74560000D01*
X66500000Y-68490000D02*
X66510000Y-68390000D01*
X31870000Y-67720000D02*
X31950000Y-67670000D01*
X68910000Y-75100000D02*
X68870000Y-75120000D01*
X48210000Y-41280000D02*
X48280000Y-41350000D01*
X52390000Y-57010000D02*
X52490000Y-57000000D01*
X68140000Y-48280000D02*
X68060000Y-48330000D01*
X102880000Y-99580000D02*
X102970000Y-99620000D01*
X66500000Y-72240000D02*
X66500000Y-72200000D01*
X83210000Y-74710000D02*
X83140000Y-74770000D01*
X33600000Y-107410000D02*
X33580000Y-107450000D01*
X66160000Y-107150000D02*
X66120000Y-107120000D01*
X102300000Y-64480000D02*
X102200000Y-64460000D01*
X83500000Y-58110000D02*
X83480000Y-58200000D01*
X103130000Y-80280000D02*
X103050000Y-80330000D01*
X33980000Y-75060000D02*
X33940000Y-75080000D01*
X47610000Y-42990000D02*
X47510000Y-43000000D01*
X83140000Y-58770000D02*
X83060000Y-58830000D01*
X33510000Y-104350000D02*
X33520000Y-104400000D01*
X32030000Y-112380000D02*
X31950000Y-112330000D01*
X67300000Y-48480000D02*
X67200000Y-48460000D01*
X82800000Y-57040000D02*
X82890000Y-57080000D01*
X33620000Y-43370000D02*
X33600000Y-43410000D01*
X87390000Y-42990000D02*
X87300000Y-42980000D01*
X51540000Y-121700000D02*
X51580000Y-121610000D01*
X66500000Y-75750000D02*
X66490000Y-75690000D01*
X52110000Y-41070000D02*
X52200000Y-41030000D01*
X86790000Y-74710000D02*
X86720000Y-74640000D01*
X101340000Y-120690000D02*
X101380000Y-120630000D01*
X68140000Y-83720000D02*
X68210000Y-83790000D01*
X31510000Y-63510000D02*
X31510000Y-52490000D01*
X68490000Y-116390000D02*
X68500000Y-116490000D01*
X68910000Y-91100000D02*
X68850000Y-91140000D01*
X66730000Y-99860000D02*
X66790000Y-99790000D01*
X51790000Y-90710000D02*
X51720000Y-90640000D01*
X47980000Y-122890000D02*
X47890000Y-122930000D01*
X102600000Y-83500000D02*
X102690000Y-83520000D01*
X101520000Y-100300000D02*
X101540000Y-100200000D01*
X34020000Y-104950000D02*
X34060000Y-104960000D01*
X101500000Y-84490000D02*
X101510000Y-84390000D01*
X48060000Y-90830000D02*
X47980000Y-90880000D01*
X67390000Y-115500000D02*
X67490000Y-115500000D01*
X31800000Y-99790000D02*
X31870000Y-99720000D01*
X66130000Y-120880000D02*
X66190000Y-120840000D01*
X83330000Y-89440000D02*
X83380000Y-89520000D01*
X33420000Y-52110000D02*
X33460000Y-52200000D01*
X83140000Y-106770000D02*
X83060000Y-106830000D01*
X100830000Y-91010000D02*
X100770000Y-91000000D01*
X68500000Y-104240000D02*
X68500000Y-104280000D01*
X66020000Y-59060000D02*
X65980000Y-59050000D01*
X51860000Y-58770000D02*
X51790000Y-58710000D01*
X33500000Y-84490000D02*
X33500000Y-88200000D01*
X83480000Y-57800000D02*
X83500000Y-57890000D01*
X102970000Y-83620000D02*
X103050000Y-83670000D01*
X101020000Y-104940000D02*
X101060000Y-104920000D01*
X83500000Y-122020000D02*
X83500000Y-122120000D01*
X68140000Y-64280000D02*
X68060000Y-64330000D01*
X47700000Y-58980000D02*
X47610000Y-58990000D01*
X26500000Y-128020000D02*
X26510000Y-128020000D01*
X66420000Y-107450000D02*
X66400000Y-107410000D01*
X33600000Y-72590000D02*
X33640000Y-72650000D01*
X47510000Y-107000000D02*
X34300000Y-107000000D01*
X65860000Y-91020000D02*
X65820000Y-91010000D01*
X103450000Y-52200000D02*
X103470000Y-52300000D01*
X83420000Y-41600000D02*
X83460000Y-41690000D01*
X66490000Y-56350000D02*
X66500000Y-56290000D01*
X101490000Y-88330000D02*
X101500000Y-88280000D01*
X103480000Y-100390000D02*
X103490000Y-100490000D01*
X101400000Y-75410000D02*
X101360000Y-75350000D01*
X67700000Y-67520000D02*
X67800000Y-67540000D01*
X66480000Y-120390000D02*
X66490000Y-120330000D01*
X67390000Y-99500000D02*
X67490000Y-99500000D01*
X66220000Y-107190000D02*
X66160000Y-107150000D01*
X83460000Y-122310000D02*
X83420000Y-122400000D01*
X68420000Y-68110000D02*
X68460000Y-68200000D01*
X31740000Y-115860000D02*
X31800000Y-115790000D01*
X100900000Y-104980000D02*
X100940000Y-104960000D01*
X31950000Y-41160000D02*
X32030000Y-41110000D01*
X31520000Y-79610000D02*
X31510000Y-79510000D01*
X66620000Y-79980000D02*
X66580000Y-79890000D01*
X66490000Y-59670000D02*
X66480000Y-59610000D01*
X33500000Y-72200000D02*
X33500000Y-72240000D01*
X48480000Y-121800000D02*
X48500000Y-121890000D01*
X31530000Y-122210000D02*
X31520000Y-122120000D01*
X86580000Y-41600000D02*
X86620000Y-41510000D01*
X67800000Y-96460000D02*
X67700000Y-96480000D01*
X51940000Y-106830000D02*
X51860000Y-106770000D01*
X68500000Y-75800000D02*
X68500000Y-79510000D01*
X101020000Y-43060000D02*
X100970000Y-43050000D01*
X51520000Y-74200000D02*
X51500000Y-74110000D01*
X101460000Y-91550000D02*
X101440000Y-91490000D01*
X83140000Y-41220000D02*
X83210000Y-41280000D01*
X82510000Y-121000000D02*
X82610000Y-121010000D01*
X102790000Y-99540000D02*
X102880000Y-99580000D01*
X68850000Y-107140000D02*
X68810000Y-107170000D01*
X102500000Y-123010000D02*
X87490000Y-123010000D01*
X103480000Y-111610000D02*
X103470000Y-111700000D01*
X69180000Y-43010000D02*
X69140000Y-43020000D01*
X68210000Y-64210000D02*
X68140000Y-64280000D01*
X66620000Y-84020000D02*
X66670000Y-83940000D01*
X33690000Y-43280000D02*
X33660000Y-43310000D01*
X87200000Y-58960000D02*
X87110000Y-58920000D01*
X101230000Y-56800000D02*
X101280000Y-56760000D01*
X66430000Y-104520000D02*
X66450000Y-104480000D01*
X87110000Y-41070000D02*
X87200000Y-41030000D01*
X31870000Y-51720000D02*
X31950000Y-51670000D01*
X68540000Y-91560000D02*
X68520000Y-91610000D01*
X101500000Y-116490000D02*
X101510000Y-116390000D01*
X82610000Y-121010000D02*
X82700000Y-121020000D01*
X31800000Y-67790000D02*
X31870000Y-67720000D01*
X68500000Y-88200000D02*
X68500000Y-88240000D01*
X67700000Y-48480000D02*
X67610000Y-48500000D01*
X66230000Y-43200000D02*
X66190000Y-43170000D01*
X34300000Y-91000000D02*
X34260000Y-91000000D01*
X68810000Y-107170000D02*
X68770000Y-107200000D01*
X48060000Y-105170000D02*
X48140000Y-105230000D01*
X51580000Y-105610000D02*
X51620000Y-105520000D01*
X33770000Y-75200000D02*
X33720000Y-75240000D01*
X101280000Y-104760000D02*
X101310000Y-104720000D01*
X100940000Y-59040000D02*
X100900000Y-59020000D01*
X66510000Y-47610000D02*
X66500000Y-47510000D01*
X68460000Y-116200000D02*
X68480000Y-116300000D01*
X33510000Y-107670000D02*
X33500000Y-107720000D01*
X33420000Y-100110000D02*
X33460000Y-100200000D01*
X47800000Y-42960000D02*
X47700000Y-42980000D01*
X83460000Y-73700000D02*
X83480000Y-73800000D01*
X65740000Y-43000000D02*
X65700000Y-43000000D01*
X48140000Y-105230000D02*
X48210000Y-105290000D01*
X101400000Y-43420000D02*
X101380000Y-43380000D01*
X101380000Y-120630000D02*
X101400000Y-120590000D01*
X101420000Y-120550000D02*
X101450000Y-120480000D01*
X102500000Y-115500000D02*
X102600000Y-115500000D01*
X68540000Y-59560000D02*
X68520000Y-59610000D01*
X68500000Y-111510000D02*
X68490000Y-111610000D01*
X102110000Y-96420000D02*
X102020000Y-96380000D01*
X33500000Y-91760000D02*
X33500000Y-91800000D01*
X86670000Y-58560000D02*
X86620000Y-58480000D01*
X66250000Y-120780000D02*
X66280000Y-120750000D01*
X87300000Y-106980000D02*
X87200000Y-106960000D01*
X103050000Y-115670000D02*
X103130000Y-115720000D01*
X33620000Y-59370000D02*
X33600000Y-59410000D01*
X82800000Y-89040000D02*
X82890000Y-89080000D01*
X100860000Y-56980000D02*
X100900000Y-56980000D01*
X68460000Y-79800000D02*
X68420000Y-79890000D01*
X51720000Y-74640000D02*
X51670000Y-74560000D01*
X32500000Y-40990000D02*
X47510000Y-40990000D01*
X51860000Y-122780000D02*
X51790000Y-122720000D01*
X31510000Y-95510000D02*
X31510000Y-84490000D01*
X102200000Y-99540000D02*
X102300000Y-99520000D01*
X33060000Y-83670000D02*
X33140000Y-83720000D01*
X66940000Y-64330000D02*
X66860000Y-64280000D01*
X100980000Y-120950000D02*
X101020000Y-120940000D01*
X66500000Y-52490000D02*
X66510000Y-52390000D01*
X101460000Y-75550000D02*
X101440000Y-75490000D01*
X68910000Y-56900000D02*
X68950000Y-56920000D01*
X51500000Y-42110000D02*
X51500000Y-42010000D01*
X33500000Y-59800000D02*
X33500000Y-63510000D01*
X102500000Y-51500000D02*
X102600000Y-51500000D01*
X83420000Y-58390000D02*
X83380000Y-58480000D01*
X69220000Y-43000000D02*
X69180000Y-43010000D01*
X101460000Y-120440000D02*
X101480000Y-120390000D01*
X83480000Y-41790000D02*
X83500000Y-41880000D01*
X66940000Y-112330000D02*
X66860000Y-112280000D01*
X48060000Y-41160000D02*
X48140000Y-41220000D01*
X87490000Y-89000000D02*
X100700000Y-89000000D01*
X68500000Y-75710000D02*
X68500000Y-75760000D01*
X48460000Y-73700000D02*
X48480000Y-73800000D01*
X32210000Y-64460000D02*
X32120000Y-64420000D01*
X101500000Y-111510000D02*
X101500000Y-107800000D01*
X87490000Y-73000000D02*
X100700000Y-73000000D01*
X86940000Y-74830000D02*
X86860000Y-74770000D01*
X32310000Y-41010000D02*
X32400000Y-41000000D01*
X67020000Y-112380000D02*
X66940000Y-112330000D01*
X66280000Y-43240000D02*
X66230000Y-43200000D01*
X68480000Y-100300000D02*
X68490000Y-100390000D01*
X67510000Y-80500000D02*
X67390000Y-80500000D01*
X68540000Y-72450000D02*
X68560000Y-72510000D01*
X66860000Y-99720000D02*
X66940000Y-99670000D01*
X51860000Y-89230000D02*
X51940000Y-89170000D01*
X87490000Y-105000000D02*
X100700000Y-105000000D01*
X32120000Y-48420000D02*
X32030000Y-48380000D01*
X101540000Y-100200000D02*
X101580000Y-100110000D01*
X69060000Y-59040000D02*
X69020000Y-59050000D01*
X101380000Y-43380000D02*
X101350000Y-43340000D01*
X101310000Y-120720000D02*
X101340000Y-120690000D01*
X68460000Y-100200000D02*
X68480000Y-100300000D01*
X68060000Y-67670000D02*
X68140000Y-67720000D01*
X101940000Y-83670000D02*
X102020000Y-83620000D01*
X47610000Y-106990000D02*
X47510000Y-107000000D01*
X66120000Y-107120000D02*
X66080000Y-107100000D01*
X100940000Y-104960000D02*
X100980000Y-104950000D01*
X100900000Y-43020000D02*
X100830000Y-43010000D01*
X68580000Y-120550000D02*
X68600000Y-120590000D01*
X68510000Y-56350000D02*
X68520000Y-56400000D01*
X101670000Y-83940000D02*
X101730000Y-83860000D01*
X66670000Y-67940000D02*
X66730000Y-67860000D01*
X100820000Y-120990000D02*
X100860000Y-120980000D01*
X82700000Y-57020000D02*
X82800000Y-57040000D01*
X51500000Y-122020000D02*
X51500000Y-121990000D01*
X33380000Y-84020000D02*
X33420000Y-84110000D01*
X86520000Y-41790000D02*
X86540000Y-41690000D01*
X67890000Y-99580000D02*
X67980000Y-99620000D01*
X33940000Y-91080000D02*
X33880000Y-91120000D01*
X33580000Y-43450000D02*
X33550000Y-43520000D01*
X101520000Y-79700000D02*
X101510000Y-79610000D01*
X66510000Y-68390000D02*
X66520000Y-68300000D01*
X101310000Y-104720000D02*
X101340000Y-104690000D01*
X51620000Y-105520000D02*
X51670000Y-105440000D01*
X33210000Y-48210000D02*
X33140000Y-48280000D01*
X103130000Y-96280000D02*
X103050000Y-96330000D01*
X34260000Y-59000000D02*
X34220000Y-59000000D01*
X102690000Y-83520000D02*
X102790000Y-83540000D01*
X66260000Y-72780000D02*
X66300000Y-72730000D01*
X102600000Y-51500000D02*
X102690000Y-51520000D01*
X103260000Y-51860000D02*
X103320000Y-51940000D01*
X68870000Y-75120000D02*
X68810000Y-75160000D01*
X66490000Y-120330000D02*
X66500000Y-120280000D01*
X100780000Y-73000000D02*
X100820000Y-72990000D01*
X102020000Y-67620000D02*
X102110000Y-67580000D01*
X82980000Y-58880000D02*
X82890000Y-58920000D01*
X47800000Y-106960000D02*
X47700000Y-106980000D01*
X66340000Y-88690000D02*
X66380000Y-88630000D01*
X33700000Y-88730000D02*
X33750000Y-88780000D01*
X100740000Y-73000000D02*
X100780000Y-73000000D01*
X69140000Y-88980000D02*
X69180000Y-88990000D01*
X66500000Y-91800000D02*
X66500000Y-91760000D01*
X67300000Y-112480000D02*
X67200000Y-112460000D01*
X83140000Y-74770000D02*
X83060000Y-74830000D01*
X33840000Y-107140000D02*
X33810000Y-107170000D01*
X69300000Y-121000000D02*
X82510000Y-121000000D01*
X87200000Y-122970000D02*
X87110000Y-122930000D01*
X101790000Y-99790000D02*
X101860000Y-99720000D01*
X66450000Y-75530000D02*
X66430000Y-75480000D01*
X69140000Y-43020000D02*
X69100000Y-43020000D01*
X87200000Y-121040000D02*
X87300000Y-121020000D01*
X68210000Y-115790000D02*
X68270000Y-115860000D01*
X32030000Y-96380000D02*
X31950000Y-96330000D01*
X33550000Y-59520000D02*
X33540000Y-59560000D01*
X67800000Y-64460000D02*
X67700000Y-64480000D01*
X101480000Y-104390000D02*
X101490000Y-104330000D01*
X66510000Y-52390000D02*
X66520000Y-52300000D01*
X100830000Y-75010000D02*
X100770000Y-75000000D01*
X31510000Y-116490000D02*
X31520000Y-116390000D01*
X100740000Y-89000000D02*
X100780000Y-89000000D01*
X102690000Y-112480000D02*
X102600000Y-112500000D01*
X33580000Y-107450000D02*
X33550000Y-107520000D01*
X33880000Y-91120000D02*
X33840000Y-91140000D01*
X103260000Y-83860000D02*
X103320000Y-83940000D01*
X101400000Y-72590000D02*
X101420000Y-72550000D01*
X69220000Y-107000000D02*
X69180000Y-107010000D01*
X86520000Y-42200000D02*
X86500000Y-42110000D01*
X101860000Y-112280000D02*
X101790000Y-112210000D01*
X33500000Y-56200000D02*
X33500000Y-56240000D01*
X65940000Y-43040000D02*
X65900000Y-43020000D01*
X33690000Y-75280000D02*
X33660000Y-75310000D01*
X68060000Y-80330000D02*
X67980000Y-80380000D01*
X33480000Y-68300000D02*
X33490000Y-68390000D01*
X103320000Y-115940000D02*
X103370000Y-116020000D01*
X86940000Y-41160000D02*
X87020000Y-41110000D01*
X48380000Y-106480000D02*
X48330000Y-106560000D01*
X33500000Y-56240000D02*
X33500000Y-56290000D01*
X66120000Y-59120000D02*
X66060000Y-59080000D01*
X33840000Y-72850000D02*
X33880000Y-72880000D01*
X103450000Y-84200000D02*
X103470000Y-84300000D01*
X47980000Y-73120000D02*
X48060000Y-73170000D01*
X69260000Y-91000000D02*
X69220000Y-91000000D01*
X48500000Y-105890000D02*
X48500000Y-106010000D01*
X102600000Y-115500000D02*
X102690000Y-115520000D01*
X101500000Y-75800000D02*
X101500000Y-75760000D01*
X103320000Y-51940000D02*
X103370000Y-52020000D01*
X67490000Y-64500000D02*
X67390000Y-64500000D01*
X86540000Y-105700000D02*
X86580000Y-105610000D01*
X48380000Y-73520000D02*
X48420000Y-73610000D01*
X82700000Y-74980000D02*
X82610000Y-74990000D01*
X67020000Y-115620000D02*
X67110000Y-115580000D01*
X87390000Y-123000000D02*
X87300000Y-122990000D01*
X101220000Y-59190000D02*
X101160000Y-59150000D01*
X66020000Y-75060000D02*
X65970000Y-75050000D01*
X68870000Y-72880000D02*
X68910000Y-72900000D01*
X65700000Y-89000000D02*
X65740000Y-89000000D01*
X102500000Y-67500000D02*
X102600000Y-67500000D01*
X34060000Y-75040000D02*
X34020000Y-75050000D01*
X108470000Y-128020000D02*
X108490000Y-128020000D01*
X33720000Y-120750000D02*
X33750000Y-120780000D01*
X33920000Y-104900000D02*
X33980000Y-104930000D01*
X32120000Y-99580000D02*
X32210000Y-99540000D01*
X66450000Y-91520000D02*
X66420000Y-91450000D01*
X103200000Y-83790000D02*
X103260000Y-83860000D01*
X31800000Y-115790000D02*
X31870000Y-115720000D01*
X86520000Y-58200000D02*
X86500000Y-58110000D01*
X51500000Y-42010000D02*
X51500000Y-41980000D01*
X68870000Y-56880000D02*
X68910000Y-56900000D01*
X32210000Y-122970000D02*
X32120000Y-122930000D01*
X82610000Y-57010000D02*
X82700000Y-57020000D01*
X52490000Y-75000000D02*
X52390000Y-74990000D01*
X103480000Y-79610000D02*
X103470000Y-79700000D01*
X102690000Y-64480000D02*
X102600000Y-64500000D01*
X51940000Y-42830000D02*
X51860000Y-42770000D01*
X31530000Y-111700000D02*
X31520000Y-111610000D01*
X101120000Y-43120000D02*
X101060000Y-43080000D01*
X101500000Y-120200000D02*
X101500000Y-116490000D01*
X66620000Y-116020000D02*
X66670000Y-115940000D01*
X87390000Y-90990000D02*
X87300000Y-90980000D01*
X48500000Y-74110000D02*
X48480000Y-74200000D01*
X33540000Y-88450000D02*
X33560000Y-88510000D01*
X82700000Y-105020000D02*
X82800000Y-105040000D01*
X34100000Y-107020000D02*
X34060000Y-107040000D01*
X51520000Y-106200000D02*
X51500000Y-106110000D01*
X31630000Y-111980000D02*
X31590000Y-111890000D01*
X67200000Y-67540000D02*
X67300000Y-67520000D01*
X65780000Y-59000000D02*
X65740000Y-59000000D01*
X31590000Y-84110000D02*
X31630000Y-84020000D01*
X66010000Y-43060000D02*
X65940000Y-43040000D01*
X65700000Y-91000000D02*
X52490000Y-91000000D01*
X103490000Y-84490000D02*
X103490000Y-95510000D01*
X52490000Y-91000000D02*
X52390000Y-90990000D01*
X66280000Y-56750000D02*
X66330000Y-56690000D01*
X32210000Y-115540000D02*
X32310000Y-115520000D01*
X33780000Y-56810000D02*
X33840000Y-56850000D01*
X66520000Y-100300000D02*
X66540000Y-100200000D01*
X66500000Y-56240000D02*
X66500000Y-56200000D01*
X34300000Y-107000000D02*
X34260000Y-107000000D01*
X101480000Y-56390000D02*
X101490000Y-56330000D01*
X34060000Y-72960000D02*
X34100000Y-72980000D01*
X31520000Y-52390000D02*
X31530000Y-52300000D01*
X33490000Y-95610000D02*
X33480000Y-95700000D01*
X108470000Y-35980000D02*
X26530000Y-35980000D01*
X86520000Y-106200000D02*
X86500000Y-106110000D01*
X52300000Y-106980000D02*
X52200000Y-106960000D01*
X100830000Y-107010000D02*
X100770000Y-107000000D01*
X101940000Y-51670000D02*
X102020000Y-51620000D01*
X86580000Y-122400000D02*
X86540000Y-122310000D01*
X68500000Y-107800000D02*
X68500000Y-111510000D01*
X68480000Y-95700000D02*
X68460000Y-95800000D01*
X31530000Y-68300000D02*
X31550000Y-68200000D01*
X68670000Y-56690000D02*
X68700000Y-56730000D01*
X68600000Y-56590000D02*
X68640000Y-56650000D01*
X33880000Y-107120000D02*
X33840000Y-107140000D01*
X33270000Y-112140000D02*
X33210000Y-112210000D01*
X68780000Y-75190000D02*
X68740000Y-75220000D01*
X47800000Y-58960000D02*
X47700000Y-58980000D01*
X102970000Y-64380000D02*
X102880000Y-64420000D01*
X32210000Y-99540000D02*
X32310000Y-99520000D01*
X34220000Y-43000000D02*
X34180000Y-43010000D01*
X51520000Y-90200000D02*
X51500000Y-90110000D01*
X33550000Y-43520000D02*
X33540000Y-43560000D01*
X87390000Y-121010000D02*
X87490000Y-121000000D01*
X33270000Y-51860000D02*
X33330000Y-51940000D01*
X69060000Y-120960000D02*
X69100000Y-120980000D01*
X68990000Y-104940000D02*
X69060000Y-104960000D01*
X83140000Y-105230000D02*
X83210000Y-105290000D01*
X86540000Y-74300000D02*
X86520000Y-74200000D01*
X68620000Y-59370000D02*
X68600000Y-59410000D01*
X103130000Y-51720000D02*
X103200000Y-51790000D01*
X33330000Y-83940000D02*
X33380000Y-84020000D01*
X33500000Y-72240000D02*
X33500000Y-72290000D01*
X68660000Y-88690000D02*
X68690000Y-88720000D01*
X67300000Y-96480000D02*
X67200000Y-96460000D01*
X51720000Y-90640000D02*
X51670000Y-90560000D01*
X32030000Y-51620000D02*
X32120000Y-51580000D01*
X48330000Y-121440000D02*
X48380000Y-121520000D01*
X66360000Y-107350000D02*
X66330000Y-107310000D01*
X66940000Y-83670000D02*
X67020000Y-83620000D01*
X65980000Y-120950000D02*
X66020000Y-120940000D01*
X101400000Y-107410000D02*
X101360000Y-107350000D01*
X31630000Y-52020000D02*
X31680000Y-51940000D01*
X67890000Y-67580000D02*
X67980000Y-67620000D01*
X87490000Y-43000000D02*
X87390000Y-42990000D01*
X68690000Y-104720000D02*
X68720000Y-104760000D01*
X34140000Y-59020000D02*
X34100000Y-59020000D01*
X32400000Y-41000000D02*
X32500000Y-40990000D01*
X67800000Y-83540000D02*
X67890000Y-83580000D01*
X32610000Y-48500000D02*
X32500000Y-48500000D01*
X52020000Y-74880000D02*
X51940000Y-74830000D01*
X101500000Y-72200000D02*
X101500000Y-68490000D01*
X52020000Y-121120000D02*
X52110000Y-121080000D01*
X48330000Y-122570000D02*
X48280000Y-122650000D01*
X101280000Y-72760000D02*
X101310000Y-72720000D01*
X82610000Y-58990000D02*
X82510000Y-59000000D01*
X67110000Y-48420000D02*
X67020000Y-48380000D01*
X48480000Y-122210000D02*
X48460000Y-122310000D01*
X66500000Y-47510000D02*
X66500000Y-43800000D01*
X102600000Y-64500000D02*
X102500000Y-64500000D01*
X66860000Y-115720000D02*
X66940000Y-115670000D01*
X52490000Y-73000000D02*
X65700000Y-73000000D01*
X47890000Y-122930000D02*
X47800000Y-122970000D01*
X31950000Y-112330000D02*
X31870000Y-112280000D01*
X65700000Y-75000000D02*
X52490000Y-75000000D01*
X86500000Y-73990000D02*
X86500000Y-73890000D01*
X32210000Y-80460000D02*
X32120000Y-80420000D01*
X33540000Y-56450000D02*
X33560000Y-56510000D01*
X86860000Y-41220000D02*
X86940000Y-41160000D01*
X47890000Y-73080000D02*
X47980000Y-73120000D01*
X48140000Y-74770000D02*
X48060000Y-74830000D01*
X68500000Y-116490000D02*
X68500000Y-120200000D01*
X68480000Y-52300000D02*
X68490000Y-52390000D01*
X66670000Y-96060000D02*
X66620000Y-95980000D01*
X33750000Y-120780000D02*
X33800000Y-120830000D01*
X66500000Y-56290000D02*
X66500000Y-56240000D01*
X68490000Y-100390000D02*
X68500000Y-100490000D01*
X87110000Y-42920000D02*
X87020000Y-42880000D01*
X65740000Y-91000000D02*
X65700000Y-91000000D01*
X86500000Y-105890000D02*
X86520000Y-105800000D01*
X48330000Y-42560000D02*
X48280000Y-42640000D01*
X31530000Y-63700000D02*
X31520000Y-63610000D01*
X101020000Y-72940000D02*
X101060000Y-72920000D01*
X66500000Y-43720000D02*
X66490000Y-43670000D01*
X101730000Y-112140000D02*
X101670000Y-112060000D01*
X47890000Y-106920000D02*
X47800000Y-106960000D01*
X103050000Y-48330000D02*
X102970000Y-48380000D01*
X66580000Y-111890000D02*
X66540000Y-111800000D01*
X68540000Y-56450000D02*
X68560000Y-56510000D01*
X48280000Y-90640000D02*
X48210000Y-90710000D01*
X102880000Y-41070000D02*
X102970000Y-41110000D01*
X101420000Y-75450000D02*
X101400000Y-75410000D01*
X101160000Y-88860000D02*
X101190000Y-88830000D01*
X66490000Y-104330000D02*
X66500000Y-104280000D01*
X68500000Y-120200000D02*
X68500000Y-120240000D01*
X51720000Y-58640000D02*
X51670000Y-58560000D01*
X33480000Y-52300000D02*
X33490000Y-52390000D01*
X103320000Y-122570000D02*
X103260000Y-122650000D01*
X83280000Y-57360000D02*
X83330000Y-57440000D01*
X68510000Y-91670000D02*
X68500000Y-91720000D01*
X33660000Y-91310000D02*
X33620000Y-91370000D01*
X101120000Y-107120000D02*
X101080000Y-107100000D01*
X102880000Y-67580000D02*
X102970000Y-67620000D01*
X103370000Y-100020000D02*
X103410000Y-100110000D01*
X33060000Y-48330000D02*
X32980000Y-48380000D01*
X32400000Y-83500000D02*
X32500000Y-83500000D01*
X68490000Y-111610000D02*
X68480000Y-111700000D01*
X68520000Y-120390000D02*
X68540000Y-120440000D01*
X66500000Y-111510000D02*
X66500000Y-107800000D01*
X101160000Y-56860000D02*
X101190000Y-56830000D01*
X69260000Y-89000000D02*
X69300000Y-89000000D01*
X86500000Y-57890000D02*
X86520000Y-57800000D01*
X51540000Y-105700000D02*
X51580000Y-105610000D01*
X66280000Y-91240000D02*
X66230000Y-91200000D01*
X52390000Y-74990000D02*
X52300000Y-74980000D01*
X67300000Y-67520000D02*
X67390000Y-67500000D01*
X100770000Y-91000000D02*
X100700000Y-91000000D01*
X68780000Y-56810000D02*
X68810000Y-56840000D01*
X66510000Y-79610000D02*
X66500000Y-79510000D01*
X101520000Y-68300000D02*
X101540000Y-68200000D01*
X32610000Y-115500000D02*
X32700000Y-115520000D01*
X101060000Y-120920000D02*
X101120000Y-120880000D01*
X33780000Y-88810000D02*
X33840000Y-88850000D01*
X48210000Y-42710000D02*
X48140000Y-42770000D01*
X101400000Y-91410000D02*
X101360000Y-91350000D01*
X68210000Y-48210000D02*
X68140000Y-48280000D01*
X31740000Y-96140000D02*
X31680000Y-96060000D01*
X83480000Y-89800000D02*
X83500000Y-89890000D01*
X32610000Y-80500000D02*
X32500000Y-80500000D01*
X86860000Y-90770000D02*
X86790000Y-90710000D01*
X101480000Y-120390000D02*
X101490000Y-120350000D01*
X86670000Y-41430000D02*
X86720000Y-41350000D01*
X66120000Y-56880000D02*
X66160000Y-56850000D01*
X48280000Y-121360000D02*
X48330000Y-121440000D01*
X33750000Y-88780000D02*
X33780000Y-88810000D01*
X31680000Y-80060000D02*
X31630000Y-79980000D01*
X51790000Y-57290000D02*
X51860000Y-57230000D01*
X86580000Y-57610000D02*
X86620000Y-57520000D01*
X86580000Y-105610000D02*
X86620000Y-105520000D01*
X101330000Y-75310000D02*
X101300000Y-75270000D01*
X101080000Y-107100000D02*
X101020000Y-107070000D01*
X86540000Y-106300000D02*
X86520000Y-106200000D01*
X26530000Y-35980000D02*
X26510000Y-35980000D01*
X83380000Y-105520000D02*
X83420000Y-105610000D01*
X83460000Y-57700000D02*
X83480000Y-57800000D01*
X33800000Y-120830000D02*
X33840000Y-120860000D01*
X66790000Y-83790000D02*
X66860000Y-83720000D01*
X100860000Y-72980000D02*
X100900000Y-72980000D01*
X103410000Y-68110000D02*
X103450000Y-68200000D01*
X33500000Y-43720000D02*
X33500000Y-43760000D01*
X47980000Y-90880000D02*
X47890000Y-90920000D01*
X82510000Y-73000000D02*
X82610000Y-73010000D01*
X86620000Y-89520000D02*
X86670000Y-89440000D01*
X32800000Y-96460000D02*
X32700000Y-96480000D01*
X51520000Y-105800000D02*
X51540000Y-105700000D01*
X83500000Y-122120000D02*
X83480000Y-122210000D01*
X101400000Y-88590000D02*
X101420000Y-88550000D01*
X68500000Y-91760000D02*
X68500000Y-91800000D01*
X68720000Y-107240000D02*
X68690000Y-107280000D01*
X32610000Y-51500000D02*
X32700000Y-51520000D01*
X102600000Y-112500000D02*
X102500000Y-112500000D01*
X100830000Y-43010000D02*
X100770000Y-43000000D01*
X33620000Y-107370000D02*
X33600000Y-107410000D01*
X83500000Y-42010000D02*
X83500000Y-42110000D01*
X33210000Y-83790000D02*
X33270000Y-83860000D01*
X103490000Y-95510000D02*
X103480000Y-95610000D01*
X51520000Y-89800000D02*
X51540000Y-89700000D01*
X68500000Y-56200000D02*
X68500000Y-56240000D01*
X83210000Y-90710000D02*
X83140000Y-90770000D01*
X32500000Y-48500000D02*
X32400000Y-48500000D01*
X87110000Y-90920000D02*
X87020000Y-90880000D01*
X52110000Y-105080000D02*
X52200000Y-105040000D01*
X68950000Y-91080000D02*
X68910000Y-91100000D01*
X87020000Y-89120000D02*
X87110000Y-89080000D01*
X51620000Y-41510000D02*
X51670000Y-41430000D01*
X31870000Y-80280000D02*
X31800000Y-80210000D01*
X102880000Y-122930000D02*
X102790000Y-122970000D01*
X33480000Y-84300000D02*
X33490000Y-84390000D01*
X33480000Y-79700000D02*
X33460000Y-79800000D01*
X101670000Y-64060000D02*
X101620000Y-63980000D01*
X67200000Y-80460000D02*
X67110000Y-80420000D01*
X52300000Y-73020000D02*
X52390000Y-73010000D01*
X68490000Y-79610000D02*
X68480000Y-79700000D01*
X103470000Y-52300000D02*
X103480000Y-52390000D01*
X32030000Y-41110000D02*
X32120000Y-41070000D01*
X102790000Y-115540000D02*
X102880000Y-115580000D01*
X101860000Y-64280000D02*
X101790000Y-64210000D01*
X31630000Y-100020000D02*
X31680000Y-99940000D01*
X65940000Y-104960000D02*
X65980000Y-104950000D01*
X83380000Y-122490000D02*
X83330000Y-122570000D01*
X47700000Y-105020000D02*
X47800000Y-105040000D01*
X33520000Y-75610000D02*
X33510000Y-75670000D01*
X68720000Y-104760000D02*
X68770000Y-104800000D01*
X68500000Y-100490000D02*
X68500000Y-104200000D01*
X52390000Y-106990000D02*
X52300000Y-106980000D01*
X69100000Y-120980000D02*
X69140000Y-120980000D01*
X68460000Y-52200000D02*
X68480000Y-52300000D01*
X66670000Y-48060000D02*
X66620000Y-47980000D01*
X101420000Y-104550000D02*
X101450000Y-104480000D01*
X83140000Y-73230000D02*
X83210000Y-73290000D01*
X87390000Y-41000000D02*
X87490000Y-40990000D01*
X66540000Y-47800000D02*
X66520000Y-47700000D01*
X102300000Y-48480000D02*
X102200000Y-48460000D01*
X68140000Y-99720000D02*
X68210000Y-99790000D01*
X33210000Y-64210000D02*
X33140000Y-64280000D01*
X86540000Y-41690000D02*
X86580000Y-41600000D01*
X101500000Y-43750000D02*
X101490000Y-43690000D01*
X33380000Y-100020000D02*
X33420000Y-100110000D01*
X101620000Y-116020000D02*
X101670000Y-115940000D01*
X67200000Y-115540000D02*
X67300000Y-115520000D01*
X33840000Y-91140000D02*
X33810000Y-91170000D01*
X68500000Y-91720000D02*
X68500000Y-91760000D01*
X66420000Y-88550000D02*
X66450000Y-88480000D01*
X47800000Y-122970000D02*
X47700000Y-122990000D01*
X33810000Y-43170000D02*
X33770000Y-43200000D01*
X83480000Y-121800000D02*
X83500000Y-121890000D01*
X68420000Y-111890000D02*
X68380000Y-111980000D01*
X83380000Y-106480000D02*
X83330000Y-106560000D01*
X83500000Y-121890000D02*
X83500000Y-121990000D01*
X82980000Y-106880000D02*
X82890000Y-106920000D01*
X52490000Y-121000000D02*
X65700000Y-121000000D01*
X65740000Y-89000000D02*
X65780000Y-89000000D01*
X86720000Y-73360000D02*
X86790000Y-73290000D01*
X51540000Y-106300000D02*
X51520000Y-106200000D01*
X47800000Y-41030000D02*
X47890000Y-41070000D01*
X101940000Y-67670000D02*
X102020000Y-67620000D01*
X66580000Y-116110000D02*
X66620000Y-116020000D01*
X33060000Y-80330000D02*
X32980000Y-80380000D01*
X66050000Y-43080000D02*
X66010000Y-43060000D01*
X108500000Y-35990000D02*
X108500000Y-35980000D01*
X48280000Y-41350000D02*
X48330000Y-41430000D01*
X66010000Y-91060000D02*
X65940000Y-91040000D01*
X47700000Y-90980000D02*
X47610000Y-90990000D01*
X101620000Y-79980000D02*
X101580000Y-79890000D01*
X31520000Y-122120000D02*
X31510000Y-122020000D01*
X47980000Y-106880000D02*
X47890000Y-106920000D01*
X101510000Y-52390000D02*
X101520000Y-52300000D01*
X68140000Y-67720000D02*
X68210000Y-67790000D01*
X32400000Y-96500000D02*
X32310000Y-96480000D01*
X34180000Y-91010000D02*
X34140000Y-91020000D01*
X67610000Y-96500000D02*
X67490000Y-96500000D01*
X68210000Y-99790000D02*
X68270000Y-99860000D01*
X82700000Y-121020000D02*
X82800000Y-121040000D01*
X33910000Y-43100000D02*
X33850000Y-43140000D01*
X86790000Y-105290000D02*
X86860000Y-105230000D01*
X65860000Y-59020000D02*
X65820000Y-59010000D01*
X68500000Y-104200000D02*
X68500000Y-104240000D01*
X101330000Y-59310000D02*
X101300000Y-59270000D01*
X31870000Y-112280000D02*
X31800000Y-112210000D01*
X31800000Y-122720000D02*
X31740000Y-122650000D01*
X101330000Y-91310000D02*
X101300000Y-91270000D01*
X68500000Y-120280000D02*
X68510000Y-120330000D01*
X68500000Y-72240000D02*
X68500000Y-72290000D01*
X66190000Y-91170000D02*
X66150000Y-91140000D01*
X102020000Y-115620000D02*
X102110000Y-115580000D01*
X32210000Y-48460000D02*
X32120000Y-48420000D01*
X65900000Y-107020000D02*
X65830000Y-107010000D01*
X33620000Y-75370000D02*
X33600000Y-75410000D01*
X33620000Y-120620000D02*
X33650000Y-120660000D01*
X33550000Y-75520000D02*
X33540000Y-75560000D01*
X101540000Y-111800000D02*
X101520000Y-111700000D01*
X83420000Y-90390000D02*
X83380000Y-90480000D01*
X101730000Y-115860000D02*
X101790000Y-115790000D01*
X65910000Y-72970000D02*
X65940000Y-72960000D01*
X31590000Y-95890000D02*
X31550000Y-95800000D01*
X31590000Y-41600000D02*
X31630000Y-41510000D01*
X67020000Y-96380000D02*
X66940000Y-96330000D01*
X100860000Y-104980000D02*
X100900000Y-104980000D01*
X102970000Y-115620000D02*
X103050000Y-115670000D01*
X33420000Y-79890000D02*
X33380000Y-79980000D01*
X86720000Y-74640000D02*
X86670000Y-74560000D01*
X32120000Y-112420000D02*
X32030000Y-112380000D01*
X65980000Y-59050000D02*
X65940000Y-59040000D01*
X66430000Y-120520000D02*
X66450000Y-120480000D01*
X69180000Y-107010000D02*
X69140000Y-107020000D01*
X103490000Y-47510000D02*
X103480000Y-47610000D01*
X66280000Y-59250000D02*
X66250000Y-59220000D01*
X48420000Y-89610000D02*
X48460000Y-89700000D01*
X87390000Y-58990000D02*
X87300000Y-58980000D01*
X86620000Y-121520000D02*
X86670000Y-121440000D01*
X68270000Y-80140000D02*
X68210000Y-80210000D01*
X66480000Y-72400000D02*
X66490000Y-72350000D01*
X86500000Y-122120000D02*
X86500000Y-122020000D01*
X31630000Y-79980000D02*
X31590000Y-79890000D01*
X47510000Y-123010000D02*
X32500000Y-123010000D01*
X65700000Y-105000000D02*
X65740000Y-105000000D01*
X83060000Y-106830000D02*
X82980000Y-106880000D01*
X101580000Y-84110000D02*
X101620000Y-84020000D01*
X32400000Y-115500000D02*
X32510000Y-115500000D01*
X100900000Y-59020000D02*
X100830000Y-59010000D01*
X66580000Y-68110000D02*
X66620000Y-68020000D01*
X51940000Y-105170000D02*
X52020000Y-105120000D01*
X34220000Y-91000000D02*
X34180000Y-91010000D01*
X101510000Y-100390000D02*
X101520000Y-100300000D01*
X101500000Y-72280000D02*
X101500000Y-72240000D01*
X100700000Y-107000000D02*
X87490000Y-107000000D01*
X102200000Y-83540000D02*
X102300000Y-83520000D01*
X100740000Y-57000000D02*
X100780000Y-57000000D01*
X66460000Y-72450000D02*
X66480000Y-72400000D01*
X103480000Y-95610000D02*
X103470000Y-95700000D01*
X34300000Y-75000000D02*
X34260000Y-75000000D01*
X51580000Y-90390000D02*
X51540000Y-90300000D01*
X34100000Y-75020000D02*
X34060000Y-75040000D01*
X102390000Y-64500000D02*
X102300000Y-64480000D01*
X86540000Y-73700000D02*
X86580000Y-73610000D01*
X87490000Y-75000000D02*
X87390000Y-74990000D01*
X31510000Y-122020000D02*
X31510000Y-116490000D01*
X32980000Y-99620000D02*
X33060000Y-99670000D01*
X101200000Y-43170000D02*
X101160000Y-43140000D01*
X82510000Y-57000000D02*
X82610000Y-57010000D01*
X52110000Y-42920000D02*
X52020000Y-42880000D01*
X68540000Y-75550000D02*
X68520000Y-75600000D01*
X47980000Y-42880000D02*
X47890000Y-42920000D01*
X33980000Y-56930000D02*
X34020000Y-56950000D01*
X68500000Y-107760000D02*
X68500000Y-107800000D01*
X82800000Y-122970000D02*
X82700000Y-122990000D01*
X33850000Y-43140000D02*
X33810000Y-43170000D01*
X32400000Y-48500000D02*
X32310000Y-48480000D01*
X101500000Y-59710000D02*
X101490000Y-59650000D01*
X86500000Y-122020000D02*
X86500000Y-121990000D01*
X68490000Y-84390000D02*
X68500000Y-84490000D01*
X32400000Y-64500000D02*
X32310000Y-64480000D01*
X102600000Y-123000000D02*
X102500000Y-123010000D01*
X33490000Y-68390000D02*
X33500000Y-68490000D01*
X66500000Y-107710000D02*
X66490000Y-107650000D01*
X66540000Y-63800000D02*
X66520000Y-63700000D01*
X33780000Y-72810000D02*
X33840000Y-72850000D01*
X47700000Y-106980000D02*
X47610000Y-106990000D01*
X101060000Y-56920000D02*
X101120000Y-56880000D01*
X32610000Y-64500000D02*
X32500000Y-64500000D01*
X51540000Y-73700000D02*
X51580000Y-73610000D01*
X66160000Y-59140000D02*
X66120000Y-59120000D01*
X48480000Y-57800000D02*
X48500000Y-57890000D01*
X48330000Y-90560000D02*
X48280000Y-90640000D01*
X66500000Y-104240000D02*
X66500000Y-104200000D01*
X101670000Y-96060000D02*
X101620000Y-95980000D01*
X86790000Y-121290000D02*
X86860000Y-121230000D01*
X66580000Y-79890000D02*
X66540000Y-79800000D01*
X101500000Y-43800000D02*
X101500000Y-43750000D01*
X101020000Y-75070000D02*
X100980000Y-75050000D01*
X47980000Y-57120000D02*
X48060000Y-57170000D01*
X103490000Y-41980000D02*
X103490000Y-47510000D01*
X68950000Y-104920000D02*
X68990000Y-104940000D01*
X32890000Y-64420000D02*
X32800000Y-64460000D01*
X83380000Y-121520000D02*
X83420000Y-121610000D01*
X32610000Y-99500000D02*
X32700000Y-99520000D01*
X101580000Y-100110000D02*
X101620000Y-100020000D01*
X103490000Y-63510000D02*
X103480000Y-63610000D01*
X101230000Y-104800000D02*
X101280000Y-104760000D01*
X66090000Y-88900000D02*
X66150000Y-88860000D01*
X31950000Y-48330000D02*
X31870000Y-48280000D01*
X102880000Y-115580000D02*
X102970000Y-115620000D01*
X68500000Y-52490000D02*
X68500000Y-56200000D01*
X51860000Y-57230000D02*
X51940000Y-57170000D01*
X103410000Y-79890000D02*
X103370000Y-79980000D01*
X65820000Y-43010000D02*
X65780000Y-43000000D01*
X101510000Y-63610000D02*
X101500000Y-63510000D01*
X52200000Y-74960000D02*
X52110000Y-74920000D01*
X83060000Y-122840000D02*
X82980000Y-122890000D01*
X66400000Y-88590000D02*
X66420000Y-88550000D01*
X101160000Y-91150000D02*
X101120000Y-91120000D01*
X33720000Y-75240000D02*
X33690000Y-75280000D01*
X34060000Y-91040000D02*
X34020000Y-91050000D01*
X86670000Y-57440000D02*
X86720000Y-57360000D01*
X32700000Y-83520000D02*
X32800000Y-83540000D01*
X51620000Y-42480000D02*
X51580000Y-42390000D01*
X67110000Y-99580000D02*
X67200000Y-99540000D01*
X86520000Y-105800000D02*
X86540000Y-105700000D01*
X31800000Y-112210000D02*
X31740000Y-112140000D01*
X34300000Y-121000000D02*
X47510000Y-121000000D01*
X68660000Y-120690000D02*
X68690000Y-120720000D01*
X31950000Y-64330000D02*
X31870000Y-64280000D01*
X103320000Y-99940000D02*
X103370000Y-100020000D01*
X103370000Y-63980000D02*
X103320000Y-64060000D01*
X33480000Y-95700000D02*
X33460000Y-95800000D01*
X66050000Y-120920000D02*
X66090000Y-120900000D01*
X33490000Y-79610000D02*
X33480000Y-79700000D01*
X31530000Y-84300000D02*
X31550000Y-84200000D01*
X52020000Y-73120000D02*
X52110000Y-73080000D01*
X68330000Y-48060000D02*
X68270000Y-48140000D01*
X52110000Y-73080000D02*
X52200000Y-73040000D01*
X33600000Y-56590000D02*
X33640000Y-56650000D01*
X31870000Y-48280000D02*
X31800000Y-48210000D01*
X51520000Y-57800000D02*
X51540000Y-57700000D01*
X69170000Y-72990000D02*
X69230000Y-73000000D01*
X102690000Y-67520000D02*
X102790000Y-67540000D01*
X69300000Y-57000000D02*
X82510000Y-57000000D01*
X68690000Y-43280000D02*
X68660000Y-43310000D01*
X100700000Y-73000000D02*
X100740000Y-73000000D01*
X66500000Y-100490000D02*
X66510000Y-100390000D01*
X66940000Y-48330000D02*
X66860000Y-48280000D01*
X32980000Y-51620000D02*
X33060000Y-51670000D01*
X66090000Y-72900000D02*
X66130000Y-72880000D01*
X33500000Y-120200000D02*
X33500000Y-120250000D01*
X68380000Y-84020000D02*
X68420000Y-84110000D01*
X103410000Y-41600000D02*
X103450000Y-41690000D01*
X66190000Y-88830000D02*
X66230000Y-88800000D01*
X34100000Y-59020000D02*
X34060000Y-59040000D01*
X51500000Y-41980000D02*
X51500000Y-41880000D01*
X101120000Y-72880000D02*
X101160000Y-72860000D01*
X66540000Y-95800000D02*
X66520000Y-95700000D01*
X33490000Y-47610000D02*
X33480000Y-47700000D01*
X82800000Y-121040000D02*
X82890000Y-121080000D01*
X82700000Y-73020000D02*
X82800000Y-73040000D01*
X66230000Y-91200000D02*
X66190000Y-91170000D01*
X51670000Y-105440000D02*
X51720000Y-105360000D01*
X102880000Y-80420000D02*
X102790000Y-80460000D01*
X68420000Y-100110000D02*
X68460000Y-100200000D01*
X66400000Y-59420000D02*
X66380000Y-59380000D01*
X33460000Y-100200000D02*
X33480000Y-100300000D01*
X68420000Y-63890000D02*
X68380000Y-63980000D01*
X102500000Y-99500000D02*
X102600000Y-99500000D01*
X101620000Y-52020000D02*
X101670000Y-51940000D01*
X48500000Y-90110000D02*
X48480000Y-90200000D01*
X101300000Y-107270000D02*
X101250000Y-107220000D01*
X51720000Y-105360000D02*
X51790000Y-105290000D01*
X86860000Y-42770000D02*
X86790000Y-42710000D01*
X31680000Y-51940000D02*
X31740000Y-51860000D01*
X68510000Y-43670000D02*
X68500000Y-43720000D01*
X48140000Y-73230000D02*
X48210000Y-73290000D01*
X68640000Y-75350000D02*
X68600000Y-75410000D01*
X82890000Y-58920000D02*
X82800000Y-58960000D01*
X101060000Y-88920000D02*
X101120000Y-88880000D01*
X103410000Y-122400000D02*
X103370000Y-122490000D01*
X86580000Y-90390000D02*
X86540000Y-90300000D01*
X33540000Y-72450000D02*
X33560000Y-72510000D01*
X68810000Y-56840000D02*
X68870000Y-56880000D01*
X83500000Y-58010000D02*
X83500000Y-58110000D01*
X48330000Y-57440000D02*
X48380000Y-57520000D01*
X47800000Y-73040000D02*
X47890000Y-73080000D01*
X66520000Y-116300000D02*
X66540000Y-116200000D01*
X101860000Y-96280000D02*
X101790000Y-96210000D01*
X68600000Y-72590000D02*
X68640000Y-72650000D01*
X82700000Y-89020000D02*
X82800000Y-89040000D01*
X68690000Y-91280000D02*
X68660000Y-91310000D01*
X68580000Y-91450000D02*
X68550000Y-91520000D01*
X34300000Y-43000000D02*
X34260000Y-43000000D01*
X68580000Y-107450000D02*
X68550000Y-107520000D01*
X102790000Y-64460000D02*
X102690000Y-64480000D01*
X101500000Y-107710000D02*
X101490000Y-107650000D01*
X86520000Y-73800000D02*
X86540000Y-73700000D01*
X102020000Y-64380000D02*
X101940000Y-64330000D01*
X52300000Y-122990000D02*
X52200000Y-122970000D01*
X67390000Y-83500000D02*
X67510000Y-83500000D01*
X102500000Y-112500000D02*
X102390000Y-112500000D01*
X83460000Y-90300000D02*
X83420000Y-90390000D01*
X100900000Y-72980000D02*
X100940000Y-72960000D01*
X31520000Y-68390000D02*
X31530000Y-68300000D01*
X86720000Y-122650000D02*
X86670000Y-122570000D01*
X101230000Y-72800000D02*
X101280000Y-72760000D01*
X34100000Y-120980000D02*
X34170000Y-120990000D01*
X103200000Y-122720000D02*
X103130000Y-122780000D01*
X101860000Y-99720000D02*
X101940000Y-99670000D01*
X68060000Y-112330000D02*
X67980000Y-112380000D01*
X82610000Y-89010000D02*
X82700000Y-89020000D01*
X83500000Y-105890000D02*
X83500000Y-105990000D01*
X33840000Y-75140000D02*
X33810000Y-75170000D01*
X82890000Y-121080000D02*
X82980000Y-121120000D01*
X31590000Y-100110000D02*
X31630000Y-100020000D01*
X102110000Y-48420000D02*
X102020000Y-48380000D01*
X34260000Y-43000000D02*
X34220000Y-43000000D01*
X33520000Y-43610000D02*
X33510000Y-43670000D01*
X66350000Y-59340000D02*
X66310000Y-59280000D01*
X86500000Y-89990000D02*
X86500000Y-89890000D01*
X48420000Y-42390000D02*
X48380000Y-42480000D01*
X48210000Y-121290000D02*
X48280000Y-121360000D01*
X67300000Y-80480000D02*
X67200000Y-80460000D01*
X103200000Y-99790000D02*
X103260000Y-99860000D01*
X48460000Y-89700000D02*
X48480000Y-89800000D01*
X103200000Y-80210000D02*
X103130000Y-80280000D01*
X33500000Y-68490000D02*
X33500000Y-72200000D01*
X66380000Y-43370000D02*
X66340000Y-43310000D01*
X31870000Y-96280000D02*
X31800000Y-96210000D01*
X86540000Y-121700000D02*
X86580000Y-121610000D01*
X66190000Y-43170000D02*
X66150000Y-43140000D01*
X33670000Y-56690000D02*
X33700000Y-56730000D01*
X66580000Y-52110000D02*
X66620000Y-52020000D01*
X52200000Y-58960000D02*
X52110000Y-58920000D01*
X102970000Y-51620000D02*
X103050000Y-51670000D01*
X103370000Y-79980000D02*
X103320000Y-80060000D01*
X33270000Y-80140000D02*
X33210000Y-80210000D01*
X32700000Y-64480000D02*
X32610000Y-64500000D01*
X48500000Y-74010000D02*
X48500000Y-74110000D01*
X100980000Y-107050000D02*
X100940000Y-107040000D01*
X48060000Y-122840000D02*
X47980000Y-122890000D01*
X86790000Y-90710000D02*
X86720000Y-90640000D01*
X86620000Y-106480000D02*
X86580000Y-106390000D01*
X65740000Y-105000000D02*
X65790000Y-105000000D01*
X47800000Y-90960000D02*
X47700000Y-90980000D01*
X69140000Y-91020000D02*
X69100000Y-91020000D01*
X65900000Y-56980000D02*
X65940000Y-56960000D01*
X101450000Y-43530000D02*
X101430000Y-43480000D01*
X101190000Y-72830000D02*
X101230000Y-72800000D01*
X52200000Y-57040000D02*
X52300000Y-57020000D01*
X33500000Y-95510000D02*
X33490000Y-95610000D01*
X66490000Y-91670000D02*
X66480000Y-91610000D01*
X52300000Y-58980000D02*
X52200000Y-58960000D01*
X66500000Y-107760000D02*
X66500000Y-107710000D01*
X83060000Y-58830000D02*
X82980000Y-58880000D01*
X68540000Y-104440000D02*
X68550000Y-104480000D01*
X86670000Y-89440000D02*
X86720000Y-89360000D01*
X83500000Y-41880000D02*
X83500000Y-41980000D01*
X103450000Y-63800000D02*
X103410000Y-63890000D01*
X32400000Y-123000000D02*
X32310000Y-122990000D01*
X31680000Y-96060000D02*
X31630000Y-95980000D01*
X34180000Y-107010000D02*
X34140000Y-107020000D01*
X33520000Y-91610000D02*
X33510000Y-91670000D01*
X48460000Y-122310000D02*
X48420000Y-122400000D01*
X101280000Y-43250000D02*
X101250000Y-43220000D01*
X66440000Y-72510000D02*
X66460000Y-72450000D01*
X68810000Y-88830000D02*
X68850000Y-88860000D01*
X102390000Y-48500000D02*
X102300000Y-48480000D01*
X66250000Y-107220000D02*
X66220000Y-107190000D01*
X101220000Y-75190000D02*
X101160000Y-75150000D01*
X51670000Y-121440000D02*
X51720000Y-121360000D01*
X86520000Y-121800000D02*
X86540000Y-121700000D01*
X67980000Y-48380000D02*
X67890000Y-48420000D01*
X86500000Y-41980000D02*
X86500000Y-41880000D01*
X86940000Y-106830000D02*
X86860000Y-106770000D01*
X101670000Y-99940000D02*
X101730000Y-99860000D01*
X101540000Y-63800000D02*
X101520000Y-63700000D01*
X51580000Y-74390000D02*
X51540000Y-74300000D01*
X52020000Y-41110000D02*
X52110000Y-41070000D01*
X34170000Y-72990000D02*
X34230000Y-73000000D01*
X101620000Y-95980000D02*
X101580000Y-95890000D01*
X101940000Y-80330000D02*
X101860000Y-80280000D01*
X66730000Y-51860000D02*
X66790000Y-51790000D01*
X66500000Y-79510000D02*
X66500000Y-75800000D01*
X82700000Y-106980000D02*
X82610000Y-106990000D01*
X101120000Y-91120000D02*
X101080000Y-91100000D01*
X66540000Y-68200000D02*
X66580000Y-68110000D01*
X101500000Y-56200000D02*
X101500000Y-52490000D01*
X87490000Y-57000000D02*
X100700000Y-57000000D01*
X103490000Y-111510000D02*
X103480000Y-111610000D01*
X103480000Y-122120000D02*
X103470000Y-122210000D01*
X48420000Y-121610000D02*
X48460000Y-121700000D01*
X33810000Y-107170000D02*
X33770000Y-107200000D01*
X66500000Y-43800000D02*
X66500000Y-43760000D01*
X68850000Y-120860000D02*
X68910000Y-120900000D01*
X52300000Y-89020000D02*
X52390000Y-89010000D01*
X33500000Y-72290000D02*
X33510000Y-72350000D01*
X102200000Y-64460000D02*
X102110000Y-64420000D01*
X66580000Y-63890000D02*
X66540000Y-63800000D01*
X66420000Y-72550000D02*
X66440000Y-72510000D01*
X66620000Y-100020000D02*
X66670000Y-99940000D01*
X102970000Y-122890000D02*
X102880000Y-122930000D01*
X33270000Y-67860000D02*
X33330000Y-67940000D01*
X66460000Y-88440000D02*
X66480000Y-88390000D01*
X101500000Y-107760000D02*
X101500000Y-107710000D01*
X33420000Y-63890000D02*
X33380000Y-63980000D01*
X48380000Y-74480000D02*
X48330000Y-74560000D01*
X86790000Y-89290000D02*
X86860000Y-89230000D01*
X66280000Y-104750000D02*
X66330000Y-104700000D01*
X34100000Y-56980000D02*
X34170000Y-56990000D01*
X101340000Y-104690000D02*
X101380000Y-104630000D01*
X48060000Y-89170000D02*
X48140000Y-89230000D01*
X66400000Y-107410000D02*
X66360000Y-107350000D01*
X87110000Y-121080000D02*
X87200000Y-121040000D01*
X67490000Y-99500000D02*
X67610000Y-99500000D01*
X66310000Y-43280000D02*
X66280000Y-43240000D01*
X33460000Y-79800000D02*
X33420000Y-79890000D01*
X67020000Y-80380000D02*
X66940000Y-80330000D01*
X103320000Y-41430000D02*
X103370000Y-41510000D01*
X66330000Y-56690000D02*
X66360000Y-56650000D01*
X66500000Y-120280000D02*
X66500000Y-120240000D01*
X101190000Y-120830000D02*
X101230000Y-120800000D01*
X33460000Y-95800000D02*
X33420000Y-95890000D01*
X33880000Y-88880000D02*
X33920000Y-88900000D01*
X52490000Y-59000000D02*
X52390000Y-58990000D01*
X33210000Y-115790000D02*
X33270000Y-115860000D01*
X51580000Y-89610000D02*
X51620000Y-89520000D01*
X65860000Y-43020000D02*
X65820000Y-43010000D01*
X68500000Y-79510000D02*
X68490000Y-79610000D01*
X66360000Y-72650000D02*
X66400000Y-72590000D01*
X33520000Y-72400000D02*
X33540000Y-72450000D01*
X33600000Y-75410000D02*
X33580000Y-75450000D01*
X68660000Y-107310000D02*
X68620000Y-107370000D01*
X48060000Y-106830000D02*
X47980000Y-106880000D01*
X32980000Y-115620000D02*
X33060000Y-115670000D01*
X100940000Y-91040000D02*
X100900000Y-91020000D01*
X101500000Y-91800000D02*
X101500000Y-91760000D01*
X51500000Y-121990000D02*
X51500000Y-121890000D01*
X51720000Y-42640000D02*
X51670000Y-42560000D01*
X34180000Y-75010000D02*
X34140000Y-75020000D01*
X32980000Y-112380000D02*
X32890000Y-112420000D01*
X101020000Y-59070000D02*
X100980000Y-59050000D01*
X48460000Y-74300000D02*
X48420000Y-74390000D01*
X66500000Y-95510000D02*
X66500000Y-91800000D01*
X51860000Y-74770000D02*
X51790000Y-74710000D01*
X32980000Y-64380000D02*
X32890000Y-64420000D01*
X103260000Y-122650000D02*
X103200000Y-122720000D01*
X87300000Y-105020000D02*
X87390000Y-105010000D01*
X33500000Y-43760000D02*
X33500000Y-43800000D01*
X33620000Y-91370000D02*
X33600000Y-91410000D01*
X101500000Y-88240000D02*
X101500000Y-88200000D01*
X32310000Y-99520000D02*
X32400000Y-99500000D01*
X68270000Y-48140000D02*
X68210000Y-48210000D01*
X100780000Y-57000000D02*
X100820000Y-56990000D01*
X101350000Y-43340000D02*
X101310000Y-43280000D01*
X102880000Y-64420000D02*
X102790000Y-64460000D01*
X87490000Y-123010000D02*
X87390000Y-123000000D01*
X47610000Y-74990000D02*
X47510000Y-75000000D01*
X101670000Y-115940000D02*
X101730000Y-115860000D01*
X101310000Y-72720000D02*
X101340000Y-72690000D01*
X68480000Y-63700000D02*
X68460000Y-63800000D01*
X100860000Y-88980000D02*
X100900000Y-88980000D01*
X32980000Y-96380000D02*
X32890000Y-96420000D01*
X31740000Y-48140000D02*
X31680000Y-48060000D01*
X48380000Y-89520000D02*
X48420000Y-89610000D01*
X51860000Y-90770000D02*
X51790000Y-90710000D01*
X31740000Y-83860000D02*
X31800000Y-83790000D01*
X51520000Y-122210000D02*
X51500000Y-122120000D01*
X68550000Y-91520000D02*
X68540000Y-91560000D01*
X83380000Y-89520000D02*
X83420000Y-89610000D01*
X82510000Y-40990000D02*
X82610000Y-41000000D01*
X82700000Y-122990000D02*
X82610000Y-123000000D01*
X101490000Y-91650000D02*
X101480000Y-91600000D01*
X52200000Y-90960000D02*
X52110000Y-90920000D01*
X101500000Y-91760000D02*
X101500000Y-91710000D01*
X101620000Y-84020000D02*
X101670000Y-83940000D01*
X68500000Y-88240000D02*
X68500000Y-88280000D01*
X66090000Y-104900000D02*
X66130000Y-104880000D01*
X33980000Y-120940000D02*
X34030000Y-120950000D01*
X66220000Y-72810000D02*
X66260000Y-72780000D01*
X103200000Y-96210000D02*
X103130000Y-96280000D01*
X66520000Y-84300000D02*
X66540000Y-84200000D01*
X33330000Y-96060000D02*
X33270000Y-96140000D01*
X68990000Y-107060000D02*
X68950000Y-107080000D01*
X66540000Y-111800000D02*
X66520000Y-111700000D01*
X32800000Y-80460000D02*
X32700000Y-80480000D01*
X68210000Y-83790000D02*
X68270000Y-83860000D01*
X48500000Y-121990000D02*
X48500000Y-122020000D01*
X31630000Y-68020000D02*
X31680000Y-67940000D01*
X68850000Y-88860000D02*
X68910000Y-88900000D01*
X51720000Y-122650000D02*
X51670000Y-122570000D01*
X33940000Y-120920000D02*
X33980000Y-120940000D01*
X33770000Y-59200000D02*
X33720000Y-59240000D01*
X65860000Y-88980000D02*
X65900000Y-88980000D01*
X102970000Y-99620000D02*
X103050000Y-99670000D01*
X69140000Y-104980000D02*
X69180000Y-104990000D01*
X87020000Y-106880000D02*
X86940000Y-106830000D01*
X66220000Y-104810000D02*
X66250000Y-104780000D01*
X68810000Y-75160000D02*
X68780000Y-75190000D01*
X68740000Y-75220000D02*
X68700000Y-75270000D01*
X101470000Y-43590000D02*
X101450000Y-43530000D01*
X103370000Y-68020000D02*
X103410000Y-68110000D01*
X34100000Y-104980000D02*
X34170000Y-104990000D01*
X48500000Y-73890000D02*
X48500000Y-74010000D01*
X33420000Y-84110000D02*
X33460000Y-84200000D01*
X33420000Y-111890000D02*
X33380000Y-111980000D01*
X52110000Y-121080000D02*
X52200000Y-121040000D01*
X68560000Y-56510000D02*
X68580000Y-56550000D01*
X68480000Y-47700000D02*
X68460000Y-47800000D01*
X66500000Y-88240000D02*
X66500000Y-88200000D01*
X33380000Y-116020000D02*
X33420000Y-116110000D01*
X68380000Y-47980000D02*
X68330000Y-48060000D01*
X103470000Y-111700000D02*
X103450000Y-111800000D01*
X33660000Y-59310000D02*
X33620000Y-59370000D01*
X32500000Y-123010000D02*
X32400000Y-123000000D01*
X33840000Y-88850000D02*
X33880000Y-88880000D01*
X65900000Y-59020000D02*
X65860000Y-59020000D01*
X68690000Y-59280000D02*
X68660000Y-59310000D01*
X102880000Y-96420000D02*
X102790000Y-96460000D01*
X31550000Y-95800000D02*
X31530000Y-95700000D01*
X33500000Y-79510000D02*
X33490000Y-79610000D01*
X47800000Y-57040000D02*
X47890000Y-57080000D01*
X66730000Y-112140000D02*
X66670000Y-112060000D01*
X102790000Y-122970000D02*
X102690000Y-122990000D01*
X68550000Y-88480000D02*
X68580000Y-88550000D01*
X67200000Y-112460000D02*
X67110000Y-112420000D01*
X83060000Y-90830000D02*
X82980000Y-90880000D01*
X86860000Y-106770000D02*
X86790000Y-106710000D01*
X66330000Y-72690000D02*
X66360000Y-72650000D01*
X32210000Y-67540000D02*
X32310000Y-67520000D01*
X31530000Y-100300000D02*
X31550000Y-100200000D01*
X67200000Y-48460000D02*
X67110000Y-48420000D01*
X68950000Y-75080000D02*
X68910000Y-75100000D01*
X67610000Y-67500000D02*
X67700000Y-67520000D01*
X48480000Y-89800000D02*
X48500000Y-89890000D01*
X103130000Y-115720000D02*
X103200000Y-115790000D01*
X101940000Y-99670000D02*
X102020000Y-99620000D01*
X101940000Y-48330000D02*
X101860000Y-48280000D01*
X87300000Y-41010000D02*
X87390000Y-41000000D01*
X101250000Y-59220000D02*
X101220000Y-59190000D01*
X48480000Y-74200000D02*
X48460000Y-74300000D01*
X101460000Y-104440000D02*
X101480000Y-104390000D01*
X87490000Y-91000000D02*
X87390000Y-90990000D01*
X101540000Y-84200000D02*
X101580000Y-84110000D01*
X31680000Y-83940000D02*
X31740000Y-83860000D01*
X101480000Y-107600000D02*
X101460000Y-107550000D01*
X33500000Y-75800000D02*
X33500000Y-79510000D01*
X32800000Y-64460000D02*
X32700000Y-64480000D01*
X52020000Y-105120000D02*
X52110000Y-105080000D01*
X68850000Y-104860000D02*
X68910000Y-104900000D01*
X86670000Y-73440000D02*
X86720000Y-73360000D01*
X66620000Y-95980000D02*
X66580000Y-95890000D01*
X69300000Y-89000000D02*
X82510000Y-89000000D01*
X51500000Y-121890000D02*
X51520000Y-121800000D01*
X66050000Y-72920000D02*
X66090000Y-72900000D01*
X102200000Y-51540000D02*
X102300000Y-51520000D01*
X33330000Y-64060000D02*
X33270000Y-64140000D01*
X103480000Y-84390000D02*
X103490000Y-84490000D01*
X83500000Y-57890000D02*
X83500000Y-58010000D01*
X82980000Y-57120000D02*
X83060000Y-57170000D01*
X33460000Y-84200000D02*
X33480000Y-84300000D01*
X101220000Y-107190000D02*
X101160000Y-107150000D01*
X33750000Y-72780000D02*
X33780000Y-72810000D01*
X68330000Y-112060000D02*
X68270000Y-112140000D01*
X48280000Y-74640000D02*
X48210000Y-74710000D01*
X66500000Y-59760000D02*
X66500000Y-59720000D01*
X69300000Y-73000000D02*
X82510000Y-73000000D01*
X33690000Y-91280000D02*
X33660000Y-91310000D01*
X67490000Y-96500000D02*
X67390000Y-96500000D01*
X69060000Y-91040000D02*
X68990000Y-91060000D01*
X87200000Y-105040000D02*
X87300000Y-105020000D01*
X33500000Y-111510000D02*
X33490000Y-111610000D01*
X103450000Y-68200000D02*
X103470000Y-68300000D01*
X65850000Y-120990000D02*
X65890000Y-120980000D01*
X87110000Y-105080000D02*
X87200000Y-105040000D01*
X34170000Y-104990000D02*
X34230000Y-105000000D01*
X83330000Y-41430000D02*
X83380000Y-41510000D01*
X31520000Y-111610000D02*
X31510000Y-111510000D01*
X69300000Y-107000000D02*
X69260000Y-107000000D01*
X32700000Y-96480000D02*
X32610000Y-96500000D01*
X52200000Y-122970000D02*
X52110000Y-122930000D01*
X100980000Y-88950000D02*
X101020000Y-88940000D01*
X68140000Y-51720000D02*
X68210000Y-51790000D01*
X66160000Y-75140000D02*
X66120000Y-75120000D01*
X33700000Y-56730000D02*
X33750000Y-56780000D01*
X33580000Y-75450000D02*
X33550000Y-75520000D01*
X66480000Y-91610000D02*
X66460000Y-91560000D01*
X34260000Y-91000000D02*
X34220000Y-91000000D01*
X66400000Y-43410000D02*
X66380000Y-43370000D01*
X69100000Y-107020000D02*
X69060000Y-107040000D01*
X101230000Y-88800000D02*
X101280000Y-88760000D01*
X66670000Y-99940000D02*
X66730000Y-99860000D01*
X101940000Y-64330000D02*
X101860000Y-64280000D01*
X33270000Y-83860000D02*
X33330000Y-83940000D01*
X66500000Y-91760000D02*
X66500000Y-91720000D01*
X66020000Y-104940000D02*
X66050000Y-104920000D01*
X101790000Y-115790000D02*
X101860000Y-115720000D01*
X52110000Y-89080000D02*
X52200000Y-89040000D01*
X103370000Y-47980000D02*
X103320000Y-48060000D01*
X48420000Y-122400000D02*
X48380000Y-122490000D01*
X51790000Y-121290000D02*
X51860000Y-121230000D01*
X101540000Y-79800000D02*
X101520000Y-79700000D01*
X31740000Y-122650000D02*
X31680000Y-122570000D01*
X86580000Y-73610000D02*
X86620000Y-73520000D01*
X65900000Y-75020000D02*
X65830000Y-75010000D01*
X86540000Y-122310000D02*
X86520000Y-122210000D01*
X33510000Y-75670000D02*
X33500000Y-75720000D01*
X101460000Y-59550000D02*
X101440000Y-59490000D01*
X68950000Y-107080000D02*
X68910000Y-107100000D01*
X101160000Y-107150000D02*
X101120000Y-107120000D01*
X26500000Y-35980000D02*
X26500000Y-35990000D01*
X31550000Y-111800000D02*
X31530000Y-111700000D01*
X100900000Y-107020000D02*
X100830000Y-107010000D01*
X34260000Y-75000000D02*
X34220000Y-75000000D01*
X48210000Y-106710000D02*
X48140000Y-106770000D01*
X66620000Y-68020000D02*
X66670000Y-67940000D01*
X101380000Y-72630000D02*
X101400000Y-72590000D01*
X101120000Y-75120000D02*
X101080000Y-75100000D01*
X66500000Y-120200000D02*
X66500000Y-116490000D01*
X102020000Y-80380000D02*
X101940000Y-80330000D01*
X86940000Y-89170000D02*
X87020000Y-89120000D01*
X33210000Y-51790000D02*
X33270000Y-51860000D01*
X33880000Y-56880000D02*
X33920000Y-56900000D01*
X66730000Y-96140000D02*
X66670000Y-96060000D01*
X47700000Y-121020000D02*
X47800000Y-121040000D01*
X68720000Y-91240000D02*
X68690000Y-91280000D01*
X68810000Y-91170000D02*
X68770000Y-91200000D01*
X82980000Y-73120000D02*
X83060000Y-73170000D01*
X100970000Y-43050000D02*
X100900000Y-43020000D01*
X66200000Y-75170000D02*
X66160000Y-75140000D01*
X65700000Y-59000000D02*
X52490000Y-59000000D01*
X68060000Y-83670000D02*
X68140000Y-83720000D01*
X31740000Y-51860000D02*
X31800000Y-51790000D01*
X68770000Y-91200000D02*
X68720000Y-91240000D01*
X68330000Y-96060000D02*
X68270000Y-96140000D01*
X51500000Y-122120000D02*
X51500000Y-122020000D01*
X31510000Y-52490000D02*
X31520000Y-52390000D01*
X33690000Y-107280000D02*
X33660000Y-107310000D01*
X83500000Y-73890000D02*
X83500000Y-74010000D01*
X33840000Y-104850000D02*
X33880000Y-104880000D01*
X68500000Y-43720000D02*
X68500000Y-43760000D01*
X51520000Y-41790000D02*
X51540000Y-41690000D01*
X31510000Y-84490000D02*
X31520000Y-84390000D01*
M02*
