G04 #@! TF.GenerationSoftware,KiCad,Pcbnew,(5.99.0-812-g5d5363396)*
G04 #@! TF.CreationDate,2020-02-01T10:18:43+03:00*
G04 #@! TF.ProjectId,stm32_ds2480_emu_panel,73746d33-325f-4647-9332-3438305f656d,rev?*
G04 #@! TF.SameCoordinates,PX68e7780PY7ed6b40*
G04 #@! TF.FileFunction,AssemblyDrawing,Bot*
%FSLAX46Y46*%
G04 Gerber Fmt 4.6, Leading zero omitted, Abs format (unit mm)*
G04 Created by KiCad (PCBNEW (5.99.0-812-g5d5363396)) date 2020-02-01 10:18:43*
%MOMM*%
%LPD*%
G04 APERTURE LIST*
%ADD10C,0.080000*%
G04 APERTURE END LIST*
D10*
X50330952Y11473810D02*
X50045238Y11473810D01*
X50188095Y10973810D02*
X50188095Y11473810D01*
X49878571Y10973810D02*
X49878571Y11473810D01*
X49688095Y11473810D01*
X49640476Y11450000D01*
X49616666Y11426191D01*
X49592857Y11378572D01*
X49592857Y11307143D01*
X49616666Y11259524D01*
X49640476Y11235715D01*
X49688095Y11211905D01*
X49878571Y11211905D01*
X49116666Y10973810D02*
X49402380Y10973810D01*
X49259523Y10973810D02*
X49259523Y11473810D01*
X49307142Y11402381D01*
X49354761Y11354762D01*
X49402380Y11330953D01*
X50330952Y25473810D02*
X50045238Y25473810D01*
X50188095Y24973810D02*
X50188095Y25473810D01*
X49878571Y24973810D02*
X49878571Y25473810D01*
X49688095Y25473810D01*
X49640476Y25450000D01*
X49616666Y25426191D01*
X49592857Y25378572D01*
X49592857Y25307143D01*
X49616666Y25259524D01*
X49640476Y25235715D01*
X49688095Y25211905D01*
X49878571Y25211905D01*
X49116666Y24973810D02*
X49402380Y24973810D01*
X49259523Y24973810D02*
X49259523Y25473810D01*
X49307142Y25402381D01*
X49354761Y25354762D01*
X49402380Y25330953D01*
X50330952Y39473810D02*
X50045238Y39473810D01*
X50188095Y38973810D02*
X50188095Y39473810D01*
X49878571Y38973810D02*
X49878571Y39473810D01*
X49688095Y39473810D01*
X49640476Y39450000D01*
X49616666Y39426191D01*
X49592857Y39378572D01*
X49592857Y39307143D01*
X49616666Y39259524D01*
X49640476Y39235715D01*
X49688095Y39211905D01*
X49878571Y39211905D01*
X49116666Y38973810D02*
X49402380Y38973810D01*
X49259523Y38973810D02*
X49259523Y39473810D01*
X49307142Y39402381D01*
X49354761Y39354762D01*
X49402380Y39330953D01*
X50330952Y53473810D02*
X50045238Y53473810D01*
X50188095Y52973810D02*
X50188095Y53473810D01*
X49878571Y52973810D02*
X49878571Y53473810D01*
X49688095Y53473810D01*
X49640476Y53450000D01*
X49616666Y53426191D01*
X49592857Y53378572D01*
X49592857Y53307143D01*
X49616666Y53259524D01*
X49640476Y53235715D01*
X49688095Y53211905D01*
X49878571Y53211905D01*
X49116666Y52973810D02*
X49402380Y52973810D01*
X49259523Y52973810D02*
X49259523Y53473810D01*
X49307142Y53402381D01*
X49354761Y53354762D01*
X49402380Y53330953D01*
X52330952Y17873810D02*
X52045238Y17873810D01*
X52188095Y17373810D02*
X52188095Y17873810D01*
X51878571Y17373810D02*
X51878571Y17873810D01*
X51688095Y17873810D01*
X51640476Y17850000D01*
X51616666Y17826191D01*
X51592857Y17778572D01*
X51592857Y17707143D01*
X51616666Y17659524D01*
X51640476Y17635715D01*
X51688095Y17611905D01*
X51878571Y17611905D01*
X51402380Y17826191D02*
X51378571Y17850000D01*
X51330952Y17873810D01*
X51211904Y17873810D01*
X51164285Y17850000D01*
X51140476Y17826191D01*
X51116666Y17778572D01*
X51116666Y17730953D01*
X51140476Y17659524D01*
X51426190Y17373810D01*
X51116666Y17373810D01*
X52330952Y31873810D02*
X52045238Y31873810D01*
X52188095Y31373810D02*
X52188095Y31873810D01*
X51878571Y31373810D02*
X51878571Y31873810D01*
X51688095Y31873810D01*
X51640476Y31850000D01*
X51616666Y31826191D01*
X51592857Y31778572D01*
X51592857Y31707143D01*
X51616666Y31659524D01*
X51640476Y31635715D01*
X51688095Y31611905D01*
X51878571Y31611905D01*
X51402380Y31826191D02*
X51378571Y31850000D01*
X51330952Y31873810D01*
X51211904Y31873810D01*
X51164285Y31850000D01*
X51140476Y31826191D01*
X51116666Y31778572D01*
X51116666Y31730953D01*
X51140476Y31659524D01*
X51426190Y31373810D01*
X51116666Y31373810D01*
X52330952Y45873810D02*
X52045238Y45873810D01*
X52188095Y45373810D02*
X52188095Y45873810D01*
X51878571Y45373810D02*
X51878571Y45873810D01*
X51688095Y45873810D01*
X51640476Y45850000D01*
X51616666Y45826191D01*
X51592857Y45778572D01*
X51592857Y45707143D01*
X51616666Y45659524D01*
X51640476Y45635715D01*
X51688095Y45611905D01*
X51878571Y45611905D01*
X51402380Y45826191D02*
X51378571Y45850000D01*
X51330952Y45873810D01*
X51211904Y45873810D01*
X51164285Y45850000D01*
X51140476Y45826191D01*
X51116666Y45778572D01*
X51116666Y45730953D01*
X51140476Y45659524D01*
X51426190Y45373810D01*
X51116666Y45373810D01*
X52330952Y59873810D02*
X52045238Y59873810D01*
X52188095Y59373810D02*
X52188095Y59873810D01*
X51878571Y59373810D02*
X51878571Y59873810D01*
X51688095Y59873810D01*
X51640476Y59850000D01*
X51616666Y59826191D01*
X51592857Y59778572D01*
X51592857Y59707143D01*
X51616666Y59659524D01*
X51640476Y59635715D01*
X51688095Y59611905D01*
X51878571Y59611905D01*
X51402380Y59826191D02*
X51378571Y59850000D01*
X51330952Y59873810D01*
X51211904Y59873810D01*
X51164285Y59850000D01*
X51140476Y59826191D01*
X51116666Y59778572D01*
X51116666Y59730953D01*
X51140476Y59659524D01*
X51426190Y59373810D01*
X51116666Y59373810D01*
X20930952Y17073810D02*
X20645238Y17073810D01*
X20788095Y16573810D02*
X20788095Y17073810D01*
X20478571Y16573810D02*
X20478571Y17073810D01*
X20288095Y17073810D01*
X20240476Y17050000D01*
X20216666Y17026191D01*
X20192857Y16978572D01*
X20192857Y16907143D01*
X20216666Y16859524D01*
X20240476Y16835715D01*
X20288095Y16811905D01*
X20478571Y16811905D01*
X19716666Y16573810D02*
X20002380Y16573810D01*
X19859523Y16573810D02*
X19859523Y17073810D01*
X19907142Y17002381D01*
X19954761Y16954762D01*
X20002380Y16930953D01*
X20930952Y31073810D02*
X20645238Y31073810D01*
X20788095Y30573810D02*
X20788095Y31073810D01*
X20478571Y30573810D02*
X20478571Y31073810D01*
X20288095Y31073810D01*
X20240476Y31050000D01*
X20216666Y31026191D01*
X20192857Y30978572D01*
X20192857Y30907143D01*
X20216666Y30859524D01*
X20240476Y30835715D01*
X20288095Y30811905D01*
X20478571Y30811905D01*
X19716666Y30573810D02*
X20002380Y30573810D01*
X19859523Y30573810D02*
X19859523Y31073810D01*
X19907142Y31002381D01*
X19954761Y30954762D01*
X20002380Y30930953D01*
X20930952Y45073810D02*
X20645238Y45073810D01*
X20788095Y44573810D02*
X20788095Y45073810D01*
X20478571Y44573810D02*
X20478571Y45073810D01*
X20288095Y45073810D01*
X20240476Y45050000D01*
X20216666Y45026191D01*
X20192857Y44978572D01*
X20192857Y44907143D01*
X20216666Y44859524D01*
X20240476Y44835715D01*
X20288095Y44811905D01*
X20478571Y44811905D01*
X19716666Y44573810D02*
X20002380Y44573810D01*
X19859523Y44573810D02*
X19859523Y45073810D01*
X19907142Y45002381D01*
X19954761Y44954762D01*
X20002380Y44930953D01*
X20930952Y59073810D02*
X20645238Y59073810D01*
X20788095Y58573810D02*
X20788095Y59073810D01*
X20478571Y58573810D02*
X20478571Y59073810D01*
X20288095Y59073810D01*
X20240476Y59050000D01*
X20216666Y59026191D01*
X20192857Y58978572D01*
X20192857Y58907143D01*
X20216666Y58859524D01*
X20240476Y58835715D01*
X20288095Y58811905D01*
X20478571Y58811905D01*
X19716666Y58573810D02*
X20002380Y58573810D01*
X19859523Y58573810D02*
X19859523Y59073810D01*
X19907142Y59002381D01*
X19954761Y58954762D01*
X20002380Y58930953D01*
X18930952Y10673810D02*
X18645238Y10673810D01*
X18788095Y10173810D02*
X18788095Y10673810D01*
X18478571Y10173810D02*
X18478571Y10673810D01*
X18288095Y10673810D01*
X18240476Y10650000D01*
X18216666Y10626191D01*
X18192857Y10578572D01*
X18192857Y10507143D01*
X18216666Y10459524D01*
X18240476Y10435715D01*
X18288095Y10411905D01*
X18478571Y10411905D01*
X18002380Y10626191D02*
X17978571Y10650000D01*
X17930952Y10673810D01*
X17811904Y10673810D01*
X17764285Y10650000D01*
X17740476Y10626191D01*
X17716666Y10578572D01*
X17716666Y10530953D01*
X17740476Y10459524D01*
X18026190Y10173810D01*
X17716666Y10173810D01*
X18930952Y24673810D02*
X18645238Y24673810D01*
X18788095Y24173810D02*
X18788095Y24673810D01*
X18478571Y24173810D02*
X18478571Y24673810D01*
X18288095Y24673810D01*
X18240476Y24650000D01*
X18216666Y24626191D01*
X18192857Y24578572D01*
X18192857Y24507143D01*
X18216666Y24459524D01*
X18240476Y24435715D01*
X18288095Y24411905D01*
X18478571Y24411905D01*
X18002380Y24626191D02*
X17978571Y24650000D01*
X17930952Y24673810D01*
X17811904Y24673810D01*
X17764285Y24650000D01*
X17740476Y24626191D01*
X17716666Y24578572D01*
X17716666Y24530953D01*
X17740476Y24459524D01*
X18026190Y24173810D01*
X17716666Y24173810D01*
X18930952Y38673810D02*
X18645238Y38673810D01*
X18788095Y38173810D02*
X18788095Y38673810D01*
X18478571Y38173810D02*
X18478571Y38673810D01*
X18288095Y38673810D01*
X18240476Y38650000D01*
X18216666Y38626191D01*
X18192857Y38578572D01*
X18192857Y38507143D01*
X18216666Y38459524D01*
X18240476Y38435715D01*
X18288095Y38411905D01*
X18478571Y38411905D01*
X18002380Y38626191D02*
X17978571Y38650000D01*
X17930952Y38673810D01*
X17811904Y38673810D01*
X17764285Y38650000D01*
X17740476Y38626191D01*
X17716666Y38578572D01*
X17716666Y38530953D01*
X17740476Y38459524D01*
X18026190Y38173810D01*
X17716666Y38173810D01*
X18930952Y52673810D02*
X18645238Y52673810D01*
X18788095Y52173810D02*
X18788095Y52673810D01*
X18478571Y52173810D02*
X18478571Y52673810D01*
X18288095Y52673810D01*
X18240476Y52650000D01*
X18216666Y52626191D01*
X18192857Y52578572D01*
X18192857Y52507143D01*
X18216666Y52459524D01*
X18240476Y52435715D01*
X18288095Y52411905D01*
X18478571Y52411905D01*
X18002380Y52626191D02*
X17978571Y52650000D01*
X17930952Y52673810D01*
X17811904Y52673810D01*
X17764285Y52650000D01*
X17740476Y52626191D01*
X17716666Y52578572D01*
X17716666Y52530953D01*
X17740476Y52459524D01*
X18026190Y52173810D01*
X17716666Y52173810D01*
X50330952Y67473810D02*
X50045238Y67473810D01*
X50188095Y66973810D02*
X50188095Y67473810D01*
X49878571Y66973810D02*
X49878571Y67473810D01*
X49688095Y67473810D01*
X49640476Y67450000D01*
X49616666Y67426191D01*
X49592857Y67378572D01*
X49592857Y67307143D01*
X49616666Y67259524D01*
X49640476Y67235715D01*
X49688095Y67211905D01*
X49878571Y67211905D01*
X49116666Y66973810D02*
X49402380Y66973810D01*
X49259523Y66973810D02*
X49259523Y67473810D01*
X49307142Y67402381D01*
X49354761Y67354762D01*
X49402380Y67330953D01*
X52330952Y73873810D02*
X52045238Y73873810D01*
X52188095Y73373810D02*
X52188095Y73873810D01*
X51878571Y73373810D02*
X51878571Y73873810D01*
X51688095Y73873810D01*
X51640476Y73850000D01*
X51616666Y73826191D01*
X51592857Y73778572D01*
X51592857Y73707143D01*
X51616666Y73659524D01*
X51640476Y73635715D01*
X51688095Y73611905D01*
X51878571Y73611905D01*
X51402380Y73826191D02*
X51378571Y73850000D01*
X51330952Y73873810D01*
X51211904Y73873810D01*
X51164285Y73850000D01*
X51140476Y73826191D01*
X51116666Y73778572D01*
X51116666Y73730953D01*
X51140476Y73659524D01*
X51426190Y73373810D01*
X51116666Y73373810D01*
X18930952Y66673810D02*
X18645238Y66673810D01*
X18788095Y66173810D02*
X18788095Y66673810D01*
X18478571Y66173810D02*
X18478571Y66673810D01*
X18288095Y66673810D01*
X18240476Y66650000D01*
X18216666Y66626191D01*
X18192857Y66578572D01*
X18192857Y66507143D01*
X18216666Y66459524D01*
X18240476Y66435715D01*
X18288095Y66411905D01*
X18478571Y66411905D01*
X18002380Y66626191D02*
X17978571Y66650000D01*
X17930952Y66673810D01*
X17811904Y66673810D01*
X17764285Y66650000D01*
X17740476Y66626191D01*
X17716666Y66578572D01*
X17716666Y66530953D01*
X17740476Y66459524D01*
X18026190Y66173810D01*
X17716666Y66173810D01*
X20930952Y73073810D02*
X20645238Y73073810D01*
X20788095Y72573810D02*
X20788095Y73073810D01*
X20478571Y72573810D02*
X20478571Y73073810D01*
X20288095Y73073810D01*
X20240476Y73050000D01*
X20216666Y73026191D01*
X20192857Y72978572D01*
X20192857Y72907143D01*
X20216666Y72859524D01*
X20240476Y72835715D01*
X20288095Y72811905D01*
X20478571Y72811905D01*
X19716666Y72573810D02*
X20002380Y72573810D01*
X19859523Y72573810D02*
X19859523Y73073810D01*
X19907142Y73002381D01*
X19954761Y72954762D01*
X20002380Y72930953D01*
M02*
