G04 #@! TF.GenerationSoftware,KiCad,Pcbnew,(5.1.4-7-g8dd734fbd)*
G04 #@! TF.CreationDate,2019-08-30T10:47:23+03:00*
G04 #@! TF.ProjectId,stm32_ds2480_emu,73746d33-325f-4647-9332-3438305f656d,rev?*
G04 #@! TF.SameCoordinates,Original*
G04 #@! TF.FileFunction,Soldermask,Bot*
G04 #@! TF.FilePolarity,Negative*
%FSLAX46Y46*%
G04 Gerber Fmt 4.6, Leading zero omitted, Abs format (unit mm)*
G04 Created by KiCad (PCBNEW (5.1.4-7-g8dd734fbd)) date 2019-08-30 10:47:23*
%MOMM*%
%LPD*%
G04 APERTURE LIST*
%ADD10C,0.100000*%
G04 APERTURE END LIST*
D10*
G36*
X123501000Y-94877265D02*
G01*
X123503402Y-94901651D01*
X123510515Y-94925100D01*
X123522066Y-94946711D01*
X123537611Y-94965653D01*
X123556553Y-94981198D01*
X123578164Y-94992749D01*
X123601613Y-94999862D01*
X123625999Y-95002264D01*
X123650385Y-94999862D01*
X123673834Y-94992749D01*
X123695445Y-94981198D01*
X123714387Y-94965653D01*
X123729932Y-94946711D01*
X123736233Y-94936198D01*
X123759644Y-94892400D01*
X123828499Y-94808499D01*
X123912400Y-94739643D01*
X123980945Y-94703005D01*
X124008121Y-94688479D01*
X124111985Y-94656973D01*
X124192933Y-94649000D01*
X124247067Y-94649000D01*
X124328015Y-94656973D01*
X124431879Y-94688479D01*
X124459055Y-94703005D01*
X124527600Y-94739643D01*
X124611501Y-94808499D01*
X124680357Y-94892400D01*
X124716995Y-94960945D01*
X124731521Y-94988121D01*
X124735388Y-95000869D01*
X124744760Y-95023496D01*
X124758374Y-95043870D01*
X124775701Y-95061197D01*
X124796075Y-95074811D01*
X124818714Y-95084188D01*
X124842747Y-95088969D01*
X124867251Y-95088969D01*
X124891285Y-95084189D01*
X124913924Y-95074812D01*
X124934298Y-95061198D01*
X124951625Y-95043871D01*
X124965239Y-95023497D01*
X124974612Y-95000869D01*
X124978479Y-94988121D01*
X124993005Y-94960945D01*
X125029643Y-94892400D01*
X125098499Y-94808499D01*
X125182400Y-94739643D01*
X125250945Y-94703005D01*
X125278121Y-94688479D01*
X125381985Y-94656973D01*
X125462933Y-94649000D01*
X125517067Y-94649000D01*
X125598015Y-94656973D01*
X125701879Y-94688479D01*
X125729055Y-94703005D01*
X125797600Y-94739643D01*
X125881501Y-94808499D01*
X125950357Y-94892400D01*
X125986995Y-94960945D01*
X126001521Y-94988121D01*
X126005388Y-95000869D01*
X126014760Y-95023496D01*
X126028374Y-95043870D01*
X126045701Y-95061197D01*
X126066075Y-95074811D01*
X126088714Y-95084188D01*
X126112747Y-95088969D01*
X126137251Y-95088969D01*
X126161285Y-95084189D01*
X126183924Y-95074812D01*
X126204298Y-95061198D01*
X126221625Y-95043871D01*
X126235239Y-95023497D01*
X126244612Y-95000869D01*
X126248479Y-94988121D01*
X126263005Y-94960945D01*
X126299643Y-94892400D01*
X126368499Y-94808499D01*
X126452400Y-94739643D01*
X126520945Y-94703005D01*
X126548121Y-94688479D01*
X126651985Y-94656973D01*
X126732933Y-94649000D01*
X126787067Y-94649000D01*
X126868015Y-94656973D01*
X126971879Y-94688479D01*
X126999055Y-94703005D01*
X127067600Y-94739643D01*
X127151501Y-94808499D01*
X127220357Y-94892400D01*
X127256995Y-94960945D01*
X127271521Y-94988121D01*
X127275388Y-95000869D01*
X127284760Y-95023496D01*
X127298374Y-95043870D01*
X127315701Y-95061197D01*
X127336075Y-95074811D01*
X127358714Y-95084188D01*
X127382747Y-95088969D01*
X127407251Y-95088969D01*
X127431285Y-95084189D01*
X127453924Y-95074812D01*
X127474298Y-95061198D01*
X127491625Y-95043871D01*
X127505239Y-95023497D01*
X127514612Y-95000869D01*
X127518479Y-94988121D01*
X127533005Y-94960945D01*
X127569643Y-94892400D01*
X127638499Y-94808499D01*
X127722400Y-94739643D01*
X127790945Y-94703005D01*
X127818121Y-94688479D01*
X127921985Y-94656973D01*
X128002933Y-94649000D01*
X128057067Y-94649000D01*
X128138015Y-94656973D01*
X128241879Y-94688479D01*
X128269055Y-94703005D01*
X128337600Y-94739643D01*
X128421501Y-94808499D01*
X128490357Y-94892400D01*
X128526995Y-94960945D01*
X128541521Y-94988121D01*
X128573027Y-95091985D01*
X128583666Y-95200000D01*
X128573027Y-95308015D01*
X128541521Y-95411879D01*
X128541191Y-95412496D01*
X128490357Y-95507600D01*
X128421501Y-95591501D01*
X128337600Y-95660357D01*
X128269055Y-95696995D01*
X128241879Y-95711521D01*
X128138015Y-95743027D01*
X128057067Y-95751000D01*
X128002933Y-95751000D01*
X127921985Y-95743027D01*
X127818121Y-95711521D01*
X127790945Y-95696995D01*
X127722400Y-95660357D01*
X127638499Y-95591501D01*
X127569643Y-95507600D01*
X127518809Y-95412496D01*
X127518479Y-95411879D01*
X127514612Y-95399131D01*
X127505240Y-95376504D01*
X127491626Y-95356130D01*
X127474299Y-95338803D01*
X127453925Y-95325189D01*
X127431286Y-95315812D01*
X127407253Y-95311031D01*
X127382749Y-95311031D01*
X127358715Y-95315811D01*
X127336076Y-95325188D01*
X127315702Y-95338802D01*
X127298375Y-95356129D01*
X127284761Y-95376503D01*
X127275388Y-95399131D01*
X127271521Y-95411879D01*
X127271191Y-95412496D01*
X127220357Y-95507600D01*
X127151501Y-95591501D01*
X127067600Y-95660357D01*
X126999055Y-95696995D01*
X126971879Y-95711521D01*
X126868015Y-95743027D01*
X126787067Y-95751000D01*
X126732933Y-95751000D01*
X126651985Y-95743027D01*
X126548121Y-95711521D01*
X126520945Y-95696995D01*
X126452400Y-95660357D01*
X126368499Y-95591501D01*
X126299643Y-95507600D01*
X126248809Y-95412496D01*
X126248479Y-95411879D01*
X126244612Y-95399131D01*
X126235240Y-95376504D01*
X126221626Y-95356130D01*
X126204299Y-95338803D01*
X126183925Y-95325189D01*
X126161286Y-95315812D01*
X126137253Y-95311031D01*
X126112749Y-95311031D01*
X126088715Y-95315811D01*
X126066076Y-95325188D01*
X126045702Y-95338802D01*
X126028375Y-95356129D01*
X126014761Y-95376503D01*
X126005388Y-95399131D01*
X126001521Y-95411879D01*
X126001191Y-95412496D01*
X125950357Y-95507600D01*
X125881501Y-95591501D01*
X125797600Y-95660357D01*
X125729055Y-95696995D01*
X125701879Y-95711521D01*
X125598015Y-95743027D01*
X125517067Y-95751000D01*
X125462933Y-95751000D01*
X125381985Y-95743027D01*
X125278121Y-95711521D01*
X125250945Y-95696995D01*
X125182400Y-95660357D01*
X125098499Y-95591501D01*
X125029643Y-95507600D01*
X124978809Y-95412496D01*
X124978479Y-95411879D01*
X124974612Y-95399131D01*
X124965240Y-95376504D01*
X124951626Y-95356130D01*
X124934299Y-95338803D01*
X124913925Y-95325189D01*
X124891286Y-95315812D01*
X124867253Y-95311031D01*
X124842749Y-95311031D01*
X124818715Y-95315811D01*
X124796076Y-95325188D01*
X124775702Y-95338802D01*
X124758375Y-95356129D01*
X124744761Y-95376503D01*
X124735388Y-95399131D01*
X124731521Y-95411879D01*
X124731191Y-95412496D01*
X124680357Y-95507600D01*
X124611501Y-95591501D01*
X124527600Y-95660357D01*
X124459055Y-95696995D01*
X124431879Y-95711521D01*
X124328015Y-95743027D01*
X124247067Y-95751000D01*
X124192933Y-95751000D01*
X124111985Y-95743027D01*
X124008121Y-95711521D01*
X123980945Y-95696995D01*
X123912400Y-95660357D01*
X123828499Y-95591501D01*
X123759645Y-95507601D01*
X123759644Y-95507600D01*
X123736236Y-95463807D01*
X123722625Y-95443437D01*
X123705298Y-95426110D01*
X123684924Y-95412496D01*
X123662285Y-95403119D01*
X123638252Y-95398338D01*
X123613748Y-95398338D01*
X123589714Y-95403118D01*
X123567076Y-95412495D01*
X123546701Y-95426109D01*
X123529374Y-95443436D01*
X123515760Y-95463810D01*
X123506383Y-95486449D01*
X123501602Y-95510482D01*
X123501000Y-95522735D01*
X123501000Y-95751000D01*
X122399000Y-95751000D01*
X122399000Y-94649000D01*
X123501000Y-94649000D01*
X123501000Y-94877265D01*
X123501000Y-94877265D01*
G37*
G36*
X114676355Y-88102140D02*
G01*
X114740118Y-88108420D01*
X114830904Y-88135960D01*
X114862836Y-88145646D01*
X114975925Y-88206094D01*
X115075054Y-88287446D01*
X115156406Y-88386575D01*
X115216854Y-88499664D01*
X115216855Y-88499668D01*
X115254080Y-88622382D01*
X115266649Y-88750000D01*
X115254080Y-88877618D01*
X115226540Y-88968404D01*
X115216854Y-89000336D01*
X115156406Y-89113425D01*
X115075054Y-89212554D01*
X114975925Y-89293906D01*
X114862836Y-89354354D01*
X114830904Y-89364040D01*
X114740118Y-89391580D01*
X114676355Y-89397860D01*
X114644474Y-89401000D01*
X113880526Y-89401000D01*
X113848645Y-89397860D01*
X113784882Y-89391580D01*
X113694096Y-89364040D01*
X113662164Y-89354354D01*
X113549075Y-89293906D01*
X113449946Y-89212554D01*
X113368594Y-89113425D01*
X113308146Y-89000336D01*
X113298460Y-88968404D01*
X113270920Y-88877618D01*
X113258351Y-88750000D01*
X113270920Y-88622382D01*
X113308145Y-88499668D01*
X113308146Y-88499664D01*
X113368594Y-88386575D01*
X113449946Y-88287446D01*
X113549075Y-88206094D01*
X113662164Y-88145646D01*
X113694096Y-88135960D01*
X113784882Y-88108420D01*
X113848645Y-88102140D01*
X113880526Y-88099000D01*
X114644474Y-88099000D01*
X114676355Y-88102140D01*
X114676355Y-88102140D01*
G37*
G36*
X117188848Y-87003820D02*
G01*
X117188850Y-87003821D01*
X117188851Y-87003821D01*
X117330074Y-87062317D01*
X117330077Y-87062319D01*
X117457169Y-87147239D01*
X117565261Y-87255331D01*
X117619458Y-87336443D01*
X117650183Y-87382426D01*
X117708679Y-87523649D01*
X117738500Y-87673571D01*
X117738500Y-87826429D01*
X117708679Y-87976351D01*
X117650183Y-88117574D01*
X117650181Y-88117577D01*
X117565261Y-88244669D01*
X117457169Y-88352761D01*
X117330077Y-88437681D01*
X117330074Y-88437683D01*
X117188851Y-88496179D01*
X117188850Y-88496179D01*
X117188848Y-88496180D01*
X117038931Y-88526000D01*
X116886069Y-88526000D01*
X116736152Y-88496180D01*
X116736150Y-88496179D01*
X116736149Y-88496179D01*
X116594926Y-88437683D01*
X116594923Y-88437681D01*
X116467831Y-88352761D01*
X116359739Y-88244669D01*
X116274819Y-88117577D01*
X116274817Y-88117574D01*
X116216321Y-87976351D01*
X116186500Y-87826429D01*
X116186500Y-87673571D01*
X116216321Y-87523649D01*
X116274817Y-87382426D01*
X116305542Y-87336443D01*
X116359739Y-87255331D01*
X116467831Y-87147239D01*
X116594923Y-87062319D01*
X116594926Y-87062317D01*
X116736149Y-87003821D01*
X116736150Y-87003821D01*
X116736152Y-87003820D01*
X116886069Y-86974000D01*
X117038931Y-86974000D01*
X117188848Y-87003820D01*
X117188848Y-87003820D01*
G37*
G36*
X140760443Y-85605519D02*
G01*
X140826627Y-85612037D01*
X140996466Y-85663557D01*
X141152991Y-85747222D01*
X141188729Y-85776552D01*
X141290186Y-85859814D01*
X141373448Y-85961271D01*
X141402778Y-85997009D01*
X141486443Y-86153534D01*
X141537963Y-86323373D01*
X141555359Y-86500000D01*
X141537963Y-86676627D01*
X141486443Y-86846466D01*
X141402778Y-87002991D01*
X141373448Y-87038729D01*
X141290186Y-87140186D01*
X141188729Y-87223448D01*
X141152991Y-87252778D01*
X140996466Y-87336443D01*
X140826627Y-87387963D01*
X140760442Y-87394482D01*
X140694260Y-87401000D01*
X140305740Y-87401000D01*
X140239558Y-87394482D01*
X140173373Y-87387963D01*
X140003534Y-87336443D01*
X139847009Y-87252778D01*
X139811271Y-87223448D01*
X139709814Y-87140186D01*
X139626552Y-87038729D01*
X139597222Y-87002991D01*
X139513557Y-86846466D01*
X139462037Y-86676627D01*
X139444641Y-86500000D01*
X139462037Y-86323373D01*
X139513557Y-86153534D01*
X139597222Y-85997009D01*
X139626552Y-85961271D01*
X139709814Y-85859814D01*
X139811271Y-85776552D01*
X139847009Y-85747222D01*
X140003534Y-85663557D01*
X140173373Y-85612037D01*
X140239557Y-85605519D01*
X140305740Y-85599000D01*
X140694260Y-85599000D01*
X140760443Y-85605519D01*
X140760443Y-85605519D01*
G37*
G36*
X141408600Y-83102989D02*
G01*
X141441652Y-83113015D01*
X141472103Y-83129292D01*
X141498799Y-83151201D01*
X141520708Y-83177897D01*
X141536985Y-83208348D01*
X141547011Y-83241400D01*
X141551000Y-83281903D01*
X141551000Y-84718097D01*
X141547011Y-84758600D01*
X141536985Y-84791652D01*
X141520708Y-84822103D01*
X141498799Y-84848799D01*
X141472103Y-84870708D01*
X141441652Y-84886985D01*
X141408600Y-84897011D01*
X141368097Y-84901000D01*
X139631903Y-84901000D01*
X139591400Y-84897011D01*
X139558348Y-84886985D01*
X139527897Y-84870708D01*
X139501201Y-84848799D01*
X139479292Y-84822103D01*
X139463015Y-84791652D01*
X139452989Y-84758600D01*
X139449000Y-84718097D01*
X139449000Y-83281903D01*
X139452989Y-83241400D01*
X139463015Y-83208348D01*
X139479292Y-83177897D01*
X139501201Y-83151201D01*
X139527897Y-83129292D01*
X139558348Y-83113015D01*
X139591400Y-83102989D01*
X139631903Y-83099000D01*
X141368097Y-83099000D01*
X141408600Y-83102989D01*
X141408600Y-83102989D01*
G37*
G36*
X117188848Y-82003820D02*
G01*
X117188850Y-82003821D01*
X117188851Y-82003821D01*
X117330074Y-82062317D01*
X117330077Y-82062319D01*
X117457169Y-82147239D01*
X117565261Y-82255331D01*
X117650181Y-82382423D01*
X117650183Y-82382426D01*
X117708679Y-82523649D01*
X117738500Y-82673571D01*
X117738500Y-82826429D01*
X117708679Y-82976351D01*
X117650183Y-83117574D01*
X117650181Y-83117577D01*
X117565261Y-83244669D01*
X117457169Y-83352761D01*
X117330077Y-83437681D01*
X117330074Y-83437683D01*
X117188851Y-83496179D01*
X117188850Y-83496179D01*
X117188848Y-83496180D01*
X117038931Y-83526000D01*
X116886069Y-83526000D01*
X116736152Y-83496180D01*
X116736150Y-83496179D01*
X116736149Y-83496179D01*
X116594926Y-83437683D01*
X116594923Y-83437681D01*
X116467831Y-83352761D01*
X116359739Y-83244669D01*
X116274819Y-83117577D01*
X116274817Y-83117574D01*
X116216321Y-82976351D01*
X116186500Y-82826429D01*
X116186500Y-82673571D01*
X116216321Y-82523649D01*
X116274817Y-82382426D01*
X116274819Y-82382423D01*
X116359739Y-82255331D01*
X116467831Y-82147239D01*
X116594923Y-82062319D01*
X116594926Y-82062317D01*
X116736149Y-82003821D01*
X116736150Y-82003821D01*
X116736152Y-82003820D01*
X116886069Y-81974000D01*
X117038931Y-81974000D01*
X117188848Y-82003820D01*
X117188848Y-82003820D01*
G37*
G36*
X114676355Y-81102140D02*
G01*
X114740118Y-81108420D01*
X114830904Y-81135960D01*
X114862836Y-81145646D01*
X114975925Y-81206094D01*
X115075054Y-81287446D01*
X115156406Y-81386575D01*
X115216854Y-81499664D01*
X115216855Y-81499668D01*
X115254080Y-81622382D01*
X115266649Y-81750000D01*
X115254080Y-81877618D01*
X115226540Y-81968404D01*
X115216854Y-82000336D01*
X115156406Y-82113425D01*
X115075054Y-82212554D01*
X114975925Y-82293906D01*
X114862836Y-82354354D01*
X114830904Y-82364040D01*
X114740118Y-82391580D01*
X114676355Y-82397860D01*
X114644474Y-82401000D01*
X113880526Y-82401000D01*
X113848645Y-82397860D01*
X113784882Y-82391580D01*
X113694096Y-82364040D01*
X113662164Y-82354354D01*
X113549075Y-82293906D01*
X113449946Y-82212554D01*
X113368594Y-82113425D01*
X113308146Y-82000336D01*
X113298460Y-81968404D01*
X113270920Y-81877618D01*
X113258351Y-81750000D01*
X113270920Y-81622382D01*
X113308145Y-81499668D01*
X113308146Y-81499664D01*
X113368594Y-81386575D01*
X113449946Y-81287446D01*
X113549075Y-81206094D01*
X113662164Y-81145646D01*
X113694096Y-81135960D01*
X113784882Y-81108420D01*
X113848645Y-81102140D01*
X113880526Y-81099000D01*
X114644474Y-81099000D01*
X114676355Y-81102140D01*
X114676355Y-81102140D01*
G37*
G36*
X134001000Y-76901000D02*
G01*
X132199000Y-76901000D01*
X132199000Y-75099000D01*
X134001000Y-75099000D01*
X134001000Y-76901000D01*
X134001000Y-76901000D01*
G37*
G36*
X135750442Y-75105518D02*
G01*
X135816627Y-75112037D01*
X135986466Y-75163557D01*
X136142991Y-75247222D01*
X136178729Y-75276552D01*
X136280186Y-75359814D01*
X136363448Y-75461271D01*
X136392778Y-75497009D01*
X136476443Y-75653534D01*
X136527963Y-75823373D01*
X136545359Y-76000000D01*
X136527963Y-76176627D01*
X136476443Y-76346466D01*
X136392778Y-76502991D01*
X136363448Y-76538729D01*
X136280186Y-76640186D01*
X136178729Y-76723448D01*
X136142991Y-76752778D01*
X135986466Y-76836443D01*
X135816627Y-76887963D01*
X135750442Y-76894482D01*
X135684260Y-76901000D01*
X135595740Y-76901000D01*
X135529558Y-76894482D01*
X135463373Y-76887963D01*
X135293534Y-76836443D01*
X135137009Y-76752778D01*
X135101271Y-76723448D01*
X134999814Y-76640186D01*
X134916552Y-76538729D01*
X134887222Y-76502991D01*
X134803557Y-76346466D01*
X134752037Y-76176627D01*
X134734641Y-76000000D01*
X134752037Y-75823373D01*
X134803557Y-75653534D01*
X134887222Y-75497009D01*
X134916552Y-75461271D01*
X134999814Y-75359814D01*
X135101271Y-75276552D01*
X135137009Y-75247222D01*
X135293534Y-75163557D01*
X135463373Y-75112037D01*
X135529558Y-75105518D01*
X135595740Y-75099000D01*
X135684260Y-75099000D01*
X135750442Y-75105518D01*
X135750442Y-75105518D01*
G37*
M02*
