G04 #@! TF.GenerationSoftware,KiCad,Pcbnew,(5.1.0-70-g46d257dc6)*
G04 #@! TF.CreationDate,2019-05-03T15:48:20+03:00*
G04 #@! TF.ProjectId,stm32_ds2480_emu,73746d33-325f-4647-9332-3438305f656d,rev?*
G04 #@! TF.SameCoordinates,Original*
G04 #@! TF.FileFunction,Paste,Bot*
G04 #@! TF.FilePolarity,Positive*
%FSLAX46Y46*%
G04 Gerber Fmt 4.6, Leading zero omitted, Abs format (unit mm)*
G04 Created by KiCad (PCBNEW (5.1.0-70-g46d257dc6)) date 2019-05-03 15:48:20*
%MOMM*%
%LPD*%
G04 APERTURE LIST*
%ADD10C,0.100000*%
%ADD11C,0.875000*%
%ADD12R,1.000000X1.400000*%
%ADD13R,1.200000X1.400000*%
G04 APERTURE END LIST*
D10*
G36*
X124527691Y-87151053D02*
G01*
X124548926Y-87154203D01*
X124569750Y-87159419D01*
X124589962Y-87166651D01*
X124609368Y-87175830D01*
X124627781Y-87186866D01*
X124645024Y-87199654D01*
X124660930Y-87214070D01*
X124675346Y-87229976D01*
X124688134Y-87247219D01*
X124699170Y-87265632D01*
X124708349Y-87285038D01*
X124715581Y-87305250D01*
X124720797Y-87326074D01*
X124723947Y-87347309D01*
X124725000Y-87368750D01*
X124725000Y-87806250D01*
X124723947Y-87827691D01*
X124720797Y-87848926D01*
X124715581Y-87869750D01*
X124708349Y-87889962D01*
X124699170Y-87909368D01*
X124688134Y-87927781D01*
X124675346Y-87945024D01*
X124660930Y-87960930D01*
X124645024Y-87975346D01*
X124627781Y-87988134D01*
X124609368Y-87999170D01*
X124589962Y-88008349D01*
X124569750Y-88015581D01*
X124548926Y-88020797D01*
X124527691Y-88023947D01*
X124506250Y-88025000D01*
X123993750Y-88025000D01*
X123972309Y-88023947D01*
X123951074Y-88020797D01*
X123930250Y-88015581D01*
X123910038Y-88008349D01*
X123890632Y-87999170D01*
X123872219Y-87988134D01*
X123854976Y-87975346D01*
X123839070Y-87960930D01*
X123824654Y-87945024D01*
X123811866Y-87927781D01*
X123800830Y-87909368D01*
X123791651Y-87889962D01*
X123784419Y-87869750D01*
X123779203Y-87848926D01*
X123776053Y-87827691D01*
X123775000Y-87806250D01*
X123775000Y-87368750D01*
X123776053Y-87347309D01*
X123779203Y-87326074D01*
X123784419Y-87305250D01*
X123791651Y-87285038D01*
X123800830Y-87265632D01*
X123811866Y-87247219D01*
X123824654Y-87229976D01*
X123839070Y-87214070D01*
X123854976Y-87199654D01*
X123872219Y-87186866D01*
X123890632Y-87175830D01*
X123910038Y-87166651D01*
X123930250Y-87159419D01*
X123951074Y-87154203D01*
X123972309Y-87151053D01*
X123993750Y-87150000D01*
X124506250Y-87150000D01*
X124527691Y-87151053D01*
X124527691Y-87151053D01*
G37*
D11*
X124250000Y-87587500D03*
D10*
G36*
X124527691Y-85576053D02*
G01*
X124548926Y-85579203D01*
X124569750Y-85584419D01*
X124589962Y-85591651D01*
X124609368Y-85600830D01*
X124627781Y-85611866D01*
X124645024Y-85624654D01*
X124660930Y-85639070D01*
X124675346Y-85654976D01*
X124688134Y-85672219D01*
X124699170Y-85690632D01*
X124708349Y-85710038D01*
X124715581Y-85730250D01*
X124720797Y-85751074D01*
X124723947Y-85772309D01*
X124725000Y-85793750D01*
X124725000Y-86231250D01*
X124723947Y-86252691D01*
X124720797Y-86273926D01*
X124715581Y-86294750D01*
X124708349Y-86314962D01*
X124699170Y-86334368D01*
X124688134Y-86352781D01*
X124675346Y-86370024D01*
X124660930Y-86385930D01*
X124645024Y-86400346D01*
X124627781Y-86413134D01*
X124609368Y-86424170D01*
X124589962Y-86433349D01*
X124569750Y-86440581D01*
X124548926Y-86445797D01*
X124527691Y-86448947D01*
X124506250Y-86450000D01*
X123993750Y-86450000D01*
X123972309Y-86448947D01*
X123951074Y-86445797D01*
X123930250Y-86440581D01*
X123910038Y-86433349D01*
X123890632Y-86424170D01*
X123872219Y-86413134D01*
X123854976Y-86400346D01*
X123839070Y-86385930D01*
X123824654Y-86370024D01*
X123811866Y-86352781D01*
X123800830Y-86334368D01*
X123791651Y-86314962D01*
X123784419Y-86294750D01*
X123779203Y-86273926D01*
X123776053Y-86252691D01*
X123775000Y-86231250D01*
X123775000Y-85793750D01*
X123776053Y-85772309D01*
X123779203Y-85751074D01*
X123784419Y-85730250D01*
X123791651Y-85710038D01*
X123800830Y-85690632D01*
X123811866Y-85672219D01*
X123824654Y-85654976D01*
X123839070Y-85639070D01*
X123854976Y-85624654D01*
X123872219Y-85611866D01*
X123890632Y-85600830D01*
X123910038Y-85591651D01*
X123930250Y-85584419D01*
X123951074Y-85579203D01*
X123972309Y-85576053D01*
X123993750Y-85575000D01*
X124506250Y-85575000D01*
X124527691Y-85576053D01*
X124527691Y-85576053D01*
G37*
D11*
X124250000Y-86012500D03*
D10*
G36*
X126777691Y-87151053D02*
G01*
X126798926Y-87154203D01*
X126819750Y-87159419D01*
X126839962Y-87166651D01*
X126859368Y-87175830D01*
X126877781Y-87186866D01*
X126895024Y-87199654D01*
X126910930Y-87214070D01*
X126925346Y-87229976D01*
X126938134Y-87247219D01*
X126949170Y-87265632D01*
X126958349Y-87285038D01*
X126965581Y-87305250D01*
X126970797Y-87326074D01*
X126973947Y-87347309D01*
X126975000Y-87368750D01*
X126975000Y-87806250D01*
X126973947Y-87827691D01*
X126970797Y-87848926D01*
X126965581Y-87869750D01*
X126958349Y-87889962D01*
X126949170Y-87909368D01*
X126938134Y-87927781D01*
X126925346Y-87945024D01*
X126910930Y-87960930D01*
X126895024Y-87975346D01*
X126877781Y-87988134D01*
X126859368Y-87999170D01*
X126839962Y-88008349D01*
X126819750Y-88015581D01*
X126798926Y-88020797D01*
X126777691Y-88023947D01*
X126756250Y-88025000D01*
X126243750Y-88025000D01*
X126222309Y-88023947D01*
X126201074Y-88020797D01*
X126180250Y-88015581D01*
X126160038Y-88008349D01*
X126140632Y-87999170D01*
X126122219Y-87988134D01*
X126104976Y-87975346D01*
X126089070Y-87960930D01*
X126074654Y-87945024D01*
X126061866Y-87927781D01*
X126050830Y-87909368D01*
X126041651Y-87889962D01*
X126034419Y-87869750D01*
X126029203Y-87848926D01*
X126026053Y-87827691D01*
X126025000Y-87806250D01*
X126025000Y-87368750D01*
X126026053Y-87347309D01*
X126029203Y-87326074D01*
X126034419Y-87305250D01*
X126041651Y-87285038D01*
X126050830Y-87265632D01*
X126061866Y-87247219D01*
X126074654Y-87229976D01*
X126089070Y-87214070D01*
X126104976Y-87199654D01*
X126122219Y-87186866D01*
X126140632Y-87175830D01*
X126160038Y-87166651D01*
X126180250Y-87159419D01*
X126201074Y-87154203D01*
X126222309Y-87151053D01*
X126243750Y-87150000D01*
X126756250Y-87150000D01*
X126777691Y-87151053D01*
X126777691Y-87151053D01*
G37*
D11*
X126500000Y-87587500D03*
D10*
G36*
X126777691Y-85576053D02*
G01*
X126798926Y-85579203D01*
X126819750Y-85584419D01*
X126839962Y-85591651D01*
X126859368Y-85600830D01*
X126877781Y-85611866D01*
X126895024Y-85624654D01*
X126910930Y-85639070D01*
X126925346Y-85654976D01*
X126938134Y-85672219D01*
X126949170Y-85690632D01*
X126958349Y-85710038D01*
X126965581Y-85730250D01*
X126970797Y-85751074D01*
X126973947Y-85772309D01*
X126975000Y-85793750D01*
X126975000Y-86231250D01*
X126973947Y-86252691D01*
X126970797Y-86273926D01*
X126965581Y-86294750D01*
X126958349Y-86314962D01*
X126949170Y-86334368D01*
X126938134Y-86352781D01*
X126925346Y-86370024D01*
X126910930Y-86385930D01*
X126895024Y-86400346D01*
X126877781Y-86413134D01*
X126859368Y-86424170D01*
X126839962Y-86433349D01*
X126819750Y-86440581D01*
X126798926Y-86445797D01*
X126777691Y-86448947D01*
X126756250Y-86450000D01*
X126243750Y-86450000D01*
X126222309Y-86448947D01*
X126201074Y-86445797D01*
X126180250Y-86440581D01*
X126160038Y-86433349D01*
X126140632Y-86424170D01*
X126122219Y-86413134D01*
X126104976Y-86400346D01*
X126089070Y-86385930D01*
X126074654Y-86370024D01*
X126061866Y-86352781D01*
X126050830Y-86334368D01*
X126041651Y-86314962D01*
X126034419Y-86294750D01*
X126029203Y-86273926D01*
X126026053Y-86252691D01*
X126025000Y-86231250D01*
X126025000Y-85793750D01*
X126026053Y-85772309D01*
X126029203Y-85751074D01*
X126034419Y-85730250D01*
X126041651Y-85710038D01*
X126050830Y-85690632D01*
X126061866Y-85672219D01*
X126074654Y-85654976D01*
X126089070Y-85639070D01*
X126104976Y-85624654D01*
X126122219Y-85611866D01*
X126140632Y-85600830D01*
X126160038Y-85591651D01*
X126180250Y-85584419D01*
X126201074Y-85579203D01*
X126222309Y-85576053D01*
X126243750Y-85575000D01*
X126756250Y-85575000D01*
X126777691Y-85576053D01*
X126777691Y-85576053D01*
G37*
D11*
X126500000Y-86012500D03*
D12*
X122650000Y-83800000D03*
X120750000Y-83800000D03*
X120750000Y-86000000D03*
D13*
X122470000Y-86000000D03*
M02*
