M48
; DRILL file {KiCad (5.99.0-10613-g4d227d2d2b)} date Wed May 26 08:20:40 2021
; FORMAT={-:-/ absolute / inch / decimal}
; #@! TF.CreationDate,2021-05-26T08:20:40+03:00
; #@! TF.GenerationSoftware,Kicad,Pcbnew,(5.99.0-10613-g4d227d2d2b)
; #@! TF.FileFunction,NonPlated,1,2,NPTH
FMAT,2
INCH
; #@! TA.AperFunction,NonPlated,NPTH,ComponentDrill
T1C0.0197
; #@! TA.AperFunction,NonPlated,NPTH,ComponentDrill
T2C0.0433
; #@! TA.AperFunction,NonPlated,NPTH,ComponentDrill
T3C0.0591
%
G90
G05
T1
X1.0631Y-1.693
X1.0631Y-4.7637
X1.1025Y-1.693
X1.1025Y-4.7637
X1.142Y-1.693
X1.142Y-4.7637
X1.1814Y-1.693
X1.1814Y-4.7637
X1.2208Y-1.693
X1.2208Y-4.7637
X1.3189Y-1.4363
X1.3189Y-1.4758
X1.3189Y-1.5152
X1.3189Y-1.5546
X1.3189Y-1.5941
X1.3189Y-4.8626
X1.3189Y-4.9021
X1.3189Y-4.9415
X1.3189Y-4.9809
X1.3189Y-5.0204
X1.3268Y-1.8898
X1.3268Y-1.9291
X1.3268Y-1.9685
X1.3268Y-2.0079
X1.3268Y-2.0472
X1.3268Y-2.5197
X1.3268Y-2.5591
X1.3268Y-2.5984
X1.3268Y-2.6378
X1.3268Y-2.6772
X1.3268Y-3.1496
X1.3268Y-3.189
X1.3268Y-3.2283
X1.3268Y-3.2677
X1.3268Y-3.3071
X1.3268Y-3.7795
X1.3268Y-3.8189
X1.3268Y-3.8583
X1.3268Y-3.8976
X1.3268Y-3.937
X1.3268Y-4.4094
X1.3268Y-4.4488
X1.3268Y-4.4882
X1.3268Y-4.5276
X1.3268Y-4.5669
X1.8898Y-1.7008
X1.8898Y-2.2362
X1.8898Y-2.3307
X1.8898Y-2.8661
X1.8898Y-2.9607
X1.8898Y-3.496
X1.8898Y-3.5906
X1.8898Y-4.1259
X1.8898Y-4.2205
X1.8898Y-4.7559
X1.9291Y-1.7008
X1.9291Y-2.2362
X1.9291Y-2.3307
X1.9291Y-2.8661
X1.9291Y-2.9607
X1.9291Y-3.496
X1.9291Y-3.5906
X1.9291Y-4.1259
X1.9291Y-4.2205
X1.9291Y-4.7559
X1.9685Y-1.7008
X1.9685Y-2.2362
X1.9685Y-2.3307
X1.9685Y-2.8661
X1.9685Y-2.9607
X1.9685Y-3.496
X1.9685Y-3.5906
X1.9685Y-4.1259
X1.9685Y-4.2205
X1.9685Y-4.7559
X2.0079Y-1.7008
X2.0079Y-2.2362
X2.0079Y-2.3307
X2.0079Y-2.8661
X2.0079Y-2.9607
X2.0079Y-3.496
X2.0079Y-3.5906
X2.0079Y-4.1259
X2.0079Y-4.2205
X2.0079Y-4.7559
X2.0472Y-1.7008
X2.0472Y-2.2362
X2.0472Y-2.3307
X2.0472Y-2.8661
X2.0472Y-2.9607
X2.0472Y-3.496
X2.0472Y-3.5906
X2.0472Y-4.1259
X2.0472Y-4.2205
X2.0472Y-4.7559
X2.6102Y-1.8898
X2.6102Y-1.9291
X2.6102Y-1.9685
X2.6102Y-2.0079
X2.6102Y-2.0472
X2.6102Y-2.5197
X2.6102Y-2.5591
X2.6102Y-2.5984
X2.6102Y-2.6378
X2.6102Y-2.6772
X2.6102Y-3.1496
X2.6102Y-3.189
X2.6102Y-3.2283
X2.6102Y-3.2677
X2.6102Y-3.3071
X2.6102Y-3.7795
X2.6102Y-3.8189
X2.6102Y-3.8583
X2.6102Y-3.8976
X2.6102Y-3.937
X2.6102Y-4.4094
X2.6102Y-4.4488
X2.6102Y-4.4882
X2.6102Y-4.5276
X2.6102Y-4.5669
X2.7048Y-2.0079
X2.7048Y-2.0472
X2.7048Y-2.6378
X2.7048Y-2.6772
X2.7048Y-3.2677
X2.7048Y-3.3071
X2.7048Y-3.8976
X2.7048Y-3.937
X2.7048Y-4.5276
X2.7048Y-4.5669
X2.7048Y-1.9685
X2.7048Y-2.5984
X2.7048Y-3.2283
X2.7048Y-3.8583
X2.7048Y-4.4882
X2.7048Y-1.8898
X2.7048Y-1.9291
X2.7048Y-2.5197
X2.7048Y-2.5591
X2.7048Y-3.1496
X2.7048Y-3.189
X2.7048Y-3.7795
X2.7048Y-3.8189
X2.7048Y-4.4094
X2.7048Y-4.4488
X3.2677Y-1.7008
X3.2677Y-2.2362
X3.2677Y-2.3307
X3.2677Y-2.8661
X3.2677Y-2.9607
X3.2677Y-3.496
X3.2677Y-3.5906
X3.2677Y-4.1259
X3.2677Y-4.2205
X3.2677Y-4.7559
X3.3071Y-1.7008
X3.3071Y-2.2362
X3.3071Y-2.3307
X3.3071Y-2.8661
X3.3071Y-2.9607
X3.3071Y-3.496
X3.3071Y-3.5906
X3.3071Y-4.1259
X3.3071Y-4.2205
X3.3071Y-4.7559
X3.3465Y-1.7008
X3.3465Y-2.2362
X3.3465Y-2.3307
X3.3465Y-2.8661
X3.3465Y-2.9607
X3.3465Y-3.496
X3.3465Y-3.5906
X3.3465Y-4.1259
X3.3465Y-4.2205
X3.3465Y-4.7559
X3.3858Y-1.7008
X3.3858Y-2.2362
X3.3858Y-2.3307
X3.3858Y-2.8661
X3.3858Y-2.9607
X3.3858Y-3.496
X3.3858Y-3.5906
X3.3858Y-4.1259
X3.3858Y-4.2205
X3.3858Y-4.7559
X3.4252Y-1.7008
X3.4252Y-2.2362
X3.4252Y-2.3307
X3.4252Y-2.8661
X3.4252Y-2.9607
X3.4252Y-3.496
X3.4252Y-3.5906
X3.4252Y-4.1259
X3.4252Y-4.2205
X3.4252Y-4.7559
X3.9881Y-1.8898
X3.9881Y-1.9291
X3.9881Y-2.5197
X3.9881Y-2.5591
X3.9881Y-3.1496
X3.9881Y-3.189
X3.9881Y-3.7795
X3.9881Y-3.8189
X3.9881Y-4.4094
X3.9881Y-4.4488
X3.9881Y-1.9685
X3.9881Y-2.5984
X3.9881Y-3.2283
X3.9881Y-3.8583
X3.9881Y-4.4882
X3.9881Y-2.0079
X3.9881Y-2.0472
X3.9881Y-2.6378
X3.9881Y-2.6772
X3.9881Y-3.2677
X3.9881Y-3.3071
X3.9881Y-3.8976
X3.9881Y-3.937
X3.9881Y-4.5276
X3.9881Y-4.5669
X3.996Y-1.4363
X3.996Y-1.4758
X3.996Y-1.5152
X3.996Y-1.5546
X3.996Y-1.5941
X3.996Y-4.8626
X3.996Y-4.9021
X3.996Y-4.9415
X3.996Y-4.9809
X3.996Y-5.0204
X4.0941Y-1.693
X4.0941Y-4.7637
X4.1336Y-1.693
X4.1336Y-4.7637
X4.173Y-1.693
X4.173Y-4.7637
X4.2124Y-1.693
X4.2124Y-4.7637
X4.2519Y-1.693
X4.2519Y-4.7637
T2
X1.4291Y-1.878
X1.4291Y-2.0591
X1.4291Y-2.5079
X1.4291Y-2.689
X1.4291Y-3.1378
X1.4291Y-3.3189
X1.4291Y-3.7677
X1.4291Y-3.9488
X1.4291Y-4.3976
X1.4291Y-4.5787
X3.8858Y-1.878
X3.8858Y-2.0591
X3.8858Y-2.5079
X3.8858Y-2.689
X3.8858Y-3.1378
X3.8858Y-3.3189
X3.8858Y-3.7677
X3.8858Y-3.9488
X3.8858Y-4.3976
X3.8858Y-4.5787
T3
X1.1418Y-1.515
X1.1418Y-4.9417
X4.1732Y-1.515
T0
M30
