G04 #@! TF.GenerationSoftware,KiCad,Pcbnew,(5.1.0-70-g46d257dc6)*
G04 #@! TF.CreationDate,2019-04-22T18:26:59+03:00*
G04 #@! TF.ProjectId,stm32_ds2480_emu,73746d33-325f-4647-9332-3438305f656d,rev?*
G04 #@! TF.SameCoordinates,Original*
G04 #@! TF.FileFunction,Copper,L2,Bot*
G04 #@! TF.FilePolarity,Positive*
%FSLAX46Y46*%
G04 Gerber Fmt 4.6, Leading zero omitted, Abs format (unit mm)*
G04 Created by KiCad (PCBNEW (5.1.0-70-g46d257dc6)) date 2019-04-22 18:26:59*
%MOMM*%
%LPD*%
G04 APERTURE LIST*
%ADD10C,0.100000*%
%ADD11C,0.875000*%
%ADD12R,1.000000X1.400000*%
%ADD13R,1.200000X1.400000*%
%ADD14C,1.450000*%
%ADD15O,1.900000X1.200000*%
%ADD16O,1.700000X1.700000*%
%ADD17R,1.700000X1.700000*%
%ADD18O,2.000000X1.700000*%
%ADD19C,1.700000*%
%ADD20C,0.800000*%
%ADD21C,0.650000*%
%ADD22C,0.250000*%
%ADD23C,0.450000*%
%ADD24C,0.254000*%
G04 APERTURE END LIST*
D10*
G36*
X124527691Y-87151053D02*
G01*
X124548926Y-87154203D01*
X124569750Y-87159419D01*
X124589962Y-87166651D01*
X124609368Y-87175830D01*
X124627781Y-87186866D01*
X124645024Y-87199654D01*
X124660930Y-87214070D01*
X124675346Y-87229976D01*
X124688134Y-87247219D01*
X124699170Y-87265632D01*
X124708349Y-87285038D01*
X124715581Y-87305250D01*
X124720797Y-87326074D01*
X124723947Y-87347309D01*
X124725000Y-87368750D01*
X124725000Y-87806250D01*
X124723947Y-87827691D01*
X124720797Y-87848926D01*
X124715581Y-87869750D01*
X124708349Y-87889962D01*
X124699170Y-87909368D01*
X124688134Y-87927781D01*
X124675346Y-87945024D01*
X124660930Y-87960930D01*
X124645024Y-87975346D01*
X124627781Y-87988134D01*
X124609368Y-87999170D01*
X124589962Y-88008349D01*
X124569750Y-88015581D01*
X124548926Y-88020797D01*
X124527691Y-88023947D01*
X124506250Y-88025000D01*
X123993750Y-88025000D01*
X123972309Y-88023947D01*
X123951074Y-88020797D01*
X123930250Y-88015581D01*
X123910038Y-88008349D01*
X123890632Y-87999170D01*
X123872219Y-87988134D01*
X123854976Y-87975346D01*
X123839070Y-87960930D01*
X123824654Y-87945024D01*
X123811866Y-87927781D01*
X123800830Y-87909368D01*
X123791651Y-87889962D01*
X123784419Y-87869750D01*
X123779203Y-87848926D01*
X123776053Y-87827691D01*
X123775000Y-87806250D01*
X123775000Y-87368750D01*
X123776053Y-87347309D01*
X123779203Y-87326074D01*
X123784419Y-87305250D01*
X123791651Y-87285038D01*
X123800830Y-87265632D01*
X123811866Y-87247219D01*
X123824654Y-87229976D01*
X123839070Y-87214070D01*
X123854976Y-87199654D01*
X123872219Y-87186866D01*
X123890632Y-87175830D01*
X123910038Y-87166651D01*
X123930250Y-87159419D01*
X123951074Y-87154203D01*
X123972309Y-87151053D01*
X123993750Y-87150000D01*
X124506250Y-87150000D01*
X124527691Y-87151053D01*
X124527691Y-87151053D01*
G37*
D11*
X124250000Y-87587500D03*
D10*
G36*
X124527691Y-85576053D02*
G01*
X124548926Y-85579203D01*
X124569750Y-85584419D01*
X124589962Y-85591651D01*
X124609368Y-85600830D01*
X124627781Y-85611866D01*
X124645024Y-85624654D01*
X124660930Y-85639070D01*
X124675346Y-85654976D01*
X124688134Y-85672219D01*
X124699170Y-85690632D01*
X124708349Y-85710038D01*
X124715581Y-85730250D01*
X124720797Y-85751074D01*
X124723947Y-85772309D01*
X124725000Y-85793750D01*
X124725000Y-86231250D01*
X124723947Y-86252691D01*
X124720797Y-86273926D01*
X124715581Y-86294750D01*
X124708349Y-86314962D01*
X124699170Y-86334368D01*
X124688134Y-86352781D01*
X124675346Y-86370024D01*
X124660930Y-86385930D01*
X124645024Y-86400346D01*
X124627781Y-86413134D01*
X124609368Y-86424170D01*
X124589962Y-86433349D01*
X124569750Y-86440581D01*
X124548926Y-86445797D01*
X124527691Y-86448947D01*
X124506250Y-86450000D01*
X123993750Y-86450000D01*
X123972309Y-86448947D01*
X123951074Y-86445797D01*
X123930250Y-86440581D01*
X123910038Y-86433349D01*
X123890632Y-86424170D01*
X123872219Y-86413134D01*
X123854976Y-86400346D01*
X123839070Y-86385930D01*
X123824654Y-86370024D01*
X123811866Y-86352781D01*
X123800830Y-86334368D01*
X123791651Y-86314962D01*
X123784419Y-86294750D01*
X123779203Y-86273926D01*
X123776053Y-86252691D01*
X123775000Y-86231250D01*
X123775000Y-85793750D01*
X123776053Y-85772309D01*
X123779203Y-85751074D01*
X123784419Y-85730250D01*
X123791651Y-85710038D01*
X123800830Y-85690632D01*
X123811866Y-85672219D01*
X123824654Y-85654976D01*
X123839070Y-85639070D01*
X123854976Y-85624654D01*
X123872219Y-85611866D01*
X123890632Y-85600830D01*
X123910038Y-85591651D01*
X123930250Y-85584419D01*
X123951074Y-85579203D01*
X123972309Y-85576053D01*
X123993750Y-85575000D01*
X124506250Y-85575000D01*
X124527691Y-85576053D01*
X124527691Y-85576053D01*
G37*
D11*
X124250000Y-86012500D03*
D10*
G36*
X126777691Y-87151053D02*
G01*
X126798926Y-87154203D01*
X126819750Y-87159419D01*
X126839962Y-87166651D01*
X126859368Y-87175830D01*
X126877781Y-87186866D01*
X126895024Y-87199654D01*
X126910930Y-87214070D01*
X126925346Y-87229976D01*
X126938134Y-87247219D01*
X126949170Y-87265632D01*
X126958349Y-87285038D01*
X126965581Y-87305250D01*
X126970797Y-87326074D01*
X126973947Y-87347309D01*
X126975000Y-87368750D01*
X126975000Y-87806250D01*
X126973947Y-87827691D01*
X126970797Y-87848926D01*
X126965581Y-87869750D01*
X126958349Y-87889962D01*
X126949170Y-87909368D01*
X126938134Y-87927781D01*
X126925346Y-87945024D01*
X126910930Y-87960930D01*
X126895024Y-87975346D01*
X126877781Y-87988134D01*
X126859368Y-87999170D01*
X126839962Y-88008349D01*
X126819750Y-88015581D01*
X126798926Y-88020797D01*
X126777691Y-88023947D01*
X126756250Y-88025000D01*
X126243750Y-88025000D01*
X126222309Y-88023947D01*
X126201074Y-88020797D01*
X126180250Y-88015581D01*
X126160038Y-88008349D01*
X126140632Y-87999170D01*
X126122219Y-87988134D01*
X126104976Y-87975346D01*
X126089070Y-87960930D01*
X126074654Y-87945024D01*
X126061866Y-87927781D01*
X126050830Y-87909368D01*
X126041651Y-87889962D01*
X126034419Y-87869750D01*
X126029203Y-87848926D01*
X126026053Y-87827691D01*
X126025000Y-87806250D01*
X126025000Y-87368750D01*
X126026053Y-87347309D01*
X126029203Y-87326074D01*
X126034419Y-87305250D01*
X126041651Y-87285038D01*
X126050830Y-87265632D01*
X126061866Y-87247219D01*
X126074654Y-87229976D01*
X126089070Y-87214070D01*
X126104976Y-87199654D01*
X126122219Y-87186866D01*
X126140632Y-87175830D01*
X126160038Y-87166651D01*
X126180250Y-87159419D01*
X126201074Y-87154203D01*
X126222309Y-87151053D01*
X126243750Y-87150000D01*
X126756250Y-87150000D01*
X126777691Y-87151053D01*
X126777691Y-87151053D01*
G37*
D11*
X126500000Y-87587500D03*
D10*
G36*
X126777691Y-85576053D02*
G01*
X126798926Y-85579203D01*
X126819750Y-85584419D01*
X126839962Y-85591651D01*
X126859368Y-85600830D01*
X126877781Y-85611866D01*
X126895024Y-85624654D01*
X126910930Y-85639070D01*
X126925346Y-85654976D01*
X126938134Y-85672219D01*
X126949170Y-85690632D01*
X126958349Y-85710038D01*
X126965581Y-85730250D01*
X126970797Y-85751074D01*
X126973947Y-85772309D01*
X126975000Y-85793750D01*
X126975000Y-86231250D01*
X126973947Y-86252691D01*
X126970797Y-86273926D01*
X126965581Y-86294750D01*
X126958349Y-86314962D01*
X126949170Y-86334368D01*
X126938134Y-86352781D01*
X126925346Y-86370024D01*
X126910930Y-86385930D01*
X126895024Y-86400346D01*
X126877781Y-86413134D01*
X126859368Y-86424170D01*
X126839962Y-86433349D01*
X126819750Y-86440581D01*
X126798926Y-86445797D01*
X126777691Y-86448947D01*
X126756250Y-86450000D01*
X126243750Y-86450000D01*
X126222309Y-86448947D01*
X126201074Y-86445797D01*
X126180250Y-86440581D01*
X126160038Y-86433349D01*
X126140632Y-86424170D01*
X126122219Y-86413134D01*
X126104976Y-86400346D01*
X126089070Y-86385930D01*
X126074654Y-86370024D01*
X126061866Y-86352781D01*
X126050830Y-86334368D01*
X126041651Y-86314962D01*
X126034419Y-86294750D01*
X126029203Y-86273926D01*
X126026053Y-86252691D01*
X126025000Y-86231250D01*
X126025000Y-85793750D01*
X126026053Y-85772309D01*
X126029203Y-85751074D01*
X126034419Y-85730250D01*
X126041651Y-85710038D01*
X126050830Y-85690632D01*
X126061866Y-85672219D01*
X126074654Y-85654976D01*
X126089070Y-85639070D01*
X126104976Y-85624654D01*
X126122219Y-85611866D01*
X126140632Y-85600830D01*
X126160038Y-85591651D01*
X126180250Y-85584419D01*
X126201074Y-85579203D01*
X126222309Y-85576053D01*
X126243750Y-85575000D01*
X126756250Y-85575000D01*
X126777691Y-85576053D01*
X126777691Y-85576053D01*
G37*
D11*
X126500000Y-86012500D03*
D12*
X122650000Y-83800000D03*
X120750000Y-83800000D03*
X120750000Y-86000000D03*
D13*
X122470000Y-86000000D03*
D14*
X116962500Y-82750000D03*
X116962500Y-87750000D03*
D15*
X114262500Y-81750000D03*
X114262500Y-88750000D03*
D16*
X129040000Y-95250000D03*
X126500000Y-95250000D03*
X123960000Y-95250000D03*
D17*
X121420000Y-95250000D03*
D16*
X135640000Y-76000000D03*
D17*
X133100000Y-76000000D03*
D18*
X140500000Y-86500000D03*
D10*
G36*
X141274504Y-83151204D02*
G01*
X141298773Y-83154804D01*
X141322571Y-83160765D01*
X141345671Y-83169030D01*
X141367849Y-83179520D01*
X141388893Y-83192133D01*
X141408598Y-83206747D01*
X141426777Y-83223223D01*
X141443253Y-83241402D01*
X141457867Y-83261107D01*
X141470480Y-83282151D01*
X141480970Y-83304329D01*
X141489235Y-83327429D01*
X141495196Y-83351227D01*
X141498796Y-83375496D01*
X141500000Y-83400000D01*
X141500000Y-84600000D01*
X141498796Y-84624504D01*
X141495196Y-84648773D01*
X141489235Y-84672571D01*
X141480970Y-84695671D01*
X141470480Y-84717849D01*
X141457867Y-84738893D01*
X141443253Y-84758598D01*
X141426777Y-84776777D01*
X141408598Y-84793253D01*
X141388893Y-84807867D01*
X141367849Y-84820480D01*
X141345671Y-84830970D01*
X141322571Y-84839235D01*
X141298773Y-84845196D01*
X141274504Y-84848796D01*
X141250000Y-84850000D01*
X139750000Y-84850000D01*
X139725496Y-84848796D01*
X139701227Y-84845196D01*
X139677429Y-84839235D01*
X139654329Y-84830970D01*
X139632151Y-84820480D01*
X139611107Y-84807867D01*
X139591402Y-84793253D01*
X139573223Y-84776777D01*
X139556747Y-84758598D01*
X139542133Y-84738893D01*
X139529520Y-84717849D01*
X139519030Y-84695671D01*
X139510765Y-84672571D01*
X139504804Y-84648773D01*
X139501204Y-84624504D01*
X139500000Y-84600000D01*
X139500000Y-83400000D01*
X139501204Y-83375496D01*
X139504804Y-83351227D01*
X139510765Y-83327429D01*
X139519030Y-83304329D01*
X139529520Y-83282151D01*
X139542133Y-83261107D01*
X139556747Y-83241402D01*
X139573223Y-83223223D01*
X139591402Y-83206747D01*
X139611107Y-83192133D01*
X139632151Y-83179520D01*
X139654329Y-83169030D01*
X139677429Y-83160765D01*
X139701227Y-83154804D01*
X139725496Y-83151204D01*
X139750000Y-83150000D01*
X141250000Y-83150000D01*
X141274504Y-83151204D01*
X141274504Y-83151204D01*
G37*
D19*
X140500000Y-84000000D03*
D20*
X116300000Y-74799966D03*
X118549998Y-75750000D03*
X114750000Y-78000002D03*
X121500000Y-78000000D03*
X124500014Y-83250000D03*
X132500000Y-88000000D03*
X130100000Y-78000000D03*
X126500000Y-84799996D03*
X124250006Y-84800000D03*
X118800000Y-85450000D03*
X118800000Y-84400000D03*
X119100000Y-82000000D03*
D21*
X133100000Y-76000000D02*
X129000000Y-76000000D01*
X129000000Y-76000000D02*
X127799966Y-74799966D01*
X127799966Y-74799966D02*
X116300000Y-74799966D01*
D22*
X117000002Y-75750000D02*
X118549998Y-75750000D01*
X114750000Y-78000002D02*
X117000002Y-75750000D01*
X126500000Y-87587500D02*
X124250000Y-87587500D01*
X119500000Y-87750000D02*
X116962500Y-87750000D01*
X119662500Y-87587500D02*
X119500000Y-87750000D01*
X122470000Y-87530000D02*
X122412500Y-87587500D01*
X122470000Y-86000000D02*
X122470000Y-87530000D01*
X122412500Y-87587500D02*
X119662500Y-87587500D01*
X124250000Y-87587500D02*
X122412500Y-87587500D01*
X132500000Y-78500000D02*
X132500000Y-88000000D01*
X131100000Y-77100000D02*
X132500000Y-78500000D01*
X121500000Y-78000000D02*
X122400000Y-77100000D01*
X124500014Y-77100014D02*
X124500000Y-77100000D01*
X124500014Y-83250000D02*
X124500014Y-77100014D01*
X124500000Y-77100000D02*
X131100000Y-77100000D01*
X122400000Y-77100000D02*
X124500000Y-77100000D01*
D23*
X124250000Y-84799994D02*
X124250006Y-84800000D01*
X126500000Y-84799996D02*
X126500000Y-86012500D01*
X124250006Y-86012494D02*
X124250000Y-86012500D01*
X124250006Y-84800000D02*
X124250006Y-86012494D01*
D21*
X124250010Y-84799996D02*
X124250006Y-84800000D01*
X126500000Y-84799996D02*
X124250010Y-84799996D01*
X130049996Y-84799996D02*
X130100000Y-84850000D01*
X126500000Y-84799996D02*
X130049996Y-84799996D01*
X130100000Y-78000000D02*
X130100000Y-84850000D01*
X121420000Y-92580000D02*
X121420000Y-95250000D01*
X130100000Y-84850000D02*
X130100000Y-88800000D01*
X130100000Y-88800000D02*
X128150000Y-90750000D01*
X128150000Y-90750000D02*
X123250000Y-90750000D01*
X123250000Y-90750000D02*
X121420000Y-92580000D01*
D22*
X120550000Y-86000000D02*
X119700000Y-85150000D01*
X120750000Y-86000000D02*
X120550000Y-86000000D01*
X118800000Y-85450000D02*
X119100000Y-85150000D01*
X119700000Y-85150000D02*
X119100000Y-85150000D01*
X119675000Y-84675000D02*
X119075000Y-84675000D01*
X119075000Y-84675000D02*
X118800000Y-84400000D01*
X120550000Y-83800000D02*
X119675000Y-84675000D01*
X120750000Y-83800000D02*
X120550000Y-83800000D01*
D21*
X122650000Y-83800000D02*
X122650000Y-82750000D01*
X122650000Y-82750000D02*
X121900000Y-82000000D01*
X121900000Y-82000000D02*
X119100000Y-82000000D01*
D24*
G36*
X141805136Y-72958967D02*
G01*
X142098643Y-73047582D01*
X142369350Y-73191520D01*
X142606945Y-73385298D01*
X142802379Y-73621535D01*
X142948202Y-73891230D01*
X143038865Y-74184115D01*
X143073000Y-74508883D01*
X143073001Y-95979107D01*
X143041034Y-96305131D01*
X142952419Y-96598641D01*
X142808479Y-96869353D01*
X142614703Y-97106945D01*
X142378462Y-97302380D01*
X142108770Y-97448202D01*
X141815885Y-97538865D01*
X141491117Y-97573000D01*
X114520883Y-97573000D01*
X114194869Y-97541034D01*
X113901359Y-97452419D01*
X113630647Y-97308479D01*
X113393055Y-97114703D01*
X113197620Y-96878462D01*
X113051798Y-96608770D01*
X112961135Y-96315885D01*
X112927000Y-95991117D01*
X112927000Y-94400000D01*
X120241418Y-94400000D01*
X120241418Y-96100000D01*
X120247732Y-96164103D01*
X120266430Y-96225743D01*
X120296794Y-96282550D01*
X120337657Y-96332343D01*
X120387450Y-96373206D01*
X120444257Y-96403570D01*
X120505897Y-96422268D01*
X120570000Y-96428582D01*
X122270000Y-96428582D01*
X122334103Y-96422268D01*
X122395743Y-96403570D01*
X122452550Y-96373206D01*
X122502343Y-96332343D01*
X122543206Y-96282550D01*
X122573570Y-96225743D01*
X122592268Y-96164103D01*
X122598582Y-96100000D01*
X122598582Y-95250000D01*
X122777306Y-95250000D01*
X122800031Y-95480732D01*
X122867333Y-95702597D01*
X122976626Y-95907070D01*
X123123709Y-96086291D01*
X123302930Y-96233374D01*
X123507403Y-96342667D01*
X123729268Y-96409969D01*
X123902188Y-96427000D01*
X124017812Y-96427000D01*
X124190732Y-96409969D01*
X124412597Y-96342667D01*
X124617070Y-96233374D01*
X124796291Y-96086291D01*
X124943374Y-95907070D01*
X125052667Y-95702597D01*
X125119969Y-95480732D01*
X125142694Y-95250000D01*
X125317306Y-95250000D01*
X125340031Y-95480732D01*
X125407333Y-95702597D01*
X125516626Y-95907070D01*
X125663709Y-96086291D01*
X125842930Y-96233374D01*
X126047403Y-96342667D01*
X126269268Y-96409969D01*
X126442188Y-96427000D01*
X126557812Y-96427000D01*
X126730732Y-96409969D01*
X126952597Y-96342667D01*
X127157070Y-96233374D01*
X127336291Y-96086291D01*
X127483374Y-95907070D01*
X127592667Y-95702597D01*
X127659969Y-95480732D01*
X127682694Y-95250000D01*
X127659969Y-95019268D01*
X127592667Y-94797403D01*
X127483374Y-94592930D01*
X127336291Y-94413709D01*
X127157070Y-94266626D01*
X126952597Y-94157333D01*
X126730732Y-94090031D01*
X126557812Y-94073000D01*
X126442188Y-94073000D01*
X126269268Y-94090031D01*
X126047403Y-94157333D01*
X125842930Y-94266626D01*
X125663709Y-94413709D01*
X125516626Y-94592930D01*
X125407333Y-94797403D01*
X125340031Y-95019268D01*
X125317306Y-95250000D01*
X125142694Y-95250000D01*
X125119969Y-95019268D01*
X125052667Y-94797403D01*
X124943374Y-94592930D01*
X124796291Y-94413709D01*
X124617070Y-94266626D01*
X124412597Y-94157333D01*
X124190732Y-94090031D01*
X124017812Y-94073000D01*
X123902188Y-94073000D01*
X123729268Y-94090031D01*
X123507403Y-94157333D01*
X123302930Y-94266626D01*
X123123709Y-94413709D01*
X122976626Y-94592930D01*
X122867333Y-94797403D01*
X122800031Y-95019268D01*
X122777306Y-95250000D01*
X122598582Y-95250000D01*
X122598582Y-94400000D01*
X122592268Y-94335897D01*
X122573570Y-94274257D01*
X122543206Y-94217450D01*
X122502343Y-94167657D01*
X122452550Y-94126794D01*
X122395743Y-94096430D01*
X122334103Y-94077732D01*
X122270000Y-94071418D01*
X122072000Y-94071418D01*
X122072000Y-92850066D01*
X123520067Y-91402000D01*
X128117978Y-91402000D01*
X128150000Y-91405154D01*
X128182022Y-91402000D01*
X128277814Y-91392565D01*
X128400717Y-91355283D01*
X128513984Y-91294741D01*
X128613264Y-91213264D01*
X128633685Y-91188381D01*
X130538387Y-89283680D01*
X130563264Y-89263264D01*
X130644741Y-89163984D01*
X130705283Y-89050717D01*
X130742565Y-88927814D01*
X130752000Y-88832022D01*
X130752000Y-88832015D01*
X130755153Y-88800001D01*
X130752000Y-88767986D01*
X130752000Y-86500000D01*
X139167306Y-86500000D01*
X139190031Y-86730732D01*
X139257333Y-86952597D01*
X139366626Y-87157070D01*
X139513709Y-87336291D01*
X139692930Y-87483374D01*
X139897403Y-87592667D01*
X140119268Y-87659969D01*
X140292188Y-87677000D01*
X140707812Y-87677000D01*
X140880732Y-87659969D01*
X141102597Y-87592667D01*
X141307070Y-87483374D01*
X141486291Y-87336291D01*
X141633374Y-87157070D01*
X141742667Y-86952597D01*
X141809969Y-86730732D01*
X141832694Y-86500000D01*
X141809969Y-86269268D01*
X141742667Y-86047403D01*
X141633374Y-85842930D01*
X141486291Y-85663709D01*
X141307070Y-85516626D01*
X141102597Y-85407333D01*
X140880732Y-85340031D01*
X140707812Y-85323000D01*
X140292188Y-85323000D01*
X140119268Y-85340031D01*
X139897403Y-85407333D01*
X139692930Y-85516626D01*
X139513709Y-85663709D01*
X139366626Y-85842930D01*
X139257333Y-86047403D01*
X139190031Y-86269268D01*
X139167306Y-86500000D01*
X130752000Y-86500000D01*
X130752000Y-84882014D01*
X130755153Y-84849999D01*
X130752000Y-84817985D01*
X130752000Y-83400000D01*
X139171418Y-83400000D01*
X139171418Y-84600000D01*
X139182535Y-84712876D01*
X139215460Y-84821414D01*
X139268927Y-84921443D01*
X139340881Y-85009119D01*
X139428557Y-85081073D01*
X139528586Y-85134540D01*
X139637124Y-85167465D01*
X139750000Y-85178582D01*
X141250000Y-85178582D01*
X141362876Y-85167465D01*
X141471414Y-85134540D01*
X141571443Y-85081073D01*
X141659119Y-85009119D01*
X141731073Y-84921443D01*
X141784540Y-84821414D01*
X141817465Y-84712876D01*
X141828582Y-84600000D01*
X141828582Y-83400000D01*
X141817465Y-83287124D01*
X141784540Y-83178586D01*
X141731073Y-83078557D01*
X141659119Y-82990881D01*
X141571443Y-82918927D01*
X141471414Y-82865460D01*
X141362876Y-82832535D01*
X141250000Y-82821418D01*
X139750000Y-82821418D01*
X139637124Y-82832535D01*
X139528586Y-82865460D01*
X139428557Y-82918927D01*
X139340881Y-82990881D01*
X139268927Y-83078557D01*
X139215460Y-83178586D01*
X139182535Y-83287124D01*
X139171418Y-83400000D01*
X130752000Y-83400000D01*
X130752000Y-78325676D01*
X130799062Y-78212058D01*
X130827000Y-78071603D01*
X130827000Y-77928397D01*
X130799062Y-77787942D01*
X130744259Y-77655636D01*
X130664698Y-77536564D01*
X130563436Y-77435302D01*
X130444364Y-77355741D01*
X130312058Y-77300938D01*
X130171603Y-77273000D01*
X130028397Y-77273000D01*
X129887942Y-77300938D01*
X129755636Y-77355741D01*
X129636564Y-77435302D01*
X129535302Y-77536564D01*
X129455741Y-77655636D01*
X129400938Y-77787942D01*
X129373000Y-77928397D01*
X129373000Y-78071603D01*
X129400938Y-78212058D01*
X129448000Y-78325676D01*
X129448001Y-84147996D01*
X126825676Y-84147996D01*
X126712058Y-84100934D01*
X126571603Y-84072996D01*
X126428397Y-84072996D01*
X126287942Y-84100934D01*
X126174324Y-84147996D01*
X124575672Y-84147996D01*
X124462064Y-84100938D01*
X124321609Y-84073000D01*
X124178403Y-84073000D01*
X124037948Y-84100938D01*
X123905642Y-84155741D01*
X123786570Y-84235302D01*
X123685308Y-84336564D01*
X123605747Y-84455636D01*
X123550944Y-84587942D01*
X123523006Y-84728397D01*
X123523006Y-84871603D01*
X123550944Y-85012058D01*
X123605747Y-85144364D01*
X123685308Y-85263436D01*
X123698006Y-85276134D01*
X123698006Y-85334204D01*
X123689669Y-85338660D01*
X123606728Y-85406728D01*
X123538660Y-85489669D01*
X123488081Y-85584295D01*
X123456935Y-85686971D01*
X123446418Y-85793750D01*
X123446418Y-86231250D01*
X123456935Y-86338029D01*
X123488081Y-86440705D01*
X123538660Y-86535331D01*
X123606728Y-86618272D01*
X123689669Y-86686340D01*
X123784295Y-86736919D01*
X123886971Y-86768065D01*
X123993750Y-86778582D01*
X124506250Y-86778582D01*
X124613029Y-86768065D01*
X124715705Y-86736919D01*
X124810331Y-86686340D01*
X124893272Y-86618272D01*
X124961340Y-86535331D01*
X125011919Y-86440705D01*
X125043065Y-86338029D01*
X125053582Y-86231250D01*
X125053582Y-85793750D01*
X125043065Y-85686971D01*
X125011919Y-85584295D01*
X124961340Y-85489669D01*
X124930423Y-85451996D01*
X125819577Y-85451996D01*
X125788660Y-85489669D01*
X125738081Y-85584295D01*
X125706935Y-85686971D01*
X125696418Y-85793750D01*
X125696418Y-86231250D01*
X125706935Y-86338029D01*
X125738081Y-86440705D01*
X125788660Y-86535331D01*
X125856728Y-86618272D01*
X125939669Y-86686340D01*
X126034295Y-86736919D01*
X126136971Y-86768065D01*
X126243750Y-86778582D01*
X126756250Y-86778582D01*
X126863029Y-86768065D01*
X126965705Y-86736919D01*
X127060331Y-86686340D01*
X127143272Y-86618272D01*
X127211340Y-86535331D01*
X127261919Y-86440705D01*
X127293065Y-86338029D01*
X127303582Y-86231250D01*
X127303582Y-85793750D01*
X127293065Y-85686971D01*
X127261919Y-85584295D01*
X127211340Y-85489669D01*
X127180423Y-85451996D01*
X129448000Y-85451996D01*
X129448001Y-88529932D01*
X127879934Y-90098000D01*
X123282022Y-90098000D01*
X123250000Y-90094846D01*
X123122185Y-90107435D01*
X123060735Y-90126076D01*
X122999283Y-90144717D01*
X122886016Y-90205259D01*
X122786736Y-90286736D01*
X122766320Y-90311613D01*
X120981619Y-92096315D01*
X120956736Y-92116736D01*
X120875259Y-92216017D01*
X120814718Y-92329283D01*
X120814717Y-92329284D01*
X120777435Y-92452186D01*
X120764846Y-92580000D01*
X120768000Y-92612022D01*
X120768001Y-94071418D01*
X120570000Y-94071418D01*
X120505897Y-94077732D01*
X120444257Y-94096430D01*
X120387450Y-94126794D01*
X120337657Y-94167657D01*
X120296794Y-94217450D01*
X120266430Y-94274257D01*
X120247732Y-94335897D01*
X120241418Y-94400000D01*
X112927000Y-94400000D01*
X112927000Y-84328397D01*
X118073000Y-84328397D01*
X118073000Y-84471603D01*
X118100938Y-84612058D01*
X118155741Y-84744364D01*
X118235302Y-84863436D01*
X118296866Y-84925000D01*
X118235302Y-84986564D01*
X118155741Y-85105636D01*
X118100938Y-85237942D01*
X118073000Y-85378397D01*
X118073000Y-85521603D01*
X118100938Y-85662058D01*
X118155741Y-85794364D01*
X118235302Y-85913436D01*
X118336564Y-86014698D01*
X118455636Y-86094259D01*
X118587942Y-86149062D01*
X118728397Y-86177000D01*
X118871603Y-86177000D01*
X119012058Y-86149062D01*
X119144364Y-86094259D01*
X119263436Y-86014698D01*
X119364698Y-85913436D01*
X119444259Y-85794364D01*
X119499062Y-85662058D01*
X119511008Y-85602000D01*
X119512777Y-85602000D01*
X119921418Y-86010642D01*
X119921418Y-86700000D01*
X119927732Y-86764103D01*
X119946430Y-86825743D01*
X119976794Y-86882550D01*
X120017657Y-86932343D01*
X120067450Y-86973206D01*
X120124257Y-87003570D01*
X120185897Y-87022268D01*
X120250000Y-87028582D01*
X121250000Y-87028582D01*
X121314103Y-87022268D01*
X121375743Y-87003570D01*
X121432550Y-86973206D01*
X121482343Y-86932343D01*
X121523206Y-86882550D01*
X121553570Y-86825743D01*
X121572268Y-86764103D01*
X121578582Y-86700000D01*
X121578582Y-85300000D01*
X121572268Y-85235897D01*
X121553570Y-85174257D01*
X121523206Y-85117450D01*
X121482343Y-85067657D01*
X121432550Y-85026794D01*
X121375743Y-84996430D01*
X121314103Y-84977732D01*
X121250000Y-84971418D01*
X120250000Y-84971418D01*
X120185897Y-84977732D01*
X120171364Y-84982141D01*
X120089223Y-84900000D01*
X120171364Y-84817859D01*
X120185897Y-84822268D01*
X120250000Y-84828582D01*
X121250000Y-84828582D01*
X121314103Y-84822268D01*
X121375743Y-84803570D01*
X121432550Y-84773206D01*
X121482343Y-84732343D01*
X121523206Y-84682550D01*
X121553570Y-84625743D01*
X121572268Y-84564103D01*
X121578582Y-84500000D01*
X121578582Y-83100000D01*
X121572268Y-83035897D01*
X121553570Y-82974257D01*
X121523206Y-82917450D01*
X121482343Y-82867657D01*
X121432550Y-82826794D01*
X121375743Y-82796430D01*
X121314103Y-82777732D01*
X121250000Y-82771418D01*
X120250000Y-82771418D01*
X120185897Y-82777732D01*
X120124257Y-82796430D01*
X120067450Y-82826794D01*
X120017657Y-82867657D01*
X119976794Y-82917450D01*
X119946430Y-82974257D01*
X119927732Y-83035897D01*
X119921418Y-83100000D01*
X119921418Y-83789358D01*
X119503006Y-84207771D01*
X119499062Y-84187942D01*
X119444259Y-84055636D01*
X119364698Y-83936564D01*
X119263436Y-83835302D01*
X119144364Y-83755741D01*
X119012058Y-83700938D01*
X118871603Y-83673000D01*
X118728397Y-83673000D01*
X118587942Y-83700938D01*
X118455636Y-83755741D01*
X118336564Y-83835302D01*
X118235302Y-83936564D01*
X118155741Y-84055636D01*
X118100938Y-84187942D01*
X118073000Y-84328397D01*
X112927000Y-84328397D01*
X112927000Y-81928397D01*
X118373000Y-81928397D01*
X118373000Y-82071603D01*
X118400938Y-82212058D01*
X118455741Y-82344364D01*
X118535302Y-82463436D01*
X118636564Y-82564698D01*
X118755636Y-82644259D01*
X118887942Y-82699062D01*
X119028397Y-82727000D01*
X119171603Y-82727000D01*
X119312058Y-82699062D01*
X119425676Y-82652000D01*
X121629934Y-82652000D01*
X121885173Y-82907240D01*
X121876794Y-82917450D01*
X121846430Y-82974257D01*
X121827732Y-83035897D01*
X121821418Y-83100000D01*
X121821418Y-84500000D01*
X121827732Y-84564103D01*
X121846430Y-84625743D01*
X121876794Y-84682550D01*
X121917657Y-84732343D01*
X121967450Y-84773206D01*
X122024257Y-84803570D01*
X122085897Y-84822268D01*
X122150000Y-84828582D01*
X123150000Y-84828582D01*
X123214103Y-84822268D01*
X123275743Y-84803570D01*
X123332550Y-84773206D01*
X123382343Y-84732343D01*
X123423206Y-84682550D01*
X123453570Y-84625743D01*
X123472268Y-84564103D01*
X123478582Y-84500000D01*
X123478582Y-83100000D01*
X123472268Y-83035897D01*
X123453570Y-82974257D01*
X123423206Y-82917450D01*
X123382343Y-82867657D01*
X123332550Y-82826794D01*
X123302000Y-82810465D01*
X123302000Y-82782021D01*
X123305154Y-82749999D01*
X123292565Y-82622185D01*
X123255283Y-82499283D01*
X123194741Y-82386016D01*
X123113264Y-82286736D01*
X123088387Y-82266320D01*
X122383684Y-81561618D01*
X122363264Y-81536736D01*
X122263984Y-81455259D01*
X122150717Y-81394717D01*
X122027814Y-81357435D01*
X121932022Y-81348000D01*
X121900000Y-81344846D01*
X121867978Y-81348000D01*
X119425676Y-81348000D01*
X119312058Y-81300938D01*
X119171603Y-81273000D01*
X119028397Y-81273000D01*
X118887942Y-81300938D01*
X118755636Y-81355741D01*
X118636564Y-81435302D01*
X118535302Y-81536564D01*
X118455741Y-81655636D01*
X118400938Y-81787942D01*
X118373000Y-81928397D01*
X112927000Y-81928397D01*
X112927000Y-74728363D01*
X115573000Y-74728363D01*
X115573000Y-74871569D01*
X115600938Y-75012024D01*
X115655741Y-75144330D01*
X115735302Y-75263402D01*
X115836564Y-75364664D01*
X115955636Y-75444225D01*
X116087942Y-75499028D01*
X116228397Y-75526966D01*
X116371603Y-75526966D01*
X116512058Y-75499028D01*
X116625676Y-75451966D01*
X127529900Y-75451966D01*
X128516320Y-76438387D01*
X128536736Y-76463264D01*
X128636016Y-76544741D01*
X128749283Y-76605283D01*
X128872185Y-76642565D01*
X128884827Y-76643810D01*
X128967978Y-76652000D01*
X128967985Y-76652000D01*
X128999999Y-76655153D01*
X129032014Y-76652000D01*
X131921418Y-76652000D01*
X131921418Y-76850000D01*
X131927732Y-76914103D01*
X131946430Y-76975743D01*
X131976794Y-77032550D01*
X132017657Y-77082343D01*
X132067450Y-77123206D01*
X132124257Y-77153570D01*
X132185897Y-77172268D01*
X132250000Y-77178582D01*
X133950000Y-77178582D01*
X134014103Y-77172268D01*
X134075743Y-77153570D01*
X134132550Y-77123206D01*
X134182343Y-77082343D01*
X134223206Y-77032550D01*
X134253570Y-76975743D01*
X134272268Y-76914103D01*
X134278582Y-76850000D01*
X134278582Y-76000000D01*
X134457306Y-76000000D01*
X134480031Y-76230732D01*
X134547333Y-76452597D01*
X134656626Y-76657070D01*
X134803709Y-76836291D01*
X134982930Y-76983374D01*
X135187403Y-77092667D01*
X135409268Y-77159969D01*
X135582188Y-77177000D01*
X135697812Y-77177000D01*
X135870732Y-77159969D01*
X136092597Y-77092667D01*
X136297070Y-76983374D01*
X136476291Y-76836291D01*
X136623374Y-76657070D01*
X136732667Y-76452597D01*
X136799969Y-76230732D01*
X136822694Y-76000000D01*
X136799969Y-75769268D01*
X136732667Y-75547403D01*
X136623374Y-75342930D01*
X136476291Y-75163709D01*
X136297070Y-75016626D01*
X136092597Y-74907333D01*
X135870732Y-74840031D01*
X135697812Y-74823000D01*
X135582188Y-74823000D01*
X135409268Y-74840031D01*
X135187403Y-74907333D01*
X134982930Y-75016626D01*
X134803709Y-75163709D01*
X134656626Y-75342930D01*
X134547333Y-75547403D01*
X134480031Y-75769268D01*
X134457306Y-76000000D01*
X134278582Y-76000000D01*
X134278582Y-75150000D01*
X134272268Y-75085897D01*
X134253570Y-75024257D01*
X134223206Y-74967450D01*
X134182343Y-74917657D01*
X134132550Y-74876794D01*
X134075743Y-74846430D01*
X134014103Y-74827732D01*
X133950000Y-74821418D01*
X132250000Y-74821418D01*
X132185897Y-74827732D01*
X132124257Y-74846430D01*
X132067450Y-74876794D01*
X132017657Y-74917657D01*
X131976794Y-74967450D01*
X131946430Y-75024257D01*
X131927732Y-75085897D01*
X131921418Y-75150000D01*
X131921418Y-75348000D01*
X129270067Y-75348000D01*
X128283651Y-74361585D01*
X128263230Y-74336702D01*
X128163950Y-74255225D01*
X128050683Y-74194683D01*
X127927780Y-74157401D01*
X127831988Y-74147966D01*
X127799966Y-74144812D01*
X127767944Y-74147966D01*
X116625676Y-74147966D01*
X116512058Y-74100904D01*
X116371603Y-74072966D01*
X116228397Y-74072966D01*
X116087942Y-74100904D01*
X115955636Y-74155707D01*
X115836564Y-74235268D01*
X115735302Y-74336530D01*
X115655741Y-74455602D01*
X115600938Y-74587908D01*
X115573000Y-74728363D01*
X112927000Y-74728363D01*
X112927000Y-74520883D01*
X112958967Y-74194864D01*
X113047582Y-73901357D01*
X113191520Y-73630650D01*
X113385298Y-73393055D01*
X113621535Y-73197621D01*
X113891230Y-73051798D01*
X114184115Y-72961135D01*
X114508883Y-72927000D01*
X141479117Y-72927000D01*
X141805136Y-72958967D01*
X141805136Y-72958967D01*
G37*
X141805136Y-72958967D02*
X142098643Y-73047582D01*
X142369350Y-73191520D01*
X142606945Y-73385298D01*
X142802379Y-73621535D01*
X142948202Y-73891230D01*
X143038865Y-74184115D01*
X143073000Y-74508883D01*
X143073001Y-95979107D01*
X143041034Y-96305131D01*
X142952419Y-96598641D01*
X142808479Y-96869353D01*
X142614703Y-97106945D01*
X142378462Y-97302380D01*
X142108770Y-97448202D01*
X141815885Y-97538865D01*
X141491117Y-97573000D01*
X114520883Y-97573000D01*
X114194869Y-97541034D01*
X113901359Y-97452419D01*
X113630647Y-97308479D01*
X113393055Y-97114703D01*
X113197620Y-96878462D01*
X113051798Y-96608770D01*
X112961135Y-96315885D01*
X112927000Y-95991117D01*
X112927000Y-94400000D01*
X120241418Y-94400000D01*
X120241418Y-96100000D01*
X120247732Y-96164103D01*
X120266430Y-96225743D01*
X120296794Y-96282550D01*
X120337657Y-96332343D01*
X120387450Y-96373206D01*
X120444257Y-96403570D01*
X120505897Y-96422268D01*
X120570000Y-96428582D01*
X122270000Y-96428582D01*
X122334103Y-96422268D01*
X122395743Y-96403570D01*
X122452550Y-96373206D01*
X122502343Y-96332343D01*
X122543206Y-96282550D01*
X122573570Y-96225743D01*
X122592268Y-96164103D01*
X122598582Y-96100000D01*
X122598582Y-95250000D01*
X122777306Y-95250000D01*
X122800031Y-95480732D01*
X122867333Y-95702597D01*
X122976626Y-95907070D01*
X123123709Y-96086291D01*
X123302930Y-96233374D01*
X123507403Y-96342667D01*
X123729268Y-96409969D01*
X123902188Y-96427000D01*
X124017812Y-96427000D01*
X124190732Y-96409969D01*
X124412597Y-96342667D01*
X124617070Y-96233374D01*
X124796291Y-96086291D01*
X124943374Y-95907070D01*
X125052667Y-95702597D01*
X125119969Y-95480732D01*
X125142694Y-95250000D01*
X125317306Y-95250000D01*
X125340031Y-95480732D01*
X125407333Y-95702597D01*
X125516626Y-95907070D01*
X125663709Y-96086291D01*
X125842930Y-96233374D01*
X126047403Y-96342667D01*
X126269268Y-96409969D01*
X126442188Y-96427000D01*
X126557812Y-96427000D01*
X126730732Y-96409969D01*
X126952597Y-96342667D01*
X127157070Y-96233374D01*
X127336291Y-96086291D01*
X127483374Y-95907070D01*
X127592667Y-95702597D01*
X127659969Y-95480732D01*
X127682694Y-95250000D01*
X127659969Y-95019268D01*
X127592667Y-94797403D01*
X127483374Y-94592930D01*
X127336291Y-94413709D01*
X127157070Y-94266626D01*
X126952597Y-94157333D01*
X126730732Y-94090031D01*
X126557812Y-94073000D01*
X126442188Y-94073000D01*
X126269268Y-94090031D01*
X126047403Y-94157333D01*
X125842930Y-94266626D01*
X125663709Y-94413709D01*
X125516626Y-94592930D01*
X125407333Y-94797403D01*
X125340031Y-95019268D01*
X125317306Y-95250000D01*
X125142694Y-95250000D01*
X125119969Y-95019268D01*
X125052667Y-94797403D01*
X124943374Y-94592930D01*
X124796291Y-94413709D01*
X124617070Y-94266626D01*
X124412597Y-94157333D01*
X124190732Y-94090031D01*
X124017812Y-94073000D01*
X123902188Y-94073000D01*
X123729268Y-94090031D01*
X123507403Y-94157333D01*
X123302930Y-94266626D01*
X123123709Y-94413709D01*
X122976626Y-94592930D01*
X122867333Y-94797403D01*
X122800031Y-95019268D01*
X122777306Y-95250000D01*
X122598582Y-95250000D01*
X122598582Y-94400000D01*
X122592268Y-94335897D01*
X122573570Y-94274257D01*
X122543206Y-94217450D01*
X122502343Y-94167657D01*
X122452550Y-94126794D01*
X122395743Y-94096430D01*
X122334103Y-94077732D01*
X122270000Y-94071418D01*
X122072000Y-94071418D01*
X122072000Y-92850066D01*
X123520067Y-91402000D01*
X128117978Y-91402000D01*
X128150000Y-91405154D01*
X128182022Y-91402000D01*
X128277814Y-91392565D01*
X128400717Y-91355283D01*
X128513984Y-91294741D01*
X128613264Y-91213264D01*
X128633685Y-91188381D01*
X130538387Y-89283680D01*
X130563264Y-89263264D01*
X130644741Y-89163984D01*
X130705283Y-89050717D01*
X130742565Y-88927814D01*
X130752000Y-88832022D01*
X130752000Y-88832015D01*
X130755153Y-88800001D01*
X130752000Y-88767986D01*
X130752000Y-86500000D01*
X139167306Y-86500000D01*
X139190031Y-86730732D01*
X139257333Y-86952597D01*
X139366626Y-87157070D01*
X139513709Y-87336291D01*
X139692930Y-87483374D01*
X139897403Y-87592667D01*
X140119268Y-87659969D01*
X140292188Y-87677000D01*
X140707812Y-87677000D01*
X140880732Y-87659969D01*
X141102597Y-87592667D01*
X141307070Y-87483374D01*
X141486291Y-87336291D01*
X141633374Y-87157070D01*
X141742667Y-86952597D01*
X141809969Y-86730732D01*
X141832694Y-86500000D01*
X141809969Y-86269268D01*
X141742667Y-86047403D01*
X141633374Y-85842930D01*
X141486291Y-85663709D01*
X141307070Y-85516626D01*
X141102597Y-85407333D01*
X140880732Y-85340031D01*
X140707812Y-85323000D01*
X140292188Y-85323000D01*
X140119268Y-85340031D01*
X139897403Y-85407333D01*
X139692930Y-85516626D01*
X139513709Y-85663709D01*
X139366626Y-85842930D01*
X139257333Y-86047403D01*
X139190031Y-86269268D01*
X139167306Y-86500000D01*
X130752000Y-86500000D01*
X130752000Y-84882014D01*
X130755153Y-84849999D01*
X130752000Y-84817985D01*
X130752000Y-83400000D01*
X139171418Y-83400000D01*
X139171418Y-84600000D01*
X139182535Y-84712876D01*
X139215460Y-84821414D01*
X139268927Y-84921443D01*
X139340881Y-85009119D01*
X139428557Y-85081073D01*
X139528586Y-85134540D01*
X139637124Y-85167465D01*
X139750000Y-85178582D01*
X141250000Y-85178582D01*
X141362876Y-85167465D01*
X141471414Y-85134540D01*
X141571443Y-85081073D01*
X141659119Y-85009119D01*
X141731073Y-84921443D01*
X141784540Y-84821414D01*
X141817465Y-84712876D01*
X141828582Y-84600000D01*
X141828582Y-83400000D01*
X141817465Y-83287124D01*
X141784540Y-83178586D01*
X141731073Y-83078557D01*
X141659119Y-82990881D01*
X141571443Y-82918927D01*
X141471414Y-82865460D01*
X141362876Y-82832535D01*
X141250000Y-82821418D01*
X139750000Y-82821418D01*
X139637124Y-82832535D01*
X139528586Y-82865460D01*
X139428557Y-82918927D01*
X139340881Y-82990881D01*
X139268927Y-83078557D01*
X139215460Y-83178586D01*
X139182535Y-83287124D01*
X139171418Y-83400000D01*
X130752000Y-83400000D01*
X130752000Y-78325676D01*
X130799062Y-78212058D01*
X130827000Y-78071603D01*
X130827000Y-77928397D01*
X130799062Y-77787942D01*
X130744259Y-77655636D01*
X130664698Y-77536564D01*
X130563436Y-77435302D01*
X130444364Y-77355741D01*
X130312058Y-77300938D01*
X130171603Y-77273000D01*
X130028397Y-77273000D01*
X129887942Y-77300938D01*
X129755636Y-77355741D01*
X129636564Y-77435302D01*
X129535302Y-77536564D01*
X129455741Y-77655636D01*
X129400938Y-77787942D01*
X129373000Y-77928397D01*
X129373000Y-78071603D01*
X129400938Y-78212058D01*
X129448000Y-78325676D01*
X129448001Y-84147996D01*
X126825676Y-84147996D01*
X126712058Y-84100934D01*
X126571603Y-84072996D01*
X126428397Y-84072996D01*
X126287942Y-84100934D01*
X126174324Y-84147996D01*
X124575672Y-84147996D01*
X124462064Y-84100938D01*
X124321609Y-84073000D01*
X124178403Y-84073000D01*
X124037948Y-84100938D01*
X123905642Y-84155741D01*
X123786570Y-84235302D01*
X123685308Y-84336564D01*
X123605747Y-84455636D01*
X123550944Y-84587942D01*
X123523006Y-84728397D01*
X123523006Y-84871603D01*
X123550944Y-85012058D01*
X123605747Y-85144364D01*
X123685308Y-85263436D01*
X123698006Y-85276134D01*
X123698006Y-85334204D01*
X123689669Y-85338660D01*
X123606728Y-85406728D01*
X123538660Y-85489669D01*
X123488081Y-85584295D01*
X123456935Y-85686971D01*
X123446418Y-85793750D01*
X123446418Y-86231250D01*
X123456935Y-86338029D01*
X123488081Y-86440705D01*
X123538660Y-86535331D01*
X123606728Y-86618272D01*
X123689669Y-86686340D01*
X123784295Y-86736919D01*
X123886971Y-86768065D01*
X123993750Y-86778582D01*
X124506250Y-86778582D01*
X124613029Y-86768065D01*
X124715705Y-86736919D01*
X124810331Y-86686340D01*
X124893272Y-86618272D01*
X124961340Y-86535331D01*
X125011919Y-86440705D01*
X125043065Y-86338029D01*
X125053582Y-86231250D01*
X125053582Y-85793750D01*
X125043065Y-85686971D01*
X125011919Y-85584295D01*
X124961340Y-85489669D01*
X124930423Y-85451996D01*
X125819577Y-85451996D01*
X125788660Y-85489669D01*
X125738081Y-85584295D01*
X125706935Y-85686971D01*
X125696418Y-85793750D01*
X125696418Y-86231250D01*
X125706935Y-86338029D01*
X125738081Y-86440705D01*
X125788660Y-86535331D01*
X125856728Y-86618272D01*
X125939669Y-86686340D01*
X126034295Y-86736919D01*
X126136971Y-86768065D01*
X126243750Y-86778582D01*
X126756250Y-86778582D01*
X126863029Y-86768065D01*
X126965705Y-86736919D01*
X127060331Y-86686340D01*
X127143272Y-86618272D01*
X127211340Y-86535331D01*
X127261919Y-86440705D01*
X127293065Y-86338029D01*
X127303582Y-86231250D01*
X127303582Y-85793750D01*
X127293065Y-85686971D01*
X127261919Y-85584295D01*
X127211340Y-85489669D01*
X127180423Y-85451996D01*
X129448000Y-85451996D01*
X129448001Y-88529932D01*
X127879934Y-90098000D01*
X123282022Y-90098000D01*
X123250000Y-90094846D01*
X123122185Y-90107435D01*
X123060735Y-90126076D01*
X122999283Y-90144717D01*
X122886016Y-90205259D01*
X122786736Y-90286736D01*
X122766320Y-90311613D01*
X120981619Y-92096315D01*
X120956736Y-92116736D01*
X120875259Y-92216017D01*
X120814718Y-92329283D01*
X120814717Y-92329284D01*
X120777435Y-92452186D01*
X120764846Y-92580000D01*
X120768000Y-92612022D01*
X120768001Y-94071418D01*
X120570000Y-94071418D01*
X120505897Y-94077732D01*
X120444257Y-94096430D01*
X120387450Y-94126794D01*
X120337657Y-94167657D01*
X120296794Y-94217450D01*
X120266430Y-94274257D01*
X120247732Y-94335897D01*
X120241418Y-94400000D01*
X112927000Y-94400000D01*
X112927000Y-84328397D01*
X118073000Y-84328397D01*
X118073000Y-84471603D01*
X118100938Y-84612058D01*
X118155741Y-84744364D01*
X118235302Y-84863436D01*
X118296866Y-84925000D01*
X118235302Y-84986564D01*
X118155741Y-85105636D01*
X118100938Y-85237942D01*
X118073000Y-85378397D01*
X118073000Y-85521603D01*
X118100938Y-85662058D01*
X118155741Y-85794364D01*
X118235302Y-85913436D01*
X118336564Y-86014698D01*
X118455636Y-86094259D01*
X118587942Y-86149062D01*
X118728397Y-86177000D01*
X118871603Y-86177000D01*
X119012058Y-86149062D01*
X119144364Y-86094259D01*
X119263436Y-86014698D01*
X119364698Y-85913436D01*
X119444259Y-85794364D01*
X119499062Y-85662058D01*
X119511008Y-85602000D01*
X119512777Y-85602000D01*
X119921418Y-86010642D01*
X119921418Y-86700000D01*
X119927732Y-86764103D01*
X119946430Y-86825743D01*
X119976794Y-86882550D01*
X120017657Y-86932343D01*
X120067450Y-86973206D01*
X120124257Y-87003570D01*
X120185897Y-87022268D01*
X120250000Y-87028582D01*
X121250000Y-87028582D01*
X121314103Y-87022268D01*
X121375743Y-87003570D01*
X121432550Y-86973206D01*
X121482343Y-86932343D01*
X121523206Y-86882550D01*
X121553570Y-86825743D01*
X121572268Y-86764103D01*
X121578582Y-86700000D01*
X121578582Y-85300000D01*
X121572268Y-85235897D01*
X121553570Y-85174257D01*
X121523206Y-85117450D01*
X121482343Y-85067657D01*
X121432550Y-85026794D01*
X121375743Y-84996430D01*
X121314103Y-84977732D01*
X121250000Y-84971418D01*
X120250000Y-84971418D01*
X120185897Y-84977732D01*
X120171364Y-84982141D01*
X120089223Y-84900000D01*
X120171364Y-84817859D01*
X120185897Y-84822268D01*
X120250000Y-84828582D01*
X121250000Y-84828582D01*
X121314103Y-84822268D01*
X121375743Y-84803570D01*
X121432550Y-84773206D01*
X121482343Y-84732343D01*
X121523206Y-84682550D01*
X121553570Y-84625743D01*
X121572268Y-84564103D01*
X121578582Y-84500000D01*
X121578582Y-83100000D01*
X121572268Y-83035897D01*
X121553570Y-82974257D01*
X121523206Y-82917450D01*
X121482343Y-82867657D01*
X121432550Y-82826794D01*
X121375743Y-82796430D01*
X121314103Y-82777732D01*
X121250000Y-82771418D01*
X120250000Y-82771418D01*
X120185897Y-82777732D01*
X120124257Y-82796430D01*
X120067450Y-82826794D01*
X120017657Y-82867657D01*
X119976794Y-82917450D01*
X119946430Y-82974257D01*
X119927732Y-83035897D01*
X119921418Y-83100000D01*
X119921418Y-83789358D01*
X119503006Y-84207771D01*
X119499062Y-84187942D01*
X119444259Y-84055636D01*
X119364698Y-83936564D01*
X119263436Y-83835302D01*
X119144364Y-83755741D01*
X119012058Y-83700938D01*
X118871603Y-83673000D01*
X118728397Y-83673000D01*
X118587942Y-83700938D01*
X118455636Y-83755741D01*
X118336564Y-83835302D01*
X118235302Y-83936564D01*
X118155741Y-84055636D01*
X118100938Y-84187942D01*
X118073000Y-84328397D01*
X112927000Y-84328397D01*
X112927000Y-81928397D01*
X118373000Y-81928397D01*
X118373000Y-82071603D01*
X118400938Y-82212058D01*
X118455741Y-82344364D01*
X118535302Y-82463436D01*
X118636564Y-82564698D01*
X118755636Y-82644259D01*
X118887942Y-82699062D01*
X119028397Y-82727000D01*
X119171603Y-82727000D01*
X119312058Y-82699062D01*
X119425676Y-82652000D01*
X121629934Y-82652000D01*
X121885173Y-82907240D01*
X121876794Y-82917450D01*
X121846430Y-82974257D01*
X121827732Y-83035897D01*
X121821418Y-83100000D01*
X121821418Y-84500000D01*
X121827732Y-84564103D01*
X121846430Y-84625743D01*
X121876794Y-84682550D01*
X121917657Y-84732343D01*
X121967450Y-84773206D01*
X122024257Y-84803570D01*
X122085897Y-84822268D01*
X122150000Y-84828582D01*
X123150000Y-84828582D01*
X123214103Y-84822268D01*
X123275743Y-84803570D01*
X123332550Y-84773206D01*
X123382343Y-84732343D01*
X123423206Y-84682550D01*
X123453570Y-84625743D01*
X123472268Y-84564103D01*
X123478582Y-84500000D01*
X123478582Y-83100000D01*
X123472268Y-83035897D01*
X123453570Y-82974257D01*
X123423206Y-82917450D01*
X123382343Y-82867657D01*
X123332550Y-82826794D01*
X123302000Y-82810465D01*
X123302000Y-82782021D01*
X123305154Y-82749999D01*
X123292565Y-82622185D01*
X123255283Y-82499283D01*
X123194741Y-82386016D01*
X123113264Y-82286736D01*
X123088387Y-82266320D01*
X122383684Y-81561618D01*
X122363264Y-81536736D01*
X122263984Y-81455259D01*
X122150717Y-81394717D01*
X122027814Y-81357435D01*
X121932022Y-81348000D01*
X121900000Y-81344846D01*
X121867978Y-81348000D01*
X119425676Y-81348000D01*
X119312058Y-81300938D01*
X119171603Y-81273000D01*
X119028397Y-81273000D01*
X118887942Y-81300938D01*
X118755636Y-81355741D01*
X118636564Y-81435302D01*
X118535302Y-81536564D01*
X118455741Y-81655636D01*
X118400938Y-81787942D01*
X118373000Y-81928397D01*
X112927000Y-81928397D01*
X112927000Y-74728363D01*
X115573000Y-74728363D01*
X115573000Y-74871569D01*
X115600938Y-75012024D01*
X115655741Y-75144330D01*
X115735302Y-75263402D01*
X115836564Y-75364664D01*
X115955636Y-75444225D01*
X116087942Y-75499028D01*
X116228397Y-75526966D01*
X116371603Y-75526966D01*
X116512058Y-75499028D01*
X116625676Y-75451966D01*
X127529900Y-75451966D01*
X128516320Y-76438387D01*
X128536736Y-76463264D01*
X128636016Y-76544741D01*
X128749283Y-76605283D01*
X128872185Y-76642565D01*
X128884827Y-76643810D01*
X128967978Y-76652000D01*
X128967985Y-76652000D01*
X128999999Y-76655153D01*
X129032014Y-76652000D01*
X131921418Y-76652000D01*
X131921418Y-76850000D01*
X131927732Y-76914103D01*
X131946430Y-76975743D01*
X131976794Y-77032550D01*
X132017657Y-77082343D01*
X132067450Y-77123206D01*
X132124257Y-77153570D01*
X132185897Y-77172268D01*
X132250000Y-77178582D01*
X133950000Y-77178582D01*
X134014103Y-77172268D01*
X134075743Y-77153570D01*
X134132550Y-77123206D01*
X134182343Y-77082343D01*
X134223206Y-77032550D01*
X134253570Y-76975743D01*
X134272268Y-76914103D01*
X134278582Y-76850000D01*
X134278582Y-76000000D01*
X134457306Y-76000000D01*
X134480031Y-76230732D01*
X134547333Y-76452597D01*
X134656626Y-76657070D01*
X134803709Y-76836291D01*
X134982930Y-76983374D01*
X135187403Y-77092667D01*
X135409268Y-77159969D01*
X135582188Y-77177000D01*
X135697812Y-77177000D01*
X135870732Y-77159969D01*
X136092597Y-77092667D01*
X136297070Y-76983374D01*
X136476291Y-76836291D01*
X136623374Y-76657070D01*
X136732667Y-76452597D01*
X136799969Y-76230732D01*
X136822694Y-76000000D01*
X136799969Y-75769268D01*
X136732667Y-75547403D01*
X136623374Y-75342930D01*
X136476291Y-75163709D01*
X136297070Y-75016626D01*
X136092597Y-74907333D01*
X135870732Y-74840031D01*
X135697812Y-74823000D01*
X135582188Y-74823000D01*
X135409268Y-74840031D01*
X135187403Y-74907333D01*
X134982930Y-75016626D01*
X134803709Y-75163709D01*
X134656626Y-75342930D01*
X134547333Y-75547403D01*
X134480031Y-75769268D01*
X134457306Y-76000000D01*
X134278582Y-76000000D01*
X134278582Y-75150000D01*
X134272268Y-75085897D01*
X134253570Y-75024257D01*
X134223206Y-74967450D01*
X134182343Y-74917657D01*
X134132550Y-74876794D01*
X134075743Y-74846430D01*
X134014103Y-74827732D01*
X133950000Y-74821418D01*
X132250000Y-74821418D01*
X132185897Y-74827732D01*
X132124257Y-74846430D01*
X132067450Y-74876794D01*
X132017657Y-74917657D01*
X131976794Y-74967450D01*
X131946430Y-75024257D01*
X131927732Y-75085897D01*
X131921418Y-75150000D01*
X131921418Y-75348000D01*
X129270067Y-75348000D01*
X128283651Y-74361585D01*
X128263230Y-74336702D01*
X128163950Y-74255225D01*
X128050683Y-74194683D01*
X127927780Y-74157401D01*
X127831988Y-74147966D01*
X127799966Y-74144812D01*
X127767944Y-74147966D01*
X116625676Y-74147966D01*
X116512058Y-74100904D01*
X116371603Y-74072966D01*
X116228397Y-74072966D01*
X116087942Y-74100904D01*
X115955636Y-74155707D01*
X115836564Y-74235268D01*
X115735302Y-74336530D01*
X115655741Y-74455602D01*
X115600938Y-74587908D01*
X115573000Y-74728363D01*
X112927000Y-74728363D01*
X112927000Y-74520883D01*
X112958967Y-74194864D01*
X113047582Y-73901357D01*
X113191520Y-73630650D01*
X113385298Y-73393055D01*
X113621535Y-73197621D01*
X113891230Y-73051798D01*
X114184115Y-72961135D01*
X114508883Y-72927000D01*
X141479117Y-72927000D01*
X141805136Y-72958967D01*
M02*
