G04 #@! TF.GenerationSoftware,KiCad,Pcbnew,(5.1.0-70-g46d257dc6)*
G04 #@! TF.CreationDate,2019-04-22T18:26:59+03:00*
G04 #@! TF.ProjectId,stm32_ds2480_emu,73746d33-325f-4647-9332-3438305f656d,rev?*
G04 #@! TF.SameCoordinates,Original*
G04 #@! TF.FileFunction,Soldermask,Bot*
G04 #@! TF.FilePolarity,Negative*
%FSLAX46Y46*%
G04 Gerber Fmt 4.6, Leading zero omitted, Abs format (unit mm)*
G04 Created by KiCad (PCBNEW (5.1.0-70-g46d257dc6)) date 2019-04-22 18:26:59*
%MOMM*%
%LPD*%
G04 APERTURE LIST*
%ADD10C,0.100000*%
G04 APERTURE END LIST*
D10*
G36*
X124070442Y-94355518D02*
G01*
X124136627Y-94362037D01*
X124306466Y-94413557D01*
X124462991Y-94497222D01*
X124498729Y-94526552D01*
X124600186Y-94609814D01*
X124683448Y-94711271D01*
X124712778Y-94747009D01*
X124796443Y-94903534D01*
X124847963Y-95073373D01*
X124865359Y-95250000D01*
X124847963Y-95426627D01*
X124796443Y-95596466D01*
X124712778Y-95752991D01*
X124683448Y-95788729D01*
X124600186Y-95890186D01*
X124498729Y-95973448D01*
X124462991Y-96002778D01*
X124306466Y-96086443D01*
X124136627Y-96137963D01*
X124070443Y-96144481D01*
X124004260Y-96151000D01*
X123915740Y-96151000D01*
X123849558Y-96144482D01*
X123783373Y-96137963D01*
X123613534Y-96086443D01*
X123457009Y-96002778D01*
X123421271Y-95973448D01*
X123319814Y-95890186D01*
X123236552Y-95788729D01*
X123207222Y-95752991D01*
X123123557Y-95596466D01*
X123072037Y-95426627D01*
X123054641Y-95250000D01*
X123072037Y-95073373D01*
X123123557Y-94903534D01*
X123207222Y-94747009D01*
X123236552Y-94711271D01*
X123319814Y-94609814D01*
X123421271Y-94526552D01*
X123457009Y-94497222D01*
X123613534Y-94413557D01*
X123783373Y-94362037D01*
X123849557Y-94355519D01*
X123915740Y-94349000D01*
X124004260Y-94349000D01*
X124070442Y-94355518D01*
X124070442Y-94355518D01*
G37*
G36*
X122321000Y-96151000D02*
G01*
X120519000Y-96151000D01*
X120519000Y-94349000D01*
X122321000Y-94349000D01*
X122321000Y-96151000D01*
X122321000Y-96151000D01*
G37*
G36*
X129150442Y-94355518D02*
G01*
X129216627Y-94362037D01*
X129386466Y-94413557D01*
X129542991Y-94497222D01*
X129578729Y-94526552D01*
X129680186Y-94609814D01*
X129763448Y-94711271D01*
X129792778Y-94747009D01*
X129876443Y-94903534D01*
X129927963Y-95073373D01*
X129945359Y-95250000D01*
X129927963Y-95426627D01*
X129876443Y-95596466D01*
X129792778Y-95752991D01*
X129763448Y-95788729D01*
X129680186Y-95890186D01*
X129578729Y-95973448D01*
X129542991Y-96002778D01*
X129386466Y-96086443D01*
X129216627Y-96137963D01*
X129150443Y-96144481D01*
X129084260Y-96151000D01*
X128995740Y-96151000D01*
X128929558Y-96144482D01*
X128863373Y-96137963D01*
X128693534Y-96086443D01*
X128537009Y-96002778D01*
X128501271Y-95973448D01*
X128399814Y-95890186D01*
X128316552Y-95788729D01*
X128287222Y-95752991D01*
X128203557Y-95596466D01*
X128152037Y-95426627D01*
X128134641Y-95250000D01*
X128152037Y-95073373D01*
X128203557Y-94903534D01*
X128287222Y-94747009D01*
X128316552Y-94711271D01*
X128399814Y-94609814D01*
X128501271Y-94526552D01*
X128537009Y-94497222D01*
X128693534Y-94413557D01*
X128863373Y-94362037D01*
X128929557Y-94355519D01*
X128995740Y-94349000D01*
X129084260Y-94349000D01*
X129150442Y-94355518D01*
X129150442Y-94355518D01*
G37*
G36*
X126610442Y-94355518D02*
G01*
X126676627Y-94362037D01*
X126846466Y-94413557D01*
X127002991Y-94497222D01*
X127038729Y-94526552D01*
X127140186Y-94609814D01*
X127223448Y-94711271D01*
X127252778Y-94747009D01*
X127336443Y-94903534D01*
X127387963Y-95073373D01*
X127405359Y-95250000D01*
X127387963Y-95426627D01*
X127336443Y-95596466D01*
X127252778Y-95752991D01*
X127223448Y-95788729D01*
X127140186Y-95890186D01*
X127038729Y-95973448D01*
X127002991Y-96002778D01*
X126846466Y-96086443D01*
X126676627Y-96137963D01*
X126610443Y-96144481D01*
X126544260Y-96151000D01*
X126455740Y-96151000D01*
X126389558Y-96144482D01*
X126323373Y-96137963D01*
X126153534Y-96086443D01*
X125997009Y-96002778D01*
X125961271Y-95973448D01*
X125859814Y-95890186D01*
X125776552Y-95788729D01*
X125747222Y-95752991D01*
X125663557Y-95596466D01*
X125612037Y-95426627D01*
X125594641Y-95250000D01*
X125612037Y-95073373D01*
X125663557Y-94903534D01*
X125747222Y-94747009D01*
X125776552Y-94711271D01*
X125859814Y-94609814D01*
X125961271Y-94526552D01*
X125997009Y-94497222D01*
X126153534Y-94413557D01*
X126323373Y-94362037D01*
X126389557Y-94355519D01*
X126455740Y-94349000D01*
X126544260Y-94349000D01*
X126610442Y-94355518D01*
X126610442Y-94355518D01*
G37*
G36*
X114676355Y-88102140D02*
G01*
X114740118Y-88108420D01*
X114830904Y-88135960D01*
X114862836Y-88145646D01*
X114975925Y-88206094D01*
X115075054Y-88287446D01*
X115156406Y-88386575D01*
X115216854Y-88499664D01*
X115216855Y-88499668D01*
X115254080Y-88622382D01*
X115266649Y-88750000D01*
X115254080Y-88877618D01*
X115226540Y-88968404D01*
X115216854Y-89000336D01*
X115156406Y-89113425D01*
X115075054Y-89212554D01*
X114975925Y-89293906D01*
X114862836Y-89354354D01*
X114830904Y-89364040D01*
X114740118Y-89391580D01*
X114676355Y-89397860D01*
X114644474Y-89401000D01*
X113880526Y-89401000D01*
X113848645Y-89397860D01*
X113784882Y-89391580D01*
X113694096Y-89364040D01*
X113662164Y-89354354D01*
X113549075Y-89293906D01*
X113449946Y-89212554D01*
X113368594Y-89113425D01*
X113308146Y-89000336D01*
X113298460Y-88968404D01*
X113270920Y-88877618D01*
X113258351Y-88750000D01*
X113270920Y-88622382D01*
X113308145Y-88499668D01*
X113308146Y-88499664D01*
X113368594Y-88386575D01*
X113449946Y-88287446D01*
X113549075Y-88206094D01*
X113662164Y-88145646D01*
X113694096Y-88135960D01*
X113784882Y-88108420D01*
X113848645Y-88102140D01*
X113880526Y-88099000D01*
X114644474Y-88099000D01*
X114676355Y-88102140D01*
X114676355Y-88102140D01*
G37*
G36*
X117188848Y-87003820D02*
G01*
X117188850Y-87003821D01*
X117188851Y-87003821D01*
X117330074Y-87062317D01*
X117330077Y-87062319D01*
X117457169Y-87147239D01*
X117565261Y-87255331D01*
X117619458Y-87336443D01*
X117650183Y-87382426D01*
X117708679Y-87523649D01*
X117708680Y-87523652D01*
X117738500Y-87673569D01*
X117738500Y-87826431D01*
X117711222Y-87963569D01*
X117708679Y-87976351D01*
X117650183Y-88117574D01*
X117650181Y-88117577D01*
X117565261Y-88244669D01*
X117457169Y-88352761D01*
X117330077Y-88437681D01*
X117330074Y-88437683D01*
X117188851Y-88496179D01*
X117188850Y-88496179D01*
X117188848Y-88496180D01*
X117038931Y-88526000D01*
X116886069Y-88526000D01*
X116736152Y-88496180D01*
X116736150Y-88496179D01*
X116736149Y-88496179D01*
X116594926Y-88437683D01*
X116594923Y-88437681D01*
X116467831Y-88352761D01*
X116359739Y-88244669D01*
X116274819Y-88117577D01*
X116274817Y-88117574D01*
X116216321Y-87976351D01*
X116213779Y-87963569D01*
X116186500Y-87826431D01*
X116186500Y-87673569D01*
X116216320Y-87523652D01*
X116216321Y-87523649D01*
X116274817Y-87382426D01*
X116305542Y-87336443D01*
X116359739Y-87255331D01*
X116467831Y-87147239D01*
X116594923Y-87062319D01*
X116594926Y-87062317D01*
X116736149Y-87003821D01*
X116736150Y-87003821D01*
X116736152Y-87003820D01*
X116886069Y-86974000D01*
X117038931Y-86974000D01*
X117188848Y-87003820D01*
X117188848Y-87003820D01*
G37*
G36*
X124629591Y-87103085D02*
G01*
X124663569Y-87113393D01*
X124694890Y-87130134D01*
X124722339Y-87152661D01*
X124744866Y-87180110D01*
X124761607Y-87211431D01*
X124771915Y-87245409D01*
X124776000Y-87286890D01*
X124776000Y-87888110D01*
X124771915Y-87929591D01*
X124761607Y-87963569D01*
X124744866Y-87994890D01*
X124722339Y-88022339D01*
X124694890Y-88044866D01*
X124663569Y-88061607D01*
X124629591Y-88071915D01*
X124588110Y-88076000D01*
X123911890Y-88076000D01*
X123870409Y-88071915D01*
X123836431Y-88061607D01*
X123805110Y-88044866D01*
X123777661Y-88022339D01*
X123755134Y-87994890D01*
X123738393Y-87963569D01*
X123728085Y-87929591D01*
X123724000Y-87888110D01*
X123724000Y-87286890D01*
X123728085Y-87245409D01*
X123738393Y-87211431D01*
X123755134Y-87180110D01*
X123777661Y-87152661D01*
X123805110Y-87130134D01*
X123836431Y-87113393D01*
X123870409Y-87103085D01*
X123911890Y-87099000D01*
X124588110Y-87099000D01*
X124629591Y-87103085D01*
X124629591Y-87103085D01*
G37*
G36*
X126879591Y-87103085D02*
G01*
X126913569Y-87113393D01*
X126944890Y-87130134D01*
X126972339Y-87152661D01*
X126994866Y-87180110D01*
X127011607Y-87211431D01*
X127021915Y-87245409D01*
X127026000Y-87286890D01*
X127026000Y-87888110D01*
X127021915Y-87929591D01*
X127011607Y-87963569D01*
X126994866Y-87994890D01*
X126972339Y-88022339D01*
X126944890Y-88044866D01*
X126913569Y-88061607D01*
X126879591Y-88071915D01*
X126838110Y-88076000D01*
X126161890Y-88076000D01*
X126120409Y-88071915D01*
X126086431Y-88061607D01*
X126055110Y-88044866D01*
X126027661Y-88022339D01*
X126005134Y-87994890D01*
X125988393Y-87963569D01*
X125978085Y-87929591D01*
X125974000Y-87888110D01*
X125974000Y-87286890D01*
X125978085Y-87245409D01*
X125988393Y-87211431D01*
X126005134Y-87180110D01*
X126027661Y-87152661D01*
X126055110Y-87130134D01*
X126086431Y-87113393D01*
X126120409Y-87103085D01*
X126161890Y-87099000D01*
X126838110Y-87099000D01*
X126879591Y-87103085D01*
X126879591Y-87103085D01*
G37*
G36*
X140756295Y-85605110D02*
G01*
X140826627Y-85612037D01*
X140996466Y-85663557D01*
X141152991Y-85747222D01*
X141188729Y-85776552D01*
X141290186Y-85859814D01*
X141373448Y-85961271D01*
X141402778Y-85997009D01*
X141486443Y-86153534D01*
X141537963Y-86323373D01*
X141555359Y-86500000D01*
X141537963Y-86676627D01*
X141486443Y-86846466D01*
X141402778Y-87002991D01*
X141373448Y-87038729D01*
X141290186Y-87140186D01*
X141208099Y-87207552D01*
X141152991Y-87252778D01*
X140996466Y-87336443D01*
X140826627Y-87387963D01*
X140760442Y-87394482D01*
X140694260Y-87401000D01*
X140305740Y-87401000D01*
X140239558Y-87394482D01*
X140173373Y-87387963D01*
X140003534Y-87336443D01*
X139847009Y-87252778D01*
X139791901Y-87207552D01*
X139709814Y-87140186D01*
X139626552Y-87038729D01*
X139597222Y-87002991D01*
X139513557Y-86846466D01*
X139462037Y-86676627D01*
X139444641Y-86500000D01*
X139462037Y-86323373D01*
X139513557Y-86153534D01*
X139597222Y-85997009D01*
X139626552Y-85961271D01*
X139709814Y-85859814D01*
X139811271Y-85776552D01*
X139847009Y-85747222D01*
X140003534Y-85663557D01*
X140173373Y-85612037D01*
X140243705Y-85605110D01*
X140305740Y-85599000D01*
X140694260Y-85599000D01*
X140756295Y-85605110D01*
X140756295Y-85605110D01*
G37*
G36*
X121301000Y-86751000D02*
G01*
X120199000Y-86751000D01*
X120199000Y-85249000D01*
X121301000Y-85249000D01*
X121301000Y-86751000D01*
X121301000Y-86751000D01*
G37*
G36*
X123121000Y-86751000D02*
G01*
X121819000Y-86751000D01*
X121819000Y-85249000D01*
X123121000Y-85249000D01*
X123121000Y-86751000D01*
X123121000Y-86751000D01*
G37*
G36*
X124629591Y-85528085D02*
G01*
X124663569Y-85538393D01*
X124694890Y-85555134D01*
X124722339Y-85577661D01*
X124744866Y-85605110D01*
X124761607Y-85636431D01*
X124771915Y-85670409D01*
X124776000Y-85711890D01*
X124776000Y-86313110D01*
X124771915Y-86354591D01*
X124761607Y-86388569D01*
X124744866Y-86419890D01*
X124722339Y-86447339D01*
X124694890Y-86469866D01*
X124663569Y-86486607D01*
X124629591Y-86496915D01*
X124588110Y-86501000D01*
X123911890Y-86501000D01*
X123870409Y-86496915D01*
X123836431Y-86486607D01*
X123805110Y-86469866D01*
X123777661Y-86447339D01*
X123755134Y-86419890D01*
X123738393Y-86388569D01*
X123728085Y-86354591D01*
X123724000Y-86313110D01*
X123724000Y-85711890D01*
X123728085Y-85670409D01*
X123738393Y-85636431D01*
X123755134Y-85605110D01*
X123777661Y-85577661D01*
X123805110Y-85555134D01*
X123836431Y-85538393D01*
X123870409Y-85528085D01*
X123911890Y-85524000D01*
X124588110Y-85524000D01*
X124629591Y-85528085D01*
X124629591Y-85528085D01*
G37*
G36*
X126879591Y-85528085D02*
G01*
X126913569Y-85538393D01*
X126944890Y-85555134D01*
X126972339Y-85577661D01*
X126994866Y-85605110D01*
X127011607Y-85636431D01*
X127021915Y-85670409D01*
X127026000Y-85711890D01*
X127026000Y-86313110D01*
X127021915Y-86354591D01*
X127011607Y-86388569D01*
X126994866Y-86419890D01*
X126972339Y-86447339D01*
X126944890Y-86469866D01*
X126913569Y-86486607D01*
X126879591Y-86496915D01*
X126838110Y-86501000D01*
X126161890Y-86501000D01*
X126120409Y-86496915D01*
X126086431Y-86486607D01*
X126055110Y-86469866D01*
X126027661Y-86447339D01*
X126005134Y-86419890D01*
X125988393Y-86388569D01*
X125978085Y-86354591D01*
X125974000Y-86313110D01*
X125974000Y-85711890D01*
X125978085Y-85670409D01*
X125988393Y-85636431D01*
X126005134Y-85605110D01*
X126027661Y-85577661D01*
X126055110Y-85555134D01*
X126086431Y-85538393D01*
X126120409Y-85528085D01*
X126161890Y-85524000D01*
X126838110Y-85524000D01*
X126879591Y-85528085D01*
X126879591Y-85528085D01*
G37*
G36*
X141408600Y-83102989D02*
G01*
X141441652Y-83113015D01*
X141472103Y-83129292D01*
X141498799Y-83151201D01*
X141520708Y-83177897D01*
X141536985Y-83208348D01*
X141547011Y-83241400D01*
X141551000Y-83281903D01*
X141551000Y-84718097D01*
X141547011Y-84758600D01*
X141536985Y-84791652D01*
X141520708Y-84822103D01*
X141498799Y-84848799D01*
X141472103Y-84870708D01*
X141441652Y-84886985D01*
X141408600Y-84897011D01*
X141368097Y-84901000D01*
X139631903Y-84901000D01*
X139591400Y-84897011D01*
X139558348Y-84886985D01*
X139527897Y-84870708D01*
X139501201Y-84848799D01*
X139479292Y-84822103D01*
X139463015Y-84791652D01*
X139452989Y-84758600D01*
X139449000Y-84718097D01*
X139449000Y-83281903D01*
X139452989Y-83241400D01*
X139463015Y-83208348D01*
X139479292Y-83177897D01*
X139501201Y-83151201D01*
X139527897Y-83129292D01*
X139558348Y-83113015D01*
X139591400Y-83102989D01*
X139631903Y-83099000D01*
X141368097Y-83099000D01*
X141408600Y-83102989D01*
X141408600Y-83102989D01*
G37*
G36*
X121301000Y-84551000D02*
G01*
X120199000Y-84551000D01*
X120199000Y-83049000D01*
X121301000Y-83049000D01*
X121301000Y-84551000D01*
X121301000Y-84551000D01*
G37*
G36*
X123201000Y-84551000D02*
G01*
X122099000Y-84551000D01*
X122099000Y-83049000D01*
X123201000Y-83049000D01*
X123201000Y-84551000D01*
X123201000Y-84551000D01*
G37*
G36*
X117188848Y-82003820D02*
G01*
X117188850Y-82003821D01*
X117188851Y-82003821D01*
X117330074Y-82062317D01*
X117330077Y-82062319D01*
X117457169Y-82147239D01*
X117565261Y-82255331D01*
X117650181Y-82382423D01*
X117650183Y-82382426D01*
X117708679Y-82523649D01*
X117738500Y-82673571D01*
X117738500Y-82826429D01*
X117708679Y-82976351D01*
X117650183Y-83117574D01*
X117650181Y-83117577D01*
X117565261Y-83244669D01*
X117457169Y-83352761D01*
X117330077Y-83437681D01*
X117330074Y-83437683D01*
X117188851Y-83496179D01*
X117188850Y-83496179D01*
X117188848Y-83496180D01*
X117038931Y-83526000D01*
X116886069Y-83526000D01*
X116736152Y-83496180D01*
X116736150Y-83496179D01*
X116736149Y-83496179D01*
X116594926Y-83437683D01*
X116594923Y-83437681D01*
X116467831Y-83352761D01*
X116359739Y-83244669D01*
X116274819Y-83117577D01*
X116274817Y-83117574D01*
X116216321Y-82976351D01*
X116186500Y-82826429D01*
X116186500Y-82673571D01*
X116216321Y-82523649D01*
X116274817Y-82382426D01*
X116274819Y-82382423D01*
X116359739Y-82255331D01*
X116467831Y-82147239D01*
X116594923Y-82062319D01*
X116594926Y-82062317D01*
X116736149Y-82003821D01*
X116736150Y-82003821D01*
X116736152Y-82003820D01*
X116886069Y-81974000D01*
X117038931Y-81974000D01*
X117188848Y-82003820D01*
X117188848Y-82003820D01*
G37*
G36*
X114676355Y-81102140D02*
G01*
X114740118Y-81108420D01*
X114830904Y-81135960D01*
X114862836Y-81145646D01*
X114975925Y-81206094D01*
X115075054Y-81287446D01*
X115156406Y-81386575D01*
X115216854Y-81499664D01*
X115216855Y-81499668D01*
X115254080Y-81622382D01*
X115266649Y-81750000D01*
X115254080Y-81877618D01*
X115226540Y-81968404D01*
X115216854Y-82000336D01*
X115156406Y-82113425D01*
X115075054Y-82212554D01*
X114975925Y-82293906D01*
X114862836Y-82354354D01*
X114830904Y-82364040D01*
X114740118Y-82391580D01*
X114676355Y-82397860D01*
X114644474Y-82401000D01*
X113880526Y-82401000D01*
X113848645Y-82397860D01*
X113784882Y-82391580D01*
X113694096Y-82364040D01*
X113662164Y-82354354D01*
X113549075Y-82293906D01*
X113449946Y-82212554D01*
X113368594Y-82113425D01*
X113308146Y-82000336D01*
X113298460Y-81968404D01*
X113270920Y-81877618D01*
X113258351Y-81750000D01*
X113270920Y-81622382D01*
X113308145Y-81499668D01*
X113308146Y-81499664D01*
X113368594Y-81386575D01*
X113449946Y-81287446D01*
X113549075Y-81206094D01*
X113662164Y-81145646D01*
X113694096Y-81135960D01*
X113784882Y-81108420D01*
X113848645Y-81102140D01*
X113880526Y-81099000D01*
X114644474Y-81099000D01*
X114676355Y-81102140D01*
X114676355Y-81102140D01*
G37*
G36*
X134001000Y-76901000D02*
G01*
X132199000Y-76901000D01*
X132199000Y-75099000D01*
X134001000Y-75099000D01*
X134001000Y-76901000D01*
X134001000Y-76901000D01*
G37*
G36*
X135750442Y-75105518D02*
G01*
X135816627Y-75112037D01*
X135986466Y-75163557D01*
X136142991Y-75247222D01*
X136178729Y-75276552D01*
X136280186Y-75359814D01*
X136363448Y-75461271D01*
X136392778Y-75497009D01*
X136476443Y-75653534D01*
X136527963Y-75823373D01*
X136545359Y-76000000D01*
X136527963Y-76176627D01*
X136476443Y-76346466D01*
X136392778Y-76502991D01*
X136363448Y-76538729D01*
X136280186Y-76640186D01*
X136178729Y-76723448D01*
X136142991Y-76752778D01*
X135986466Y-76836443D01*
X135816627Y-76887963D01*
X135750442Y-76894482D01*
X135684260Y-76901000D01*
X135595740Y-76901000D01*
X135529558Y-76894482D01*
X135463373Y-76887963D01*
X135293534Y-76836443D01*
X135137009Y-76752778D01*
X135101271Y-76723448D01*
X134999814Y-76640186D01*
X134916552Y-76538729D01*
X134887222Y-76502991D01*
X134803557Y-76346466D01*
X134752037Y-76176627D01*
X134734641Y-76000000D01*
X134752037Y-75823373D01*
X134803557Y-75653534D01*
X134887222Y-75497009D01*
X134916552Y-75461271D01*
X134999814Y-75359814D01*
X135101271Y-75276552D01*
X135137009Y-75247222D01*
X135293534Y-75163557D01*
X135463373Y-75112037D01*
X135529558Y-75105518D01*
X135595740Y-75099000D01*
X135684260Y-75099000D01*
X135750442Y-75105518D01*
X135750442Y-75105518D01*
G37*
M02*
