G04 #@! TF.GenerationSoftware,KiCad,Pcbnew,(5.99.0-812-g5d5363396)*
G04 #@! TF.CreationDate,2020-02-01T10:18:43+03:00*
G04 #@! TF.ProjectId,stm32_ds2480_emu_panel,73746d33-325f-4647-9332-3438305f656d,rev?*
G04 #@! TF.SameCoordinates,PX68e7780PY7ed6b40*
G04 #@! TF.FileFunction,OtherDrawing,Comment*
%FSLAX46Y46*%
G04 Gerber Fmt 4.6, Leading zero omitted, Abs format (unit mm)*
G04 Created by KiCad (PCBNEW (5.99.0-812-g5d5363396)) date 2020-02-01 10:18:43*
%MOMM*%
%LPD*%
G04 APERTURE LIST*
%ADD10C,0.100000*%
%ADD11C,0.090000*%
G04 APERTURE END LIST*
D10*
X74522142Y7328572D02*
X74722142Y6728572D01*
X74922142Y7328572D01*
X75122142Y6957143D02*
X75579285Y6957143D01*
X76179285Y7300000D02*
X76122142Y7328572D01*
X76036428Y7328572D01*
X75950714Y7300000D01*
X75893571Y7242858D01*
X75865000Y7185715D01*
X75836428Y7071429D01*
X75836428Y6985715D01*
X75865000Y6871429D01*
X75893571Y6814286D01*
X75950714Y6757143D01*
X76036428Y6728572D01*
X76093571Y6728572D01*
X76179285Y6757143D01*
X76207857Y6785715D01*
X76207857Y6985715D01*
X76093571Y6985715D01*
X76807857Y6728572D02*
X76607857Y7014286D01*
X76465000Y6728572D02*
X76465000Y7328572D01*
X76693571Y7328572D01*
X76750714Y7300000D01*
X76779285Y7271429D01*
X76807857Y7214286D01*
X76807857Y7128572D01*
X76779285Y7071429D01*
X76750714Y7042858D01*
X76693571Y7014286D01*
X76465000Y7014286D01*
X77179285Y7328572D02*
X77293571Y7328572D01*
X77350714Y7300000D01*
X77407857Y7242858D01*
X77436428Y7128572D01*
X77436428Y6928572D01*
X77407857Y6814286D01*
X77350714Y6757143D01*
X77293571Y6728572D01*
X77179285Y6728572D01*
X77122142Y6757143D01*
X77065000Y6814286D01*
X77036428Y6928572D01*
X77036428Y7128572D01*
X77065000Y7242858D01*
X77122142Y7300000D01*
X77179285Y7328572D01*
X77807857Y7328572D02*
X77922142Y7328572D01*
X77979285Y7300000D01*
X78036428Y7242858D01*
X78065000Y7128572D01*
X78065000Y6928572D01*
X78036428Y6814286D01*
X77979285Y6757143D01*
X77922142Y6728572D01*
X77807857Y6728572D01*
X77750714Y6757143D01*
X77693571Y6814286D01*
X77665000Y6928572D01*
X77665000Y7128572D01*
X77693571Y7242858D01*
X77750714Y7300000D01*
X77807857Y7328572D01*
X78236428Y7328572D02*
X78436428Y6728572D01*
X78636428Y7328572D01*
X78836428Y7042858D02*
X79036428Y7042858D01*
X79122142Y6728572D02*
X78836428Y6728572D01*
X78836428Y7328572D01*
X79122142Y7328572D01*
X-4400000Y7000000D02*
X74400000Y7000000D01*
X74522142Y21328572D02*
X74722142Y20728572D01*
X74922142Y21328572D01*
X75122142Y20957143D02*
X75579285Y20957143D01*
X76179285Y21300000D02*
X76122142Y21328572D01*
X76036428Y21328572D01*
X75950714Y21300000D01*
X75893571Y21242858D01*
X75865000Y21185715D01*
X75836428Y21071429D01*
X75836428Y20985715D01*
X75865000Y20871429D01*
X75893571Y20814286D01*
X75950714Y20757143D01*
X76036428Y20728572D01*
X76093571Y20728572D01*
X76179285Y20757143D01*
X76207857Y20785715D01*
X76207857Y20985715D01*
X76093571Y20985715D01*
X76807857Y20728572D02*
X76607857Y21014286D01*
X76465000Y20728572D02*
X76465000Y21328572D01*
X76693571Y21328572D01*
X76750714Y21300000D01*
X76779285Y21271429D01*
X76807857Y21214286D01*
X76807857Y21128572D01*
X76779285Y21071429D01*
X76750714Y21042858D01*
X76693571Y21014286D01*
X76465000Y21014286D01*
X77179285Y21328572D02*
X77293571Y21328572D01*
X77350714Y21300000D01*
X77407857Y21242858D01*
X77436428Y21128572D01*
X77436428Y20928572D01*
X77407857Y20814286D01*
X77350714Y20757143D01*
X77293571Y20728572D01*
X77179285Y20728572D01*
X77122142Y20757143D01*
X77065000Y20814286D01*
X77036428Y20928572D01*
X77036428Y21128572D01*
X77065000Y21242858D01*
X77122142Y21300000D01*
X77179285Y21328572D01*
X77807857Y21328572D02*
X77922142Y21328572D01*
X77979285Y21300000D01*
X78036428Y21242858D01*
X78065000Y21128572D01*
X78065000Y20928572D01*
X78036428Y20814286D01*
X77979285Y20757143D01*
X77922142Y20728572D01*
X77807857Y20728572D01*
X77750714Y20757143D01*
X77693571Y20814286D01*
X77665000Y20928572D01*
X77665000Y21128572D01*
X77693571Y21242858D01*
X77750714Y21300000D01*
X77807857Y21328572D01*
X78236428Y21328572D02*
X78436428Y20728572D01*
X78636428Y21328572D01*
X78836428Y21042858D02*
X79036428Y21042858D01*
X79122142Y20728572D02*
X78836428Y20728572D01*
X78836428Y21328572D01*
X79122142Y21328572D01*
X74522142Y35328572D02*
X74722142Y34728572D01*
X74922142Y35328572D01*
X75122142Y34957143D02*
X75579285Y34957143D01*
X76179285Y35300000D02*
X76122142Y35328572D01*
X76036428Y35328572D01*
X75950714Y35300000D01*
X75893571Y35242858D01*
X75865000Y35185715D01*
X75836428Y35071429D01*
X75836428Y34985715D01*
X75865000Y34871429D01*
X75893571Y34814286D01*
X75950714Y34757143D01*
X76036428Y34728572D01*
X76093571Y34728572D01*
X76179285Y34757143D01*
X76207857Y34785715D01*
X76207857Y34985715D01*
X76093571Y34985715D01*
X76807857Y34728572D02*
X76607857Y35014286D01*
X76465000Y34728572D02*
X76465000Y35328572D01*
X76693571Y35328572D01*
X76750714Y35300000D01*
X76779285Y35271429D01*
X76807857Y35214286D01*
X76807857Y35128572D01*
X76779285Y35071429D01*
X76750714Y35042858D01*
X76693571Y35014286D01*
X76465000Y35014286D01*
X77179285Y35328572D02*
X77293571Y35328572D01*
X77350714Y35300000D01*
X77407857Y35242858D01*
X77436428Y35128572D01*
X77436428Y34928572D01*
X77407857Y34814286D01*
X77350714Y34757143D01*
X77293571Y34728572D01*
X77179285Y34728572D01*
X77122142Y34757143D01*
X77065000Y34814286D01*
X77036428Y34928572D01*
X77036428Y35128572D01*
X77065000Y35242858D01*
X77122142Y35300000D01*
X77179285Y35328572D01*
X77807857Y35328572D02*
X77922142Y35328572D01*
X77979285Y35300000D01*
X78036428Y35242858D01*
X78065000Y35128572D01*
X78065000Y34928572D01*
X78036428Y34814286D01*
X77979285Y34757143D01*
X77922142Y34728572D01*
X77807857Y34728572D01*
X77750714Y34757143D01*
X77693571Y34814286D01*
X77665000Y34928572D01*
X77665000Y35128572D01*
X77693571Y35242858D01*
X77750714Y35300000D01*
X77807857Y35328572D01*
X78236428Y35328572D02*
X78436428Y34728572D01*
X78636428Y35328572D01*
X78836428Y35042858D02*
X79036428Y35042858D01*
X79122142Y34728572D02*
X78836428Y34728572D01*
X78836428Y35328572D01*
X79122142Y35328572D01*
X74522142Y49328572D02*
X74722142Y48728572D01*
X74922142Y49328572D01*
X75122142Y48957143D02*
X75579285Y48957143D01*
X76179285Y49300000D02*
X76122142Y49328572D01*
X76036428Y49328572D01*
X75950714Y49300000D01*
X75893571Y49242858D01*
X75865000Y49185715D01*
X75836428Y49071429D01*
X75836428Y48985715D01*
X75865000Y48871429D01*
X75893571Y48814286D01*
X75950714Y48757143D01*
X76036428Y48728572D01*
X76093571Y48728572D01*
X76179285Y48757143D01*
X76207857Y48785715D01*
X76207857Y48985715D01*
X76093571Y48985715D01*
X76807857Y48728572D02*
X76607857Y49014286D01*
X76465000Y48728572D02*
X76465000Y49328572D01*
X76693571Y49328572D01*
X76750714Y49300000D01*
X76779285Y49271429D01*
X76807857Y49214286D01*
X76807857Y49128572D01*
X76779285Y49071429D01*
X76750714Y49042858D01*
X76693571Y49014286D01*
X76465000Y49014286D01*
X77179285Y49328572D02*
X77293571Y49328572D01*
X77350714Y49300000D01*
X77407857Y49242858D01*
X77436428Y49128572D01*
X77436428Y48928572D01*
X77407857Y48814286D01*
X77350714Y48757143D01*
X77293571Y48728572D01*
X77179285Y48728572D01*
X77122142Y48757143D01*
X77065000Y48814286D01*
X77036428Y48928572D01*
X77036428Y49128572D01*
X77065000Y49242858D01*
X77122142Y49300000D01*
X77179285Y49328572D01*
X77807857Y49328572D02*
X77922142Y49328572D01*
X77979285Y49300000D01*
X78036428Y49242858D01*
X78065000Y49128572D01*
X78065000Y48928572D01*
X78036428Y48814286D01*
X77979285Y48757143D01*
X77922142Y48728572D01*
X77807857Y48728572D01*
X77750714Y48757143D01*
X77693571Y48814286D01*
X77665000Y48928572D01*
X77665000Y49128572D01*
X77693571Y49242858D01*
X77750714Y49300000D01*
X77807857Y49328572D01*
X78236428Y49328572D02*
X78436428Y48728572D01*
X78636428Y49328572D01*
X78836428Y49042858D02*
X79036428Y49042858D01*
X79122142Y48728572D02*
X78836428Y48728572D01*
X78836428Y49328572D01*
X79122142Y49328572D01*
X74522142Y63328572D02*
X74722142Y62728572D01*
X74922142Y63328572D01*
X75122142Y62957143D02*
X75579285Y62957143D01*
X76179285Y63300000D02*
X76122142Y63328572D01*
X76036428Y63328572D01*
X75950714Y63300000D01*
X75893571Y63242858D01*
X75865000Y63185715D01*
X75836428Y63071429D01*
X75836428Y62985715D01*
X75865000Y62871429D01*
X75893571Y62814286D01*
X75950714Y62757143D01*
X76036428Y62728572D01*
X76093571Y62728572D01*
X76179285Y62757143D01*
X76207857Y62785715D01*
X76207857Y62985715D01*
X76093571Y62985715D01*
X76807857Y62728572D02*
X76607857Y63014286D01*
X76465000Y62728572D02*
X76465000Y63328572D01*
X76693571Y63328572D01*
X76750714Y63300000D01*
X76779285Y63271429D01*
X76807857Y63214286D01*
X76807857Y63128572D01*
X76779285Y63071429D01*
X76750714Y63042858D01*
X76693571Y63014286D01*
X76465000Y63014286D01*
X77179285Y63328572D02*
X77293571Y63328572D01*
X77350714Y63300000D01*
X77407857Y63242858D01*
X77436428Y63128572D01*
X77436428Y62928572D01*
X77407857Y62814286D01*
X77350714Y62757143D01*
X77293571Y62728572D01*
X77179285Y62728572D01*
X77122142Y62757143D01*
X77065000Y62814286D01*
X77036428Y62928572D01*
X77036428Y63128572D01*
X77065000Y63242858D01*
X77122142Y63300000D01*
X77179285Y63328572D01*
X77807857Y63328572D02*
X77922142Y63328572D01*
X77979285Y63300000D01*
X78036428Y63242858D01*
X78065000Y63128572D01*
X78065000Y62928572D01*
X78036428Y62814286D01*
X77979285Y62757143D01*
X77922142Y62728572D01*
X77807857Y62728572D01*
X77750714Y62757143D01*
X77693571Y62814286D01*
X77665000Y62928572D01*
X77665000Y63128572D01*
X77693571Y63242858D01*
X77750714Y63300000D01*
X77807857Y63328572D01*
X78236428Y63328572D02*
X78436428Y62728572D01*
X78636428Y63328572D01*
X78836428Y63042858D02*
X79036428Y63042858D01*
X79122142Y62728572D02*
X78836428Y62728572D01*
X78836428Y63328572D01*
X79122142Y63328572D01*
X-4400000Y21000000D02*
X74400000Y21000000D01*
X-4400000Y35000000D02*
X74400000Y35000000D01*
X-4400000Y49000000D02*
X74400000Y49000000D01*
X-4400000Y63000000D02*
X74400000Y63000000D01*
X-4400000Y77000000D02*
X74400000Y77000000D01*
X74522142Y77328572D02*
X74722142Y76728572D01*
X74922142Y77328572D01*
X75122142Y76957143D02*
X75579285Y76957143D01*
X76179285Y77300000D02*
X76122142Y77328572D01*
X76036428Y77328572D01*
X75950714Y77300000D01*
X75893571Y77242858D01*
X75865000Y77185715D01*
X75836428Y77071429D01*
X75836428Y76985715D01*
X75865000Y76871429D01*
X75893571Y76814286D01*
X75950714Y76757143D01*
X76036428Y76728572D01*
X76093571Y76728572D01*
X76179285Y76757143D01*
X76207857Y76785715D01*
X76207857Y76985715D01*
X76093571Y76985715D01*
X76807857Y76728572D02*
X76607857Y77014286D01*
X76465000Y76728572D02*
X76465000Y77328572D01*
X76693571Y77328572D01*
X76750714Y77300000D01*
X76779285Y77271429D01*
X76807857Y77214286D01*
X76807857Y77128572D01*
X76779285Y77071429D01*
X76750714Y77042858D01*
X76693571Y77014286D01*
X76465000Y77014286D01*
X77179285Y77328572D02*
X77293571Y77328572D01*
X77350714Y77300000D01*
X77407857Y77242858D01*
X77436428Y77128572D01*
X77436428Y76928572D01*
X77407857Y76814286D01*
X77350714Y76757143D01*
X77293571Y76728572D01*
X77179285Y76728572D01*
X77122142Y76757143D01*
X77065000Y76814286D01*
X77036428Y76928572D01*
X77036428Y77128572D01*
X77065000Y77242858D01*
X77122142Y77300000D01*
X77179285Y77328572D01*
X77807857Y77328572D02*
X77922142Y77328572D01*
X77979285Y77300000D01*
X78036428Y77242858D01*
X78065000Y77128572D01*
X78065000Y76928572D01*
X78036428Y76814286D01*
X77979285Y76757143D01*
X77922142Y76728572D01*
X77807857Y76728572D01*
X77750714Y76757143D01*
X77693571Y76814286D01*
X77665000Y76928572D01*
X77665000Y77128572D01*
X77693571Y77242858D01*
X77750714Y77300000D01*
X77807857Y77328572D01*
X78236428Y77328572D02*
X78436428Y76728572D01*
X78636428Y77328572D01*
X78836428Y77042858D02*
X79036428Y77042858D01*
X79122142Y76728572D02*
X78836428Y76728572D01*
X78836428Y77328572D01*
X79122142Y77328572D01*
X-300000Y20025000D02*
X-300000Y7975000D01*
X-300000Y34025000D02*
X-300000Y21975000D01*
X-300000Y48025000D02*
X-300000Y35975000D01*
X-300000Y62025000D02*
X-300000Y49975000D01*
X70300000Y7975000D02*
X70300000Y20025000D01*
X70300000Y21975000D02*
X70300000Y34025000D01*
X70300000Y35975000D02*
X70300000Y48025000D01*
X70300000Y49975000D02*
X70300000Y62025000D01*
X70300000Y63975000D02*
X70300000Y76025000D01*
X-300000Y76025000D02*
X-300000Y63975000D01*
D11*
X721428Y11892858D02*
X121428Y11892858D01*
X121428Y12121429D01*
X150000Y12178572D01*
X178571Y12207143D01*
X235714Y12235715D01*
X321428Y12235715D01*
X378571Y12207143D01*
X407142Y12178572D01*
X435714Y12121429D01*
X435714Y11892858D01*
X664285Y12835715D02*
X692857Y12807143D01*
X721428Y12721429D01*
X721428Y12664286D01*
X692857Y12578572D01*
X635714Y12521429D01*
X578571Y12492858D01*
X464285Y12464286D01*
X378571Y12464286D01*
X264285Y12492858D01*
X207142Y12521429D01*
X150000Y12578572D01*
X121428Y12664286D01*
X121428Y12721429D01*
X150000Y12807143D01*
X178571Y12835715D01*
X407142Y13292858D02*
X435714Y13378572D01*
X464285Y13407143D01*
X521428Y13435715D01*
X607142Y13435715D01*
X664285Y13407143D01*
X692857Y13378572D01*
X721428Y13321429D01*
X721428Y13092858D01*
X121428Y13092858D01*
X121428Y13292858D01*
X150000Y13350000D01*
X178571Y13378572D01*
X235714Y13407143D01*
X292857Y13407143D01*
X350000Y13378572D01*
X378571Y13350000D01*
X407142Y13292858D01*
X407142Y13092858D01*
X407142Y14150000D02*
X407142Y14350000D01*
X721428Y14435715D02*
X721428Y14150000D01*
X121428Y14150000D01*
X121428Y14435715D01*
X721428Y14950000D02*
X121428Y14950000D01*
X692857Y14950000D02*
X721428Y14892858D01*
X721428Y14778572D01*
X692857Y14721429D01*
X664285Y14692858D01*
X607142Y14664286D01*
X435714Y14664286D01*
X378571Y14692858D01*
X350000Y14721429D01*
X321428Y14778572D01*
X321428Y14892858D01*
X350000Y14950000D01*
X321428Y15492858D02*
X807142Y15492858D01*
X864285Y15464286D01*
X892857Y15435715D01*
X921428Y15378572D01*
X921428Y15292858D01*
X892857Y15235715D01*
X692857Y15492858D02*
X721428Y15435715D01*
X721428Y15321429D01*
X692857Y15264286D01*
X664285Y15235715D01*
X607142Y15207143D01*
X435714Y15207143D01*
X378571Y15235715D01*
X350000Y15264286D01*
X321428Y15321429D01*
X321428Y15435715D01*
X350000Y15492858D01*
X692857Y16007143D02*
X721428Y15950000D01*
X721428Y15835715D01*
X692857Y15778572D01*
X635714Y15750000D01*
X407142Y15750000D01*
X350000Y15778572D01*
X321428Y15835715D01*
X321428Y15950000D01*
X350000Y16007143D01*
X407142Y16035715D01*
X464285Y16035715D01*
X521428Y15750000D01*
X721428Y25892858D02*
X121428Y25892858D01*
X121428Y26121429D01*
X150000Y26178572D01*
X178571Y26207143D01*
X235714Y26235715D01*
X321428Y26235715D01*
X378571Y26207143D01*
X407142Y26178572D01*
X435714Y26121429D01*
X435714Y25892858D01*
X664285Y26835715D02*
X692857Y26807143D01*
X721428Y26721429D01*
X721428Y26664286D01*
X692857Y26578572D01*
X635714Y26521429D01*
X578571Y26492858D01*
X464285Y26464286D01*
X378571Y26464286D01*
X264285Y26492858D01*
X207142Y26521429D01*
X150000Y26578572D01*
X121428Y26664286D01*
X121428Y26721429D01*
X150000Y26807143D01*
X178571Y26835715D01*
X407142Y27292858D02*
X435714Y27378572D01*
X464285Y27407143D01*
X521428Y27435715D01*
X607142Y27435715D01*
X664285Y27407143D01*
X692857Y27378572D01*
X721428Y27321429D01*
X721428Y27092858D01*
X121428Y27092858D01*
X121428Y27292858D01*
X150000Y27350000D01*
X178571Y27378572D01*
X235714Y27407143D01*
X292857Y27407143D01*
X350000Y27378572D01*
X378571Y27350000D01*
X407142Y27292858D01*
X407142Y27092858D01*
X407142Y28150000D02*
X407142Y28350000D01*
X721428Y28435715D02*
X721428Y28150000D01*
X121428Y28150000D01*
X121428Y28435715D01*
X721428Y28950000D02*
X121428Y28950000D01*
X692857Y28950000D02*
X721428Y28892858D01*
X721428Y28778572D01*
X692857Y28721429D01*
X664285Y28692858D01*
X607142Y28664286D01*
X435714Y28664286D01*
X378571Y28692858D01*
X350000Y28721429D01*
X321428Y28778572D01*
X321428Y28892858D01*
X350000Y28950000D01*
X321428Y29492858D02*
X807142Y29492858D01*
X864285Y29464286D01*
X892857Y29435715D01*
X921428Y29378572D01*
X921428Y29292858D01*
X892857Y29235715D01*
X692857Y29492858D02*
X721428Y29435715D01*
X721428Y29321429D01*
X692857Y29264286D01*
X664285Y29235715D01*
X607142Y29207143D01*
X435714Y29207143D01*
X378571Y29235715D01*
X350000Y29264286D01*
X321428Y29321429D01*
X321428Y29435715D01*
X350000Y29492858D01*
X692857Y30007143D02*
X721428Y29950000D01*
X721428Y29835715D01*
X692857Y29778572D01*
X635714Y29750000D01*
X407142Y29750000D01*
X350000Y29778572D01*
X321428Y29835715D01*
X321428Y29950000D01*
X350000Y30007143D01*
X407142Y30035715D01*
X464285Y30035715D01*
X521428Y29750000D01*
X721428Y39892858D02*
X121428Y39892858D01*
X121428Y40121429D01*
X150000Y40178572D01*
X178571Y40207143D01*
X235714Y40235715D01*
X321428Y40235715D01*
X378571Y40207143D01*
X407142Y40178572D01*
X435714Y40121429D01*
X435714Y39892858D01*
X664285Y40835715D02*
X692857Y40807143D01*
X721428Y40721429D01*
X721428Y40664286D01*
X692857Y40578572D01*
X635714Y40521429D01*
X578571Y40492858D01*
X464285Y40464286D01*
X378571Y40464286D01*
X264285Y40492858D01*
X207142Y40521429D01*
X150000Y40578572D01*
X121428Y40664286D01*
X121428Y40721429D01*
X150000Y40807143D01*
X178571Y40835715D01*
X407142Y41292858D02*
X435714Y41378572D01*
X464285Y41407143D01*
X521428Y41435715D01*
X607142Y41435715D01*
X664285Y41407143D01*
X692857Y41378572D01*
X721428Y41321429D01*
X721428Y41092858D01*
X121428Y41092858D01*
X121428Y41292858D01*
X150000Y41350000D01*
X178571Y41378572D01*
X235714Y41407143D01*
X292857Y41407143D01*
X350000Y41378572D01*
X378571Y41350000D01*
X407142Y41292858D01*
X407142Y41092858D01*
X407142Y42150000D02*
X407142Y42350000D01*
X721428Y42435715D02*
X721428Y42150000D01*
X121428Y42150000D01*
X121428Y42435715D01*
X721428Y42950000D02*
X121428Y42950000D01*
X692857Y42950000D02*
X721428Y42892858D01*
X721428Y42778572D01*
X692857Y42721429D01*
X664285Y42692858D01*
X607142Y42664286D01*
X435714Y42664286D01*
X378571Y42692858D01*
X350000Y42721429D01*
X321428Y42778572D01*
X321428Y42892858D01*
X350000Y42950000D01*
X321428Y43492858D02*
X807142Y43492858D01*
X864285Y43464286D01*
X892857Y43435715D01*
X921428Y43378572D01*
X921428Y43292858D01*
X892857Y43235715D01*
X692857Y43492858D02*
X721428Y43435715D01*
X721428Y43321429D01*
X692857Y43264286D01*
X664285Y43235715D01*
X607142Y43207143D01*
X435714Y43207143D01*
X378571Y43235715D01*
X350000Y43264286D01*
X321428Y43321429D01*
X321428Y43435715D01*
X350000Y43492858D01*
X692857Y44007143D02*
X721428Y43950000D01*
X721428Y43835715D01*
X692857Y43778572D01*
X635714Y43750000D01*
X407142Y43750000D01*
X350000Y43778572D01*
X321428Y43835715D01*
X321428Y43950000D01*
X350000Y44007143D01*
X407142Y44035715D01*
X464285Y44035715D01*
X521428Y43750000D01*
X721428Y53892858D02*
X121428Y53892858D01*
X121428Y54121429D01*
X150000Y54178572D01*
X178571Y54207143D01*
X235714Y54235715D01*
X321428Y54235715D01*
X378571Y54207143D01*
X407142Y54178572D01*
X435714Y54121429D01*
X435714Y53892858D01*
X664285Y54835715D02*
X692857Y54807143D01*
X721428Y54721429D01*
X721428Y54664286D01*
X692857Y54578572D01*
X635714Y54521429D01*
X578571Y54492858D01*
X464285Y54464286D01*
X378571Y54464286D01*
X264285Y54492858D01*
X207142Y54521429D01*
X150000Y54578572D01*
X121428Y54664286D01*
X121428Y54721429D01*
X150000Y54807143D01*
X178571Y54835715D01*
X407142Y55292858D02*
X435714Y55378572D01*
X464285Y55407143D01*
X521428Y55435715D01*
X607142Y55435715D01*
X664285Y55407143D01*
X692857Y55378572D01*
X721428Y55321429D01*
X721428Y55092858D01*
X121428Y55092858D01*
X121428Y55292858D01*
X150000Y55350000D01*
X178571Y55378572D01*
X235714Y55407143D01*
X292857Y55407143D01*
X350000Y55378572D01*
X378571Y55350000D01*
X407142Y55292858D01*
X407142Y55092858D01*
X407142Y56150000D02*
X407142Y56350000D01*
X721428Y56435715D02*
X721428Y56150000D01*
X121428Y56150000D01*
X121428Y56435715D01*
X721428Y56950000D02*
X121428Y56950000D01*
X692857Y56950000D02*
X721428Y56892858D01*
X721428Y56778572D01*
X692857Y56721429D01*
X664285Y56692858D01*
X607142Y56664286D01*
X435714Y56664286D01*
X378571Y56692858D01*
X350000Y56721429D01*
X321428Y56778572D01*
X321428Y56892858D01*
X350000Y56950000D01*
X321428Y57492858D02*
X807142Y57492858D01*
X864285Y57464286D01*
X892857Y57435715D01*
X921428Y57378572D01*
X921428Y57292858D01*
X892857Y57235715D01*
X692857Y57492858D02*
X721428Y57435715D01*
X721428Y57321429D01*
X692857Y57264286D01*
X664285Y57235715D01*
X607142Y57207143D01*
X435714Y57207143D01*
X378571Y57235715D01*
X350000Y57264286D01*
X321428Y57321429D01*
X321428Y57435715D01*
X350000Y57492858D01*
X692857Y58007143D02*
X721428Y57950000D01*
X721428Y57835715D01*
X692857Y57778572D01*
X635714Y57750000D01*
X407142Y57750000D01*
X350000Y57778572D01*
X321428Y57835715D01*
X321428Y57950000D01*
X350000Y58007143D01*
X407142Y58035715D01*
X464285Y58035715D01*
X521428Y57750000D01*
X69821428Y11992858D02*
X69221428Y11992858D01*
X69221428Y12221429D01*
X69250000Y12278572D01*
X69278571Y12307143D01*
X69335714Y12335715D01*
X69421428Y12335715D01*
X69478571Y12307143D01*
X69507142Y12278572D01*
X69535714Y12221429D01*
X69535714Y11992858D01*
X69764285Y12935715D02*
X69792857Y12907143D01*
X69821428Y12821429D01*
X69821428Y12764286D01*
X69792857Y12678572D01*
X69735714Y12621429D01*
X69678571Y12592858D01*
X69564285Y12564286D01*
X69478571Y12564286D01*
X69364285Y12592858D01*
X69307142Y12621429D01*
X69250000Y12678572D01*
X69221428Y12764286D01*
X69221428Y12821429D01*
X69250000Y12907143D01*
X69278571Y12935715D01*
X69507142Y13392858D02*
X69535714Y13478572D01*
X69564285Y13507143D01*
X69621428Y13535715D01*
X69707142Y13535715D01*
X69764285Y13507143D01*
X69792857Y13478572D01*
X69821428Y13421429D01*
X69821428Y13192858D01*
X69221428Y13192858D01*
X69221428Y13392858D01*
X69250000Y13450000D01*
X69278571Y13478572D01*
X69335714Y13507143D01*
X69392857Y13507143D01*
X69450000Y13478572D01*
X69478571Y13450000D01*
X69507142Y13392858D01*
X69507142Y13192858D01*
X69507142Y14250000D02*
X69507142Y14450000D01*
X69821428Y14535715D02*
X69821428Y14250000D01*
X69221428Y14250000D01*
X69221428Y14535715D01*
X69821428Y15050000D02*
X69221428Y15050000D01*
X69792857Y15050000D02*
X69821428Y14992858D01*
X69821428Y14878572D01*
X69792857Y14821429D01*
X69764285Y14792858D01*
X69707142Y14764286D01*
X69535714Y14764286D01*
X69478571Y14792858D01*
X69450000Y14821429D01*
X69421428Y14878572D01*
X69421428Y14992858D01*
X69450000Y15050000D01*
X69421428Y15592858D02*
X69907142Y15592858D01*
X69964285Y15564286D01*
X69992857Y15535715D01*
X70021428Y15478572D01*
X70021428Y15392858D01*
X69992857Y15335715D01*
X69792857Y15592858D02*
X69821428Y15535715D01*
X69821428Y15421429D01*
X69792857Y15364286D01*
X69764285Y15335715D01*
X69707142Y15307143D01*
X69535714Y15307143D01*
X69478571Y15335715D01*
X69450000Y15364286D01*
X69421428Y15421429D01*
X69421428Y15535715D01*
X69450000Y15592858D01*
X69792857Y16107143D02*
X69821428Y16050000D01*
X69821428Y15935715D01*
X69792857Y15878572D01*
X69735714Y15850000D01*
X69507142Y15850000D01*
X69450000Y15878572D01*
X69421428Y15935715D01*
X69421428Y16050000D01*
X69450000Y16107143D01*
X69507142Y16135715D01*
X69564285Y16135715D01*
X69621428Y15850000D01*
X69821428Y25992858D02*
X69221428Y25992858D01*
X69221428Y26221429D01*
X69250000Y26278572D01*
X69278571Y26307143D01*
X69335714Y26335715D01*
X69421428Y26335715D01*
X69478571Y26307143D01*
X69507142Y26278572D01*
X69535714Y26221429D01*
X69535714Y25992858D01*
X69764285Y26935715D02*
X69792857Y26907143D01*
X69821428Y26821429D01*
X69821428Y26764286D01*
X69792857Y26678572D01*
X69735714Y26621429D01*
X69678571Y26592858D01*
X69564285Y26564286D01*
X69478571Y26564286D01*
X69364285Y26592858D01*
X69307142Y26621429D01*
X69250000Y26678572D01*
X69221428Y26764286D01*
X69221428Y26821429D01*
X69250000Y26907143D01*
X69278571Y26935715D01*
X69507142Y27392858D02*
X69535714Y27478572D01*
X69564285Y27507143D01*
X69621428Y27535715D01*
X69707142Y27535715D01*
X69764285Y27507143D01*
X69792857Y27478572D01*
X69821428Y27421429D01*
X69821428Y27192858D01*
X69221428Y27192858D01*
X69221428Y27392858D01*
X69250000Y27450000D01*
X69278571Y27478572D01*
X69335714Y27507143D01*
X69392857Y27507143D01*
X69450000Y27478572D01*
X69478571Y27450000D01*
X69507142Y27392858D01*
X69507142Y27192858D01*
X69507142Y28250000D02*
X69507142Y28450000D01*
X69821428Y28535715D02*
X69821428Y28250000D01*
X69221428Y28250000D01*
X69221428Y28535715D01*
X69821428Y29050000D02*
X69221428Y29050000D01*
X69792857Y29050000D02*
X69821428Y28992858D01*
X69821428Y28878572D01*
X69792857Y28821429D01*
X69764285Y28792858D01*
X69707142Y28764286D01*
X69535714Y28764286D01*
X69478571Y28792858D01*
X69450000Y28821429D01*
X69421428Y28878572D01*
X69421428Y28992858D01*
X69450000Y29050000D01*
X69421428Y29592858D02*
X69907142Y29592858D01*
X69964285Y29564286D01*
X69992857Y29535715D01*
X70021428Y29478572D01*
X70021428Y29392858D01*
X69992857Y29335715D01*
X69792857Y29592858D02*
X69821428Y29535715D01*
X69821428Y29421429D01*
X69792857Y29364286D01*
X69764285Y29335715D01*
X69707142Y29307143D01*
X69535714Y29307143D01*
X69478571Y29335715D01*
X69450000Y29364286D01*
X69421428Y29421429D01*
X69421428Y29535715D01*
X69450000Y29592858D01*
X69792857Y30107143D02*
X69821428Y30050000D01*
X69821428Y29935715D01*
X69792857Y29878572D01*
X69735714Y29850000D01*
X69507142Y29850000D01*
X69450000Y29878572D01*
X69421428Y29935715D01*
X69421428Y30050000D01*
X69450000Y30107143D01*
X69507142Y30135715D01*
X69564285Y30135715D01*
X69621428Y29850000D01*
X69821428Y39992858D02*
X69221428Y39992858D01*
X69221428Y40221429D01*
X69250000Y40278572D01*
X69278571Y40307143D01*
X69335714Y40335715D01*
X69421428Y40335715D01*
X69478571Y40307143D01*
X69507142Y40278572D01*
X69535714Y40221429D01*
X69535714Y39992858D01*
X69764285Y40935715D02*
X69792857Y40907143D01*
X69821428Y40821429D01*
X69821428Y40764286D01*
X69792857Y40678572D01*
X69735714Y40621429D01*
X69678571Y40592858D01*
X69564285Y40564286D01*
X69478571Y40564286D01*
X69364285Y40592858D01*
X69307142Y40621429D01*
X69250000Y40678572D01*
X69221428Y40764286D01*
X69221428Y40821429D01*
X69250000Y40907143D01*
X69278571Y40935715D01*
X69507142Y41392858D02*
X69535714Y41478572D01*
X69564285Y41507143D01*
X69621428Y41535715D01*
X69707142Y41535715D01*
X69764285Y41507143D01*
X69792857Y41478572D01*
X69821428Y41421429D01*
X69821428Y41192858D01*
X69221428Y41192858D01*
X69221428Y41392858D01*
X69250000Y41450000D01*
X69278571Y41478572D01*
X69335714Y41507143D01*
X69392857Y41507143D01*
X69450000Y41478572D01*
X69478571Y41450000D01*
X69507142Y41392858D01*
X69507142Y41192858D01*
X69507142Y42250000D02*
X69507142Y42450000D01*
X69821428Y42535715D02*
X69821428Y42250000D01*
X69221428Y42250000D01*
X69221428Y42535715D01*
X69821428Y43050000D02*
X69221428Y43050000D01*
X69792857Y43050000D02*
X69821428Y42992858D01*
X69821428Y42878572D01*
X69792857Y42821429D01*
X69764285Y42792858D01*
X69707142Y42764286D01*
X69535714Y42764286D01*
X69478571Y42792858D01*
X69450000Y42821429D01*
X69421428Y42878572D01*
X69421428Y42992858D01*
X69450000Y43050000D01*
X69421428Y43592858D02*
X69907142Y43592858D01*
X69964285Y43564286D01*
X69992857Y43535715D01*
X70021428Y43478572D01*
X70021428Y43392858D01*
X69992857Y43335715D01*
X69792857Y43592858D02*
X69821428Y43535715D01*
X69821428Y43421429D01*
X69792857Y43364286D01*
X69764285Y43335715D01*
X69707142Y43307143D01*
X69535714Y43307143D01*
X69478571Y43335715D01*
X69450000Y43364286D01*
X69421428Y43421429D01*
X69421428Y43535715D01*
X69450000Y43592858D01*
X69792857Y44107143D02*
X69821428Y44050000D01*
X69821428Y43935715D01*
X69792857Y43878572D01*
X69735714Y43850000D01*
X69507142Y43850000D01*
X69450000Y43878572D01*
X69421428Y43935715D01*
X69421428Y44050000D01*
X69450000Y44107143D01*
X69507142Y44135715D01*
X69564285Y44135715D01*
X69621428Y43850000D01*
X69821428Y53992858D02*
X69221428Y53992858D01*
X69221428Y54221429D01*
X69250000Y54278572D01*
X69278571Y54307143D01*
X69335714Y54335715D01*
X69421428Y54335715D01*
X69478571Y54307143D01*
X69507142Y54278572D01*
X69535714Y54221429D01*
X69535714Y53992858D01*
X69764285Y54935715D02*
X69792857Y54907143D01*
X69821428Y54821429D01*
X69821428Y54764286D01*
X69792857Y54678572D01*
X69735714Y54621429D01*
X69678571Y54592858D01*
X69564285Y54564286D01*
X69478571Y54564286D01*
X69364285Y54592858D01*
X69307142Y54621429D01*
X69250000Y54678572D01*
X69221428Y54764286D01*
X69221428Y54821429D01*
X69250000Y54907143D01*
X69278571Y54935715D01*
X69507142Y55392858D02*
X69535714Y55478572D01*
X69564285Y55507143D01*
X69621428Y55535715D01*
X69707142Y55535715D01*
X69764285Y55507143D01*
X69792857Y55478572D01*
X69821428Y55421429D01*
X69821428Y55192858D01*
X69221428Y55192858D01*
X69221428Y55392858D01*
X69250000Y55450000D01*
X69278571Y55478572D01*
X69335714Y55507143D01*
X69392857Y55507143D01*
X69450000Y55478572D01*
X69478571Y55450000D01*
X69507142Y55392858D01*
X69507142Y55192858D01*
X69507142Y56250000D02*
X69507142Y56450000D01*
X69821428Y56535715D02*
X69821428Y56250000D01*
X69221428Y56250000D01*
X69221428Y56535715D01*
X69821428Y57050000D02*
X69221428Y57050000D01*
X69792857Y57050000D02*
X69821428Y56992858D01*
X69821428Y56878572D01*
X69792857Y56821429D01*
X69764285Y56792858D01*
X69707142Y56764286D01*
X69535714Y56764286D01*
X69478571Y56792858D01*
X69450000Y56821429D01*
X69421428Y56878572D01*
X69421428Y56992858D01*
X69450000Y57050000D01*
X69421428Y57592858D02*
X69907142Y57592858D01*
X69964285Y57564286D01*
X69992857Y57535715D01*
X70021428Y57478572D01*
X70021428Y57392858D01*
X69992857Y57335715D01*
X69792857Y57592858D02*
X69821428Y57535715D01*
X69821428Y57421429D01*
X69792857Y57364286D01*
X69764285Y57335715D01*
X69707142Y57307143D01*
X69535714Y57307143D01*
X69478571Y57335715D01*
X69450000Y57364286D01*
X69421428Y57421429D01*
X69421428Y57535715D01*
X69450000Y57592858D01*
X69792857Y58107143D02*
X69821428Y58050000D01*
X69821428Y57935715D01*
X69792857Y57878572D01*
X69735714Y57850000D01*
X69507142Y57850000D01*
X69450000Y57878572D01*
X69421428Y57935715D01*
X69421428Y58050000D01*
X69450000Y58107143D01*
X69507142Y58135715D01*
X69564285Y58135715D01*
X69621428Y57850000D01*
X69821428Y67992858D02*
X69221428Y67992858D01*
X69221428Y68221429D01*
X69250000Y68278572D01*
X69278571Y68307143D01*
X69335714Y68335715D01*
X69421428Y68335715D01*
X69478571Y68307143D01*
X69507142Y68278572D01*
X69535714Y68221429D01*
X69535714Y67992858D01*
X69764285Y68935715D02*
X69792857Y68907143D01*
X69821428Y68821429D01*
X69821428Y68764286D01*
X69792857Y68678572D01*
X69735714Y68621429D01*
X69678571Y68592858D01*
X69564285Y68564286D01*
X69478571Y68564286D01*
X69364285Y68592858D01*
X69307142Y68621429D01*
X69250000Y68678572D01*
X69221428Y68764286D01*
X69221428Y68821429D01*
X69250000Y68907143D01*
X69278571Y68935715D01*
X69507142Y69392858D02*
X69535714Y69478572D01*
X69564285Y69507143D01*
X69621428Y69535715D01*
X69707142Y69535715D01*
X69764285Y69507143D01*
X69792857Y69478572D01*
X69821428Y69421429D01*
X69821428Y69192858D01*
X69221428Y69192858D01*
X69221428Y69392858D01*
X69250000Y69450000D01*
X69278571Y69478572D01*
X69335714Y69507143D01*
X69392857Y69507143D01*
X69450000Y69478572D01*
X69478571Y69450000D01*
X69507142Y69392858D01*
X69507142Y69192858D01*
X69507142Y70250000D02*
X69507142Y70450000D01*
X69821428Y70535715D02*
X69821428Y70250000D01*
X69221428Y70250000D01*
X69221428Y70535715D01*
X69821428Y71050000D02*
X69221428Y71050000D01*
X69792857Y71050000D02*
X69821428Y70992858D01*
X69821428Y70878572D01*
X69792857Y70821429D01*
X69764285Y70792858D01*
X69707142Y70764286D01*
X69535714Y70764286D01*
X69478571Y70792858D01*
X69450000Y70821429D01*
X69421428Y70878572D01*
X69421428Y70992858D01*
X69450000Y71050000D01*
X69421428Y71592858D02*
X69907142Y71592858D01*
X69964285Y71564286D01*
X69992857Y71535715D01*
X70021428Y71478572D01*
X70021428Y71392858D01*
X69992857Y71335715D01*
X69792857Y71592858D02*
X69821428Y71535715D01*
X69821428Y71421429D01*
X69792857Y71364286D01*
X69764285Y71335715D01*
X69707142Y71307143D01*
X69535714Y71307143D01*
X69478571Y71335715D01*
X69450000Y71364286D01*
X69421428Y71421429D01*
X69421428Y71535715D01*
X69450000Y71592858D01*
X69792857Y72107143D02*
X69821428Y72050000D01*
X69821428Y71935715D01*
X69792857Y71878572D01*
X69735714Y71850000D01*
X69507142Y71850000D01*
X69450000Y71878572D01*
X69421428Y71935715D01*
X69421428Y72050000D01*
X69450000Y72107143D01*
X69507142Y72135715D01*
X69564285Y72135715D01*
X69621428Y71850000D01*
X721428Y67892858D02*
X121428Y67892858D01*
X121428Y68121429D01*
X150000Y68178572D01*
X178571Y68207143D01*
X235714Y68235715D01*
X321428Y68235715D01*
X378571Y68207143D01*
X407142Y68178572D01*
X435714Y68121429D01*
X435714Y67892858D01*
X664285Y68835715D02*
X692857Y68807143D01*
X721428Y68721429D01*
X721428Y68664286D01*
X692857Y68578572D01*
X635714Y68521429D01*
X578571Y68492858D01*
X464285Y68464286D01*
X378571Y68464286D01*
X264285Y68492858D01*
X207142Y68521429D01*
X150000Y68578572D01*
X121428Y68664286D01*
X121428Y68721429D01*
X150000Y68807143D01*
X178571Y68835715D01*
X407142Y69292858D02*
X435714Y69378572D01*
X464285Y69407143D01*
X521428Y69435715D01*
X607142Y69435715D01*
X664285Y69407143D01*
X692857Y69378572D01*
X721428Y69321429D01*
X721428Y69092858D01*
X121428Y69092858D01*
X121428Y69292858D01*
X150000Y69350000D01*
X178571Y69378572D01*
X235714Y69407143D01*
X292857Y69407143D01*
X350000Y69378572D01*
X378571Y69350000D01*
X407142Y69292858D01*
X407142Y69092858D01*
X407142Y70150000D02*
X407142Y70350000D01*
X721428Y70435715D02*
X721428Y70150000D01*
X121428Y70150000D01*
X121428Y70435715D01*
X721428Y70950000D02*
X121428Y70950000D01*
X692857Y70950000D02*
X721428Y70892858D01*
X721428Y70778572D01*
X692857Y70721429D01*
X664285Y70692858D01*
X607142Y70664286D01*
X435714Y70664286D01*
X378571Y70692858D01*
X350000Y70721429D01*
X321428Y70778572D01*
X321428Y70892858D01*
X350000Y70950000D01*
X321428Y71492858D02*
X807142Y71492858D01*
X864285Y71464286D01*
X892857Y71435715D01*
X921428Y71378572D01*
X921428Y71292858D01*
X892857Y71235715D01*
X692857Y71492858D02*
X721428Y71435715D01*
X721428Y71321429D01*
X692857Y71264286D01*
X664285Y71235715D01*
X607142Y71207143D01*
X435714Y71207143D01*
X378571Y71235715D01*
X350000Y71264286D01*
X321428Y71321429D01*
X321428Y71435715D01*
X350000Y71492858D01*
X692857Y72007143D02*
X721428Y71950000D01*
X721428Y71835715D01*
X692857Y71778572D01*
X635714Y71750000D01*
X407142Y71750000D01*
X350000Y71778572D01*
X321428Y71835715D01*
X321428Y71950000D01*
X350000Y72007143D01*
X407142Y72035715D01*
X464285Y72035715D01*
X521428Y71750000D01*
M02*
