M48
; DRILL file {KiCad (5.1.0-70-g46d257dc6)} date Cum 03 May 2019 15:48:23 +03
; FORMAT={-:-/ absolute / inch / decimal}
; #@! TF.CreationDate,2019-05-03T15:48:23+03:00
; #@! TF.GenerationSoftware,Kicad,Pcbnew,(5.1.0-70-g46d257dc6)
; #@! TF.FileFunction,Plated,1,2,PTH
FMAT,2
INCH
T1C0.0157
T2C0.0236
T3C0.0335
T4C0.0394
%
G90
G05
T1
X4.5177Y-3.0709
X4.5787Y-2.9449
X4.6673Y-2.9823
X4.6772Y-3.3228
X4.6772Y-3.3642
X4.689Y-3.2283
X4.7835Y-3.0709
X4.8406Y-3.5728
X4.8917Y-3.3386
X4.9016Y-3.2776
X4.9803Y-3.3386
X5.122Y-3.0709
X5.2165Y-3.4646
T3
X4.6048Y-3.2579
X4.6048Y-3.4547
T4
X5.2402Y-2.9921
X5.3402Y-2.9921
X5.5315Y-3.3071
X5.5315Y-3.4055
X4.7787Y-3.75
X4.8787Y-3.75
X4.9787Y-3.75
X5.0787Y-3.75
T2
G00X4.4847Y-3.2185
M15
G01X4.5123Y-3.2185
M16
G05
G00X4.5123Y-3.4941
M15
G01X4.4847Y-3.4941
M16
G05
T0
M30
